G04 #@! TF.GenerationSoftware,KiCad,Pcbnew,9.0.5*
G04 #@! TF.CreationDate,2025-10-15T01:53:07-07:00*
G04 #@! TF.ProjectId,CAN_Sniffer_1.0,43414e5f-536e-4696-9666-65725f312e30,rev?*
G04 #@! TF.SameCoordinates,Original*
G04 #@! TF.FileFunction,Soldermask,Bot*
G04 #@! TF.FilePolarity,Negative*
%FSLAX46Y46*%
G04 Gerber Fmt 4.6, Leading zero omitted, Abs format (unit mm)*
G04 Created by KiCad (PCBNEW 9.0.5) date 2025-10-15 01:53:07*
%MOMM*%
%LPD*%
G01*
G04 APERTURE LIST*
G04 Aperture macros list*
%AMRoundRect*
0 Rectangle with rounded corners*
0 $1 Rounding radius*
0 $2 $3 $4 $5 $6 $7 $8 $9 X,Y pos of 4 corners*
0 Add a 4 corners polygon primitive as box body*
4,1,4,$2,$3,$4,$5,$6,$7,$8,$9,$2,$3,0*
0 Add four circle primitives for the rounded corners*
1,1,$1+$1,$2,$3*
1,1,$1+$1,$4,$5*
1,1,$1+$1,$6,$7*
1,1,$1+$1,$8,$9*
0 Add four rect primitives between the rounded corners*
20,1,$1+$1,$2,$3,$4,$5,0*
20,1,$1+$1,$4,$5,$6,$7,0*
20,1,$1+$1,$6,$7,$8,$9,0*
20,1,$1+$1,$8,$9,$2,$3,0*%
G04 Aperture macros list end*
%ADD10R,1.700000X1.700000*%
%ADD11C,1.700000*%
%ADD12RoundRect,0.250000X0.550000X-0.550000X0.550000X0.550000X-0.550000X0.550000X-0.550000X-0.550000X0*%
%ADD13C,1.600000*%
%ADD14C,1.200000*%
%ADD15C,2.310000*%
%ADD16C,3.250000*%
%ADD17R,1.500000X1.500000*%
%ADD18C,1.500000*%
%ADD19C,2.300000*%
%ADD20C,3.200000*%
%ADD21RoundRect,0.102000X0.762000X0.762000X-0.762000X0.762000X-0.762000X-0.762000X0.762000X-0.762000X0*%
%ADD22C,1.728000*%
%ADD23C,1.000000*%
G04 APERTURE END LIST*
D10*
X89100000Y-115060000D03*
D11*
X89100000Y-117600000D03*
X89100000Y-120140000D03*
D12*
X130600000Y-112755113D03*
D13*
X130600000Y-110755113D03*
D14*
X67000000Y-90250000D03*
X67000000Y-88750000D03*
X67000000Y-87250000D03*
X67000000Y-85750000D03*
X67000000Y-84250000D03*
X67000000Y-82750000D03*
X67000000Y-81250000D03*
X67000000Y-79750000D03*
X67000000Y-78250000D03*
X67000000Y-76750000D03*
D15*
X68950000Y-66200000D03*
X68950000Y-100800000D03*
D10*
X159900000Y-59200000D03*
D11*
X162440000Y-59200000D03*
D16*
X83300000Y-140500000D03*
X70600000Y-140500000D03*
D17*
X80510000Y-137960000D03*
D18*
X79494000Y-136180000D03*
X78478000Y-137960000D03*
X77462000Y-136180000D03*
X76446000Y-137960000D03*
X75430000Y-136180000D03*
X74414000Y-137960000D03*
X73398000Y-136180000D03*
X83810000Y-131360000D03*
X81520000Y-131360000D03*
X72380000Y-131360000D03*
X70090000Y-131360000D03*
D19*
X85080000Y-137070000D03*
X68820000Y-137070000D03*
D20*
X153306000Y-115446250D03*
X120286000Y-63376250D03*
X105046000Y-114176250D03*
D21*
X160926000Y-111636250D03*
D22*
X158386000Y-111636250D03*
X160926000Y-109096250D03*
X158386000Y-109096250D03*
X160926000Y-106556250D03*
X158386000Y-106556250D03*
X160926000Y-104016250D03*
X158386000Y-104016250D03*
X160926000Y-101476250D03*
X158386000Y-101476250D03*
X160926000Y-98936250D03*
X158386000Y-98936250D03*
X160926000Y-96396250D03*
X158386000Y-96396250D03*
X160926000Y-93856250D03*
X158386000Y-93856250D03*
X160926000Y-91316250D03*
X158386000Y-91316250D03*
X160926000Y-88776250D03*
X158386000Y-88776250D03*
X160926000Y-86236250D03*
X158386000Y-86236250D03*
X160926000Y-83696250D03*
X158386000Y-83696250D03*
X160926000Y-81156250D03*
X158386000Y-81156250D03*
X160926000Y-78616250D03*
X158386000Y-78616250D03*
X160926000Y-76076250D03*
X158386000Y-76076250D03*
X160926000Y-73536250D03*
X158386000Y-73536250D03*
X160926000Y-70996250D03*
X158386000Y-70996250D03*
X160926000Y-68456250D03*
X158386000Y-68456250D03*
X160926000Y-65916250D03*
X158386000Y-65916250D03*
X99966000Y-111636250D03*
X97426000Y-111636250D03*
X99966000Y-109096250D03*
X97426000Y-109096250D03*
X99966000Y-106556250D03*
X97426000Y-106556250D03*
X99966000Y-104016250D03*
X97426000Y-104016250D03*
X99966000Y-101476250D03*
X97426000Y-101476250D03*
X99966000Y-98936250D03*
X97426000Y-98936250D03*
X99966000Y-96396250D03*
X97426000Y-96396250D03*
X99966000Y-93856250D03*
X97426000Y-93856250D03*
X99966000Y-91316250D03*
X97426000Y-91316250D03*
X99966000Y-88776250D03*
X97426000Y-88776250D03*
X99966000Y-86236250D03*
X97426000Y-86236250D03*
X99966000Y-83696250D03*
X97426000Y-83696250D03*
X99966000Y-81156250D03*
X97426000Y-81156250D03*
X99966000Y-78616250D03*
X97426000Y-78616250D03*
X99966000Y-76076250D03*
X97426000Y-76076250D03*
X99966000Y-73536250D03*
X97426000Y-73536250D03*
X99966000Y-70996250D03*
X97426000Y-70996250D03*
X99966000Y-68456250D03*
X97426000Y-68456250D03*
X99966000Y-65916250D03*
X97426000Y-65916250D03*
D23*
X144900000Y-96600000D03*
X142800000Y-96900000D03*
X142300000Y-88100000D03*
X129100000Y-132700000D03*
X121725000Y-91325000D03*
X142400000Y-104800000D03*
X134700000Y-113100000D03*
M02*
