G04 #@! TF.GenerationSoftware,KiCad,Pcbnew,9.0.5*
G04 #@! TF.CreationDate,2025-10-15T01:53:07-07:00*
G04 #@! TF.ProjectId,CAN_Sniffer_1.0,43414e5f-536e-4696-9666-65725f312e30,rev?*
G04 #@! TF.SameCoordinates,Original*
G04 #@! TF.FileFunction,Soldermask,Top*
G04 #@! TF.FilePolarity,Negative*
%FSLAX46Y46*%
G04 Gerber Fmt 4.6, Leading zero omitted, Abs format (unit mm)*
G04 Created by KiCad (PCBNEW 9.0.5) date 2025-10-15 01:53:07*
%MOMM*%
%LPD*%
G01*
G04 APERTURE LIST*
G04 Aperture macros list*
%AMRoundRect*
0 Rectangle with rounded corners*
0 $1 Rounding radius*
0 $2 $3 $4 $5 $6 $7 $8 $9 X,Y pos of 4 corners*
0 Add a 4 corners polygon primitive as box body*
4,1,4,$2,$3,$4,$5,$6,$7,$8,$9,$2,$3,0*
0 Add four circle primitives for the rounded corners*
1,1,$1+$1,$2,$3*
1,1,$1+$1,$4,$5*
1,1,$1+$1,$6,$7*
1,1,$1+$1,$8,$9*
0 Add four rect primitives between the rounded corners*
20,1,$1+$1,$2,$3,$4,$5,0*
20,1,$1+$1,$4,$5,$6,$7,0*
20,1,$1+$1,$6,$7,$8,$9,0*
20,1,$1+$1,$8,$9,$2,$3,0*%
G04 Aperture macros list end*
%ADD10RoundRect,0.237500X0.300000X0.237500X-0.300000X0.237500X-0.300000X-0.237500X0.300000X-0.237500X0*%
%ADD11RoundRect,0.250000X-0.650000X1.450000X-0.650000X-1.450000X0.650000X-1.450000X0.650000X1.450000X0*%
%ADD12RoundRect,0.237500X-0.250000X-0.237500X0.250000X-0.237500X0.250000X0.237500X-0.250000X0.237500X0*%
%ADD13RoundRect,0.250000X0.250000X-0.250000X0.250000X0.250000X-0.250000X0.250000X-0.250000X-0.250000X0*%
%ADD14RoundRect,0.237500X-0.237500X0.250000X-0.237500X-0.250000X0.237500X-0.250000X0.237500X0.250000X0*%
%ADD15C,1.000000*%
%ADD16RoundRect,0.155000X-0.212500X-0.155000X0.212500X-0.155000X0.212500X0.155000X-0.212500X0.155000X0*%
%ADD17RoundRect,0.237500X0.250000X0.237500X-0.250000X0.237500X-0.250000X-0.237500X0.250000X-0.237500X0*%
%ADD18RoundRect,0.150000X-0.825000X-0.150000X0.825000X-0.150000X0.825000X0.150000X-0.825000X0.150000X0*%
%ADD19RoundRect,0.250000X0.450000X-0.350000X0.450000X0.350000X-0.450000X0.350000X-0.450000X-0.350000X0*%
%ADD20RoundRect,0.250000X-1.500000X-0.650000X1.500000X-0.650000X1.500000X0.650000X-1.500000X0.650000X0*%
%ADD21RoundRect,0.250000X-0.475000X0.337500X-0.475000X-0.337500X0.475000X-0.337500X0.475000X0.337500X0*%
%ADD22RoundRect,0.150000X0.150000X-0.587500X0.150000X0.587500X-0.150000X0.587500X-0.150000X-0.587500X0*%
%ADD23RoundRect,0.237500X0.237500X-0.300000X0.237500X0.300000X-0.237500X0.300000X-0.237500X-0.300000X0*%
%ADD24RoundRect,0.250000X-0.337500X-0.475000X0.337500X-0.475000X0.337500X0.475000X-0.337500X0.475000X0*%
%ADD25RoundRect,0.250000X0.337500X0.475000X-0.337500X0.475000X-0.337500X-0.475000X0.337500X-0.475000X0*%
%ADD26R,1.700000X1.700000*%
%ADD27C,1.700000*%
%ADD28RoundRect,0.250000X0.550000X-0.550000X0.550000X0.550000X-0.550000X0.550000X-0.550000X-0.550000X0*%
%ADD29C,1.600000*%
%ADD30R,2.000000X1.100000*%
%ADD31R,0.800000X0.800000*%
%ADD32C,1.200000*%
%ADD33C,2.310000*%
%ADD34RoundRect,0.237500X-0.237500X0.300000X-0.237500X-0.300000X0.237500X-0.300000X0.237500X0.300000X0*%
%ADD35R,2.000000X2.000000*%
%ADD36R,0.600000X1.550000*%
%ADD37R,3.100000X2.600000*%
%ADD38R,1.320800X0.558800*%
%ADD39RoundRect,0.250000X-0.650000X1.500000X-0.650000X-1.500000X0.650000X-1.500000X0.650000X1.500000X0*%
%ADD40RoundRect,0.237500X0.237500X-0.250000X0.237500X0.250000X-0.237500X0.250000X-0.237500X-0.250000X0*%
%ADD41RoundRect,0.250000X0.325000X0.450000X-0.325000X0.450000X-0.325000X-0.450000X0.325000X-0.450000X0*%
%ADD42C,3.250000*%
%ADD43R,1.500000X1.500000*%
%ADD44C,1.500000*%
%ADD45C,2.300000*%
%ADD46RoundRect,0.250000X-0.350000X-0.450000X0.350000X-0.450000X0.350000X0.450000X-0.350000X0.450000X0*%
%ADD47R,0.700000X1.100000*%
%ADD48R,0.900000X0.930000*%
%ADD49R,1.050000X0.780000*%
%ADD50R,1.140000X1.830000*%
%ADD51R,0.860000X2.800000*%
%ADD52R,0.700000X3.330000*%
%ADD53R,0.750000X1.200000*%
%ADD54RoundRect,0.237500X-0.300000X-0.237500X0.300000X-0.237500X0.300000X0.237500X-0.300000X0.237500X0*%
%ADD55R,0.400000X1.050000*%
%ADD56R,0.600000X0.200000*%
%ADD57C,3.200000*%
%ADD58RoundRect,0.102000X0.762000X0.762000X-0.762000X0.762000X-0.762000X-0.762000X0.762000X-0.762000X0*%
%ADD59C,1.728000*%
%ADD60RoundRect,0.160000X-0.197500X-0.160000X0.197500X-0.160000X0.197500X0.160000X-0.197500X0.160000X0*%
G04 APERTURE END LIST*
D10*
X63950000Y-66250000D03*
X62225000Y-66250000D03*
D11*
X61400000Y-103500000D03*
D12*
X62200000Y-113625000D03*
X64025000Y-113625000D03*
D13*
X139700000Y-126100000D03*
X139700000Y-123600000D03*
D10*
X135580000Y-131400000D03*
X133855000Y-131400000D03*
D14*
X122100000Y-72900000D03*
X122100000Y-74725000D03*
D10*
X112595000Y-58387500D03*
X110870000Y-58387500D03*
D15*
X62025000Y-71575000D03*
D16*
X144400000Y-94600000D03*
X145535000Y-94600000D03*
D17*
X65865000Y-130790000D03*
X64040000Y-130790000D03*
D18*
X76080000Y-119960000D03*
X76080000Y-121230000D03*
X76080000Y-122500000D03*
X76080000Y-123770000D03*
X81030000Y-123770000D03*
X81030000Y-122500000D03*
X81030000Y-121230000D03*
X81030000Y-119960000D03*
D19*
X128400000Y-118900000D03*
X128400000Y-116900000D03*
D20*
X139300000Y-82700000D03*
X144300000Y-82700000D03*
D21*
X81530000Y-125905000D03*
X81530000Y-127980000D03*
D20*
X139425000Y-107600000D03*
X144425000Y-107600000D03*
D19*
X139400000Y-112900000D03*
X139400000Y-110900000D03*
D22*
X66000000Y-114000000D03*
X67900000Y-114000000D03*
X66950000Y-112125000D03*
D23*
X64025000Y-75500000D03*
X64025000Y-73775000D03*
D24*
X139400000Y-119550000D03*
X141475000Y-119550000D03*
D25*
X120700000Y-114600000D03*
X118625000Y-114600000D03*
D26*
X89100000Y-115060000D03*
D27*
X89100000Y-117600000D03*
X89100000Y-120140000D03*
D25*
X124600000Y-121400000D03*
X122525000Y-121400000D03*
X124600000Y-128100000D03*
X122525000Y-128100000D03*
D17*
X146200000Y-90500000D03*
X144375000Y-90500000D03*
D28*
X130600000Y-112755113D03*
D29*
X130600000Y-110755113D03*
D10*
X135580000Y-128900000D03*
X133855000Y-128900000D03*
D30*
X140400000Y-77200000D03*
D31*
X142300000Y-77200000D03*
D17*
X142315000Y-94300000D03*
X140490000Y-94300000D03*
D25*
X124600000Y-123600000D03*
X122525000Y-123600000D03*
D32*
X67000000Y-90250000D03*
X67000000Y-88750000D03*
X67000000Y-87250000D03*
X67000000Y-85750000D03*
X67000000Y-84250000D03*
X67000000Y-82750000D03*
X67000000Y-81250000D03*
X67000000Y-79750000D03*
X67000000Y-78250000D03*
X67000000Y-76750000D03*
D33*
X68950000Y-66200000D03*
X68950000Y-100800000D03*
D14*
X124100000Y-72900000D03*
X124100000Y-74725000D03*
D17*
X66365000Y-124540000D03*
X64540000Y-124540000D03*
D15*
X59825000Y-84375000D03*
D19*
X119000000Y-90100000D03*
X119000000Y-88100000D03*
D34*
X118825000Y-95300000D03*
X118825000Y-97025000D03*
D17*
X146400000Y-92900000D03*
X144575000Y-92900000D03*
D15*
X73500000Y-124500000D03*
D17*
X142425000Y-102700000D03*
X140600000Y-102700000D03*
D19*
X130700000Y-121200000D03*
X130700000Y-119200000D03*
D35*
X150200000Y-123825000D03*
X150200000Y-119825000D03*
D10*
X112600000Y-60665000D03*
X110875000Y-60665000D03*
D15*
X87200000Y-123100000D03*
D34*
X124925000Y-95325000D03*
X124925000Y-97050000D03*
D10*
X63950000Y-79375000D03*
X62225000Y-79375000D03*
D15*
X69620000Y-118025000D03*
D36*
X137080000Y-119650000D03*
X135810000Y-119650000D03*
X134540000Y-119650000D03*
X133270000Y-119650000D03*
X133270000Y-125050000D03*
X134540000Y-125050000D03*
X135810000Y-125050000D03*
X137080000Y-125050000D03*
D37*
X135175000Y-122350000D03*
D38*
X134430000Y-135528460D03*
X134430000Y-133628540D03*
X132398000Y-134578500D03*
D17*
X70100000Y-128300000D03*
X68275000Y-128300000D03*
D39*
X114000000Y-93700000D03*
X114000000Y-98700000D03*
D40*
X134148000Y-139725000D03*
X134148000Y-137900000D03*
D15*
X60425000Y-75175000D03*
D14*
X115500000Y-72900000D03*
X115500000Y-74725000D03*
D26*
X159900000Y-59200000D03*
D27*
X162440000Y-59200000D03*
D10*
X129525000Y-97600000D03*
X127800000Y-97600000D03*
D25*
X73900000Y-122000000D03*
X71825000Y-122000000D03*
D17*
X142300000Y-90500000D03*
X140475000Y-90500000D03*
D41*
X64000000Y-111375000D03*
X61950000Y-111375000D03*
D12*
X66200000Y-116125000D03*
X68025000Y-116125000D03*
D14*
X126500000Y-72865000D03*
X126500000Y-74690000D03*
D34*
X122925000Y-95300000D03*
X122925000Y-97025000D03*
D42*
X83300000Y-140500000D03*
X70600000Y-140500000D03*
D43*
X80510000Y-137960000D03*
D44*
X79494000Y-136180000D03*
X78478000Y-137960000D03*
X77462000Y-136180000D03*
X76446000Y-137960000D03*
X75430000Y-136180000D03*
X74414000Y-137960000D03*
X73398000Y-136180000D03*
X83810000Y-131360000D03*
X81520000Y-131360000D03*
X72380000Y-131360000D03*
X70090000Y-131360000D03*
D45*
X85080000Y-137070000D03*
X68820000Y-137070000D03*
D15*
X59825000Y-88375000D03*
D12*
X127800000Y-95400000D03*
X129625000Y-95400000D03*
D46*
X122600000Y-114600000D03*
X124600000Y-114600000D03*
D47*
X119520000Y-57800000D03*
X120620000Y-57800000D03*
X121720000Y-57800000D03*
X122820000Y-57800000D03*
X123920000Y-57800000D03*
X125020000Y-57800000D03*
X126120000Y-57800000D03*
X127220000Y-57800000D03*
D48*
X117730000Y-70265000D03*
D49*
X121995000Y-70340000D03*
D50*
X115640000Y-57815000D03*
D51*
X128300000Y-58300000D03*
D52*
X115420000Y-69065000D03*
X128300000Y-69065000D03*
D53*
X137648000Y-134250000D03*
X137648000Y-137650000D03*
D17*
X142400000Y-98900000D03*
X140575000Y-98900000D03*
D15*
X84600000Y-118800000D03*
D16*
X144265000Y-98700000D03*
X145400000Y-98700000D03*
D54*
X62225000Y-77775000D03*
X63950000Y-77775000D03*
D17*
X146325000Y-102700000D03*
X144500000Y-102700000D03*
D25*
X155900000Y-60000000D03*
X153825000Y-60000000D03*
D22*
X64090000Y-128665000D03*
X65990000Y-128665000D03*
X65040000Y-126790000D03*
D15*
X63800000Y-92900000D03*
D25*
X124600000Y-117000000D03*
X122525000Y-117000000D03*
D55*
X134800000Y-97175000D03*
X135500000Y-97175000D03*
D56*
X136300000Y-97250000D03*
X136300000Y-96750000D03*
X136300000Y-96250000D03*
X136300000Y-95750000D03*
D55*
X135500000Y-95825000D03*
X134800000Y-95825000D03*
D56*
X134000000Y-95750000D03*
X134000000Y-96250000D03*
X134000000Y-96750000D03*
X134000000Y-97250000D03*
D57*
X153306000Y-115446250D03*
X120286000Y-63376250D03*
X105046000Y-114176250D03*
D58*
X160926000Y-111636250D03*
D59*
X158386000Y-111636250D03*
X160926000Y-109096250D03*
X158386000Y-109096250D03*
X160926000Y-106556250D03*
X158386000Y-106556250D03*
X160926000Y-104016250D03*
X158386000Y-104016250D03*
X160926000Y-101476250D03*
X158386000Y-101476250D03*
X160926000Y-98936250D03*
X158386000Y-98936250D03*
X160926000Y-96396250D03*
X158386000Y-96396250D03*
X160926000Y-93856250D03*
X158386000Y-93856250D03*
X160926000Y-91316250D03*
X158386000Y-91316250D03*
X160926000Y-88776250D03*
X158386000Y-88776250D03*
X160926000Y-86236250D03*
X158386000Y-86236250D03*
X160926000Y-83696250D03*
X158386000Y-83696250D03*
X160926000Y-81156250D03*
X158386000Y-81156250D03*
X160926000Y-78616250D03*
X158386000Y-78616250D03*
X160926000Y-76076250D03*
X158386000Y-76076250D03*
X160926000Y-73536250D03*
X158386000Y-73536250D03*
X160926000Y-70996250D03*
X158386000Y-70996250D03*
X160926000Y-68456250D03*
X158386000Y-68456250D03*
X160926000Y-65916250D03*
X158386000Y-65916250D03*
X99966000Y-111636250D03*
X97426000Y-111636250D03*
X99966000Y-109096250D03*
X97426000Y-109096250D03*
X99966000Y-106556250D03*
X97426000Y-106556250D03*
X99966000Y-104016250D03*
X97426000Y-104016250D03*
X99966000Y-101476250D03*
X97426000Y-101476250D03*
X99966000Y-98936250D03*
X97426000Y-98936250D03*
X99966000Y-96396250D03*
X97426000Y-96396250D03*
X99966000Y-93856250D03*
X97426000Y-93856250D03*
X99966000Y-91316250D03*
X97426000Y-91316250D03*
X99966000Y-88776250D03*
X97426000Y-88776250D03*
X99966000Y-86236250D03*
X97426000Y-86236250D03*
X99966000Y-83696250D03*
X97426000Y-83696250D03*
X99966000Y-81156250D03*
X97426000Y-81156250D03*
X99966000Y-78616250D03*
X97426000Y-78616250D03*
X99966000Y-76076250D03*
X97426000Y-76076250D03*
X99966000Y-73536250D03*
X97426000Y-73536250D03*
X99966000Y-70996250D03*
X97426000Y-70996250D03*
X99966000Y-68456250D03*
X97426000Y-68456250D03*
X99966000Y-65916250D03*
X97426000Y-65916250D03*
D25*
X124600000Y-119200000D03*
X122525000Y-119200000D03*
D15*
X63825000Y-84375000D03*
D14*
X112800000Y-63575000D03*
X112800000Y-65400000D03*
D15*
X63800000Y-88775000D03*
D17*
X146300000Y-100500000D03*
X144475000Y-100500000D03*
D34*
X120925000Y-95300000D03*
X120925000Y-97025000D03*
D15*
X63900000Y-81300000D03*
D60*
X84205000Y-120800000D03*
X85400000Y-120800000D03*
D25*
X124600000Y-125800000D03*
X122525000Y-125800000D03*
M02*
