G04 #@! TF.GenerationSoftware,KiCad,Pcbnew,9.0.5*
G04 #@! TF.CreationDate,2025-10-15T01:53:07-07:00*
G04 #@! TF.ProjectId,CAN_Sniffer_1.0,43414e5f-536e-4696-9666-65725f312e30,rev?*
G04 #@! TF.SameCoordinates,Original*
G04 #@! TF.FileFunction,Legend,Bot*
G04 #@! TF.FilePolarity,Positive*
%FSLAX46Y46*%
G04 Gerber Fmt 4.6, Leading zero omitted, Abs format (unit mm)*
G04 Created by KiCad (PCBNEW 9.0.5) date 2025-10-15 01:53:07*
%MOMM*%
%LPD*%
G01*
G04 APERTURE LIST*
G04 Aperture macros list*
%AMRoundRect*
0 Rectangle with rounded corners*
0 $1 Rounding radius*
0 $2 $3 $4 $5 $6 $7 $8 $9 X,Y pos of 4 corners*
0 Add a 4 corners polygon primitive as box body*
4,1,4,$2,$3,$4,$5,$6,$7,$8,$9,$2,$3,0*
0 Add four circle primitives for the rounded corners*
1,1,$1+$1,$2,$3*
1,1,$1+$1,$4,$5*
1,1,$1+$1,$6,$7*
1,1,$1+$1,$8,$9*
0 Add four rect primitives between the rounded corners*
20,1,$1+$1,$2,$3,$4,$5,0*
20,1,$1+$1,$4,$5,$6,$7,0*
20,1,$1+$1,$6,$7,$8,$9,0*
20,1,$1+$1,$8,$9,$2,$3,0*%
G04 Aperture macros list end*
%ADD10C,0.203200*%
%ADD11C,0.120000*%
%ADD12R,1.700000X1.700000*%
%ADD13C,1.700000*%
%ADD14RoundRect,0.250000X0.550000X-0.550000X0.550000X0.550000X-0.550000X0.550000X-0.550000X-0.550000X0*%
%ADD15C,1.600000*%
%ADD16C,1.200000*%
%ADD17C,2.310000*%
%ADD18C,3.250000*%
%ADD19R,1.500000X1.500000*%
%ADD20C,1.500000*%
%ADD21C,2.300000*%
%ADD22C,3.200000*%
%ADD23RoundRect,0.102000X0.762000X0.762000X-0.762000X0.762000X-0.762000X-0.762000X0.762000X-0.762000X0*%
%ADD24C,1.728000*%
%ADD25C,1.000000*%
G04 APERTURE END LIST*
D10*
X150407380Y-95936258D02*
X149681666Y-95936258D01*
X150044523Y-97155458D02*
X150044523Y-95936258D01*
X149258333Y-97155458D02*
X149258333Y-95936258D01*
X149258333Y-95936258D02*
X148774523Y-95936258D01*
X148774523Y-95936258D02*
X148653571Y-95994315D01*
X148653571Y-95994315D02*
X148593094Y-96052372D01*
X148593094Y-96052372D02*
X148532618Y-96168486D01*
X148532618Y-96168486D02*
X148532618Y-96342658D01*
X148532618Y-96342658D02*
X148593094Y-96458772D01*
X148593094Y-96458772D02*
X148653571Y-96516829D01*
X148653571Y-96516829D02*
X148774523Y-96574886D01*
X148774523Y-96574886D02*
X149258333Y-96574886D01*
X148048809Y-96052372D02*
X147988333Y-95994315D01*
X147988333Y-95994315D02*
X147867380Y-95936258D01*
X147867380Y-95936258D02*
X147564999Y-95936258D01*
X147564999Y-95936258D02*
X147444047Y-95994315D01*
X147444047Y-95994315D02*
X147383571Y-96052372D01*
X147383571Y-96052372D02*
X147323094Y-96168486D01*
X147323094Y-96168486D02*
X147323094Y-96284601D01*
X147323094Y-96284601D02*
X147383571Y-96458772D01*
X147383571Y-96458772D02*
X148109285Y-97155458D01*
X148109285Y-97155458D02*
X147323094Y-97155458D01*
X146536904Y-95936258D02*
X146415951Y-95936258D01*
X146415951Y-95936258D02*
X146294999Y-95994315D01*
X146294999Y-95994315D02*
X146234523Y-96052372D01*
X146234523Y-96052372D02*
X146174047Y-96168486D01*
X146174047Y-96168486D02*
X146113570Y-96400715D01*
X146113570Y-96400715D02*
X146113570Y-96691001D01*
X146113570Y-96691001D02*
X146174047Y-96923229D01*
X146174047Y-96923229D02*
X146234523Y-97039343D01*
X146234523Y-97039343D02*
X146294999Y-97097401D01*
X146294999Y-97097401D02*
X146415951Y-97155458D01*
X146415951Y-97155458D02*
X146536904Y-97155458D01*
X146536904Y-97155458D02*
X146657856Y-97097401D01*
X146657856Y-97097401D02*
X146718332Y-97039343D01*
X146718332Y-97039343D02*
X146778809Y-96923229D01*
X146778809Y-96923229D02*
X146839285Y-96691001D01*
X146839285Y-96691001D02*
X146839285Y-96400715D01*
X146839285Y-96400715D02*
X146778809Y-96168486D01*
X146778809Y-96168486D02*
X146718332Y-96052372D01*
X146718332Y-96052372D02*
X146657856Y-95994315D01*
X146657856Y-95994315D02*
X146536904Y-95936258D01*
X141607380Y-96236258D02*
X140881666Y-96236258D01*
X141244523Y-97455458D02*
X141244523Y-96236258D01*
X140458333Y-97455458D02*
X140458333Y-96236258D01*
X140458333Y-96236258D02*
X139974523Y-96236258D01*
X139974523Y-96236258D02*
X139853571Y-96294315D01*
X139853571Y-96294315D02*
X139793094Y-96352372D01*
X139793094Y-96352372D02*
X139732618Y-96468486D01*
X139732618Y-96468486D02*
X139732618Y-96642658D01*
X139732618Y-96642658D02*
X139793094Y-96758772D01*
X139793094Y-96758772D02*
X139853571Y-96816829D01*
X139853571Y-96816829D02*
X139974523Y-96874886D01*
X139974523Y-96874886D02*
X140458333Y-96874886D01*
X139248809Y-96352372D02*
X139188333Y-96294315D01*
X139188333Y-96294315D02*
X139067380Y-96236258D01*
X139067380Y-96236258D02*
X138764999Y-96236258D01*
X138764999Y-96236258D02*
X138644047Y-96294315D01*
X138644047Y-96294315D02*
X138583571Y-96352372D01*
X138583571Y-96352372D02*
X138523094Y-96468486D01*
X138523094Y-96468486D02*
X138523094Y-96584601D01*
X138523094Y-96584601D02*
X138583571Y-96758772D01*
X138583571Y-96758772D02*
X139309285Y-97455458D01*
X139309285Y-97455458D02*
X138523094Y-97455458D01*
X137313570Y-97455458D02*
X138039285Y-97455458D01*
X137676428Y-97455458D02*
X137676428Y-96236258D01*
X137676428Y-96236258D02*
X137797380Y-96410429D01*
X137797380Y-96410429D02*
X137918332Y-96526543D01*
X137918332Y-96526543D02*
X138039285Y-96584601D01*
X144707380Y-85634258D02*
X143981666Y-85634258D01*
X144344523Y-86853458D02*
X144344523Y-85634258D01*
X143558333Y-86853458D02*
X143558333Y-85634258D01*
X143558333Y-85634258D02*
X143074523Y-85634258D01*
X143074523Y-85634258D02*
X142953571Y-85692315D01*
X142953571Y-85692315D02*
X142893094Y-85750372D01*
X142893094Y-85750372D02*
X142832618Y-85866486D01*
X142832618Y-85866486D02*
X142832618Y-86040658D01*
X142832618Y-86040658D02*
X142893094Y-86156772D01*
X142893094Y-86156772D02*
X142953571Y-86214829D01*
X142953571Y-86214829D02*
X143074523Y-86272886D01*
X143074523Y-86272886D02*
X143558333Y-86272886D01*
X141623094Y-86853458D02*
X142348809Y-86853458D01*
X141985952Y-86853458D02*
X141985952Y-85634258D01*
X141985952Y-85634258D02*
X142106904Y-85808429D01*
X142106904Y-85808429D02*
X142227856Y-85924543D01*
X142227856Y-85924543D02*
X142348809Y-85982601D01*
X140897380Y-86156772D02*
X141018332Y-86098715D01*
X141018332Y-86098715D02*
X141078809Y-86040658D01*
X141078809Y-86040658D02*
X141139285Y-85924543D01*
X141139285Y-85924543D02*
X141139285Y-85866486D01*
X141139285Y-85866486D02*
X141078809Y-85750372D01*
X141078809Y-85750372D02*
X141018332Y-85692315D01*
X141018332Y-85692315D02*
X140897380Y-85634258D01*
X140897380Y-85634258D02*
X140655475Y-85634258D01*
X140655475Y-85634258D02*
X140534523Y-85692315D01*
X140534523Y-85692315D02*
X140474047Y-85750372D01*
X140474047Y-85750372D02*
X140413570Y-85866486D01*
X140413570Y-85866486D02*
X140413570Y-85924543D01*
X140413570Y-85924543D02*
X140474047Y-86040658D01*
X140474047Y-86040658D02*
X140534523Y-86098715D01*
X140534523Y-86098715D02*
X140655475Y-86156772D01*
X140655475Y-86156772D02*
X140897380Y-86156772D01*
X140897380Y-86156772D02*
X141018332Y-86214829D01*
X141018332Y-86214829D02*
X141078809Y-86272886D01*
X141078809Y-86272886D02*
X141139285Y-86389001D01*
X141139285Y-86389001D02*
X141139285Y-86621229D01*
X141139285Y-86621229D02*
X141078809Y-86737343D01*
X141078809Y-86737343D02*
X141018332Y-86795401D01*
X141018332Y-86795401D02*
X140897380Y-86853458D01*
X140897380Y-86853458D02*
X140655475Y-86853458D01*
X140655475Y-86853458D02*
X140534523Y-86795401D01*
X140534523Y-86795401D02*
X140474047Y-86737343D01*
X140474047Y-86737343D02*
X140413570Y-86621229D01*
X140413570Y-86621229D02*
X140413570Y-86389001D01*
X140413570Y-86389001D02*
X140474047Y-86272886D01*
X140474047Y-86272886D02*
X140534523Y-86214829D01*
X140534523Y-86214829D02*
X140655475Y-86156772D01*
X133224078Y-132004258D02*
X132498364Y-132004258D01*
X132861221Y-133223458D02*
X132861221Y-132004258D01*
X132075031Y-133223458D02*
X132075031Y-132004258D01*
X132075031Y-132004258D02*
X131591221Y-132004258D01*
X131591221Y-132004258D02*
X131470269Y-132062315D01*
X131470269Y-132062315D02*
X131409792Y-132120372D01*
X131409792Y-132120372D02*
X131349316Y-132236486D01*
X131349316Y-132236486D02*
X131349316Y-132410658D01*
X131349316Y-132410658D02*
X131409792Y-132526772D01*
X131409792Y-132526772D02*
X131470269Y-132584829D01*
X131470269Y-132584829D02*
X131591221Y-132642886D01*
X131591221Y-132642886D02*
X132075031Y-132642886D01*
X130139792Y-133223458D02*
X130865507Y-133223458D01*
X130502650Y-133223458D02*
X130502650Y-132004258D01*
X130502650Y-132004258D02*
X130623602Y-132178429D01*
X130623602Y-132178429D02*
X130744554Y-132294543D01*
X130744554Y-132294543D02*
X130865507Y-132352601D01*
X120527618Y-90661258D02*
X119801904Y-90661258D01*
X120164761Y-91880458D02*
X120164761Y-90661258D01*
X119378571Y-91880458D02*
X119378571Y-90661258D01*
X119378571Y-90661258D02*
X118894761Y-90661258D01*
X118894761Y-90661258D02*
X118773809Y-90719315D01*
X118773809Y-90719315D02*
X118713332Y-90777372D01*
X118713332Y-90777372D02*
X118652856Y-90893486D01*
X118652856Y-90893486D02*
X118652856Y-91067658D01*
X118652856Y-91067658D02*
X118713332Y-91183772D01*
X118713332Y-91183772D02*
X118773809Y-91241829D01*
X118773809Y-91241829D02*
X118894761Y-91299886D01*
X118894761Y-91299886D02*
X119378571Y-91299886D01*
X117564285Y-91067658D02*
X117564285Y-91880458D01*
X117866666Y-90603201D02*
X118169047Y-91474058D01*
X118169047Y-91474058D02*
X117382856Y-91474058D01*
X141107380Y-104132258D02*
X140381666Y-104132258D01*
X140744523Y-105351458D02*
X140744523Y-104132258D01*
X139958333Y-105351458D02*
X139958333Y-104132258D01*
X139958333Y-104132258D02*
X139474523Y-104132258D01*
X139474523Y-104132258D02*
X139353571Y-104190315D01*
X139353571Y-104190315D02*
X139293094Y-104248372D01*
X139293094Y-104248372D02*
X139232618Y-104364486D01*
X139232618Y-104364486D02*
X139232618Y-104538658D01*
X139232618Y-104538658D02*
X139293094Y-104654772D01*
X139293094Y-104654772D02*
X139353571Y-104712829D01*
X139353571Y-104712829D02*
X139474523Y-104770886D01*
X139474523Y-104770886D02*
X139958333Y-104770886D01*
X138023094Y-105351458D02*
X138748809Y-105351458D01*
X138385952Y-105351458D02*
X138385952Y-104132258D01*
X138385952Y-104132258D02*
X138506904Y-104306429D01*
X138506904Y-104306429D02*
X138627856Y-104422543D01*
X138627856Y-104422543D02*
X138748809Y-104480601D01*
X137418332Y-105351458D02*
X137176428Y-105351458D01*
X137176428Y-105351458D02*
X137055475Y-105293401D01*
X137055475Y-105293401D02*
X136994999Y-105235343D01*
X136994999Y-105235343D02*
X136874047Y-105061172D01*
X136874047Y-105061172D02*
X136813570Y-104828943D01*
X136813570Y-104828943D02*
X136813570Y-104364486D01*
X136813570Y-104364486D02*
X136874047Y-104248372D01*
X136874047Y-104248372D02*
X136934523Y-104190315D01*
X136934523Y-104190315D02*
X137055475Y-104132258D01*
X137055475Y-104132258D02*
X137297380Y-104132258D01*
X137297380Y-104132258D02*
X137418332Y-104190315D01*
X137418332Y-104190315D02*
X137478809Y-104248372D01*
X137478809Y-104248372D02*
X137539285Y-104364486D01*
X137539285Y-104364486D02*
X137539285Y-104654772D01*
X137539285Y-104654772D02*
X137478809Y-104770886D01*
X137478809Y-104770886D02*
X137418332Y-104828943D01*
X137418332Y-104828943D02*
X137297380Y-104887001D01*
X137297380Y-104887001D02*
X137055475Y-104887001D01*
X137055475Y-104887001D02*
X136934523Y-104828943D01*
X136934523Y-104828943D02*
X136874047Y-104770886D01*
X136874047Y-104770886D02*
X136813570Y-104654772D01*
X136302618Y-110686258D02*
X135576904Y-110686258D01*
X135939761Y-111905458D02*
X135939761Y-110686258D01*
X135153571Y-111905458D02*
X135153571Y-110686258D01*
X135153571Y-110686258D02*
X134669761Y-110686258D01*
X134669761Y-110686258D02*
X134548809Y-110744315D01*
X134548809Y-110744315D02*
X134488332Y-110802372D01*
X134488332Y-110802372D02*
X134427856Y-110918486D01*
X134427856Y-110918486D02*
X134427856Y-111092658D01*
X134427856Y-111092658D02*
X134488332Y-111208772D01*
X134488332Y-111208772D02*
X134548809Y-111266829D01*
X134548809Y-111266829D02*
X134669761Y-111324886D01*
X134669761Y-111324886D02*
X135153571Y-111324886D01*
X133944047Y-110802372D02*
X133883571Y-110744315D01*
X133883571Y-110744315D02*
X133762618Y-110686258D01*
X133762618Y-110686258D02*
X133460237Y-110686258D01*
X133460237Y-110686258D02*
X133339285Y-110744315D01*
X133339285Y-110744315D02*
X133278809Y-110802372D01*
X133278809Y-110802372D02*
X133218332Y-110918486D01*
X133218332Y-110918486D02*
X133218332Y-111034601D01*
X133218332Y-111034601D02*
X133278809Y-111208772D01*
X133278809Y-111208772D02*
X134004523Y-111905458D01*
X134004523Y-111905458D02*
X133218332Y-111905458D01*
D11*
X145600000Y-96600000D02*
G75*
G02*
X144200000Y-96600000I-700000J0D01*
G01*
X144200000Y-96600000D02*
G75*
G02*
X145600000Y-96600000I700000J0D01*
G01*
X143500000Y-96900000D02*
G75*
G02*
X142100000Y-96900000I-700000J0D01*
G01*
X142100000Y-96900000D02*
G75*
G02*
X143500000Y-96900000I700000J0D01*
G01*
X143000000Y-88100000D02*
G75*
G02*
X141600000Y-88100000I-700000J0D01*
G01*
X141600000Y-88100000D02*
G75*
G02*
X143000000Y-88100000I700000J0D01*
G01*
X129800000Y-132700000D02*
G75*
G02*
X128400000Y-132700000I-700000J0D01*
G01*
X128400000Y-132700000D02*
G75*
G02*
X129800000Y-132700000I700000J0D01*
G01*
X122425000Y-91325000D02*
G75*
G02*
X121025000Y-91325000I-700000J0D01*
G01*
X121025000Y-91325000D02*
G75*
G02*
X122425000Y-91325000I700000J0D01*
G01*
X143100000Y-104800000D02*
G75*
G02*
X141700000Y-104800000I-700000J0D01*
G01*
X141700000Y-104800000D02*
G75*
G02*
X143100000Y-104800000I700000J0D01*
G01*
X135400000Y-113100000D02*
G75*
G02*
X134000000Y-113100000I-700000J0D01*
G01*
X134000000Y-113100000D02*
G75*
G02*
X135400000Y-113100000I700000J0D01*
G01*
%LPC*%
D12*
X89100000Y-115060000D03*
D13*
X89100000Y-117600000D03*
X89100000Y-120140000D03*
D14*
X130600000Y-112755113D03*
D15*
X130600000Y-110755113D03*
D16*
X67000000Y-90250000D03*
X67000000Y-88750000D03*
X67000000Y-87250000D03*
X67000000Y-85750000D03*
X67000000Y-84250000D03*
X67000000Y-82750000D03*
X67000000Y-81250000D03*
X67000000Y-79750000D03*
X67000000Y-78250000D03*
X67000000Y-76750000D03*
D17*
X68950000Y-66200000D03*
X68950000Y-100800000D03*
D12*
X159900000Y-59200000D03*
D13*
X162440000Y-59200000D03*
D18*
X83300000Y-140500000D03*
X70600000Y-140500000D03*
D19*
X80510000Y-137960000D03*
D20*
X79494000Y-136180000D03*
X78478000Y-137960000D03*
X77462000Y-136180000D03*
X76446000Y-137960000D03*
X75430000Y-136180000D03*
X74414000Y-137960000D03*
X73398000Y-136180000D03*
X83810000Y-131360000D03*
X81520000Y-131360000D03*
X72380000Y-131360000D03*
X70090000Y-131360000D03*
D21*
X85080000Y-137070000D03*
X68820000Y-137070000D03*
D22*
X153306000Y-115446250D03*
X120286000Y-63376250D03*
X105046000Y-114176250D03*
D23*
X160926000Y-111636250D03*
D24*
X158386000Y-111636250D03*
X160926000Y-109096250D03*
X158386000Y-109096250D03*
X160926000Y-106556250D03*
X158386000Y-106556250D03*
X160926000Y-104016250D03*
X158386000Y-104016250D03*
X160926000Y-101476250D03*
X158386000Y-101476250D03*
X160926000Y-98936250D03*
X158386000Y-98936250D03*
X160926000Y-96396250D03*
X158386000Y-96396250D03*
X160926000Y-93856250D03*
X158386000Y-93856250D03*
X160926000Y-91316250D03*
X158386000Y-91316250D03*
X160926000Y-88776250D03*
X158386000Y-88776250D03*
X160926000Y-86236250D03*
X158386000Y-86236250D03*
X160926000Y-83696250D03*
X158386000Y-83696250D03*
X160926000Y-81156250D03*
X158386000Y-81156250D03*
X160926000Y-78616250D03*
X158386000Y-78616250D03*
X160926000Y-76076250D03*
X158386000Y-76076250D03*
X160926000Y-73536250D03*
X158386000Y-73536250D03*
X160926000Y-70996250D03*
X158386000Y-70996250D03*
X160926000Y-68456250D03*
X158386000Y-68456250D03*
X160926000Y-65916250D03*
X158386000Y-65916250D03*
X99966000Y-111636250D03*
X97426000Y-111636250D03*
X99966000Y-109096250D03*
X97426000Y-109096250D03*
X99966000Y-106556250D03*
X97426000Y-106556250D03*
X99966000Y-104016250D03*
X97426000Y-104016250D03*
X99966000Y-101476250D03*
X97426000Y-101476250D03*
X99966000Y-98936250D03*
X97426000Y-98936250D03*
X99966000Y-96396250D03*
X97426000Y-96396250D03*
X99966000Y-93856250D03*
X97426000Y-93856250D03*
X99966000Y-91316250D03*
X97426000Y-91316250D03*
X99966000Y-88776250D03*
X97426000Y-88776250D03*
X99966000Y-86236250D03*
X97426000Y-86236250D03*
X99966000Y-83696250D03*
X97426000Y-83696250D03*
X99966000Y-81156250D03*
X97426000Y-81156250D03*
X99966000Y-78616250D03*
X97426000Y-78616250D03*
X99966000Y-76076250D03*
X97426000Y-76076250D03*
X99966000Y-73536250D03*
X97426000Y-73536250D03*
X99966000Y-70996250D03*
X97426000Y-70996250D03*
X99966000Y-68456250D03*
X97426000Y-68456250D03*
X99966000Y-65916250D03*
X97426000Y-65916250D03*
D25*
X144900000Y-96600000D03*
X142800000Y-96900000D03*
X142300000Y-88100000D03*
X129100000Y-132700000D03*
X121725000Y-91325000D03*
X142400000Y-104800000D03*
X134700000Y-113100000D03*
%LPD*%
M02*
