G04 #@! TF.GenerationSoftware,KiCad,Pcbnew,9.0.5*
G04 #@! TF.CreationDate,2025-10-15T01:53:07-07:00*
G04 #@! TF.ProjectId,CAN_Sniffer_1.0,43414e5f-536e-4696-9666-65725f312e30,rev?*
G04 #@! TF.SameCoordinates,Original*
G04 #@! TF.FileFunction,Copper,L4,Bot*
G04 #@! TF.FilePolarity,Positive*
%FSLAX46Y46*%
G04 Gerber Fmt 4.6, Leading zero omitted, Abs format (unit mm)*
G04 Created by KiCad (PCBNEW 9.0.5) date 2025-10-15 01:53:07*
%MOMM*%
%LPD*%
G01*
G04 APERTURE LIST*
G04 Aperture macros list*
%AMRoundRect*
0 Rectangle with rounded corners*
0 $1 Rounding radius*
0 $2 $3 $4 $5 $6 $7 $8 $9 X,Y pos of 4 corners*
0 Add a 4 corners polygon primitive as box body*
4,1,4,$2,$3,$4,$5,$6,$7,$8,$9,$2,$3,0*
0 Add four circle primitives for the rounded corners*
1,1,$1+$1,$2,$3*
1,1,$1+$1,$4,$5*
1,1,$1+$1,$6,$7*
1,1,$1+$1,$8,$9*
0 Add four rect primitives between the rounded corners*
20,1,$1+$1,$2,$3,$4,$5,0*
20,1,$1+$1,$4,$5,$6,$7,0*
20,1,$1+$1,$6,$7,$8,$9,0*
20,1,$1+$1,$8,$9,$2,$3,0*%
G04 Aperture macros list end*
G04 #@! TA.AperFunction,ComponentPad*
%ADD10R,1.700000X1.700000*%
G04 #@! TD*
G04 #@! TA.AperFunction,ComponentPad*
%ADD11C,1.700000*%
G04 #@! TD*
G04 #@! TA.AperFunction,ComponentPad*
%ADD12RoundRect,0.250000X0.550000X-0.550000X0.550000X0.550000X-0.550000X0.550000X-0.550000X-0.550000X0*%
G04 #@! TD*
G04 #@! TA.AperFunction,ComponentPad*
%ADD13C,1.600000*%
G04 #@! TD*
G04 #@! TA.AperFunction,ComponentPad*
%ADD14C,1.200000*%
G04 #@! TD*
G04 #@! TA.AperFunction,ComponentPad*
%ADD15C,2.310000*%
G04 #@! TD*
G04 #@! TA.AperFunction,ComponentPad*
%ADD16C,0.600000*%
G04 #@! TD*
G04 #@! TA.AperFunction,SMDPad,CuDef*
%ADD17R,4.500000X2.950000*%
G04 #@! TD*
G04 #@! TA.AperFunction,ComponentPad*
%ADD18R,1.500000X1.500000*%
G04 #@! TD*
G04 #@! TA.AperFunction,ComponentPad*
%ADD19C,1.500000*%
G04 #@! TD*
G04 #@! TA.AperFunction,ComponentPad*
%ADD20C,2.300000*%
G04 #@! TD*
G04 #@! TA.AperFunction,ComponentPad*
%ADD21R,1.524000X1.524000*%
G04 #@! TD*
G04 #@! TA.AperFunction,ComponentPad*
%ADD22C,1.524000*%
G04 #@! TD*
G04 #@! TA.AperFunction,SMDPad,CuDef*
%ADD23C,1.000000*%
G04 #@! TD*
G04 #@! TA.AperFunction,ViaPad*
%ADD24C,0.600000*%
G04 #@! TD*
G04 #@! TA.AperFunction,Conductor*
%ADD25C,0.508000*%
G04 #@! TD*
G04 #@! TA.AperFunction,Conductor*
%ADD26C,0.762000*%
G04 #@! TD*
G04 #@! TA.AperFunction,Conductor*
%ADD27C,0.200000*%
G04 #@! TD*
G04 APERTURE END LIST*
D10*
X89100000Y-115060000D03*
D11*
X89100000Y-117600000D03*
X89100000Y-120140000D03*
D12*
X130600000Y-112755113D03*
D13*
X130600000Y-110755113D03*
D14*
X67000000Y-90250000D03*
X67000000Y-88750000D03*
X67000000Y-87250000D03*
X67000000Y-85750000D03*
X67000000Y-84250000D03*
X67000000Y-82750000D03*
X67000000Y-81250000D03*
X67000000Y-79750000D03*
X67000000Y-78250000D03*
X67000000Y-76750000D03*
D15*
X68950000Y-66200000D03*
X68950000Y-100800000D03*
D16*
X136975000Y-121750000D03*
X135775000Y-121750000D03*
X134475000Y-121750000D03*
X133375000Y-121750000D03*
D17*
X135175000Y-122350000D03*
D16*
X136975000Y-122950000D03*
X135775000Y-122950000D03*
X134475000Y-122950000D03*
X133375000Y-122950000D03*
D10*
X159900000Y-59200000D03*
D11*
X162440000Y-59200000D03*
D18*
X80510000Y-137960000D03*
D19*
X79494000Y-136180000D03*
X78478000Y-137960000D03*
X77462000Y-136180000D03*
X76446000Y-137960000D03*
X75430000Y-136180000D03*
X74414000Y-137960000D03*
X73398000Y-136180000D03*
X83810000Y-131360000D03*
X81520000Y-131360000D03*
X72380000Y-131360000D03*
X70090000Y-131360000D03*
D20*
X85080000Y-137070000D03*
X68820000Y-137070000D03*
D21*
X160926000Y-111636250D03*
D22*
X158386000Y-111636250D03*
X160926000Y-109096250D03*
X158386000Y-109096250D03*
X160926000Y-106556250D03*
X158386000Y-106556250D03*
X160926000Y-104016250D03*
X158386000Y-104016250D03*
X160926000Y-101476250D03*
X158386000Y-101476250D03*
X160926000Y-98936250D03*
X158386000Y-98936250D03*
X160926000Y-96396250D03*
X158386000Y-96396250D03*
X160926000Y-93856250D03*
X158386000Y-93856250D03*
X160926000Y-91316250D03*
X158386000Y-91316250D03*
X160926000Y-88776250D03*
X158386000Y-88776250D03*
X160926000Y-86236250D03*
X158386000Y-86236250D03*
X160926000Y-83696250D03*
X158386000Y-83696250D03*
X160926000Y-81156250D03*
X158386000Y-81156250D03*
X160926000Y-78616250D03*
X158386000Y-78616250D03*
X160926000Y-76076250D03*
X158386000Y-76076250D03*
X160926000Y-73536250D03*
X158386000Y-73536250D03*
X160926000Y-70996250D03*
X158386000Y-70996250D03*
X160926000Y-68456250D03*
X158386000Y-68456250D03*
X160926000Y-65916250D03*
X158386000Y-65916250D03*
X99966000Y-111636250D03*
X97426000Y-111636250D03*
X99966000Y-109096250D03*
X97426000Y-109096250D03*
X99966000Y-106556250D03*
X97426000Y-106556250D03*
X99966000Y-104016250D03*
X97426000Y-104016250D03*
X99966000Y-101476250D03*
X97426000Y-101476250D03*
X99966000Y-98936250D03*
X97426000Y-98936250D03*
X99966000Y-96396250D03*
X97426000Y-96396250D03*
X99966000Y-93856250D03*
X97426000Y-93856250D03*
X99966000Y-91316250D03*
X97426000Y-91316250D03*
X99966000Y-88776250D03*
X97426000Y-88776250D03*
X99966000Y-86236250D03*
X97426000Y-86236250D03*
X99966000Y-83696250D03*
X97426000Y-83696250D03*
X99966000Y-81156250D03*
X97426000Y-81156250D03*
X99966000Y-78616250D03*
X97426000Y-78616250D03*
X99966000Y-76076250D03*
X97426000Y-76076250D03*
X99966000Y-73536250D03*
X97426000Y-73536250D03*
X99966000Y-70996250D03*
X97426000Y-70996250D03*
X99966000Y-68456250D03*
X97426000Y-68456250D03*
X99966000Y-65916250D03*
X97426000Y-65916250D03*
D23*
X144900000Y-96600000D03*
X142800000Y-96900000D03*
X142300000Y-88100000D03*
X129100000Y-132700000D03*
X121725000Y-91325000D03*
X142400000Y-104800000D03*
X134700000Y-113100000D03*
D24*
X119800000Y-98400000D03*
X66400000Y-140100000D03*
X75600000Y-107800000D03*
X71700000Y-100000000D03*
X147600000Y-84300000D03*
X87400000Y-137700000D03*
X88100000Y-125900000D03*
X66900000Y-139300000D03*
X134200000Y-142200000D03*
X81500000Y-80000000D03*
X74900000Y-132100000D03*
X147600000Y-81900000D03*
X128800000Y-123900000D03*
X131300000Y-105200000D03*
X102100000Y-125900000D03*
X71700000Y-100800000D03*
X144100000Y-66700000D03*
X123400000Y-85400000D03*
X147900000Y-103900000D03*
X147600000Y-83500000D03*
X88800000Y-80000000D03*
X132500000Y-130000000D03*
X152500000Y-58400000D03*
X133800000Y-130100000D03*
X114100000Y-68500000D03*
X91700000Y-119500000D03*
X125100000Y-59400000D03*
X159000000Y-130600000D03*
X147900000Y-92500000D03*
X69700000Y-97800000D03*
X163300000Y-87500000D03*
X147900000Y-93200000D03*
X132500000Y-129200000D03*
X87400000Y-136300000D03*
X94700000Y-88900000D03*
X89900000Y-67900000D03*
X116400000Y-121600000D03*
X134800000Y-58700000D03*
X64700000Y-83200000D03*
X88200000Y-137000000D03*
X82300000Y-118800000D03*
X73100000Y-119200000D03*
X93000000Y-141500000D03*
X148100000Y-99200000D03*
X88200000Y-136300000D03*
X128300000Y-100400000D03*
X116400000Y-120900000D03*
X68200000Y-107800000D03*
X115800000Y-122000000D03*
X90700000Y-59000000D03*
X117400000Y-99200000D03*
X131100000Y-68700000D03*
X95400000Y-87000000D03*
X78600000Y-127500000D03*
X138200000Y-122900000D03*
X148600000Y-92900000D03*
X63500000Y-104800000D03*
X88400000Y-131400000D03*
X68600000Y-82700000D03*
X74300000Y-131700000D03*
X59500000Y-143500000D03*
X112100000Y-62300000D03*
X84200000Y-59100000D03*
X133700000Y-126700000D03*
X70300000Y-121300000D03*
X125100000Y-60900000D03*
X132100000Y-141500000D03*
X147800000Y-89800000D03*
X136200000Y-139200000D03*
X114100000Y-70200000D03*
X158900000Y-140600000D03*
X121900000Y-108000000D03*
X120600000Y-81200000D03*
X118100000Y-85300000D03*
X130600000Y-57400000D03*
X129600000Y-123900000D03*
X128200000Y-61000000D03*
X133800000Y-132500000D03*
X131900000Y-94700000D03*
X62800000Y-68000000D03*
X147600000Y-94400000D03*
X81800000Y-133700000D03*
X113300000Y-69900000D03*
X64700000Y-134900000D03*
X87400000Y-138400000D03*
X165300000Y-63500000D03*
X78600000Y-128300000D03*
X131400000Y-58400000D03*
X130300000Y-70000000D03*
X131100000Y-67900000D03*
X111600000Y-98100000D03*
X164300000Y-88400000D03*
X153000000Y-57700000D03*
X148400000Y-107900000D03*
X125100000Y-61700000D03*
X138900000Y-121400000D03*
X83100000Y-118100000D03*
X127400000Y-61000000D03*
X96000000Y-125900000D03*
X107200000Y-125900000D03*
X108100000Y-85500000D03*
X79300000Y-141700000D03*
X63200000Y-68700000D03*
X66200000Y-134200000D03*
X116700000Y-99100000D03*
X71300000Y-59200000D03*
X108700000Y-58300000D03*
X131300000Y-106000000D03*
X82100000Y-129900000D03*
X79400000Y-127300000D03*
X94700000Y-88200000D03*
X130100000Y-81000000D03*
X108700000Y-59100000D03*
X60300000Y-67400000D03*
X89000000Y-138400000D03*
X117400000Y-58900000D03*
X101800000Y-141500000D03*
X131100000Y-70300000D03*
X165500000Y-76100000D03*
X153800000Y-57700000D03*
X92500000Y-119100000D03*
X118600000Y-131400000D03*
X92800000Y-80000000D03*
X130600000Y-58800000D03*
X65400000Y-134200000D03*
X66200000Y-134900000D03*
X108700000Y-59900000D03*
X126200000Y-98100000D03*
X138500000Y-63400000D03*
X131900000Y-122800000D03*
X138900000Y-122100000D03*
X86900000Y-115200000D03*
X66900000Y-134900000D03*
X117400000Y-97800000D03*
X144700000Y-140400000D03*
X146000000Y-88800000D03*
X165000000Y-140600000D03*
X96900000Y-59000000D03*
X109800000Y-97600000D03*
X129200000Y-101200000D03*
X83800000Y-129300000D03*
X148300000Y-83900000D03*
X95400000Y-89400000D03*
X109500000Y-58600000D03*
X87300000Y-82200000D03*
X88200000Y-137700000D03*
X148400000Y-108700000D03*
X152000000Y-57700000D03*
X70100000Y-81700000D03*
X113100000Y-85500000D03*
X134600000Y-141500000D03*
X164300000Y-89200000D03*
X153900000Y-62900000D03*
X79400000Y-128100000D03*
X64200000Y-102900000D03*
X73200000Y-67900000D03*
X117000000Y-122000000D03*
X83300000Y-128200000D03*
X104500000Y-102100000D03*
X95900000Y-131600000D03*
X59300000Y-120400000D03*
X128000000Y-123000000D03*
X115200000Y-118300000D03*
X73400000Y-92600000D03*
X63500000Y-103200000D03*
X153400000Y-58400000D03*
X83100000Y-129300000D03*
X64700000Y-82500000D03*
X131100000Y-69500000D03*
X81700000Y-129300000D03*
X147900000Y-102300000D03*
X83300000Y-127500000D03*
X146900000Y-94400000D03*
X89000000Y-137000000D03*
X84100000Y-101200000D03*
X69300000Y-82500000D03*
X165300000Y-87500000D03*
X71400000Y-133300000D03*
X86900000Y-116900000D03*
X153100000Y-62900000D03*
X76100000Y-95600000D03*
X147800000Y-91200000D03*
X78000000Y-59100000D03*
X97600000Y-118200000D03*
X111600000Y-99000000D03*
X122000000Y-99000000D03*
X126200000Y-96000000D03*
X70900000Y-134000000D03*
X64700000Y-135600000D03*
X143900000Y-79800000D03*
X98700000Y-87500000D03*
X147900000Y-101500000D03*
X148500000Y-90100000D03*
X130600000Y-58100000D03*
X131900000Y-124300000D03*
X60100000Y-77900000D03*
X66900000Y-135600000D03*
X153400000Y-130400000D03*
X91700000Y-120400000D03*
X72600000Y-101200000D03*
X163300000Y-88400000D03*
X124000000Y-98300000D03*
X87400000Y-92600000D03*
X94700000Y-87400000D03*
X145500000Y-95400000D03*
X128200000Y-66300000D03*
X131200000Y-94700000D03*
X119800000Y-99100000D03*
X74300000Y-133100000D03*
X64200000Y-104500000D03*
X113300000Y-69000000D03*
X59400000Y-124900000D03*
X123000000Y-107000000D03*
X124100000Y-108000000D03*
X60100000Y-79400000D03*
X156000000Y-134800000D03*
X129100000Y-126800000D03*
X83700000Y-92600000D03*
X65400000Y-134900000D03*
X105300000Y-81200000D03*
X164300000Y-90000000D03*
X110700000Y-100000000D03*
X109800000Y-98700000D03*
X146800000Y-88800000D03*
X70500000Y-133300000D03*
X131900000Y-126700000D03*
X145400000Y-97800000D03*
X59400000Y-128500000D03*
X70300000Y-123100000D03*
X59600000Y-66200000D03*
X71700000Y-101600000D03*
X64000000Y-82800000D03*
X72600000Y-102000000D03*
X117400000Y-57500000D03*
X147500000Y-108300000D03*
X165300000Y-90000000D03*
X66200000Y-135600000D03*
X63420000Y-108325000D03*
X144800000Y-79800000D03*
X163300000Y-90000000D03*
X131900000Y-123500000D03*
X74900000Y-131400000D03*
X148700000Y-103500000D03*
X64700000Y-134200000D03*
X128900000Y-61900000D03*
X128200000Y-61900000D03*
X141200000Y-58700000D03*
X163600000Y-130700000D03*
X64220000Y-108325000D03*
X68700000Y-97800000D03*
X124100000Y-107000000D03*
X63420000Y-109125000D03*
X109800000Y-99700000D03*
X145400000Y-99400000D03*
X115800000Y-122700000D03*
X148700000Y-102700000D03*
X122000000Y-98300000D03*
X69300000Y-83200000D03*
X82200000Y-133000000D03*
X150400000Y-134700000D03*
X59300000Y-115500000D03*
X62000000Y-68000000D03*
X86900000Y-116100000D03*
X132200000Y-105600000D03*
X147800000Y-90500000D03*
X117400000Y-58200000D03*
X132600000Y-131400000D03*
X129200000Y-100400000D03*
X91700000Y-118600000D03*
X125100000Y-60200000D03*
X66100000Y-139300000D03*
X109500000Y-60200000D03*
X114100000Y-69400000D03*
X72600000Y-100400000D03*
X78500000Y-140900000D03*
X103900000Y-118400000D03*
X146600000Y-99100000D03*
X80100000Y-141700000D03*
X130300000Y-68400000D03*
X131300000Y-104400000D03*
X71700000Y-102400000D03*
X64220000Y-109125000D03*
X127100000Y-67500000D03*
X147500000Y-107500000D03*
X58900000Y-79300000D03*
X71300000Y-138400000D03*
X116400000Y-122300000D03*
X70300000Y-122100000D03*
X108300000Y-131600000D03*
X165300000Y-89200000D03*
X63500000Y-102500000D03*
X147400000Y-130500000D03*
X69100000Y-97000000D03*
X110700000Y-97100000D03*
X70100000Y-83200000D03*
X58900000Y-78400000D03*
X73100000Y-119900000D03*
X91000000Y-82200000D03*
X127700000Y-93900000D03*
X85000000Y-80000000D03*
X110700000Y-99000000D03*
X79300000Y-140900000D03*
X153900000Y-76800000D03*
X85900000Y-95600000D03*
X132500000Y-142200000D03*
X152000000Y-140700000D03*
X124000000Y-99000000D03*
X68200000Y-97000000D03*
X165300000Y-88400000D03*
X104400000Y-97400000D03*
X110700000Y-81300000D03*
X70100000Y-80900000D03*
X142200000Y-63300000D03*
X116200000Y-111000000D03*
X117000000Y-121300000D03*
X127100000Y-69100000D03*
X146700000Y-58500000D03*
X111600000Y-97100000D03*
X70100000Y-82500000D03*
X95400000Y-88600000D03*
X62800000Y-143600000D03*
X148300000Y-83200000D03*
X81300000Y-95500000D03*
X67700000Y-97800000D03*
X136200000Y-140700000D03*
X83500000Y-129900000D03*
X81400000Y-133000000D03*
X109500000Y-59400000D03*
X77600000Y-141700000D03*
X93800000Y-101200000D03*
X65020000Y-109125000D03*
X132200000Y-121200000D03*
X63500000Y-104000000D03*
X130300000Y-69200000D03*
X147500000Y-109000000D03*
X104300000Y-93000000D03*
X129600000Y-123000000D03*
X118100000Y-125900000D03*
X133400000Y-142200000D03*
X68900000Y-123100000D03*
X112800000Y-125900000D03*
X118100000Y-57700000D03*
X109800000Y-118200000D03*
X118100000Y-58500000D03*
X132800000Y-126700000D03*
X111900000Y-141500000D03*
X131400000Y-57700000D03*
X71800000Y-123600000D03*
X127400000Y-61900000D03*
X117400000Y-98500000D03*
X131700000Y-129200000D03*
X131900000Y-94000000D03*
X138200000Y-122200000D03*
X67300000Y-140100000D03*
X147900000Y-66400000D03*
X82800000Y-129900000D03*
X80100000Y-140900000D03*
X59600000Y-67000000D03*
X62500000Y-68700000D03*
X74300000Y-131000000D03*
X133800000Y-141500000D03*
X147300000Y-99200000D03*
X132200000Y-104700000D03*
X126200000Y-95300000D03*
X74300000Y-132400000D03*
X117000000Y-122700000D03*
X87400000Y-137000000D03*
X131200000Y-94000000D03*
X148500000Y-90900000D03*
X127100000Y-68300000D03*
X123800000Y-141400000D03*
X153500000Y-62200000D03*
X69600000Y-123100000D03*
X89000000Y-136300000D03*
X66200000Y-143700000D03*
X163300000Y-89200000D03*
X115800000Y-121300000D03*
X127400000Y-101200000D03*
X60100000Y-78700000D03*
X77600000Y-140900000D03*
X154300000Y-62200000D03*
X131800000Y-131400000D03*
X149400000Y-63300000D03*
X153600000Y-71300000D03*
X71700000Y-111000000D03*
X147600000Y-82700000D03*
X73100000Y-120600000D03*
X72300000Y-120300000D03*
X111100000Y-62300000D03*
X89000000Y-137700000D03*
X126800000Y-93900000D03*
X127800000Y-96400000D03*
X136200000Y-140000000D03*
X72300000Y-119500000D03*
X67700000Y-139300000D03*
X77700000Y-101300000D03*
X146100000Y-63300000D03*
X65020000Y-108325000D03*
X70100000Y-134000000D03*
X132300000Y-127400000D03*
X127400000Y-100400000D03*
X152800000Y-62200000D03*
X126200000Y-99500000D03*
X113400000Y-131300000D03*
X79100000Y-92600000D03*
X64200000Y-103700000D03*
X148700000Y-101900000D03*
X145700000Y-79800000D03*
X69300000Y-81700000D03*
X111600000Y-100000000D03*
X116400000Y-123000000D03*
X116700000Y-98300000D03*
X124700000Y-131600000D03*
X71900000Y-107800000D03*
X83100000Y-119900000D03*
X110100000Y-62300000D03*
X60300000Y-65800000D03*
X83600000Y-82200000D03*
X92500000Y-120000000D03*
X70700000Y-138200000D03*
X65400000Y-135600000D03*
X159700000Y-87200000D03*
X69700000Y-133300000D03*
X148300000Y-82400000D03*
X121900000Y-107000000D03*
X66900000Y-134200000D03*
X115500000Y-81200000D03*
X128300000Y-101200000D03*
X74900000Y-132800000D03*
X128900000Y-61000000D03*
X128400000Y-84900000D03*
X131700000Y-130000000D03*
X126200000Y-98800000D03*
X161900000Y-134500000D03*
X133000000Y-141500000D03*
X133200000Y-127400000D03*
X102700000Y-131500000D03*
X78000000Y-67900000D03*
X128000000Y-123900000D03*
X140600000Y-66600000D03*
X109500000Y-57900000D03*
X95400000Y-87800000D03*
X83100000Y-118800000D03*
X82300000Y-67900000D03*
X128800000Y-123000000D03*
X123000000Y-108000000D03*
X165400000Y-70100000D03*
X164300000Y-87500000D03*
X80600000Y-133000000D03*
X115800000Y-123400000D03*
X59300000Y-132400000D03*
X125400000Y-81000000D03*
X103000000Y-58900000D03*
X78500000Y-141700000D03*
X131900000Y-125000000D03*
X80900000Y-133700000D03*
X79400000Y-128800000D03*
X147500000Y-106700000D03*
X147900000Y-103100000D03*
X148400000Y-107100000D03*
X98700000Y-90000000D03*
X82400000Y-129300000D03*
X86000000Y-67900000D03*
X88200000Y-138400000D03*
X63600000Y-68000000D03*
X138200000Y-121500000D03*
X60300000Y-66600000D03*
X110200000Y-111100000D03*
X110700000Y-98100000D03*
X153700000Y-74000000D03*
X111800000Y-65410000D03*
X124100000Y-75800000D03*
X115500000Y-75700000D03*
X121396318Y-59900000D03*
X65700000Y-81300000D03*
X114000000Y-58400000D03*
X122800000Y-57200000D03*
X80000000Y-126000000D03*
X82500000Y-123800000D03*
X126500000Y-75700000D03*
X122100000Y-75700000D03*
X68720000Y-114325000D03*
X117400000Y-88900000D03*
X134300000Y-88100000D03*
X77100000Y-122112000D03*
X143600000Y-98000000D03*
X144400000Y-95400000D03*
X120200000Y-91325000D03*
X133000000Y-133400000D03*
X135800000Y-127300000D03*
X68275000Y-129300000D03*
X135580000Y-132478540D03*
X142400000Y-103700000D03*
X136900000Y-97700000D03*
X142100000Y-101800000D03*
X137093368Y-95253578D03*
X142300000Y-91500000D03*
X142300000Y-89400000D03*
X130900000Y-134600000D03*
X84993933Y-124224265D03*
X87200000Y-123900000D03*
X120620000Y-58510000D03*
X123000000Y-71800000D03*
X117579000Y-71230002D03*
X136100000Y-113300000D03*
D25*
X78468000Y-138000000D02*
X79100000Y-138632000D01*
X79100000Y-138632000D02*
X79100000Y-139500000D01*
X115500000Y-59900000D02*
X114000000Y-58400000D01*
X121396318Y-59900000D02*
X115500000Y-59900000D01*
D26*
X86012000Y-113200000D02*
X77100000Y-122112000D01*
X152669750Y-85600000D02*
X158386000Y-91316250D01*
X117400000Y-96102954D02*
X100302954Y-113200000D01*
X100302954Y-113200000D02*
X86012000Y-113200000D01*
X134300000Y-88100000D02*
X136800000Y-85600000D01*
X136800000Y-85600000D02*
X152669750Y-85600000D01*
X117400000Y-88900000D02*
X117400000Y-96102954D01*
D25*
X143600000Y-97700000D02*
X142800000Y-96900000D01*
X143600000Y-98000000D02*
X143600000Y-97700000D01*
X144400000Y-95400000D02*
X144900000Y-95900000D01*
X144900000Y-95900000D02*
X144900000Y-96600000D01*
X120200000Y-91325000D02*
X121725000Y-91325000D01*
X77200000Y-143100000D02*
X118700000Y-143100000D01*
X68275000Y-129300000D02*
X68600000Y-129625000D01*
X129100000Y-132700000D02*
X132300000Y-132700000D01*
X68600000Y-129625000D02*
X68600000Y-134500000D01*
X68600000Y-134500000D02*
X77200000Y-143100000D01*
X132300000Y-132700000D02*
X133000000Y-133400000D01*
X118700000Y-143100000D02*
X129100000Y-132700000D01*
X67000000Y-90250000D02*
X69350000Y-90250000D01*
X80983750Y-78616250D02*
X97426000Y-78616250D01*
X69350000Y-90250000D02*
X80983750Y-78616250D01*
X67000000Y-88750000D02*
X69154000Y-88750000D01*
X69154000Y-88750000D02*
X81827750Y-76076250D01*
X81827750Y-76076250D02*
X97426000Y-76076250D01*
X142100000Y-101800000D02*
X141800000Y-101500000D01*
X142400000Y-103700000D02*
X142400000Y-104800000D01*
X140700000Y-101500000D02*
X136900000Y-97700000D01*
X141800000Y-101500000D02*
X140700000Y-101500000D01*
X142300000Y-89400000D02*
X142300000Y-88100000D01*
X138546422Y-95253578D02*
X137093368Y-95253578D01*
X142300000Y-91500000D02*
X138546422Y-95253578D01*
D26*
X73294267Y-137960000D02*
X71800000Y-136465733D01*
D27*
X84993933Y-124224265D02*
X86875735Y-124224265D01*
D26*
X71800000Y-136465733D02*
X71800000Y-135894267D01*
X71800000Y-135894267D02*
X72846267Y-134848000D01*
X74414000Y-137960000D02*
X73294267Y-137960000D01*
X72846267Y-134848000D02*
X78162000Y-134848000D01*
X78162000Y-134848000D02*
X79494000Y-136180000D01*
D27*
X86875735Y-124224265D02*
X87200000Y-123900000D01*
D25*
X159709000Y-88378152D02*
X159709000Y-90099250D01*
X158890098Y-87559250D02*
X159709000Y-88378152D01*
X157659250Y-87559250D02*
X158890098Y-87559250D01*
X120620000Y-58510000D02*
X128610000Y-58510000D01*
X128610000Y-58510000D02*
X157659250Y-87559250D01*
X159709000Y-90099250D02*
X160926000Y-91316250D01*
X123000000Y-71800000D02*
X121263750Y-73536250D01*
X121263750Y-73536250D02*
X99966000Y-73536250D01*
X117579000Y-71230002D02*
X117548998Y-71200000D01*
X117548998Y-71200000D02*
X100169750Y-71200000D01*
X100169750Y-71200000D02*
X99966000Y-70996250D01*
X135900000Y-113100000D02*
X136100000Y-113300000D01*
X134700000Y-113100000D02*
X135900000Y-113100000D01*
G04 #@! TA.AperFunction,Conductor*
G36*
X98478268Y-89474965D02*
G01*
X98505364Y-89437672D01*
X98585234Y-89280919D01*
X98633208Y-89230122D01*
X98701029Y-89213327D01*
X98767164Y-89235864D01*
X98806203Y-89280917D01*
X98886213Y-89437944D01*
X99003019Y-89598714D01*
X99143536Y-89739231D01*
X99304306Y-89856037D01*
X99397498Y-89903521D01*
X99460780Y-89935765D01*
X99511576Y-89983740D01*
X99528371Y-90051561D01*
X99505833Y-90117696D01*
X99460780Y-90156735D01*
X99304305Y-90236463D01*
X99143533Y-90353271D01*
X99003021Y-90493783D01*
X98886213Y-90654555D01*
X98806485Y-90811030D01*
X98758510Y-90861826D01*
X98690689Y-90878621D01*
X98624554Y-90856083D01*
X98585515Y-90811030D01*
X98530578Y-90703211D01*
X98505787Y-90654556D01*
X98388981Y-90493786D01*
X98248464Y-90353269D01*
X98087694Y-90236463D01*
X97930667Y-90156453D01*
X97879872Y-90108479D01*
X97863077Y-90040658D01*
X97885614Y-89974523D01*
X97930669Y-89935484D01*
X98087422Y-89855614D01*
X98124716Y-89828518D01*
X97561942Y-89265744D01*
X97622081Y-89249631D01*
X97737920Y-89182752D01*
X97832502Y-89088170D01*
X97899381Y-88972331D01*
X97915495Y-88912192D01*
X98478268Y-89474965D01*
G37*
G04 #@! TD.AperFunction*
G04 #@! TA.AperFunction,Conductor*
G36*
X98767446Y-86696415D02*
G01*
X98806484Y-86741468D01*
X98886213Y-86897944D01*
X99003019Y-87058714D01*
X99143536Y-87199231D01*
X99304306Y-87316037D01*
X99344683Y-87336610D01*
X99460780Y-87395765D01*
X99511576Y-87443740D01*
X99528371Y-87511561D01*
X99505833Y-87577696D01*
X99460780Y-87616735D01*
X99304305Y-87696463D01*
X99143533Y-87813271D01*
X99003021Y-87953783D01*
X98886213Y-88114555D01*
X98806204Y-88271581D01*
X98758229Y-88322377D01*
X98690408Y-88339172D01*
X98624273Y-88316634D01*
X98585234Y-88271581D01*
X98505358Y-88114817D01*
X98478268Y-88077533D01*
X97915494Y-88640307D01*
X97899381Y-88580169D01*
X97832502Y-88464330D01*
X97737920Y-88369748D01*
X97622081Y-88302869D01*
X97561942Y-88286754D01*
X98124716Y-87723981D01*
X98124715Y-87723980D01*
X98087432Y-87696891D01*
X97930668Y-87617015D01*
X97879872Y-87569040D01*
X97863077Y-87501219D01*
X97885615Y-87435084D01*
X97930667Y-87396046D01*
X98087694Y-87316037D01*
X98248464Y-87199231D01*
X98388981Y-87058714D01*
X98505787Y-86897944D01*
X98585515Y-86741468D01*
X98633490Y-86690673D01*
X98701311Y-86673878D01*
X98767446Y-86696415D01*
G37*
G04 #@! TD.AperFunction*
G04 #@! TA.AperFunction,Conductor*
G36*
X121998878Y-56628363D02*
G01*
X122008962Y-56627097D01*
X122031837Y-56638041D01*
X122056166Y-56645185D01*
X122062820Y-56652864D01*
X122071989Y-56657251D01*
X122085317Y-56678827D01*
X122101921Y-56697989D01*
X122103367Y-56708046D01*
X122108709Y-56716694D01*
X122108256Y-56742050D01*
X122111865Y-56767147D01*
X122107610Y-56778250D01*
X122107462Y-56786553D01*
X122092229Y-56818391D01*
X122090609Y-56820814D01*
X122090602Y-56820827D01*
X122030264Y-56966498D01*
X122030261Y-56966510D01*
X121999500Y-57121153D01*
X121999500Y-57278846D01*
X122030261Y-57433489D01*
X122030264Y-57433501D01*
X122092622Y-57584048D01*
X122100091Y-57653517D01*
X122068815Y-57715996D01*
X122008726Y-57751648D01*
X121978061Y-57755500D01*
X120914947Y-57755500D01*
X120867498Y-57746062D01*
X120853497Y-57740263D01*
X120853493Y-57740262D01*
X120853488Y-57740260D01*
X120698845Y-57709500D01*
X120698842Y-57709500D01*
X120541158Y-57709500D01*
X120541155Y-57709500D01*
X120386510Y-57740261D01*
X120386498Y-57740264D01*
X120240827Y-57800602D01*
X120240814Y-57800609D01*
X120109711Y-57888210D01*
X120109707Y-57888213D01*
X119998213Y-57999707D01*
X119998210Y-57999711D01*
X119910609Y-58130814D01*
X119910602Y-58130827D01*
X119850264Y-58276498D01*
X119850261Y-58276510D01*
X119819500Y-58431153D01*
X119819500Y-58588846D01*
X119850261Y-58743489D01*
X119850264Y-58743501D01*
X119910602Y-58889172D01*
X119910609Y-58889185D01*
X119952988Y-58952609D01*
X119973866Y-59019287D01*
X119955381Y-59086667D01*
X119903403Y-59133357D01*
X119849886Y-59145500D01*
X115863886Y-59145500D01*
X115796847Y-59125815D01*
X115776205Y-59109181D01*
X114742072Y-58075047D01*
X114715192Y-58034819D01*
X114709396Y-58020827D01*
X114709394Y-58020821D01*
X114695286Y-57999707D01*
X114621789Y-57889710D01*
X114510291Y-57778212D01*
X114510288Y-57778210D01*
X114379185Y-57690609D01*
X114379172Y-57690602D01*
X114233501Y-57630264D01*
X114233489Y-57630261D01*
X114078845Y-57599500D01*
X114078842Y-57599500D01*
X113921158Y-57599500D01*
X113921155Y-57599500D01*
X113766510Y-57630261D01*
X113766498Y-57630264D01*
X113620827Y-57690602D01*
X113620814Y-57690609D01*
X113489711Y-57778210D01*
X113489709Y-57778212D01*
X113378213Y-57889707D01*
X113378210Y-57889711D01*
X113290609Y-58020814D01*
X113290602Y-58020827D01*
X113230264Y-58166498D01*
X113230261Y-58166510D01*
X113199500Y-58321153D01*
X113199500Y-58478846D01*
X113230261Y-58633489D01*
X113230264Y-58633501D01*
X113290602Y-58779172D01*
X113290609Y-58779185D01*
X113378210Y-58910288D01*
X113378213Y-58910292D01*
X113489710Y-59021789D01*
X113620502Y-59109181D01*
X113620821Y-59109394D01*
X113634759Y-59115167D01*
X113634819Y-59115192D01*
X113675047Y-59142072D01*
X114909600Y-60376624D01*
X114909621Y-60376647D01*
X115019028Y-60486054D01*
X115019035Y-60486060D01*
X115142608Y-60568628D01*
X115142609Y-60568628D01*
X115142610Y-60568629D01*
X115279920Y-60625505D01*
X115425683Y-60654499D01*
X115425687Y-60654500D01*
X115425688Y-60654500D01*
X121101371Y-60654500D01*
X121148819Y-60663937D01*
X121162821Y-60669737D01*
X121162826Y-60669738D01*
X121162829Y-60669739D01*
X121317471Y-60700499D01*
X121317474Y-60700500D01*
X121317476Y-60700500D01*
X121475162Y-60700500D01*
X121475163Y-60700499D01*
X121629815Y-60669737D01*
X121775497Y-60609394D01*
X121906607Y-60521789D01*
X122018107Y-60410289D01*
X122105712Y-60279179D01*
X122166055Y-60133497D01*
X122196818Y-59978842D01*
X122196818Y-59821158D01*
X122196818Y-59821155D01*
X122196817Y-59821153D01*
X122166055Y-59666503D01*
X122138550Y-59600099D01*
X122105715Y-59520827D01*
X122105708Y-59520814D01*
X122063330Y-59457391D01*
X122042452Y-59390713D01*
X122060937Y-59323333D01*
X122112915Y-59276643D01*
X122166432Y-59264500D01*
X128246113Y-59264500D01*
X128313152Y-59284185D01*
X128333794Y-59300819D01*
X157073188Y-88040212D01*
X157073191Y-88040216D01*
X157178284Y-88145309D01*
X157181823Y-88147674D01*
X157189119Y-88154893D01*
X157203345Y-88180624D01*
X157219899Y-88204924D01*
X157220057Y-88210849D01*
X157222927Y-88216039D01*
X157220983Y-88245375D01*
X157221772Y-88274768D01*
X157218369Y-88284842D01*
X157218309Y-88285756D01*
X157217853Y-88286371D01*
X157216468Y-88290473D01*
X157215997Y-88291609D01*
X157154587Y-88480612D01*
X157143764Y-88548946D01*
X157113835Y-88612081D01*
X157054523Y-88649012D01*
X156984661Y-88648014D01*
X156933610Y-88617229D01*
X153231676Y-84915295D01*
X153087293Y-84818822D01*
X152926878Y-84752377D01*
X152926868Y-84752374D01*
X152756573Y-84718500D01*
X152756571Y-84718500D01*
X152756570Y-84718500D01*
X136886821Y-84718500D01*
X136713179Y-84718500D01*
X136713174Y-84718500D01*
X136542883Y-84752373D01*
X136542875Y-84752375D01*
X136429440Y-84799362D01*
X136429439Y-84799361D01*
X136382460Y-84818821D01*
X136382443Y-84818830D01*
X136370538Y-84826786D01*
X136370537Y-84826787D01*
X136238073Y-84915295D01*
X133615295Y-87538073D01*
X133518822Y-87682456D01*
X133452377Y-87842871D01*
X133452374Y-87842881D01*
X133418500Y-88013176D01*
X133418500Y-88013179D01*
X133418500Y-88186821D01*
X133418500Y-88186823D01*
X133418499Y-88186823D01*
X133452374Y-88357118D01*
X133452377Y-88357128D01*
X133518822Y-88517543D01*
X133615295Y-88661926D01*
X133738073Y-88784704D01*
X133882456Y-88881177D01*
X134042871Y-88947622D01*
X134042876Y-88947624D01*
X134042880Y-88947624D01*
X134042881Y-88947625D01*
X134213176Y-88981500D01*
X134213179Y-88981500D01*
X134386823Y-88981500D01*
X134501393Y-88958709D01*
X134557124Y-88947624D01*
X134637335Y-88914399D01*
X134717543Y-88881177D01*
X134717544Y-88881176D01*
X134717547Y-88881175D01*
X134861924Y-88784706D01*
X135289512Y-88357118D01*
X135448087Y-88198543D01*
X141299499Y-88198543D01*
X141337947Y-88391829D01*
X141337950Y-88391839D01*
X141413364Y-88573907D01*
X141413371Y-88573920D01*
X141524602Y-88740388D01*
X141545480Y-88807066D01*
X141545500Y-88809279D01*
X141545500Y-89105053D01*
X141536062Y-89152501D01*
X141530263Y-89166503D01*
X141530262Y-89166506D01*
X141530260Y-89166511D01*
X141499500Y-89321153D01*
X141499500Y-89478846D01*
X141530261Y-89633489D01*
X141530264Y-89633501D01*
X141590602Y-89779172D01*
X141590609Y-89779185D01*
X141678210Y-89910288D01*
X141678213Y-89910292D01*
X141789707Y-90021786D01*
X141789711Y-90021789D01*
X141920814Y-90109390D01*
X141920827Y-90109397D01*
X142035113Y-90156735D01*
X142066503Y-90169737D01*
X142171971Y-90190716D01*
X142221153Y-90200499D01*
X142221156Y-90200500D01*
X142221158Y-90200500D01*
X142378844Y-90200500D01*
X142378845Y-90200499D01*
X142533497Y-90169737D01*
X142659136Y-90117696D01*
X142679172Y-90109397D01*
X142679172Y-90109396D01*
X142679179Y-90109394D01*
X142810289Y-90021789D01*
X142921789Y-89910289D01*
X143009394Y-89779179D01*
X143069737Y-89633497D01*
X143100500Y-89478842D01*
X143100500Y-89321158D01*
X143100500Y-89321155D01*
X143100499Y-89321153D01*
X143069739Y-89166511D01*
X143069738Y-89166508D01*
X143069737Y-89166503D01*
X143063937Y-89152501D01*
X143054500Y-89105053D01*
X143054500Y-88809279D01*
X143074185Y-88742240D01*
X143075398Y-88740388D01*
X143186628Y-88573920D01*
X143186628Y-88573919D01*
X143186632Y-88573914D01*
X143262051Y-88391835D01*
X143277010Y-88316634D01*
X143300500Y-88198543D01*
X143300500Y-88001456D01*
X143262052Y-87808170D01*
X143262051Y-87808169D01*
X143262051Y-87808165D01*
X143229499Y-87729576D01*
X143186635Y-87626092D01*
X143186628Y-87626079D01*
X143077139Y-87462218D01*
X143077136Y-87462214D01*
X142937785Y-87322863D01*
X142937781Y-87322860D01*
X142773920Y-87213371D01*
X142773907Y-87213364D01*
X142591839Y-87137950D01*
X142591829Y-87137947D01*
X142398543Y-87099500D01*
X142398541Y-87099500D01*
X142201459Y-87099500D01*
X142201457Y-87099500D01*
X142008170Y-87137947D01*
X142008160Y-87137950D01*
X141826092Y-87213364D01*
X141826079Y-87213371D01*
X141662218Y-87322860D01*
X141662214Y-87322863D01*
X141522863Y-87462214D01*
X141522860Y-87462218D01*
X141413371Y-87626079D01*
X141413364Y-87626092D01*
X141337950Y-87808160D01*
X141337947Y-87808170D01*
X141299500Y-88001456D01*
X141299500Y-88001459D01*
X141299500Y-88198541D01*
X141299500Y-88198543D01*
X141299499Y-88198543D01*
X135448087Y-88198543D01*
X135738945Y-87907686D01*
X137128811Y-86517819D01*
X137190134Y-86484334D01*
X137216492Y-86481500D01*
X152253258Y-86481500D01*
X152320297Y-86501185D01*
X152340939Y-86517819D01*
X157087181Y-91264060D01*
X157120666Y-91325383D01*
X157123500Y-91351741D01*
X157123500Y-91415610D01*
X157154587Y-91611887D01*
X157215993Y-91800879D01*
X157215994Y-91800882D01*
X157298489Y-91962785D01*
X157306213Y-91977944D01*
X157423019Y-92138714D01*
X157563536Y-92279231D01*
X157724306Y-92396037D01*
X157842832Y-92456429D01*
X157880780Y-92475765D01*
X157931576Y-92523740D01*
X157948371Y-92591561D01*
X157925833Y-92657696D01*
X157880780Y-92696735D01*
X157724305Y-92776463D01*
X157563533Y-92893271D01*
X157423021Y-93033783D01*
X157306213Y-93194555D01*
X157215994Y-93371617D01*
X157215993Y-93371620D01*
X157154587Y-93560612D01*
X157123500Y-93756889D01*
X157123500Y-93955610D01*
X157154587Y-94151887D01*
X157215993Y-94340879D01*
X157215994Y-94340882D01*
X157288837Y-94483842D01*
X157306213Y-94517944D01*
X157423019Y-94678714D01*
X157563536Y-94819231D01*
X157724306Y-94936037D01*
X157842832Y-94996429D01*
X157880780Y-95015765D01*
X157931576Y-95063740D01*
X157948371Y-95131561D01*
X157925833Y-95197696D01*
X157880780Y-95236735D01*
X157724305Y-95316463D01*
X157563533Y-95433271D01*
X157423021Y-95573783D01*
X157306213Y-95734555D01*
X157215994Y-95911617D01*
X157215993Y-95911620D01*
X157154587Y-96100612D01*
X157142724Y-96175512D01*
X157123500Y-96296889D01*
X157123500Y-96495611D01*
X157124426Y-96501456D01*
X157154587Y-96691887D01*
X157215993Y-96880879D01*
X157215994Y-96880882D01*
X157290369Y-97026848D01*
X157306213Y-97057944D01*
X157423019Y-97218714D01*
X157563536Y-97359231D01*
X157724306Y-97476037D01*
X157810237Y-97519821D01*
X157880780Y-97555765D01*
X157931576Y-97603740D01*
X157948371Y-97671561D01*
X157925833Y-97737696D01*
X157880780Y-97776735D01*
X157724305Y-97856463D01*
X157563533Y-97973271D01*
X157423021Y-98113783D01*
X157306213Y-98274555D01*
X157215994Y-98451617D01*
X157215993Y-98451620D01*
X157154587Y-98640612D01*
X157123500Y-98836889D01*
X157123500Y-99035610D01*
X157154587Y-99231887D01*
X157215993Y-99420879D01*
X157215994Y-99420882D01*
X157239173Y-99466372D01*
X157306213Y-99597944D01*
X157423019Y-99758714D01*
X157563536Y-99899231D01*
X157724306Y-100016037D01*
X157809783Y-100059590D01*
X157880780Y-100095765D01*
X157931576Y-100143740D01*
X157948371Y-100211561D01*
X157925833Y-100277696D01*
X157880780Y-100316735D01*
X157724305Y-100396463D01*
X157563533Y-100513271D01*
X157423021Y-100653783D01*
X157306213Y-100814555D01*
X157215994Y-100991617D01*
X157215993Y-100991620D01*
X157154587Y-101180612D01*
X157123500Y-101376889D01*
X157123500Y-101575610D01*
X157154587Y-101771887D01*
X157215993Y-101960879D01*
X157215994Y-101960882D01*
X157304013Y-102133626D01*
X157306213Y-102137944D01*
X157423019Y-102298714D01*
X157563536Y-102439231D01*
X157724306Y-102556037D01*
X157751190Y-102569735D01*
X157880780Y-102635765D01*
X157931576Y-102683740D01*
X157948371Y-102751561D01*
X157925833Y-102817696D01*
X157880780Y-102856735D01*
X157724305Y-102936463D01*
X157563533Y-103053271D01*
X157423021Y-103193783D01*
X157306213Y-103354555D01*
X157215994Y-103531617D01*
X157215993Y-103531620D01*
X157154587Y-103720612D01*
X157123500Y-103916889D01*
X157123500Y-104115610D01*
X157154587Y-104311887D01*
X157215993Y-104500879D01*
X157215994Y-104500882D01*
X157306213Y-104677944D01*
X157423019Y-104838714D01*
X157563536Y-104979231D01*
X157724306Y-105096037D01*
X157842832Y-105156429D01*
X157880780Y-105175765D01*
X157931576Y-105223740D01*
X157948371Y-105291561D01*
X157925833Y-105357696D01*
X157880780Y-105396735D01*
X157724305Y-105476463D01*
X157563533Y-105593271D01*
X157423021Y-105733783D01*
X157306213Y-105894555D01*
X157215994Y-106071617D01*
X157215993Y-106071620D01*
X157154587Y-106260612D01*
X157123500Y-106456889D01*
X157123500Y-106655610D01*
X157154587Y-106851887D01*
X157215993Y-107040879D01*
X157215994Y-107040882D01*
X157306213Y-107217944D01*
X157423019Y-107378714D01*
X157563536Y-107519231D01*
X157724306Y-107636037D01*
X157842832Y-107696429D01*
X157880780Y-107715765D01*
X157931576Y-107763740D01*
X157948371Y-107831561D01*
X157925833Y-107897696D01*
X157880780Y-107936735D01*
X157724305Y-108016463D01*
X157563533Y-108133271D01*
X157423021Y-108273783D01*
X157306213Y-108434555D01*
X157215994Y-108611617D01*
X157215993Y-108611620D01*
X157154587Y-108800612D01*
X157123500Y-108996889D01*
X157123500Y-109195610D01*
X157154587Y-109391887D01*
X157215993Y-109580879D01*
X157215994Y-109580882D01*
X157264275Y-109675637D01*
X157306213Y-109757944D01*
X157423019Y-109918714D01*
X157563536Y-110059231D01*
X157724306Y-110176037D01*
X157780682Y-110204762D01*
X157880780Y-110255765D01*
X157931576Y-110303740D01*
X157948371Y-110371561D01*
X157925833Y-110437696D01*
X157880780Y-110476735D01*
X157724305Y-110556463D01*
X157563533Y-110673271D01*
X157423021Y-110813783D01*
X157306213Y-110974555D01*
X157215994Y-111151617D01*
X157215993Y-111151620D01*
X157154587Y-111340612D01*
X157123500Y-111536889D01*
X157123500Y-111735610D01*
X157154587Y-111931887D01*
X157215993Y-112120879D01*
X157215994Y-112120882D01*
X157292798Y-112271616D01*
X157306213Y-112297944D01*
X157423019Y-112458714D01*
X157563536Y-112599231D01*
X157724306Y-112716037D01*
X157802333Y-112755794D01*
X157901367Y-112806255D01*
X157901370Y-112806256D01*
X157995866Y-112836959D01*
X158090364Y-112867663D01*
X158286639Y-112898750D01*
X158286640Y-112898750D01*
X158485360Y-112898750D01*
X158485361Y-112898750D01*
X158681636Y-112867663D01*
X158870632Y-112806255D01*
X159047694Y-112716037D01*
X159208464Y-112599231D01*
X159348981Y-112458714D01*
X159439183Y-112334561D01*
X159494511Y-112291896D01*
X159564125Y-112285917D01*
X159625920Y-112318522D01*
X159660277Y-112379361D01*
X159663500Y-112407444D01*
X159663500Y-112446118D01*
X159663501Y-112446126D01*
X159669908Y-112505733D01*
X159720202Y-112640578D01*
X159720206Y-112640585D01*
X159806452Y-112755794D01*
X159806455Y-112755797D01*
X159921664Y-112842043D01*
X159921671Y-112842047D01*
X160056517Y-112892341D01*
X160056516Y-112892341D01*
X160063444Y-112893085D01*
X160116127Y-112898750D01*
X161735872Y-112898749D01*
X161795483Y-112892341D01*
X161930331Y-112842046D01*
X162045546Y-112755796D01*
X162131796Y-112640581D01*
X162182091Y-112505733D01*
X162188500Y-112446123D01*
X162188499Y-110826378D01*
X162182091Y-110766767D01*
X162177744Y-110755113D01*
X162131797Y-110631921D01*
X162131793Y-110631914D01*
X162045547Y-110516705D01*
X162045544Y-110516702D01*
X161930335Y-110430456D01*
X161930328Y-110430452D01*
X161795482Y-110380158D01*
X161795483Y-110380158D01*
X161735883Y-110373751D01*
X161735881Y-110373750D01*
X161735873Y-110373750D01*
X161735865Y-110373750D01*
X161697198Y-110373750D01*
X161630159Y-110354065D01*
X161584404Y-110301261D01*
X161574460Y-110232103D01*
X161603485Y-110168547D01*
X161624313Y-110149432D01*
X161647277Y-110132747D01*
X161748464Y-110059231D01*
X161888981Y-109918714D01*
X162005787Y-109757944D01*
X162096005Y-109580882D01*
X162157413Y-109391886D01*
X162188500Y-109195611D01*
X162188500Y-108996889D01*
X162157413Y-108800614D01*
X162096005Y-108611618D01*
X162096005Y-108611617D01*
X162005786Y-108434555D01*
X161888981Y-108273786D01*
X161748464Y-108133269D01*
X161587694Y-108016463D01*
X161431218Y-107936734D01*
X161380423Y-107888760D01*
X161363628Y-107820939D01*
X161386165Y-107754804D01*
X161431218Y-107715765D01*
X161587694Y-107636037D01*
X161748464Y-107519231D01*
X161888981Y-107378714D01*
X162005787Y-107217944D01*
X162096005Y-107040882D01*
X162157413Y-106851886D01*
X162188500Y-106655611D01*
X162188500Y-106456889D01*
X162157413Y-106260614D01*
X162096005Y-106071618D01*
X162096005Y-106071617D01*
X162005786Y-105894555D01*
X161909517Y-105762052D01*
X161888981Y-105733786D01*
X161748464Y-105593269D01*
X161587694Y-105476463D01*
X161431218Y-105396734D01*
X161380423Y-105348760D01*
X161363628Y-105280939D01*
X161386165Y-105214804D01*
X161431218Y-105175765D01*
X161587694Y-105096037D01*
X161748464Y-104979231D01*
X161888981Y-104838714D01*
X162005787Y-104677944D01*
X162096005Y-104500882D01*
X162157413Y-104311886D01*
X162188500Y-104115611D01*
X162188500Y-103916889D01*
X162157413Y-103720614D01*
X162096005Y-103531618D01*
X162096005Y-103531617D01*
X162005786Y-103354555D01*
X161981272Y-103320814D01*
X161888981Y-103193786D01*
X161748464Y-103053269D01*
X161587694Y-102936463D01*
X161431218Y-102856734D01*
X161380423Y-102808760D01*
X161363628Y-102740939D01*
X161386165Y-102674804D01*
X161431218Y-102635765D01*
X161587694Y-102556037D01*
X161748464Y-102439231D01*
X161888981Y-102298714D01*
X162005787Y-102137944D01*
X162096005Y-101960882D01*
X162157413Y-101771886D01*
X162188500Y-101575611D01*
X162188500Y-101376889D01*
X162157413Y-101180614D01*
X162096005Y-100991618D01*
X162096005Y-100991617D01*
X162005786Y-100814555D01*
X161995211Y-100800000D01*
X161888981Y-100653786D01*
X161748464Y-100513269D01*
X161587694Y-100396463D01*
X161431218Y-100316734D01*
X161380423Y-100268760D01*
X161363628Y-100200939D01*
X161386165Y-100134804D01*
X161431218Y-100095765D01*
X161587694Y-100016037D01*
X161748464Y-99899231D01*
X161888981Y-99758714D01*
X162005787Y-99597944D01*
X162096005Y-99420882D01*
X162157413Y-99231886D01*
X162188500Y-99035611D01*
X162188500Y-98836889D01*
X162157413Y-98640614D01*
X162096005Y-98451618D01*
X162096005Y-98451617D01*
X162050035Y-98361399D01*
X162005787Y-98274556D01*
X161888981Y-98113786D01*
X161748464Y-97973269D01*
X161587694Y-97856463D01*
X161431218Y-97776734D01*
X161380423Y-97728760D01*
X161363628Y-97660939D01*
X161386165Y-97594804D01*
X161431218Y-97555765D01*
X161587694Y-97476037D01*
X161748464Y-97359231D01*
X161888981Y-97218714D01*
X162005787Y-97057944D01*
X162096005Y-96880882D01*
X162157413Y-96691886D01*
X162188500Y-96495611D01*
X162188500Y-96296889D01*
X162157413Y-96100614D01*
X162112691Y-95962972D01*
X162096006Y-95911620D01*
X162096005Y-95911617D01*
X162050035Y-95821399D01*
X162005787Y-95734556D01*
X161888981Y-95573786D01*
X161748464Y-95433269D01*
X161587694Y-95316463D01*
X161431218Y-95236734D01*
X161380423Y-95188760D01*
X161363628Y-95120939D01*
X161386165Y-95054804D01*
X161431218Y-95015765D01*
X161587694Y-94936037D01*
X161748464Y-94819231D01*
X161888981Y-94678714D01*
X162005787Y-94517944D01*
X162096005Y-94340882D01*
X162157413Y-94151886D01*
X162188500Y-93955611D01*
X162188500Y-93756889D01*
X162157413Y-93560614D01*
X162096005Y-93371618D01*
X162096005Y-93371617D01*
X162005786Y-93194555D01*
X161888981Y-93033786D01*
X161748464Y-92893269D01*
X161587694Y-92776463D01*
X161431218Y-92696734D01*
X161380423Y-92648760D01*
X161363628Y-92580939D01*
X161386165Y-92514804D01*
X161431218Y-92475765D01*
X161587694Y-92396037D01*
X161748464Y-92279231D01*
X161888981Y-92138714D01*
X162005787Y-91977944D01*
X162096005Y-91800882D01*
X162096643Y-91798920D01*
X162117898Y-91733501D01*
X162157413Y-91611886D01*
X162188500Y-91415611D01*
X162188500Y-91216889D01*
X162157413Y-91020614D01*
X162103954Y-90856083D01*
X162096006Y-90831620D01*
X162096005Y-90831617D01*
X162030578Y-90703211D01*
X162005787Y-90654556D01*
X161888981Y-90493786D01*
X161748464Y-90353269D01*
X161587694Y-90236463D01*
X161430667Y-90156453D01*
X161379872Y-90108479D01*
X161363077Y-90040658D01*
X161385614Y-89974523D01*
X161430669Y-89935484D01*
X161587422Y-89855614D01*
X161624715Y-89828518D01*
X161061942Y-89265745D01*
X161122081Y-89249631D01*
X161237920Y-89182752D01*
X161332502Y-89088170D01*
X161399381Y-88972331D01*
X161415495Y-88912192D01*
X161978268Y-89474965D01*
X162005362Y-89437675D01*
X162095542Y-89260687D01*
X162156924Y-89071773D01*
X162156924Y-89071770D01*
X162188000Y-88875571D01*
X162188000Y-88676928D01*
X162156924Y-88480729D01*
X162156924Y-88480726D01*
X162095542Y-88291812D01*
X162005358Y-88114817D01*
X161978268Y-88077533D01*
X161415494Y-88640307D01*
X161399381Y-88580169D01*
X161332502Y-88464330D01*
X161237920Y-88369748D01*
X161122081Y-88302869D01*
X161061941Y-88286754D01*
X161624715Y-87723980D01*
X161587432Y-87696891D01*
X161430668Y-87617015D01*
X161379872Y-87569040D01*
X161363077Y-87501219D01*
X161385615Y-87435084D01*
X161430667Y-87396046D01*
X161587694Y-87316037D01*
X161748464Y-87199231D01*
X161888981Y-87058714D01*
X162005787Y-86897944D01*
X162096005Y-86720882D01*
X162157413Y-86531886D01*
X162188500Y-86335611D01*
X162188500Y-86136889D01*
X162157413Y-85940614D01*
X162111277Y-85798621D01*
X162096006Y-85751620D01*
X162096005Y-85751617D01*
X162005786Y-85574555D01*
X161946026Y-85492302D01*
X161888981Y-85413786D01*
X161748464Y-85273269D01*
X161587694Y-85156463D01*
X161431218Y-85076734D01*
X161380423Y-85028760D01*
X161363628Y-84960939D01*
X161386165Y-84894804D01*
X161431218Y-84855765D01*
X161587694Y-84776037D01*
X161748464Y-84659231D01*
X161888981Y-84518714D01*
X162005787Y-84357944D01*
X162096005Y-84180882D01*
X162157413Y-83991886D01*
X162188500Y-83795611D01*
X162188500Y-83596889D01*
X162157413Y-83400614D01*
X162096005Y-83211618D01*
X162096005Y-83211617D01*
X162050035Y-83121399D01*
X162005787Y-83034556D01*
X161888981Y-82873786D01*
X161748464Y-82733269D01*
X161587694Y-82616463D01*
X161431218Y-82536734D01*
X161380423Y-82488760D01*
X161363628Y-82420939D01*
X161386165Y-82354804D01*
X161431218Y-82315765D01*
X161587694Y-82236037D01*
X161748464Y-82119231D01*
X161888981Y-81978714D01*
X162005787Y-81817944D01*
X162096005Y-81640882D01*
X162157413Y-81451886D01*
X162188500Y-81255611D01*
X162188500Y-81056889D01*
X162157413Y-80860614D01*
X162098148Y-80678213D01*
X162096006Y-80671620D01*
X162096005Y-80671617D01*
X162024586Y-80531451D01*
X162005787Y-80494556D01*
X161888981Y-80333786D01*
X161748464Y-80193269D01*
X161587694Y-80076463D01*
X161431218Y-79996734D01*
X161380423Y-79948760D01*
X161363628Y-79880939D01*
X161386165Y-79814804D01*
X161431218Y-79775765D01*
X161587694Y-79696037D01*
X161748464Y-79579231D01*
X161888981Y-79438714D01*
X162005787Y-79277944D01*
X162096005Y-79100882D01*
X162157413Y-78911886D01*
X162188500Y-78715611D01*
X162188500Y-78516889D01*
X162157413Y-78320614D01*
X162096005Y-78131618D01*
X162096005Y-78131617D01*
X162050035Y-78041399D01*
X162005787Y-77954556D01*
X161888981Y-77793786D01*
X161748464Y-77653269D01*
X161587694Y-77536463D01*
X161431218Y-77456734D01*
X161380423Y-77408760D01*
X161363628Y-77340939D01*
X161386165Y-77274804D01*
X161431218Y-77235765D01*
X161587694Y-77156037D01*
X161748464Y-77039231D01*
X161888981Y-76898714D01*
X162005787Y-76737944D01*
X162096005Y-76560882D01*
X162157413Y-76371886D01*
X162188500Y-76175611D01*
X162188500Y-75976889D01*
X162157413Y-75780614D01*
X162105602Y-75621155D01*
X162096006Y-75591620D01*
X162096005Y-75591617D01*
X162008979Y-75420821D01*
X162005787Y-75414556D01*
X161888981Y-75253786D01*
X161748464Y-75113269D01*
X161587694Y-74996463D01*
X161431218Y-74916734D01*
X161380423Y-74868760D01*
X161363628Y-74800939D01*
X161386165Y-74734804D01*
X161431218Y-74695765D01*
X161587694Y-74616037D01*
X161748464Y-74499231D01*
X161888981Y-74358714D01*
X162005787Y-74197944D01*
X162096005Y-74020882D01*
X162157413Y-73831886D01*
X162188500Y-73635611D01*
X162188500Y-73436889D01*
X162157413Y-73240614D01*
X162096005Y-73051618D01*
X162096005Y-73051617D01*
X162005786Y-72874555D01*
X161888981Y-72713786D01*
X161748464Y-72573269D01*
X161587694Y-72456463D01*
X161431218Y-72376734D01*
X161380423Y-72328760D01*
X161363628Y-72260939D01*
X161386165Y-72194804D01*
X161431218Y-72155765D01*
X161587694Y-72076037D01*
X161748464Y-71959231D01*
X161888981Y-71818714D01*
X162005787Y-71657944D01*
X162096005Y-71480882D01*
X162157413Y-71291886D01*
X162188500Y-71095611D01*
X162188500Y-70896889D01*
X162157413Y-70700614D01*
X162096005Y-70511618D01*
X162096005Y-70511617D01*
X162027818Y-70377794D01*
X162005787Y-70334556D01*
X161888981Y-70173786D01*
X161748464Y-70033269D01*
X161587694Y-69916463D01*
X161431218Y-69836734D01*
X161380423Y-69788760D01*
X161363628Y-69720939D01*
X161386165Y-69654804D01*
X161431218Y-69615765D01*
X161587694Y-69536037D01*
X161748464Y-69419231D01*
X161888981Y-69278714D01*
X162005787Y-69117944D01*
X162096005Y-68940882D01*
X162157413Y-68751886D01*
X162188500Y-68555611D01*
X162188500Y-68356889D01*
X162157413Y-68160614D01*
X162096005Y-67971618D01*
X162096005Y-67971617D01*
X162016069Y-67814736D01*
X162005787Y-67794556D01*
X161888981Y-67633786D01*
X161748464Y-67493269D01*
X161587694Y-67376463D01*
X161431218Y-67296734D01*
X161380423Y-67248760D01*
X161363628Y-67180939D01*
X161386165Y-67114804D01*
X161431218Y-67075765D01*
X161587694Y-66996037D01*
X161748464Y-66879231D01*
X161888981Y-66738714D01*
X162005787Y-66577944D01*
X162096005Y-66400882D01*
X162157413Y-66211886D01*
X162188500Y-66015611D01*
X162188500Y-65816889D01*
X162157413Y-65620614D01*
X162096005Y-65431618D01*
X162096005Y-65431617D01*
X162050035Y-65341399D01*
X162005787Y-65254556D01*
X161888981Y-65093786D01*
X161748464Y-64953269D01*
X161587694Y-64836463D01*
X161410632Y-64746244D01*
X161410629Y-64746243D01*
X161221637Y-64684837D01*
X161101372Y-64665789D01*
X161025361Y-64653750D01*
X160826639Y-64653750D01*
X160761214Y-64664112D01*
X160630362Y-64684837D01*
X160441370Y-64746243D01*
X160441367Y-64746244D01*
X160264305Y-64836463D01*
X160103533Y-64953271D01*
X159963021Y-65093783D01*
X159846213Y-65254555D01*
X159766485Y-65411030D01*
X159718510Y-65461826D01*
X159650689Y-65478621D01*
X159584554Y-65456083D01*
X159545515Y-65411030D01*
X159526179Y-65373082D01*
X159465787Y-65254556D01*
X159348981Y-65093786D01*
X159208464Y-64953269D01*
X159047694Y-64836463D01*
X158870632Y-64746244D01*
X158870629Y-64746243D01*
X158681637Y-64684837D01*
X158561372Y-64665789D01*
X158485361Y-64653750D01*
X158286639Y-64653750D01*
X158221214Y-64664112D01*
X158090362Y-64684837D01*
X157901370Y-64746243D01*
X157901367Y-64746244D01*
X157724305Y-64836463D01*
X157563533Y-64953271D01*
X157423021Y-65093783D01*
X157306213Y-65254555D01*
X157215994Y-65431617D01*
X157215993Y-65431620D01*
X157154587Y-65620612D01*
X157123500Y-65816889D01*
X157123500Y-66015610D01*
X157154587Y-66211887D01*
X157215993Y-66400879D01*
X157215994Y-66400882D01*
X157306213Y-66577944D01*
X157423019Y-66738714D01*
X157563536Y-66879231D01*
X157724306Y-66996037D01*
X157842832Y-67056429D01*
X157880780Y-67075765D01*
X157931576Y-67123740D01*
X157948371Y-67191561D01*
X157925833Y-67257696D01*
X157880780Y-67296735D01*
X157724305Y-67376463D01*
X157563533Y-67493271D01*
X157423021Y-67633783D01*
X157306213Y-67794555D01*
X157215994Y-67971617D01*
X157215993Y-67971620D01*
X157154587Y-68160612D01*
X157123500Y-68356889D01*
X157123500Y-68555610D01*
X157154587Y-68751887D01*
X157215993Y-68940879D01*
X157215994Y-68940882D01*
X157306213Y-69117944D01*
X157423019Y-69278714D01*
X157563536Y-69419231D01*
X157724306Y-69536037D01*
X157842832Y-69596429D01*
X157880780Y-69615765D01*
X157931576Y-69663740D01*
X157948371Y-69731561D01*
X157925833Y-69797696D01*
X157880780Y-69836735D01*
X157724305Y-69916463D01*
X157563533Y-70033271D01*
X157423021Y-70173783D01*
X157306213Y-70334555D01*
X157215994Y-70511617D01*
X157215993Y-70511620D01*
X157154587Y-70700612D01*
X157123500Y-70896889D01*
X157123500Y-71095610D01*
X157154587Y-71291887D01*
X157215993Y-71480879D01*
X157215994Y-71480882D01*
X157281363Y-71609174D01*
X157306213Y-71657944D01*
X157423019Y-71818714D01*
X157563536Y-71959231D01*
X157724306Y-72076037D01*
X157842832Y-72136429D01*
X157880780Y-72155765D01*
X157931576Y-72203740D01*
X157948371Y-72271561D01*
X157925833Y-72337696D01*
X157880780Y-72376735D01*
X157724305Y-72456463D01*
X157563533Y-72573271D01*
X157423021Y-72713783D01*
X157306213Y-72874555D01*
X157215994Y-73051617D01*
X157215993Y-73051620D01*
X157154587Y-73240612D01*
X157123500Y-73436889D01*
X157123500Y-73635610D01*
X157154587Y-73831887D01*
X157215993Y-74020879D01*
X157215994Y-74020882D01*
X157306213Y-74197944D01*
X157423019Y-74358714D01*
X157563536Y-74499231D01*
X157724306Y-74616037D01*
X157842832Y-74676429D01*
X157880780Y-74695765D01*
X157931576Y-74743740D01*
X157948371Y-74811561D01*
X157925833Y-74877696D01*
X157880780Y-74916735D01*
X157724305Y-74996463D01*
X157563533Y-75113271D01*
X157423021Y-75253783D01*
X157306213Y-75414555D01*
X157215994Y-75591617D01*
X157215993Y-75591620D01*
X157154587Y-75780612D01*
X157134001Y-75910586D01*
X157123500Y-75976889D01*
X157123500Y-76175611D01*
X157128993Y-76210292D01*
X157154587Y-76371887D01*
X157215993Y-76560879D01*
X157215994Y-76560882D01*
X157236181Y-76600500D01*
X157306213Y-76737944D01*
X157423019Y-76898714D01*
X157563536Y-77039231D01*
X157724306Y-77156037D01*
X157842832Y-77216429D01*
X157880780Y-77235765D01*
X157931576Y-77283740D01*
X157948371Y-77351561D01*
X157925833Y-77417696D01*
X157880780Y-77456735D01*
X157724305Y-77536463D01*
X157563533Y-77653271D01*
X157423021Y-77793783D01*
X157306213Y-77954555D01*
X157215994Y-78131617D01*
X157215993Y-78131620D01*
X157154587Y-78320612D01*
X157123500Y-78516889D01*
X157123500Y-78715610D01*
X157154587Y-78911887D01*
X157215993Y-79100879D01*
X157215994Y-79100882D01*
X157252849Y-79173212D01*
X157306213Y-79277944D01*
X157423019Y-79438714D01*
X157563536Y-79579231D01*
X157724306Y-79696037D01*
X157842832Y-79756429D01*
X157880780Y-79775765D01*
X157931576Y-79823740D01*
X157948371Y-79891561D01*
X157925833Y-79957696D01*
X157880780Y-79996735D01*
X157724305Y-80076463D01*
X157563533Y-80193271D01*
X157423021Y-80333783D01*
X157306213Y-80494555D01*
X157215994Y-80671617D01*
X157215993Y-80671620D01*
X157154587Y-80860612D01*
X157123500Y-81056889D01*
X157123500Y-81255610D01*
X157154587Y-81451887D01*
X157215993Y-81640879D01*
X157215994Y-81640882D01*
X157235508Y-81679179D01*
X157306213Y-81817944D01*
X157423019Y-81978714D01*
X157563536Y-82119231D01*
X157724306Y-82236037D01*
X157767413Y-82258001D01*
X157880780Y-82315765D01*
X157931576Y-82363740D01*
X157948371Y-82431561D01*
X157925833Y-82497696D01*
X157880780Y-82536735D01*
X157724305Y-82616463D01*
X157563533Y-82733271D01*
X157423021Y-82873783D01*
X157306213Y-83034555D01*
X157215994Y-83211617D01*
X157215993Y-83211620D01*
X157154587Y-83400612D01*
X157140034Y-83492496D01*
X157123500Y-83596889D01*
X157123500Y-83795611D01*
X157139043Y-83893748D01*
X157154587Y-83991887D01*
X157215993Y-84180879D01*
X157215994Y-84180882D01*
X157295343Y-84336610D01*
X157306213Y-84357944D01*
X157423019Y-84518714D01*
X157563536Y-84659231D01*
X157724306Y-84776037D01*
X157770082Y-84799361D01*
X157880780Y-84855765D01*
X157931576Y-84903740D01*
X157948371Y-84971561D01*
X157925833Y-85037696D01*
X157880780Y-85076735D01*
X157724305Y-85156463D01*
X157563533Y-85273271D01*
X157423021Y-85413783D01*
X157306213Y-85574555D01*
X157215994Y-85751617D01*
X157215993Y-85751620D01*
X157205602Y-85783603D01*
X157166164Y-85841279D01*
X157101806Y-85868477D01*
X157032959Y-85856562D01*
X156999990Y-85832966D01*
X129553513Y-58386487D01*
X129469161Y-58302135D01*
X158549500Y-58302135D01*
X158549500Y-60097870D01*
X158549501Y-60097876D01*
X158555908Y-60157483D01*
X158606202Y-60292328D01*
X158606206Y-60292335D01*
X158692452Y-60407544D01*
X158692455Y-60407547D01*
X158807664Y-60493793D01*
X158807671Y-60493797D01*
X158942517Y-60544091D01*
X158942516Y-60544091D01*
X158949444Y-60544835D01*
X159002127Y-60550500D01*
X160797872Y-60550499D01*
X160857483Y-60544091D01*
X160992331Y-60493796D01*
X161107546Y-60407546D01*
X161193796Y-60292331D01*
X161244091Y-60157483D01*
X161250500Y-60097873D01*
X161250499Y-60073979D01*
X161253330Y-60060963D01*
X161263940Y-60041525D01*
X161270179Y-60020275D01*
X161286803Y-59999643D01*
X161286808Y-59999636D01*
X161286811Y-59999634D01*
X161286818Y-59999626D01*
X161957037Y-59329408D01*
X161974075Y-59392993D01*
X162039901Y-59507007D01*
X162132993Y-59600099D01*
X162247007Y-59665925D01*
X162310590Y-59682962D01*
X161678282Y-60315269D01*
X161678282Y-60315270D01*
X161732449Y-60354624D01*
X161921782Y-60451095D01*
X162123870Y-60516757D01*
X162333754Y-60550000D01*
X162546246Y-60550000D01*
X162756127Y-60516757D01*
X162756130Y-60516757D01*
X162958217Y-60451095D01*
X163147554Y-60354622D01*
X163201716Y-60315270D01*
X163201717Y-60315270D01*
X162569408Y-59682962D01*
X162632993Y-59665925D01*
X162747007Y-59600099D01*
X162840099Y-59507007D01*
X162905925Y-59392993D01*
X162922962Y-59329408D01*
X163555270Y-59961717D01*
X163555270Y-59961716D01*
X163594622Y-59907554D01*
X163691095Y-59718217D01*
X163756757Y-59516130D01*
X163756757Y-59516127D01*
X163790000Y-59306246D01*
X163790000Y-59093753D01*
X163756757Y-58883872D01*
X163756757Y-58883869D01*
X163691095Y-58681782D01*
X163594624Y-58492449D01*
X163555270Y-58438282D01*
X163555269Y-58438282D01*
X162922962Y-59070590D01*
X162905925Y-59007007D01*
X162840099Y-58892993D01*
X162747007Y-58799901D01*
X162632993Y-58734075D01*
X162569409Y-58717037D01*
X163201716Y-58084728D01*
X163147550Y-58045375D01*
X162958217Y-57948904D01*
X162756129Y-57883242D01*
X162546246Y-57850000D01*
X162333754Y-57850000D01*
X162123872Y-57883242D01*
X162123869Y-57883242D01*
X161921782Y-57948904D01*
X161732439Y-58045380D01*
X161678282Y-58084727D01*
X161678282Y-58084728D01*
X162310591Y-58717037D01*
X162247007Y-58734075D01*
X162132993Y-58799901D01*
X162039901Y-58892993D01*
X161974075Y-59007007D01*
X161957037Y-59070591D01*
X161286818Y-58400372D01*
X161253333Y-58339049D01*
X161253330Y-58339036D01*
X161250499Y-58326015D01*
X161250499Y-58302128D01*
X161244091Y-58242517D01*
X161215738Y-58166498D01*
X161193798Y-58107673D01*
X161193793Y-58107664D01*
X161107547Y-57992455D01*
X161107544Y-57992452D01*
X160992335Y-57906206D01*
X160992328Y-57906202D01*
X160857482Y-57855908D01*
X160857483Y-57855908D01*
X160797883Y-57849501D01*
X160797881Y-57849500D01*
X160797873Y-57849500D01*
X160797864Y-57849500D01*
X159002129Y-57849500D01*
X159002123Y-57849501D01*
X158942516Y-57855908D01*
X158807671Y-57906202D01*
X158807664Y-57906206D01*
X158692455Y-57992452D01*
X158692452Y-57992455D01*
X158606206Y-58107664D01*
X158606202Y-58107671D01*
X158555908Y-58242517D01*
X158549501Y-58302116D01*
X158549500Y-58302135D01*
X129469161Y-58302135D01*
X129090968Y-57923942D01*
X128967392Y-57841372D01*
X128967391Y-57841371D01*
X128967389Y-57841370D01*
X128967386Y-57841368D01*
X128967381Y-57841366D01*
X128874042Y-57802704D01*
X128874034Y-57802701D01*
X128868975Y-57800606D01*
X128830080Y-57784495D01*
X128798488Y-57778211D01*
X128756185Y-57769796D01*
X128684313Y-57755499D01*
X128684312Y-57755499D01*
X128535688Y-57755499D01*
X128529574Y-57755499D01*
X128529554Y-57755500D01*
X123621939Y-57755500D01*
X123554900Y-57735815D01*
X123509145Y-57683011D01*
X123499201Y-57613853D01*
X123507378Y-57584048D01*
X123569735Y-57433501D01*
X123569737Y-57433497D01*
X123600500Y-57278842D01*
X123600500Y-57121158D01*
X123600500Y-57121155D01*
X123600499Y-57121153D01*
X123569738Y-56966510D01*
X123569737Y-56966503D01*
X123569735Y-56966498D01*
X123509397Y-56820827D01*
X123509390Y-56820814D01*
X123507771Y-56818391D01*
X123507312Y-56816927D01*
X123506521Y-56815446D01*
X123506801Y-56815295D01*
X123486893Y-56751713D01*
X123505378Y-56684333D01*
X123557356Y-56637643D01*
X123610873Y-56625500D01*
X166009108Y-56625500D01*
X166065243Y-56625500D01*
X166084640Y-56627027D01*
X166100080Y-56629472D01*
X166148154Y-56637086D01*
X166185046Y-56649073D01*
X166233544Y-56673783D01*
X166264929Y-56696586D01*
X166303413Y-56735070D01*
X166326217Y-56766457D01*
X166350925Y-56814950D01*
X166362913Y-56851845D01*
X166372973Y-56915358D01*
X166374500Y-56934757D01*
X166374500Y-145315242D01*
X166372973Y-145334639D01*
X166372973Y-145334641D01*
X166362913Y-145398154D01*
X166350925Y-145435049D01*
X166326217Y-145483542D01*
X166303413Y-145514929D01*
X166264929Y-145553413D01*
X166233542Y-145576217D01*
X166185049Y-145600925D01*
X166148154Y-145612913D01*
X166110734Y-145618840D01*
X166084639Y-145622973D01*
X166065243Y-145624500D01*
X57684757Y-145624500D01*
X57665360Y-145622973D01*
X57624549Y-145616509D01*
X57601845Y-145612913D01*
X57564950Y-145600925D01*
X57516457Y-145576217D01*
X57485070Y-145553413D01*
X57446586Y-145514929D01*
X57423782Y-145483542D01*
X57399073Y-145435046D01*
X57387086Y-145398152D01*
X57377027Y-145334639D01*
X57375500Y-145315242D01*
X57375500Y-136940142D01*
X67170000Y-136940142D01*
X67170000Y-137199857D01*
X67210629Y-137456377D01*
X67290883Y-137703377D01*
X67408796Y-137934791D01*
X67489951Y-138046492D01*
X67489952Y-138046493D01*
X68115633Y-137420812D01*
X68124342Y-137441837D01*
X68210251Y-137570408D01*
X68319592Y-137679749D01*
X68448163Y-137765658D01*
X68469186Y-137774366D01*
X67843505Y-138400046D01*
X67843506Y-138400048D01*
X67955208Y-138481203D01*
X68186622Y-138599116D01*
X68433622Y-138679370D01*
X68690143Y-138720000D01*
X68949857Y-138720000D01*
X69206377Y-138679370D01*
X69453377Y-138599116D01*
X69684788Y-138481205D01*
X69796492Y-138400046D01*
X69796493Y-138400046D01*
X69170812Y-137774366D01*
X69191837Y-137765658D01*
X69320408Y-137679749D01*
X69429749Y-137570408D01*
X69515658Y-137441837D01*
X69524366Y-137420812D01*
X70150046Y-138046493D01*
X70150046Y-138046492D01*
X70231205Y-137934788D01*
X70349117Y-137703375D01*
X70381551Y-137603551D01*
X70420987Y-137545875D01*
X70485346Y-137518676D01*
X70554192Y-137530590D01*
X70587160Y-137554185D01*
X71749531Y-138716556D01*
X71783016Y-138777878D01*
X71778032Y-138847570D01*
X71736160Y-138903503D01*
X71670696Y-138927920D01*
X71602423Y-138913068D01*
X71599850Y-138911623D01*
X71431294Y-138814307D01*
X71431285Y-138814303D01*
X71204162Y-138720225D01*
X71204155Y-138720223D01*
X71204153Y-138720222D01*
X70966677Y-138656591D01*
X70925939Y-138651227D01*
X70722934Y-138624500D01*
X70722927Y-138624500D01*
X70477073Y-138624500D01*
X70477065Y-138624500D01*
X70245059Y-138655045D01*
X70233323Y-138656591D01*
X70148310Y-138679370D01*
X69995847Y-138720222D01*
X69995837Y-138720225D01*
X69768714Y-138814303D01*
X69768705Y-138814307D01*
X69555787Y-138937236D01*
X69360745Y-139086897D01*
X69360738Y-139086903D01*
X69186903Y-139260738D01*
X69186897Y-139260745D01*
X69037236Y-139455787D01*
X68914307Y-139668705D01*
X68914303Y-139668714D01*
X68820225Y-139895837D01*
X68820222Y-139895847D01*
X68756592Y-140133320D01*
X68756590Y-140133331D01*
X68724500Y-140377065D01*
X68724500Y-140622934D01*
X68751227Y-140825939D01*
X68756591Y-140866677D01*
X68756592Y-140866679D01*
X68820222Y-141104152D01*
X68820225Y-141104162D01*
X68914303Y-141331285D01*
X68914306Y-141331292D01*
X69037233Y-141544208D01*
X69037235Y-141544211D01*
X69037236Y-141544212D01*
X69186897Y-141739254D01*
X69186903Y-141739261D01*
X69360738Y-141913096D01*
X69360744Y-141913101D01*
X69555792Y-142062767D01*
X69768708Y-142185694D01*
X69995847Y-142279778D01*
X70233323Y-142343409D01*
X70477073Y-142375500D01*
X70477080Y-142375500D01*
X70722920Y-142375500D01*
X70722927Y-142375500D01*
X70966677Y-142343409D01*
X71204153Y-142279778D01*
X71431292Y-142185694D01*
X71644208Y-142062767D01*
X71839256Y-141913101D01*
X72013101Y-141739256D01*
X72162767Y-141544208D01*
X72285694Y-141331292D01*
X72379778Y-141104153D01*
X72443409Y-140866677D01*
X72475500Y-140622927D01*
X72475500Y-140377073D01*
X72443409Y-140133323D01*
X72379778Y-139895847D01*
X72285694Y-139668708D01*
X72188375Y-139500147D01*
X72171903Y-139432249D01*
X72194755Y-139366222D01*
X72249677Y-139323031D01*
X72319230Y-139316390D01*
X72381333Y-139348406D01*
X72383444Y-139350468D01*
X76609600Y-143576624D01*
X76609621Y-143576647D01*
X76719029Y-143686055D01*
X76719032Y-143686057D01*
X76719034Y-143686059D01*
X76801605Y-143741230D01*
X76842611Y-143768630D01*
X76923045Y-143801946D01*
X76979920Y-143825505D01*
X76979929Y-143825506D01*
X76979930Y-143825507D01*
X77004103Y-143830315D01*
X77004110Y-143830316D01*
X77125686Y-143854501D01*
X77125688Y-143854501D01*
X77280426Y-143854501D01*
X77280446Y-143854500D01*
X118619554Y-143854500D01*
X118619574Y-143854501D01*
X118625688Y-143854501D01*
X118774314Y-143854501D01*
X118811009Y-143847200D01*
X118895894Y-143830315D01*
X118920080Y-143825505D01*
X118976955Y-143801946D01*
X119057389Y-143768630D01*
X119180966Y-143686059D01*
X128345871Y-134521153D01*
X130099500Y-134521153D01*
X130099500Y-134678846D01*
X130130261Y-134833489D01*
X130130264Y-134833501D01*
X130190602Y-134979172D01*
X130190609Y-134979185D01*
X130278210Y-135110288D01*
X130278213Y-135110292D01*
X130389707Y-135221786D01*
X130389711Y-135221789D01*
X130520814Y-135309390D01*
X130520827Y-135309397D01*
X130655921Y-135365354D01*
X130666503Y-135369737D01*
X130821153Y-135400499D01*
X130821156Y-135400500D01*
X130821158Y-135400500D01*
X130978844Y-135400500D01*
X130978845Y-135400499D01*
X131133497Y-135369737D01*
X131279179Y-135309394D01*
X131410289Y-135221789D01*
X131521789Y-135110289D01*
X131609394Y-134979179D01*
X131669737Y-134833497D01*
X131700500Y-134678842D01*
X131700500Y-134521158D01*
X131700500Y-134521155D01*
X131700499Y-134521153D01*
X131681847Y-134427385D01*
X131669737Y-134366503D01*
X131669735Y-134366498D01*
X131609397Y-134220827D01*
X131609390Y-134220814D01*
X131521789Y-134089711D01*
X131521786Y-134089707D01*
X131410292Y-133978213D01*
X131410288Y-133978210D01*
X131279185Y-133890609D01*
X131279172Y-133890602D01*
X131133501Y-133830264D01*
X131133489Y-133830261D01*
X130978845Y-133799500D01*
X130978842Y-133799500D01*
X130821158Y-133799500D01*
X130821155Y-133799500D01*
X130666510Y-133830261D01*
X130666498Y-133830264D01*
X130520827Y-133890602D01*
X130520814Y-133890609D01*
X130389711Y-133978210D01*
X130389707Y-133978213D01*
X130278213Y-134089707D01*
X130278210Y-134089711D01*
X130190609Y-134220814D01*
X130190602Y-134220827D01*
X130130264Y-134366498D01*
X130130261Y-134366510D01*
X130099500Y-134521153D01*
X128345871Y-134521153D01*
X129131978Y-133735046D01*
X129193299Y-133701563D01*
X129195466Y-133701112D01*
X129266828Y-133686916D01*
X129391835Y-133662051D01*
X129573914Y-133586632D01*
X129573920Y-133586628D01*
X129740388Y-133475398D01*
X129807066Y-133454520D01*
X129809279Y-133454500D01*
X131936113Y-133454500D01*
X132003152Y-133474185D01*
X132023794Y-133490819D01*
X132257927Y-133724952D01*
X132284805Y-133765176D01*
X132290605Y-133779177D01*
X132290607Y-133779181D01*
X132378207Y-133910284D01*
X132378213Y-133910292D01*
X132489707Y-134021786D01*
X132489711Y-134021789D01*
X132620814Y-134109390D01*
X132620827Y-134109397D01*
X132750953Y-134163296D01*
X132766503Y-134169737D01*
X132921153Y-134200499D01*
X132921156Y-134200500D01*
X132921158Y-134200500D01*
X133078844Y-134200500D01*
X133078845Y-134200499D01*
X133233497Y-134169737D01*
X133379179Y-134109394D01*
X133510289Y-134021789D01*
X133621789Y-133910289D01*
X133709394Y-133779179D01*
X133769737Y-133633497D01*
X133800500Y-133478842D01*
X133800500Y-133321158D01*
X133800500Y-133321155D01*
X133800499Y-133321153D01*
X133786003Y-133248277D01*
X133769737Y-133166503D01*
X133742326Y-133100326D01*
X133709397Y-133020827D01*
X133709390Y-133020814D01*
X133621789Y-132889711D01*
X133621786Y-132889707D01*
X133510292Y-132778213D01*
X133510284Y-132778207D01*
X133379181Y-132690607D01*
X133379177Y-132690605D01*
X133365176Y-132684805D01*
X133358246Y-132680174D01*
X133353206Y-132679078D01*
X133324952Y-132657927D01*
X133148312Y-132481287D01*
X133066718Y-132399693D01*
X134779500Y-132399693D01*
X134779500Y-132557386D01*
X134810261Y-132712029D01*
X134810264Y-132712041D01*
X134870602Y-132857712D01*
X134870609Y-132857725D01*
X134958210Y-132988828D01*
X134958213Y-132988832D01*
X135069707Y-133100326D01*
X135069711Y-133100329D01*
X135200814Y-133187930D01*
X135200827Y-133187937D01*
X135346498Y-133248275D01*
X135346503Y-133248277D01*
X135501153Y-133279039D01*
X135501156Y-133279040D01*
X135501158Y-133279040D01*
X135658844Y-133279040D01*
X135658845Y-133279039D01*
X135813497Y-133248277D01*
X135959179Y-133187934D01*
X136090289Y-133100329D01*
X136201789Y-132988829D01*
X136289394Y-132857719D01*
X136349737Y-132712037D01*
X136380500Y-132557382D01*
X136380500Y-132399698D01*
X136380500Y-132399695D01*
X136380499Y-132399693D01*
X136363419Y-132313828D01*
X136349737Y-132245043D01*
X136320579Y-132174648D01*
X136289397Y-132099367D01*
X136289390Y-132099354D01*
X136201789Y-131968251D01*
X136201786Y-131968247D01*
X136090292Y-131856753D01*
X136090288Y-131856750D01*
X135959185Y-131769149D01*
X135959172Y-131769142D01*
X135813501Y-131708804D01*
X135813489Y-131708801D01*
X135658845Y-131678040D01*
X135658842Y-131678040D01*
X135501158Y-131678040D01*
X135501155Y-131678040D01*
X135346510Y-131708801D01*
X135346498Y-131708804D01*
X135200827Y-131769142D01*
X135200814Y-131769149D01*
X135069711Y-131856750D01*
X135069707Y-131856753D01*
X134958213Y-131968247D01*
X134958210Y-131968251D01*
X134870609Y-132099354D01*
X134870602Y-132099367D01*
X134810264Y-132245038D01*
X134810261Y-132245050D01*
X134779500Y-132399693D01*
X133066718Y-132399693D01*
X132780969Y-132113943D01*
X132780968Y-132113942D01*
X132739773Y-132086417D01*
X132657389Y-132031370D01*
X132657386Y-132031368D01*
X132657385Y-132031368D01*
X132576955Y-131998053D01*
X132520080Y-131974495D01*
X132495894Y-131969684D01*
X132488670Y-131968247D01*
X132374314Y-131945499D01*
X132374312Y-131945499D01*
X132225688Y-131945499D01*
X132219574Y-131945499D01*
X132219554Y-131945500D01*
X129809279Y-131945500D01*
X129742240Y-131925815D01*
X129740388Y-131924602D01*
X129573920Y-131813371D01*
X129573907Y-131813364D01*
X129391839Y-131737950D01*
X129391829Y-131737947D01*
X129198543Y-131699500D01*
X129198541Y-131699500D01*
X129001459Y-131699500D01*
X129001457Y-131699500D01*
X128808170Y-131737947D01*
X128808160Y-131737950D01*
X128626092Y-131813364D01*
X128626079Y-131813371D01*
X128462218Y-131922860D01*
X128462214Y-131922863D01*
X128322863Y-132062214D01*
X128322860Y-132062218D01*
X128213371Y-132226079D01*
X128213364Y-132226092D01*
X128137950Y-132408160D01*
X128137947Y-132408170D01*
X128098887Y-132604534D01*
X128066502Y-132666445D01*
X128064951Y-132668023D01*
X118423794Y-142309181D01*
X118362471Y-142342666D01*
X118336113Y-142345500D01*
X84317273Y-142345500D01*
X84250234Y-142325815D01*
X84204479Y-142273011D01*
X84194535Y-142203853D01*
X84223560Y-142140297D01*
X84255270Y-142114114D01*
X84344208Y-142062767D01*
X84539256Y-141913101D01*
X84713101Y-141739256D01*
X84862767Y-141544208D01*
X84985694Y-141331292D01*
X85079778Y-141104153D01*
X85143409Y-140866677D01*
X85175500Y-140622927D01*
X85175500Y-140377073D01*
X85143409Y-140133323D01*
X85079778Y-139895847D01*
X84985694Y-139668708D01*
X84862767Y-139455792D01*
X84713101Y-139260744D01*
X84713096Y-139260738D01*
X84539261Y-139086903D01*
X84539254Y-139086897D01*
X84344212Y-138937236D01*
X84344211Y-138937235D01*
X84344208Y-138937233D01*
X84131292Y-138814306D01*
X84131285Y-138814303D01*
X83904162Y-138720225D01*
X83904155Y-138720223D01*
X83904153Y-138720222D01*
X83666677Y-138656591D01*
X83625939Y-138651227D01*
X83422934Y-138624500D01*
X83422927Y-138624500D01*
X83177073Y-138624500D01*
X83177065Y-138624500D01*
X82945059Y-138655045D01*
X82933323Y-138656591D01*
X82848310Y-138679370D01*
X82695847Y-138720222D01*
X82695837Y-138720225D01*
X82468714Y-138814303D01*
X82468705Y-138814307D01*
X82255787Y-138937236D01*
X82060745Y-139086897D01*
X82060738Y-139086903D01*
X81886903Y-139260738D01*
X81886897Y-139260745D01*
X81737236Y-139455787D01*
X81614307Y-139668705D01*
X81614303Y-139668714D01*
X81520225Y-139895837D01*
X81520222Y-139895847D01*
X81456592Y-140133320D01*
X81456590Y-140133331D01*
X81424500Y-140377065D01*
X81424500Y-140622934D01*
X81451227Y-140825939D01*
X81456591Y-140866677D01*
X81456592Y-140866679D01*
X81520222Y-141104152D01*
X81520225Y-141104162D01*
X81614303Y-141331285D01*
X81614306Y-141331292D01*
X81737233Y-141544208D01*
X81737235Y-141544211D01*
X81737236Y-141544212D01*
X81886897Y-141739254D01*
X81886903Y-141739261D01*
X82060738Y-141913096D01*
X82060744Y-141913101D01*
X82255792Y-142062767D01*
X82344728Y-142114114D01*
X82392943Y-142164680D01*
X82406166Y-142233287D01*
X82380198Y-142298152D01*
X82323283Y-142338680D01*
X82282727Y-142345500D01*
X77563886Y-142345500D01*
X77496847Y-142325815D01*
X77476205Y-142309181D01*
X74568051Y-139401027D01*
X74534566Y-139339704D01*
X74539550Y-139270012D01*
X74581422Y-139214079D01*
X74636330Y-139190874D01*
X74706826Y-139179709D01*
X74894025Y-139118884D01*
X75069405Y-139029524D01*
X75228646Y-138913828D01*
X75342319Y-138800155D01*
X75403642Y-138766670D01*
X75473334Y-138771654D01*
X75517681Y-138800155D01*
X75631354Y-138913828D01*
X75790595Y-139029524D01*
X75865214Y-139067544D01*
X75965970Y-139118882D01*
X75965972Y-139118882D01*
X75965975Y-139118884D01*
X76066317Y-139151487D01*
X76153173Y-139179709D01*
X76347578Y-139210500D01*
X76347583Y-139210500D01*
X76544422Y-139210500D01*
X76738826Y-139179709D01*
X76818574Y-139153797D01*
X76926025Y-139118884D01*
X77101405Y-139029524D01*
X77260646Y-138913828D01*
X77399828Y-138774646D01*
X77515524Y-138615405D01*
X77554898Y-138538126D01*
X77577698Y-138506747D01*
X78039944Y-138044501D01*
X78063326Y-138131764D01*
X78121911Y-138233236D01*
X78204764Y-138316089D01*
X78306236Y-138374674D01*
X78393496Y-138398055D01*
X77787873Y-139003677D01*
X77787873Y-139003678D01*
X77822858Y-139029096D01*
X77998164Y-139118418D01*
X78185294Y-139179221D01*
X78379618Y-139210000D01*
X78576382Y-139210000D01*
X78770705Y-139179221D01*
X78957835Y-139118418D01*
X79133147Y-139029093D01*
X79190040Y-138987758D01*
X79255846Y-138964277D01*
X79323900Y-138980102D01*
X79362192Y-139013763D01*
X79402455Y-139067547D01*
X79517664Y-139153793D01*
X79517671Y-139153797D01*
X79652517Y-139204091D01*
X79652516Y-139204091D01*
X79659444Y-139204835D01*
X79712127Y-139210500D01*
X81307872Y-139210499D01*
X81367483Y-139204091D01*
X81502331Y-139153796D01*
X81617546Y-139067546D01*
X81703796Y-138952331D01*
X81754091Y-138817483D01*
X81760500Y-138757873D01*
X81760499Y-137934791D01*
X81760499Y-137162129D01*
X81760498Y-137162123D01*
X81758906Y-137147316D01*
X81754091Y-137102517D01*
X81718157Y-137006172D01*
X81707875Y-136978603D01*
X81707874Y-136978602D01*
X81703798Y-136967674D01*
X81703793Y-136967664D01*
X81683190Y-136940142D01*
X83430000Y-136940142D01*
X83430000Y-137199857D01*
X83470629Y-137456377D01*
X83550883Y-137703377D01*
X83668796Y-137934791D01*
X83749951Y-138046492D01*
X83749952Y-138046493D01*
X84375633Y-137420812D01*
X84384342Y-137441837D01*
X84470251Y-137570408D01*
X84579592Y-137679749D01*
X84708163Y-137765658D01*
X84729186Y-137774366D01*
X84103505Y-138400046D01*
X84103506Y-138400048D01*
X84215208Y-138481203D01*
X84446622Y-138599116D01*
X84693622Y-138679370D01*
X84950143Y-138720000D01*
X85209857Y-138720000D01*
X85466377Y-138679370D01*
X85713377Y-138599116D01*
X85944788Y-138481205D01*
X86056492Y-138400046D01*
X86056493Y-138400046D01*
X85430812Y-137774366D01*
X85451837Y-137765658D01*
X85580408Y-137679749D01*
X85689749Y-137570408D01*
X85775658Y-137441837D01*
X85784366Y-137420812D01*
X86410046Y-138046493D01*
X86410046Y-138046492D01*
X86491205Y-137934788D01*
X86609116Y-137703377D01*
X86689370Y-137456377D01*
X86730000Y-137199857D01*
X86730000Y-136940142D01*
X86689370Y-136683622D01*
X86609116Y-136436622D01*
X86491203Y-136205208D01*
X86410048Y-136093506D01*
X86410046Y-136093505D01*
X85784366Y-136719186D01*
X85775658Y-136698163D01*
X85689749Y-136569592D01*
X85580408Y-136460251D01*
X85451837Y-136374342D01*
X85430812Y-136365633D01*
X86056493Y-135739952D01*
X86056492Y-135739951D01*
X85944791Y-135658796D01*
X85713377Y-135540883D01*
X85466377Y-135460629D01*
X85209857Y-135420000D01*
X84950143Y-135420000D01*
X84693622Y-135460629D01*
X84446622Y-135540883D01*
X84215215Y-135658792D01*
X84103506Y-135739952D01*
X84729187Y-136365633D01*
X84708163Y-136374342D01*
X84579592Y-136460251D01*
X84470251Y-136569592D01*
X84384342Y-136698163D01*
X84375633Y-136719187D01*
X83749952Y-136093506D01*
X83668792Y-136205215D01*
X83550883Y-136436622D01*
X83470629Y-136683622D01*
X83430000Y-136940142D01*
X81683190Y-136940142D01*
X81617547Y-136852455D01*
X81617544Y-136852452D01*
X81502335Y-136766206D01*
X81502328Y-136766202D01*
X81367482Y-136715908D01*
X81367483Y-136715908D01*
X81307883Y-136709501D01*
X81307881Y-136709500D01*
X81307873Y-136709500D01*
X81307865Y-136709500D01*
X80807480Y-136709500D01*
X80740441Y-136689815D01*
X80694686Y-136637011D01*
X80684742Y-136567853D01*
X80689549Y-136547181D01*
X80713709Y-136472826D01*
X80744500Y-136278422D01*
X80744500Y-136081577D01*
X80726586Y-135968483D01*
X80713709Y-135887174D01*
X80713708Y-135887170D01*
X80713708Y-135887169D01*
X80693680Y-135825529D01*
X80652882Y-135699970D01*
X80563523Y-135524594D01*
X80538232Y-135489784D01*
X80447828Y-135365354D01*
X80308646Y-135226172D01*
X80149405Y-135110476D01*
X80149036Y-135110288D01*
X79974029Y-135021117D01*
X79786826Y-134960290D01*
X79592422Y-134929500D01*
X79592417Y-134929500D01*
X79541491Y-134929500D01*
X79474452Y-134909815D01*
X79453810Y-134893181D01*
X78723927Y-134163296D01*
X78723926Y-134163295D01*
X78579543Y-134066822D01*
X78419128Y-134000377D01*
X78419118Y-134000374D01*
X78248823Y-133966500D01*
X78248821Y-133966500D01*
X78248820Y-133966500D01*
X72933088Y-133966500D01*
X72759446Y-133966500D01*
X72759444Y-133966500D01*
X72589148Y-134000374D01*
X72589138Y-134000377D01*
X72428723Y-134066822D01*
X72284340Y-134163295D01*
X71115298Y-135332337D01*
X71115292Y-135332344D01*
X71044352Y-135438515D01*
X71044349Y-135438520D01*
X71039631Y-135445582D01*
X71018825Y-135476720D01*
X70978574Y-135573893D01*
X70976955Y-135577227D01*
X70955836Y-135600454D01*
X70936143Y-135624892D01*
X70932520Y-135626097D01*
X70929952Y-135628923D01*
X70899624Y-135637046D01*
X70869848Y-135646957D01*
X70866149Y-135646013D01*
X70862461Y-135647001D01*
X70832567Y-135637441D01*
X70802149Y-135629678D01*
X70797853Y-135626341D01*
X70795911Y-135625720D01*
X70793866Y-135623243D01*
X70777742Y-135610717D01*
X69390819Y-134223794D01*
X69357334Y-134162471D01*
X69354500Y-134136113D01*
X69354500Y-132591063D01*
X69374185Y-132524024D01*
X69426989Y-132478269D01*
X69496147Y-132468325D01*
X69534795Y-132480578D01*
X69609970Y-132518882D01*
X69609972Y-132518882D01*
X69609975Y-132518884D01*
X69710317Y-132551487D01*
X69797173Y-132579709D01*
X69991578Y-132610500D01*
X69991583Y-132610500D01*
X70188422Y-132610500D01*
X70382826Y-132579709D01*
X70384328Y-132579221D01*
X70570025Y-132518884D01*
X70745405Y-132429524D01*
X70904646Y-132313828D01*
X71043828Y-132174646D01*
X71134991Y-132049170D01*
X71190320Y-132006506D01*
X71259933Y-132000527D01*
X71321728Y-132033133D01*
X71335627Y-132049172D01*
X71336320Y-132050125D01*
X71941944Y-131444501D01*
X71965326Y-131531764D01*
X72023911Y-131633236D01*
X72106764Y-131716089D01*
X72208236Y-131774674D01*
X72295497Y-131798055D01*
X71689873Y-132403677D01*
X71689873Y-132403678D01*
X71724858Y-132429096D01*
X71900164Y-132518418D01*
X72087294Y-132579221D01*
X72281618Y-132610000D01*
X72478382Y-132610000D01*
X72672705Y-132579221D01*
X72859835Y-132518418D01*
X73035143Y-132429095D01*
X73070125Y-132403678D01*
X73070126Y-132403678D01*
X72464503Y-131798055D01*
X72551764Y-131774674D01*
X72653236Y-131716089D01*
X72736089Y-131633236D01*
X72794674Y-131531764D01*
X72818055Y-131444502D01*
X73423678Y-132050126D01*
X73423678Y-132050125D01*
X73449095Y-132015143D01*
X73538418Y-131839835D01*
X73599221Y-131652705D01*
X73630000Y-131458382D01*
X73630000Y-131261617D01*
X73629994Y-131261577D01*
X80269500Y-131261577D01*
X80269500Y-131458422D01*
X80300290Y-131652826D01*
X80361117Y-131840029D01*
X80429631Y-131974495D01*
X80450476Y-132015405D01*
X80566172Y-132174646D01*
X80705354Y-132313828D01*
X80864595Y-132429524D01*
X80940747Y-132468325D01*
X81039970Y-132518882D01*
X81039972Y-132518882D01*
X81039975Y-132518884D01*
X81140317Y-132551487D01*
X81227173Y-132579709D01*
X81421578Y-132610500D01*
X81421583Y-132610500D01*
X81618422Y-132610500D01*
X81812826Y-132579709D01*
X81814328Y-132579221D01*
X82000025Y-132518884D01*
X82175405Y-132429524D01*
X82334646Y-132313828D01*
X82473828Y-132174646D01*
X82564991Y-132049170D01*
X82620320Y-132006506D01*
X82689933Y-132000527D01*
X82751728Y-132033133D01*
X82765627Y-132049172D01*
X82766320Y-132050125D01*
X83371944Y-131444501D01*
X83395326Y-131531764D01*
X83453911Y-131633236D01*
X83536764Y-131716089D01*
X83638236Y-131774674D01*
X83725497Y-131798055D01*
X83119873Y-132403677D01*
X83119873Y-132403678D01*
X83154858Y-132429096D01*
X83330164Y-132518418D01*
X83517294Y-132579221D01*
X83711618Y-132610000D01*
X83908382Y-132610000D01*
X84102705Y-132579221D01*
X84289835Y-132518418D01*
X84465143Y-132429095D01*
X84500125Y-132403678D01*
X84500126Y-132403678D01*
X83894503Y-131798055D01*
X83981764Y-131774674D01*
X84083236Y-131716089D01*
X84166089Y-131633236D01*
X84224674Y-131531764D01*
X84248055Y-131444502D01*
X84853678Y-132050126D01*
X84853678Y-132050125D01*
X84879095Y-132015143D01*
X84968418Y-131839835D01*
X85029221Y-131652705D01*
X85060000Y-131458382D01*
X85060000Y-131261617D01*
X85029221Y-131067294D01*
X84968418Y-130880164D01*
X84879096Y-130704858D01*
X84853678Y-130669873D01*
X84853677Y-130669873D01*
X84248055Y-131275496D01*
X84224674Y-131188236D01*
X84166089Y-131086764D01*
X84083236Y-131003911D01*
X83981764Y-130945326D01*
X83894502Y-130921944D01*
X84500125Y-130316320D01*
X84500125Y-130316319D01*
X84465145Y-130290905D01*
X84289835Y-130201581D01*
X84102705Y-130140778D01*
X83908382Y-130110000D01*
X83711618Y-130110000D01*
X83517294Y-130140778D01*
X83330161Y-130201582D01*
X83154863Y-130290899D01*
X83154859Y-130290902D01*
X83119873Y-130316320D01*
X83119872Y-130316320D01*
X83725498Y-130921944D01*
X83638236Y-130945326D01*
X83536764Y-131003911D01*
X83453911Y-131086764D01*
X83395326Y-131188236D01*
X83371944Y-131275497D01*
X82766320Y-130669872D01*
X82766318Y-130669873D01*
X82765627Y-130670825D01*
X82710297Y-130713492D01*
X82640684Y-130719472D01*
X82578889Y-130686866D01*
X82564990Y-130670827D01*
X82561145Y-130665536D01*
X82473828Y-130545354D01*
X82334646Y-130406172D01*
X82175405Y-130290476D01*
X82000029Y-130201117D01*
X81812826Y-130140290D01*
X81618422Y-130109500D01*
X81618417Y-130109500D01*
X81421583Y-130109500D01*
X81421578Y-130109500D01*
X81227173Y-130140290D01*
X81039970Y-130201117D01*
X80864594Y-130290476D01*
X80784501Y-130348668D01*
X80705354Y-130406172D01*
X80705352Y-130406174D01*
X80705351Y-130406174D01*
X80566174Y-130545351D01*
X80566174Y-130545352D01*
X80566172Y-130545354D01*
X80516485Y-130613741D01*
X80450476Y-130704594D01*
X80361117Y-130879970D01*
X80300290Y-131067173D01*
X80269500Y-131261577D01*
X73629994Y-131261577D01*
X73599221Y-131067294D01*
X73538418Y-130880164D01*
X73449096Y-130704858D01*
X73423678Y-130669873D01*
X73423677Y-130669873D01*
X72818055Y-131275496D01*
X72794674Y-131188236D01*
X72736089Y-131086764D01*
X72653236Y-131003911D01*
X72551764Y-130945326D01*
X72464502Y-130921944D01*
X73070125Y-130316320D01*
X73070125Y-130316319D01*
X73035145Y-130290905D01*
X72859835Y-130201581D01*
X72672705Y-130140778D01*
X72478382Y-130110000D01*
X72281618Y-130110000D01*
X72087294Y-130140778D01*
X71900161Y-130201582D01*
X71724863Y-130290899D01*
X71724859Y-130290902D01*
X71689873Y-130316320D01*
X71689872Y-130316320D01*
X72295498Y-130921944D01*
X72208236Y-130945326D01*
X72106764Y-131003911D01*
X72023911Y-131086764D01*
X71965326Y-131188236D01*
X71941944Y-131275497D01*
X71336320Y-130669872D01*
X71336318Y-130669873D01*
X71335627Y-130670825D01*
X71280297Y-130713492D01*
X71210684Y-130719472D01*
X71148889Y-130686866D01*
X71134990Y-130670827D01*
X71131145Y-130665536D01*
X71043828Y-130545354D01*
X70904646Y-130406172D01*
X70745405Y-130290476D01*
X70570029Y-130201117D01*
X70382826Y-130140290D01*
X70188422Y-130109500D01*
X70188417Y-130109500D01*
X69991583Y-130109500D01*
X69991578Y-130109500D01*
X69797173Y-130140290D01*
X69609970Y-130201117D01*
X69534795Y-130239422D01*
X69466126Y-130252318D01*
X69401385Y-130226042D01*
X69361128Y-130168935D01*
X69354500Y-130128937D01*
X69354500Y-129550687D01*
X69354499Y-129550683D01*
X69351081Y-129533501D01*
X69325505Y-129404920D01*
X69268629Y-129267610D01*
X69186059Y-129144034D01*
X69186054Y-129144028D01*
X69076647Y-129034621D01*
X69076624Y-129034600D01*
X69017072Y-128975048D01*
X68990190Y-128934815D01*
X68984394Y-128920822D01*
X68984393Y-128920820D01*
X68896789Y-128789710D01*
X68785292Y-128678213D01*
X68785288Y-128678210D01*
X68654185Y-128590609D01*
X68654172Y-128590602D01*
X68508501Y-128530264D01*
X68508489Y-128530261D01*
X68353845Y-128499500D01*
X68353842Y-128499500D01*
X68196158Y-128499500D01*
X68196155Y-128499500D01*
X68041510Y-128530261D01*
X68041498Y-128530264D01*
X67895827Y-128590602D01*
X67895814Y-128590609D01*
X67764711Y-128678210D01*
X67764707Y-128678213D01*
X67653213Y-128789707D01*
X67653210Y-128789711D01*
X67565609Y-128920814D01*
X67565602Y-128920827D01*
X67505264Y-129066498D01*
X67505261Y-129066510D01*
X67474500Y-129221153D01*
X67474500Y-129378846D01*
X67505261Y-129533489D01*
X67505264Y-129533501D01*
X67565602Y-129679172D01*
X67565609Y-129679185D01*
X67653210Y-129810288D01*
X67653213Y-129810292D01*
X67764705Y-129921784D01*
X67764708Y-129921786D01*
X67764711Y-129921789D01*
X67790391Y-129938948D01*
X67835195Y-129992558D01*
X67845500Y-130042049D01*
X67845500Y-134420552D01*
X67845499Y-134420578D01*
X67845499Y-134425688D01*
X67845499Y-134574312D01*
X67845499Y-134574314D01*
X67845498Y-134574314D01*
X67874493Y-134720073D01*
X67874496Y-134720083D01*
X67931366Y-134857381D01*
X67931372Y-134857392D01*
X68013942Y-134980968D01*
X68013943Y-134980969D01*
X68335811Y-135302836D01*
X68369296Y-135364159D01*
X68364312Y-135433850D01*
X68322441Y-135489784D01*
X68286448Y-135508448D01*
X68186623Y-135540883D01*
X67955215Y-135658792D01*
X67843506Y-135739952D01*
X68469187Y-136365633D01*
X68448163Y-136374342D01*
X68319592Y-136460251D01*
X68210251Y-136569592D01*
X68124342Y-136698163D01*
X68115633Y-136719187D01*
X67489952Y-136093506D01*
X67408792Y-136205215D01*
X67290883Y-136436622D01*
X67210629Y-136683622D01*
X67170000Y-136940142D01*
X57375500Y-136940142D01*
X57375500Y-127221153D01*
X134999500Y-127221153D01*
X134999500Y-127378846D01*
X135030261Y-127533489D01*
X135030264Y-127533501D01*
X135090602Y-127679172D01*
X135090609Y-127679185D01*
X135178210Y-127810288D01*
X135178213Y-127810292D01*
X135289707Y-127921786D01*
X135289711Y-127921789D01*
X135420814Y-128009390D01*
X135420827Y-128009397D01*
X135566498Y-128069735D01*
X135566503Y-128069737D01*
X135721153Y-128100499D01*
X135721156Y-128100500D01*
X135721158Y-128100500D01*
X135878844Y-128100500D01*
X135878845Y-128100499D01*
X136033497Y-128069737D01*
X136179179Y-128009394D01*
X136310289Y-127921789D01*
X136421789Y-127810289D01*
X136509394Y-127679179D01*
X136569737Y-127533497D01*
X136600500Y-127378842D01*
X136600500Y-127221158D01*
X136600500Y-127221155D01*
X136600499Y-127221153D01*
X136569738Y-127066510D01*
X136569737Y-127066503D01*
X136569735Y-127066498D01*
X136509397Y-126920827D01*
X136509390Y-126920814D01*
X136421789Y-126789711D01*
X136421786Y-126789707D01*
X136310292Y-126678213D01*
X136310288Y-126678210D01*
X136179185Y-126590609D01*
X136179172Y-126590602D01*
X136033501Y-126530264D01*
X136033489Y-126530261D01*
X135878845Y-126499500D01*
X135878842Y-126499500D01*
X135721158Y-126499500D01*
X135721155Y-126499500D01*
X135566510Y-126530261D01*
X135566498Y-126530264D01*
X135420827Y-126590602D01*
X135420814Y-126590609D01*
X135289711Y-126678210D01*
X135289707Y-126678213D01*
X135178213Y-126789707D01*
X135178210Y-126789711D01*
X135090609Y-126920814D01*
X135090602Y-126920827D01*
X135030264Y-127066498D01*
X135030261Y-127066510D01*
X134999500Y-127221153D01*
X57375500Y-127221153D01*
X57375500Y-125921153D01*
X79199500Y-125921153D01*
X79199500Y-126078846D01*
X79230261Y-126233489D01*
X79230264Y-126233501D01*
X79290602Y-126379172D01*
X79290609Y-126379185D01*
X79378210Y-126510288D01*
X79378213Y-126510292D01*
X79489707Y-126621786D01*
X79489711Y-126621789D01*
X79620814Y-126709390D01*
X79620827Y-126709397D01*
X79766498Y-126769735D01*
X79766503Y-126769737D01*
X79921153Y-126800499D01*
X79921156Y-126800500D01*
X79921158Y-126800500D01*
X80078844Y-126800500D01*
X80078845Y-126800499D01*
X80233497Y-126769737D01*
X80379179Y-126709394D01*
X80510289Y-126621789D01*
X80621789Y-126510289D01*
X80709394Y-126379179D01*
X80769737Y-126233497D01*
X80800500Y-126078842D01*
X80800500Y-125921158D01*
X80800500Y-125921155D01*
X80800499Y-125921153D01*
X80769738Y-125766510D01*
X80769737Y-125766503D01*
X80769735Y-125766498D01*
X80709397Y-125620827D01*
X80709390Y-125620814D01*
X80621789Y-125489711D01*
X80621786Y-125489707D01*
X80510292Y-125378213D01*
X80510288Y-125378210D01*
X80379185Y-125290609D01*
X80379172Y-125290602D01*
X80233501Y-125230264D01*
X80233489Y-125230261D01*
X80078845Y-125199500D01*
X80078842Y-125199500D01*
X79921158Y-125199500D01*
X79921155Y-125199500D01*
X79766510Y-125230261D01*
X79766498Y-125230264D01*
X79620827Y-125290602D01*
X79620814Y-125290609D01*
X79489711Y-125378210D01*
X79489707Y-125378213D01*
X79378213Y-125489707D01*
X79378210Y-125489711D01*
X79290609Y-125620814D01*
X79290602Y-125620827D01*
X79230264Y-125766498D01*
X79230261Y-125766510D01*
X79199500Y-125921153D01*
X57375500Y-125921153D01*
X57375500Y-123721153D01*
X81699500Y-123721153D01*
X81699500Y-123878846D01*
X81730261Y-124033489D01*
X81730264Y-124033501D01*
X81790602Y-124179172D01*
X81790609Y-124179185D01*
X81878210Y-124310288D01*
X81878213Y-124310292D01*
X81989707Y-124421786D01*
X81989711Y-124421789D01*
X82120814Y-124509390D01*
X82120827Y-124509397D01*
X82266498Y-124569735D01*
X82266503Y-124569737D01*
X82421153Y-124600499D01*
X82421156Y-124600500D01*
X82421158Y-124600500D01*
X82578844Y-124600500D01*
X82578845Y-124600499D01*
X82733497Y-124569737D01*
X82879179Y-124509394D01*
X83010289Y-124421789D01*
X83121789Y-124310289D01*
X83209394Y-124179179D01*
X83223378Y-124145418D01*
X84193433Y-124145418D01*
X84193433Y-124303111D01*
X84224194Y-124457754D01*
X84224197Y-124457766D01*
X84284535Y-124603437D01*
X84284542Y-124603450D01*
X84372143Y-124734553D01*
X84372146Y-124734557D01*
X84483640Y-124846051D01*
X84483644Y-124846054D01*
X84614747Y-124933655D01*
X84614760Y-124933662D01*
X84760431Y-124994000D01*
X84760436Y-124994002D01*
X84915086Y-125024764D01*
X84915089Y-125024765D01*
X84915091Y-125024765D01*
X85072777Y-125024765D01*
X85072778Y-125024764D01*
X85227430Y-124994002D01*
X85373112Y-124933659D01*
X85373118Y-124933655D01*
X85504808Y-124845663D01*
X85571486Y-124824785D01*
X85573699Y-124824765D01*
X86789066Y-124824765D01*
X86789082Y-124824766D01*
X86796678Y-124824766D01*
X86954789Y-124824766D01*
X86954792Y-124824766D01*
X87107520Y-124783842D01*
X87157639Y-124754904D01*
X87223134Y-124717091D01*
X87272985Y-124701076D01*
X87278832Y-124700500D01*
X87278842Y-124700500D01*
X87433497Y-124669737D01*
X87579179Y-124609394D01*
X87710289Y-124521789D01*
X87821789Y-124410289D01*
X87909394Y-124279179D01*
X87913880Y-124268350D01*
X87949569Y-124182187D01*
X87969737Y-124133497D01*
X88000500Y-123978842D01*
X88000500Y-123872844D01*
X132425000Y-123872844D01*
X132431401Y-123932372D01*
X132431403Y-123932379D01*
X132481645Y-124067086D01*
X132481649Y-124067093D01*
X132567809Y-124182187D01*
X132567812Y-124182190D01*
X132682906Y-124268350D01*
X132682913Y-124268354D01*
X132817620Y-124318596D01*
X132817627Y-124318598D01*
X132877155Y-124324999D01*
X132877172Y-124325000D01*
X134925000Y-124325000D01*
X134925000Y-123753553D01*
X134824999Y-123653552D01*
X135425000Y-123653552D01*
X135425000Y-124325000D01*
X137472828Y-124325000D01*
X137472844Y-124324999D01*
X137532372Y-124318598D01*
X137532379Y-124318596D01*
X137667086Y-124268354D01*
X137667093Y-124268350D01*
X137782187Y-124182190D01*
X137782190Y-124182187D01*
X137868350Y-124067093D01*
X137868354Y-124067086D01*
X137918596Y-123932379D01*
X137918598Y-123932372D01*
X137924999Y-123872844D01*
X137925000Y-123872827D01*
X137925000Y-122600000D01*
X137678552Y-122600000D01*
X137151777Y-123126777D01*
X136581848Y-123696704D01*
X136520525Y-123730189D01*
X136494167Y-123733023D01*
X136255832Y-123733023D01*
X136234586Y-123726784D01*
X136212498Y-123725205D01*
X136198441Y-123716171D01*
X136188793Y-123713338D01*
X136182207Y-123705737D01*
X136168151Y-123696704D01*
X135775000Y-123303553D01*
X135425000Y-123653552D01*
X134824999Y-123653552D01*
X134475000Y-123303553D01*
X134081848Y-123696704D01*
X134020525Y-123730189D01*
X133994167Y-123733023D01*
X133855832Y-123733023D01*
X133834586Y-123726784D01*
X133812498Y-123725205D01*
X133798441Y-123716171D01*
X133788793Y-123713338D01*
X133782207Y-123705737D01*
X133768151Y-123696704D01*
X133198223Y-123126777D01*
X133057765Y-122986319D01*
X132991609Y-122920163D01*
X133225000Y-122920163D01*
X133225000Y-122979837D01*
X133247836Y-123034968D01*
X133290032Y-123077164D01*
X133345163Y-123100000D01*
X133404837Y-123100000D01*
X133459968Y-123077164D01*
X133502164Y-123034968D01*
X133525000Y-122979837D01*
X133525000Y-122949999D01*
X133728553Y-122949999D01*
X133925000Y-123146446D01*
X134121446Y-122950001D01*
X134121446Y-122950000D01*
X134091609Y-122920163D01*
X134325000Y-122920163D01*
X134325000Y-122979837D01*
X134347836Y-123034968D01*
X134390032Y-123077164D01*
X134445163Y-123100000D01*
X134504837Y-123100000D01*
X134559968Y-123077164D01*
X134602164Y-123034968D01*
X134625000Y-122979837D01*
X134625000Y-122949999D01*
X134828553Y-122949999D01*
X134925000Y-123046445D01*
X134925000Y-122920163D01*
X135625000Y-122920163D01*
X135625000Y-122979837D01*
X135647836Y-123034968D01*
X135690032Y-123077164D01*
X135745163Y-123100000D01*
X135804837Y-123100000D01*
X135859968Y-123077164D01*
X135902164Y-123034968D01*
X135925000Y-122979837D01*
X135925000Y-122949999D01*
X136128553Y-122949999D01*
X136375000Y-123196446D01*
X136621446Y-122950001D01*
X136621446Y-122950000D01*
X136591609Y-122920163D01*
X136825000Y-122920163D01*
X136825000Y-122979837D01*
X136847836Y-123034968D01*
X136890032Y-123077164D01*
X136945163Y-123100000D01*
X137004837Y-123100000D01*
X137059968Y-123077164D01*
X137102164Y-123034968D01*
X137125000Y-122979837D01*
X137125000Y-122920163D01*
X137102164Y-122865032D01*
X137059968Y-122822836D01*
X137004837Y-122800000D01*
X136945163Y-122800000D01*
X136890032Y-122822836D01*
X136847836Y-122865032D01*
X136825000Y-122920163D01*
X136591609Y-122920163D01*
X136375000Y-122703553D01*
X136128553Y-122949999D01*
X135925000Y-122949999D01*
X135925000Y-122920163D01*
X135902164Y-122865032D01*
X135859968Y-122822836D01*
X135804837Y-122800000D01*
X135745163Y-122800000D01*
X135690032Y-122822836D01*
X135647836Y-122865032D01*
X135625000Y-122920163D01*
X134925000Y-122920163D01*
X134925000Y-122853553D01*
X134924999Y-122853552D01*
X134828553Y-122949999D01*
X134625000Y-122949999D01*
X134625000Y-122920163D01*
X134602164Y-122865032D01*
X134559968Y-122822836D01*
X134504837Y-122800000D01*
X134445163Y-122800000D01*
X134390032Y-122822836D01*
X134347836Y-122865032D01*
X134325000Y-122920163D01*
X134091609Y-122920163D01*
X133925000Y-122753553D01*
X133728553Y-122949999D01*
X133525000Y-122949999D01*
X133525000Y-122920163D01*
X133502164Y-122865032D01*
X133459968Y-122822836D01*
X133404837Y-122800000D01*
X133345163Y-122800000D01*
X133290032Y-122822836D01*
X133247836Y-122865032D01*
X133225000Y-122920163D01*
X132991609Y-122920163D01*
X132671447Y-122600000D01*
X132425000Y-122600000D01*
X132425000Y-123872844D01*
X88000500Y-123872844D01*
X88000500Y-123821158D01*
X88000500Y-123821155D01*
X88000499Y-123821153D01*
X87982405Y-123730189D01*
X87969737Y-123666503D01*
X87964373Y-123653552D01*
X87909397Y-123520827D01*
X87909390Y-123520814D01*
X87821789Y-123389711D01*
X87821786Y-123389707D01*
X87710292Y-123278213D01*
X87710288Y-123278210D01*
X87579185Y-123190609D01*
X87579172Y-123190602D01*
X87433501Y-123130264D01*
X87433489Y-123130261D01*
X87278845Y-123099500D01*
X87278842Y-123099500D01*
X87121158Y-123099500D01*
X87121155Y-123099500D01*
X86966510Y-123130261D01*
X86966498Y-123130264D01*
X86820827Y-123190602D01*
X86820814Y-123190609D01*
X86689711Y-123278210D01*
X86689707Y-123278213D01*
X86578210Y-123389710D01*
X86490609Y-123520815D01*
X86490604Y-123520825D01*
X86486392Y-123530994D01*
X86479672Y-123547216D01*
X86435834Y-123601620D01*
X86369540Y-123623686D01*
X86365112Y-123623765D01*
X85573699Y-123623765D01*
X85506660Y-123604080D01*
X85504808Y-123602867D01*
X85373118Y-123514874D01*
X85373105Y-123514867D01*
X85227434Y-123454529D01*
X85227422Y-123454526D01*
X85072778Y-123423765D01*
X85072775Y-123423765D01*
X84915091Y-123423765D01*
X84915088Y-123423765D01*
X84760443Y-123454526D01*
X84760431Y-123454529D01*
X84614760Y-123514867D01*
X84614747Y-123514874D01*
X84483644Y-123602475D01*
X84483640Y-123602478D01*
X84372146Y-123713972D01*
X84372143Y-123713976D01*
X84284542Y-123845079D01*
X84284535Y-123845092D01*
X84224197Y-123990763D01*
X84224194Y-123990775D01*
X84193433Y-124145418D01*
X83223378Y-124145418D01*
X83245555Y-124091879D01*
X83269735Y-124033501D01*
X83269737Y-124033497D01*
X83300500Y-123878842D01*
X83300500Y-123721158D01*
X83300500Y-123721155D01*
X83300499Y-123721153D01*
X83281111Y-123623686D01*
X83269737Y-123566503D01*
X83248352Y-123514874D01*
X83209397Y-123420827D01*
X83209390Y-123420814D01*
X83121789Y-123289711D01*
X83121786Y-123289707D01*
X83010292Y-123178213D01*
X83010288Y-123178210D01*
X82879185Y-123090609D01*
X82879172Y-123090602D01*
X82733501Y-123030264D01*
X82733489Y-123030261D01*
X82578845Y-122999500D01*
X82578842Y-122999500D01*
X82421158Y-122999500D01*
X82421155Y-122999500D01*
X82266510Y-123030261D01*
X82266498Y-123030264D01*
X82120827Y-123090602D01*
X82120814Y-123090609D01*
X81989711Y-123178210D01*
X81989707Y-123178213D01*
X81878213Y-123289707D01*
X81878210Y-123289711D01*
X81790609Y-123420814D01*
X81790602Y-123420827D01*
X81730264Y-123566498D01*
X81730261Y-123566510D01*
X81699500Y-123721153D01*
X57375500Y-123721153D01*
X57375500Y-114246153D01*
X67919500Y-114246153D01*
X67919500Y-114403846D01*
X67950261Y-114558489D01*
X67950264Y-114558501D01*
X68010602Y-114704172D01*
X68010609Y-114704185D01*
X68098210Y-114835288D01*
X68098213Y-114835292D01*
X68209707Y-114946786D01*
X68209711Y-114946789D01*
X68340814Y-115034390D01*
X68340827Y-115034397D01*
X68486498Y-115094735D01*
X68486503Y-115094737D01*
X68641153Y-115125499D01*
X68641156Y-115125500D01*
X68641158Y-115125500D01*
X68798844Y-115125500D01*
X68798845Y-115125499D01*
X68953497Y-115094737D01*
X69099179Y-115034394D01*
X69230289Y-114946789D01*
X69341789Y-114835289D01*
X69429394Y-114704179D01*
X69489737Y-114558497D01*
X69520500Y-114403842D01*
X69520500Y-114246158D01*
X69520500Y-114246155D01*
X69520499Y-114246153D01*
X69515994Y-114223506D01*
X69489737Y-114091503D01*
X69480721Y-114069737D01*
X69429397Y-113945827D01*
X69429390Y-113945814D01*
X69341789Y-113814711D01*
X69341786Y-113814707D01*
X69230292Y-113703213D01*
X69230288Y-113703210D01*
X69099185Y-113615609D01*
X69099172Y-113615602D01*
X68953501Y-113555264D01*
X68953489Y-113555261D01*
X68798845Y-113524500D01*
X68798842Y-113524500D01*
X68641158Y-113524500D01*
X68641155Y-113524500D01*
X68486510Y-113555261D01*
X68486498Y-113555264D01*
X68340827Y-113615602D01*
X68340814Y-113615609D01*
X68209711Y-113703210D01*
X68209707Y-113703213D01*
X68098213Y-113814707D01*
X68098210Y-113814711D01*
X68010609Y-113945814D01*
X68010602Y-113945827D01*
X67950264Y-114091498D01*
X67950261Y-114091510D01*
X67919500Y-114246153D01*
X57375500Y-114246153D01*
X57375500Y-100669743D01*
X67295000Y-100669743D01*
X67295000Y-100930256D01*
X67335751Y-101187547D01*
X67416252Y-101435304D01*
X67534515Y-101667405D01*
X67616372Y-101780073D01*
X68257113Y-101139331D01*
X68267635Y-101164732D01*
X68351902Y-101290847D01*
X68459153Y-101398098D01*
X68585268Y-101482365D01*
X68610666Y-101492885D01*
X67969924Y-102133626D01*
X67969925Y-102133627D01*
X68082587Y-102215480D01*
X68314695Y-102333747D01*
X68562452Y-102414248D01*
X68819744Y-102455000D01*
X69080256Y-102455000D01*
X69337547Y-102414248D01*
X69585304Y-102333747D01*
X69817409Y-102215482D01*
X69930073Y-102133626D01*
X69930074Y-102133626D01*
X69289333Y-101492885D01*
X69314732Y-101482365D01*
X69440847Y-101398098D01*
X69548098Y-101290847D01*
X69632365Y-101164732D01*
X69642885Y-101139333D01*
X70283626Y-101780074D01*
X70283626Y-101780073D01*
X70365482Y-101667409D01*
X70483747Y-101435304D01*
X70564248Y-101187547D01*
X70605000Y-100930256D01*
X70605000Y-100669743D01*
X70564248Y-100412452D01*
X70483747Y-100164695D01*
X70365480Y-99932587D01*
X70283627Y-99819925D01*
X70283626Y-99819924D01*
X69642885Y-100460665D01*
X69632365Y-100435268D01*
X69548098Y-100309153D01*
X69440847Y-100201902D01*
X69314732Y-100117635D01*
X69289331Y-100107113D01*
X69930073Y-99466372D01*
X69817405Y-99384515D01*
X69585304Y-99266252D01*
X69337547Y-99185751D01*
X69080256Y-99145000D01*
X68819744Y-99145000D01*
X68562452Y-99185751D01*
X68314695Y-99266252D01*
X68082594Y-99384515D01*
X67969925Y-99466372D01*
X68610667Y-100107114D01*
X68585268Y-100117635D01*
X68459153Y-100201902D01*
X68351902Y-100309153D01*
X68267635Y-100435268D01*
X68257114Y-100460667D01*
X67616372Y-99819925D01*
X67534515Y-99932594D01*
X67416252Y-100164695D01*
X67335751Y-100412452D01*
X67295000Y-100669743D01*
X57375500Y-100669743D01*
X57375500Y-81221153D01*
X64899500Y-81221153D01*
X64899500Y-81378846D01*
X64930261Y-81533489D01*
X64930264Y-81533501D01*
X64990602Y-81679172D01*
X64990609Y-81679185D01*
X65078210Y-81810288D01*
X65078213Y-81810292D01*
X65189707Y-81921786D01*
X65189711Y-81921789D01*
X65320814Y-82009390D01*
X65320827Y-82009397D01*
X65466498Y-82069735D01*
X65466503Y-82069737D01*
X65621153Y-82100499D01*
X65621156Y-82100500D01*
X65621158Y-82100500D01*
X65778844Y-82100500D01*
X65881449Y-82080090D01*
X65951041Y-82086317D01*
X66006218Y-82129180D01*
X66029463Y-82195069D01*
X66016126Y-82258001D01*
X65980592Y-82327739D01*
X65927085Y-82492415D01*
X65900000Y-82663428D01*
X65900000Y-82836571D01*
X65927085Y-83007584D01*
X65980591Y-83172257D01*
X66059198Y-83326528D01*
X66131968Y-83426689D01*
X66155448Y-83492496D01*
X66139622Y-83560549D01*
X66131968Y-83572459D01*
X66058770Y-83673207D01*
X65980128Y-83827552D01*
X65926597Y-83992302D01*
X65903142Y-84140392D01*
X65899500Y-84163389D01*
X65899500Y-84336611D01*
X65926598Y-84507701D01*
X65980127Y-84672445D01*
X66058767Y-84826787D01*
X66058770Y-84826791D01*
X66131659Y-84927115D01*
X66155139Y-84992921D01*
X66139313Y-85060975D01*
X66131659Y-85072885D01*
X66058770Y-85173208D01*
X65980128Y-85327552D01*
X65926597Y-85492302D01*
X65899500Y-85663389D01*
X65899500Y-85836610D01*
X65926597Y-86007697D01*
X65980128Y-86172447D01*
X66058770Y-86326791D01*
X66131659Y-86427115D01*
X66155139Y-86492921D01*
X66139313Y-86560975D01*
X66131659Y-86572885D01*
X66058770Y-86673208D01*
X65980128Y-86827552D01*
X65926597Y-86992302D01*
X65899500Y-87163389D01*
X65899500Y-87336610D01*
X65923542Y-87488411D01*
X65926598Y-87507701D01*
X65980127Y-87672445D01*
X66049279Y-87808165D01*
X66058770Y-87826791D01*
X66131659Y-87927115D01*
X66155139Y-87992921D01*
X66139313Y-88060975D01*
X66131659Y-88072885D01*
X66058770Y-88173208D01*
X65980128Y-88327552D01*
X65926597Y-88492302D01*
X65902750Y-88642871D01*
X65899500Y-88663389D01*
X65899500Y-88836611D01*
X65926598Y-89007701D01*
X65980127Y-89172445D01*
X66055899Y-89321158D01*
X66058770Y-89326791D01*
X66131659Y-89427115D01*
X66155139Y-89492921D01*
X66139313Y-89560975D01*
X66131659Y-89572885D01*
X66058770Y-89673208D01*
X65980128Y-89827552D01*
X65926597Y-89992302D01*
X65899500Y-90163389D01*
X65899500Y-90336610D01*
X65924393Y-90493783D01*
X65926598Y-90507701D01*
X65980127Y-90672445D01*
X66058768Y-90826788D01*
X66160586Y-90966928D01*
X66283072Y-91089414D01*
X66423212Y-91191232D01*
X66577555Y-91269873D01*
X66742299Y-91323402D01*
X66913389Y-91350500D01*
X66913390Y-91350500D01*
X67086610Y-91350500D01*
X67086611Y-91350500D01*
X67257701Y-91323402D01*
X67422445Y-91269873D01*
X67576788Y-91191232D01*
X67716928Y-91089414D01*
X67765523Y-91040819D01*
X67826846Y-91007334D01*
X67853204Y-91004500D01*
X69269554Y-91004500D01*
X69269574Y-91004501D01*
X69275688Y-91004501D01*
X69424314Y-91004501D01*
X69465674Y-90996272D01*
X69545894Y-90980315D01*
X69570080Y-90975505D01*
X69641743Y-90945821D01*
X69707389Y-90918630D01*
X69830966Y-90836059D01*
X70927797Y-89739228D01*
X72082651Y-88584375D01*
X81259956Y-79407069D01*
X81321279Y-79373584D01*
X81347637Y-79370750D01*
X96350459Y-79370750D01*
X96417498Y-79390435D01*
X96450775Y-79421862D01*
X96463019Y-79438714D01*
X96603536Y-79579231D01*
X96764306Y-79696037D01*
X96882832Y-79756429D01*
X96920780Y-79775765D01*
X96971576Y-79823740D01*
X96988371Y-79891561D01*
X96965833Y-79957696D01*
X96920780Y-79996735D01*
X96764305Y-80076463D01*
X96603533Y-80193271D01*
X96463021Y-80333783D01*
X96346213Y-80494555D01*
X96255994Y-80671617D01*
X96255993Y-80671620D01*
X96194587Y-80860612D01*
X96163500Y-81056889D01*
X96163500Y-81255610D01*
X96194587Y-81451887D01*
X96255993Y-81640879D01*
X96255994Y-81640882D01*
X96275508Y-81679179D01*
X96346213Y-81817944D01*
X96463019Y-81978714D01*
X96603536Y-82119231D01*
X96764306Y-82236037D01*
X96807413Y-82258001D01*
X96920780Y-82315765D01*
X96971576Y-82363740D01*
X96988371Y-82431561D01*
X96965833Y-82497696D01*
X96920780Y-82536735D01*
X96764305Y-82616463D01*
X96603533Y-82733271D01*
X96463021Y-82873783D01*
X96346213Y-83034555D01*
X96255994Y-83211617D01*
X96255993Y-83211620D01*
X96194587Y-83400612D01*
X96180034Y-83492496D01*
X96163500Y-83596889D01*
X96163500Y-83795611D01*
X96179043Y-83893748D01*
X96194587Y-83991887D01*
X96255993Y-84180879D01*
X96255994Y-84180882D01*
X96335343Y-84336610D01*
X96346213Y-84357944D01*
X96463019Y-84518714D01*
X96603536Y-84659231D01*
X96764306Y-84776037D01*
X96810082Y-84799361D01*
X96920780Y-84855765D01*
X96971576Y-84903740D01*
X96988371Y-84971561D01*
X96965833Y-85037696D01*
X96920780Y-85076735D01*
X96764305Y-85156463D01*
X96603533Y-85273271D01*
X96463021Y-85413783D01*
X96346213Y-85574555D01*
X96255994Y-85751617D01*
X96255993Y-85751620D01*
X96194587Y-85940612D01*
X96163500Y-86136889D01*
X96163500Y-86335610D01*
X96194587Y-86531887D01*
X96255993Y-86720879D01*
X96255994Y-86720882D01*
X96346213Y-86897944D01*
X96463019Y-87058714D01*
X96603536Y-87199231D01*
X96764306Y-87316037D01*
X96921332Y-87396046D01*
X96972127Y-87444019D01*
X96988922Y-87511840D01*
X96966385Y-87577975D01*
X96921332Y-87617014D01*
X96764566Y-87696891D01*
X96727283Y-87723979D01*
X96727282Y-87723980D01*
X97290058Y-88286754D01*
X97229919Y-88302869D01*
X97114080Y-88369748D01*
X97019498Y-88464330D01*
X96952619Y-88580169D01*
X96936504Y-88640307D01*
X96373730Y-88077532D01*
X96373729Y-88077533D01*
X96346643Y-88114814D01*
X96256457Y-88291812D01*
X96195075Y-88480726D01*
X96195075Y-88480729D01*
X96164000Y-88676928D01*
X96164000Y-88875571D01*
X96195075Y-89071770D01*
X96195075Y-89071773D01*
X96256457Y-89260687D01*
X96346641Y-89437682D01*
X96373730Y-89474965D01*
X96936504Y-88912191D01*
X96952619Y-88972331D01*
X97019498Y-89088170D01*
X97114080Y-89182752D01*
X97229919Y-89249631D01*
X97290057Y-89265744D01*
X96727283Y-89828518D01*
X96727283Y-89828519D01*
X96764567Y-89855608D01*
X96921331Y-89935484D01*
X96972127Y-89983459D01*
X96988922Y-90051280D01*
X96966384Y-90117415D01*
X96921331Y-90156454D01*
X96764305Y-90236463D01*
X96603533Y-90353271D01*
X96463021Y-90493783D01*
X96346213Y-90654555D01*
X96255994Y-90831617D01*
X96255993Y-90831620D01*
X96194587Y-91020612D01*
X96163500Y-91216889D01*
X96163500Y-91415610D01*
X96194587Y-91611887D01*
X96255993Y-91800879D01*
X96255994Y-91800882D01*
X96338489Y-91962785D01*
X96346213Y-91977944D01*
X96463019Y-92138714D01*
X96603536Y-92279231D01*
X96764306Y-92396037D01*
X96882832Y-92456429D01*
X96920780Y-92475765D01*
X96971576Y-92523740D01*
X96988371Y-92591561D01*
X96965833Y-92657696D01*
X96920780Y-92696735D01*
X96764305Y-92776463D01*
X96603533Y-92893271D01*
X96463021Y-93033783D01*
X96346213Y-93194555D01*
X96255994Y-93371617D01*
X96255993Y-93371620D01*
X96194587Y-93560612D01*
X96163500Y-93756889D01*
X96163500Y-93955610D01*
X96194587Y-94151887D01*
X96255993Y-94340879D01*
X96255994Y-94340882D01*
X96328837Y-94483842D01*
X96346213Y-94517944D01*
X96463019Y-94678714D01*
X96603536Y-94819231D01*
X96764306Y-94936037D01*
X96882832Y-94996429D01*
X96920780Y-95015765D01*
X96971576Y-95063740D01*
X96988371Y-95131561D01*
X96965833Y-95197696D01*
X96920780Y-95236735D01*
X96764305Y-95316463D01*
X96603533Y-95433271D01*
X96463021Y-95573783D01*
X96346213Y-95734555D01*
X96255994Y-95911617D01*
X96255993Y-95911620D01*
X96194587Y-96100612D01*
X96182724Y-96175512D01*
X96163500Y-96296889D01*
X96163500Y-96495611D01*
X96164426Y-96501456D01*
X96194587Y-96691887D01*
X96255993Y-96880879D01*
X96255994Y-96880882D01*
X96330369Y-97026848D01*
X96346213Y-97057944D01*
X96463019Y-97218714D01*
X96603536Y-97359231D01*
X96764306Y-97476037D01*
X96850237Y-97519821D01*
X96920780Y-97555765D01*
X96971576Y-97603740D01*
X96988371Y-97671561D01*
X96965833Y-97737696D01*
X96920780Y-97776735D01*
X96764305Y-97856463D01*
X96603533Y-97973271D01*
X96463021Y-98113783D01*
X96346213Y-98274555D01*
X96255994Y-98451617D01*
X96255993Y-98451620D01*
X96194587Y-98640612D01*
X96163500Y-98836889D01*
X96163500Y-99035610D01*
X96194587Y-99231887D01*
X96255993Y-99420879D01*
X96255994Y-99420882D01*
X96279173Y-99466372D01*
X96346213Y-99597944D01*
X96463019Y-99758714D01*
X96603536Y-99899231D01*
X96764306Y-100016037D01*
X96849783Y-100059590D01*
X96920780Y-100095765D01*
X96971576Y-100143740D01*
X96988371Y-100211561D01*
X96965833Y-100277696D01*
X96920780Y-100316735D01*
X96764305Y-100396463D01*
X96603533Y-100513271D01*
X96463021Y-100653783D01*
X96346213Y-100814555D01*
X96255994Y-100991617D01*
X96255993Y-100991620D01*
X96194587Y-101180612D01*
X96163500Y-101376889D01*
X96163500Y-101575610D01*
X96194587Y-101771887D01*
X96255993Y-101960879D01*
X96255994Y-101960882D01*
X96344013Y-102133626D01*
X96346213Y-102137944D01*
X96463019Y-102298714D01*
X96603536Y-102439231D01*
X96764306Y-102556037D01*
X96791190Y-102569735D01*
X96920780Y-102635765D01*
X96971576Y-102683740D01*
X96988371Y-102751561D01*
X96965833Y-102817696D01*
X96920780Y-102856735D01*
X96764305Y-102936463D01*
X96603533Y-103053271D01*
X96463021Y-103193783D01*
X96346213Y-103354555D01*
X96255994Y-103531617D01*
X96255993Y-103531620D01*
X96194587Y-103720612D01*
X96163500Y-103916889D01*
X96163500Y-104115610D01*
X96194587Y-104311887D01*
X96255993Y-104500879D01*
X96255994Y-104500882D01*
X96346213Y-104677944D01*
X96463019Y-104838714D01*
X96603536Y-104979231D01*
X96764306Y-105096037D01*
X96882832Y-105156429D01*
X96920780Y-105175765D01*
X96971576Y-105223740D01*
X96988371Y-105291561D01*
X96965833Y-105357696D01*
X96920780Y-105396735D01*
X96764305Y-105476463D01*
X96603533Y-105593271D01*
X96463021Y-105733783D01*
X96346213Y-105894555D01*
X96255994Y-106071617D01*
X96255993Y-106071620D01*
X96194587Y-106260612D01*
X96163500Y-106456889D01*
X96163500Y-106655610D01*
X96194587Y-106851887D01*
X96255993Y-107040879D01*
X96255994Y-107040882D01*
X96346213Y-107217944D01*
X96463019Y-107378714D01*
X96603536Y-107519231D01*
X96764306Y-107636037D01*
X96882832Y-107696429D01*
X96920780Y-107715765D01*
X96971576Y-107763740D01*
X96988371Y-107831561D01*
X96965833Y-107897696D01*
X96920780Y-107936735D01*
X96764305Y-108016463D01*
X96603533Y-108133271D01*
X96463021Y-108273783D01*
X96346213Y-108434555D01*
X96255994Y-108611617D01*
X96255993Y-108611620D01*
X96194587Y-108800612D01*
X96163500Y-108996889D01*
X96163500Y-109195610D01*
X96194587Y-109391887D01*
X96255993Y-109580879D01*
X96255994Y-109580882D01*
X96304275Y-109675637D01*
X96346213Y-109757944D01*
X96463019Y-109918714D01*
X96603536Y-110059231D01*
X96764306Y-110176037D01*
X96820682Y-110204762D01*
X96920780Y-110255765D01*
X96971576Y-110303740D01*
X96988371Y-110371561D01*
X96965833Y-110437696D01*
X96920780Y-110476735D01*
X96764305Y-110556463D01*
X96603533Y-110673271D01*
X96463021Y-110813783D01*
X96346213Y-110974555D01*
X96255994Y-111151617D01*
X96255993Y-111151620D01*
X96194587Y-111340612D01*
X96163500Y-111536889D01*
X96163500Y-111735610D01*
X96194587Y-111931887D01*
X96255993Y-112120879D01*
X96255995Y-112120883D01*
X96264822Y-112138207D01*
X96277717Y-112206876D01*
X96251440Y-112271616D01*
X96194333Y-112311872D01*
X96154336Y-112318500D01*
X85925177Y-112318500D01*
X85754881Y-112352374D01*
X85754871Y-112352377D01*
X85594459Y-112418821D01*
X85594447Y-112418828D01*
X85464388Y-112505732D01*
X85453472Y-112513026D01*
X85452103Y-112513941D01*
X85450074Y-112515296D01*
X76415296Y-121550072D01*
X76415295Y-121550073D01*
X76318822Y-121694456D01*
X76252377Y-121854871D01*
X76252374Y-121854881D01*
X76218500Y-122025176D01*
X76218500Y-122025179D01*
X76218500Y-122198821D01*
X76218500Y-122198823D01*
X76218499Y-122198823D01*
X76252374Y-122369118D01*
X76252377Y-122369128D01*
X76318822Y-122529543D01*
X76415295Y-122673926D01*
X76538073Y-122796704D01*
X76682456Y-122893177D01*
X76842871Y-122959622D01*
X76842876Y-122959624D01*
X76842880Y-122959624D01*
X76842881Y-122959625D01*
X77013176Y-122993500D01*
X77013179Y-122993500D01*
X77186823Y-122993500D01*
X77301393Y-122970709D01*
X77357124Y-122959624D01*
X77452392Y-122920163D01*
X77517543Y-122893177D01*
X77517544Y-122893176D01*
X77517547Y-122893175D01*
X77661924Y-122796706D01*
X77784706Y-122673924D01*
X77997674Y-122460957D01*
X86340810Y-114117819D01*
X86402133Y-114084334D01*
X86428491Y-114081500D01*
X87625500Y-114081500D01*
X87692539Y-114101185D01*
X87738294Y-114153989D01*
X87749500Y-114205500D01*
X87749500Y-115957870D01*
X87749501Y-115957876D01*
X87755908Y-116017483D01*
X87806202Y-116152328D01*
X87806206Y-116152335D01*
X87892452Y-116267544D01*
X87892455Y-116267547D01*
X88007664Y-116353793D01*
X88007671Y-116353797D01*
X88139082Y-116402810D01*
X88195016Y-116444681D01*
X88219433Y-116510145D01*
X88204582Y-116578418D01*
X88183431Y-116606673D01*
X88069889Y-116720215D01*
X87944951Y-116892179D01*
X87848444Y-117081585D01*
X87782753Y-117283760D01*
X87749500Y-117493713D01*
X87749500Y-117706286D01*
X87782753Y-117916239D01*
X87848444Y-118118414D01*
X87944951Y-118307820D01*
X88069890Y-118479786D01*
X88220213Y-118630109D01*
X88392182Y-118755050D01*
X88400946Y-118759516D01*
X88451742Y-118807491D01*
X88468536Y-118875312D01*
X88445998Y-118941447D01*
X88400946Y-118980484D01*
X88392182Y-118984949D01*
X88220213Y-119109890D01*
X88069890Y-119260213D01*
X87944951Y-119432179D01*
X87848444Y-119621585D01*
X87782753Y-119823760D01*
X87749500Y-120033713D01*
X87749500Y-120246286D01*
X87782753Y-120456239D01*
X87848444Y-120658414D01*
X87944951Y-120847820D01*
X88069890Y-121019786D01*
X88220213Y-121170109D01*
X88392179Y-121295048D01*
X88392181Y-121295049D01*
X88392184Y-121295051D01*
X88581588Y-121391557D01*
X88783757Y-121457246D01*
X88993713Y-121490500D01*
X88993714Y-121490500D01*
X89206286Y-121490500D01*
X89206287Y-121490500D01*
X89416243Y-121457246D01*
X89618412Y-121391557D01*
X89807816Y-121295051D01*
X89829789Y-121279086D01*
X89979786Y-121170109D01*
X89979788Y-121170106D01*
X89979792Y-121170104D01*
X90130104Y-121019792D01*
X90130106Y-121019788D01*
X90130109Y-121019786D01*
X90255050Y-120847817D01*
X90265570Y-120827172D01*
X90265579Y-120827155D01*
X132425000Y-120827155D01*
X132425000Y-122100000D01*
X132671447Y-122100000D01*
X132671447Y-122099999D01*
X133051283Y-121720163D01*
X133225000Y-121720163D01*
X133225000Y-121779837D01*
X133247836Y-121834968D01*
X133290032Y-121877164D01*
X133345163Y-121900000D01*
X133404837Y-121900000D01*
X133459968Y-121877164D01*
X133502164Y-121834968D01*
X133525000Y-121779837D01*
X133525000Y-121749999D01*
X133728553Y-121749999D01*
X133925000Y-121946446D01*
X134121446Y-121750001D01*
X134121446Y-121750000D01*
X134091609Y-121720163D01*
X134325000Y-121720163D01*
X134325000Y-121779837D01*
X134347836Y-121834968D01*
X134390032Y-121877164D01*
X134445163Y-121900000D01*
X134504837Y-121900000D01*
X134559968Y-121877164D01*
X134602164Y-121834968D01*
X134625000Y-121779837D01*
X134625000Y-121749999D01*
X134828553Y-121749999D01*
X134925000Y-121846445D01*
X134925000Y-121720163D01*
X135625000Y-121720163D01*
X135625000Y-121779837D01*
X135647836Y-121834968D01*
X135690032Y-121877164D01*
X135745163Y-121900000D01*
X135804837Y-121900000D01*
X135859968Y-121877164D01*
X135902164Y-121834968D01*
X135925000Y-121779837D01*
X135925000Y-121749999D01*
X136128553Y-121749999D01*
X136375000Y-121996446D01*
X136621446Y-121750001D01*
X136621446Y-121750000D01*
X136591609Y-121720163D01*
X136825000Y-121720163D01*
X136825000Y-121779837D01*
X136847836Y-121834968D01*
X136890032Y-121877164D01*
X136945163Y-121900000D01*
X137004837Y-121900000D01*
X137059968Y-121877164D01*
X137102164Y-121834968D01*
X137125000Y-121779837D01*
X137125000Y-121720163D01*
X137102164Y-121665032D01*
X137059968Y-121622836D01*
X137004837Y-121600000D01*
X136945163Y-121600000D01*
X136890032Y-121622836D01*
X136847836Y-121665032D01*
X136825000Y-121720163D01*
X136591609Y-121720163D01*
X136375000Y-121503553D01*
X136128553Y-121749999D01*
X135925000Y-121749999D01*
X135925000Y-121720163D01*
X135902164Y-121665032D01*
X135859968Y-121622836D01*
X135804837Y-121600000D01*
X135745163Y-121600000D01*
X135690032Y-121622836D01*
X135647836Y-121665032D01*
X135625000Y-121720163D01*
X134925000Y-121720163D01*
X134925000Y-121653553D01*
X134924999Y-121653552D01*
X134828553Y-121749999D01*
X134625000Y-121749999D01*
X134625000Y-121720163D01*
X134602164Y-121665032D01*
X134559968Y-121622836D01*
X134504837Y-121600000D01*
X134445163Y-121600000D01*
X134390032Y-121622836D01*
X134347836Y-121665032D01*
X134325000Y-121720163D01*
X134091609Y-121720163D01*
X133925000Y-121553553D01*
X133728553Y-121749999D01*
X133525000Y-121749999D01*
X133525000Y-121720163D01*
X133502164Y-121665032D01*
X133459968Y-121622836D01*
X133404837Y-121600000D01*
X133345163Y-121600000D01*
X133290032Y-121622836D01*
X133247836Y-121665032D01*
X133225000Y-121720163D01*
X133051283Y-121720163D01*
X133198223Y-121573223D01*
X133768151Y-121003294D01*
X133829474Y-120969809D01*
X133855832Y-120966975D01*
X133994167Y-120966975D01*
X134015411Y-120973213D01*
X134037497Y-120974792D01*
X134051554Y-120983825D01*
X134061206Y-120986660D01*
X134067792Y-120994261D01*
X134081848Y-121003294D01*
X134475000Y-121396446D01*
X134475001Y-121396446D01*
X134824999Y-121046446D01*
X135425000Y-121046446D01*
X135774999Y-121396446D01*
X135775000Y-121396446D01*
X136168151Y-121003294D01*
X136229474Y-120969809D01*
X136255832Y-120966975D01*
X136494167Y-120966975D01*
X136515412Y-120973213D01*
X136537500Y-120974793D01*
X136551556Y-120983826D01*
X136561206Y-120986660D01*
X136567792Y-120994260D01*
X136581848Y-121003294D01*
X137151777Y-121573223D01*
X137678552Y-122099999D01*
X137678553Y-122100000D01*
X137925000Y-122100000D01*
X137925000Y-120827172D01*
X137924999Y-120827155D01*
X137918598Y-120767627D01*
X137918596Y-120767620D01*
X137868354Y-120632913D01*
X137868350Y-120632906D01*
X137782190Y-120517812D01*
X137782187Y-120517809D01*
X137667093Y-120431649D01*
X137667086Y-120431645D01*
X137532379Y-120381403D01*
X137532372Y-120381401D01*
X137472844Y-120375000D01*
X135425000Y-120375000D01*
X135425000Y-121046446D01*
X134824999Y-121046446D01*
X134924999Y-120946446D01*
X134925000Y-120946445D01*
X134925000Y-120375000D01*
X132877155Y-120375000D01*
X132817627Y-120381401D01*
X132817620Y-120381403D01*
X132682913Y-120431645D01*
X132682906Y-120431649D01*
X132567812Y-120517809D01*
X132567809Y-120517812D01*
X132481649Y-120632906D01*
X132481645Y-120632913D01*
X132431403Y-120767620D01*
X132431401Y-120767627D01*
X132425000Y-120827155D01*
X90265579Y-120827155D01*
X90351557Y-120658412D01*
X90417246Y-120456243D01*
X90450500Y-120246287D01*
X90450500Y-120033713D01*
X90417246Y-119823757D01*
X90351557Y-119621588D01*
X90255051Y-119432184D01*
X90255049Y-119432181D01*
X90255048Y-119432179D01*
X90130109Y-119260213D01*
X89979786Y-119109890D01*
X89807820Y-118984951D01*
X89807115Y-118984591D01*
X89799054Y-118980485D01*
X89748259Y-118932512D01*
X89731463Y-118864692D01*
X89753999Y-118798556D01*
X89799054Y-118759515D01*
X89807816Y-118755051D01*
X89829789Y-118739086D01*
X89979786Y-118630109D01*
X89979788Y-118630106D01*
X89979792Y-118630104D01*
X90130104Y-118479792D01*
X90130106Y-118479788D01*
X90130109Y-118479786D01*
X90255048Y-118307820D01*
X90255047Y-118307820D01*
X90255051Y-118307816D01*
X90351557Y-118118412D01*
X90417246Y-117916243D01*
X90450500Y-117706287D01*
X90450500Y-117493713D01*
X90417246Y-117283757D01*
X90351557Y-117081588D01*
X90255051Y-116892184D01*
X90255049Y-116892181D01*
X90255048Y-116892179D01*
X90130109Y-116720213D01*
X90016569Y-116606673D01*
X89983084Y-116545350D01*
X89988068Y-116475658D01*
X90029940Y-116419725D01*
X90060915Y-116402810D01*
X90192331Y-116353796D01*
X90307546Y-116267546D01*
X90393796Y-116152331D01*
X90444091Y-116017483D01*
X90450500Y-115957873D01*
X90450499Y-114205499D01*
X90470184Y-114138461D01*
X90522987Y-114092706D01*
X90574499Y-114081500D01*
X100389777Y-114081500D01*
X100523193Y-114054961D01*
X103195500Y-114054961D01*
X103195500Y-114297538D01*
X103227161Y-114538035D01*
X103289947Y-114772354D01*
X103362201Y-114946789D01*
X103382776Y-114996462D01*
X103504064Y-115206539D01*
X103504066Y-115206542D01*
X103504067Y-115206543D01*
X103651733Y-115398986D01*
X103651739Y-115398993D01*
X103823256Y-115570510D01*
X103823262Y-115570515D01*
X104015711Y-115718186D01*
X104225788Y-115839474D01*
X104449900Y-115932304D01*
X104684211Y-115995088D01*
X104854313Y-116017482D01*
X104924711Y-116026750D01*
X104924712Y-116026750D01*
X105167289Y-116026750D01*
X105237679Y-116017483D01*
X105407789Y-115995088D01*
X105642100Y-115932304D01*
X105866212Y-115839474D01*
X106076289Y-115718186D01*
X106268738Y-115570515D01*
X106440265Y-115398988D01*
X106497068Y-115324961D01*
X151455500Y-115324961D01*
X151455500Y-115567538D01*
X151487161Y-115808035D01*
X151549947Y-116042354D01*
X151595503Y-116152335D01*
X151642776Y-116266462D01*
X151764064Y-116476539D01*
X151764066Y-116476542D01*
X151764067Y-116476543D01*
X151911733Y-116668986D01*
X151911739Y-116668993D01*
X152083256Y-116840510D01*
X152083262Y-116840515D01*
X152275711Y-116988186D01*
X152485788Y-117109474D01*
X152709900Y-117202304D01*
X152944211Y-117265088D01*
X153124586Y-117288834D01*
X153184711Y-117296750D01*
X153184712Y-117296750D01*
X153427289Y-117296750D01*
X153475388Y-117290417D01*
X153667789Y-117265088D01*
X153902100Y-117202304D01*
X154126212Y-117109474D01*
X154336289Y-116988186D01*
X154528738Y-116840515D01*
X154700265Y-116668988D01*
X154847936Y-116476539D01*
X154969224Y-116266462D01*
X155062054Y-116042350D01*
X155124838Y-115808039D01*
X155156500Y-115567538D01*
X155156500Y-115324962D01*
X155124838Y-115084461D01*
X155062054Y-114850150D01*
X154969224Y-114626038D01*
X154847936Y-114415961D01*
X154700265Y-114223512D01*
X154700260Y-114223506D01*
X154528743Y-114051989D01*
X154528736Y-114051983D01*
X154336293Y-113904317D01*
X154336292Y-113904316D01*
X154336289Y-113904314D01*
X154126212Y-113783026D01*
X154103864Y-113773769D01*
X153902104Y-113690197D01*
X153667785Y-113627411D01*
X153427289Y-113595750D01*
X153427288Y-113595750D01*
X153184712Y-113595750D01*
X153184711Y-113595750D01*
X152944214Y-113627411D01*
X152709895Y-113690197D01*
X152485794Y-113783023D01*
X152485785Y-113783027D01*
X152275706Y-113904317D01*
X152083263Y-114051983D01*
X152083256Y-114051989D01*
X151911739Y-114223506D01*
X151911733Y-114223513D01*
X151764067Y-114415956D01*
X151642777Y-114626035D01*
X151642773Y-114626044D01*
X151549947Y-114850145D01*
X151487161Y-115084464D01*
X151455500Y-115324961D01*
X106497068Y-115324961D01*
X106587936Y-115206539D01*
X106709224Y-114996462D01*
X106802054Y-114772350D01*
X106864838Y-114538039D01*
X106896500Y-114297538D01*
X106896500Y-114054962D01*
X106864838Y-113814461D01*
X106802054Y-113580150D01*
X106799473Y-113573920D01*
X106751421Y-113457912D01*
X106709224Y-113356038D01*
X106587936Y-113145961D01*
X106477054Y-113001456D01*
X106440266Y-112953513D01*
X106440260Y-112953506D01*
X106268743Y-112781989D01*
X106268736Y-112781983D01*
X106076293Y-112634317D01*
X106076292Y-112634316D01*
X106076289Y-112634314D01*
X105866212Y-112513026D01*
X105866207Y-112513024D01*
X105866205Y-112513023D01*
X105642104Y-112420197D01*
X105407785Y-112357411D01*
X105167289Y-112325750D01*
X105167288Y-112325750D01*
X104924712Y-112325750D01*
X104924711Y-112325750D01*
X104684214Y-112357411D01*
X104449895Y-112420197D01*
X104225794Y-112513023D01*
X104225790Y-112513025D01*
X104225788Y-112513026D01*
X104029952Y-112626092D01*
X104015706Y-112634317D01*
X103823263Y-112781983D01*
X103823256Y-112781989D01*
X103651739Y-112953506D01*
X103651733Y-112953513D01*
X103504067Y-113145956D01*
X103382777Y-113356035D01*
X103382773Y-113356044D01*
X103289947Y-113580145D01*
X103227161Y-113814464D01*
X103195500Y-114054961D01*
X100523193Y-114054961D01*
X100560078Y-114047624D01*
X100699377Y-113989925D01*
X100720499Y-113981176D01*
X100720502Y-113981174D01*
X100770445Y-113947804D01*
X100770447Y-113947802D01*
X100864878Y-113884706D01*
X101754217Y-112995367D01*
X102594489Y-112155096D01*
X129299500Y-112155096D01*
X129299500Y-113355114D01*
X129299501Y-113355131D01*
X129310000Y-113457909D01*
X129310001Y-113457912D01*
X129348441Y-113573914D01*
X129365186Y-113624447D01*
X129457288Y-113773769D01*
X129581344Y-113897825D01*
X129730666Y-113989927D01*
X129897203Y-114045112D01*
X129999991Y-114055613D01*
X131200008Y-114055612D01*
X131302797Y-114045112D01*
X131469334Y-113989927D01*
X131618656Y-113897825D01*
X131742712Y-113773769D01*
X131834814Y-113624447D01*
X131889999Y-113457910D01*
X131900500Y-113355122D01*
X131900500Y-113198543D01*
X133699499Y-113198543D01*
X133737947Y-113391829D01*
X133737950Y-113391839D01*
X133813364Y-113573907D01*
X133813371Y-113573920D01*
X133922860Y-113737781D01*
X133922863Y-113737785D01*
X134062214Y-113877136D01*
X134062218Y-113877139D01*
X134226079Y-113986628D01*
X134226092Y-113986635D01*
X134392622Y-114055613D01*
X134408165Y-114062051D01*
X134408169Y-114062051D01*
X134408170Y-114062052D01*
X134601456Y-114100500D01*
X134601459Y-114100500D01*
X134798543Y-114100500D01*
X134953205Y-114069735D01*
X134991835Y-114062051D01*
X135173914Y-113986632D01*
X135173920Y-113986628D01*
X135340388Y-113875398D01*
X135358434Y-113869747D01*
X135374344Y-113859523D01*
X135405305Y-113855071D01*
X135407066Y-113854520D01*
X135409279Y-113854500D01*
X135471059Y-113854500D01*
X135538098Y-113874185D01*
X135558740Y-113890819D01*
X135589707Y-113921786D01*
X135589711Y-113921789D01*
X135720814Y-114009390D01*
X135720827Y-114009397D01*
X135866498Y-114069735D01*
X135866503Y-114069737D01*
X136021153Y-114100499D01*
X136021156Y-114100500D01*
X136021158Y-114100500D01*
X136178844Y-114100500D01*
X136178845Y-114100499D01*
X136333497Y-114069737D01*
X136479179Y-114009394D01*
X136610289Y-113921789D01*
X136721789Y-113810289D01*
X136809394Y-113679179D01*
X136869737Y-113533497D01*
X136900500Y-113378842D01*
X136900500Y-113221158D01*
X136900500Y-113221155D01*
X136900499Y-113221153D01*
X136869738Y-113066510D01*
X136869737Y-113066503D01*
X136840272Y-112995367D01*
X136809397Y-112920827D01*
X136809390Y-112920814D01*
X136721789Y-112789711D01*
X136721786Y-112789707D01*
X136610292Y-112678213D01*
X136610288Y-112678210D01*
X136479185Y-112590609D01*
X136479180Y-112590607D01*
X136479179Y-112590606D01*
X136465178Y-112584806D01*
X136424951Y-112557926D01*
X136380969Y-112513943D01*
X136380968Y-112513942D01*
X136339773Y-112486417D01*
X136257389Y-112431370D01*
X136257386Y-112431368D01*
X136257385Y-112431368D01*
X136176955Y-112398053D01*
X136120080Y-112374495D01*
X136095894Y-112369684D01*
X135974314Y-112345499D01*
X135974312Y-112345499D01*
X135825688Y-112345499D01*
X135819574Y-112345499D01*
X135819554Y-112345500D01*
X135409279Y-112345500D01*
X135342240Y-112325815D01*
X135340388Y-112324602D01*
X135173920Y-112213371D01*
X135173907Y-112213364D01*
X134991839Y-112137950D01*
X134991829Y-112137947D01*
X134798543Y-112099500D01*
X134798541Y-112099500D01*
X134601459Y-112099500D01*
X134601457Y-112099500D01*
X134408170Y-112137947D01*
X134408160Y-112137950D01*
X134226092Y-112213364D01*
X134226079Y-112213371D01*
X134062218Y-112322860D01*
X134062214Y-112322863D01*
X133922863Y-112462214D01*
X133922860Y-112462218D01*
X133813371Y-112626079D01*
X133813364Y-112626092D01*
X133737950Y-112808160D01*
X133737947Y-112808170D01*
X133699500Y-113001456D01*
X133699500Y-113001459D01*
X133699500Y-113198541D01*
X133699500Y-113198543D01*
X133699499Y-113198543D01*
X131900500Y-113198543D01*
X131900499Y-112716037D01*
X131900499Y-112155111D01*
X131900498Y-112155094D01*
X131889999Y-112052316D01*
X131889998Y-112052313D01*
X131834814Y-111885779D01*
X131742712Y-111736457D01*
X131673488Y-111667233D01*
X131640003Y-111605910D01*
X131644987Y-111536218D01*
X131660852Y-111506665D01*
X131711858Y-111436462D01*
X131711863Y-111436454D01*
X131804755Y-111254144D01*
X131867990Y-111059530D01*
X131900000Y-110857430D01*
X131900000Y-110652795D01*
X131867990Y-110450695D01*
X131804755Y-110256081D01*
X131711859Y-110073763D01*
X131679474Y-110029190D01*
X131679474Y-110029189D01*
X131000000Y-110708664D01*
X131000000Y-110702452D01*
X130972741Y-110600719D01*
X130920080Y-110509507D01*
X130845606Y-110435033D01*
X130754394Y-110382372D01*
X130652661Y-110355113D01*
X130646446Y-110355113D01*
X131325922Y-109675637D01*
X131325921Y-109675636D01*
X131281359Y-109643260D01*
X131281350Y-109643254D01*
X131099031Y-109550357D01*
X130904417Y-109487122D01*
X130702317Y-109455113D01*
X130497683Y-109455113D01*
X130295582Y-109487122D01*
X130100968Y-109550357D01*
X129918644Y-109643256D01*
X129874077Y-109675636D01*
X129874077Y-109675637D01*
X130553554Y-110355113D01*
X130547339Y-110355113D01*
X130445606Y-110382372D01*
X130354394Y-110435033D01*
X130279920Y-110509507D01*
X130227259Y-110600719D01*
X130200000Y-110702452D01*
X130200000Y-110708666D01*
X129520524Y-110029190D01*
X129520523Y-110029190D01*
X129488143Y-110073757D01*
X129395244Y-110256081D01*
X129332009Y-110450695D01*
X129300000Y-110652795D01*
X129300000Y-110857430D01*
X129332009Y-111059530D01*
X129395244Y-111254144D01*
X129488142Y-111436465D01*
X129539147Y-111506668D01*
X129562627Y-111572474D01*
X129546802Y-111640528D01*
X129526511Y-111667234D01*
X129457287Y-111736458D01*
X129365187Y-111885776D01*
X129365185Y-111885781D01*
X129349907Y-111931887D01*
X129310001Y-112052316D01*
X129310001Y-112052317D01*
X129310000Y-112052317D01*
X129299500Y-112155096D01*
X102594489Y-112155096D01*
X102685319Y-112064266D01*
X105114370Y-109635215D01*
X109851041Y-104898543D01*
X141399499Y-104898543D01*
X141437947Y-105091829D01*
X141437950Y-105091839D01*
X141513364Y-105273907D01*
X141513371Y-105273920D01*
X141622860Y-105437781D01*
X141622863Y-105437785D01*
X141762214Y-105577136D01*
X141762218Y-105577139D01*
X141926079Y-105686628D01*
X141926092Y-105686635D01*
X142108160Y-105762049D01*
X142108165Y-105762051D01*
X142108169Y-105762051D01*
X142108170Y-105762052D01*
X142301456Y-105800500D01*
X142301459Y-105800500D01*
X142498543Y-105800500D01*
X142628582Y-105774632D01*
X142691835Y-105762051D01*
X142873914Y-105686632D01*
X143037782Y-105577139D01*
X143177139Y-105437782D01*
X143286632Y-105273914D01*
X143362051Y-105091835D01*
X143400500Y-104898541D01*
X143400500Y-104701459D01*
X143400500Y-104701456D01*
X143362052Y-104508170D01*
X143362051Y-104508169D01*
X143362051Y-104508165D01*
X143348900Y-104476415D01*
X143286635Y-104326092D01*
X143286628Y-104326079D01*
X143175398Y-104159611D01*
X143169747Y-104141564D01*
X143159523Y-104125655D01*
X143155071Y-104094693D01*
X143154520Y-104092933D01*
X143154500Y-104090720D01*
X143154500Y-103994947D01*
X143163939Y-103947494D01*
X143169737Y-103933497D01*
X143200500Y-103778842D01*
X143200500Y-103621158D01*
X143200500Y-103621155D01*
X143200499Y-103621153D01*
X143187556Y-103556083D01*
X143169737Y-103466503D01*
X143169735Y-103466498D01*
X143109397Y-103320827D01*
X143109390Y-103320814D01*
X143021789Y-103189711D01*
X143021786Y-103189707D01*
X142910292Y-103078213D01*
X142910288Y-103078210D01*
X142779185Y-102990609D01*
X142779172Y-102990602D01*
X142633501Y-102930264D01*
X142633489Y-102930261D01*
X142478845Y-102899500D01*
X142478842Y-102899500D01*
X142321158Y-102899500D01*
X142321155Y-102899500D01*
X142166510Y-102930261D01*
X142166498Y-102930264D01*
X142020827Y-102990602D01*
X142020814Y-102990609D01*
X141889711Y-103078210D01*
X141889707Y-103078213D01*
X141778213Y-103189707D01*
X141778210Y-103189711D01*
X141690609Y-103320814D01*
X141690602Y-103320827D01*
X141630264Y-103466498D01*
X141630261Y-103466510D01*
X141599500Y-103621153D01*
X141599500Y-103778846D01*
X141630261Y-103933489D01*
X141630263Y-103933497D01*
X141636061Y-103947494D01*
X141637687Y-103955671D01*
X141640477Y-103960012D01*
X141645500Y-103994947D01*
X141645500Y-104090720D01*
X141625815Y-104157759D01*
X141624602Y-104159611D01*
X141513371Y-104326079D01*
X141513364Y-104326092D01*
X141437950Y-104508160D01*
X141437947Y-104508170D01*
X141399500Y-104701456D01*
X141399500Y-104701459D01*
X141399500Y-104898541D01*
X141399500Y-104898543D01*
X141399499Y-104898543D01*
X109851041Y-104898543D01*
X110141898Y-104607686D01*
X117128430Y-97621153D01*
X136099500Y-97621153D01*
X136099500Y-97778846D01*
X136130261Y-97933489D01*
X136130264Y-97933501D01*
X136190602Y-98079172D01*
X136190609Y-98079185D01*
X136278210Y-98210288D01*
X136278213Y-98210292D01*
X136389710Y-98321789D01*
X136475601Y-98379179D01*
X136520821Y-98409394D01*
X136534759Y-98415167D01*
X136534819Y-98415192D01*
X136575047Y-98442072D01*
X140109600Y-101976624D01*
X140109621Y-101976647D01*
X140219030Y-102086056D01*
X140219034Y-102086059D01*
X140296686Y-102137944D01*
X140342611Y-102168630D01*
X140423045Y-102201946D01*
X140427598Y-102203832D01*
X140427604Y-102203835D01*
X140452984Y-102214347D01*
X140479920Y-102225505D01*
X140479929Y-102225506D01*
X140479930Y-102225507D01*
X140504103Y-102230315D01*
X140504110Y-102230316D01*
X140625686Y-102254501D01*
X140625688Y-102254501D01*
X140780426Y-102254501D01*
X140780446Y-102254500D01*
X141374654Y-102254500D01*
X141441693Y-102274185D01*
X141473971Y-102305889D01*
X141474347Y-102305581D01*
X141477214Y-102309074D01*
X141477754Y-102309605D01*
X141478212Y-102310291D01*
X141589707Y-102421786D01*
X141589711Y-102421789D01*
X141720814Y-102509390D01*
X141720827Y-102509397D01*
X141833428Y-102556037D01*
X141866503Y-102569737D01*
X142021153Y-102600499D01*
X142021156Y-102600500D01*
X142021158Y-102600500D01*
X142178844Y-102600500D01*
X142178845Y-102600499D01*
X142333497Y-102569737D01*
X142479179Y-102509394D01*
X142610289Y-102421789D01*
X142721789Y-102310289D01*
X142809394Y-102179179D01*
X142869737Y-102033497D01*
X142900500Y-101878842D01*
X142900500Y-101721158D01*
X142900500Y-101721155D01*
X142900499Y-101721153D01*
X142869737Y-101566503D01*
X142815393Y-101435304D01*
X142809397Y-101420827D01*
X142809390Y-101420814D01*
X142721789Y-101289711D01*
X142721786Y-101289707D01*
X142610292Y-101178213D01*
X142610288Y-101178210D01*
X142479185Y-101090609D01*
X142479180Y-101090607D01*
X142479179Y-101090606D01*
X142465178Y-101084806D01*
X142424954Y-101057929D01*
X142280966Y-100913941D01*
X142157389Y-100831370D01*
X142157386Y-100831368D01*
X142157385Y-100831368D01*
X142076955Y-100798053D01*
X142020080Y-100774495D01*
X141995894Y-100769684D01*
X141874314Y-100745499D01*
X141874312Y-100745499D01*
X141725688Y-100745499D01*
X141719574Y-100745499D01*
X141719554Y-100745500D01*
X141063886Y-100745500D01*
X140996847Y-100725815D01*
X140976205Y-100709181D01*
X137642072Y-97375047D01*
X137615192Y-97334819D01*
X137609396Y-97320827D01*
X137609394Y-97320821D01*
X137553909Y-97237782D01*
X137521789Y-97189710D01*
X137410292Y-97078213D01*
X137410288Y-97078210D01*
X137291059Y-96998543D01*
X141799499Y-96998543D01*
X141837947Y-97191829D01*
X141837950Y-97191839D01*
X141913364Y-97373907D01*
X141913371Y-97373920D01*
X142022860Y-97537781D01*
X142022863Y-97537785D01*
X142162214Y-97677136D01*
X142162218Y-97677139D01*
X142326079Y-97786628D01*
X142326092Y-97786635D01*
X142494674Y-97856463D01*
X142508165Y-97862051D01*
X142699691Y-97900148D01*
X142761602Y-97932533D01*
X142796176Y-97993248D01*
X142799500Y-98021765D01*
X142799500Y-98078846D01*
X142830261Y-98233489D01*
X142830264Y-98233501D01*
X142890602Y-98379172D01*
X142890609Y-98379185D01*
X142978210Y-98510288D01*
X142978213Y-98510292D01*
X143089707Y-98621786D01*
X143089711Y-98621789D01*
X143220814Y-98709390D01*
X143220827Y-98709397D01*
X143366498Y-98769735D01*
X143366503Y-98769737D01*
X143521153Y-98800499D01*
X143521156Y-98800500D01*
X143521158Y-98800500D01*
X143678844Y-98800500D01*
X143678845Y-98800499D01*
X143833497Y-98769737D01*
X143979179Y-98709394D01*
X144110289Y-98621789D01*
X144221789Y-98510289D01*
X144309394Y-98379179D01*
X144369737Y-98233497D01*
X144400500Y-98078842D01*
X144400500Y-97921158D01*
X144400500Y-97921155D01*
X144400499Y-97921153D01*
X144369738Y-97766505D01*
X144369737Y-97766503D01*
X144363939Y-97752504D01*
X144362312Y-97744327D01*
X144359524Y-97739988D01*
X144354501Y-97705053D01*
X144354501Y-97642559D01*
X144374186Y-97575520D01*
X144426990Y-97529765D01*
X144496148Y-97519821D01*
X144525951Y-97527997D01*
X144608165Y-97562051D01*
X144608169Y-97562051D01*
X144608170Y-97562052D01*
X144801456Y-97600500D01*
X144801459Y-97600500D01*
X144998543Y-97600500D01*
X145170700Y-97566255D01*
X145191835Y-97562051D01*
X145373914Y-97486632D01*
X145537782Y-97377139D01*
X145677139Y-97237782D01*
X145786632Y-97073914D01*
X145862051Y-96891835D01*
X145900500Y-96698541D01*
X145900500Y-96501459D01*
X145900500Y-96501456D01*
X145862052Y-96308170D01*
X145862051Y-96308169D01*
X145862051Y-96308165D01*
X145830242Y-96231370D01*
X145786635Y-96126092D01*
X145786628Y-96126079D01*
X145675399Y-95959613D01*
X145670875Y-95947491D01*
X145664826Y-95940260D01*
X145660589Y-95919932D01*
X145655474Y-95906227D01*
X145654501Y-95898506D01*
X145654501Y-95825688D01*
X145630315Y-95704105D01*
X145625505Y-95679920D01*
X145581543Y-95573786D01*
X145568630Y-95542611D01*
X145522557Y-95473658D01*
X145495572Y-95433271D01*
X145486060Y-95419035D01*
X145486054Y-95419028D01*
X145376647Y-95309621D01*
X145376624Y-95309600D01*
X145142072Y-95075048D01*
X145115190Y-95034815D01*
X145109394Y-95020821D01*
X145052743Y-94936037D01*
X145021789Y-94889710D01*
X144910292Y-94778213D01*
X144910288Y-94778210D01*
X144779185Y-94690609D01*
X144779172Y-94690602D01*
X144633501Y-94630264D01*
X144633489Y-94630261D01*
X144478845Y-94599500D01*
X144478842Y-94599500D01*
X144321158Y-94599500D01*
X144321155Y-94599500D01*
X144166510Y-94630261D01*
X144166498Y-94630264D01*
X144020827Y-94690602D01*
X144020814Y-94690609D01*
X143889711Y-94778210D01*
X143889707Y-94778213D01*
X143778213Y-94889707D01*
X143778210Y-94889711D01*
X143690609Y-95020814D01*
X143690602Y-95020827D01*
X143630264Y-95166498D01*
X143630261Y-95166510D01*
X143599500Y-95321153D01*
X143599500Y-95478846D01*
X143630261Y-95633489D01*
X143630264Y-95633501D01*
X143690602Y-95779172D01*
X143690609Y-95779185D01*
X143778210Y-95910288D01*
X143778213Y-95910292D01*
X143889707Y-96021786D01*
X143889711Y-96021789D01*
X143935785Y-96052575D01*
X143952773Y-96072902D01*
X143972461Y-96090626D01*
X143974828Y-96099292D01*
X143980590Y-96106187D01*
X143983891Y-96132469D01*
X143990872Y-96158026D01*
X143988517Y-96169303D01*
X143989297Y-96175512D01*
X143985188Y-96192859D01*
X143983545Y-96198084D01*
X143937949Y-96308165D01*
X143918997Y-96403441D01*
X143916980Y-96409859D01*
X143901124Y-96433532D01*
X143887917Y-96458780D01*
X143881931Y-96462188D01*
X143878099Y-96467911D01*
X143851962Y-96479254D01*
X143827201Y-96493354D01*
X143820322Y-96492985D01*
X143814005Y-96495727D01*
X143785885Y-96491138D01*
X143757431Y-96489613D01*
X143751844Y-96485584D01*
X143745047Y-96484475D01*
X143723872Y-96465412D01*
X143700760Y-96448746D01*
X143694299Y-96438790D01*
X143693119Y-96437728D01*
X143692762Y-96436421D01*
X143689323Y-96431122D01*
X143686634Y-96426092D01*
X143686632Y-96426086D01*
X143686628Y-96426080D01*
X143686627Y-96426078D01*
X143577139Y-96262218D01*
X143577136Y-96262214D01*
X143437785Y-96122863D01*
X143437781Y-96122860D01*
X143273920Y-96013371D01*
X143273907Y-96013364D01*
X143091839Y-95937950D01*
X143091829Y-95937947D01*
X142898543Y-95899500D01*
X142898541Y-95899500D01*
X142701459Y-95899500D01*
X142701457Y-95899500D01*
X142508170Y-95937947D01*
X142508160Y-95937950D01*
X142326092Y-96013364D01*
X142326079Y-96013371D01*
X142162218Y-96122860D01*
X142162214Y-96122863D01*
X142022863Y-96262214D01*
X142022860Y-96262218D01*
X141913371Y-96426079D01*
X141913364Y-96426092D01*
X141837950Y-96608160D01*
X141837947Y-96608170D01*
X141799500Y-96801456D01*
X141799500Y-96801459D01*
X141799500Y-96998541D01*
X141799500Y-96998543D01*
X141799499Y-96998543D01*
X137291059Y-96998543D01*
X137279185Y-96990609D01*
X137279172Y-96990602D01*
X137133501Y-96930264D01*
X137133489Y-96930261D01*
X137066742Y-96916984D01*
X137066741Y-96916984D01*
X136978844Y-96899500D01*
X136978842Y-96899500D01*
X136821158Y-96899500D01*
X136821155Y-96899500D01*
X136666510Y-96930261D01*
X136666498Y-96930264D01*
X136520827Y-96990602D01*
X136520814Y-96990609D01*
X136389711Y-97078210D01*
X136389707Y-97078213D01*
X136278213Y-97189707D01*
X136278210Y-97189711D01*
X136190609Y-97320814D01*
X136190602Y-97320827D01*
X136130264Y-97466498D01*
X136130261Y-97466510D01*
X136099500Y-97621153D01*
X117128430Y-97621153D01*
X117222198Y-97527385D01*
X117559876Y-97189707D01*
X118084705Y-96664878D01*
X118111014Y-96625505D01*
X118122604Y-96608160D01*
X118181174Y-96520502D01*
X118181176Y-96520499D01*
X118215021Y-96438790D01*
X118247624Y-96360078D01*
X118273226Y-96231370D01*
X118281500Y-96189775D01*
X118281500Y-96016134D01*
X118281500Y-95174731D01*
X136292868Y-95174731D01*
X136292868Y-95332424D01*
X136323629Y-95487067D01*
X136323632Y-95487079D01*
X136383970Y-95632750D01*
X136383977Y-95632763D01*
X136471578Y-95763866D01*
X136471581Y-95763870D01*
X136583075Y-95875364D01*
X136583079Y-95875367D01*
X136714182Y-95962968D01*
X136714195Y-95962975D01*
X136856187Y-96021789D01*
X136859871Y-96023315D01*
X137006970Y-96052575D01*
X137014521Y-96054077D01*
X137014524Y-96054078D01*
X137014526Y-96054078D01*
X137172212Y-96054078D01*
X137172213Y-96054077D01*
X137248520Y-96038898D01*
X137326856Y-96023317D01*
X137326857Y-96023316D01*
X137326865Y-96023315D01*
X137340866Y-96017515D01*
X137388315Y-96008078D01*
X138465976Y-96008078D01*
X138465996Y-96008079D01*
X138472110Y-96008079D01*
X138620736Y-96008079D01*
X138653274Y-96001605D01*
X138742316Y-95983893D01*
X138766502Y-95979083D01*
X138865808Y-95937949D01*
X138903811Y-95922208D01*
X139027388Y-95839637D01*
X142624953Y-92242069D01*
X142665176Y-92215193D01*
X142679179Y-92209394D01*
X142810289Y-92121789D01*
X142921789Y-92010289D01*
X143009394Y-91879179D01*
X143069737Y-91733497D01*
X143100500Y-91578842D01*
X143100500Y-91421158D01*
X143100500Y-91421155D01*
X143100499Y-91421153D01*
X143069738Y-91266510D01*
X143069737Y-91266503D01*
X143061308Y-91246153D01*
X143009397Y-91120827D01*
X143009390Y-91120814D01*
X142921789Y-90989711D01*
X142921786Y-90989707D01*
X142810292Y-90878213D01*
X142810288Y-90878210D01*
X142679185Y-90790609D01*
X142679172Y-90790602D01*
X142533501Y-90730264D01*
X142533489Y-90730261D01*
X142378845Y-90699500D01*
X142378842Y-90699500D01*
X142221158Y-90699500D01*
X142221155Y-90699500D01*
X142066510Y-90730261D01*
X142066498Y-90730264D01*
X141920827Y-90790602D01*
X141920814Y-90790609D01*
X141789711Y-90878210D01*
X141789707Y-90878213D01*
X141678213Y-90989707D01*
X141678207Y-90989715D01*
X141590607Y-91120817D01*
X141584805Y-91134825D01*
X141557927Y-91175047D01*
X138270216Y-94462759D01*
X138208893Y-94496244D01*
X138182535Y-94499078D01*
X137388315Y-94499078D01*
X137340866Y-94489640D01*
X137326865Y-94483841D01*
X137326861Y-94483840D01*
X137326856Y-94483838D01*
X137172213Y-94453078D01*
X137172210Y-94453078D01*
X137014526Y-94453078D01*
X137014523Y-94453078D01*
X136859878Y-94483839D01*
X136859866Y-94483842D01*
X136714195Y-94544180D01*
X136714182Y-94544187D01*
X136583079Y-94631788D01*
X136583075Y-94631791D01*
X136471581Y-94743285D01*
X136471578Y-94743289D01*
X136383977Y-94874392D01*
X136383970Y-94874405D01*
X136323632Y-95020076D01*
X136323629Y-95020088D01*
X136292868Y-95174731D01*
X118281500Y-95174731D01*
X118281500Y-91246153D01*
X119399500Y-91246153D01*
X119399500Y-91403846D01*
X119430261Y-91558489D01*
X119430264Y-91558501D01*
X119490602Y-91704172D01*
X119490609Y-91704185D01*
X119578210Y-91835288D01*
X119578213Y-91835292D01*
X119689707Y-91946786D01*
X119689711Y-91946789D01*
X119820814Y-92034390D01*
X119820827Y-92034397D01*
X119929717Y-92079500D01*
X119966503Y-92094737D01*
X120102502Y-92121789D01*
X120121153Y-92125499D01*
X120121156Y-92125500D01*
X120121158Y-92125500D01*
X120278844Y-92125500D01*
X120278845Y-92125499D01*
X120396285Y-92102139D01*
X120433488Y-92094739D01*
X120433489Y-92094738D01*
X120433497Y-92094737D01*
X120447498Y-92088937D01*
X120494947Y-92079500D01*
X121015721Y-92079500D01*
X121082760Y-92099185D01*
X121084612Y-92100398D01*
X121251079Y-92211628D01*
X121251092Y-92211635D01*
X121433160Y-92287049D01*
X121433165Y-92287051D01*
X121433169Y-92287051D01*
X121433170Y-92287052D01*
X121626456Y-92325500D01*
X121626459Y-92325500D01*
X121823543Y-92325500D01*
X121953582Y-92299632D01*
X122016835Y-92287051D01*
X122198914Y-92211632D01*
X122362782Y-92102139D01*
X122502139Y-91962782D01*
X122611632Y-91798914D01*
X122687051Y-91616835D01*
X122725500Y-91423541D01*
X122725500Y-91226459D01*
X122725500Y-91226456D01*
X122687052Y-91033170D01*
X122687051Y-91033169D01*
X122687051Y-91033165D01*
X122681852Y-91020614D01*
X122611635Y-90851092D01*
X122611628Y-90851079D01*
X122502139Y-90687218D01*
X122502136Y-90687214D01*
X122362785Y-90547863D01*
X122362781Y-90547860D01*
X122198920Y-90438371D01*
X122198907Y-90438364D01*
X122016839Y-90362950D01*
X122016829Y-90362947D01*
X121823543Y-90324500D01*
X121823541Y-90324500D01*
X121626459Y-90324500D01*
X121626457Y-90324500D01*
X121433170Y-90362947D01*
X121433160Y-90362950D01*
X121251092Y-90438364D01*
X121251079Y-90438371D01*
X121084612Y-90549602D01*
X121017934Y-90570480D01*
X121015721Y-90570500D01*
X120494947Y-90570500D01*
X120447498Y-90561062D01*
X120433497Y-90555263D01*
X120433493Y-90555262D01*
X120433488Y-90555260D01*
X120278845Y-90524500D01*
X120278842Y-90524500D01*
X120121158Y-90524500D01*
X120121155Y-90524500D01*
X119966510Y-90555261D01*
X119966498Y-90555264D01*
X119820827Y-90615602D01*
X119820814Y-90615609D01*
X119689711Y-90703210D01*
X119689707Y-90703213D01*
X119578213Y-90814707D01*
X119578210Y-90814711D01*
X119490609Y-90945814D01*
X119490602Y-90945827D01*
X119430264Y-91091498D01*
X119430261Y-91091510D01*
X119399500Y-91246153D01*
X118281500Y-91246153D01*
X118281500Y-88813180D01*
X118281500Y-88813177D01*
X118247625Y-88642881D01*
X118247624Y-88642880D01*
X118247624Y-88642876D01*
X118237001Y-88617229D01*
X118181178Y-88482459D01*
X118181171Y-88482446D01*
X118084706Y-88338077D01*
X118084703Y-88338073D01*
X117961926Y-88215296D01*
X117961922Y-88215293D01*
X117817553Y-88118828D01*
X117817540Y-88118821D01*
X117657128Y-88052377D01*
X117657118Y-88052374D01*
X117486822Y-88018500D01*
X117486820Y-88018500D01*
X117313180Y-88018500D01*
X117313178Y-88018500D01*
X117142881Y-88052374D01*
X117142871Y-88052377D01*
X116982459Y-88118821D01*
X116982446Y-88118828D01*
X116838077Y-88215293D01*
X116838073Y-88215296D01*
X116715296Y-88338073D01*
X116715293Y-88338077D01*
X116618828Y-88482446D01*
X116618821Y-88482459D01*
X116552377Y-88642871D01*
X116552374Y-88642881D01*
X116518500Y-88813177D01*
X116518500Y-95686461D01*
X116498815Y-95753500D01*
X116482181Y-95774142D01*
X101246122Y-111010200D01*
X101184799Y-111043685D01*
X101115107Y-111038701D01*
X101059174Y-110996829D01*
X101047956Y-110978814D01*
X101045787Y-110974556D01*
X101045786Y-110974554D01*
X100960690Y-110857430D01*
X100928981Y-110813786D01*
X100788464Y-110673269D01*
X100627694Y-110556463D01*
X100471218Y-110476734D01*
X100420423Y-110428760D01*
X100403628Y-110360939D01*
X100426165Y-110294804D01*
X100471218Y-110255765D01*
X100627694Y-110176037D01*
X100788464Y-110059231D01*
X100928981Y-109918714D01*
X101045787Y-109757944D01*
X101136005Y-109580882D01*
X101197413Y-109391886D01*
X101228500Y-109195611D01*
X101228500Y-108996889D01*
X101197413Y-108800614D01*
X101136005Y-108611618D01*
X101136005Y-108611617D01*
X101045786Y-108434555D01*
X100928981Y-108273786D01*
X100788464Y-108133269D01*
X100627694Y-108016463D01*
X100471218Y-107936734D01*
X100420423Y-107888760D01*
X100403628Y-107820939D01*
X100426165Y-107754804D01*
X100471218Y-107715765D01*
X100627694Y-107636037D01*
X100788464Y-107519231D01*
X100928981Y-107378714D01*
X101045787Y-107217944D01*
X101136005Y-107040882D01*
X101197413Y-106851886D01*
X101228500Y-106655611D01*
X101228500Y-106456889D01*
X101197413Y-106260614D01*
X101136005Y-106071618D01*
X101136005Y-106071617D01*
X101045786Y-105894555D01*
X100949517Y-105762052D01*
X100928981Y-105733786D01*
X100788464Y-105593269D01*
X100627694Y-105476463D01*
X100471218Y-105396734D01*
X100420423Y-105348760D01*
X100403628Y-105280939D01*
X100426165Y-105214804D01*
X100471218Y-105175765D01*
X100627694Y-105096037D01*
X100788464Y-104979231D01*
X100928981Y-104838714D01*
X101045787Y-104677944D01*
X101136005Y-104500882D01*
X101197413Y-104311886D01*
X101228500Y-104115611D01*
X101228500Y-103916889D01*
X101197413Y-103720614D01*
X101136005Y-103531618D01*
X101136005Y-103531617D01*
X101045786Y-103354555D01*
X101021272Y-103320814D01*
X100928981Y-103193786D01*
X100788464Y-103053269D01*
X100627694Y-102936463D01*
X100471218Y-102856734D01*
X100420423Y-102808760D01*
X100403628Y-102740939D01*
X100426165Y-102674804D01*
X100471218Y-102635765D01*
X100627694Y-102556037D01*
X100788464Y-102439231D01*
X100928981Y-102298714D01*
X101045787Y-102137944D01*
X101136005Y-101960882D01*
X101197413Y-101771886D01*
X101228500Y-101575611D01*
X101228500Y-101376889D01*
X101197413Y-101180614D01*
X101136005Y-100991618D01*
X101136005Y-100991617D01*
X101045786Y-100814555D01*
X101035211Y-100800000D01*
X100928981Y-100653786D01*
X100788464Y-100513269D01*
X100627694Y-100396463D01*
X100471218Y-100316734D01*
X100420423Y-100268760D01*
X100403628Y-100200939D01*
X100426165Y-100134804D01*
X100471218Y-100095765D01*
X100627694Y-100016037D01*
X100788464Y-99899231D01*
X100928981Y-99758714D01*
X101045787Y-99597944D01*
X101136005Y-99420882D01*
X101197413Y-99231886D01*
X101228500Y-99035611D01*
X101228500Y-98836889D01*
X101197413Y-98640614D01*
X101136005Y-98451618D01*
X101136005Y-98451617D01*
X101090035Y-98361399D01*
X101045787Y-98274556D01*
X100928981Y-98113786D01*
X100788464Y-97973269D01*
X100627694Y-97856463D01*
X100471218Y-97776734D01*
X100420423Y-97728760D01*
X100403628Y-97660939D01*
X100426165Y-97594804D01*
X100471218Y-97555765D01*
X100627694Y-97476037D01*
X100788464Y-97359231D01*
X100928981Y-97218714D01*
X101045787Y-97057944D01*
X101136005Y-96880882D01*
X101197413Y-96691886D01*
X101228500Y-96495611D01*
X101228500Y-96296889D01*
X101197413Y-96100614D01*
X101152691Y-95962972D01*
X101136006Y-95911620D01*
X101136005Y-95911617D01*
X101090035Y-95821399D01*
X101045787Y-95734556D01*
X100928981Y-95573786D01*
X100788464Y-95433269D01*
X100627694Y-95316463D01*
X100471218Y-95236734D01*
X100420423Y-95188760D01*
X100403628Y-95120939D01*
X100426165Y-95054804D01*
X100471218Y-95015765D01*
X100627694Y-94936037D01*
X100788464Y-94819231D01*
X100928981Y-94678714D01*
X101045787Y-94517944D01*
X101136005Y-94340882D01*
X101197413Y-94151886D01*
X101228500Y-93955611D01*
X101228500Y-93756889D01*
X101197413Y-93560614D01*
X101136005Y-93371618D01*
X101136005Y-93371617D01*
X101045786Y-93194555D01*
X100928981Y-93033786D01*
X100788464Y-92893269D01*
X100627694Y-92776463D01*
X100471218Y-92696734D01*
X100420423Y-92648760D01*
X100403628Y-92580939D01*
X100426165Y-92514804D01*
X100471218Y-92475765D01*
X100627694Y-92396037D01*
X100788464Y-92279231D01*
X100928981Y-92138714D01*
X101045787Y-91977944D01*
X101136005Y-91800882D01*
X101136643Y-91798920D01*
X101157898Y-91733501D01*
X101197413Y-91611886D01*
X101228500Y-91415611D01*
X101228500Y-91216889D01*
X101197413Y-91020614D01*
X101143954Y-90856083D01*
X101136006Y-90831620D01*
X101136005Y-90831617D01*
X101070578Y-90703211D01*
X101045787Y-90654556D01*
X100928981Y-90493786D01*
X100788464Y-90353269D01*
X100627694Y-90236463D01*
X100471218Y-90156734D01*
X100420423Y-90108760D01*
X100403628Y-90040939D01*
X100426165Y-89974804D01*
X100471218Y-89935765D01*
X100627694Y-89856037D01*
X100788464Y-89739231D01*
X100928981Y-89598714D01*
X101045787Y-89437944D01*
X101136005Y-89260882D01*
X101197413Y-89071886D01*
X101228500Y-88875611D01*
X101228500Y-88676889D01*
X101197413Y-88480614D01*
X101136005Y-88291618D01*
X101136005Y-88291617D01*
X101075672Y-88173208D01*
X101045787Y-88114556D01*
X100928981Y-87953786D01*
X100788464Y-87813269D01*
X100627694Y-87696463D01*
X100471218Y-87616734D01*
X100420423Y-87568760D01*
X100403628Y-87500939D01*
X100426165Y-87434804D01*
X100471218Y-87395765D01*
X100627694Y-87316037D01*
X100788464Y-87199231D01*
X100928981Y-87058714D01*
X101045787Y-86897944D01*
X101136005Y-86720882D01*
X101197413Y-86531886D01*
X101228500Y-86335611D01*
X101228500Y-86136889D01*
X101197413Y-85940614D01*
X101151277Y-85798621D01*
X101136006Y-85751620D01*
X101136005Y-85751617D01*
X101045786Y-85574555D01*
X100986026Y-85492302D01*
X100928981Y-85413786D01*
X100788464Y-85273269D01*
X100627694Y-85156463D01*
X100471218Y-85076734D01*
X100420423Y-85028760D01*
X100403628Y-84960939D01*
X100426165Y-84894804D01*
X100471218Y-84855765D01*
X100627694Y-84776037D01*
X100788464Y-84659231D01*
X100928981Y-84518714D01*
X101045787Y-84357944D01*
X101136005Y-84180882D01*
X101197413Y-83991886D01*
X101228500Y-83795611D01*
X101228500Y-83596889D01*
X101197413Y-83400614D01*
X101136005Y-83211618D01*
X101136005Y-83211617D01*
X101090035Y-83121399D01*
X101045787Y-83034556D01*
X100928981Y-82873786D01*
X100788464Y-82733269D01*
X100627694Y-82616463D01*
X100471218Y-82536734D01*
X100420423Y-82488760D01*
X100403628Y-82420939D01*
X100426165Y-82354804D01*
X100471218Y-82315765D01*
X100627694Y-82236037D01*
X100788464Y-82119231D01*
X100928981Y-81978714D01*
X101045787Y-81817944D01*
X101136005Y-81640882D01*
X101197413Y-81451886D01*
X101228500Y-81255611D01*
X101228500Y-81056889D01*
X101197413Y-80860614D01*
X101138148Y-80678213D01*
X101136006Y-80671620D01*
X101136005Y-80671617D01*
X101064586Y-80531451D01*
X101045787Y-80494556D01*
X100928981Y-80333786D01*
X100788464Y-80193269D01*
X100627694Y-80076463D01*
X100471218Y-79996734D01*
X100420423Y-79948760D01*
X100403628Y-79880939D01*
X100426165Y-79814804D01*
X100471218Y-79775765D01*
X100627694Y-79696037D01*
X100788464Y-79579231D01*
X100928981Y-79438714D01*
X101045787Y-79277944D01*
X101136005Y-79100882D01*
X101197413Y-78911886D01*
X101228500Y-78715611D01*
X101228500Y-78516889D01*
X101197413Y-78320614D01*
X101136005Y-78131618D01*
X101136005Y-78131617D01*
X101090035Y-78041399D01*
X101045787Y-77954556D01*
X100928981Y-77793786D01*
X100788464Y-77653269D01*
X100627694Y-77536463D01*
X100471218Y-77456734D01*
X100420423Y-77408760D01*
X100403628Y-77340939D01*
X100426165Y-77274804D01*
X100471218Y-77235765D01*
X100627694Y-77156037D01*
X100788464Y-77039231D01*
X100928981Y-76898714D01*
X101045787Y-76737944D01*
X101136005Y-76560882D01*
X101197413Y-76371886D01*
X101228500Y-76175611D01*
X101228500Y-75976889D01*
X101197413Y-75780614D01*
X101170156Y-75696727D01*
X101156074Y-75653384D01*
X101145602Y-75621153D01*
X114699500Y-75621153D01*
X114699500Y-75778846D01*
X114730261Y-75933489D01*
X114730264Y-75933501D01*
X114790602Y-76079172D01*
X114790609Y-76079185D01*
X114878210Y-76210288D01*
X114878213Y-76210292D01*
X114989707Y-76321786D01*
X114989711Y-76321789D01*
X115120814Y-76409390D01*
X115120827Y-76409397D01*
X115266498Y-76469735D01*
X115266503Y-76469737D01*
X115421153Y-76500499D01*
X115421156Y-76500500D01*
X115421158Y-76500500D01*
X115578844Y-76500500D01*
X115578845Y-76500499D01*
X115733497Y-76469737D01*
X115879179Y-76409394D01*
X116010289Y-76321789D01*
X116121789Y-76210289D01*
X116209394Y-76079179D01*
X116269737Y-75933497D01*
X116300500Y-75778842D01*
X116300500Y-75621158D01*
X116300500Y-75621155D01*
X116300499Y-75621153D01*
X121299500Y-75621153D01*
X121299500Y-75778846D01*
X121330261Y-75933489D01*
X121330264Y-75933501D01*
X121390602Y-76079172D01*
X121390609Y-76079185D01*
X121478210Y-76210288D01*
X121478213Y-76210292D01*
X121589707Y-76321786D01*
X121589711Y-76321789D01*
X121720814Y-76409390D01*
X121720827Y-76409397D01*
X121866498Y-76469735D01*
X121866503Y-76469737D01*
X122021153Y-76500499D01*
X122021156Y-76500500D01*
X122021158Y-76500500D01*
X122178844Y-76500500D01*
X122178845Y-76500499D01*
X122333497Y-76469737D01*
X122479179Y-76409394D01*
X122610289Y-76321789D01*
X122721789Y-76210289D01*
X122809394Y-76079179D01*
X122869737Y-75933497D01*
X122900500Y-75778842D01*
X122900500Y-75721153D01*
X123299500Y-75721153D01*
X123299500Y-75878846D01*
X123330261Y-76033489D01*
X123330264Y-76033501D01*
X123390602Y-76179172D01*
X123390609Y-76179185D01*
X123478210Y-76310288D01*
X123478213Y-76310292D01*
X123589707Y-76421786D01*
X123589711Y-76421789D01*
X123720814Y-76509390D01*
X123720827Y-76509397D01*
X123845125Y-76560882D01*
X123866503Y-76569737D01*
X124021153Y-76600499D01*
X124021156Y-76600500D01*
X124021158Y-76600500D01*
X124178844Y-76600500D01*
X124178845Y-76600499D01*
X124333497Y-76569737D01*
X124479179Y-76509394D01*
X124610289Y-76421789D01*
X124721789Y-76310289D01*
X124809394Y-76179179D01*
X124869737Y-76033497D01*
X124900500Y-75878842D01*
X124900500Y-75721158D01*
X124900500Y-75721155D01*
X124884209Y-75639258D01*
X124884209Y-75639257D01*
X124880608Y-75621153D01*
X125699500Y-75621153D01*
X125699500Y-75778846D01*
X125730261Y-75933489D01*
X125730264Y-75933501D01*
X125790602Y-76079172D01*
X125790609Y-76079185D01*
X125878210Y-76210288D01*
X125878213Y-76210292D01*
X125989707Y-76321786D01*
X125989711Y-76321789D01*
X126120814Y-76409390D01*
X126120827Y-76409397D01*
X126266498Y-76469735D01*
X126266503Y-76469737D01*
X126421153Y-76500499D01*
X126421156Y-76500500D01*
X126421158Y-76500500D01*
X126578844Y-76500500D01*
X126578845Y-76500499D01*
X126733497Y-76469737D01*
X126879179Y-76409394D01*
X127010289Y-76321789D01*
X127121789Y-76210289D01*
X127209394Y-76079179D01*
X127269737Y-75933497D01*
X127300500Y-75778842D01*
X127300500Y-75621158D01*
X127300500Y-75621155D01*
X127300499Y-75621153D01*
X127269737Y-75466503D01*
X127248220Y-75414555D01*
X127209397Y-75320827D01*
X127209390Y-75320814D01*
X127121789Y-75189711D01*
X127121786Y-75189707D01*
X127010292Y-75078213D01*
X127010288Y-75078210D01*
X126879185Y-74990609D01*
X126879172Y-74990602D01*
X126733501Y-74930264D01*
X126733489Y-74930261D01*
X126578845Y-74899500D01*
X126578842Y-74899500D01*
X126421158Y-74899500D01*
X126421155Y-74899500D01*
X126266510Y-74930261D01*
X126266498Y-74930264D01*
X126120827Y-74990602D01*
X126120814Y-74990609D01*
X125989711Y-75078210D01*
X125989707Y-75078213D01*
X125878213Y-75189707D01*
X125878210Y-75189711D01*
X125790609Y-75320814D01*
X125790602Y-75320827D01*
X125730264Y-75466498D01*
X125730261Y-75466510D01*
X125699500Y-75621153D01*
X124880608Y-75621153D01*
X124874733Y-75591618D01*
X124869737Y-75566503D01*
X124838128Y-75490191D01*
X124809397Y-75420827D01*
X124809390Y-75420814D01*
X124721789Y-75289711D01*
X124721786Y-75289707D01*
X124610292Y-75178213D01*
X124610288Y-75178210D01*
X124479185Y-75090609D01*
X124479172Y-75090602D01*
X124333501Y-75030264D01*
X124333489Y-75030261D01*
X124178845Y-74999500D01*
X124178842Y-74999500D01*
X124021158Y-74999500D01*
X124021155Y-74999500D01*
X123866510Y-75030261D01*
X123866498Y-75030264D01*
X123720827Y-75090602D01*
X123720814Y-75090609D01*
X123589711Y-75178210D01*
X123589707Y-75178213D01*
X123478213Y-75289707D01*
X123478210Y-75289711D01*
X123390609Y-75420814D01*
X123390602Y-75420827D01*
X123330264Y-75566498D01*
X123330261Y-75566510D01*
X123299500Y-75721153D01*
X122900500Y-75721153D01*
X122900500Y-75621158D01*
X122900500Y-75621155D01*
X122900499Y-75621153D01*
X122869737Y-75466503D01*
X122848220Y-75414555D01*
X122809397Y-75320827D01*
X122809390Y-75320814D01*
X122721789Y-75189711D01*
X122721786Y-75189707D01*
X122610292Y-75078213D01*
X122610288Y-75078210D01*
X122479185Y-74990609D01*
X122479172Y-74990602D01*
X122333501Y-74930264D01*
X122333489Y-74930261D01*
X122178845Y-74899500D01*
X122178842Y-74899500D01*
X122021158Y-74899500D01*
X122021155Y-74899500D01*
X121866510Y-74930261D01*
X121866498Y-74930264D01*
X121720827Y-74990602D01*
X121720814Y-74990609D01*
X121589711Y-75078210D01*
X121589707Y-75078213D01*
X121478213Y-75189707D01*
X121478210Y-75189711D01*
X121390609Y-75320814D01*
X121390602Y-75320827D01*
X121330264Y-75466498D01*
X121330261Y-75466510D01*
X121299500Y-75621153D01*
X116300499Y-75621153D01*
X116269737Y-75466503D01*
X116248220Y-75414555D01*
X116209397Y-75320827D01*
X116209390Y-75320814D01*
X116121789Y-75189711D01*
X116121786Y-75189707D01*
X116010292Y-75078213D01*
X116010288Y-75078210D01*
X115879185Y-74990609D01*
X115879172Y-74990602D01*
X115733501Y-74930264D01*
X115733489Y-74930261D01*
X115578845Y-74899500D01*
X115578842Y-74899500D01*
X115421158Y-74899500D01*
X115421155Y-74899500D01*
X115266510Y-74930261D01*
X115266498Y-74930264D01*
X115120827Y-74990602D01*
X115120814Y-74990609D01*
X114989711Y-75078210D01*
X114989707Y-75078213D01*
X114878213Y-75189707D01*
X114878210Y-75189711D01*
X114790609Y-75320814D01*
X114790602Y-75320827D01*
X114730264Y-75466498D01*
X114730261Y-75466510D01*
X114699500Y-75621153D01*
X101145602Y-75621153D01*
X101136006Y-75591620D01*
X101136005Y-75591617D01*
X101048979Y-75420821D01*
X101045787Y-75414556D01*
X100928981Y-75253786D01*
X100788464Y-75113269D01*
X100627694Y-74996463D01*
X100471218Y-74916734D01*
X100420423Y-74868760D01*
X100403628Y-74800939D01*
X100426165Y-74734804D01*
X100471218Y-74695765D01*
X100627694Y-74616037D01*
X100788464Y-74499231D01*
X100928981Y-74358714D01*
X100941224Y-74341862D01*
X100996554Y-74299198D01*
X101041541Y-74290750D01*
X121183304Y-74290750D01*
X121183324Y-74290751D01*
X121189438Y-74290751D01*
X121338064Y-74290751D01*
X121374759Y-74283450D01*
X121459644Y-74266565D01*
X121483830Y-74261755D01*
X121540705Y-74238196D01*
X121621139Y-74204880D01*
X121744716Y-74122309D01*
X123324953Y-72542069D01*
X123365176Y-72515193D01*
X123379179Y-72509394D01*
X123510289Y-72421789D01*
X123621789Y-72310289D01*
X123709394Y-72179179D01*
X123769737Y-72033497D01*
X123800500Y-71878842D01*
X123800500Y-71721158D01*
X123800500Y-71721155D01*
X123800499Y-71721153D01*
X123769738Y-71566510D01*
X123769737Y-71566503D01*
X123769735Y-71566498D01*
X123709397Y-71420827D01*
X123709390Y-71420814D01*
X123621789Y-71289711D01*
X123621786Y-71289707D01*
X123510292Y-71178213D01*
X123510288Y-71178210D01*
X123379185Y-71090609D01*
X123379172Y-71090602D01*
X123233501Y-71030264D01*
X123233489Y-71030261D01*
X123078845Y-70999500D01*
X123078842Y-70999500D01*
X122921158Y-70999500D01*
X122921155Y-70999500D01*
X122766510Y-71030261D01*
X122766498Y-71030264D01*
X122620827Y-71090602D01*
X122620814Y-71090609D01*
X122489711Y-71178210D01*
X122489707Y-71178213D01*
X122378213Y-71289707D01*
X122378207Y-71289715D01*
X122290607Y-71420817D01*
X122284805Y-71434825D01*
X122257927Y-71475047D01*
X120987544Y-72745431D01*
X120926221Y-72778916D01*
X120899863Y-72781750D01*
X101041541Y-72781750D01*
X100974502Y-72762065D01*
X100941224Y-72730637D01*
X100928981Y-72713786D01*
X100788466Y-72573271D01*
X100788464Y-72573269D01*
X100627694Y-72456463D01*
X100471218Y-72376734D01*
X100420423Y-72328760D01*
X100403628Y-72260939D01*
X100426165Y-72194804D01*
X100471218Y-72155765D01*
X100627694Y-72076037D01*
X100762381Y-71978181D01*
X100828186Y-71954702D01*
X100835265Y-71954500D01*
X117211621Y-71954500D01*
X117259073Y-71963939D01*
X117345498Y-71999737D01*
X117345503Y-71999739D01*
X117500153Y-72030501D01*
X117500156Y-72030502D01*
X117500158Y-72030502D01*
X117657844Y-72030502D01*
X117657845Y-72030501D01*
X117812497Y-71999739D01*
X117958179Y-71939396D01*
X118089289Y-71851791D01*
X118200789Y-71740291D01*
X118288394Y-71609181D01*
X118348737Y-71463499D01*
X118379500Y-71308844D01*
X118379500Y-71151160D01*
X118379500Y-71151157D01*
X118379499Y-71151155D01*
X118348737Y-70996505D01*
X118307475Y-70896889D01*
X118288397Y-70850829D01*
X118288390Y-70850816D01*
X118200789Y-70719713D01*
X118200786Y-70719709D01*
X118089292Y-70608215D01*
X118089288Y-70608212D01*
X117958185Y-70520611D01*
X117958172Y-70520604D01*
X117812501Y-70460266D01*
X117812489Y-70460263D01*
X117657845Y-70429502D01*
X117657842Y-70429502D01*
X117500158Y-70429502D01*
X117500156Y-70429502D01*
X117453053Y-70438871D01*
X117431710Y-70443117D01*
X117407520Y-70445500D01*
X101178303Y-70445500D01*
X101111264Y-70425815D01*
X101067818Y-70377794D01*
X101045788Y-70334557D01*
X101016585Y-70294363D01*
X100928981Y-70173786D01*
X100788464Y-70033269D01*
X100627694Y-69916463D01*
X100471218Y-69836734D01*
X100420423Y-69788760D01*
X100403628Y-69720939D01*
X100426165Y-69654804D01*
X100471218Y-69615765D01*
X100627694Y-69536037D01*
X100788464Y-69419231D01*
X100928981Y-69278714D01*
X101045787Y-69117944D01*
X101136005Y-68940882D01*
X101197413Y-68751886D01*
X101228500Y-68555611D01*
X101228500Y-68356889D01*
X101197413Y-68160614D01*
X101136005Y-67971618D01*
X101136005Y-67971617D01*
X101056069Y-67814736D01*
X101045787Y-67794556D01*
X100928981Y-67633786D01*
X100788464Y-67493269D01*
X100627694Y-67376463D01*
X100471218Y-67296734D01*
X100420423Y-67248760D01*
X100403628Y-67180939D01*
X100426165Y-67114804D01*
X100471218Y-67075765D01*
X100627694Y-66996037D01*
X100788464Y-66879231D01*
X100928981Y-66738714D01*
X101045787Y-66577944D01*
X101136005Y-66400882D01*
X101197413Y-66211886D01*
X101228500Y-66015611D01*
X101228500Y-65816889D01*
X101197413Y-65620614D01*
X101136005Y-65431618D01*
X101084815Y-65331153D01*
X110999500Y-65331153D01*
X110999500Y-65488846D01*
X111030261Y-65643489D01*
X111030264Y-65643501D01*
X111090602Y-65789172D01*
X111090609Y-65789185D01*
X111178210Y-65920288D01*
X111178213Y-65920292D01*
X111289707Y-66031786D01*
X111289711Y-66031789D01*
X111420814Y-66119390D01*
X111420827Y-66119397D01*
X111566498Y-66179735D01*
X111566503Y-66179737D01*
X111721153Y-66210499D01*
X111721156Y-66210500D01*
X111721158Y-66210500D01*
X111878844Y-66210500D01*
X111878845Y-66210499D01*
X112033497Y-66179737D01*
X112179179Y-66119394D01*
X112310289Y-66031789D01*
X112421789Y-65920289D01*
X112509394Y-65789179D01*
X112569737Y-65643497D01*
X112600500Y-65488842D01*
X112600500Y-65331158D01*
X112600500Y-65331155D01*
X112600499Y-65331153D01*
X112585263Y-65254556D01*
X112569737Y-65176503D01*
X112569735Y-65176498D01*
X112509397Y-65030827D01*
X112509390Y-65030814D01*
X112421789Y-64899711D01*
X112421786Y-64899707D01*
X112310292Y-64788213D01*
X112310288Y-64788210D01*
X112179185Y-64700609D01*
X112179172Y-64700602D01*
X112033501Y-64640264D01*
X112033489Y-64640261D01*
X111878845Y-64609500D01*
X111878842Y-64609500D01*
X111721158Y-64609500D01*
X111721155Y-64609500D01*
X111566510Y-64640261D01*
X111566498Y-64640264D01*
X111420827Y-64700602D01*
X111420814Y-64700609D01*
X111289711Y-64788210D01*
X111289707Y-64788213D01*
X111178213Y-64899707D01*
X111178210Y-64899711D01*
X111090609Y-65030814D01*
X111090602Y-65030827D01*
X111030264Y-65176498D01*
X111030261Y-65176510D01*
X110999500Y-65331153D01*
X101084815Y-65331153D01*
X101045787Y-65254556D01*
X100928981Y-65093786D01*
X100788464Y-64953269D01*
X100627694Y-64836463D01*
X100450632Y-64746244D01*
X100450629Y-64746243D01*
X100261637Y-64684837D01*
X100141372Y-64665789D01*
X100065361Y-64653750D01*
X99866639Y-64653750D01*
X99801214Y-64664112D01*
X99670362Y-64684837D01*
X99481370Y-64746243D01*
X99481367Y-64746244D01*
X99304305Y-64836463D01*
X99143533Y-64953271D01*
X99003021Y-65093783D01*
X98886213Y-65254555D01*
X98806485Y-65411030D01*
X98758510Y-65461826D01*
X98690689Y-65478621D01*
X98624554Y-65456083D01*
X98585515Y-65411030D01*
X98566179Y-65373082D01*
X98505787Y-65254556D01*
X98388981Y-65093786D01*
X98248464Y-64953269D01*
X98087694Y-64836463D01*
X97910632Y-64746244D01*
X97910629Y-64746243D01*
X97721637Y-64684837D01*
X97601372Y-64665789D01*
X97525361Y-64653750D01*
X97326639Y-64653750D01*
X97261214Y-64664112D01*
X97130362Y-64684837D01*
X96941370Y-64746243D01*
X96941367Y-64746244D01*
X96764305Y-64836463D01*
X96603533Y-64953271D01*
X96463021Y-65093783D01*
X96346213Y-65254555D01*
X96255994Y-65431617D01*
X96255993Y-65431620D01*
X96194587Y-65620612D01*
X96163500Y-65816889D01*
X96163500Y-66015610D01*
X96194587Y-66211887D01*
X96255993Y-66400879D01*
X96255994Y-66400882D01*
X96346213Y-66577944D01*
X96463019Y-66738714D01*
X96603536Y-66879231D01*
X96764306Y-66996037D01*
X96882832Y-67056429D01*
X96920780Y-67075765D01*
X96971576Y-67123740D01*
X96988371Y-67191561D01*
X96965833Y-67257696D01*
X96920780Y-67296735D01*
X96764305Y-67376463D01*
X96603533Y-67493271D01*
X96463021Y-67633783D01*
X96346213Y-67794555D01*
X96255994Y-67971617D01*
X96255993Y-67971620D01*
X96194587Y-68160612D01*
X96163500Y-68356889D01*
X96163500Y-68555610D01*
X96194587Y-68751887D01*
X96255993Y-68940879D01*
X96255994Y-68940882D01*
X96346213Y-69117944D01*
X96463019Y-69278714D01*
X96603536Y-69419231D01*
X96764306Y-69536037D01*
X96882832Y-69596429D01*
X96920780Y-69615765D01*
X96971576Y-69663740D01*
X96988371Y-69731561D01*
X96965833Y-69797696D01*
X96920780Y-69836735D01*
X96764305Y-69916463D01*
X96603533Y-70033271D01*
X96463021Y-70173783D01*
X96346213Y-70334555D01*
X96255994Y-70511617D01*
X96255993Y-70511620D01*
X96194587Y-70700612D01*
X96163500Y-70896889D01*
X96163500Y-71095610D01*
X96194587Y-71291887D01*
X96255993Y-71480879D01*
X96255994Y-71480882D01*
X96321363Y-71609174D01*
X96346213Y-71657944D01*
X96463019Y-71818714D01*
X96603536Y-71959231D01*
X96764306Y-72076037D01*
X96882832Y-72136429D01*
X96920780Y-72155765D01*
X96971576Y-72203740D01*
X96988371Y-72271561D01*
X96965833Y-72337696D01*
X96920780Y-72376735D01*
X96764305Y-72456463D01*
X96603533Y-72573271D01*
X96463021Y-72713783D01*
X96346213Y-72874555D01*
X96255994Y-73051617D01*
X96255993Y-73051620D01*
X96194587Y-73240612D01*
X96163500Y-73436889D01*
X96163500Y-73635610D01*
X96194587Y-73831887D01*
X96255993Y-74020879D01*
X96255994Y-74020882D01*
X96346213Y-74197944D01*
X96463019Y-74358714D01*
X96603536Y-74499231D01*
X96764306Y-74616037D01*
X96882832Y-74676429D01*
X96920780Y-74695765D01*
X96971576Y-74743740D01*
X96988371Y-74811561D01*
X96965833Y-74877696D01*
X96920780Y-74916735D01*
X96764305Y-74996463D01*
X96603533Y-75113271D01*
X96463018Y-75253786D01*
X96450776Y-75270637D01*
X96395446Y-75313302D01*
X96350459Y-75321750D01*
X81908196Y-75321750D01*
X81908176Y-75321749D01*
X81902062Y-75321749D01*
X81753438Y-75321749D01*
X81753436Y-75321749D01*
X81631855Y-75345934D01*
X81607670Y-75350745D01*
X81470358Y-75407621D01*
X81346785Y-75490189D01*
X81346784Y-75490190D01*
X81294238Y-75542737D01*
X81241691Y-75595284D01*
X68877794Y-87959181D01*
X68816471Y-87992666D01*
X68790113Y-87995500D01*
X68057619Y-87995500D01*
X67990580Y-87975815D01*
X67944825Y-87923011D01*
X67934881Y-87853853D01*
X67947134Y-87815206D01*
X67998827Y-87713750D01*
X68019873Y-87672445D01*
X68073402Y-87507701D01*
X68100500Y-87336611D01*
X68100500Y-87163389D01*
X68073402Y-86992299D01*
X68019873Y-86827555D01*
X67941232Y-86673212D01*
X67868339Y-86572884D01*
X67844860Y-86507080D01*
X67860685Y-86439026D01*
X67868334Y-86427121D01*
X67941232Y-86326788D01*
X68019873Y-86172445D01*
X68073402Y-86007701D01*
X68100500Y-85836611D01*
X68100500Y-85663389D01*
X68073402Y-85492299D01*
X68019873Y-85327555D01*
X67941232Y-85173212D01*
X67868339Y-85072884D01*
X67844860Y-85007080D01*
X67860685Y-84939026D01*
X67868334Y-84927121D01*
X67941232Y-84826788D01*
X68019873Y-84672445D01*
X68073402Y-84507701D01*
X68100500Y-84336611D01*
X68100500Y-84163389D01*
X68073402Y-83992299D01*
X68019873Y-83827555D01*
X67941232Y-83673212D01*
X67868030Y-83572459D01*
X67844551Y-83506653D01*
X67860376Y-83438599D01*
X67868031Y-83426688D01*
X67940803Y-83326525D01*
X68019408Y-83172257D01*
X68072914Y-83007584D01*
X68100000Y-82836571D01*
X68100000Y-82663428D01*
X68072914Y-82492415D01*
X68019408Y-82327742D01*
X67940804Y-82173475D01*
X67868030Y-82073309D01*
X67844551Y-82007502D01*
X67860377Y-81939448D01*
X67868021Y-81927552D01*
X67941232Y-81826788D01*
X68019873Y-81672445D01*
X68073402Y-81507701D01*
X68100500Y-81336611D01*
X68100500Y-81163389D01*
X68073402Y-80992299D01*
X68019873Y-80827555D01*
X67941232Y-80673212D01*
X67868339Y-80572884D01*
X67844860Y-80507080D01*
X67860685Y-80439026D01*
X67868334Y-80427121D01*
X67941232Y-80326788D01*
X68019873Y-80172445D01*
X68073402Y-80007701D01*
X68100500Y-79836611D01*
X68100500Y-79663389D01*
X68073402Y-79492299D01*
X68019873Y-79327555D01*
X67941232Y-79173212D01*
X67868339Y-79072884D01*
X67844860Y-79007080D01*
X67860685Y-78939026D01*
X67868334Y-78927121D01*
X67941232Y-78826788D01*
X68019873Y-78672445D01*
X68073402Y-78507701D01*
X68100500Y-78336611D01*
X68100500Y-78163389D01*
X68073402Y-77992299D01*
X68019873Y-77827555D01*
X67941232Y-77673212D01*
X67868339Y-77572884D01*
X67844860Y-77507080D01*
X67860685Y-77439026D01*
X67868334Y-77427121D01*
X67941232Y-77326788D01*
X68019873Y-77172445D01*
X68073402Y-77007701D01*
X68100500Y-76836611D01*
X68100500Y-76663389D01*
X68073402Y-76492299D01*
X68019873Y-76327555D01*
X67941232Y-76173212D01*
X67839414Y-76033072D01*
X67716928Y-75910586D01*
X67576788Y-75808768D01*
X67422445Y-75730127D01*
X67257701Y-75676598D01*
X67257699Y-75676597D01*
X67257698Y-75676597D01*
X67126271Y-75655781D01*
X67086611Y-75649500D01*
X66913389Y-75649500D01*
X66873728Y-75655781D01*
X66742302Y-75676597D01*
X66577552Y-75730128D01*
X66423211Y-75808768D01*
X66343256Y-75866859D01*
X66283072Y-75910586D01*
X66283070Y-75910588D01*
X66283069Y-75910588D01*
X66160588Y-76033069D01*
X66160588Y-76033070D01*
X66160586Y-76033072D01*
X66127092Y-76079172D01*
X66058768Y-76173211D01*
X65980128Y-76327552D01*
X65926597Y-76492302D01*
X65899500Y-76663389D01*
X65899500Y-76836611D01*
X65926598Y-77007701D01*
X65980127Y-77172445D01*
X66049023Y-77307663D01*
X66058770Y-77326791D01*
X66131659Y-77427115D01*
X66155139Y-77492921D01*
X66139313Y-77560975D01*
X66131659Y-77572885D01*
X66058770Y-77673208D01*
X65980128Y-77827552D01*
X65926597Y-77992302D01*
X65907793Y-78111030D01*
X65899500Y-78163389D01*
X65899500Y-78336611D01*
X65926598Y-78507701D01*
X65980127Y-78672445D01*
X66002120Y-78715610D01*
X66058770Y-78826791D01*
X66131659Y-78927115D01*
X66155139Y-78992921D01*
X66139313Y-79060975D01*
X66131659Y-79072885D01*
X66058770Y-79173208D01*
X65980128Y-79327552D01*
X65926597Y-79492302D01*
X65912830Y-79579228D01*
X65899500Y-79663389D01*
X65899500Y-79836611D01*
X65906174Y-79878750D01*
X65923199Y-79986245D01*
X65926598Y-80007701D01*
X65948940Y-80076463D01*
X65980128Y-80172447D01*
X66058767Y-80326787D01*
X66066763Y-80337792D01*
X66090242Y-80403599D01*
X66074416Y-80471653D01*
X66024310Y-80520347D01*
X65955832Y-80534222D01*
X65939543Y-80531089D01*
X65939472Y-80531451D01*
X65778845Y-80499500D01*
X65778842Y-80499500D01*
X65621158Y-80499500D01*
X65621155Y-80499500D01*
X65466510Y-80530261D01*
X65466498Y-80530264D01*
X65320827Y-80590602D01*
X65320814Y-80590609D01*
X65189711Y-80678210D01*
X65189707Y-80678213D01*
X65078213Y-80789707D01*
X65078210Y-80789711D01*
X64990609Y-80920814D01*
X64990602Y-80920827D01*
X64930264Y-81066498D01*
X64930261Y-81066510D01*
X64899500Y-81221153D01*
X57375500Y-81221153D01*
X57375500Y-66069709D01*
X67294500Y-66069709D01*
X67294500Y-66330291D01*
X67335264Y-66587664D01*
X67415789Y-66835495D01*
X67534092Y-67067674D01*
X67687249Y-67278479D01*
X67687253Y-67278484D01*
X67871515Y-67462746D01*
X67871520Y-67462750D01*
X68055394Y-67596340D01*
X68082329Y-67615910D01*
X68230272Y-67691291D01*
X68314504Y-67734210D01*
X68314506Y-67734210D01*
X68314509Y-67734212D01*
X68562336Y-67814736D01*
X68819709Y-67855500D01*
X68819710Y-67855500D01*
X69080290Y-67855500D01*
X69080291Y-67855500D01*
X69337664Y-67814736D01*
X69585491Y-67734212D01*
X69817671Y-67615910D01*
X70028486Y-67462745D01*
X70212745Y-67278486D01*
X70365910Y-67067671D01*
X70484212Y-66835491D01*
X70564736Y-66587664D01*
X70605500Y-66330291D01*
X70605500Y-66069709D01*
X70564736Y-65812336D01*
X70484212Y-65564509D01*
X70484210Y-65564506D01*
X70484210Y-65564504D01*
X70406010Y-65411030D01*
X70365910Y-65332329D01*
X70289203Y-65226750D01*
X70212750Y-65121520D01*
X70212746Y-65121515D01*
X70028484Y-64937253D01*
X70028479Y-64937249D01*
X69817674Y-64784092D01*
X69817673Y-64784091D01*
X69817671Y-64784090D01*
X69743392Y-64746243D01*
X69585495Y-64665789D01*
X69337664Y-64585264D01*
X69080291Y-64544500D01*
X68819709Y-64544500D01*
X68691022Y-64564882D01*
X68562335Y-64585264D01*
X68314504Y-64665789D01*
X68082325Y-64784092D01*
X67871520Y-64937249D01*
X67871515Y-64937253D01*
X67687253Y-65121515D01*
X67687249Y-65121520D01*
X67534092Y-65332325D01*
X67415789Y-65564504D01*
X67342790Y-65789172D01*
X67335264Y-65812336D01*
X67294500Y-66069709D01*
X57375500Y-66069709D01*
X57375500Y-63254961D01*
X118435500Y-63254961D01*
X118435500Y-63497538D01*
X118467161Y-63738035D01*
X118529947Y-63972354D01*
X118622773Y-64196455D01*
X118622776Y-64196462D01*
X118744064Y-64406539D01*
X118744066Y-64406542D01*
X118744067Y-64406543D01*
X118891733Y-64598986D01*
X118891739Y-64598993D01*
X119063256Y-64770510D01*
X119063263Y-64770516D01*
X119149207Y-64836463D01*
X119255711Y-64918186D01*
X119465788Y-65039474D01*
X119689900Y-65132304D01*
X119924211Y-65195088D01*
X120104586Y-65218834D01*
X120164711Y-65226750D01*
X120164712Y-65226750D01*
X120407289Y-65226750D01*
X120455388Y-65220417D01*
X120647789Y-65195088D01*
X120882100Y-65132304D01*
X121106212Y-65039474D01*
X121316289Y-64918186D01*
X121508738Y-64770515D01*
X121680265Y-64598988D01*
X121827936Y-64406539D01*
X121949224Y-64196462D01*
X122042054Y-63972350D01*
X122104838Y-63738039D01*
X122136500Y-63497538D01*
X122136500Y-63254962D01*
X122104838Y-63014461D01*
X122042054Y-62780150D01*
X121949224Y-62556038D01*
X121827936Y-62345961D01*
X121680265Y-62153512D01*
X121680260Y-62153506D01*
X121508743Y-61981989D01*
X121508736Y-61981983D01*
X121316293Y-61834317D01*
X121316292Y-61834316D01*
X121316289Y-61834314D01*
X121106212Y-61713026D01*
X121106205Y-61713023D01*
X120882104Y-61620197D01*
X120647785Y-61557411D01*
X120407289Y-61525750D01*
X120407288Y-61525750D01*
X120164712Y-61525750D01*
X120164711Y-61525750D01*
X119924214Y-61557411D01*
X119689895Y-61620197D01*
X119465794Y-61713023D01*
X119465785Y-61713027D01*
X119255706Y-61834317D01*
X119063263Y-61981983D01*
X119063256Y-61981989D01*
X118891739Y-62153506D01*
X118891733Y-62153513D01*
X118744067Y-62345956D01*
X118622777Y-62556035D01*
X118622773Y-62556044D01*
X118529947Y-62780145D01*
X118467161Y-63014464D01*
X118435500Y-63254961D01*
X57375500Y-63254961D01*
X57375500Y-56934757D01*
X57377027Y-56915360D01*
X57378933Y-56903320D01*
X57387087Y-56851845D01*
X57399072Y-56814955D01*
X57423785Y-56766452D01*
X57446583Y-56735073D01*
X57485073Y-56696583D01*
X57516452Y-56673785D01*
X57564955Y-56649072D01*
X57601843Y-56637087D01*
X57656924Y-56628363D01*
X57665360Y-56627027D01*
X57684757Y-56625500D01*
X57740892Y-56625500D01*
X121989127Y-56625500D01*
X121998878Y-56628363D01*
G37*
G04 #@! TD.AperFunction*
G04 #@! TA.AperFunction,Conductor*
G36*
X159727446Y-86696415D02*
G01*
X159766484Y-86741468D01*
X159846213Y-86897944D01*
X159963019Y-87058714D01*
X160103536Y-87199231D01*
X160264306Y-87316037D01*
X160421332Y-87396046D01*
X160429639Y-87403891D01*
X160440305Y-87407988D01*
X160454577Y-87427444D01*
X160472127Y-87444019D01*
X160474874Y-87455112D01*
X160481632Y-87464325D01*
X160483120Y-87488411D01*
X160488922Y-87511840D01*
X160485236Y-87522655D01*
X160485941Y-87534061D01*
X160474170Y-87555129D01*
X160466385Y-87577975D01*
X160456557Y-87586654D01*
X160451863Y-87595057D01*
X160425904Y-87613725D01*
X160423405Y-87615933D01*
X160237381Y-87715181D01*
X160211239Y-87720602D01*
X160186089Y-87729576D01*
X160177549Y-87727590D01*
X160168967Y-87729370D01*
X160144045Y-87719798D01*
X160118036Y-87713750D01*
X160107548Y-87705781D01*
X160103743Y-87704320D01*
X160101372Y-87701088D01*
X160091331Y-87693459D01*
X159469149Y-87071276D01*
X159435664Y-87009953D01*
X159440648Y-86940261D01*
X159456514Y-86910707D01*
X159465787Y-86897944D01*
X159545515Y-86741468D01*
X159593490Y-86690673D01*
X159661311Y-86673878D01*
X159727446Y-86696415D01*
G37*
G04 #@! TD.AperFunction*
M02*
