G04 #@! TF.GenerationSoftware,KiCad,Pcbnew,9.0.5*
G04 #@! TF.CreationDate,2025-10-15T01:53:07-07:00*
G04 #@! TF.ProjectId,CAN_Sniffer_1.0,43414e5f-536e-4696-9666-65725f312e30,rev?*
G04 #@! TF.SameCoordinates,Original*
G04 #@! TF.FileFunction,Legend,Top*
G04 #@! TF.FilePolarity,Positive*
%FSLAX46Y46*%
G04 Gerber Fmt 4.6, Leading zero omitted, Abs format (unit mm)*
G04 Created by KiCad (PCBNEW 9.0.5) date 2025-10-15 01:53:07*
%MOMM*%
%LPD*%
G01*
G04 APERTURE LIST*
G04 Aperture macros list*
%AMRoundRect*
0 Rectangle with rounded corners*
0 $1 Rounding radius*
0 $2 $3 $4 $5 $6 $7 $8 $9 X,Y pos of 4 corners*
0 Add a 4 corners polygon primitive as box body*
4,1,4,$2,$3,$4,$5,$6,$7,$8,$9,$2,$3,0*
0 Add four circle primitives for the rounded corners*
1,1,$1+$1,$2,$3*
1,1,$1+$1,$4,$5*
1,1,$1+$1,$6,$7*
1,1,$1+$1,$8,$9*
0 Add four rect primitives between the rounded corners*
20,1,$1+$1,$2,$3,$4,$5,0*
20,1,$1+$1,$4,$5,$6,$7,0*
20,1,$1+$1,$6,$7,$8,$9,0*
20,1,$1+$1,$8,$9,$2,$3,0*%
G04 Aperture macros list end*
%ADD10C,0.203200*%
%ADD11C,0.150000*%
%ADD12C,0.254000*%
%ADD13C,0.120000*%
%ADD14C,0.100000*%
%ADD15C,0.200000*%
%ADD16C,0.152400*%
%ADD17C,0.000000*%
%ADD18C,0.127000*%
%ADD19RoundRect,0.237500X0.300000X0.237500X-0.300000X0.237500X-0.300000X-0.237500X0.300000X-0.237500X0*%
%ADD20RoundRect,0.250000X-0.650000X1.450000X-0.650000X-1.450000X0.650000X-1.450000X0.650000X1.450000X0*%
%ADD21RoundRect,0.237500X-0.250000X-0.237500X0.250000X-0.237500X0.250000X0.237500X-0.250000X0.237500X0*%
%ADD22RoundRect,0.250000X0.250000X-0.250000X0.250000X0.250000X-0.250000X0.250000X-0.250000X-0.250000X0*%
%ADD23RoundRect,0.237500X-0.237500X0.250000X-0.237500X-0.250000X0.237500X-0.250000X0.237500X0.250000X0*%
%ADD24C,1.000000*%
%ADD25RoundRect,0.155000X-0.212500X-0.155000X0.212500X-0.155000X0.212500X0.155000X-0.212500X0.155000X0*%
%ADD26RoundRect,0.237500X0.250000X0.237500X-0.250000X0.237500X-0.250000X-0.237500X0.250000X-0.237500X0*%
%ADD27RoundRect,0.150000X-0.825000X-0.150000X0.825000X-0.150000X0.825000X0.150000X-0.825000X0.150000X0*%
%ADD28RoundRect,0.250000X0.450000X-0.350000X0.450000X0.350000X-0.450000X0.350000X-0.450000X-0.350000X0*%
%ADD29RoundRect,0.250000X-1.500000X-0.650000X1.500000X-0.650000X1.500000X0.650000X-1.500000X0.650000X0*%
%ADD30RoundRect,0.250000X-0.475000X0.337500X-0.475000X-0.337500X0.475000X-0.337500X0.475000X0.337500X0*%
%ADD31RoundRect,0.150000X0.150000X-0.587500X0.150000X0.587500X-0.150000X0.587500X-0.150000X-0.587500X0*%
%ADD32RoundRect,0.237500X0.237500X-0.300000X0.237500X0.300000X-0.237500X0.300000X-0.237500X-0.300000X0*%
%ADD33RoundRect,0.250000X-0.337500X-0.475000X0.337500X-0.475000X0.337500X0.475000X-0.337500X0.475000X0*%
%ADD34RoundRect,0.250000X0.337500X0.475000X-0.337500X0.475000X-0.337500X-0.475000X0.337500X-0.475000X0*%
%ADD35R,1.700000X1.700000*%
%ADD36C,1.700000*%
%ADD37RoundRect,0.250000X0.550000X-0.550000X0.550000X0.550000X-0.550000X0.550000X-0.550000X-0.550000X0*%
%ADD38C,1.600000*%
%ADD39R,2.000000X1.100000*%
%ADD40R,0.800000X0.800000*%
%ADD41C,1.200000*%
%ADD42C,2.310000*%
%ADD43RoundRect,0.237500X-0.237500X0.300000X-0.237500X-0.300000X0.237500X-0.300000X0.237500X0.300000X0*%
%ADD44R,2.000000X2.000000*%
%ADD45R,0.600000X1.550000*%
%ADD46R,3.100000X2.600000*%
%ADD47R,1.320800X0.558800*%
%ADD48RoundRect,0.250000X-0.650000X1.500000X-0.650000X-1.500000X0.650000X-1.500000X0.650000X1.500000X0*%
%ADD49RoundRect,0.237500X0.237500X-0.250000X0.237500X0.250000X-0.237500X0.250000X-0.237500X-0.250000X0*%
%ADD50RoundRect,0.250000X0.325000X0.450000X-0.325000X0.450000X-0.325000X-0.450000X0.325000X-0.450000X0*%
%ADD51C,3.250000*%
%ADD52R,1.500000X1.500000*%
%ADD53C,1.500000*%
%ADD54C,2.300000*%
%ADD55RoundRect,0.250000X-0.350000X-0.450000X0.350000X-0.450000X0.350000X0.450000X-0.350000X0.450000X0*%
%ADD56R,0.700000X1.100000*%
%ADD57R,0.900000X0.930000*%
%ADD58R,1.050000X0.780000*%
%ADD59R,1.140000X1.830000*%
%ADD60R,0.860000X2.800000*%
%ADD61R,0.700000X3.330000*%
%ADD62R,0.750000X1.200000*%
%ADD63RoundRect,0.237500X-0.300000X-0.237500X0.300000X-0.237500X0.300000X0.237500X-0.300000X0.237500X0*%
%ADD64R,0.400000X1.050000*%
%ADD65R,0.600000X0.200000*%
%ADD66C,3.200000*%
%ADD67RoundRect,0.102000X0.762000X0.762000X-0.762000X0.762000X-0.762000X-0.762000X0.762000X-0.762000X0*%
%ADD68C,1.728000*%
%ADD69RoundRect,0.160000X-0.197500X-0.160000X0.197500X-0.160000X0.197500X0.160000X-0.197500X0.160000X0*%
G04 APERTURE END LIST*
D10*
X62875833Y-64887343D02*
X62815357Y-64945401D01*
X62815357Y-64945401D02*
X62633928Y-65003458D01*
X62633928Y-65003458D02*
X62512976Y-65003458D01*
X62512976Y-65003458D02*
X62331547Y-64945401D01*
X62331547Y-64945401D02*
X62210595Y-64829286D01*
X62210595Y-64829286D02*
X62150118Y-64713172D01*
X62150118Y-64713172D02*
X62089642Y-64480943D01*
X62089642Y-64480943D02*
X62089642Y-64306772D01*
X62089642Y-64306772D02*
X62150118Y-64074543D01*
X62150118Y-64074543D02*
X62210595Y-63958429D01*
X62210595Y-63958429D02*
X62331547Y-63842315D01*
X62331547Y-63842315D02*
X62512976Y-63784258D01*
X62512976Y-63784258D02*
X62633928Y-63784258D01*
X62633928Y-63784258D02*
X62815357Y-63842315D01*
X62815357Y-63842315D02*
X62875833Y-63900372D01*
X63299166Y-63784258D02*
X64145833Y-63784258D01*
X64145833Y-63784258D02*
X63601547Y-65003458D01*
X60734258Y-100902618D02*
X60734258Y-100176904D01*
X61953458Y-100539761D02*
X60734258Y-100539761D01*
X61953458Y-99753571D02*
X60734258Y-99753571D01*
X60734258Y-99753571D02*
X60734258Y-99269761D01*
X60734258Y-99269761D02*
X60792315Y-99148809D01*
X60792315Y-99148809D02*
X60850372Y-99088332D01*
X60850372Y-99088332D02*
X60966486Y-99027856D01*
X60966486Y-99027856D02*
X61140658Y-99027856D01*
X61140658Y-99027856D02*
X61256772Y-99088332D01*
X61256772Y-99088332D02*
X61314829Y-99148809D01*
X61314829Y-99148809D02*
X61372886Y-99269761D01*
X61372886Y-99269761D02*
X61372886Y-99753571D01*
X60734258Y-98604523D02*
X60734258Y-97757856D01*
X60734258Y-97757856D02*
X61953458Y-98302142D01*
X59908333Y-114178458D02*
X59484999Y-113597886D01*
X59182618Y-114178458D02*
X59182618Y-112959258D01*
X59182618Y-112959258D02*
X59666428Y-112959258D01*
X59666428Y-112959258D02*
X59787380Y-113017315D01*
X59787380Y-113017315D02*
X59847857Y-113075372D01*
X59847857Y-113075372D02*
X59908333Y-113191486D01*
X59908333Y-113191486D02*
X59908333Y-113365658D01*
X59908333Y-113365658D02*
X59847857Y-113481772D01*
X59847857Y-113481772D02*
X59787380Y-113539829D01*
X59787380Y-113539829D02*
X59666428Y-113597886D01*
X59666428Y-113597886D02*
X59182618Y-113597886D01*
X60996904Y-112959258D02*
X60754999Y-112959258D01*
X60754999Y-112959258D02*
X60634047Y-113017315D01*
X60634047Y-113017315D02*
X60573571Y-113075372D01*
X60573571Y-113075372D02*
X60452618Y-113249543D01*
X60452618Y-113249543D02*
X60392142Y-113481772D01*
X60392142Y-113481772D02*
X60392142Y-113946229D01*
X60392142Y-113946229D02*
X60452618Y-114062343D01*
X60452618Y-114062343D02*
X60513095Y-114120401D01*
X60513095Y-114120401D02*
X60634047Y-114178458D01*
X60634047Y-114178458D02*
X60875952Y-114178458D01*
X60875952Y-114178458D02*
X60996904Y-114120401D01*
X60996904Y-114120401D02*
X61057380Y-114062343D01*
X61057380Y-114062343D02*
X61117857Y-113946229D01*
X61117857Y-113946229D02*
X61117857Y-113655943D01*
X61117857Y-113655943D02*
X61057380Y-113539829D01*
X61057380Y-113539829D02*
X60996904Y-113481772D01*
X60996904Y-113481772D02*
X60875952Y-113423715D01*
X60875952Y-113423715D02*
X60634047Y-113423715D01*
X60634047Y-113423715D02*
X60513095Y-113481772D01*
X60513095Y-113481772D02*
X60452618Y-113539829D01*
X60452618Y-113539829D02*
X60392142Y-113655943D01*
X140273458Y-129137381D02*
X139054258Y-129137381D01*
X139054258Y-129137381D02*
X139054258Y-128835000D01*
X139054258Y-128835000D02*
X139112315Y-128653571D01*
X139112315Y-128653571D02*
X139228429Y-128532619D01*
X139228429Y-128532619D02*
X139344543Y-128472142D01*
X139344543Y-128472142D02*
X139576772Y-128411666D01*
X139576772Y-128411666D02*
X139750943Y-128411666D01*
X139750943Y-128411666D02*
X139983172Y-128472142D01*
X139983172Y-128472142D02*
X140099286Y-128532619D01*
X140099286Y-128532619D02*
X140215401Y-128653571D01*
X140215401Y-128653571D02*
X140273458Y-128835000D01*
X140273458Y-128835000D02*
X140273458Y-129137381D01*
X139054258Y-127262619D02*
X139054258Y-127867381D01*
X139054258Y-127867381D02*
X139634829Y-127927857D01*
X139634829Y-127927857D02*
X139576772Y-127867381D01*
X139576772Y-127867381D02*
X139518715Y-127746428D01*
X139518715Y-127746428D02*
X139518715Y-127444047D01*
X139518715Y-127444047D02*
X139576772Y-127323095D01*
X139576772Y-127323095D02*
X139634829Y-127262619D01*
X139634829Y-127262619D02*
X139750943Y-127202142D01*
X139750943Y-127202142D02*
X140041229Y-127202142D01*
X140041229Y-127202142D02*
X140157343Y-127262619D01*
X140157343Y-127262619D02*
X140215401Y-127323095D01*
X140215401Y-127323095D02*
X140273458Y-127444047D01*
X140273458Y-127444047D02*
X140273458Y-127746428D01*
X140273458Y-127746428D02*
X140215401Y-127867381D01*
X140215401Y-127867381D02*
X140157343Y-127927857D01*
X130283571Y-131837343D02*
X130223095Y-131895401D01*
X130223095Y-131895401D02*
X130041666Y-131953458D01*
X130041666Y-131953458D02*
X129920714Y-131953458D01*
X129920714Y-131953458D02*
X129739285Y-131895401D01*
X129739285Y-131895401D02*
X129618333Y-131779286D01*
X129618333Y-131779286D02*
X129557856Y-131663172D01*
X129557856Y-131663172D02*
X129497380Y-131430943D01*
X129497380Y-131430943D02*
X129497380Y-131256772D01*
X129497380Y-131256772D02*
X129557856Y-131024543D01*
X129557856Y-131024543D02*
X129618333Y-130908429D01*
X129618333Y-130908429D02*
X129739285Y-130792315D01*
X129739285Y-130792315D02*
X129920714Y-130734258D01*
X129920714Y-130734258D02*
X130041666Y-130734258D01*
X130041666Y-130734258D02*
X130223095Y-130792315D01*
X130223095Y-130792315D02*
X130283571Y-130850372D01*
X130767380Y-130850372D02*
X130827856Y-130792315D01*
X130827856Y-130792315D02*
X130948809Y-130734258D01*
X130948809Y-130734258D02*
X131251190Y-130734258D01*
X131251190Y-130734258D02*
X131372142Y-130792315D01*
X131372142Y-130792315D02*
X131432618Y-130850372D01*
X131432618Y-130850372D02*
X131493095Y-130966486D01*
X131493095Y-130966486D02*
X131493095Y-131082601D01*
X131493095Y-131082601D02*
X131432618Y-131256772D01*
X131432618Y-131256772D02*
X130706904Y-131953458D01*
X130706904Y-131953458D02*
X131493095Y-131953458D01*
X132581666Y-131140658D02*
X132581666Y-131953458D01*
X132279285Y-130676201D02*
X131976904Y-131547058D01*
X131976904Y-131547058D02*
X132763095Y-131547058D01*
D11*
X122554819Y-77742857D02*
X122078628Y-78076190D01*
X122554819Y-78314285D02*
X121554819Y-78314285D01*
X121554819Y-78314285D02*
X121554819Y-77933333D01*
X121554819Y-77933333D02*
X121602438Y-77838095D01*
X121602438Y-77838095D02*
X121650057Y-77790476D01*
X121650057Y-77790476D02*
X121745295Y-77742857D01*
X121745295Y-77742857D02*
X121888152Y-77742857D01*
X121888152Y-77742857D02*
X121983390Y-77790476D01*
X121983390Y-77790476D02*
X122031009Y-77838095D01*
X122031009Y-77838095D02*
X122078628Y-77933333D01*
X122078628Y-77933333D02*
X122078628Y-78314285D01*
X122554819Y-76790476D02*
X122554819Y-77361904D01*
X122554819Y-77076190D02*
X121554819Y-77076190D01*
X121554819Y-77076190D02*
X121697676Y-77171428D01*
X121697676Y-77171428D02*
X121792914Y-77266666D01*
X121792914Y-77266666D02*
X121840533Y-77361904D01*
X121650057Y-76409523D02*
X121602438Y-76361904D01*
X121602438Y-76361904D02*
X121554819Y-76266666D01*
X121554819Y-76266666D02*
X121554819Y-76028571D01*
X121554819Y-76028571D02*
X121602438Y-75933333D01*
X121602438Y-75933333D02*
X121650057Y-75885714D01*
X121650057Y-75885714D02*
X121745295Y-75838095D01*
X121745295Y-75838095D02*
X121840533Y-75838095D01*
X121840533Y-75838095D02*
X121983390Y-75885714D01*
X121983390Y-75885714D02*
X122554819Y-76457142D01*
X122554819Y-76457142D02*
X122554819Y-75838095D01*
D10*
X107483571Y-58802343D02*
X107423095Y-58860401D01*
X107423095Y-58860401D02*
X107241666Y-58918458D01*
X107241666Y-58918458D02*
X107120714Y-58918458D01*
X107120714Y-58918458D02*
X106939285Y-58860401D01*
X106939285Y-58860401D02*
X106818333Y-58744286D01*
X106818333Y-58744286D02*
X106757856Y-58628172D01*
X106757856Y-58628172D02*
X106697380Y-58395943D01*
X106697380Y-58395943D02*
X106697380Y-58221772D01*
X106697380Y-58221772D02*
X106757856Y-57989543D01*
X106757856Y-57989543D02*
X106818333Y-57873429D01*
X106818333Y-57873429D02*
X106939285Y-57757315D01*
X106939285Y-57757315D02*
X107120714Y-57699258D01*
X107120714Y-57699258D02*
X107241666Y-57699258D01*
X107241666Y-57699258D02*
X107423095Y-57757315D01*
X107423095Y-57757315D02*
X107483571Y-57815372D01*
X108693095Y-58918458D02*
X107967380Y-58918458D01*
X108330237Y-58918458D02*
X108330237Y-57699258D01*
X108330237Y-57699258D02*
X108209285Y-57873429D01*
X108209285Y-57873429D02*
X108088333Y-57989543D01*
X108088333Y-57989543D02*
X107967380Y-58047601D01*
X109781666Y-58105658D02*
X109781666Y-58918458D01*
X109479285Y-57641201D02*
X109176904Y-58512058D01*
X109176904Y-58512058D02*
X109963095Y-58512058D01*
X59534258Y-73507380D02*
X59534258Y-72781666D01*
X60753458Y-73144523D02*
X59534258Y-73144523D01*
X60753458Y-72358333D02*
X59534258Y-72358333D01*
X59534258Y-72358333D02*
X59534258Y-71874523D01*
X59534258Y-71874523D02*
X59592315Y-71753571D01*
X59592315Y-71753571D02*
X59650372Y-71693094D01*
X59650372Y-71693094D02*
X59766486Y-71632618D01*
X59766486Y-71632618D02*
X59940658Y-71632618D01*
X59940658Y-71632618D02*
X60056772Y-71693094D01*
X60056772Y-71693094D02*
X60114829Y-71753571D01*
X60114829Y-71753571D02*
X60172886Y-71874523D01*
X60172886Y-71874523D02*
X60172886Y-72358333D01*
X59650372Y-71148809D02*
X59592315Y-71088333D01*
X59592315Y-71088333D02*
X59534258Y-70967380D01*
X59534258Y-70967380D02*
X59534258Y-70664999D01*
X59534258Y-70664999D02*
X59592315Y-70544047D01*
X59592315Y-70544047D02*
X59650372Y-70483571D01*
X59650372Y-70483571D02*
X59766486Y-70423094D01*
X59766486Y-70423094D02*
X59882601Y-70423094D01*
X59882601Y-70423094D02*
X60056772Y-70483571D01*
X60056772Y-70483571D02*
X60753458Y-71209285D01*
X60753458Y-71209285D02*
X60753458Y-70423094D01*
X59650372Y-69939285D02*
X59592315Y-69878809D01*
X59592315Y-69878809D02*
X59534258Y-69757856D01*
X59534258Y-69757856D02*
X59534258Y-69455475D01*
X59534258Y-69455475D02*
X59592315Y-69334523D01*
X59592315Y-69334523D02*
X59650372Y-69274047D01*
X59650372Y-69274047D02*
X59766486Y-69213570D01*
X59766486Y-69213570D02*
X59882601Y-69213570D01*
X59882601Y-69213570D02*
X60056772Y-69274047D01*
X60056772Y-69274047D02*
X60753458Y-69999761D01*
X60753458Y-69999761D02*
X60753458Y-69213570D01*
X147183571Y-95037343D02*
X147123095Y-95095401D01*
X147123095Y-95095401D02*
X146941666Y-95153458D01*
X146941666Y-95153458D02*
X146820714Y-95153458D01*
X146820714Y-95153458D02*
X146639285Y-95095401D01*
X146639285Y-95095401D02*
X146518333Y-94979286D01*
X146518333Y-94979286D02*
X146457856Y-94863172D01*
X146457856Y-94863172D02*
X146397380Y-94630943D01*
X146397380Y-94630943D02*
X146397380Y-94456772D01*
X146397380Y-94456772D02*
X146457856Y-94224543D01*
X146457856Y-94224543D02*
X146518333Y-94108429D01*
X146518333Y-94108429D02*
X146639285Y-93992315D01*
X146639285Y-93992315D02*
X146820714Y-93934258D01*
X146820714Y-93934258D02*
X146941666Y-93934258D01*
X146941666Y-93934258D02*
X147123095Y-93992315D01*
X147123095Y-93992315D02*
X147183571Y-94050372D01*
X148393095Y-95153458D02*
X147667380Y-95153458D01*
X148030237Y-95153458D02*
X148030237Y-93934258D01*
X148030237Y-93934258D02*
X147909285Y-94108429D01*
X147909285Y-94108429D02*
X147788333Y-94224543D01*
X147788333Y-94224543D02*
X147667380Y-94282601D01*
X148876904Y-94050372D02*
X148937380Y-93992315D01*
X148937380Y-93992315D02*
X149058333Y-93934258D01*
X149058333Y-93934258D02*
X149360714Y-93934258D01*
X149360714Y-93934258D02*
X149481666Y-93992315D01*
X149481666Y-93992315D02*
X149542142Y-94050372D01*
X149542142Y-94050372D02*
X149602619Y-94166486D01*
X149602619Y-94166486D02*
X149602619Y-94282601D01*
X149602619Y-94282601D02*
X149542142Y-94456772D01*
X149542142Y-94456772D02*
X148816428Y-95153458D01*
X148816428Y-95153458D02*
X149602619Y-95153458D01*
X64136071Y-133103458D02*
X63712737Y-132522886D01*
X63410356Y-133103458D02*
X63410356Y-131884258D01*
X63410356Y-131884258D02*
X63894166Y-131884258D01*
X63894166Y-131884258D02*
X64015118Y-131942315D01*
X64015118Y-131942315D02*
X64075595Y-132000372D01*
X64075595Y-132000372D02*
X64136071Y-132116486D01*
X64136071Y-132116486D02*
X64136071Y-132290658D01*
X64136071Y-132290658D02*
X64075595Y-132406772D01*
X64075595Y-132406772D02*
X64015118Y-132464829D01*
X64015118Y-132464829D02*
X63894166Y-132522886D01*
X63894166Y-132522886D02*
X63410356Y-132522886D01*
X65345595Y-133103458D02*
X64619880Y-133103458D01*
X64982737Y-133103458D02*
X64982737Y-131884258D01*
X64982737Y-131884258D02*
X64861785Y-132058429D01*
X64861785Y-132058429D02*
X64740833Y-132174543D01*
X64740833Y-132174543D02*
X64619880Y-132232601D01*
X66071309Y-132406772D02*
X65950357Y-132348715D01*
X65950357Y-132348715D02*
X65889880Y-132290658D01*
X65889880Y-132290658D02*
X65829404Y-132174543D01*
X65829404Y-132174543D02*
X65829404Y-132116486D01*
X65829404Y-132116486D02*
X65889880Y-132000372D01*
X65889880Y-132000372D02*
X65950357Y-131942315D01*
X65950357Y-131942315D02*
X66071309Y-131884258D01*
X66071309Y-131884258D02*
X66313214Y-131884258D01*
X66313214Y-131884258D02*
X66434166Y-131942315D01*
X66434166Y-131942315D02*
X66494642Y-132000372D01*
X66494642Y-132000372D02*
X66555119Y-132116486D01*
X66555119Y-132116486D02*
X66555119Y-132174543D01*
X66555119Y-132174543D02*
X66494642Y-132290658D01*
X66494642Y-132290658D02*
X66434166Y-132348715D01*
X66434166Y-132348715D02*
X66313214Y-132406772D01*
X66313214Y-132406772D02*
X66071309Y-132406772D01*
X66071309Y-132406772D02*
X65950357Y-132464829D01*
X65950357Y-132464829D02*
X65889880Y-132522886D01*
X65889880Y-132522886D02*
X65829404Y-132639001D01*
X65829404Y-132639001D02*
X65829404Y-132871229D01*
X65829404Y-132871229D02*
X65889880Y-132987343D01*
X65889880Y-132987343D02*
X65950357Y-133045401D01*
X65950357Y-133045401D02*
X66071309Y-133103458D01*
X66071309Y-133103458D02*
X66313214Y-133103458D01*
X66313214Y-133103458D02*
X66434166Y-133045401D01*
X66434166Y-133045401D02*
X66494642Y-132987343D01*
X66494642Y-132987343D02*
X66555119Y-132871229D01*
X66555119Y-132871229D02*
X66555119Y-132639001D01*
X66555119Y-132639001D02*
X66494642Y-132522886D01*
X66494642Y-132522886D02*
X66434166Y-132464829D01*
X66434166Y-132464829D02*
X66313214Y-132406772D01*
X77632380Y-117534258D02*
X77632380Y-118521229D01*
X77632380Y-118521229D02*
X77692857Y-118637343D01*
X77692857Y-118637343D02*
X77753333Y-118695401D01*
X77753333Y-118695401D02*
X77874285Y-118753458D01*
X77874285Y-118753458D02*
X78116190Y-118753458D01*
X78116190Y-118753458D02*
X78237142Y-118695401D01*
X78237142Y-118695401D02*
X78297619Y-118637343D01*
X78297619Y-118637343D02*
X78358095Y-118521229D01*
X78358095Y-118521229D02*
X78358095Y-117534258D01*
X79628095Y-118753458D02*
X78902380Y-118753458D01*
X79265237Y-118753458D02*
X79265237Y-117534258D01*
X79265237Y-117534258D02*
X79144285Y-117708429D01*
X79144285Y-117708429D02*
X79023333Y-117824543D01*
X79023333Y-117824543D02*
X78902380Y-117882601D01*
X127053458Y-118716428D02*
X126472886Y-119139762D01*
X127053458Y-119442143D02*
X125834258Y-119442143D01*
X125834258Y-119442143D02*
X125834258Y-118958333D01*
X125834258Y-118958333D02*
X125892315Y-118837381D01*
X125892315Y-118837381D02*
X125950372Y-118776904D01*
X125950372Y-118776904D02*
X126066486Y-118716428D01*
X126066486Y-118716428D02*
X126240658Y-118716428D01*
X126240658Y-118716428D02*
X126356772Y-118776904D01*
X126356772Y-118776904D02*
X126414829Y-118837381D01*
X126414829Y-118837381D02*
X126472886Y-118958333D01*
X126472886Y-118958333D02*
X126472886Y-119442143D01*
X125950372Y-118232619D02*
X125892315Y-118172143D01*
X125892315Y-118172143D02*
X125834258Y-118051190D01*
X125834258Y-118051190D02*
X125834258Y-117748809D01*
X125834258Y-117748809D02*
X125892315Y-117627857D01*
X125892315Y-117627857D02*
X125950372Y-117567381D01*
X125950372Y-117567381D02*
X126066486Y-117506904D01*
X126066486Y-117506904D02*
X126182601Y-117506904D01*
X126182601Y-117506904D02*
X126356772Y-117567381D01*
X126356772Y-117567381D02*
X127053458Y-118293095D01*
X127053458Y-118293095D02*
X127053458Y-117506904D01*
X126356772Y-116781190D02*
X126298715Y-116902142D01*
X126298715Y-116902142D02*
X126240658Y-116962619D01*
X126240658Y-116962619D02*
X126124543Y-117023095D01*
X126124543Y-117023095D02*
X126066486Y-117023095D01*
X126066486Y-117023095D02*
X125950372Y-116962619D01*
X125950372Y-116962619D02*
X125892315Y-116902142D01*
X125892315Y-116902142D02*
X125834258Y-116781190D01*
X125834258Y-116781190D02*
X125834258Y-116539285D01*
X125834258Y-116539285D02*
X125892315Y-116418333D01*
X125892315Y-116418333D02*
X125950372Y-116357857D01*
X125950372Y-116357857D02*
X126066486Y-116297380D01*
X126066486Y-116297380D02*
X126124543Y-116297380D01*
X126124543Y-116297380D02*
X126240658Y-116357857D01*
X126240658Y-116357857D02*
X126298715Y-116418333D01*
X126298715Y-116418333D02*
X126356772Y-116539285D01*
X126356772Y-116539285D02*
X126356772Y-116781190D01*
X126356772Y-116781190D02*
X126414829Y-116902142D01*
X126414829Y-116902142D02*
X126472886Y-116962619D01*
X126472886Y-116962619D02*
X126589001Y-117023095D01*
X126589001Y-117023095D02*
X126821229Y-117023095D01*
X126821229Y-117023095D02*
X126937343Y-116962619D01*
X126937343Y-116962619D02*
X126995401Y-116902142D01*
X126995401Y-116902142D02*
X127053458Y-116781190D01*
X127053458Y-116781190D02*
X127053458Y-116539285D01*
X127053458Y-116539285D02*
X126995401Y-116418333D01*
X126995401Y-116418333D02*
X126937343Y-116357857D01*
X126937343Y-116357857D02*
X126821229Y-116297380D01*
X126821229Y-116297380D02*
X126589001Y-116297380D01*
X126589001Y-116297380D02*
X126472886Y-116357857D01*
X126472886Y-116357857D02*
X126414829Y-116418333D01*
X126414829Y-116418333D02*
X126356772Y-116539285D01*
X140762618Y-80653458D02*
X140762618Y-79434258D01*
X140762618Y-79434258D02*
X141064999Y-79434258D01*
X141064999Y-79434258D02*
X141246428Y-79492315D01*
X141246428Y-79492315D02*
X141367380Y-79608429D01*
X141367380Y-79608429D02*
X141427857Y-79724543D01*
X141427857Y-79724543D02*
X141488333Y-79956772D01*
X141488333Y-79956772D02*
X141488333Y-80130943D01*
X141488333Y-80130943D02*
X141427857Y-80363172D01*
X141427857Y-80363172D02*
X141367380Y-80479286D01*
X141367380Y-80479286D02*
X141246428Y-80595401D01*
X141246428Y-80595401D02*
X141064999Y-80653458D01*
X141064999Y-80653458D02*
X140762618Y-80653458D01*
X142576904Y-79840658D02*
X142576904Y-80653458D01*
X142274523Y-79376201D02*
X141972142Y-80247058D01*
X141972142Y-80247058D02*
X142758333Y-80247058D01*
X83937343Y-127154166D02*
X83995401Y-127214642D01*
X83995401Y-127214642D02*
X84053458Y-127396071D01*
X84053458Y-127396071D02*
X84053458Y-127517023D01*
X84053458Y-127517023D02*
X83995401Y-127698452D01*
X83995401Y-127698452D02*
X83879286Y-127819404D01*
X83879286Y-127819404D02*
X83763172Y-127879881D01*
X83763172Y-127879881D02*
X83530943Y-127940357D01*
X83530943Y-127940357D02*
X83356772Y-127940357D01*
X83356772Y-127940357D02*
X83124543Y-127879881D01*
X83124543Y-127879881D02*
X83008429Y-127819404D01*
X83008429Y-127819404D02*
X82892315Y-127698452D01*
X82892315Y-127698452D02*
X82834258Y-127517023D01*
X82834258Y-127517023D02*
X82834258Y-127396071D01*
X82834258Y-127396071D02*
X82892315Y-127214642D01*
X82892315Y-127214642D02*
X82950372Y-127154166D01*
X84053458Y-125944642D02*
X84053458Y-126670357D01*
X84053458Y-126307500D02*
X82834258Y-126307500D01*
X82834258Y-126307500D02*
X83008429Y-126428452D01*
X83008429Y-126428452D02*
X83124543Y-126549404D01*
X83124543Y-126549404D02*
X83182601Y-126670357D01*
X140987618Y-110953458D02*
X140987618Y-109734258D01*
X140987618Y-109734258D02*
X141289999Y-109734258D01*
X141289999Y-109734258D02*
X141471428Y-109792315D01*
X141471428Y-109792315D02*
X141592380Y-109908429D01*
X141592380Y-109908429D02*
X141652857Y-110024543D01*
X141652857Y-110024543D02*
X141713333Y-110256772D01*
X141713333Y-110256772D02*
X141713333Y-110430943D01*
X141713333Y-110430943D02*
X141652857Y-110663172D01*
X141652857Y-110663172D02*
X141592380Y-110779286D01*
X141592380Y-110779286D02*
X141471428Y-110895401D01*
X141471428Y-110895401D02*
X141289999Y-110953458D01*
X141289999Y-110953458D02*
X140987618Y-110953458D01*
X142136666Y-109734258D02*
X142922857Y-109734258D01*
X142922857Y-109734258D02*
X142499523Y-110198715D01*
X142499523Y-110198715D02*
X142680952Y-110198715D01*
X142680952Y-110198715D02*
X142801904Y-110256772D01*
X142801904Y-110256772D02*
X142862380Y-110314829D01*
X142862380Y-110314829D02*
X142922857Y-110430943D01*
X142922857Y-110430943D02*
X142922857Y-110721229D01*
X142922857Y-110721229D02*
X142862380Y-110837343D01*
X142862380Y-110837343D02*
X142801904Y-110895401D01*
X142801904Y-110895401D02*
X142680952Y-110953458D01*
X142680952Y-110953458D02*
X142318095Y-110953458D01*
X142318095Y-110953458D02*
X142197142Y-110895401D01*
X142197142Y-110895401D02*
X142136666Y-110837343D01*
X138203458Y-112111666D02*
X137622886Y-112535000D01*
X138203458Y-112837381D02*
X136984258Y-112837381D01*
X136984258Y-112837381D02*
X136984258Y-112353571D01*
X136984258Y-112353571D02*
X137042315Y-112232619D01*
X137042315Y-112232619D02*
X137100372Y-112172142D01*
X137100372Y-112172142D02*
X137216486Y-112111666D01*
X137216486Y-112111666D02*
X137390658Y-112111666D01*
X137390658Y-112111666D02*
X137506772Y-112172142D01*
X137506772Y-112172142D02*
X137564829Y-112232619D01*
X137564829Y-112232619D02*
X137622886Y-112353571D01*
X137622886Y-112353571D02*
X137622886Y-112837381D01*
X136984258Y-110962619D02*
X136984258Y-111567381D01*
X136984258Y-111567381D02*
X137564829Y-111627857D01*
X137564829Y-111627857D02*
X137506772Y-111567381D01*
X137506772Y-111567381D02*
X137448715Y-111446428D01*
X137448715Y-111446428D02*
X137448715Y-111144047D01*
X137448715Y-111144047D02*
X137506772Y-111023095D01*
X137506772Y-111023095D02*
X137564829Y-110962619D01*
X137564829Y-110962619D02*
X137680943Y-110902142D01*
X137680943Y-110902142D02*
X137971229Y-110902142D01*
X137971229Y-110902142D02*
X138087343Y-110962619D01*
X138087343Y-110962619D02*
X138145401Y-111023095D01*
X138145401Y-111023095D02*
X138203458Y-111144047D01*
X138203458Y-111144047D02*
X138203458Y-111446428D01*
X138203458Y-111446428D02*
X138145401Y-111567381D01*
X138145401Y-111567381D02*
X138087343Y-111627857D01*
X70079047Y-113709572D02*
X69958095Y-113651515D01*
X69958095Y-113651515D02*
X69837142Y-113535401D01*
X69837142Y-113535401D02*
X69655714Y-113361229D01*
X69655714Y-113361229D02*
X69534761Y-113303172D01*
X69534761Y-113303172D02*
X69413809Y-113303172D01*
X69474285Y-113593458D02*
X69353333Y-113535401D01*
X69353333Y-113535401D02*
X69232380Y-113419286D01*
X69232380Y-113419286D02*
X69171904Y-113187058D01*
X69171904Y-113187058D02*
X69171904Y-112780658D01*
X69171904Y-112780658D02*
X69232380Y-112548429D01*
X69232380Y-112548429D02*
X69353333Y-112432315D01*
X69353333Y-112432315D02*
X69474285Y-112374258D01*
X69474285Y-112374258D02*
X69716190Y-112374258D01*
X69716190Y-112374258D02*
X69837142Y-112432315D01*
X69837142Y-112432315D02*
X69958095Y-112548429D01*
X69958095Y-112548429D02*
X70018571Y-112780658D01*
X70018571Y-112780658D02*
X70018571Y-113187058D01*
X70018571Y-113187058D02*
X69958095Y-113419286D01*
X69958095Y-113419286D02*
X69837142Y-113535401D01*
X69837142Y-113535401D02*
X69716190Y-113593458D01*
X69716190Y-113593458D02*
X69474285Y-113593458D01*
X71228095Y-113593458D02*
X70502380Y-113593458D01*
X70865237Y-113593458D02*
X70865237Y-112374258D01*
X70865237Y-112374258D02*
X70744285Y-112548429D01*
X70744285Y-112548429D02*
X70623333Y-112664543D01*
X70623333Y-112664543D02*
X70502380Y-112722601D01*
X64462343Y-71786666D02*
X64520401Y-71847142D01*
X64520401Y-71847142D02*
X64578458Y-72028571D01*
X64578458Y-72028571D02*
X64578458Y-72149523D01*
X64578458Y-72149523D02*
X64520401Y-72330952D01*
X64520401Y-72330952D02*
X64404286Y-72451904D01*
X64404286Y-72451904D02*
X64288172Y-72512381D01*
X64288172Y-72512381D02*
X64055943Y-72572857D01*
X64055943Y-72572857D02*
X63881772Y-72572857D01*
X63881772Y-72572857D02*
X63649543Y-72512381D01*
X63649543Y-72512381D02*
X63533429Y-72451904D01*
X63533429Y-72451904D02*
X63417315Y-72330952D01*
X63417315Y-72330952D02*
X63359258Y-72149523D01*
X63359258Y-72149523D02*
X63359258Y-72028571D01*
X63359258Y-72028571D02*
X63417315Y-71847142D01*
X63417315Y-71847142D02*
X63475372Y-71786666D01*
X63765658Y-70698095D02*
X64578458Y-70698095D01*
X63301201Y-71000476D02*
X64172058Y-71302857D01*
X64172058Y-71302857D02*
X64172058Y-70516666D01*
X139621071Y-118137343D02*
X139560595Y-118195401D01*
X139560595Y-118195401D02*
X139379166Y-118253458D01*
X139379166Y-118253458D02*
X139258214Y-118253458D01*
X139258214Y-118253458D02*
X139076785Y-118195401D01*
X139076785Y-118195401D02*
X138955833Y-118079286D01*
X138955833Y-118079286D02*
X138895356Y-117963172D01*
X138895356Y-117963172D02*
X138834880Y-117730943D01*
X138834880Y-117730943D02*
X138834880Y-117556772D01*
X138834880Y-117556772D02*
X138895356Y-117324543D01*
X138895356Y-117324543D02*
X138955833Y-117208429D01*
X138955833Y-117208429D02*
X139076785Y-117092315D01*
X139076785Y-117092315D02*
X139258214Y-117034258D01*
X139258214Y-117034258D02*
X139379166Y-117034258D01*
X139379166Y-117034258D02*
X139560595Y-117092315D01*
X139560595Y-117092315D02*
X139621071Y-117150372D01*
X140104880Y-117150372D02*
X140165356Y-117092315D01*
X140165356Y-117092315D02*
X140286309Y-117034258D01*
X140286309Y-117034258D02*
X140588690Y-117034258D01*
X140588690Y-117034258D02*
X140709642Y-117092315D01*
X140709642Y-117092315D02*
X140770118Y-117150372D01*
X140770118Y-117150372D02*
X140830595Y-117266486D01*
X140830595Y-117266486D02*
X140830595Y-117382601D01*
X140830595Y-117382601D02*
X140770118Y-117556772D01*
X140770118Y-117556772D02*
X140044404Y-118253458D01*
X140044404Y-118253458D02*
X140830595Y-118253458D01*
X141314404Y-117150372D02*
X141374880Y-117092315D01*
X141374880Y-117092315D02*
X141495833Y-117034258D01*
X141495833Y-117034258D02*
X141798214Y-117034258D01*
X141798214Y-117034258D02*
X141919166Y-117092315D01*
X141919166Y-117092315D02*
X141979642Y-117150372D01*
X141979642Y-117150372D02*
X142040119Y-117266486D01*
X142040119Y-117266486D02*
X142040119Y-117382601D01*
X142040119Y-117382601D02*
X141979642Y-117556772D01*
X141979642Y-117556772D02*
X141253928Y-118253458D01*
X141253928Y-118253458D02*
X142040119Y-118253458D01*
D11*
X119495833Y-113259580D02*
X119448214Y-113307200D01*
X119448214Y-113307200D02*
X119305357Y-113354819D01*
X119305357Y-113354819D02*
X119210119Y-113354819D01*
X119210119Y-113354819D02*
X119067262Y-113307200D01*
X119067262Y-113307200D02*
X118972024Y-113211961D01*
X118972024Y-113211961D02*
X118924405Y-113116723D01*
X118924405Y-113116723D02*
X118876786Y-112926247D01*
X118876786Y-112926247D02*
X118876786Y-112783390D01*
X118876786Y-112783390D02*
X118924405Y-112592914D01*
X118924405Y-112592914D02*
X118972024Y-112497676D01*
X118972024Y-112497676D02*
X119067262Y-112402438D01*
X119067262Y-112402438D02*
X119210119Y-112354819D01*
X119210119Y-112354819D02*
X119305357Y-112354819D01*
X119305357Y-112354819D02*
X119448214Y-112402438D01*
X119448214Y-112402438D02*
X119495833Y-112450057D01*
X119876786Y-112450057D02*
X119924405Y-112402438D01*
X119924405Y-112402438D02*
X120019643Y-112354819D01*
X120019643Y-112354819D02*
X120257738Y-112354819D01*
X120257738Y-112354819D02*
X120352976Y-112402438D01*
X120352976Y-112402438D02*
X120400595Y-112450057D01*
X120400595Y-112450057D02*
X120448214Y-112545295D01*
X120448214Y-112545295D02*
X120448214Y-112640533D01*
X120448214Y-112640533D02*
X120400595Y-112783390D01*
X120400595Y-112783390D02*
X119829167Y-113354819D01*
X119829167Y-113354819D02*
X120448214Y-113354819D01*
D10*
X88041667Y-111684258D02*
X88041667Y-112555115D01*
X88041667Y-112555115D02*
X87981190Y-112729286D01*
X87981190Y-112729286D02*
X87860238Y-112845401D01*
X87860238Y-112845401D02*
X87678809Y-112903458D01*
X87678809Y-112903458D02*
X87557857Y-112903458D01*
X88646428Y-112903458D02*
X88646428Y-111684258D01*
X88646428Y-111684258D02*
X89130238Y-111684258D01*
X89130238Y-111684258D02*
X89251190Y-111742315D01*
X89251190Y-111742315D02*
X89311667Y-111800372D01*
X89311667Y-111800372D02*
X89372143Y-111916486D01*
X89372143Y-111916486D02*
X89372143Y-112090658D01*
X89372143Y-112090658D02*
X89311667Y-112206772D01*
X89311667Y-112206772D02*
X89251190Y-112264829D01*
X89251190Y-112264829D02*
X89130238Y-112322886D01*
X89130238Y-112322886D02*
X88646428Y-112322886D01*
X90581667Y-112903458D02*
X89855952Y-112903458D01*
X90218809Y-112903458D02*
X90218809Y-111684258D01*
X90218809Y-111684258D02*
X90097857Y-111858429D01*
X90097857Y-111858429D02*
X89976905Y-111974543D01*
X89976905Y-111974543D02*
X89855952Y-112032601D01*
D11*
X119457142Y-121759580D02*
X119409523Y-121807200D01*
X119409523Y-121807200D02*
X119266666Y-121854819D01*
X119266666Y-121854819D02*
X119171428Y-121854819D01*
X119171428Y-121854819D02*
X119028571Y-121807200D01*
X119028571Y-121807200D02*
X118933333Y-121711961D01*
X118933333Y-121711961D02*
X118885714Y-121616723D01*
X118885714Y-121616723D02*
X118838095Y-121426247D01*
X118838095Y-121426247D02*
X118838095Y-121283390D01*
X118838095Y-121283390D02*
X118885714Y-121092914D01*
X118885714Y-121092914D02*
X118933333Y-120997676D01*
X118933333Y-120997676D02*
X119028571Y-120902438D01*
X119028571Y-120902438D02*
X119171428Y-120854819D01*
X119171428Y-120854819D02*
X119266666Y-120854819D01*
X119266666Y-120854819D02*
X119409523Y-120902438D01*
X119409523Y-120902438D02*
X119457142Y-120950057D01*
X120409523Y-121854819D02*
X119838095Y-121854819D01*
X120123809Y-121854819D02*
X120123809Y-120854819D01*
X120123809Y-120854819D02*
X120028571Y-120997676D01*
X120028571Y-120997676D02*
X119933333Y-121092914D01*
X119933333Y-121092914D02*
X119838095Y-121140533D01*
X120742857Y-120854819D02*
X121409523Y-120854819D01*
X121409523Y-120854819D02*
X120980952Y-121854819D01*
X119357142Y-128459580D02*
X119309523Y-128507200D01*
X119309523Y-128507200D02*
X119166666Y-128554819D01*
X119166666Y-128554819D02*
X119071428Y-128554819D01*
X119071428Y-128554819D02*
X118928571Y-128507200D01*
X118928571Y-128507200D02*
X118833333Y-128411961D01*
X118833333Y-128411961D02*
X118785714Y-128316723D01*
X118785714Y-128316723D02*
X118738095Y-128126247D01*
X118738095Y-128126247D02*
X118738095Y-127983390D01*
X118738095Y-127983390D02*
X118785714Y-127792914D01*
X118785714Y-127792914D02*
X118833333Y-127697676D01*
X118833333Y-127697676D02*
X118928571Y-127602438D01*
X118928571Y-127602438D02*
X119071428Y-127554819D01*
X119071428Y-127554819D02*
X119166666Y-127554819D01*
X119166666Y-127554819D02*
X119309523Y-127602438D01*
X119309523Y-127602438D02*
X119357142Y-127650057D01*
X119738095Y-127650057D02*
X119785714Y-127602438D01*
X119785714Y-127602438D02*
X119880952Y-127554819D01*
X119880952Y-127554819D02*
X120119047Y-127554819D01*
X120119047Y-127554819D02*
X120214285Y-127602438D01*
X120214285Y-127602438D02*
X120261904Y-127650057D01*
X120261904Y-127650057D02*
X120309523Y-127745295D01*
X120309523Y-127745295D02*
X120309523Y-127840533D01*
X120309523Y-127840533D02*
X120261904Y-127983390D01*
X120261904Y-127983390D02*
X119690476Y-128554819D01*
X119690476Y-128554819D02*
X120309523Y-128554819D01*
X120642857Y-127554819D02*
X121309523Y-127554819D01*
X121309523Y-127554819D02*
X120880952Y-128554819D01*
D10*
X144633571Y-89453458D02*
X144210237Y-88872886D01*
X143907856Y-89453458D02*
X143907856Y-88234258D01*
X143907856Y-88234258D02*
X144391666Y-88234258D01*
X144391666Y-88234258D02*
X144512618Y-88292315D01*
X144512618Y-88292315D02*
X144573095Y-88350372D01*
X144573095Y-88350372D02*
X144633571Y-88466486D01*
X144633571Y-88466486D02*
X144633571Y-88640658D01*
X144633571Y-88640658D02*
X144573095Y-88756772D01*
X144573095Y-88756772D02*
X144512618Y-88814829D01*
X144512618Y-88814829D02*
X144391666Y-88872886D01*
X144391666Y-88872886D02*
X143907856Y-88872886D01*
X145117380Y-88350372D02*
X145177856Y-88292315D01*
X145177856Y-88292315D02*
X145298809Y-88234258D01*
X145298809Y-88234258D02*
X145601190Y-88234258D01*
X145601190Y-88234258D02*
X145722142Y-88292315D01*
X145722142Y-88292315D02*
X145782618Y-88350372D01*
X145782618Y-88350372D02*
X145843095Y-88466486D01*
X145843095Y-88466486D02*
X145843095Y-88582601D01*
X145843095Y-88582601D02*
X145782618Y-88756772D01*
X145782618Y-88756772D02*
X145056904Y-89453458D01*
X145056904Y-89453458D02*
X145843095Y-89453458D01*
X146629285Y-88234258D02*
X146750238Y-88234258D01*
X146750238Y-88234258D02*
X146871190Y-88292315D01*
X146871190Y-88292315D02*
X146931666Y-88350372D01*
X146931666Y-88350372D02*
X146992142Y-88466486D01*
X146992142Y-88466486D02*
X147052619Y-88698715D01*
X147052619Y-88698715D02*
X147052619Y-88989001D01*
X147052619Y-88989001D02*
X146992142Y-89221229D01*
X146992142Y-89221229D02*
X146931666Y-89337343D01*
X146931666Y-89337343D02*
X146871190Y-89395401D01*
X146871190Y-89395401D02*
X146750238Y-89453458D01*
X146750238Y-89453458D02*
X146629285Y-89453458D01*
X146629285Y-89453458D02*
X146508333Y-89395401D01*
X146508333Y-89395401D02*
X146447857Y-89337343D01*
X146447857Y-89337343D02*
X146387380Y-89221229D01*
X146387380Y-89221229D02*
X146326904Y-88989001D01*
X146326904Y-88989001D02*
X146326904Y-88698715D01*
X146326904Y-88698715D02*
X146387380Y-88466486D01*
X146387380Y-88466486D02*
X146447857Y-88350372D01*
X146447857Y-88350372D02*
X146508333Y-88292315D01*
X146508333Y-88292315D02*
X146629285Y-88234258D01*
D11*
X127209580Y-112397970D02*
X127257200Y-112445589D01*
X127257200Y-112445589D02*
X127304819Y-112588446D01*
X127304819Y-112588446D02*
X127304819Y-112683684D01*
X127304819Y-112683684D02*
X127257200Y-112826541D01*
X127257200Y-112826541D02*
X127161961Y-112921779D01*
X127161961Y-112921779D02*
X127066723Y-112969398D01*
X127066723Y-112969398D02*
X126876247Y-113017017D01*
X126876247Y-113017017D02*
X126733390Y-113017017D01*
X126733390Y-113017017D02*
X126542914Y-112969398D01*
X126542914Y-112969398D02*
X126447676Y-112921779D01*
X126447676Y-112921779D02*
X126352438Y-112826541D01*
X126352438Y-112826541D02*
X126304819Y-112683684D01*
X126304819Y-112683684D02*
X126304819Y-112588446D01*
X126304819Y-112588446D02*
X126352438Y-112445589D01*
X126352438Y-112445589D02*
X126400057Y-112397970D01*
X127304819Y-111445589D02*
X127304819Y-112017017D01*
X127304819Y-111731303D02*
X126304819Y-111731303D01*
X126304819Y-111731303D02*
X126447676Y-111826541D01*
X126447676Y-111826541D02*
X126542914Y-111921779D01*
X126542914Y-111921779D02*
X126590533Y-112017017D01*
X126304819Y-111112255D02*
X126304819Y-110493208D01*
X126304819Y-110493208D02*
X126685771Y-110826541D01*
X126685771Y-110826541D02*
X126685771Y-110683684D01*
X126685771Y-110683684D02*
X126733390Y-110588446D01*
X126733390Y-110588446D02*
X126781009Y-110540827D01*
X126781009Y-110540827D02*
X126876247Y-110493208D01*
X126876247Y-110493208D02*
X127114342Y-110493208D01*
X127114342Y-110493208D02*
X127209580Y-110540827D01*
X127209580Y-110540827D02*
X127257200Y-110588446D01*
X127257200Y-110588446D02*
X127304819Y-110683684D01*
X127304819Y-110683684D02*
X127304819Y-110969398D01*
X127304819Y-110969398D02*
X127257200Y-111064636D01*
X127257200Y-111064636D02*
X127209580Y-111112255D01*
D10*
X130283571Y-129337343D02*
X130223095Y-129395401D01*
X130223095Y-129395401D02*
X130041666Y-129453458D01*
X130041666Y-129453458D02*
X129920714Y-129453458D01*
X129920714Y-129453458D02*
X129739285Y-129395401D01*
X129739285Y-129395401D02*
X129618333Y-129279286D01*
X129618333Y-129279286D02*
X129557856Y-129163172D01*
X129557856Y-129163172D02*
X129497380Y-128930943D01*
X129497380Y-128930943D02*
X129497380Y-128756772D01*
X129497380Y-128756772D02*
X129557856Y-128524543D01*
X129557856Y-128524543D02*
X129618333Y-128408429D01*
X129618333Y-128408429D02*
X129739285Y-128292315D01*
X129739285Y-128292315D02*
X129920714Y-128234258D01*
X129920714Y-128234258D02*
X130041666Y-128234258D01*
X130041666Y-128234258D02*
X130223095Y-128292315D01*
X130223095Y-128292315D02*
X130283571Y-128350372D01*
X131493095Y-129453458D02*
X130767380Y-129453458D01*
X131130237Y-129453458D02*
X131130237Y-128234258D01*
X131130237Y-128234258D02*
X131009285Y-128408429D01*
X131009285Y-128408429D02*
X130888333Y-128524543D01*
X130888333Y-128524543D02*
X130767380Y-128582601D01*
X132218809Y-128756772D02*
X132097857Y-128698715D01*
X132097857Y-128698715D02*
X132037380Y-128640658D01*
X132037380Y-128640658D02*
X131976904Y-128524543D01*
X131976904Y-128524543D02*
X131976904Y-128466486D01*
X131976904Y-128466486D02*
X132037380Y-128350372D01*
X132037380Y-128350372D02*
X132097857Y-128292315D01*
X132097857Y-128292315D02*
X132218809Y-128234258D01*
X132218809Y-128234258D02*
X132460714Y-128234258D01*
X132460714Y-128234258D02*
X132581666Y-128292315D01*
X132581666Y-128292315D02*
X132642142Y-128350372D01*
X132642142Y-128350372D02*
X132702619Y-128466486D01*
X132702619Y-128466486D02*
X132702619Y-128524543D01*
X132702619Y-128524543D02*
X132642142Y-128640658D01*
X132642142Y-128640658D02*
X132581666Y-128698715D01*
X132581666Y-128698715D02*
X132460714Y-128756772D01*
X132460714Y-128756772D02*
X132218809Y-128756772D01*
X132218809Y-128756772D02*
X132097857Y-128814829D01*
X132097857Y-128814829D02*
X132037380Y-128872886D01*
X132037380Y-128872886D02*
X131976904Y-128989001D01*
X131976904Y-128989001D02*
X131976904Y-129221229D01*
X131976904Y-129221229D02*
X132037380Y-129337343D01*
X132037380Y-129337343D02*
X132097857Y-129395401D01*
X132097857Y-129395401D02*
X132218809Y-129453458D01*
X132218809Y-129453458D02*
X132460714Y-129453458D01*
X132460714Y-129453458D02*
X132581666Y-129395401D01*
X132581666Y-129395401D02*
X132642142Y-129337343D01*
X132642142Y-129337343D02*
X132702619Y-129221229D01*
X132702619Y-129221229D02*
X132702619Y-128989001D01*
X132702619Y-128989001D02*
X132642142Y-128872886D01*
X132642142Y-128872886D02*
X132581666Y-128814829D01*
X132581666Y-128814829D02*
X132460714Y-128756772D01*
D12*
X140112618Y-75174318D02*
X140112618Y-73904318D01*
X140112618Y-73904318D02*
X140414999Y-73904318D01*
X140414999Y-73904318D02*
X140596428Y-73964794D01*
X140596428Y-73964794D02*
X140717380Y-74085746D01*
X140717380Y-74085746D02*
X140777857Y-74206699D01*
X140777857Y-74206699D02*
X140838333Y-74448603D01*
X140838333Y-74448603D02*
X140838333Y-74630032D01*
X140838333Y-74630032D02*
X140777857Y-74871937D01*
X140777857Y-74871937D02*
X140717380Y-74992889D01*
X140717380Y-74992889D02*
X140596428Y-75113842D01*
X140596428Y-75113842D02*
X140414999Y-75174318D01*
X140414999Y-75174318D02*
X140112618Y-75174318D01*
X141322142Y-74025270D02*
X141382618Y-73964794D01*
X141382618Y-73964794D02*
X141503571Y-73904318D01*
X141503571Y-73904318D02*
X141805952Y-73904318D01*
X141805952Y-73904318D02*
X141926904Y-73964794D01*
X141926904Y-73964794D02*
X141987380Y-74025270D01*
X141987380Y-74025270D02*
X142047857Y-74146222D01*
X142047857Y-74146222D02*
X142047857Y-74267175D01*
X142047857Y-74267175D02*
X141987380Y-74448603D01*
X141987380Y-74448603D02*
X141261666Y-75174318D01*
X141261666Y-75174318D02*
X142047857Y-75174318D01*
D10*
X140648571Y-93353458D02*
X140225237Y-92772886D01*
X139922856Y-93353458D02*
X139922856Y-92134258D01*
X139922856Y-92134258D02*
X140406666Y-92134258D01*
X140406666Y-92134258D02*
X140527618Y-92192315D01*
X140527618Y-92192315D02*
X140588095Y-92250372D01*
X140588095Y-92250372D02*
X140648571Y-92366486D01*
X140648571Y-92366486D02*
X140648571Y-92540658D01*
X140648571Y-92540658D02*
X140588095Y-92656772D01*
X140588095Y-92656772D02*
X140527618Y-92714829D01*
X140527618Y-92714829D02*
X140406666Y-92772886D01*
X140406666Y-92772886D02*
X139922856Y-92772886D01*
X141132380Y-92250372D02*
X141192856Y-92192315D01*
X141192856Y-92192315D02*
X141313809Y-92134258D01*
X141313809Y-92134258D02*
X141616190Y-92134258D01*
X141616190Y-92134258D02*
X141737142Y-92192315D01*
X141737142Y-92192315D02*
X141797618Y-92250372D01*
X141797618Y-92250372D02*
X141858095Y-92366486D01*
X141858095Y-92366486D02*
X141858095Y-92482601D01*
X141858095Y-92482601D02*
X141797618Y-92656772D01*
X141797618Y-92656772D02*
X141071904Y-93353458D01*
X141071904Y-93353458D02*
X141858095Y-93353458D01*
X142281428Y-92134258D02*
X143067619Y-92134258D01*
X143067619Y-92134258D02*
X142644285Y-92598715D01*
X142644285Y-92598715D02*
X142825714Y-92598715D01*
X142825714Y-92598715D02*
X142946666Y-92656772D01*
X142946666Y-92656772D02*
X143007142Y-92714829D01*
X143007142Y-92714829D02*
X143067619Y-92830943D01*
X143067619Y-92830943D02*
X143067619Y-93121229D01*
X143067619Y-93121229D02*
X143007142Y-93237343D01*
X143007142Y-93237343D02*
X142946666Y-93295401D01*
X142946666Y-93295401D02*
X142825714Y-93353458D01*
X142825714Y-93353458D02*
X142462857Y-93353458D01*
X142462857Y-93353458D02*
X142341904Y-93295401D01*
X142341904Y-93295401D02*
X142281428Y-93237343D01*
D11*
X119457142Y-123959580D02*
X119409523Y-124007200D01*
X119409523Y-124007200D02*
X119266666Y-124054819D01*
X119266666Y-124054819D02*
X119171428Y-124054819D01*
X119171428Y-124054819D02*
X119028571Y-124007200D01*
X119028571Y-124007200D02*
X118933333Y-123911961D01*
X118933333Y-123911961D02*
X118885714Y-123816723D01*
X118885714Y-123816723D02*
X118838095Y-123626247D01*
X118838095Y-123626247D02*
X118838095Y-123483390D01*
X118838095Y-123483390D02*
X118885714Y-123292914D01*
X118885714Y-123292914D02*
X118933333Y-123197676D01*
X118933333Y-123197676D02*
X119028571Y-123102438D01*
X119028571Y-123102438D02*
X119171428Y-123054819D01*
X119171428Y-123054819D02*
X119266666Y-123054819D01*
X119266666Y-123054819D02*
X119409523Y-123102438D01*
X119409523Y-123102438D02*
X119457142Y-123150057D01*
X120409523Y-124054819D02*
X119838095Y-124054819D01*
X120123809Y-124054819D02*
X120123809Y-123054819D01*
X120123809Y-123054819D02*
X120028571Y-123197676D01*
X120028571Y-123197676D02*
X119933333Y-123292914D01*
X119933333Y-123292914D02*
X119838095Y-123340533D01*
X120885714Y-124054819D02*
X121076190Y-124054819D01*
X121076190Y-124054819D02*
X121171428Y-124007200D01*
X121171428Y-124007200D02*
X121219047Y-123959580D01*
X121219047Y-123959580D02*
X121314285Y-123816723D01*
X121314285Y-123816723D02*
X121361904Y-123626247D01*
X121361904Y-123626247D02*
X121361904Y-123245295D01*
X121361904Y-123245295D02*
X121314285Y-123150057D01*
X121314285Y-123150057D02*
X121266666Y-123102438D01*
X121266666Y-123102438D02*
X121171428Y-123054819D01*
X121171428Y-123054819D02*
X120980952Y-123054819D01*
X120980952Y-123054819D02*
X120885714Y-123102438D01*
X120885714Y-123102438D02*
X120838095Y-123150057D01*
X120838095Y-123150057D02*
X120790476Y-123245295D01*
X120790476Y-123245295D02*
X120790476Y-123483390D01*
X120790476Y-123483390D02*
X120838095Y-123578628D01*
X120838095Y-123578628D02*
X120885714Y-123626247D01*
X120885714Y-123626247D02*
X120980952Y-123673866D01*
X120980952Y-123673866D02*
X121171428Y-123673866D01*
X121171428Y-123673866D02*
X121266666Y-123626247D01*
X121266666Y-123626247D02*
X121314285Y-123578628D01*
X121314285Y-123578628D02*
X121361904Y-123483390D01*
D10*
X65257856Y-60753458D02*
X65257856Y-59534258D01*
X65257856Y-59534258D02*
X65560237Y-59534258D01*
X65560237Y-59534258D02*
X65741666Y-59592315D01*
X65741666Y-59592315D02*
X65862618Y-59708429D01*
X65862618Y-59708429D02*
X65923095Y-59824543D01*
X65923095Y-59824543D02*
X65983571Y-60056772D01*
X65983571Y-60056772D02*
X65983571Y-60230943D01*
X65983571Y-60230943D02*
X65923095Y-60463172D01*
X65923095Y-60463172D02*
X65862618Y-60579286D01*
X65862618Y-60579286D02*
X65741666Y-60695401D01*
X65741666Y-60695401D02*
X65560237Y-60753458D01*
X65560237Y-60753458D02*
X65257856Y-60753458D01*
X66467380Y-60695401D02*
X66648809Y-60753458D01*
X66648809Y-60753458D02*
X66951190Y-60753458D01*
X66951190Y-60753458D02*
X67072142Y-60695401D01*
X67072142Y-60695401D02*
X67132618Y-60637343D01*
X67132618Y-60637343D02*
X67193095Y-60521229D01*
X67193095Y-60521229D02*
X67193095Y-60405115D01*
X67193095Y-60405115D02*
X67132618Y-60289001D01*
X67132618Y-60289001D02*
X67072142Y-60230943D01*
X67072142Y-60230943D02*
X66951190Y-60172886D01*
X66951190Y-60172886D02*
X66709285Y-60114829D01*
X66709285Y-60114829D02*
X66588333Y-60056772D01*
X66588333Y-60056772D02*
X66527856Y-59998715D01*
X66527856Y-59998715D02*
X66467380Y-59882601D01*
X66467380Y-59882601D02*
X66467380Y-59766486D01*
X66467380Y-59766486D02*
X66527856Y-59650372D01*
X66527856Y-59650372D02*
X66588333Y-59592315D01*
X66588333Y-59592315D02*
X66709285Y-59534258D01*
X66709285Y-59534258D02*
X67011666Y-59534258D01*
X67011666Y-59534258D02*
X67193095Y-59592315D01*
X67676904Y-59650372D02*
X67737380Y-59592315D01*
X67737380Y-59592315D02*
X67858333Y-59534258D01*
X67858333Y-59534258D02*
X68160714Y-59534258D01*
X68160714Y-59534258D02*
X68281666Y-59592315D01*
X68281666Y-59592315D02*
X68342142Y-59650372D01*
X68342142Y-59650372D02*
X68402619Y-59766486D01*
X68402619Y-59766486D02*
X68402619Y-59882601D01*
X68402619Y-59882601D02*
X68342142Y-60056772D01*
X68342142Y-60056772D02*
X67616428Y-60753458D01*
X67616428Y-60753458D02*
X68402619Y-60753458D01*
X124693458Y-77111666D02*
X124112886Y-77535000D01*
X124693458Y-77837381D02*
X123474258Y-77837381D01*
X123474258Y-77837381D02*
X123474258Y-77353571D01*
X123474258Y-77353571D02*
X123532315Y-77232619D01*
X123532315Y-77232619D02*
X123590372Y-77172142D01*
X123590372Y-77172142D02*
X123706486Y-77111666D01*
X123706486Y-77111666D02*
X123880658Y-77111666D01*
X123880658Y-77111666D02*
X123996772Y-77172142D01*
X123996772Y-77172142D02*
X124054829Y-77232619D01*
X124054829Y-77232619D02*
X124112886Y-77353571D01*
X124112886Y-77353571D02*
X124112886Y-77837381D01*
X123474258Y-76688333D02*
X123474258Y-75902142D01*
X123474258Y-75902142D02*
X123938715Y-76325476D01*
X123938715Y-76325476D02*
X123938715Y-76144047D01*
X123938715Y-76144047D02*
X123996772Y-76023095D01*
X123996772Y-76023095D02*
X124054829Y-75962619D01*
X124054829Y-75962619D02*
X124170943Y-75902142D01*
X124170943Y-75902142D02*
X124461229Y-75902142D01*
X124461229Y-75902142D02*
X124577343Y-75962619D01*
X124577343Y-75962619D02*
X124635401Y-76023095D01*
X124635401Y-76023095D02*
X124693458Y-76144047D01*
X124693458Y-76144047D02*
X124693458Y-76506904D01*
X124693458Y-76506904D02*
X124635401Y-76627857D01*
X124635401Y-76627857D02*
X124577343Y-76688333D01*
X64723571Y-123593458D02*
X64300237Y-123012886D01*
X63997856Y-123593458D02*
X63997856Y-122374258D01*
X63997856Y-122374258D02*
X64481666Y-122374258D01*
X64481666Y-122374258D02*
X64602618Y-122432315D01*
X64602618Y-122432315D02*
X64663095Y-122490372D01*
X64663095Y-122490372D02*
X64723571Y-122606486D01*
X64723571Y-122606486D02*
X64723571Y-122780658D01*
X64723571Y-122780658D02*
X64663095Y-122896772D01*
X64663095Y-122896772D02*
X64602618Y-122954829D01*
X64602618Y-122954829D02*
X64481666Y-123012886D01*
X64481666Y-123012886D02*
X63997856Y-123012886D01*
X65933095Y-123593458D02*
X65207380Y-123593458D01*
X65570237Y-123593458D02*
X65570237Y-122374258D01*
X65570237Y-122374258D02*
X65449285Y-122548429D01*
X65449285Y-122548429D02*
X65328333Y-122664543D01*
X65328333Y-122664543D02*
X65207380Y-122722601D01*
X67021666Y-122374258D02*
X66779761Y-122374258D01*
X66779761Y-122374258D02*
X66658809Y-122432315D01*
X66658809Y-122432315D02*
X66598333Y-122490372D01*
X66598333Y-122490372D02*
X66477380Y-122664543D01*
X66477380Y-122664543D02*
X66416904Y-122896772D01*
X66416904Y-122896772D02*
X66416904Y-123361229D01*
X66416904Y-123361229D02*
X66477380Y-123477343D01*
X66477380Y-123477343D02*
X66537857Y-123535401D01*
X66537857Y-123535401D02*
X66658809Y-123593458D01*
X66658809Y-123593458D02*
X66900714Y-123593458D01*
X66900714Y-123593458D02*
X67021666Y-123535401D01*
X67021666Y-123535401D02*
X67082142Y-123477343D01*
X67082142Y-123477343D02*
X67142619Y-123361229D01*
X67142619Y-123361229D02*
X67142619Y-123070943D01*
X67142619Y-123070943D02*
X67082142Y-122954829D01*
X67082142Y-122954829D02*
X67021666Y-122896772D01*
X67021666Y-122896772D02*
X66900714Y-122838715D01*
X66900714Y-122838715D02*
X66658809Y-122838715D01*
X66658809Y-122838715D02*
X66537857Y-122896772D01*
X66537857Y-122896772D02*
X66477380Y-122954829D01*
X66477380Y-122954829D02*
X66416904Y-123070943D01*
X57434258Y-86307380D02*
X57434258Y-85581666D01*
X58653458Y-85944523D02*
X57434258Y-85944523D01*
X58653458Y-85158333D02*
X57434258Y-85158333D01*
X57434258Y-85158333D02*
X57434258Y-84674523D01*
X57434258Y-84674523D02*
X57492315Y-84553571D01*
X57492315Y-84553571D02*
X57550372Y-84493094D01*
X57550372Y-84493094D02*
X57666486Y-84432618D01*
X57666486Y-84432618D02*
X57840658Y-84432618D01*
X57840658Y-84432618D02*
X57956772Y-84493094D01*
X57956772Y-84493094D02*
X58014829Y-84553571D01*
X58014829Y-84553571D02*
X58072886Y-84674523D01*
X58072886Y-84674523D02*
X58072886Y-85158333D01*
X58653458Y-83223094D02*
X58653458Y-83948809D01*
X58653458Y-83585952D02*
X57434258Y-83585952D01*
X57434258Y-83585952D02*
X57608429Y-83706904D01*
X57608429Y-83706904D02*
X57724543Y-83827856D01*
X57724543Y-83827856D02*
X57782601Y-83948809D01*
X57434258Y-82799761D02*
X57434258Y-82013570D01*
X57434258Y-82013570D02*
X57898715Y-82436904D01*
X57898715Y-82436904D02*
X57898715Y-82255475D01*
X57898715Y-82255475D02*
X57956772Y-82134523D01*
X57956772Y-82134523D02*
X58014829Y-82074047D01*
X58014829Y-82074047D02*
X58130943Y-82013570D01*
X58130943Y-82013570D02*
X58421229Y-82013570D01*
X58421229Y-82013570D02*
X58537343Y-82074047D01*
X58537343Y-82074047D02*
X58595401Y-82134523D01*
X58595401Y-82134523D02*
X58653458Y-82255475D01*
X58653458Y-82255475D02*
X58653458Y-82618332D01*
X58653458Y-82618332D02*
X58595401Y-82739285D01*
X58595401Y-82739285D02*
X58537343Y-82799761D01*
X121478458Y-89916428D02*
X120897886Y-90339762D01*
X121478458Y-90642143D02*
X120259258Y-90642143D01*
X120259258Y-90642143D02*
X120259258Y-90158333D01*
X120259258Y-90158333D02*
X120317315Y-90037381D01*
X120317315Y-90037381D02*
X120375372Y-89976904D01*
X120375372Y-89976904D02*
X120491486Y-89916428D01*
X120491486Y-89916428D02*
X120665658Y-89916428D01*
X120665658Y-89916428D02*
X120781772Y-89976904D01*
X120781772Y-89976904D02*
X120839829Y-90037381D01*
X120839829Y-90037381D02*
X120897886Y-90158333D01*
X120897886Y-90158333D02*
X120897886Y-90642143D01*
X121478458Y-88706904D02*
X121478458Y-89432619D01*
X121478458Y-89069762D02*
X120259258Y-89069762D01*
X120259258Y-89069762D02*
X120433429Y-89190714D01*
X120433429Y-89190714D02*
X120549543Y-89311666D01*
X120549543Y-89311666D02*
X120607601Y-89432619D01*
X120259258Y-87920714D02*
X120259258Y-87799761D01*
X120259258Y-87799761D02*
X120317315Y-87678809D01*
X120317315Y-87678809D02*
X120375372Y-87618333D01*
X120375372Y-87618333D02*
X120491486Y-87557857D01*
X120491486Y-87557857D02*
X120723715Y-87497380D01*
X120723715Y-87497380D02*
X121014001Y-87497380D01*
X121014001Y-87497380D02*
X121246229Y-87557857D01*
X121246229Y-87557857D02*
X121362343Y-87618333D01*
X121362343Y-87618333D02*
X121420401Y-87678809D01*
X121420401Y-87678809D02*
X121478458Y-87799761D01*
X121478458Y-87799761D02*
X121478458Y-87920714D01*
X121478458Y-87920714D02*
X121420401Y-88041666D01*
X121420401Y-88041666D02*
X121362343Y-88102142D01*
X121362343Y-88102142D02*
X121246229Y-88162619D01*
X121246229Y-88162619D02*
X121014001Y-88223095D01*
X121014001Y-88223095D02*
X120723715Y-88223095D01*
X120723715Y-88223095D02*
X120491486Y-88162619D01*
X120491486Y-88162619D02*
X120375372Y-88102142D01*
X120375372Y-88102142D02*
X120317315Y-88041666D01*
X120317315Y-88041666D02*
X120259258Y-87920714D01*
X119262343Y-100491428D02*
X119320401Y-100551904D01*
X119320401Y-100551904D02*
X119378458Y-100733333D01*
X119378458Y-100733333D02*
X119378458Y-100854285D01*
X119378458Y-100854285D02*
X119320401Y-101035714D01*
X119320401Y-101035714D02*
X119204286Y-101156666D01*
X119204286Y-101156666D02*
X119088172Y-101217143D01*
X119088172Y-101217143D02*
X118855943Y-101277619D01*
X118855943Y-101277619D02*
X118681772Y-101277619D01*
X118681772Y-101277619D02*
X118449543Y-101217143D01*
X118449543Y-101217143D02*
X118333429Y-101156666D01*
X118333429Y-101156666D02*
X118217315Y-101035714D01*
X118217315Y-101035714D02*
X118159258Y-100854285D01*
X118159258Y-100854285D02*
X118159258Y-100733333D01*
X118159258Y-100733333D02*
X118217315Y-100551904D01*
X118217315Y-100551904D02*
X118275372Y-100491428D01*
X119378458Y-99281904D02*
X119378458Y-100007619D01*
X119378458Y-99644762D02*
X118159258Y-99644762D01*
X118159258Y-99644762D02*
X118333429Y-99765714D01*
X118333429Y-99765714D02*
X118449543Y-99886666D01*
X118449543Y-99886666D02*
X118507601Y-100007619D01*
X118159258Y-98132857D02*
X118159258Y-98737619D01*
X118159258Y-98737619D02*
X118739829Y-98798095D01*
X118739829Y-98798095D02*
X118681772Y-98737619D01*
X118681772Y-98737619D02*
X118623715Y-98616666D01*
X118623715Y-98616666D02*
X118623715Y-98314285D01*
X118623715Y-98314285D02*
X118681772Y-98193333D01*
X118681772Y-98193333D02*
X118739829Y-98132857D01*
X118739829Y-98132857D02*
X118855943Y-98072380D01*
X118855943Y-98072380D02*
X119146229Y-98072380D01*
X119146229Y-98072380D02*
X119262343Y-98132857D01*
X119262343Y-98132857D02*
X119320401Y-98193333D01*
X119320401Y-98193333D02*
X119378458Y-98314285D01*
X119378458Y-98314285D02*
X119378458Y-98616666D01*
X119378458Y-98616666D02*
X119320401Y-98737619D01*
X119320401Y-98737619D02*
X119262343Y-98798095D01*
X148183571Y-93453458D02*
X147760237Y-92872886D01*
X147457856Y-93453458D02*
X147457856Y-92234258D01*
X147457856Y-92234258D02*
X147941666Y-92234258D01*
X147941666Y-92234258D02*
X148062618Y-92292315D01*
X148062618Y-92292315D02*
X148123095Y-92350372D01*
X148123095Y-92350372D02*
X148183571Y-92466486D01*
X148183571Y-92466486D02*
X148183571Y-92640658D01*
X148183571Y-92640658D02*
X148123095Y-92756772D01*
X148123095Y-92756772D02*
X148062618Y-92814829D01*
X148062618Y-92814829D02*
X147941666Y-92872886D01*
X147941666Y-92872886D02*
X147457856Y-92872886D01*
X148667380Y-92350372D02*
X148727856Y-92292315D01*
X148727856Y-92292315D02*
X148848809Y-92234258D01*
X148848809Y-92234258D02*
X149151190Y-92234258D01*
X149151190Y-92234258D02*
X149272142Y-92292315D01*
X149272142Y-92292315D02*
X149332618Y-92350372D01*
X149332618Y-92350372D02*
X149393095Y-92466486D01*
X149393095Y-92466486D02*
X149393095Y-92582601D01*
X149393095Y-92582601D02*
X149332618Y-92756772D01*
X149332618Y-92756772D02*
X148606904Y-93453458D01*
X148606904Y-93453458D02*
X149393095Y-93453458D01*
X149876904Y-92350372D02*
X149937380Y-92292315D01*
X149937380Y-92292315D02*
X150058333Y-92234258D01*
X150058333Y-92234258D02*
X150360714Y-92234258D01*
X150360714Y-92234258D02*
X150481666Y-92292315D01*
X150481666Y-92292315D02*
X150542142Y-92350372D01*
X150542142Y-92350372D02*
X150602619Y-92466486D01*
X150602619Y-92466486D02*
X150602619Y-92582601D01*
X150602619Y-92582601D02*
X150542142Y-92756772D01*
X150542142Y-92756772D02*
X149816428Y-93453458D01*
X149816428Y-93453458D02*
X150602619Y-93453458D01*
X68042619Y-123854258D02*
X68768333Y-123854258D01*
X68405476Y-125073458D02*
X68405476Y-123854258D01*
X69191666Y-125073458D02*
X69191666Y-123854258D01*
X69191666Y-123854258D02*
X69675476Y-123854258D01*
X69675476Y-123854258D02*
X69796428Y-123912315D01*
X69796428Y-123912315D02*
X69856905Y-123970372D01*
X69856905Y-123970372D02*
X69917381Y-124086486D01*
X69917381Y-124086486D02*
X69917381Y-124260658D01*
X69917381Y-124260658D02*
X69856905Y-124376772D01*
X69856905Y-124376772D02*
X69796428Y-124434829D01*
X69796428Y-124434829D02*
X69675476Y-124492886D01*
X69675476Y-124492886D02*
X69191666Y-124492886D01*
X71126905Y-125073458D02*
X70401190Y-125073458D01*
X70764047Y-125073458D02*
X70764047Y-123854258D01*
X70764047Y-123854258D02*
X70643095Y-124028429D01*
X70643095Y-124028429D02*
X70522143Y-124144543D01*
X70522143Y-124144543D02*
X70401190Y-124202601D01*
X72336429Y-125073458D02*
X71610714Y-125073458D01*
X71973571Y-125073458D02*
X71973571Y-123854258D01*
X71973571Y-123854258D02*
X71852619Y-124028429D01*
X71852619Y-124028429D02*
X71731667Y-124144543D01*
X71731667Y-124144543D02*
X71610714Y-124202601D01*
X140708571Y-104953458D02*
X140285237Y-104372886D01*
X139982856Y-104953458D02*
X139982856Y-103734258D01*
X139982856Y-103734258D02*
X140466666Y-103734258D01*
X140466666Y-103734258D02*
X140587618Y-103792315D01*
X140587618Y-103792315D02*
X140648095Y-103850372D01*
X140648095Y-103850372D02*
X140708571Y-103966486D01*
X140708571Y-103966486D02*
X140708571Y-104140658D01*
X140708571Y-104140658D02*
X140648095Y-104256772D01*
X140648095Y-104256772D02*
X140587618Y-104314829D01*
X140587618Y-104314829D02*
X140466666Y-104372886D01*
X140466666Y-104372886D02*
X139982856Y-104372886D01*
X141192380Y-103850372D02*
X141252856Y-103792315D01*
X141252856Y-103792315D02*
X141373809Y-103734258D01*
X141373809Y-103734258D02*
X141676190Y-103734258D01*
X141676190Y-103734258D02*
X141797142Y-103792315D01*
X141797142Y-103792315D02*
X141857618Y-103850372D01*
X141857618Y-103850372D02*
X141918095Y-103966486D01*
X141918095Y-103966486D02*
X141918095Y-104082601D01*
X141918095Y-104082601D02*
X141857618Y-104256772D01*
X141857618Y-104256772D02*
X141131904Y-104953458D01*
X141131904Y-104953458D02*
X141918095Y-104953458D01*
X143006666Y-103734258D02*
X142764761Y-103734258D01*
X142764761Y-103734258D02*
X142643809Y-103792315D01*
X142643809Y-103792315D02*
X142583333Y-103850372D01*
X142583333Y-103850372D02*
X142462380Y-104024543D01*
X142462380Y-104024543D02*
X142401904Y-104256772D01*
X142401904Y-104256772D02*
X142401904Y-104721229D01*
X142401904Y-104721229D02*
X142462380Y-104837343D01*
X142462380Y-104837343D02*
X142522857Y-104895401D01*
X142522857Y-104895401D02*
X142643809Y-104953458D01*
X142643809Y-104953458D02*
X142885714Y-104953458D01*
X142885714Y-104953458D02*
X143006666Y-104895401D01*
X143006666Y-104895401D02*
X143067142Y-104837343D01*
X143067142Y-104837343D02*
X143127619Y-104721229D01*
X143127619Y-104721229D02*
X143127619Y-104430943D01*
X143127619Y-104430943D02*
X143067142Y-104314829D01*
X143067142Y-104314829D02*
X143006666Y-104256772D01*
X143006666Y-104256772D02*
X142885714Y-104198715D01*
X142885714Y-104198715D02*
X142643809Y-104198715D01*
X142643809Y-104198715D02*
X142522857Y-104256772D01*
X142522857Y-104256772D02*
X142462380Y-104314829D01*
X142462380Y-104314829D02*
X142401904Y-104430943D01*
X131378458Y-123611666D02*
X130797886Y-124035000D01*
X131378458Y-124337381D02*
X130159258Y-124337381D01*
X130159258Y-124337381D02*
X130159258Y-123853571D01*
X130159258Y-123853571D02*
X130217315Y-123732619D01*
X130217315Y-123732619D02*
X130275372Y-123672142D01*
X130275372Y-123672142D02*
X130391486Y-123611666D01*
X130391486Y-123611666D02*
X130565658Y-123611666D01*
X130565658Y-123611666D02*
X130681772Y-123672142D01*
X130681772Y-123672142D02*
X130739829Y-123732619D01*
X130739829Y-123732619D02*
X130797886Y-123853571D01*
X130797886Y-123853571D02*
X130797886Y-124337381D01*
X131378458Y-123006904D02*
X131378458Y-122765000D01*
X131378458Y-122765000D02*
X131320401Y-122644047D01*
X131320401Y-122644047D02*
X131262343Y-122583571D01*
X131262343Y-122583571D02*
X131088172Y-122462619D01*
X131088172Y-122462619D02*
X130855943Y-122402142D01*
X130855943Y-122402142D02*
X130391486Y-122402142D01*
X130391486Y-122402142D02*
X130275372Y-122462619D01*
X130275372Y-122462619D02*
X130217315Y-122523095D01*
X130217315Y-122523095D02*
X130159258Y-122644047D01*
X130159258Y-122644047D02*
X130159258Y-122885952D01*
X130159258Y-122885952D02*
X130217315Y-123006904D01*
X130217315Y-123006904D02*
X130275372Y-123067381D01*
X130275372Y-123067381D02*
X130391486Y-123127857D01*
X130391486Y-123127857D02*
X130681772Y-123127857D01*
X130681772Y-123127857D02*
X130797886Y-123067381D01*
X130797886Y-123067381D02*
X130855943Y-123006904D01*
X130855943Y-123006904D02*
X130914001Y-122885952D01*
X130914001Y-122885952D02*
X130914001Y-122644047D01*
X130914001Y-122644047D02*
X130855943Y-122523095D01*
X130855943Y-122523095D02*
X130797886Y-122462619D01*
X130797886Y-122462619D02*
X130681772Y-122402142D01*
D12*
X155474318Y-122036666D02*
X155474318Y-122641428D01*
X155474318Y-122641428D02*
X154204318Y-122641428D01*
X155474318Y-120948094D02*
X155474318Y-121673809D01*
X155474318Y-121310952D02*
X154204318Y-121310952D01*
X154204318Y-121310952D02*
X154385746Y-121431904D01*
X154385746Y-121431904D02*
X154506699Y-121552856D01*
X154506699Y-121552856D02*
X154567175Y-121673809D01*
D10*
X108593333Y-61167343D02*
X108532857Y-61225401D01*
X108532857Y-61225401D02*
X108351428Y-61283458D01*
X108351428Y-61283458D02*
X108230476Y-61283458D01*
X108230476Y-61283458D02*
X108049047Y-61225401D01*
X108049047Y-61225401D02*
X107928095Y-61109286D01*
X107928095Y-61109286D02*
X107867618Y-60993172D01*
X107867618Y-60993172D02*
X107807142Y-60760943D01*
X107807142Y-60760943D02*
X107807142Y-60586772D01*
X107807142Y-60586772D02*
X107867618Y-60354543D01*
X107867618Y-60354543D02*
X107928095Y-60238429D01*
X107928095Y-60238429D02*
X108049047Y-60122315D01*
X108049047Y-60122315D02*
X108230476Y-60064258D01*
X108230476Y-60064258D02*
X108351428Y-60064258D01*
X108351428Y-60064258D02*
X108532857Y-60122315D01*
X108532857Y-60122315D02*
X108593333Y-60180372D01*
X109319047Y-60586772D02*
X109198095Y-60528715D01*
X109198095Y-60528715D02*
X109137618Y-60470658D01*
X109137618Y-60470658D02*
X109077142Y-60354543D01*
X109077142Y-60354543D02*
X109077142Y-60296486D01*
X109077142Y-60296486D02*
X109137618Y-60180372D01*
X109137618Y-60180372D02*
X109198095Y-60122315D01*
X109198095Y-60122315D02*
X109319047Y-60064258D01*
X109319047Y-60064258D02*
X109560952Y-60064258D01*
X109560952Y-60064258D02*
X109681904Y-60122315D01*
X109681904Y-60122315D02*
X109742380Y-60180372D01*
X109742380Y-60180372D02*
X109802857Y-60296486D01*
X109802857Y-60296486D02*
X109802857Y-60354543D01*
X109802857Y-60354543D02*
X109742380Y-60470658D01*
X109742380Y-60470658D02*
X109681904Y-60528715D01*
X109681904Y-60528715D02*
X109560952Y-60586772D01*
X109560952Y-60586772D02*
X109319047Y-60586772D01*
X109319047Y-60586772D02*
X109198095Y-60644829D01*
X109198095Y-60644829D02*
X109137618Y-60702886D01*
X109137618Y-60702886D02*
X109077142Y-60819001D01*
X109077142Y-60819001D02*
X109077142Y-61051229D01*
X109077142Y-61051229D02*
X109137618Y-61167343D01*
X109137618Y-61167343D02*
X109198095Y-61225401D01*
X109198095Y-61225401D02*
X109319047Y-61283458D01*
X109319047Y-61283458D02*
X109560952Y-61283458D01*
X109560952Y-61283458D02*
X109681904Y-61225401D01*
X109681904Y-61225401D02*
X109742380Y-61167343D01*
X109742380Y-61167343D02*
X109802857Y-61051229D01*
X109802857Y-61051229D02*
X109802857Y-60819001D01*
X109802857Y-60819001D02*
X109742380Y-60702886D01*
X109742380Y-60702886D02*
X109681904Y-60644829D01*
X109681904Y-60644829D02*
X109560952Y-60586772D01*
X88297381Y-122336258D02*
X89023095Y-122336258D01*
X88660238Y-123555458D02*
X88660238Y-122336258D01*
X89446428Y-123555458D02*
X89446428Y-122336258D01*
X89446428Y-122336258D02*
X89930238Y-122336258D01*
X89930238Y-122336258D02*
X90051190Y-122394315D01*
X90051190Y-122394315D02*
X90111667Y-122452372D01*
X90111667Y-122452372D02*
X90172143Y-122568486D01*
X90172143Y-122568486D02*
X90172143Y-122742658D01*
X90172143Y-122742658D02*
X90111667Y-122858772D01*
X90111667Y-122858772D02*
X90051190Y-122916829D01*
X90051190Y-122916829D02*
X89930238Y-122974886D01*
X89930238Y-122974886D02*
X89446428Y-122974886D01*
X91260714Y-122336258D02*
X91018809Y-122336258D01*
X91018809Y-122336258D02*
X90897857Y-122394315D01*
X90897857Y-122394315D02*
X90837381Y-122452372D01*
X90837381Y-122452372D02*
X90716428Y-122626543D01*
X90716428Y-122626543D02*
X90655952Y-122858772D01*
X90655952Y-122858772D02*
X90655952Y-123323229D01*
X90655952Y-123323229D02*
X90716428Y-123439343D01*
X90716428Y-123439343D02*
X90776905Y-123497401D01*
X90776905Y-123497401D02*
X90897857Y-123555458D01*
X90897857Y-123555458D02*
X91139762Y-123555458D01*
X91139762Y-123555458D02*
X91260714Y-123497401D01*
X91260714Y-123497401D02*
X91321190Y-123439343D01*
X91321190Y-123439343D02*
X91381667Y-123323229D01*
X91381667Y-123323229D02*
X91381667Y-123032943D01*
X91381667Y-123032943D02*
X91321190Y-122916829D01*
X91321190Y-122916829D02*
X91260714Y-122858772D01*
X91260714Y-122858772D02*
X91139762Y-122800715D01*
X91139762Y-122800715D02*
X90897857Y-122800715D01*
X90897857Y-122800715D02*
X90776905Y-122858772D01*
X90776905Y-122858772D02*
X90716428Y-122916829D01*
X90716428Y-122916829D02*
X90655952Y-123032943D01*
X125362343Y-100516428D02*
X125420401Y-100576904D01*
X125420401Y-100576904D02*
X125478458Y-100758333D01*
X125478458Y-100758333D02*
X125478458Y-100879285D01*
X125478458Y-100879285D02*
X125420401Y-101060714D01*
X125420401Y-101060714D02*
X125304286Y-101181666D01*
X125304286Y-101181666D02*
X125188172Y-101242143D01*
X125188172Y-101242143D02*
X124955943Y-101302619D01*
X124955943Y-101302619D02*
X124781772Y-101302619D01*
X124781772Y-101302619D02*
X124549543Y-101242143D01*
X124549543Y-101242143D02*
X124433429Y-101181666D01*
X124433429Y-101181666D02*
X124317315Y-101060714D01*
X124317315Y-101060714D02*
X124259258Y-100879285D01*
X124259258Y-100879285D02*
X124259258Y-100758333D01*
X124259258Y-100758333D02*
X124317315Y-100576904D01*
X124317315Y-100576904D02*
X124375372Y-100516428D01*
X124375372Y-100032619D02*
X124317315Y-99972143D01*
X124317315Y-99972143D02*
X124259258Y-99851190D01*
X124259258Y-99851190D02*
X124259258Y-99548809D01*
X124259258Y-99548809D02*
X124317315Y-99427857D01*
X124317315Y-99427857D02*
X124375372Y-99367381D01*
X124375372Y-99367381D02*
X124491486Y-99306904D01*
X124491486Y-99306904D02*
X124607601Y-99306904D01*
X124607601Y-99306904D02*
X124781772Y-99367381D01*
X124781772Y-99367381D02*
X125478458Y-100093095D01*
X125478458Y-100093095D02*
X125478458Y-99306904D01*
X124259258Y-98520714D02*
X124259258Y-98399761D01*
X124259258Y-98399761D02*
X124317315Y-98278809D01*
X124317315Y-98278809D02*
X124375372Y-98218333D01*
X124375372Y-98218333D02*
X124491486Y-98157857D01*
X124491486Y-98157857D02*
X124723715Y-98097380D01*
X124723715Y-98097380D02*
X125014001Y-98097380D01*
X125014001Y-98097380D02*
X125246229Y-98157857D01*
X125246229Y-98157857D02*
X125362343Y-98218333D01*
X125362343Y-98218333D02*
X125420401Y-98278809D01*
X125420401Y-98278809D02*
X125478458Y-98399761D01*
X125478458Y-98399761D02*
X125478458Y-98520714D01*
X125478458Y-98520714D02*
X125420401Y-98641666D01*
X125420401Y-98641666D02*
X125362343Y-98702142D01*
X125362343Y-98702142D02*
X125246229Y-98762619D01*
X125246229Y-98762619D02*
X125014001Y-98823095D01*
X125014001Y-98823095D02*
X124723715Y-98823095D01*
X124723715Y-98823095D02*
X124491486Y-98762619D01*
X124491486Y-98762619D02*
X124375372Y-98702142D01*
X124375372Y-98702142D02*
X124317315Y-98641666D01*
X124317315Y-98641666D02*
X124259258Y-98520714D01*
X59813333Y-79812343D02*
X59752857Y-79870401D01*
X59752857Y-79870401D02*
X59571428Y-79928458D01*
X59571428Y-79928458D02*
X59450476Y-79928458D01*
X59450476Y-79928458D02*
X59269047Y-79870401D01*
X59269047Y-79870401D02*
X59148095Y-79754286D01*
X59148095Y-79754286D02*
X59087618Y-79638172D01*
X59087618Y-79638172D02*
X59027142Y-79405943D01*
X59027142Y-79405943D02*
X59027142Y-79231772D01*
X59027142Y-79231772D02*
X59087618Y-78999543D01*
X59087618Y-78999543D02*
X59148095Y-78883429D01*
X59148095Y-78883429D02*
X59269047Y-78767315D01*
X59269047Y-78767315D02*
X59450476Y-78709258D01*
X59450476Y-78709258D02*
X59571428Y-78709258D01*
X59571428Y-78709258D02*
X59752857Y-78767315D01*
X59752857Y-78767315D02*
X59813333Y-78825372D01*
X60418095Y-79928458D02*
X60659999Y-79928458D01*
X60659999Y-79928458D02*
X60780952Y-79870401D01*
X60780952Y-79870401D02*
X60841428Y-79812343D01*
X60841428Y-79812343D02*
X60962380Y-79638172D01*
X60962380Y-79638172D02*
X61022857Y-79405943D01*
X61022857Y-79405943D02*
X61022857Y-78941486D01*
X61022857Y-78941486D02*
X60962380Y-78825372D01*
X60962380Y-78825372D02*
X60901904Y-78767315D01*
X60901904Y-78767315D02*
X60780952Y-78709258D01*
X60780952Y-78709258D02*
X60539047Y-78709258D01*
X60539047Y-78709258D02*
X60418095Y-78767315D01*
X60418095Y-78767315D02*
X60357618Y-78825372D01*
X60357618Y-78825372D02*
X60297142Y-78941486D01*
X60297142Y-78941486D02*
X60297142Y-79231772D01*
X60297142Y-79231772D02*
X60357618Y-79347886D01*
X60357618Y-79347886D02*
X60418095Y-79405943D01*
X60418095Y-79405943D02*
X60539047Y-79464001D01*
X60539047Y-79464001D02*
X60780952Y-79464001D01*
X60780952Y-79464001D02*
X60901904Y-79405943D01*
X60901904Y-79405943D02*
X60962380Y-79347886D01*
X60962380Y-79347886D02*
X61022857Y-79231772D01*
X63912619Y-117379258D02*
X64638333Y-117379258D01*
X64275476Y-118598458D02*
X64275476Y-117379258D01*
X65061666Y-118598458D02*
X65061666Y-117379258D01*
X65061666Y-117379258D02*
X65545476Y-117379258D01*
X65545476Y-117379258D02*
X65666428Y-117437315D01*
X65666428Y-117437315D02*
X65726905Y-117495372D01*
X65726905Y-117495372D02*
X65787381Y-117611486D01*
X65787381Y-117611486D02*
X65787381Y-117785658D01*
X65787381Y-117785658D02*
X65726905Y-117901772D01*
X65726905Y-117901772D02*
X65666428Y-117959829D01*
X65666428Y-117959829D02*
X65545476Y-118017886D01*
X65545476Y-118017886D02*
X65061666Y-118017886D01*
X66996905Y-118598458D02*
X66271190Y-118598458D01*
X66634047Y-118598458D02*
X66634047Y-117379258D01*
X66634047Y-117379258D02*
X66513095Y-117553429D01*
X66513095Y-117553429D02*
X66392143Y-117669543D01*
X66392143Y-117669543D02*
X66271190Y-117727601D01*
X67783095Y-117379258D02*
X67904048Y-117379258D01*
X67904048Y-117379258D02*
X68025000Y-117437315D01*
X68025000Y-117437315D02*
X68085476Y-117495372D01*
X68085476Y-117495372D02*
X68145952Y-117611486D01*
X68145952Y-117611486D02*
X68206429Y-117843715D01*
X68206429Y-117843715D02*
X68206429Y-118134001D01*
X68206429Y-118134001D02*
X68145952Y-118366229D01*
X68145952Y-118366229D02*
X68085476Y-118482343D01*
X68085476Y-118482343D02*
X68025000Y-118540401D01*
X68025000Y-118540401D02*
X67904048Y-118598458D01*
X67904048Y-118598458D02*
X67783095Y-118598458D01*
X67783095Y-118598458D02*
X67662143Y-118540401D01*
X67662143Y-118540401D02*
X67601667Y-118482343D01*
X67601667Y-118482343D02*
X67541190Y-118366229D01*
X67541190Y-118366229D02*
X67480714Y-118134001D01*
X67480714Y-118134001D02*
X67480714Y-117843715D01*
X67480714Y-117843715D02*
X67541190Y-117611486D01*
X67541190Y-117611486D02*
X67601667Y-117495372D01*
X67601667Y-117495372D02*
X67662143Y-117437315D01*
X67662143Y-117437315D02*
X67783095Y-117379258D01*
X134257380Y-117084258D02*
X134257380Y-118071229D01*
X134257380Y-118071229D02*
X134317857Y-118187343D01*
X134317857Y-118187343D02*
X134378333Y-118245401D01*
X134378333Y-118245401D02*
X134499285Y-118303458D01*
X134499285Y-118303458D02*
X134741190Y-118303458D01*
X134741190Y-118303458D02*
X134862142Y-118245401D01*
X134862142Y-118245401D02*
X134922619Y-118187343D01*
X134922619Y-118187343D02*
X134983095Y-118071229D01*
X134983095Y-118071229D02*
X134983095Y-117084258D01*
X136192618Y-117084258D02*
X135587856Y-117084258D01*
X135587856Y-117084258D02*
X135527380Y-117664829D01*
X135527380Y-117664829D02*
X135587856Y-117606772D01*
X135587856Y-117606772D02*
X135708809Y-117548715D01*
X135708809Y-117548715D02*
X136011190Y-117548715D01*
X136011190Y-117548715D02*
X136132142Y-117606772D01*
X136132142Y-117606772D02*
X136192618Y-117664829D01*
X136192618Y-117664829D02*
X136253095Y-117780943D01*
X136253095Y-117780943D02*
X136253095Y-118071229D01*
X136253095Y-118071229D02*
X136192618Y-118187343D01*
X136192618Y-118187343D02*
X136132142Y-118245401D01*
X136132142Y-118245401D02*
X136011190Y-118303458D01*
X136011190Y-118303458D02*
X135708809Y-118303458D01*
X135708809Y-118303458D02*
X135587856Y-118245401D01*
X135587856Y-118245401D02*
X135527380Y-118187343D01*
X130959047Y-133819572D02*
X130838095Y-133761515D01*
X130838095Y-133761515D02*
X130717142Y-133645401D01*
X130717142Y-133645401D02*
X130535714Y-133471229D01*
X130535714Y-133471229D02*
X130414761Y-133413172D01*
X130414761Y-133413172D02*
X130293809Y-133413172D01*
X130354285Y-133703458D02*
X130233333Y-133645401D01*
X130233333Y-133645401D02*
X130112380Y-133529286D01*
X130112380Y-133529286D02*
X130051904Y-133297058D01*
X130051904Y-133297058D02*
X130051904Y-132890658D01*
X130051904Y-132890658D02*
X130112380Y-132658429D01*
X130112380Y-132658429D02*
X130233333Y-132542315D01*
X130233333Y-132542315D02*
X130354285Y-132484258D01*
X130354285Y-132484258D02*
X130596190Y-132484258D01*
X130596190Y-132484258D02*
X130717142Y-132542315D01*
X130717142Y-132542315D02*
X130838095Y-132658429D01*
X130838095Y-132658429D02*
X130898571Y-132890658D01*
X130898571Y-132890658D02*
X130898571Y-133297058D01*
X130898571Y-133297058D02*
X130838095Y-133529286D01*
X130838095Y-133529286D02*
X130717142Y-133645401D01*
X130717142Y-133645401D02*
X130596190Y-133703458D01*
X130596190Y-133703458D02*
X130354285Y-133703458D01*
X132047618Y-132484258D02*
X131442856Y-132484258D01*
X131442856Y-132484258D02*
X131382380Y-133064829D01*
X131382380Y-133064829D02*
X131442856Y-133006772D01*
X131442856Y-133006772D02*
X131563809Y-132948715D01*
X131563809Y-132948715D02*
X131866190Y-132948715D01*
X131866190Y-132948715D02*
X131987142Y-133006772D01*
X131987142Y-133006772D02*
X132047618Y-133064829D01*
X132047618Y-133064829D02*
X132108095Y-133180943D01*
X132108095Y-133180943D02*
X132108095Y-133471229D01*
X132108095Y-133471229D02*
X132047618Y-133587343D01*
X132047618Y-133587343D02*
X131987142Y-133645401D01*
X131987142Y-133645401D02*
X131866190Y-133703458D01*
X131866190Y-133703458D02*
X131563809Y-133703458D01*
X131563809Y-133703458D02*
X131442856Y-133645401D01*
X131442856Y-133645401D02*
X131382380Y-133587343D01*
X68371071Y-127353458D02*
X67947737Y-126772886D01*
X67645356Y-127353458D02*
X67645356Y-126134258D01*
X67645356Y-126134258D02*
X68129166Y-126134258D01*
X68129166Y-126134258D02*
X68250118Y-126192315D01*
X68250118Y-126192315D02*
X68310595Y-126250372D01*
X68310595Y-126250372D02*
X68371071Y-126366486D01*
X68371071Y-126366486D02*
X68371071Y-126540658D01*
X68371071Y-126540658D02*
X68310595Y-126656772D01*
X68310595Y-126656772D02*
X68250118Y-126714829D01*
X68250118Y-126714829D02*
X68129166Y-126772886D01*
X68129166Y-126772886D02*
X67645356Y-126772886D01*
X69580595Y-127353458D02*
X68854880Y-127353458D01*
X69217737Y-127353458D02*
X69217737Y-126134258D01*
X69217737Y-126134258D02*
X69096785Y-126308429D01*
X69096785Y-126308429D02*
X68975833Y-126424543D01*
X68975833Y-126424543D02*
X68854880Y-126482601D01*
X70003928Y-126134258D02*
X70790119Y-126134258D01*
X70790119Y-126134258D02*
X70366785Y-126598715D01*
X70366785Y-126598715D02*
X70548214Y-126598715D01*
X70548214Y-126598715D02*
X70669166Y-126656772D01*
X70669166Y-126656772D02*
X70729642Y-126714829D01*
X70729642Y-126714829D02*
X70790119Y-126830943D01*
X70790119Y-126830943D02*
X70790119Y-127121229D01*
X70790119Y-127121229D02*
X70729642Y-127237343D01*
X70729642Y-127237343D02*
X70669166Y-127295401D01*
X70669166Y-127295401D02*
X70548214Y-127353458D01*
X70548214Y-127353458D02*
X70185357Y-127353458D01*
X70185357Y-127353458D02*
X70064404Y-127295401D01*
X70064404Y-127295401D02*
X70003928Y-127237343D01*
X117253458Y-97112381D02*
X116034258Y-97112381D01*
X116034258Y-97112381D02*
X116034258Y-96810000D01*
X116034258Y-96810000D02*
X116092315Y-96628571D01*
X116092315Y-96628571D02*
X116208429Y-96507619D01*
X116208429Y-96507619D02*
X116324543Y-96447142D01*
X116324543Y-96447142D02*
X116556772Y-96386666D01*
X116556772Y-96386666D02*
X116730943Y-96386666D01*
X116730943Y-96386666D02*
X116963172Y-96447142D01*
X116963172Y-96447142D02*
X117079286Y-96507619D01*
X117079286Y-96507619D02*
X117195401Y-96628571D01*
X117195401Y-96628571D02*
X117253458Y-96810000D01*
X117253458Y-96810000D02*
X117253458Y-97112381D01*
X116034258Y-95298095D02*
X116034258Y-95540000D01*
X116034258Y-95540000D02*
X116092315Y-95660952D01*
X116092315Y-95660952D02*
X116150372Y-95721428D01*
X116150372Y-95721428D02*
X116324543Y-95842381D01*
X116324543Y-95842381D02*
X116556772Y-95902857D01*
X116556772Y-95902857D02*
X117021229Y-95902857D01*
X117021229Y-95902857D02*
X117137343Y-95842381D01*
X117137343Y-95842381D02*
X117195401Y-95781904D01*
X117195401Y-95781904D02*
X117253458Y-95660952D01*
X117253458Y-95660952D02*
X117253458Y-95419047D01*
X117253458Y-95419047D02*
X117195401Y-95298095D01*
X117195401Y-95298095D02*
X117137343Y-95237619D01*
X117137343Y-95237619D02*
X117021229Y-95177142D01*
X117021229Y-95177142D02*
X116730943Y-95177142D01*
X116730943Y-95177142D02*
X116614829Y-95237619D01*
X116614829Y-95237619D02*
X116556772Y-95298095D01*
X116556772Y-95298095D02*
X116498715Y-95419047D01*
X116498715Y-95419047D02*
X116498715Y-95660952D01*
X116498715Y-95660952D02*
X116556772Y-95781904D01*
X116556772Y-95781904D02*
X116614829Y-95842381D01*
X116614829Y-95842381D02*
X116730943Y-95902857D01*
X133133458Y-139716428D02*
X132552886Y-140139762D01*
X133133458Y-140442143D02*
X131914258Y-140442143D01*
X131914258Y-140442143D02*
X131914258Y-139958333D01*
X131914258Y-139958333D02*
X131972315Y-139837381D01*
X131972315Y-139837381D02*
X132030372Y-139776904D01*
X132030372Y-139776904D02*
X132146486Y-139716428D01*
X132146486Y-139716428D02*
X132320658Y-139716428D01*
X132320658Y-139716428D02*
X132436772Y-139776904D01*
X132436772Y-139776904D02*
X132494829Y-139837381D01*
X132494829Y-139837381D02*
X132552886Y-139958333D01*
X132552886Y-139958333D02*
X132552886Y-140442143D01*
X133133458Y-138506904D02*
X133133458Y-139232619D01*
X133133458Y-138869762D02*
X131914258Y-138869762D01*
X131914258Y-138869762D02*
X132088429Y-138990714D01*
X132088429Y-138990714D02*
X132204543Y-139111666D01*
X132204543Y-139111666D02*
X132262601Y-139232619D01*
X132320658Y-137418333D02*
X133133458Y-137418333D01*
X131856201Y-137720714D02*
X132727058Y-138023095D01*
X132727058Y-138023095D02*
X132727058Y-137236904D01*
X57734258Y-77107380D02*
X57734258Y-76381666D01*
X58953458Y-76744523D02*
X57734258Y-76744523D01*
X58953458Y-75958333D02*
X57734258Y-75958333D01*
X57734258Y-75958333D02*
X57734258Y-75474523D01*
X57734258Y-75474523D02*
X57792315Y-75353571D01*
X57792315Y-75353571D02*
X57850372Y-75293094D01*
X57850372Y-75293094D02*
X57966486Y-75232618D01*
X57966486Y-75232618D02*
X58140658Y-75232618D01*
X58140658Y-75232618D02*
X58256772Y-75293094D01*
X58256772Y-75293094D02*
X58314829Y-75353571D01*
X58314829Y-75353571D02*
X58372886Y-75474523D01*
X58372886Y-75474523D02*
X58372886Y-75958333D01*
X58953458Y-74023094D02*
X58953458Y-74748809D01*
X58953458Y-74385952D02*
X57734258Y-74385952D01*
X57734258Y-74385952D02*
X57908429Y-74506904D01*
X57908429Y-74506904D02*
X58024543Y-74627856D01*
X58024543Y-74627856D02*
X58082601Y-74748809D01*
X57734258Y-73599761D02*
X57734258Y-72753094D01*
X57734258Y-72753094D02*
X58953458Y-73297380D01*
X117753458Y-74628928D02*
X117172886Y-75052262D01*
X117753458Y-75354643D02*
X116534258Y-75354643D01*
X116534258Y-75354643D02*
X116534258Y-74870833D01*
X116534258Y-74870833D02*
X116592315Y-74749881D01*
X116592315Y-74749881D02*
X116650372Y-74689404D01*
X116650372Y-74689404D02*
X116766486Y-74628928D01*
X116766486Y-74628928D02*
X116940658Y-74628928D01*
X116940658Y-74628928D02*
X117056772Y-74689404D01*
X117056772Y-74689404D02*
X117114829Y-74749881D01*
X117114829Y-74749881D02*
X117172886Y-74870833D01*
X117172886Y-74870833D02*
X117172886Y-75354643D01*
X117753458Y-73419404D02*
X117753458Y-74145119D01*
X117753458Y-73782262D02*
X116534258Y-73782262D01*
X116534258Y-73782262D02*
X116708429Y-73903214D01*
X116708429Y-73903214D02*
X116824543Y-74024166D01*
X116824543Y-74024166D02*
X116882601Y-74145119D01*
X116534258Y-72270357D02*
X116534258Y-72875119D01*
X116534258Y-72875119D02*
X117114829Y-72935595D01*
X117114829Y-72935595D02*
X117056772Y-72875119D01*
X117056772Y-72875119D02*
X116998715Y-72754166D01*
X116998715Y-72754166D02*
X116998715Y-72451785D01*
X116998715Y-72451785D02*
X117056772Y-72330833D01*
X117056772Y-72330833D02*
X117114829Y-72270357D01*
X117114829Y-72270357D02*
X117230943Y-72209880D01*
X117230943Y-72209880D02*
X117521229Y-72209880D01*
X117521229Y-72209880D02*
X117637343Y-72270357D01*
X117637343Y-72270357D02*
X117695401Y-72330833D01*
X117695401Y-72330833D02*
X117753458Y-72451785D01*
X117753458Y-72451785D02*
X117753458Y-72754166D01*
X117753458Y-72754166D02*
X117695401Y-72875119D01*
X117695401Y-72875119D02*
X117637343Y-72935595D01*
D11*
X156974819Y-59533333D02*
X157689104Y-59533333D01*
X157689104Y-59533333D02*
X157831961Y-59580952D01*
X157831961Y-59580952D02*
X157927200Y-59676190D01*
X157927200Y-59676190D02*
X157974819Y-59819047D01*
X157974819Y-59819047D02*
X157974819Y-59914285D01*
X157974819Y-58533333D02*
X157974819Y-59104761D01*
X157974819Y-58819047D02*
X156974819Y-58819047D01*
X156974819Y-58819047D02*
X157117676Y-58914285D01*
X157117676Y-58914285D02*
X157212914Y-59009523D01*
X157212914Y-59009523D02*
X157260533Y-59104761D01*
D10*
X127783571Y-99637343D02*
X127723095Y-99695401D01*
X127723095Y-99695401D02*
X127541666Y-99753458D01*
X127541666Y-99753458D02*
X127420714Y-99753458D01*
X127420714Y-99753458D02*
X127239285Y-99695401D01*
X127239285Y-99695401D02*
X127118333Y-99579286D01*
X127118333Y-99579286D02*
X127057856Y-99463172D01*
X127057856Y-99463172D02*
X126997380Y-99230943D01*
X126997380Y-99230943D02*
X126997380Y-99056772D01*
X126997380Y-99056772D02*
X127057856Y-98824543D01*
X127057856Y-98824543D02*
X127118333Y-98708429D01*
X127118333Y-98708429D02*
X127239285Y-98592315D01*
X127239285Y-98592315D02*
X127420714Y-98534258D01*
X127420714Y-98534258D02*
X127541666Y-98534258D01*
X127541666Y-98534258D02*
X127723095Y-98592315D01*
X127723095Y-98592315D02*
X127783571Y-98650372D01*
X128267380Y-98650372D02*
X128327856Y-98592315D01*
X128327856Y-98592315D02*
X128448809Y-98534258D01*
X128448809Y-98534258D02*
X128751190Y-98534258D01*
X128751190Y-98534258D02*
X128872142Y-98592315D01*
X128872142Y-98592315D02*
X128932618Y-98650372D01*
X128932618Y-98650372D02*
X128993095Y-98766486D01*
X128993095Y-98766486D02*
X128993095Y-98882601D01*
X128993095Y-98882601D02*
X128932618Y-99056772D01*
X128932618Y-99056772D02*
X128206904Y-99753458D01*
X128206904Y-99753458D02*
X128993095Y-99753458D01*
X129416428Y-98534258D02*
X130202619Y-98534258D01*
X130202619Y-98534258D02*
X129779285Y-98998715D01*
X129779285Y-98998715D02*
X129960714Y-98998715D01*
X129960714Y-98998715D02*
X130081666Y-99056772D01*
X130081666Y-99056772D02*
X130142142Y-99114829D01*
X130142142Y-99114829D02*
X130202619Y-99230943D01*
X130202619Y-99230943D02*
X130202619Y-99521229D01*
X130202619Y-99521229D02*
X130142142Y-99637343D01*
X130142142Y-99637343D02*
X130081666Y-99695401D01*
X130081666Y-99695401D02*
X129960714Y-99753458D01*
X129960714Y-99753458D02*
X129597857Y-99753458D01*
X129597857Y-99753458D02*
X129476904Y-99695401D01*
X129476904Y-99695401D02*
X129416428Y-99637343D01*
X69388333Y-122437343D02*
X69327857Y-122495401D01*
X69327857Y-122495401D02*
X69146428Y-122553458D01*
X69146428Y-122553458D02*
X69025476Y-122553458D01*
X69025476Y-122553458D02*
X68844047Y-122495401D01*
X68844047Y-122495401D02*
X68723095Y-122379286D01*
X68723095Y-122379286D02*
X68662618Y-122263172D01*
X68662618Y-122263172D02*
X68602142Y-122030943D01*
X68602142Y-122030943D02*
X68602142Y-121856772D01*
X68602142Y-121856772D02*
X68662618Y-121624543D01*
X68662618Y-121624543D02*
X68723095Y-121508429D01*
X68723095Y-121508429D02*
X68844047Y-121392315D01*
X68844047Y-121392315D02*
X69025476Y-121334258D01*
X69025476Y-121334258D02*
X69146428Y-121334258D01*
X69146428Y-121334258D02*
X69327857Y-121392315D01*
X69327857Y-121392315D02*
X69388333Y-121450372D01*
X70537380Y-121334258D02*
X69932618Y-121334258D01*
X69932618Y-121334258D02*
X69872142Y-121914829D01*
X69872142Y-121914829D02*
X69932618Y-121856772D01*
X69932618Y-121856772D02*
X70053571Y-121798715D01*
X70053571Y-121798715D02*
X70355952Y-121798715D01*
X70355952Y-121798715D02*
X70476904Y-121856772D01*
X70476904Y-121856772D02*
X70537380Y-121914829D01*
X70537380Y-121914829D02*
X70597857Y-122030943D01*
X70597857Y-122030943D02*
X70597857Y-122321229D01*
X70597857Y-122321229D02*
X70537380Y-122437343D01*
X70537380Y-122437343D02*
X70476904Y-122495401D01*
X70476904Y-122495401D02*
X70355952Y-122553458D01*
X70355952Y-122553458D02*
X70053571Y-122553458D01*
X70053571Y-122553458D02*
X69932618Y-122495401D01*
X69932618Y-122495401D02*
X69872142Y-122437343D01*
X140571071Y-89353458D02*
X140147737Y-88772886D01*
X139845356Y-89353458D02*
X139845356Y-88134258D01*
X139845356Y-88134258D02*
X140329166Y-88134258D01*
X140329166Y-88134258D02*
X140450118Y-88192315D01*
X140450118Y-88192315D02*
X140510595Y-88250372D01*
X140510595Y-88250372D02*
X140571071Y-88366486D01*
X140571071Y-88366486D02*
X140571071Y-88540658D01*
X140571071Y-88540658D02*
X140510595Y-88656772D01*
X140510595Y-88656772D02*
X140450118Y-88714829D01*
X140450118Y-88714829D02*
X140329166Y-88772886D01*
X140329166Y-88772886D02*
X139845356Y-88772886D01*
X141780595Y-89353458D02*
X141054880Y-89353458D01*
X141417737Y-89353458D02*
X141417737Y-88134258D01*
X141417737Y-88134258D02*
X141296785Y-88308429D01*
X141296785Y-88308429D02*
X141175833Y-88424543D01*
X141175833Y-88424543D02*
X141054880Y-88482601D01*
X142203928Y-88134258D02*
X143050595Y-88134258D01*
X143050595Y-88134258D02*
X142506309Y-89353458D01*
X59012618Y-111928458D02*
X59012618Y-110709258D01*
X59012618Y-110709258D02*
X59314999Y-110709258D01*
X59314999Y-110709258D02*
X59496428Y-110767315D01*
X59496428Y-110767315D02*
X59617380Y-110883429D01*
X59617380Y-110883429D02*
X59677857Y-110999543D01*
X59677857Y-110999543D02*
X59738333Y-111231772D01*
X59738333Y-111231772D02*
X59738333Y-111405943D01*
X59738333Y-111405943D02*
X59677857Y-111638172D01*
X59677857Y-111638172D02*
X59617380Y-111754286D01*
X59617380Y-111754286D02*
X59496428Y-111870401D01*
X59496428Y-111870401D02*
X59314999Y-111928458D01*
X59314999Y-111928458D02*
X59012618Y-111928458D01*
X60947857Y-111928458D02*
X60222142Y-111928458D01*
X60584999Y-111928458D02*
X60584999Y-110709258D01*
X60584999Y-110709258D02*
X60464047Y-110883429D01*
X60464047Y-110883429D02*
X60343095Y-110999543D01*
X60343095Y-110999543D02*
X60222142Y-111057601D01*
X63988333Y-116678458D02*
X63564999Y-116097886D01*
X63262618Y-116678458D02*
X63262618Y-115459258D01*
X63262618Y-115459258D02*
X63746428Y-115459258D01*
X63746428Y-115459258D02*
X63867380Y-115517315D01*
X63867380Y-115517315D02*
X63927857Y-115575372D01*
X63927857Y-115575372D02*
X63988333Y-115691486D01*
X63988333Y-115691486D02*
X63988333Y-115865658D01*
X63988333Y-115865658D02*
X63927857Y-115981772D01*
X63927857Y-115981772D02*
X63867380Y-116039829D01*
X63867380Y-116039829D02*
X63746428Y-116097886D01*
X63746428Y-116097886D02*
X63262618Y-116097886D01*
X64472142Y-115575372D02*
X64532618Y-115517315D01*
X64532618Y-115517315D02*
X64653571Y-115459258D01*
X64653571Y-115459258D02*
X64955952Y-115459258D01*
X64955952Y-115459258D02*
X65076904Y-115517315D01*
X65076904Y-115517315D02*
X65137380Y-115575372D01*
X65137380Y-115575372D02*
X65197857Y-115691486D01*
X65197857Y-115691486D02*
X65197857Y-115807601D01*
X65197857Y-115807601D02*
X65137380Y-115981772D01*
X65137380Y-115981772D02*
X64411666Y-116678458D01*
X64411666Y-116678458D02*
X65197857Y-116678458D01*
X126853458Y-77111666D02*
X126272886Y-77535000D01*
X126853458Y-77837381D02*
X125634258Y-77837381D01*
X125634258Y-77837381D02*
X125634258Y-77353571D01*
X125634258Y-77353571D02*
X125692315Y-77232619D01*
X125692315Y-77232619D02*
X125750372Y-77172142D01*
X125750372Y-77172142D02*
X125866486Y-77111666D01*
X125866486Y-77111666D02*
X126040658Y-77111666D01*
X126040658Y-77111666D02*
X126156772Y-77172142D01*
X126156772Y-77172142D02*
X126214829Y-77232619D01*
X126214829Y-77232619D02*
X126272886Y-77353571D01*
X126272886Y-77353571D02*
X126272886Y-77837381D01*
X126040658Y-76023095D02*
X126853458Y-76023095D01*
X125576201Y-76325476D02*
X126447058Y-76627857D01*
X126447058Y-76627857D02*
X126447058Y-75841666D01*
X123362343Y-100491428D02*
X123420401Y-100551904D01*
X123420401Y-100551904D02*
X123478458Y-100733333D01*
X123478458Y-100733333D02*
X123478458Y-100854285D01*
X123478458Y-100854285D02*
X123420401Y-101035714D01*
X123420401Y-101035714D02*
X123304286Y-101156666D01*
X123304286Y-101156666D02*
X123188172Y-101217143D01*
X123188172Y-101217143D02*
X122955943Y-101277619D01*
X122955943Y-101277619D02*
X122781772Y-101277619D01*
X122781772Y-101277619D02*
X122549543Y-101217143D01*
X122549543Y-101217143D02*
X122433429Y-101156666D01*
X122433429Y-101156666D02*
X122317315Y-101035714D01*
X122317315Y-101035714D02*
X122259258Y-100854285D01*
X122259258Y-100854285D02*
X122259258Y-100733333D01*
X122259258Y-100733333D02*
X122317315Y-100551904D01*
X122317315Y-100551904D02*
X122375372Y-100491428D01*
X122375372Y-100007619D02*
X122317315Y-99947143D01*
X122317315Y-99947143D02*
X122259258Y-99826190D01*
X122259258Y-99826190D02*
X122259258Y-99523809D01*
X122259258Y-99523809D02*
X122317315Y-99402857D01*
X122317315Y-99402857D02*
X122375372Y-99342381D01*
X122375372Y-99342381D02*
X122491486Y-99281904D01*
X122491486Y-99281904D02*
X122607601Y-99281904D01*
X122607601Y-99281904D02*
X122781772Y-99342381D01*
X122781772Y-99342381D02*
X123478458Y-100068095D01*
X123478458Y-100068095D02*
X123478458Y-99281904D01*
X123478458Y-98072380D02*
X123478458Y-98798095D01*
X123478458Y-98435238D02*
X122259258Y-98435238D01*
X122259258Y-98435238D02*
X122433429Y-98556190D01*
X122433429Y-98556190D02*
X122549543Y-98677142D01*
X122549543Y-98677142D02*
X122607601Y-98798095D01*
D11*
X87666666Y-144154819D02*
X87666666Y-144869104D01*
X87666666Y-144869104D02*
X87619047Y-145011961D01*
X87619047Y-145011961D02*
X87523809Y-145107200D01*
X87523809Y-145107200D02*
X87380952Y-145154819D01*
X87380952Y-145154819D02*
X87285714Y-145154819D01*
X88047619Y-144154819D02*
X88666666Y-144154819D01*
X88666666Y-144154819D02*
X88333333Y-144535771D01*
X88333333Y-144535771D02*
X88476190Y-144535771D01*
X88476190Y-144535771D02*
X88571428Y-144583390D01*
X88571428Y-144583390D02*
X88619047Y-144631009D01*
X88619047Y-144631009D02*
X88666666Y-144726247D01*
X88666666Y-144726247D02*
X88666666Y-144964342D01*
X88666666Y-144964342D02*
X88619047Y-145059580D01*
X88619047Y-145059580D02*
X88571428Y-145107200D01*
X88571428Y-145107200D02*
X88476190Y-145154819D01*
X88476190Y-145154819D02*
X88190476Y-145154819D01*
X88190476Y-145154819D02*
X88095238Y-145107200D01*
X88095238Y-145107200D02*
X88047619Y-145059580D01*
D10*
X57434258Y-91207380D02*
X57434258Y-90481666D01*
X58653458Y-90844523D02*
X57434258Y-90844523D01*
X58653458Y-90058333D02*
X57434258Y-90058333D01*
X57434258Y-90058333D02*
X57434258Y-89574523D01*
X57434258Y-89574523D02*
X57492315Y-89453571D01*
X57492315Y-89453571D02*
X57550372Y-89393094D01*
X57550372Y-89393094D02*
X57666486Y-89332618D01*
X57666486Y-89332618D02*
X57840658Y-89332618D01*
X57840658Y-89332618D02*
X57956772Y-89393094D01*
X57956772Y-89393094D02*
X58014829Y-89453571D01*
X58014829Y-89453571D02*
X58072886Y-89574523D01*
X58072886Y-89574523D02*
X58072886Y-90058333D01*
X58653458Y-88123094D02*
X58653458Y-88848809D01*
X58653458Y-88485952D02*
X57434258Y-88485952D01*
X57434258Y-88485952D02*
X57608429Y-88606904D01*
X57608429Y-88606904D02*
X57724543Y-88727856D01*
X57724543Y-88727856D02*
X57782601Y-88848809D01*
X57840658Y-87034523D02*
X58653458Y-87034523D01*
X57376201Y-87336904D02*
X58247058Y-87639285D01*
X58247058Y-87639285D02*
X58247058Y-86853094D01*
X127983571Y-94353458D02*
X127560237Y-93772886D01*
X127257856Y-94353458D02*
X127257856Y-93134258D01*
X127257856Y-93134258D02*
X127741666Y-93134258D01*
X127741666Y-93134258D02*
X127862618Y-93192315D01*
X127862618Y-93192315D02*
X127923095Y-93250372D01*
X127923095Y-93250372D02*
X127983571Y-93366486D01*
X127983571Y-93366486D02*
X127983571Y-93540658D01*
X127983571Y-93540658D02*
X127923095Y-93656772D01*
X127923095Y-93656772D02*
X127862618Y-93714829D01*
X127862618Y-93714829D02*
X127741666Y-93772886D01*
X127741666Y-93772886D02*
X127257856Y-93772886D01*
X129193095Y-94353458D02*
X128467380Y-94353458D01*
X128830237Y-94353458D02*
X128830237Y-93134258D01*
X128830237Y-93134258D02*
X128709285Y-93308429D01*
X128709285Y-93308429D02*
X128588333Y-93424543D01*
X128588333Y-93424543D02*
X128467380Y-93482601D01*
X129797857Y-94353458D02*
X130039761Y-94353458D01*
X130039761Y-94353458D02*
X130160714Y-94295401D01*
X130160714Y-94295401D02*
X130221190Y-94237343D01*
X130221190Y-94237343D02*
X130342142Y-94063172D01*
X130342142Y-94063172D02*
X130402619Y-93830943D01*
X130402619Y-93830943D02*
X130402619Y-93366486D01*
X130402619Y-93366486D02*
X130342142Y-93250372D01*
X130342142Y-93250372D02*
X130281666Y-93192315D01*
X130281666Y-93192315D02*
X130160714Y-93134258D01*
X130160714Y-93134258D02*
X129918809Y-93134258D01*
X129918809Y-93134258D02*
X129797857Y-93192315D01*
X129797857Y-93192315D02*
X129737380Y-93250372D01*
X129737380Y-93250372D02*
X129676904Y-93366486D01*
X129676904Y-93366486D02*
X129676904Y-93656772D01*
X129676904Y-93656772D02*
X129737380Y-93772886D01*
X129737380Y-93772886D02*
X129797857Y-93830943D01*
X129797857Y-93830943D02*
X129918809Y-93889001D01*
X129918809Y-93889001D02*
X130160714Y-93889001D01*
X130160714Y-93889001D02*
X130281666Y-93830943D01*
X130281666Y-93830943D02*
X130342142Y-93772886D01*
X130342142Y-93772886D02*
X130402619Y-93656772D01*
D11*
X123633333Y-113454819D02*
X123300000Y-112978628D01*
X123061905Y-113454819D02*
X123061905Y-112454819D01*
X123061905Y-112454819D02*
X123442857Y-112454819D01*
X123442857Y-112454819D02*
X123538095Y-112502438D01*
X123538095Y-112502438D02*
X123585714Y-112550057D01*
X123585714Y-112550057D02*
X123633333Y-112645295D01*
X123633333Y-112645295D02*
X123633333Y-112788152D01*
X123633333Y-112788152D02*
X123585714Y-112883390D01*
X123585714Y-112883390D02*
X123538095Y-112931009D01*
X123538095Y-112931009D02*
X123442857Y-112978628D01*
X123442857Y-112978628D02*
X123061905Y-112978628D01*
X123966667Y-112454819D02*
X124633333Y-112454819D01*
X124633333Y-112454819D02*
X124204762Y-113454819D01*
D10*
X130596667Y-56834258D02*
X130596667Y-57705115D01*
X130596667Y-57705115D02*
X130536190Y-57879286D01*
X130536190Y-57879286D02*
X130415238Y-57995401D01*
X130415238Y-57995401D02*
X130233809Y-58053458D01*
X130233809Y-58053458D02*
X130112857Y-58053458D01*
X131806190Y-56834258D02*
X131201428Y-56834258D01*
X131201428Y-56834258D02*
X131140952Y-57414829D01*
X131140952Y-57414829D02*
X131201428Y-57356772D01*
X131201428Y-57356772D02*
X131322381Y-57298715D01*
X131322381Y-57298715D02*
X131624762Y-57298715D01*
X131624762Y-57298715D02*
X131745714Y-57356772D01*
X131745714Y-57356772D02*
X131806190Y-57414829D01*
X131806190Y-57414829D02*
X131866667Y-57530943D01*
X131866667Y-57530943D02*
X131866667Y-57821229D01*
X131866667Y-57821229D02*
X131806190Y-57937343D01*
X131806190Y-57937343D02*
X131745714Y-57995401D01*
X131745714Y-57995401D02*
X131624762Y-58053458D01*
X131624762Y-58053458D02*
X131322381Y-58053458D01*
X131322381Y-58053458D02*
X131201428Y-57995401D01*
X131201428Y-57995401D02*
X131140952Y-57937343D01*
X139914258Y-136928095D02*
X139914258Y-136081428D01*
X139914258Y-136081428D02*
X141133458Y-136928095D01*
X141133458Y-136928095D02*
X141133458Y-136081428D01*
X140030372Y-135658095D02*
X139972315Y-135597619D01*
X139972315Y-135597619D02*
X139914258Y-135476666D01*
X139914258Y-135476666D02*
X139914258Y-135174285D01*
X139914258Y-135174285D02*
X139972315Y-135053333D01*
X139972315Y-135053333D02*
X140030372Y-134992857D01*
X140030372Y-134992857D02*
X140146486Y-134932380D01*
X140146486Y-134932380D02*
X140262601Y-134932380D01*
X140262601Y-134932380D02*
X140436772Y-134992857D01*
X140436772Y-134992857D02*
X141133458Y-135718571D01*
X141133458Y-135718571D02*
X141133458Y-134932380D01*
X140683571Y-101153458D02*
X140260237Y-100572886D01*
X139957856Y-101153458D02*
X139957856Y-99934258D01*
X139957856Y-99934258D02*
X140441666Y-99934258D01*
X140441666Y-99934258D02*
X140562618Y-99992315D01*
X140562618Y-99992315D02*
X140623095Y-100050372D01*
X140623095Y-100050372D02*
X140683571Y-100166486D01*
X140683571Y-100166486D02*
X140683571Y-100340658D01*
X140683571Y-100340658D02*
X140623095Y-100456772D01*
X140623095Y-100456772D02*
X140562618Y-100514829D01*
X140562618Y-100514829D02*
X140441666Y-100572886D01*
X140441666Y-100572886D02*
X139957856Y-100572886D01*
X141167380Y-100050372D02*
X141227856Y-99992315D01*
X141227856Y-99992315D02*
X141348809Y-99934258D01*
X141348809Y-99934258D02*
X141651190Y-99934258D01*
X141651190Y-99934258D02*
X141772142Y-99992315D01*
X141772142Y-99992315D02*
X141832618Y-100050372D01*
X141832618Y-100050372D02*
X141893095Y-100166486D01*
X141893095Y-100166486D02*
X141893095Y-100282601D01*
X141893095Y-100282601D02*
X141832618Y-100456772D01*
X141832618Y-100456772D02*
X141106904Y-101153458D01*
X141106904Y-101153458D02*
X141893095Y-101153458D01*
X143042142Y-99934258D02*
X142437380Y-99934258D01*
X142437380Y-99934258D02*
X142376904Y-100514829D01*
X142376904Y-100514829D02*
X142437380Y-100456772D01*
X142437380Y-100456772D02*
X142558333Y-100398715D01*
X142558333Y-100398715D02*
X142860714Y-100398715D01*
X142860714Y-100398715D02*
X142981666Y-100456772D01*
X142981666Y-100456772D02*
X143042142Y-100514829D01*
X143042142Y-100514829D02*
X143102619Y-100630943D01*
X143102619Y-100630943D02*
X143102619Y-100921229D01*
X143102619Y-100921229D02*
X143042142Y-101037343D01*
X143042142Y-101037343D02*
X142981666Y-101095401D01*
X142981666Y-101095401D02*
X142860714Y-101153458D01*
X142860714Y-101153458D02*
X142558333Y-101153458D01*
X142558333Y-101153458D02*
X142437380Y-101095401D01*
X142437380Y-101095401D02*
X142376904Y-101037343D01*
X82997381Y-116386258D02*
X83723095Y-116386258D01*
X83360238Y-117605458D02*
X83360238Y-116386258D01*
X84146428Y-117605458D02*
X84146428Y-116386258D01*
X84146428Y-116386258D02*
X84630238Y-116386258D01*
X84630238Y-116386258D02*
X84751190Y-116444315D01*
X84751190Y-116444315D02*
X84811667Y-116502372D01*
X84811667Y-116502372D02*
X84872143Y-116618486D01*
X84872143Y-116618486D02*
X84872143Y-116792658D01*
X84872143Y-116792658D02*
X84811667Y-116908772D01*
X84811667Y-116908772D02*
X84751190Y-116966829D01*
X84751190Y-116966829D02*
X84630238Y-117024886D01*
X84630238Y-117024886D02*
X84146428Y-117024886D01*
X86021190Y-116386258D02*
X85416428Y-116386258D01*
X85416428Y-116386258D02*
X85355952Y-116966829D01*
X85355952Y-116966829D02*
X85416428Y-116908772D01*
X85416428Y-116908772D02*
X85537381Y-116850715D01*
X85537381Y-116850715D02*
X85839762Y-116850715D01*
X85839762Y-116850715D02*
X85960714Y-116908772D01*
X85960714Y-116908772D02*
X86021190Y-116966829D01*
X86021190Y-116966829D02*
X86081667Y-117082943D01*
X86081667Y-117082943D02*
X86081667Y-117373229D01*
X86081667Y-117373229D02*
X86021190Y-117489343D01*
X86021190Y-117489343D02*
X85960714Y-117547401D01*
X85960714Y-117547401D02*
X85839762Y-117605458D01*
X85839762Y-117605458D02*
X85537381Y-117605458D01*
X85537381Y-117605458D02*
X85416428Y-117547401D01*
X85416428Y-117547401D02*
X85355952Y-117489343D01*
X147083571Y-99037343D02*
X147023095Y-99095401D01*
X147023095Y-99095401D02*
X146841666Y-99153458D01*
X146841666Y-99153458D02*
X146720714Y-99153458D01*
X146720714Y-99153458D02*
X146539285Y-99095401D01*
X146539285Y-99095401D02*
X146418333Y-98979286D01*
X146418333Y-98979286D02*
X146357856Y-98863172D01*
X146357856Y-98863172D02*
X146297380Y-98630943D01*
X146297380Y-98630943D02*
X146297380Y-98456772D01*
X146297380Y-98456772D02*
X146357856Y-98224543D01*
X146357856Y-98224543D02*
X146418333Y-98108429D01*
X146418333Y-98108429D02*
X146539285Y-97992315D01*
X146539285Y-97992315D02*
X146720714Y-97934258D01*
X146720714Y-97934258D02*
X146841666Y-97934258D01*
X146841666Y-97934258D02*
X147023095Y-97992315D01*
X147023095Y-97992315D02*
X147083571Y-98050372D01*
X148293095Y-99153458D02*
X147567380Y-99153458D01*
X147930237Y-99153458D02*
X147930237Y-97934258D01*
X147930237Y-97934258D02*
X147809285Y-98108429D01*
X147809285Y-98108429D02*
X147688333Y-98224543D01*
X147688333Y-98224543D02*
X147567380Y-98282601D01*
X149502619Y-99153458D02*
X148776904Y-99153458D01*
X149139761Y-99153458D02*
X149139761Y-97934258D01*
X149139761Y-97934258D02*
X149018809Y-98108429D01*
X149018809Y-98108429D02*
X148897857Y-98224543D01*
X148897857Y-98224543D02*
X148776904Y-98282601D01*
X59813333Y-78212343D02*
X59752857Y-78270401D01*
X59752857Y-78270401D02*
X59571428Y-78328458D01*
X59571428Y-78328458D02*
X59450476Y-78328458D01*
X59450476Y-78328458D02*
X59269047Y-78270401D01*
X59269047Y-78270401D02*
X59148095Y-78154286D01*
X59148095Y-78154286D02*
X59087618Y-78038172D01*
X59087618Y-78038172D02*
X59027142Y-77805943D01*
X59027142Y-77805943D02*
X59027142Y-77631772D01*
X59027142Y-77631772D02*
X59087618Y-77399543D01*
X59087618Y-77399543D02*
X59148095Y-77283429D01*
X59148095Y-77283429D02*
X59269047Y-77167315D01*
X59269047Y-77167315D02*
X59450476Y-77109258D01*
X59450476Y-77109258D02*
X59571428Y-77109258D01*
X59571428Y-77109258D02*
X59752857Y-77167315D01*
X59752857Y-77167315D02*
X59813333Y-77225372D01*
X60236666Y-77109258D02*
X61022857Y-77109258D01*
X61022857Y-77109258D02*
X60599523Y-77573715D01*
X60599523Y-77573715D02*
X60780952Y-77573715D01*
X60780952Y-77573715D02*
X60901904Y-77631772D01*
X60901904Y-77631772D02*
X60962380Y-77689829D01*
X60962380Y-77689829D02*
X61022857Y-77805943D01*
X61022857Y-77805943D02*
X61022857Y-78096229D01*
X61022857Y-78096229D02*
X60962380Y-78212343D01*
X60962380Y-78212343D02*
X60901904Y-78270401D01*
X60901904Y-78270401D02*
X60780952Y-78328458D01*
X60780952Y-78328458D02*
X60418095Y-78328458D01*
X60418095Y-78328458D02*
X60297142Y-78270401D01*
X60297142Y-78270401D02*
X60236666Y-78212343D01*
X144758571Y-104953458D02*
X144335237Y-104372886D01*
X144032856Y-104953458D02*
X144032856Y-103734258D01*
X144032856Y-103734258D02*
X144516666Y-103734258D01*
X144516666Y-103734258D02*
X144637618Y-103792315D01*
X144637618Y-103792315D02*
X144698095Y-103850372D01*
X144698095Y-103850372D02*
X144758571Y-103966486D01*
X144758571Y-103966486D02*
X144758571Y-104140658D01*
X144758571Y-104140658D02*
X144698095Y-104256772D01*
X144698095Y-104256772D02*
X144637618Y-104314829D01*
X144637618Y-104314829D02*
X144516666Y-104372886D01*
X144516666Y-104372886D02*
X144032856Y-104372886D01*
X145242380Y-103850372D02*
X145302856Y-103792315D01*
X145302856Y-103792315D02*
X145423809Y-103734258D01*
X145423809Y-103734258D02*
X145726190Y-103734258D01*
X145726190Y-103734258D02*
X145847142Y-103792315D01*
X145847142Y-103792315D02*
X145907618Y-103850372D01*
X145907618Y-103850372D02*
X145968095Y-103966486D01*
X145968095Y-103966486D02*
X145968095Y-104082601D01*
X145968095Y-104082601D02*
X145907618Y-104256772D01*
X145907618Y-104256772D02*
X145181904Y-104953458D01*
X145181904Y-104953458D02*
X145968095Y-104953458D01*
X147177619Y-104953458D02*
X146451904Y-104953458D01*
X146814761Y-104953458D02*
X146814761Y-103734258D01*
X146814761Y-103734258D02*
X146693809Y-103908429D01*
X146693809Y-103908429D02*
X146572857Y-104024543D01*
X146572857Y-104024543D02*
X146451904Y-104082601D01*
D11*
X151633333Y-60359580D02*
X151585714Y-60407200D01*
X151585714Y-60407200D02*
X151442857Y-60454819D01*
X151442857Y-60454819D02*
X151347619Y-60454819D01*
X151347619Y-60454819D02*
X151204762Y-60407200D01*
X151204762Y-60407200D02*
X151109524Y-60311961D01*
X151109524Y-60311961D02*
X151061905Y-60216723D01*
X151061905Y-60216723D02*
X151014286Y-60026247D01*
X151014286Y-60026247D02*
X151014286Y-59883390D01*
X151014286Y-59883390D02*
X151061905Y-59692914D01*
X151061905Y-59692914D02*
X151109524Y-59597676D01*
X151109524Y-59597676D02*
X151204762Y-59502438D01*
X151204762Y-59502438D02*
X151347619Y-59454819D01*
X151347619Y-59454819D02*
X151442857Y-59454819D01*
X151442857Y-59454819D02*
X151585714Y-59502438D01*
X151585714Y-59502438D02*
X151633333Y-59550057D01*
X152490476Y-59454819D02*
X152300000Y-59454819D01*
X152300000Y-59454819D02*
X152204762Y-59502438D01*
X152204762Y-59502438D02*
X152157143Y-59550057D01*
X152157143Y-59550057D02*
X152061905Y-59692914D01*
X152061905Y-59692914D02*
X152014286Y-59883390D01*
X152014286Y-59883390D02*
X152014286Y-60264342D01*
X152014286Y-60264342D02*
X152061905Y-60359580D01*
X152061905Y-60359580D02*
X152109524Y-60407200D01*
X152109524Y-60407200D02*
X152204762Y-60454819D01*
X152204762Y-60454819D02*
X152395238Y-60454819D01*
X152395238Y-60454819D02*
X152490476Y-60407200D01*
X152490476Y-60407200D02*
X152538095Y-60359580D01*
X152538095Y-60359580D02*
X152585714Y-60264342D01*
X152585714Y-60264342D02*
X152585714Y-60026247D01*
X152585714Y-60026247D02*
X152538095Y-59931009D01*
X152538095Y-59931009D02*
X152490476Y-59883390D01*
X152490476Y-59883390D02*
X152395238Y-59835771D01*
X152395238Y-59835771D02*
X152204762Y-59835771D01*
X152204762Y-59835771D02*
X152109524Y-59883390D01*
X152109524Y-59883390D02*
X152061905Y-59931009D01*
X152061905Y-59931009D02*
X152014286Y-60026247D01*
D10*
X61669047Y-128459572D02*
X61548095Y-128401515D01*
X61548095Y-128401515D02*
X61427142Y-128285401D01*
X61427142Y-128285401D02*
X61245714Y-128111229D01*
X61245714Y-128111229D02*
X61124761Y-128053172D01*
X61124761Y-128053172D02*
X61003809Y-128053172D01*
X61064285Y-128343458D02*
X60943333Y-128285401D01*
X60943333Y-128285401D02*
X60822380Y-128169286D01*
X60822380Y-128169286D02*
X60761904Y-127937058D01*
X60761904Y-127937058D02*
X60761904Y-127530658D01*
X60761904Y-127530658D02*
X60822380Y-127298429D01*
X60822380Y-127298429D02*
X60943333Y-127182315D01*
X60943333Y-127182315D02*
X61064285Y-127124258D01*
X61064285Y-127124258D02*
X61306190Y-127124258D01*
X61306190Y-127124258D02*
X61427142Y-127182315D01*
X61427142Y-127182315D02*
X61548095Y-127298429D01*
X61548095Y-127298429D02*
X61608571Y-127530658D01*
X61608571Y-127530658D02*
X61608571Y-127937058D01*
X61608571Y-127937058D02*
X61548095Y-128169286D01*
X61548095Y-128169286D02*
X61427142Y-128285401D01*
X61427142Y-128285401D02*
X61306190Y-128343458D01*
X61306190Y-128343458D02*
X61064285Y-128343458D01*
X62092380Y-127240372D02*
X62152856Y-127182315D01*
X62152856Y-127182315D02*
X62273809Y-127124258D01*
X62273809Y-127124258D02*
X62576190Y-127124258D01*
X62576190Y-127124258D02*
X62697142Y-127182315D01*
X62697142Y-127182315D02*
X62757618Y-127240372D01*
X62757618Y-127240372D02*
X62818095Y-127356486D01*
X62818095Y-127356486D02*
X62818095Y-127472601D01*
X62818095Y-127472601D02*
X62757618Y-127646772D01*
X62757618Y-127646772D02*
X62031904Y-128343458D01*
X62031904Y-128343458D02*
X62818095Y-128343458D01*
X61686258Y-95107380D02*
X61686258Y-94381666D01*
X62905458Y-94744523D02*
X61686258Y-94744523D01*
X62905458Y-93958333D02*
X61686258Y-93958333D01*
X61686258Y-93958333D02*
X61686258Y-93474523D01*
X61686258Y-93474523D02*
X61744315Y-93353571D01*
X61744315Y-93353571D02*
X61802372Y-93293094D01*
X61802372Y-93293094D02*
X61918486Y-93232618D01*
X61918486Y-93232618D02*
X62092658Y-93232618D01*
X62092658Y-93232618D02*
X62208772Y-93293094D01*
X62208772Y-93293094D02*
X62266829Y-93353571D01*
X62266829Y-93353571D02*
X62324886Y-93474523D01*
X62324886Y-93474523D02*
X62324886Y-93958333D01*
X62905458Y-92023094D02*
X62905458Y-92748809D01*
X62905458Y-92385952D02*
X61686258Y-92385952D01*
X61686258Y-92385952D02*
X61860429Y-92506904D01*
X61860429Y-92506904D02*
X61976543Y-92627856D01*
X61976543Y-92627856D02*
X62034601Y-92748809D01*
X61686258Y-90874047D02*
X61686258Y-91478809D01*
X61686258Y-91478809D02*
X62266829Y-91539285D01*
X62266829Y-91539285D02*
X62208772Y-91478809D01*
X62208772Y-91478809D02*
X62150715Y-91357856D01*
X62150715Y-91357856D02*
X62150715Y-91055475D01*
X62150715Y-91055475D02*
X62208772Y-90934523D01*
X62208772Y-90934523D02*
X62266829Y-90874047D01*
X62266829Y-90874047D02*
X62382943Y-90813570D01*
X62382943Y-90813570D02*
X62673229Y-90813570D01*
X62673229Y-90813570D02*
X62789343Y-90874047D01*
X62789343Y-90874047D02*
X62847401Y-90934523D01*
X62847401Y-90934523D02*
X62905458Y-91055475D01*
X62905458Y-91055475D02*
X62905458Y-91357856D01*
X62905458Y-91357856D02*
X62847401Y-91478809D01*
X62847401Y-91478809D02*
X62789343Y-91539285D01*
D11*
X119457142Y-117359580D02*
X119409523Y-117407200D01*
X119409523Y-117407200D02*
X119266666Y-117454819D01*
X119266666Y-117454819D02*
X119171428Y-117454819D01*
X119171428Y-117454819D02*
X119028571Y-117407200D01*
X119028571Y-117407200D02*
X118933333Y-117311961D01*
X118933333Y-117311961D02*
X118885714Y-117216723D01*
X118885714Y-117216723D02*
X118838095Y-117026247D01*
X118838095Y-117026247D02*
X118838095Y-116883390D01*
X118838095Y-116883390D02*
X118885714Y-116692914D01*
X118885714Y-116692914D02*
X118933333Y-116597676D01*
X118933333Y-116597676D02*
X119028571Y-116502438D01*
X119028571Y-116502438D02*
X119171428Y-116454819D01*
X119171428Y-116454819D02*
X119266666Y-116454819D01*
X119266666Y-116454819D02*
X119409523Y-116502438D01*
X119409523Y-116502438D02*
X119457142Y-116550057D01*
X120409523Y-117454819D02*
X119838095Y-117454819D01*
X120123809Y-117454819D02*
X120123809Y-116454819D01*
X120123809Y-116454819D02*
X120028571Y-116597676D01*
X120028571Y-116597676D02*
X119933333Y-116692914D01*
X119933333Y-116692914D02*
X119838095Y-116740533D01*
X121028571Y-116454819D02*
X121123809Y-116454819D01*
X121123809Y-116454819D02*
X121219047Y-116502438D01*
X121219047Y-116502438D02*
X121266666Y-116550057D01*
X121266666Y-116550057D02*
X121314285Y-116645295D01*
X121314285Y-116645295D02*
X121361904Y-116835771D01*
X121361904Y-116835771D02*
X121361904Y-117073866D01*
X121361904Y-117073866D02*
X121314285Y-117264342D01*
X121314285Y-117264342D02*
X121266666Y-117359580D01*
X121266666Y-117359580D02*
X121219047Y-117407200D01*
X121219047Y-117407200D02*
X121123809Y-117454819D01*
X121123809Y-117454819D02*
X121028571Y-117454819D01*
X121028571Y-117454819D02*
X120933333Y-117407200D01*
X120933333Y-117407200D02*
X120885714Y-117359580D01*
X120885714Y-117359580D02*
X120838095Y-117264342D01*
X120838095Y-117264342D02*
X120790476Y-117073866D01*
X120790476Y-117073866D02*
X120790476Y-116835771D01*
X120790476Y-116835771D02*
X120838095Y-116645295D01*
X120838095Y-116645295D02*
X120885714Y-116550057D01*
X120885714Y-116550057D02*
X120933333Y-116502438D01*
X120933333Y-116502438D02*
X121028571Y-116454819D01*
D10*
X134010237Y-100498458D02*
X134010237Y-99279258D01*
X135340714Y-100382343D02*
X135280238Y-100440401D01*
X135280238Y-100440401D02*
X135098809Y-100498458D01*
X135098809Y-100498458D02*
X134977857Y-100498458D01*
X134977857Y-100498458D02*
X134796428Y-100440401D01*
X134796428Y-100440401D02*
X134675476Y-100324286D01*
X134675476Y-100324286D02*
X134614999Y-100208172D01*
X134614999Y-100208172D02*
X134554523Y-99975943D01*
X134554523Y-99975943D02*
X134554523Y-99801772D01*
X134554523Y-99801772D02*
X134614999Y-99569543D01*
X134614999Y-99569543D02*
X134675476Y-99453429D01*
X134675476Y-99453429D02*
X134796428Y-99337315D01*
X134796428Y-99337315D02*
X134977857Y-99279258D01*
X134977857Y-99279258D02*
X135098809Y-99279258D01*
X135098809Y-99279258D02*
X135280238Y-99337315D01*
X135280238Y-99337315D02*
X135340714Y-99395372D01*
X136550238Y-100498458D02*
X135824523Y-100498458D01*
X136187380Y-100498458D02*
X136187380Y-99279258D01*
X136187380Y-99279258D02*
X136066428Y-99453429D01*
X136066428Y-99453429D02*
X135945476Y-99569543D01*
X135945476Y-99569543D02*
X135824523Y-99627601D01*
X159007980Y-143799508D02*
X159007980Y-144786479D01*
X159007980Y-144786479D02*
X159068457Y-144902593D01*
X159068457Y-144902593D02*
X159128933Y-144960651D01*
X159128933Y-144960651D02*
X159249885Y-145018708D01*
X159249885Y-145018708D02*
X159491790Y-145018708D01*
X159491790Y-145018708D02*
X159612742Y-144960651D01*
X159612742Y-144960651D02*
X159673219Y-144902593D01*
X159673219Y-144902593D02*
X159733695Y-144786479D01*
X159733695Y-144786479D02*
X159733695Y-143799508D01*
X160217504Y-143799508D02*
X161003695Y-143799508D01*
X161003695Y-143799508D02*
X160580361Y-144263965D01*
X160580361Y-144263965D02*
X160761790Y-144263965D01*
X160761790Y-144263965D02*
X160882742Y-144322022D01*
X160882742Y-144322022D02*
X160943218Y-144380079D01*
X160943218Y-144380079D02*
X161003695Y-144496193D01*
X161003695Y-144496193D02*
X161003695Y-144786479D01*
X161003695Y-144786479D02*
X160943218Y-144902593D01*
X160943218Y-144902593D02*
X160882742Y-144960651D01*
X160882742Y-144960651D02*
X160761790Y-145018708D01*
X160761790Y-145018708D02*
X160398933Y-145018708D01*
X160398933Y-145018708D02*
X160277980Y-144960651D01*
X160277980Y-144960651D02*
X160217504Y-144902593D01*
D11*
X119457142Y-119559580D02*
X119409523Y-119607200D01*
X119409523Y-119607200D02*
X119266666Y-119654819D01*
X119266666Y-119654819D02*
X119171428Y-119654819D01*
X119171428Y-119654819D02*
X119028571Y-119607200D01*
X119028571Y-119607200D02*
X118933333Y-119511961D01*
X118933333Y-119511961D02*
X118885714Y-119416723D01*
X118885714Y-119416723D02*
X118838095Y-119226247D01*
X118838095Y-119226247D02*
X118838095Y-119083390D01*
X118838095Y-119083390D02*
X118885714Y-118892914D01*
X118885714Y-118892914D02*
X118933333Y-118797676D01*
X118933333Y-118797676D02*
X119028571Y-118702438D01*
X119028571Y-118702438D02*
X119171428Y-118654819D01*
X119171428Y-118654819D02*
X119266666Y-118654819D01*
X119266666Y-118654819D02*
X119409523Y-118702438D01*
X119409523Y-118702438D02*
X119457142Y-118750057D01*
X120409523Y-119654819D02*
X119838095Y-119654819D01*
X120123809Y-119654819D02*
X120123809Y-118654819D01*
X120123809Y-118654819D02*
X120028571Y-118797676D01*
X120028571Y-118797676D02*
X119933333Y-118892914D01*
X119933333Y-118892914D02*
X119838095Y-118940533D01*
X121266666Y-118654819D02*
X121076190Y-118654819D01*
X121076190Y-118654819D02*
X120980952Y-118702438D01*
X120980952Y-118702438D02*
X120933333Y-118750057D01*
X120933333Y-118750057D02*
X120838095Y-118892914D01*
X120838095Y-118892914D02*
X120790476Y-119083390D01*
X120790476Y-119083390D02*
X120790476Y-119464342D01*
X120790476Y-119464342D02*
X120838095Y-119559580D01*
X120838095Y-119559580D02*
X120885714Y-119607200D01*
X120885714Y-119607200D02*
X120980952Y-119654819D01*
X120980952Y-119654819D02*
X121171428Y-119654819D01*
X121171428Y-119654819D02*
X121266666Y-119607200D01*
X121266666Y-119607200D02*
X121314285Y-119559580D01*
X121314285Y-119559580D02*
X121361904Y-119464342D01*
X121361904Y-119464342D02*
X121361904Y-119226247D01*
X121361904Y-119226247D02*
X121314285Y-119131009D01*
X121314285Y-119131009D02*
X121266666Y-119083390D01*
X121266666Y-119083390D02*
X121171428Y-119035771D01*
X121171428Y-119035771D02*
X120980952Y-119035771D01*
X120980952Y-119035771D02*
X120885714Y-119083390D01*
X120885714Y-119083390D02*
X120838095Y-119131009D01*
X120838095Y-119131009D02*
X120790476Y-119226247D01*
D10*
X61157258Y-86582380D02*
X61157258Y-85856666D01*
X62376458Y-86219523D02*
X61157258Y-86219523D01*
X62376458Y-85433333D02*
X61157258Y-85433333D01*
X61157258Y-85433333D02*
X61157258Y-84949523D01*
X61157258Y-84949523D02*
X61215315Y-84828571D01*
X61215315Y-84828571D02*
X61273372Y-84768094D01*
X61273372Y-84768094D02*
X61389486Y-84707618D01*
X61389486Y-84707618D02*
X61563658Y-84707618D01*
X61563658Y-84707618D02*
X61679772Y-84768094D01*
X61679772Y-84768094D02*
X61737829Y-84828571D01*
X61737829Y-84828571D02*
X61795886Y-84949523D01*
X61795886Y-84949523D02*
X61795886Y-85433333D01*
X62376458Y-83498094D02*
X62376458Y-84223809D01*
X62376458Y-83860952D02*
X61157258Y-83860952D01*
X61157258Y-83860952D02*
X61331429Y-83981904D01*
X61331429Y-83981904D02*
X61447543Y-84102856D01*
X61447543Y-84102856D02*
X61505601Y-84223809D01*
X61273372Y-83014285D02*
X61215315Y-82953809D01*
X61215315Y-82953809D02*
X61157258Y-82832856D01*
X61157258Y-82832856D02*
X61157258Y-82530475D01*
X61157258Y-82530475D02*
X61215315Y-82409523D01*
X61215315Y-82409523D02*
X61273372Y-82349047D01*
X61273372Y-82349047D02*
X61389486Y-82288570D01*
X61389486Y-82288570D02*
X61505601Y-82288570D01*
X61505601Y-82288570D02*
X61679772Y-82349047D01*
X61679772Y-82349047D02*
X62376458Y-83074761D01*
X62376458Y-83074761D02*
X62376458Y-82288570D01*
X112488333Y-67753458D02*
X112064999Y-67172886D01*
X111762618Y-67753458D02*
X111762618Y-66534258D01*
X111762618Y-66534258D02*
X112246428Y-66534258D01*
X112246428Y-66534258D02*
X112367380Y-66592315D01*
X112367380Y-66592315D02*
X112427857Y-66650372D01*
X112427857Y-66650372D02*
X112488333Y-66766486D01*
X112488333Y-66766486D02*
X112488333Y-66940658D01*
X112488333Y-66940658D02*
X112427857Y-67056772D01*
X112427857Y-67056772D02*
X112367380Y-67114829D01*
X112367380Y-67114829D02*
X112246428Y-67172886D01*
X112246428Y-67172886D02*
X111762618Y-67172886D01*
X113697857Y-67753458D02*
X112972142Y-67753458D01*
X113334999Y-67753458D02*
X113334999Y-66534258D01*
X113334999Y-66534258D02*
X113214047Y-66708429D01*
X113214047Y-66708429D02*
X113093095Y-66824543D01*
X113093095Y-66824543D02*
X112972142Y-66882601D01*
X61159258Y-90377618D02*
X61159258Y-89651904D01*
X62378458Y-90014761D02*
X61159258Y-90014761D01*
X62378458Y-89228571D02*
X61159258Y-89228571D01*
X61159258Y-89228571D02*
X61159258Y-88744761D01*
X61159258Y-88744761D02*
X61217315Y-88623809D01*
X61217315Y-88623809D02*
X61275372Y-88563332D01*
X61275372Y-88563332D02*
X61391486Y-88502856D01*
X61391486Y-88502856D02*
X61565658Y-88502856D01*
X61565658Y-88502856D02*
X61681772Y-88563332D01*
X61681772Y-88563332D02*
X61739829Y-88623809D01*
X61739829Y-88623809D02*
X61797886Y-88744761D01*
X61797886Y-88744761D02*
X61797886Y-89228571D01*
X61681772Y-87777142D02*
X61623715Y-87898094D01*
X61623715Y-87898094D02*
X61565658Y-87958571D01*
X61565658Y-87958571D02*
X61449543Y-88019047D01*
X61449543Y-88019047D02*
X61391486Y-88019047D01*
X61391486Y-88019047D02*
X61275372Y-87958571D01*
X61275372Y-87958571D02*
X61217315Y-87898094D01*
X61217315Y-87898094D02*
X61159258Y-87777142D01*
X61159258Y-87777142D02*
X61159258Y-87535237D01*
X61159258Y-87535237D02*
X61217315Y-87414285D01*
X61217315Y-87414285D02*
X61275372Y-87353809D01*
X61275372Y-87353809D02*
X61391486Y-87293332D01*
X61391486Y-87293332D02*
X61449543Y-87293332D01*
X61449543Y-87293332D02*
X61565658Y-87353809D01*
X61565658Y-87353809D02*
X61623715Y-87414285D01*
X61623715Y-87414285D02*
X61681772Y-87535237D01*
X61681772Y-87535237D02*
X61681772Y-87777142D01*
X61681772Y-87777142D02*
X61739829Y-87898094D01*
X61739829Y-87898094D02*
X61797886Y-87958571D01*
X61797886Y-87958571D02*
X61914001Y-88019047D01*
X61914001Y-88019047D02*
X62146229Y-88019047D01*
X62146229Y-88019047D02*
X62262343Y-87958571D01*
X62262343Y-87958571D02*
X62320401Y-87898094D01*
X62320401Y-87898094D02*
X62378458Y-87777142D01*
X62378458Y-87777142D02*
X62378458Y-87535237D01*
X62378458Y-87535237D02*
X62320401Y-87414285D01*
X62320401Y-87414285D02*
X62262343Y-87353809D01*
X62262343Y-87353809D02*
X62146229Y-87293332D01*
X62146229Y-87293332D02*
X61914001Y-87293332D01*
X61914001Y-87293332D02*
X61797886Y-87353809D01*
X61797886Y-87353809D02*
X61739829Y-87414285D01*
X61739829Y-87414285D02*
X61681772Y-87535237D01*
X148083571Y-101153458D02*
X147660237Y-100572886D01*
X147357856Y-101153458D02*
X147357856Y-99934258D01*
X147357856Y-99934258D02*
X147841666Y-99934258D01*
X147841666Y-99934258D02*
X147962618Y-99992315D01*
X147962618Y-99992315D02*
X148023095Y-100050372D01*
X148023095Y-100050372D02*
X148083571Y-100166486D01*
X148083571Y-100166486D02*
X148083571Y-100340658D01*
X148083571Y-100340658D02*
X148023095Y-100456772D01*
X148023095Y-100456772D02*
X147962618Y-100514829D01*
X147962618Y-100514829D02*
X147841666Y-100572886D01*
X147841666Y-100572886D02*
X147357856Y-100572886D01*
X149293095Y-101153458D02*
X148567380Y-101153458D01*
X148930237Y-101153458D02*
X148930237Y-99934258D01*
X148930237Y-99934258D02*
X148809285Y-100108429D01*
X148809285Y-100108429D02*
X148688333Y-100224543D01*
X148688333Y-100224543D02*
X148567380Y-100282601D01*
X150502619Y-101153458D02*
X149776904Y-101153458D01*
X150139761Y-101153458D02*
X150139761Y-99934258D01*
X150139761Y-99934258D02*
X150018809Y-100108429D01*
X150018809Y-100108429D02*
X149897857Y-100224543D01*
X149897857Y-100224543D02*
X149776904Y-100282601D01*
X121362343Y-100491428D02*
X121420401Y-100551904D01*
X121420401Y-100551904D02*
X121478458Y-100733333D01*
X121478458Y-100733333D02*
X121478458Y-100854285D01*
X121478458Y-100854285D02*
X121420401Y-101035714D01*
X121420401Y-101035714D02*
X121304286Y-101156666D01*
X121304286Y-101156666D02*
X121188172Y-101217143D01*
X121188172Y-101217143D02*
X120955943Y-101277619D01*
X120955943Y-101277619D02*
X120781772Y-101277619D01*
X120781772Y-101277619D02*
X120549543Y-101217143D01*
X120549543Y-101217143D02*
X120433429Y-101156666D01*
X120433429Y-101156666D02*
X120317315Y-101035714D01*
X120317315Y-101035714D02*
X120259258Y-100854285D01*
X120259258Y-100854285D02*
X120259258Y-100733333D01*
X120259258Y-100733333D02*
X120317315Y-100551904D01*
X120317315Y-100551904D02*
X120375372Y-100491428D01*
X120375372Y-100007619D02*
X120317315Y-99947143D01*
X120317315Y-99947143D02*
X120259258Y-99826190D01*
X120259258Y-99826190D02*
X120259258Y-99523809D01*
X120259258Y-99523809D02*
X120317315Y-99402857D01*
X120317315Y-99402857D02*
X120375372Y-99342381D01*
X120375372Y-99342381D02*
X120491486Y-99281904D01*
X120491486Y-99281904D02*
X120607601Y-99281904D01*
X120607601Y-99281904D02*
X120781772Y-99342381D01*
X120781772Y-99342381D02*
X121478458Y-100068095D01*
X121478458Y-100068095D02*
X121478458Y-99281904D01*
X120259258Y-98132857D02*
X120259258Y-98737619D01*
X120259258Y-98737619D02*
X120839829Y-98798095D01*
X120839829Y-98798095D02*
X120781772Y-98737619D01*
X120781772Y-98737619D02*
X120723715Y-98616666D01*
X120723715Y-98616666D02*
X120723715Y-98314285D01*
X120723715Y-98314285D02*
X120781772Y-98193333D01*
X120781772Y-98193333D02*
X120839829Y-98132857D01*
X120839829Y-98132857D02*
X120955943Y-98072380D01*
X120955943Y-98072380D02*
X121246229Y-98072380D01*
X121246229Y-98072380D02*
X121362343Y-98132857D01*
X121362343Y-98132857D02*
X121420401Y-98193333D01*
X121420401Y-98193333D02*
X121478458Y-98314285D01*
X121478458Y-98314285D02*
X121478458Y-98616666D01*
X121478458Y-98616666D02*
X121420401Y-98737619D01*
X121420401Y-98737619D02*
X121362343Y-98798095D01*
X58267619Y-80359258D02*
X58993333Y-80359258D01*
X58630476Y-81578458D02*
X58630476Y-80359258D01*
X59416666Y-81578458D02*
X59416666Y-80359258D01*
X59416666Y-80359258D02*
X59900476Y-80359258D01*
X59900476Y-80359258D02*
X60021428Y-80417315D01*
X60021428Y-80417315D02*
X60081905Y-80475372D01*
X60081905Y-80475372D02*
X60142381Y-80591486D01*
X60142381Y-80591486D02*
X60142381Y-80765658D01*
X60142381Y-80765658D02*
X60081905Y-80881772D01*
X60081905Y-80881772D02*
X60021428Y-80939829D01*
X60021428Y-80939829D02*
X59900476Y-80997886D01*
X59900476Y-80997886D02*
X59416666Y-80997886D01*
X61351905Y-81578458D02*
X60626190Y-81578458D01*
X60989047Y-81578458D02*
X60989047Y-80359258D01*
X60989047Y-80359258D02*
X60868095Y-80533429D01*
X60868095Y-80533429D02*
X60747143Y-80649543D01*
X60747143Y-80649543D02*
X60626190Y-80707601D01*
X62440476Y-80359258D02*
X62198571Y-80359258D01*
X62198571Y-80359258D02*
X62077619Y-80417315D01*
X62077619Y-80417315D02*
X62017143Y-80475372D01*
X62017143Y-80475372D02*
X61896190Y-80649543D01*
X61896190Y-80649543D02*
X61835714Y-80881772D01*
X61835714Y-80881772D02*
X61835714Y-81346229D01*
X61835714Y-81346229D02*
X61896190Y-81462343D01*
X61896190Y-81462343D02*
X61956667Y-81520401D01*
X61956667Y-81520401D02*
X62077619Y-81578458D01*
X62077619Y-81578458D02*
X62319524Y-81578458D01*
X62319524Y-81578458D02*
X62440476Y-81520401D01*
X62440476Y-81520401D02*
X62500952Y-81462343D01*
X62500952Y-81462343D02*
X62561429Y-81346229D01*
X62561429Y-81346229D02*
X62561429Y-81055943D01*
X62561429Y-81055943D02*
X62500952Y-80939829D01*
X62500952Y-80939829D02*
X62440476Y-80881772D01*
X62440476Y-80881772D02*
X62319524Y-80823715D01*
X62319524Y-80823715D02*
X62077619Y-80823715D01*
X62077619Y-80823715D02*
X61956667Y-80881772D01*
X61956667Y-80881772D02*
X61896190Y-80939829D01*
X61896190Y-80939829D02*
X61835714Y-81055943D01*
X84588333Y-122853458D02*
X84164999Y-122272886D01*
X83862618Y-122853458D02*
X83862618Y-121634258D01*
X83862618Y-121634258D02*
X84346428Y-121634258D01*
X84346428Y-121634258D02*
X84467380Y-121692315D01*
X84467380Y-121692315D02*
X84527857Y-121750372D01*
X84527857Y-121750372D02*
X84588333Y-121866486D01*
X84588333Y-121866486D02*
X84588333Y-122040658D01*
X84588333Y-122040658D02*
X84527857Y-122156772D01*
X84527857Y-122156772D02*
X84467380Y-122214829D01*
X84467380Y-122214829D02*
X84346428Y-122272886D01*
X84346428Y-122272886D02*
X83862618Y-122272886D01*
X85314047Y-122156772D02*
X85193095Y-122098715D01*
X85193095Y-122098715D02*
X85132618Y-122040658D01*
X85132618Y-122040658D02*
X85072142Y-121924543D01*
X85072142Y-121924543D02*
X85072142Y-121866486D01*
X85072142Y-121866486D02*
X85132618Y-121750372D01*
X85132618Y-121750372D02*
X85193095Y-121692315D01*
X85193095Y-121692315D02*
X85314047Y-121634258D01*
X85314047Y-121634258D02*
X85555952Y-121634258D01*
X85555952Y-121634258D02*
X85676904Y-121692315D01*
X85676904Y-121692315D02*
X85737380Y-121750372D01*
X85737380Y-121750372D02*
X85797857Y-121866486D01*
X85797857Y-121866486D02*
X85797857Y-121924543D01*
X85797857Y-121924543D02*
X85737380Y-122040658D01*
X85737380Y-122040658D02*
X85676904Y-122098715D01*
X85676904Y-122098715D02*
X85555952Y-122156772D01*
X85555952Y-122156772D02*
X85314047Y-122156772D01*
X85314047Y-122156772D02*
X85193095Y-122214829D01*
X85193095Y-122214829D02*
X85132618Y-122272886D01*
X85132618Y-122272886D02*
X85072142Y-122389001D01*
X85072142Y-122389001D02*
X85072142Y-122621229D01*
X85072142Y-122621229D02*
X85132618Y-122737343D01*
X85132618Y-122737343D02*
X85193095Y-122795401D01*
X85193095Y-122795401D02*
X85314047Y-122853458D01*
X85314047Y-122853458D02*
X85555952Y-122853458D01*
X85555952Y-122853458D02*
X85676904Y-122795401D01*
X85676904Y-122795401D02*
X85737380Y-122737343D01*
X85737380Y-122737343D02*
X85797857Y-122621229D01*
X85797857Y-122621229D02*
X85797857Y-122389001D01*
X85797857Y-122389001D02*
X85737380Y-122272886D01*
X85737380Y-122272886D02*
X85676904Y-122214829D01*
X85676904Y-122214829D02*
X85555952Y-122156772D01*
D11*
X119457142Y-126159580D02*
X119409523Y-126207200D01*
X119409523Y-126207200D02*
X119266666Y-126254819D01*
X119266666Y-126254819D02*
X119171428Y-126254819D01*
X119171428Y-126254819D02*
X119028571Y-126207200D01*
X119028571Y-126207200D02*
X118933333Y-126111961D01*
X118933333Y-126111961D02*
X118885714Y-126016723D01*
X118885714Y-126016723D02*
X118838095Y-125826247D01*
X118838095Y-125826247D02*
X118838095Y-125683390D01*
X118838095Y-125683390D02*
X118885714Y-125492914D01*
X118885714Y-125492914D02*
X118933333Y-125397676D01*
X118933333Y-125397676D02*
X119028571Y-125302438D01*
X119028571Y-125302438D02*
X119171428Y-125254819D01*
X119171428Y-125254819D02*
X119266666Y-125254819D01*
X119266666Y-125254819D02*
X119409523Y-125302438D01*
X119409523Y-125302438D02*
X119457142Y-125350057D01*
X119838095Y-125350057D02*
X119885714Y-125302438D01*
X119885714Y-125302438D02*
X119980952Y-125254819D01*
X119980952Y-125254819D02*
X120219047Y-125254819D01*
X120219047Y-125254819D02*
X120314285Y-125302438D01*
X120314285Y-125302438D02*
X120361904Y-125350057D01*
X120361904Y-125350057D02*
X120409523Y-125445295D01*
X120409523Y-125445295D02*
X120409523Y-125540533D01*
X120409523Y-125540533D02*
X120361904Y-125683390D01*
X120361904Y-125683390D02*
X119790476Y-126254819D01*
X119790476Y-126254819D02*
X120409523Y-126254819D01*
X121266666Y-125254819D02*
X121076190Y-125254819D01*
X121076190Y-125254819D02*
X120980952Y-125302438D01*
X120980952Y-125302438D02*
X120933333Y-125350057D01*
X120933333Y-125350057D02*
X120838095Y-125492914D01*
X120838095Y-125492914D02*
X120790476Y-125683390D01*
X120790476Y-125683390D02*
X120790476Y-126064342D01*
X120790476Y-126064342D02*
X120838095Y-126159580D01*
X120838095Y-126159580D02*
X120885714Y-126207200D01*
X120885714Y-126207200D02*
X120980952Y-126254819D01*
X120980952Y-126254819D02*
X121171428Y-126254819D01*
X121171428Y-126254819D02*
X121266666Y-126207200D01*
X121266666Y-126207200D02*
X121314285Y-126159580D01*
X121314285Y-126159580D02*
X121361904Y-126064342D01*
X121361904Y-126064342D02*
X121361904Y-125826247D01*
X121361904Y-125826247D02*
X121314285Y-125731009D01*
X121314285Y-125731009D02*
X121266666Y-125683390D01*
X121266666Y-125683390D02*
X121171428Y-125635771D01*
X121171428Y-125635771D02*
X120980952Y-125635771D01*
X120980952Y-125635771D02*
X120885714Y-125683390D01*
X120885714Y-125683390D02*
X120838095Y-125731009D01*
X120838095Y-125731009D02*
X120790476Y-125826247D01*
D13*
X63233767Y-65740000D02*
X62941233Y-65740000D01*
X63233767Y-66760000D02*
X62941233Y-66760000D01*
X62500000Y-101600000D02*
X60300000Y-101600000D01*
X60300000Y-105400000D01*
X62500000Y-105400000D01*
X62500000Y-101600000D01*
X62857776Y-113102500D02*
X63367224Y-113102500D01*
X62857776Y-114147500D02*
X63367224Y-114147500D01*
X138850000Y-126860000D02*
X138850000Y-123600000D01*
X138850000Y-126860000D02*
X140550000Y-126860000D01*
X140550000Y-126860000D02*
X140550000Y-123600000D01*
X134863767Y-130890000D02*
X134571233Y-130890000D01*
X134863767Y-131910000D02*
X134571233Y-131910000D01*
X121577500Y-73557776D02*
X121577500Y-74067224D01*
X122622500Y-73557776D02*
X122622500Y-74067224D01*
X111878767Y-57877500D02*
X111586233Y-57877500D01*
X111878767Y-58897500D02*
X111586233Y-58897500D01*
X62725000Y-71575000D02*
G75*
G02*
X61325000Y-71575000I-700000J0D01*
G01*
X61325000Y-71575000D02*
G75*
G02*
X62725000Y-71575000I700000J0D01*
G01*
X144851665Y-94240000D02*
X145083335Y-94240000D01*
X144851665Y-94960000D02*
X145083335Y-94960000D01*
X65207224Y-130267500D02*
X64697776Y-130267500D01*
X65207224Y-131312500D02*
X64697776Y-131312500D01*
X78555000Y-119305000D02*
X76605000Y-119305000D01*
X78555000Y-119305000D02*
X80505000Y-119305000D01*
X78555000Y-124425000D02*
X76605000Y-124425000D01*
X78555000Y-124425000D02*
X80505000Y-124425000D01*
X75855000Y-119400000D02*
X75615000Y-119070000D01*
X76095000Y-119070000D01*
X75855000Y-119400000D01*
G36*
X75855000Y-119400000D02*
G01*
X75615000Y-119070000D01*
X76095000Y-119070000D01*
X75855000Y-119400000D01*
G37*
X127665000Y-118127064D02*
X127665000Y-117672936D01*
X129135000Y-118127064D02*
X129135000Y-117672936D01*
X137290000Y-81050000D02*
X137290000Y-84350000D01*
X137290000Y-81050000D02*
X144300000Y-81050000D01*
X137290000Y-84350000D02*
X144300000Y-84350000D01*
X80795000Y-126681248D02*
X80795000Y-127203752D01*
X82265000Y-126681248D02*
X82265000Y-127203752D01*
X137415000Y-105950000D02*
X137415000Y-109250000D01*
X137415000Y-105950000D02*
X144425000Y-105950000D01*
X137415000Y-109250000D02*
X144425000Y-109250000D01*
X138665000Y-112127064D02*
X138665000Y-111672936D01*
X140135000Y-112127064D02*
X140135000Y-111672936D01*
X65390000Y-113062500D02*
X65390000Y-112412500D01*
X65390000Y-113062500D02*
X65390000Y-113712500D01*
X68510000Y-113062500D02*
X68510000Y-112412500D01*
X68510000Y-113062500D02*
X68510000Y-113712500D01*
X65440000Y-114225000D02*
X65110000Y-114465000D01*
X65110000Y-113985000D01*
X65440000Y-114225000D01*
G36*
X65440000Y-114225000D02*
G01*
X65110000Y-114465000D01*
X65110000Y-113985000D01*
X65440000Y-114225000D01*
G37*
X63515000Y-74783767D02*
X63515000Y-74491233D01*
X64535000Y-74783767D02*
X64535000Y-74491233D01*
X140176248Y-118815000D02*
X140698752Y-118815000D01*
X140176248Y-120285000D02*
X140698752Y-120285000D01*
X119923752Y-113865000D02*
X119401248Y-113865000D01*
X119923752Y-115335000D02*
X119401248Y-115335000D01*
X87720000Y-113680000D02*
X89100000Y-113680000D01*
X87720000Y-115060000D02*
X87720000Y-113680000D01*
X87720000Y-116330000D02*
X87720000Y-121520000D01*
X87720000Y-116330000D02*
X90480000Y-116330000D01*
X87720000Y-121520000D02*
X90480000Y-121520000D01*
X90480000Y-116330000D02*
X90480000Y-121520000D01*
X123823752Y-120665000D02*
X123301248Y-120665000D01*
X123823752Y-122135000D02*
X123301248Y-122135000D01*
X123823752Y-127365000D02*
X123301248Y-127365000D01*
X123823752Y-128835000D02*
X123301248Y-128835000D01*
X145542224Y-89977500D02*
X145032776Y-89977500D01*
X145542224Y-91022500D02*
X145032776Y-91022500D01*
X128020000Y-111715113D02*
X129560000Y-111715113D01*
X128020000Y-111755113D02*
X129560000Y-111755113D01*
X128021000Y-111675113D02*
X129560000Y-111675113D01*
X128023000Y-111635113D02*
X129560000Y-111635113D01*
X128025000Y-111595113D02*
X129560000Y-111595113D01*
X128028000Y-111555113D02*
X129560000Y-111555113D01*
X128031000Y-111515113D02*
X129560000Y-111515113D01*
X128035000Y-111475113D02*
X129560000Y-111475113D01*
X128040000Y-111435113D02*
X129560000Y-111435113D01*
X128045000Y-111395113D02*
X129560000Y-111395113D01*
X128051000Y-111355113D02*
X129560000Y-111355113D01*
X128057000Y-111315113D02*
X129560000Y-111315113D01*
X128064000Y-111275113D02*
X129560000Y-111275113D01*
X128072000Y-111235113D02*
X129560000Y-111235113D01*
X128081000Y-111195113D02*
X129560000Y-111195113D01*
X128090000Y-111155113D02*
X129560000Y-111155113D01*
X128099000Y-111115113D02*
X129560000Y-111115113D01*
X128110000Y-111075113D02*
X129560000Y-111075113D01*
X128121000Y-111035113D02*
X129560000Y-111035113D01*
X128133000Y-110995113D02*
X129560000Y-110995113D01*
X128145000Y-110955113D02*
X129560000Y-110955113D01*
X128158000Y-110915113D02*
X129560000Y-110915113D01*
X128172000Y-110875113D02*
X129560000Y-110875113D01*
X128187000Y-110835113D02*
X129560000Y-110835113D01*
X128202000Y-110795113D02*
X129560000Y-110795113D01*
X128218000Y-110755113D02*
X129560000Y-110755113D01*
X128235000Y-110715113D02*
X129560000Y-110715113D01*
X128253000Y-110675113D02*
X129560000Y-110675113D01*
X128271000Y-110635113D02*
X129560000Y-110635113D01*
X128291000Y-110595113D02*
X129560000Y-110595113D01*
X128311000Y-110555113D02*
X129560000Y-110555113D01*
X128332000Y-110515113D02*
X129560000Y-110515113D01*
X128354000Y-110475113D02*
X129560000Y-110475113D01*
X128377000Y-110435113D02*
X129560000Y-110435113D01*
X128401000Y-110395113D02*
X129560000Y-110395113D01*
X128425000Y-110355113D02*
X129560000Y-110355113D01*
X128451000Y-110315113D02*
X129560000Y-110315113D01*
X128478000Y-110275113D02*
X129560000Y-110275113D01*
X128506000Y-110235113D02*
X129560000Y-110235113D01*
X128535000Y-110195113D02*
X129560000Y-110195113D01*
X128565000Y-110155113D02*
X129560000Y-110155113D01*
X128597000Y-110115113D02*
X129560000Y-110115113D01*
X128630000Y-110075113D02*
X129560000Y-110075113D01*
X128664000Y-110035113D02*
X129560000Y-110035113D01*
X128699000Y-109995113D02*
X129560000Y-109995113D01*
X128736000Y-109955113D02*
X129560000Y-109955113D01*
X128775000Y-109915113D02*
X129560000Y-109915113D01*
X128815000Y-109875113D02*
X129560000Y-109875113D01*
X128857000Y-109835113D02*
X129560000Y-109835113D01*
X128875000Y-114309888D02*
X129375000Y-114309888D01*
X128901000Y-109795113D02*
X129560000Y-109795113D01*
X128948000Y-109755113D02*
X129560000Y-109755113D01*
X128996000Y-109715113D02*
X132204000Y-109715113D01*
X129047000Y-109675113D02*
X132153000Y-109675113D01*
X129101000Y-109635113D02*
X132099000Y-109635113D01*
X129125000Y-114559888D02*
X129125000Y-114059888D01*
X129157000Y-109595113D02*
X132043000Y-109595113D01*
X129217000Y-109555113D02*
X131983000Y-109555113D01*
X129281000Y-109515113D02*
X131919000Y-109515113D01*
X129349000Y-109475113D02*
X131851000Y-109475113D01*
X129423000Y-109435113D02*
X131777000Y-109435113D01*
X129502000Y-109395113D02*
X131698000Y-109395113D01*
X129589000Y-109355113D02*
X131611000Y-109355113D01*
X129686000Y-109315113D02*
X131514000Y-109315113D01*
X129795000Y-109275113D02*
X131405000Y-109275113D01*
X129923000Y-109235113D02*
X131277000Y-109235113D01*
X130083000Y-109195113D02*
X131117000Y-109195113D01*
X130317000Y-109155113D02*
X130883000Y-109155113D01*
X131640000Y-109755113D02*
X132252000Y-109755113D01*
X131640000Y-109795113D02*
X132299000Y-109795113D01*
X131640000Y-109835113D02*
X132343000Y-109835113D01*
X131640000Y-109875113D02*
X132385000Y-109875113D01*
X131640000Y-109915113D02*
X132425000Y-109915113D01*
X131640000Y-109955113D02*
X132464000Y-109955113D01*
X131640000Y-109995113D02*
X132501000Y-109995113D01*
X131640000Y-110035113D02*
X132536000Y-110035113D01*
X131640000Y-110075113D02*
X132570000Y-110075113D01*
X131640000Y-110115113D02*
X132603000Y-110115113D01*
X131640000Y-110155113D02*
X132635000Y-110155113D01*
X131640000Y-110195113D02*
X132665000Y-110195113D01*
X131640000Y-110235113D02*
X132694000Y-110235113D01*
X131640000Y-110275113D02*
X132722000Y-110275113D01*
X131640000Y-110315113D02*
X132749000Y-110315113D01*
X131640000Y-110355113D02*
X132775000Y-110355113D01*
X131640000Y-110395113D02*
X132799000Y-110395113D01*
X131640000Y-110435113D02*
X132823000Y-110435113D01*
X131640000Y-110475113D02*
X132846000Y-110475113D01*
X131640000Y-110515113D02*
X132868000Y-110515113D01*
X131640000Y-110555113D02*
X132889000Y-110555113D01*
X131640000Y-110595113D02*
X132909000Y-110595113D01*
X131640000Y-110635113D02*
X132929000Y-110635113D01*
X131640000Y-110675113D02*
X132947000Y-110675113D01*
X131640000Y-110715113D02*
X132965000Y-110715113D01*
X131640000Y-110755113D02*
X132982000Y-110755113D01*
X131640000Y-110795113D02*
X132998000Y-110795113D01*
X131640000Y-110835113D02*
X133013000Y-110835113D01*
X131640000Y-110875113D02*
X133028000Y-110875113D01*
X131640000Y-110915113D02*
X133042000Y-110915113D01*
X131640000Y-110955113D02*
X133055000Y-110955113D01*
X131640000Y-110995113D02*
X133067000Y-110995113D01*
X131640000Y-111035113D02*
X133079000Y-111035113D01*
X131640000Y-111075113D02*
X133090000Y-111075113D01*
X131640000Y-111115113D02*
X133101000Y-111115113D01*
X131640000Y-111155113D02*
X133110000Y-111155113D01*
X131640000Y-111195113D02*
X133119000Y-111195113D01*
X131640000Y-111235113D02*
X133128000Y-111235113D01*
X131640000Y-111275113D02*
X133136000Y-111275113D01*
X131640000Y-111315113D02*
X133143000Y-111315113D01*
X131640000Y-111355113D02*
X133149000Y-111355113D01*
X131640000Y-111395113D02*
X133155000Y-111395113D01*
X131640000Y-111435113D02*
X133160000Y-111435113D01*
X131640000Y-111475113D02*
X133165000Y-111475113D01*
X131640000Y-111515113D02*
X133169000Y-111515113D01*
X131640000Y-111555113D02*
X133172000Y-111555113D01*
X131640000Y-111595113D02*
X133175000Y-111595113D01*
X131640000Y-111635113D02*
X133177000Y-111635113D01*
X131640000Y-111675113D02*
X133179000Y-111675113D01*
X131640000Y-111715113D02*
X133180000Y-111715113D01*
X131640000Y-111755113D02*
X133180000Y-111755113D01*
X133220000Y-111755113D02*
G75*
G02*
X127980000Y-111755113I-2620000J0D01*
G01*
X127980000Y-111755113D02*
G75*
G02*
X133220000Y-111755113I2620000J0D01*
G01*
X134863767Y-128390000D02*
X134571233Y-128390000D01*
X134863767Y-129410000D02*
X134571233Y-129410000D01*
D14*
X138850000Y-77200000D02*
X138850000Y-77200000D01*
X138950000Y-77200000D02*
X138950000Y-77200000D01*
X138850000Y-77200000D02*
G75*
G02*
X138950000Y-77200000I50000J0D01*
G01*
X138950000Y-77200000D02*
G75*
G02*
X138850000Y-77200000I-50000J0D01*
G01*
D13*
X141657224Y-93777500D02*
X141147776Y-93777500D01*
X141657224Y-94822500D02*
X141147776Y-94822500D01*
X123823752Y-122865000D02*
X123301248Y-122865000D01*
X123823752Y-124335000D02*
X123301248Y-124335000D01*
D14*
X66250000Y-62800000D02*
X90550000Y-62800000D01*
X66250000Y-104200000D02*
X66250000Y-62800000D01*
X90550000Y-62800000D02*
X90550000Y-104200000D01*
X90550000Y-104200000D02*
X66250000Y-104200000D01*
D13*
X123577500Y-73557776D02*
X123577500Y-74067224D01*
X124622500Y-73557776D02*
X124622500Y-74067224D01*
X65707224Y-124017500D02*
X65197776Y-124017500D01*
X65707224Y-125062500D02*
X65197776Y-125062500D01*
X60525000Y-84375000D02*
G75*
G02*
X59125000Y-84375000I-700000J0D01*
G01*
X59125000Y-84375000D02*
G75*
G02*
X60525000Y-84375000I700000J0D01*
G01*
X118265000Y-89327064D02*
X118265000Y-88872936D01*
X119735000Y-89327064D02*
X119735000Y-88872936D01*
X118315000Y-96016233D02*
X118315000Y-96308767D01*
X119335000Y-96016233D02*
X119335000Y-96308767D01*
X145742224Y-92377500D02*
X145232776Y-92377500D01*
X145742224Y-93422500D02*
X145232776Y-93422500D01*
X74200000Y-124500000D02*
G75*
G02*
X72800000Y-124500000I-700000J0D01*
G01*
X72800000Y-124500000D02*
G75*
G02*
X74200000Y-124500000I700000J0D01*
G01*
X141767224Y-102177500D02*
X141257776Y-102177500D01*
X141767224Y-103222500D02*
X141257776Y-103222500D01*
X129965000Y-120427064D02*
X129965000Y-119972936D01*
X131435000Y-120427064D02*
X131435000Y-119972936D01*
D14*
X147700000Y-124475000D02*
X147700000Y-119175000D01*
X152700000Y-119175000D02*
X152700000Y-124475000D01*
D15*
X150250000Y-125675000D02*
G75*
G02*
X150150000Y-125675000I-50000J0D01*
G01*
X150150000Y-125675000D02*
G75*
G02*
X150250000Y-125675000I50000J0D01*
G01*
D13*
X111883767Y-60155000D02*
X111591233Y-60155000D01*
X111883767Y-61175000D02*
X111591233Y-61175000D01*
X87900000Y-123100000D02*
G75*
G02*
X86500000Y-123100000I-700000J0D01*
G01*
X86500000Y-123100000D02*
G75*
G02*
X87900000Y-123100000I700000J0D01*
G01*
X124415000Y-96041233D02*
X124415000Y-96333767D01*
X125435000Y-96041233D02*
X125435000Y-96333767D01*
X63233767Y-78865000D02*
X62941233Y-78865000D01*
X63233767Y-79885000D02*
X62941233Y-79885000D01*
X70320000Y-118025000D02*
G75*
G02*
X68920000Y-118025000I-700000J0D01*
G01*
X68920000Y-118025000D02*
G75*
G02*
X70320000Y-118025000I700000J0D01*
G01*
D11*
X132600000Y-120275000D02*
X132600000Y-124425000D01*
X137750000Y-120275000D02*
X137750000Y-124425000D01*
D13*
X138005000Y-120090000D02*
X137675000Y-119850000D01*
X138005000Y-119610000D01*
X138005000Y-120090000D01*
G36*
X138005000Y-120090000D02*
G01*
X137675000Y-119850000D01*
X138005000Y-119610000D01*
X138005000Y-120090000D01*
G37*
D16*
X132588500Y-132927500D02*
X132588500Y-133966360D01*
X132588500Y-135190640D02*
X132588500Y-136229500D01*
X132588500Y-136229500D02*
X134239500Y-136229500D01*
X134239500Y-132927500D02*
X132588500Y-132927500D01*
X134239500Y-134916320D02*
X134239500Y-134240680D01*
X134861800Y-137372500D02*
G75*
G02*
X134607800Y-137372500I-127000J0D01*
G01*
X134607800Y-137372500D02*
G75*
G02*
X134861800Y-137372500I127000J0D01*
G01*
D13*
X69442224Y-127777500D02*
X68932776Y-127777500D01*
X69442224Y-128822500D02*
X68932776Y-128822500D01*
X112350000Y-91690000D02*
X112350000Y-98700000D01*
X115650000Y-91690000D02*
X112350000Y-91690000D01*
X115650000Y-91690000D02*
X115650000Y-98700000D01*
X133625500Y-139067224D02*
X133625500Y-138557776D01*
X134670500Y-139067224D02*
X134670500Y-138557776D01*
X61125000Y-75175000D02*
G75*
G02*
X59725000Y-75175000I-700000J0D01*
G01*
X59725000Y-75175000D02*
G75*
G02*
X61125000Y-75175000I700000J0D01*
G01*
X114977500Y-73557776D02*
X114977500Y-74067224D01*
X116022500Y-73557776D02*
X116022500Y-74067224D01*
X158520000Y-60580000D02*
X158520000Y-59200000D01*
X159900000Y-60580000D02*
X158520000Y-60580000D01*
X161170000Y-57820000D02*
X163820000Y-57820000D01*
X161170000Y-60580000D02*
X161170000Y-57820000D01*
X161170000Y-60580000D02*
X163820000Y-60580000D01*
X163820000Y-60580000D02*
X163820000Y-57820000D01*
X128808767Y-97090000D02*
X128516233Y-97090000D01*
X128808767Y-98110000D02*
X128516233Y-98110000D01*
X73123752Y-121265000D02*
X72601248Y-121265000D01*
X73123752Y-122735000D02*
X72601248Y-122735000D01*
X141642224Y-89977500D02*
X141132776Y-89977500D01*
X141642224Y-91022500D02*
X141132776Y-91022500D01*
X61975000Y-112335000D02*
X64835000Y-112335000D01*
X64835000Y-110415000D02*
X61975000Y-110415000D01*
X64835000Y-112335000D02*
X64835000Y-110415000D01*
X66857776Y-115602500D02*
X67367224Y-115602500D01*
X66857776Y-116647500D02*
X67367224Y-116647500D01*
X125977500Y-73522776D02*
X125977500Y-74032224D01*
X127022500Y-73522776D02*
X127022500Y-74032224D01*
X122415000Y-96016233D02*
X122415000Y-96308767D01*
X123435000Y-96016233D02*
X123435000Y-96308767D01*
X68585000Y-130100000D02*
X68585000Y-135660000D01*
X68585000Y-146070000D02*
X68585000Y-138460000D01*
X85315000Y-130100000D02*
X68585000Y-130100000D01*
X85315000Y-130100000D02*
X85315000Y-135660000D01*
X85315000Y-146070000D02*
X68585000Y-146070000D01*
X85315000Y-146070000D02*
X85315000Y-138460000D01*
X85510000Y-138660000D02*
X86010000Y-138160000D01*
X86010000Y-138160000D02*
X86010000Y-139160000D01*
X86010000Y-139160000D02*
X85510000Y-138660000D01*
X60525000Y-88375000D02*
G75*
G02*
X59125000Y-88375000I-700000J0D01*
G01*
X59125000Y-88375000D02*
G75*
G02*
X60525000Y-88375000I700000J0D01*
G01*
X128457776Y-94877500D02*
X128967224Y-94877500D01*
X128457776Y-95922500D02*
X128967224Y-95922500D01*
X123372936Y-113865000D02*
X123827064Y-113865000D01*
X123372936Y-115335000D02*
X123827064Y-115335000D01*
D15*
X115420000Y-56150000D02*
X117420000Y-56150000D01*
X115420000Y-56645000D02*
X115420000Y-56150000D01*
X115420000Y-67045000D02*
X115420000Y-59045000D01*
X116120000Y-70180000D02*
X116920000Y-70180000D01*
X117420000Y-56150000D02*
X118920000Y-58745000D01*
X118920000Y-58745000D02*
X127520000Y-58745000D01*
D14*
X119520000Y-55745000D02*
X119520000Y-55745000D01*
X119520000Y-55845000D02*
X119520000Y-55845000D01*
D15*
X121120000Y-70180000D02*
X118520000Y-70180000D01*
X127520000Y-70180000D02*
X122820000Y-70180000D01*
X127920000Y-56150000D02*
X128450000Y-56150000D01*
X127920000Y-56645000D02*
X127920000Y-56150000D01*
X128450000Y-56150000D02*
X128450000Y-56645000D01*
X128450000Y-60045000D02*
X128450000Y-67045000D01*
D14*
X119520000Y-55745000D02*
G75*
G02*
X119520000Y-55845000I0J-50000D01*
G01*
X119520000Y-55845000D02*
G75*
G02*
X119520000Y-55745000I0J50000D01*
G01*
D15*
X136873000Y-134600000D02*
X136873000Y-137300000D01*
X138423000Y-134450000D02*
X138423000Y-137300000D01*
D13*
X141742224Y-98377500D02*
X141232776Y-98377500D01*
X141742224Y-99422500D02*
X141232776Y-99422500D01*
X85300000Y-118800000D02*
G75*
G02*
X83900000Y-118800000I-700000J0D01*
G01*
X83900000Y-118800000D02*
G75*
G02*
X85300000Y-118800000I700000J0D01*
G01*
X144716665Y-98340000D02*
X144948335Y-98340000D01*
X144716665Y-99060000D02*
X144948335Y-99060000D01*
D17*
G36*
X78641886Y-110539303D02*
G01*
X78991937Y-110552095D01*
X79254396Y-110574120D01*
X79383943Y-110605363D01*
X79390263Y-110615018D01*
X79361337Y-110753762D01*
X79291178Y-110980082D01*
X79285825Y-110995542D01*
X79215961Y-111164083D01*
X79120781Y-111253523D01*
X78945560Y-111288870D01*
X78635575Y-111295131D01*
X78630221Y-111295131D01*
X78316390Y-111302528D01*
X78142276Y-111337348D01*
X78057520Y-111418537D01*
X78021580Y-111524121D01*
X77952232Y-111768219D01*
X77905958Y-111904646D01*
X77900953Y-111991647D01*
X77995978Y-112037798D01*
X78227918Y-112054859D01*
X78381208Y-112056180D01*
X78700354Y-112063755D01*
X78860837Y-112109551D01*
X78894222Y-112228171D01*
X78832076Y-112454219D01*
X78807952Y-112524003D01*
X78736732Y-112698866D01*
X78643316Y-112787038D01*
X78470998Y-112813948D01*
X78179562Y-112805787D01*
X77836210Y-112808055D01*
X77645542Y-112858924D01*
X77589252Y-112918338D01*
X77539880Y-113050076D01*
X77444977Y-113331743D01*
X77314944Y-113731415D01*
X77160183Y-114217167D01*
X77010059Y-114696068D01*
X76499442Y-116337079D01*
X75325680Y-116337079D01*
X76219985Y-113515824D01*
X76442409Y-112816513D01*
X76647821Y-112175208D01*
X76828862Y-111614529D01*
X76978176Y-111157094D01*
X77088403Y-110825521D01*
X77152185Y-110642429D01*
X77163883Y-110614326D01*
X77272122Y-110580744D01*
X77519360Y-110556464D01*
X77860279Y-110541474D01*
X78249560Y-110535758D01*
X78641886Y-110539303D01*
G37*
G36*
X81956363Y-110583946D02*
G01*
X82413843Y-110602091D01*
X82721451Y-110652964D01*
X82899379Y-110753443D01*
X82967822Y-110920407D01*
X82946972Y-111170736D01*
X82857023Y-111521308D01*
X82776748Y-111791932D01*
X82630250Y-112262442D01*
X82510541Y-112583674D01*
X82397609Y-112790768D01*
X82271448Y-112918864D01*
X82112047Y-113003101D01*
X82079919Y-113015695D01*
X81929998Y-113083647D01*
X81929458Y-113159331D01*
X82048729Y-113287680D01*
X82160899Y-113422962D01*
X82188859Y-113564701D01*
X82140424Y-113787375D01*
X82111281Y-113883956D01*
X82030445Y-114146033D01*
X81911627Y-114531604D01*
X81772803Y-114982317D01*
X81670552Y-115314420D01*
X81355742Y-116337079D01*
X80170340Y-116337079D01*
X80601847Y-114981461D01*
X80754480Y-114494957D01*
X80884904Y-114065978D01*
X80982534Y-113730374D01*
X81036786Y-113523994D01*
X81044205Y-113483146D01*
X80998811Y-113389376D01*
X80820931Y-113346620D01*
X80635923Y-113340450D01*
X80216789Y-113340450D01*
X79739538Y-114838764D01*
X79262287Y-116337079D01*
X78707923Y-116337079D01*
X78412334Y-116325982D01*
X78212259Y-116297210D01*
X78156185Y-116265730D01*
X78184656Y-116160616D01*
X78264048Y-115896819D01*
X78387349Y-115496883D01*
X78547543Y-114983351D01*
X78737618Y-114378769D01*
X78950560Y-113705679D01*
X79051475Y-113388015D01*
X79293553Y-112626966D01*
X80445805Y-112626966D01*
X80874199Y-112626966D01*
X81145061Y-112614577D01*
X81297223Y-112548378D01*
X81401971Y-112384826D01*
X81449403Y-112275599D01*
X81562647Y-111953194D01*
X81642591Y-111636594D01*
X81647259Y-111609682D01*
X81698303Y-111295131D01*
X81268079Y-111295131D01*
X80993170Y-111309622D01*
X80850551Y-111369749D01*
X80783375Y-111500495D01*
X80781019Y-111509176D01*
X80719007Y-111728191D01*
X80628084Y-112033914D01*
X80584994Y-112175094D01*
X80445805Y-112626966D01*
X79293553Y-112626966D01*
X79944139Y-110581648D01*
X81328816Y-110581648D01*
X81956363Y-110583946D01*
G37*
G36*
X75265706Y-110536214D02*
G01*
X75642605Y-110545575D01*
X75897459Y-110566611D01*
X76064364Y-110603770D01*
X76177418Y-110661498D01*
X76259852Y-110733260D01*
X76394163Y-110921082D01*
X76414080Y-111148670D01*
X76395245Y-111272431D01*
X76265098Y-111787366D01*
X76087618Y-112240877D01*
X75883357Y-112589240D01*
X75686055Y-112781308D01*
X75509355Y-112900691D01*
X75476507Y-113010531D01*
X75564438Y-113192589D01*
X75568167Y-113199091D01*
X75628377Y-113321054D01*
X75654496Y-113449105D01*
X75641495Y-113621538D01*
X75584341Y-113876652D01*
X75478004Y-114252743D01*
X75391827Y-114541343D01*
X75213836Y-115093864D01*
X75053885Y-115496265D01*
X74895523Y-115785537D01*
X74762408Y-115956554D01*
X74458548Y-116289513D01*
X73011146Y-116320349D01*
X72444520Y-116329560D01*
X72044392Y-116328102D01*
X71787217Y-116314376D01*
X71649447Y-116286782D01*
X71607536Y-116243720D01*
X71610960Y-116225218D01*
X71650788Y-116104944D01*
X71738627Y-115831528D01*
X71845425Y-115496389D01*
X73061283Y-115496389D01*
X73098450Y-115561700D01*
X73185023Y-115579514D01*
X73320085Y-115576822D01*
X73378945Y-115576030D01*
X73644896Y-115547386D01*
X73831166Y-115476439D01*
X73854283Y-115455476D01*
X73934962Y-115303349D01*
X74043132Y-115027804D01*
X74164484Y-114675390D01*
X74284707Y-114292656D01*
X74389490Y-113926151D01*
X74464523Y-113622425D01*
X74495494Y-113428025D01*
X74490256Y-113386792D01*
X74365345Y-113325367D01*
X74131438Y-113293948D01*
X74077537Y-113292884D01*
X73722857Y-113292884D01*
X73425032Y-114220412D01*
X73255397Y-114745594D01*
X73138839Y-115115325D01*
X73074440Y-115356594D01*
X73061283Y-115496389D01*
X71845425Y-115496389D01*
X71865511Y-115433357D01*
X72022472Y-114938819D01*
X72200543Y-114376300D01*
X72390758Y-113774189D01*
X72584149Y-113160874D01*
X72771748Y-112564740D01*
X72776279Y-112550307D01*
X73967791Y-112550307D01*
X74048802Y-112607288D01*
X74244364Y-112626734D01*
X74483272Y-112612264D01*
X74694319Y-112567500D01*
X74798840Y-112508053D01*
X74894036Y-112333798D01*
X74997074Y-112069735D01*
X75087892Y-111780472D01*
X75146431Y-111530617D01*
X75152631Y-111384778D01*
X75149588Y-111378384D01*
X75029688Y-111324731D01*
X74797273Y-111296434D01*
X74731958Y-111295131D01*
X74533137Y-111302472D01*
X74406988Y-111351676D01*
X74314408Y-111483512D01*
X74216293Y-111738750D01*
X74166786Y-111884390D01*
X74064512Y-112198213D01*
X73992703Y-112439514D01*
X73967791Y-112550307D01*
X72776279Y-112550307D01*
X72944590Y-112014177D01*
X73093708Y-111537571D01*
X73210133Y-111163311D01*
X73220855Y-111128652D01*
X73404649Y-110534083D01*
X74732662Y-110534083D01*
X75265706Y-110536214D01*
G37*
G36*
X81513200Y-106095797D02*
G01*
X81761682Y-106246326D01*
X81888525Y-106452452D01*
X81988249Y-106751170D01*
X82010709Y-106867325D01*
X82062775Y-107123385D01*
X82152372Y-107296365D01*
X82317638Y-107413951D01*
X82596706Y-107503832D01*
X83005244Y-107589404D01*
X83500477Y-107700482D01*
X83840179Y-107823832D01*
X84058884Y-107980309D01*
X84191131Y-108190768D01*
X84238775Y-108334284D01*
X84387508Y-108718034D01*
X84624374Y-109029958D01*
X84983702Y-109304660D01*
X85446483Y-109551664D01*
X86029585Y-109867291D01*
X86458958Y-110184415D01*
X86723080Y-110492702D01*
X86810487Y-110774639D01*
X86757147Y-111001234D01*
X86614799Y-111334215D01*
X86409958Y-111728788D01*
X86169134Y-112140160D01*
X85918841Y-112523537D01*
X85685591Y-112834126D01*
X85495895Y-113027133D01*
X85464908Y-113048043D01*
X85239962Y-113130926D01*
X84872579Y-113212196D01*
X84410512Y-113284998D01*
X83901513Y-113342479D01*
X83393334Y-113377788D01*
X83113980Y-113385438D01*
X82900432Y-113368802D01*
X82837760Y-113300158D01*
X82852369Y-113237538D01*
X82903385Y-113066303D01*
X82910113Y-113015220D01*
X82998538Y-112977093D01*
X83238644Y-112927884D01*
X83592677Y-112874225D01*
X83978650Y-112827486D01*
X84557320Y-112752157D01*
X84956577Y-112670349D01*
X85187229Y-112579688D01*
X85220932Y-112554357D01*
X85368132Y-112384401D01*
X85561867Y-112112772D01*
X85773423Y-111786344D01*
X85974088Y-111451989D01*
X86135145Y-111156581D01*
X86227882Y-110946995D01*
X86239701Y-110891296D01*
X86153811Y-110703181D01*
X85912757Y-110472659D01*
X85541457Y-110218713D01*
X85064834Y-109960329D01*
X84938935Y-109900412D01*
X84398591Y-109603030D01*
X84034676Y-109289810D01*
X83833377Y-108947702D01*
X83799878Y-108824248D01*
X83719222Y-108567571D01*
X83573770Y-108379989D01*
X83327692Y-108236169D01*
X82945154Y-108110779D01*
X82705207Y-108050334D01*
X82216865Y-107922435D01*
X81884228Y-107798271D01*
X81674677Y-107654523D01*
X81555587Y-107467868D01*
X81494337Y-107214987D01*
X81489628Y-107181356D01*
X81441903Y-106924565D01*
X81359233Y-106800966D01*
X81195315Y-106753831D01*
X81135335Y-106747261D01*
X80926180Y-106754801D01*
X80758626Y-106852012D01*
X80566650Y-107077409D01*
X80564549Y-107080219D01*
X80366972Y-107331808D01*
X80189404Y-107506016D01*
X79982135Y-107632050D01*
X79695456Y-107739114D01*
X79279657Y-107856414D01*
X79213601Y-107873918D01*
X78692039Y-108042777D01*
X78047990Y-108301465D01*
X77316833Y-108633613D01*
X76533948Y-109022854D01*
X75734713Y-109452818D01*
X75442322Y-109618727D01*
X75041849Y-109838898D01*
X74740966Y-109972046D01*
X74482016Y-110038250D01*
X74207337Y-110057593D01*
X74181836Y-110057720D01*
X73902766Y-110045633D01*
X73721492Y-110013830D01*
X73682397Y-109985789D01*
X73762746Y-109918748D01*
X73986188Y-109779623D01*
X74326320Y-109582760D01*
X74756738Y-109342505D01*
X75251038Y-109073203D01*
X75782815Y-108789201D01*
X76325666Y-108504844D01*
X76853187Y-108234478D01*
X77338974Y-107992450D01*
X77455446Y-107935807D01*
X77920255Y-107728471D01*
X78415224Y-107535536D01*
X78858016Y-107388225D01*
X79003864Y-107348631D01*
X79380630Y-107244817D01*
X79635507Y-107133721D01*
X79834460Y-106977890D01*
X80015370Y-106774373D01*
X80380625Y-106416220D01*
X80774906Y-106176818D01*
X81163877Y-106066550D01*
X81513200Y-106095797D01*
G37*
D13*
X62941233Y-77265000D02*
X63233767Y-77265000D01*
X62941233Y-78285000D02*
X63233767Y-78285000D01*
X145667224Y-102177500D02*
X145157776Y-102177500D01*
X145667224Y-103222500D02*
X145157776Y-103222500D01*
X155123752Y-59265000D02*
X154601248Y-59265000D01*
X155123752Y-60735000D02*
X154601248Y-60735000D01*
X63480000Y-127727500D02*
X63480000Y-127077500D01*
X63480000Y-127727500D02*
X63480000Y-128377500D01*
X66600000Y-127727500D02*
X66600000Y-127077500D01*
X66600000Y-127727500D02*
X66600000Y-128377500D01*
X63530000Y-128890000D02*
X63200000Y-129130000D01*
X63200000Y-128650000D01*
X63530000Y-128890000D01*
G36*
X63530000Y-128890000D02*
G01*
X63200000Y-129130000D01*
X63200000Y-128650000D01*
X63530000Y-128890000D01*
G37*
X64500000Y-92900000D02*
G75*
G02*
X63100000Y-92900000I-700000J0D01*
G01*
X63100000Y-92900000D02*
G75*
G02*
X64500000Y-92900000I700000J0D01*
G01*
X123823752Y-116265000D02*
X123301248Y-116265000D01*
X123823752Y-117735000D02*
X123301248Y-117735000D01*
D14*
X134800000Y-98100000D02*
X134800000Y-98100000D01*
X134800000Y-98200000D02*
X134800000Y-98200000D01*
X134800000Y-98100000D02*
G75*
G02*
X134800000Y-98200000I0J-50000D01*
G01*
X134800000Y-98200000D02*
G75*
G02*
X134800000Y-98100000I0J50000D01*
G01*
D18*
X94176000Y-64876250D02*
X94176000Y-141376250D01*
X115676000Y-62876250D02*
X96176000Y-62876250D01*
X117676000Y-60876250D02*
X115676000Y-62876250D01*
X150676000Y-60876250D02*
X117676000Y-60876250D01*
X152676000Y-62876250D02*
X150676000Y-60876250D01*
X162176000Y-62876250D02*
X152676000Y-62876250D01*
X162176000Y-143376250D02*
X96176000Y-143376250D01*
X164176000Y-141376250D02*
X164176000Y-64876250D01*
X94176000Y-64876250D02*
G75*
G02*
X96176000Y-62876250I2000000J0D01*
G01*
X96176000Y-143376250D02*
G75*
G02*
X94176000Y-141376250I0J2000000D01*
G01*
X162176000Y-62876250D02*
G75*
G02*
X164176000Y-64876250I1J-1999999D01*
G01*
X164176000Y-141376250D02*
G75*
G02*
X162176000Y-143376250I-1999999J-1D01*
G01*
D15*
X164776000Y-111636250D02*
G75*
G02*
X164576000Y-111636250I-100000J0D01*
G01*
X164576000Y-111636250D02*
G75*
G02*
X164776000Y-111636250I100000J0D01*
G01*
D13*
X123823752Y-118465000D02*
X123301248Y-118465000D01*
X123823752Y-119935000D02*
X123301248Y-119935000D01*
X64525000Y-84375000D02*
G75*
G02*
X63125000Y-84375000I-700000J0D01*
G01*
X63125000Y-84375000D02*
G75*
G02*
X64525000Y-84375000I700000J0D01*
G01*
X112277500Y-64232776D02*
X112277500Y-64742224D01*
X113322500Y-64232776D02*
X113322500Y-64742224D01*
X64500000Y-88775000D02*
G75*
G02*
X63100000Y-88775000I-700000J0D01*
G01*
X63100000Y-88775000D02*
G75*
G02*
X64500000Y-88775000I700000J0D01*
G01*
X145642224Y-99977500D02*
X145132776Y-99977500D01*
X145642224Y-101022500D02*
X145132776Y-101022500D01*
X120415000Y-96016233D02*
X120415000Y-96308767D01*
X121435000Y-96016233D02*
X121435000Y-96308767D01*
X64600000Y-81300000D02*
G75*
G02*
X63200000Y-81300000I-700000J0D01*
G01*
X63200000Y-81300000D02*
G75*
G02*
X64600000Y-81300000I700000J0D01*
G01*
X84634879Y-120420000D02*
X84970121Y-120420000D01*
X84634879Y-121180000D02*
X84970121Y-121180000D01*
X123823752Y-125065000D02*
X123301248Y-125065000D01*
X123823752Y-126535000D02*
X123301248Y-126535000D01*
%LPC*%
D19*
X63950000Y-66250000D03*
X62225000Y-66250000D03*
D20*
X61400000Y-103500000D03*
D21*
X62200000Y-113625000D03*
X64025000Y-113625000D03*
D22*
X139700000Y-126100000D03*
X139700000Y-123600000D03*
D19*
X135580000Y-131400000D03*
X133855000Y-131400000D03*
D23*
X122100000Y-72900000D03*
X122100000Y-74725000D03*
D19*
X112595000Y-58387500D03*
X110870000Y-58387500D03*
D24*
X62025000Y-71575000D03*
D25*
X144400000Y-94600000D03*
X145535000Y-94600000D03*
D26*
X65865000Y-130790000D03*
X64040000Y-130790000D03*
D27*
X76080000Y-119960000D03*
X76080000Y-121230000D03*
X76080000Y-122500000D03*
X76080000Y-123770000D03*
X81030000Y-123770000D03*
X81030000Y-122500000D03*
X81030000Y-121230000D03*
X81030000Y-119960000D03*
D28*
X128400000Y-118900000D03*
X128400000Y-116900000D03*
D29*
X139300000Y-82700000D03*
X144300000Y-82700000D03*
D30*
X81530000Y-125905000D03*
X81530000Y-127980000D03*
D29*
X139425000Y-107600000D03*
X144425000Y-107600000D03*
D28*
X139400000Y-112900000D03*
X139400000Y-110900000D03*
D31*
X66000000Y-114000000D03*
X67900000Y-114000000D03*
X66950000Y-112125000D03*
D32*
X64025000Y-75500000D03*
X64025000Y-73775000D03*
D33*
X139400000Y-119550000D03*
X141475000Y-119550000D03*
D34*
X120700000Y-114600000D03*
X118625000Y-114600000D03*
D35*
X89100000Y-115060000D03*
D36*
X89100000Y-117600000D03*
X89100000Y-120140000D03*
D34*
X124600000Y-121400000D03*
X122525000Y-121400000D03*
X124600000Y-128100000D03*
X122525000Y-128100000D03*
D26*
X146200000Y-90500000D03*
X144375000Y-90500000D03*
D37*
X130600000Y-112755113D03*
D38*
X130600000Y-110755113D03*
D19*
X135580000Y-128900000D03*
X133855000Y-128900000D03*
D39*
X140400000Y-77200000D03*
D40*
X142300000Y-77200000D03*
D26*
X142315000Y-94300000D03*
X140490000Y-94300000D03*
D34*
X124600000Y-123600000D03*
X122525000Y-123600000D03*
D41*
X67000000Y-90250000D03*
X67000000Y-88750000D03*
X67000000Y-87250000D03*
X67000000Y-85750000D03*
X67000000Y-84250000D03*
X67000000Y-82750000D03*
X67000000Y-81250000D03*
X67000000Y-79750000D03*
X67000000Y-78250000D03*
X67000000Y-76750000D03*
D42*
X68950000Y-66200000D03*
X68950000Y-100800000D03*
D23*
X124100000Y-72900000D03*
X124100000Y-74725000D03*
D26*
X66365000Y-124540000D03*
X64540000Y-124540000D03*
D24*
X59825000Y-84375000D03*
D28*
X119000000Y-90100000D03*
X119000000Y-88100000D03*
D43*
X118825000Y-95300000D03*
X118825000Y-97025000D03*
D26*
X146400000Y-92900000D03*
X144575000Y-92900000D03*
D24*
X73500000Y-124500000D03*
D26*
X142425000Y-102700000D03*
X140600000Y-102700000D03*
D28*
X130700000Y-121200000D03*
X130700000Y-119200000D03*
D44*
X150200000Y-123825000D03*
X150200000Y-119825000D03*
D19*
X112600000Y-60665000D03*
X110875000Y-60665000D03*
D24*
X87200000Y-123100000D03*
D43*
X124925000Y-95325000D03*
X124925000Y-97050000D03*
D19*
X63950000Y-79375000D03*
X62225000Y-79375000D03*
D24*
X69620000Y-118025000D03*
D45*
X137080000Y-119650000D03*
X135810000Y-119650000D03*
X134540000Y-119650000D03*
X133270000Y-119650000D03*
X133270000Y-125050000D03*
X134540000Y-125050000D03*
X135810000Y-125050000D03*
X137080000Y-125050000D03*
D46*
X135175000Y-122350000D03*
D47*
X134430000Y-135528460D03*
X134430000Y-133628540D03*
X132398000Y-134578500D03*
D26*
X70100000Y-128300000D03*
X68275000Y-128300000D03*
D48*
X114000000Y-93700000D03*
X114000000Y-98700000D03*
D49*
X134148000Y-139725000D03*
X134148000Y-137900000D03*
D24*
X60425000Y-75175000D03*
D23*
X115500000Y-72900000D03*
X115500000Y-74725000D03*
D35*
X159900000Y-59200000D03*
D36*
X162440000Y-59200000D03*
D19*
X129525000Y-97600000D03*
X127800000Y-97600000D03*
D34*
X73900000Y-122000000D03*
X71825000Y-122000000D03*
D26*
X142300000Y-90500000D03*
X140475000Y-90500000D03*
D50*
X64000000Y-111375000D03*
X61950000Y-111375000D03*
D21*
X66200000Y-116125000D03*
X68025000Y-116125000D03*
D23*
X126500000Y-72865000D03*
X126500000Y-74690000D03*
D43*
X122925000Y-95300000D03*
X122925000Y-97025000D03*
D51*
X83300000Y-140500000D03*
X70600000Y-140500000D03*
D52*
X80510000Y-137960000D03*
D53*
X79494000Y-136180000D03*
X78478000Y-137960000D03*
X77462000Y-136180000D03*
X76446000Y-137960000D03*
X75430000Y-136180000D03*
X74414000Y-137960000D03*
X73398000Y-136180000D03*
X83810000Y-131360000D03*
X81520000Y-131360000D03*
X72380000Y-131360000D03*
X70090000Y-131360000D03*
D54*
X85080000Y-137070000D03*
X68820000Y-137070000D03*
D24*
X59825000Y-88375000D03*
D21*
X127800000Y-95400000D03*
X129625000Y-95400000D03*
D55*
X122600000Y-114600000D03*
X124600000Y-114600000D03*
D56*
X119520000Y-57800000D03*
X120620000Y-57800000D03*
X121720000Y-57800000D03*
X122820000Y-57800000D03*
X123920000Y-57800000D03*
X125020000Y-57800000D03*
X126120000Y-57800000D03*
X127220000Y-57800000D03*
D57*
X117730000Y-70265000D03*
D58*
X121995000Y-70340000D03*
D59*
X115640000Y-57815000D03*
D60*
X128300000Y-58300000D03*
D61*
X115420000Y-69065000D03*
X128300000Y-69065000D03*
D62*
X137648000Y-134250000D03*
X137648000Y-137650000D03*
D26*
X142400000Y-98900000D03*
X140575000Y-98900000D03*
D24*
X84600000Y-118800000D03*
D25*
X144265000Y-98700000D03*
X145400000Y-98700000D03*
D63*
X62225000Y-77775000D03*
X63950000Y-77775000D03*
D26*
X146325000Y-102700000D03*
X144500000Y-102700000D03*
D34*
X155900000Y-60000000D03*
X153825000Y-60000000D03*
D31*
X64090000Y-128665000D03*
X65990000Y-128665000D03*
X65040000Y-126790000D03*
D24*
X63800000Y-92900000D03*
D34*
X124600000Y-117000000D03*
X122525000Y-117000000D03*
D64*
X134800000Y-97175000D03*
X135500000Y-97175000D03*
D65*
X136300000Y-97250000D03*
X136300000Y-96750000D03*
X136300000Y-96250000D03*
X136300000Y-95750000D03*
D64*
X135500000Y-95825000D03*
X134800000Y-95825000D03*
D65*
X134000000Y-95750000D03*
X134000000Y-96250000D03*
X134000000Y-96750000D03*
X134000000Y-97250000D03*
D66*
X153306000Y-115446250D03*
X120286000Y-63376250D03*
X105046000Y-114176250D03*
D67*
X160926000Y-111636250D03*
D68*
X158386000Y-111636250D03*
X160926000Y-109096250D03*
X158386000Y-109096250D03*
X160926000Y-106556250D03*
X158386000Y-106556250D03*
X160926000Y-104016250D03*
X158386000Y-104016250D03*
X160926000Y-101476250D03*
X158386000Y-101476250D03*
X160926000Y-98936250D03*
X158386000Y-98936250D03*
X160926000Y-96396250D03*
X158386000Y-96396250D03*
X160926000Y-93856250D03*
X158386000Y-93856250D03*
X160926000Y-91316250D03*
X158386000Y-91316250D03*
X160926000Y-88776250D03*
X158386000Y-88776250D03*
X160926000Y-86236250D03*
X158386000Y-86236250D03*
X160926000Y-83696250D03*
X158386000Y-83696250D03*
X160926000Y-81156250D03*
X158386000Y-81156250D03*
X160926000Y-78616250D03*
X158386000Y-78616250D03*
X160926000Y-76076250D03*
X158386000Y-76076250D03*
X160926000Y-73536250D03*
X158386000Y-73536250D03*
X160926000Y-70996250D03*
X158386000Y-70996250D03*
X160926000Y-68456250D03*
X158386000Y-68456250D03*
X160926000Y-65916250D03*
X158386000Y-65916250D03*
X99966000Y-111636250D03*
X97426000Y-111636250D03*
X99966000Y-109096250D03*
X97426000Y-109096250D03*
X99966000Y-106556250D03*
X97426000Y-106556250D03*
X99966000Y-104016250D03*
X97426000Y-104016250D03*
X99966000Y-101476250D03*
X97426000Y-101476250D03*
X99966000Y-98936250D03*
X97426000Y-98936250D03*
X99966000Y-96396250D03*
X97426000Y-96396250D03*
X99966000Y-93856250D03*
X97426000Y-93856250D03*
X99966000Y-91316250D03*
X97426000Y-91316250D03*
X99966000Y-88776250D03*
X97426000Y-88776250D03*
X99966000Y-86236250D03*
X97426000Y-86236250D03*
X99966000Y-83696250D03*
X97426000Y-83696250D03*
X99966000Y-81156250D03*
X97426000Y-81156250D03*
X99966000Y-78616250D03*
X97426000Y-78616250D03*
X99966000Y-76076250D03*
X97426000Y-76076250D03*
X99966000Y-73536250D03*
X97426000Y-73536250D03*
X99966000Y-70996250D03*
X97426000Y-70996250D03*
X99966000Y-68456250D03*
X97426000Y-68456250D03*
X99966000Y-65916250D03*
X97426000Y-65916250D03*
D34*
X124600000Y-119200000D03*
X122525000Y-119200000D03*
D24*
X63825000Y-84375000D03*
D23*
X112800000Y-63575000D03*
X112800000Y-65400000D03*
D24*
X63800000Y-88775000D03*
D26*
X146300000Y-100500000D03*
X144475000Y-100500000D03*
D43*
X120925000Y-95300000D03*
X120925000Y-97025000D03*
D24*
X63900000Y-81300000D03*
D69*
X84205000Y-120800000D03*
X85400000Y-120800000D03*
D34*
X124600000Y-125800000D03*
X122525000Y-125800000D03*
%LPD*%
M02*
