%TF.GenerationSoftware,KiCad,Pcbnew,9.0.5*%
%TF.CreationDate,2025-10-15T01:52:37-07:00*%
%TF.ProjectId,CAN_Sniffer_1.0,43414e5f-536e-4696-9666-65725f312e30,rev?*%
%TF.SameCoordinates,Original*%
%TF.FileFunction,Drillmap*%
%TF.FilePolarity,Positive*%
%FSLAX45Y45*%
G04 Gerber Fmt 4.5, Leading zero omitted, Abs format (unit mm)*
G04 Created by KiCad (PCBNEW 9.0.5) date 2025-10-15 01:52:37*
%MOMM*%
%LPD*%
G01*
G04 APERTURE LIST*
%ADD10C,0.050000*%
%ADD11C,0.200000*%
%ADD12C,0.320000*%
%ADD13C,0.325000*%
G04 APERTURE END LIST*
D10*
X16687500Y-14532500D02*
G75*
G02*
X16607500Y-14612500I-80000J0D01*
G01*
X16607500Y-14612500D02*
X5767500Y-14612500D01*
X5687500Y-5692500D02*
G75*
G02*
X5767500Y-5612500I80000J0D01*
G01*
X16607500Y-5612500D02*
G75*
G02*
X16687500Y-5692500I0J-80000D01*
G01*
X16687500Y-5692500D02*
X16687500Y-14532500D01*
X5767500Y-5612500D02*
X16607500Y-5612500D01*
X5767500Y-14612500D02*
G75*
G02*
X5687500Y-14532500I0J80000D01*
G01*
X5687500Y-14532500D02*
X5687500Y-5692500D01*
D11*
D12*
X10344600Y-11257625D02*
X10664600Y-11577625D01*
X10664600Y-11257625D02*
X10344600Y-11577625D01*
X11868600Y-6177625D02*
X12188600Y-6497625D01*
X12188600Y-6177625D02*
X11868600Y-6497625D01*
X15170600Y-11384625D02*
X15490600Y-11704625D01*
X15490600Y-11384625D02*
X15170600Y-11704625D01*
D13*
X7222500Y-14050000D02*
G75*
G02*
X6897500Y-14050000I-162500J0D01*
G01*
X6897500Y-14050000D02*
G75*
G02*
X7222500Y-14050000I162500J0D01*
G01*
X8492500Y-14050000D02*
G75*
G02*
X8167500Y-14050000I-162500J0D01*
G01*
X8167500Y-14050000D02*
G75*
G02*
X8492500Y-14050000I162500J0D01*
G01*
D11*
X5945777Y-14926484D02*
X5945777Y-14726484D01*
X5945777Y-14726484D02*
X5993396Y-14726484D01*
X5993396Y-14726484D02*
X6021967Y-14736008D01*
X6021967Y-14736008D02*
X6041015Y-14755055D01*
X6041015Y-14755055D02*
X6050539Y-14774103D01*
X6050539Y-14774103D02*
X6060062Y-14812198D01*
X6060062Y-14812198D02*
X6060062Y-14840769D01*
X6060062Y-14840769D02*
X6050539Y-14878865D01*
X6050539Y-14878865D02*
X6041015Y-14897912D01*
X6041015Y-14897912D02*
X6021967Y-14916960D01*
X6021967Y-14916960D02*
X5993396Y-14926484D01*
X5993396Y-14926484D02*
X5945777Y-14926484D01*
X6145777Y-14926484D02*
X6145777Y-14793150D01*
X6145777Y-14831246D02*
X6155301Y-14812198D01*
X6155301Y-14812198D02*
X6164824Y-14802674D01*
X6164824Y-14802674D02*
X6183872Y-14793150D01*
X6183872Y-14793150D02*
X6202920Y-14793150D01*
X6269586Y-14926484D02*
X6269586Y-14793150D01*
X6269586Y-14726484D02*
X6260062Y-14736008D01*
X6260062Y-14736008D02*
X6269586Y-14745531D01*
X6269586Y-14745531D02*
X6279110Y-14736008D01*
X6279110Y-14736008D02*
X6269586Y-14726484D01*
X6269586Y-14726484D02*
X6269586Y-14745531D01*
X6393396Y-14926484D02*
X6374348Y-14916960D01*
X6374348Y-14916960D02*
X6364824Y-14897912D01*
X6364824Y-14897912D02*
X6364824Y-14726484D01*
X6498158Y-14926484D02*
X6479110Y-14916960D01*
X6479110Y-14916960D02*
X6469586Y-14897912D01*
X6469586Y-14897912D02*
X6469586Y-14726484D01*
X6726729Y-14926484D02*
X6726729Y-14726484D01*
X6726729Y-14726484D02*
X6793396Y-14869341D01*
X6793396Y-14869341D02*
X6860062Y-14726484D01*
X6860062Y-14726484D02*
X6860062Y-14926484D01*
X7041015Y-14926484D02*
X7041015Y-14821722D01*
X7041015Y-14821722D02*
X7031491Y-14802674D01*
X7031491Y-14802674D02*
X7012443Y-14793150D01*
X7012443Y-14793150D02*
X6974348Y-14793150D01*
X6974348Y-14793150D02*
X6955301Y-14802674D01*
X7041015Y-14916960D02*
X7021967Y-14926484D01*
X7021967Y-14926484D02*
X6974348Y-14926484D01*
X6974348Y-14926484D02*
X6955301Y-14916960D01*
X6955301Y-14916960D02*
X6945777Y-14897912D01*
X6945777Y-14897912D02*
X6945777Y-14878865D01*
X6945777Y-14878865D02*
X6955301Y-14859817D01*
X6955301Y-14859817D02*
X6974348Y-14850293D01*
X6974348Y-14850293D02*
X7021967Y-14850293D01*
X7021967Y-14850293D02*
X7041015Y-14840769D01*
X7136253Y-14793150D02*
X7136253Y-14993150D01*
X7136253Y-14802674D02*
X7155301Y-14793150D01*
X7155301Y-14793150D02*
X7193396Y-14793150D01*
X7193396Y-14793150D02*
X7212443Y-14802674D01*
X7212443Y-14802674D02*
X7221967Y-14812198D01*
X7221967Y-14812198D02*
X7231491Y-14831246D01*
X7231491Y-14831246D02*
X7231491Y-14888388D01*
X7231491Y-14888388D02*
X7221967Y-14907436D01*
X7221967Y-14907436D02*
X7212443Y-14916960D01*
X7212443Y-14916960D02*
X7193396Y-14926484D01*
X7193396Y-14926484D02*
X7155301Y-14926484D01*
X7155301Y-14926484D02*
X7136253Y-14916960D01*
X7317205Y-14907436D02*
X7326729Y-14916960D01*
X7326729Y-14916960D02*
X7317205Y-14926484D01*
X7317205Y-14926484D02*
X7307682Y-14916960D01*
X7307682Y-14916960D02*
X7317205Y-14907436D01*
X7317205Y-14907436D02*
X7317205Y-14926484D01*
X7317205Y-14802674D02*
X7326729Y-14812198D01*
X7326729Y-14812198D02*
X7317205Y-14821722D01*
X7317205Y-14821722D02*
X7307682Y-14812198D01*
X7307682Y-14812198D02*
X7317205Y-14802674D01*
X7317205Y-14802674D02*
X7317205Y-14821722D01*
X5485000Y-15155000D02*
X5685000Y-15355000D01*
X5685000Y-15155000D02*
X5485000Y-15355000D01*
X5926729Y-15146484D02*
X6050539Y-15146484D01*
X6050539Y-15146484D02*
X5983872Y-15222674D01*
X5983872Y-15222674D02*
X6012443Y-15222674D01*
X6012443Y-15222674D02*
X6031491Y-15232198D01*
X6031491Y-15232198D02*
X6041015Y-15241722D01*
X6041015Y-15241722D02*
X6050539Y-15260769D01*
X6050539Y-15260769D02*
X6050539Y-15308388D01*
X6050539Y-15308388D02*
X6041015Y-15327436D01*
X6041015Y-15327436D02*
X6031491Y-15336960D01*
X6031491Y-15336960D02*
X6012443Y-15346484D01*
X6012443Y-15346484D02*
X5955301Y-15346484D01*
X5955301Y-15346484D02*
X5936253Y-15336960D01*
X5936253Y-15336960D02*
X5926729Y-15327436D01*
X6136253Y-15327436D02*
X6145777Y-15336960D01*
X6145777Y-15336960D02*
X6136253Y-15346484D01*
X6136253Y-15346484D02*
X6126729Y-15336960D01*
X6126729Y-15336960D02*
X6136253Y-15327436D01*
X6136253Y-15327436D02*
X6136253Y-15346484D01*
X6221967Y-15165531D02*
X6231491Y-15156008D01*
X6231491Y-15156008D02*
X6250539Y-15146484D01*
X6250539Y-15146484D02*
X6298158Y-15146484D01*
X6298158Y-15146484D02*
X6317205Y-15156008D01*
X6317205Y-15156008D02*
X6326729Y-15165531D01*
X6326729Y-15165531D02*
X6336253Y-15184579D01*
X6336253Y-15184579D02*
X6336253Y-15203627D01*
X6336253Y-15203627D02*
X6326729Y-15232198D01*
X6326729Y-15232198D02*
X6212443Y-15346484D01*
X6212443Y-15346484D02*
X6336253Y-15346484D01*
X6460062Y-15146484D02*
X6479110Y-15146484D01*
X6479110Y-15146484D02*
X6498158Y-15156008D01*
X6498158Y-15156008D02*
X6507682Y-15165531D01*
X6507682Y-15165531D02*
X6517205Y-15184579D01*
X6517205Y-15184579D02*
X6526729Y-15222674D01*
X6526729Y-15222674D02*
X6526729Y-15270293D01*
X6526729Y-15270293D02*
X6517205Y-15308388D01*
X6517205Y-15308388D02*
X6507682Y-15327436D01*
X6507682Y-15327436D02*
X6498158Y-15336960D01*
X6498158Y-15336960D02*
X6479110Y-15346484D01*
X6479110Y-15346484D02*
X6460062Y-15346484D01*
X6460062Y-15346484D02*
X6441015Y-15336960D01*
X6441015Y-15336960D02*
X6431491Y-15327436D01*
X6431491Y-15327436D02*
X6421967Y-15308388D01*
X6421967Y-15308388D02*
X6412443Y-15270293D01*
X6412443Y-15270293D02*
X6412443Y-15222674D01*
X6412443Y-15222674D02*
X6421967Y-15184579D01*
X6421967Y-15184579D02*
X6431491Y-15165531D01*
X6431491Y-15165531D02*
X6441015Y-15156008D01*
X6441015Y-15156008D02*
X6460062Y-15146484D01*
X6650539Y-15146484D02*
X6669586Y-15146484D01*
X6669586Y-15146484D02*
X6688634Y-15156008D01*
X6688634Y-15156008D02*
X6698158Y-15165531D01*
X6698158Y-15165531D02*
X6707682Y-15184579D01*
X6707682Y-15184579D02*
X6717205Y-15222674D01*
X6717205Y-15222674D02*
X6717205Y-15270293D01*
X6717205Y-15270293D02*
X6707682Y-15308388D01*
X6707682Y-15308388D02*
X6698158Y-15327436D01*
X6698158Y-15327436D02*
X6688634Y-15336960D01*
X6688634Y-15336960D02*
X6669586Y-15346484D01*
X6669586Y-15346484D02*
X6650539Y-15346484D01*
X6650539Y-15346484D02*
X6631491Y-15336960D01*
X6631491Y-15336960D02*
X6621967Y-15327436D01*
X6621967Y-15327436D02*
X6612443Y-15308388D01*
X6612443Y-15308388D02*
X6602920Y-15270293D01*
X6602920Y-15270293D02*
X6602920Y-15222674D01*
X6602920Y-15222674D02*
X6612443Y-15184579D01*
X6612443Y-15184579D02*
X6621967Y-15165531D01*
X6621967Y-15165531D02*
X6631491Y-15156008D01*
X6631491Y-15156008D02*
X6650539Y-15146484D01*
X6802920Y-15346484D02*
X6802920Y-15213150D01*
X6802920Y-15232198D02*
X6812443Y-15222674D01*
X6812443Y-15222674D02*
X6831491Y-15213150D01*
X6831491Y-15213150D02*
X6860063Y-15213150D01*
X6860063Y-15213150D02*
X6879110Y-15222674D01*
X6879110Y-15222674D02*
X6888634Y-15241722D01*
X6888634Y-15241722D02*
X6888634Y-15346484D01*
X6888634Y-15241722D02*
X6898158Y-15222674D01*
X6898158Y-15222674D02*
X6917205Y-15213150D01*
X6917205Y-15213150D02*
X6945777Y-15213150D01*
X6945777Y-15213150D02*
X6964824Y-15222674D01*
X6964824Y-15222674D02*
X6974348Y-15241722D01*
X6974348Y-15241722D02*
X6974348Y-15346484D01*
X7069586Y-15346484D02*
X7069586Y-15213150D01*
X7069586Y-15232198D02*
X7079110Y-15222674D01*
X7079110Y-15222674D02*
X7098158Y-15213150D01*
X7098158Y-15213150D02*
X7126729Y-15213150D01*
X7126729Y-15213150D02*
X7145777Y-15222674D01*
X7145777Y-15222674D02*
X7155301Y-15241722D01*
X7155301Y-15241722D02*
X7155301Y-15346484D01*
X7155301Y-15241722D02*
X7164824Y-15222674D01*
X7164824Y-15222674D02*
X7183872Y-15213150D01*
X7183872Y-15213150D02*
X7212443Y-15213150D01*
X7212443Y-15213150D02*
X7231491Y-15222674D01*
X7231491Y-15222674D02*
X7241015Y-15241722D01*
X7241015Y-15241722D02*
X7241015Y-15346484D01*
X7631491Y-15136960D02*
X7460063Y-15394103D01*
X7888634Y-15146484D02*
X7907682Y-15146484D01*
X7907682Y-15146484D02*
X7926729Y-15156008D01*
X7926729Y-15156008D02*
X7936253Y-15165531D01*
X7936253Y-15165531D02*
X7945777Y-15184579D01*
X7945777Y-15184579D02*
X7955301Y-15222674D01*
X7955301Y-15222674D02*
X7955301Y-15270293D01*
X7955301Y-15270293D02*
X7945777Y-15308388D01*
X7945777Y-15308388D02*
X7936253Y-15327436D01*
X7936253Y-15327436D02*
X7926729Y-15336960D01*
X7926729Y-15336960D02*
X7907682Y-15346484D01*
X7907682Y-15346484D02*
X7888634Y-15346484D01*
X7888634Y-15346484D02*
X7869586Y-15336960D01*
X7869586Y-15336960D02*
X7860063Y-15327436D01*
X7860063Y-15327436D02*
X7850539Y-15308388D01*
X7850539Y-15308388D02*
X7841015Y-15270293D01*
X7841015Y-15270293D02*
X7841015Y-15222674D01*
X7841015Y-15222674D02*
X7850539Y-15184579D01*
X7850539Y-15184579D02*
X7860063Y-15165531D01*
X7860063Y-15165531D02*
X7869586Y-15156008D01*
X7869586Y-15156008D02*
X7888634Y-15146484D01*
X8041015Y-15327436D02*
X8050539Y-15336960D01*
X8050539Y-15336960D02*
X8041015Y-15346484D01*
X8041015Y-15346484D02*
X8031491Y-15336960D01*
X8031491Y-15336960D02*
X8041015Y-15327436D01*
X8041015Y-15327436D02*
X8041015Y-15346484D01*
X8241015Y-15346484D02*
X8126729Y-15346484D01*
X8183872Y-15346484D02*
X8183872Y-15146484D01*
X8183872Y-15146484D02*
X8164825Y-15175055D01*
X8164825Y-15175055D02*
X8145777Y-15194103D01*
X8145777Y-15194103D02*
X8126729Y-15203627D01*
X8317206Y-15165531D02*
X8326729Y-15156008D01*
X8326729Y-15156008D02*
X8345777Y-15146484D01*
X8345777Y-15146484D02*
X8393396Y-15146484D01*
X8393396Y-15146484D02*
X8412444Y-15156008D01*
X8412444Y-15156008D02*
X8421968Y-15165531D01*
X8421968Y-15165531D02*
X8431491Y-15184579D01*
X8431491Y-15184579D02*
X8431491Y-15203627D01*
X8431491Y-15203627D02*
X8421968Y-15232198D01*
X8421968Y-15232198D02*
X8307682Y-15346484D01*
X8307682Y-15346484D02*
X8431491Y-15346484D01*
X8602920Y-15146484D02*
X8564825Y-15146484D01*
X8564825Y-15146484D02*
X8545777Y-15156008D01*
X8545777Y-15156008D02*
X8536253Y-15165531D01*
X8536253Y-15165531D02*
X8517206Y-15194103D01*
X8517206Y-15194103D02*
X8507682Y-15232198D01*
X8507682Y-15232198D02*
X8507682Y-15308388D01*
X8507682Y-15308388D02*
X8517206Y-15327436D01*
X8517206Y-15327436D02*
X8526729Y-15336960D01*
X8526729Y-15336960D02*
X8545777Y-15346484D01*
X8545777Y-15346484D02*
X8583872Y-15346484D01*
X8583872Y-15346484D02*
X8602920Y-15336960D01*
X8602920Y-15336960D02*
X8612444Y-15327436D01*
X8612444Y-15327436D02*
X8621968Y-15308388D01*
X8621968Y-15308388D02*
X8621968Y-15260769D01*
X8621968Y-15260769D02*
X8612444Y-15241722D01*
X8612444Y-15241722D02*
X8602920Y-15232198D01*
X8602920Y-15232198D02*
X8583872Y-15222674D01*
X8583872Y-15222674D02*
X8545777Y-15222674D01*
X8545777Y-15222674D02*
X8526729Y-15232198D01*
X8526729Y-15232198D02*
X8517206Y-15241722D01*
X8517206Y-15241722D02*
X8507682Y-15260769D01*
X8745777Y-15146484D02*
X8764825Y-15146484D01*
X8764825Y-15146484D02*
X8783872Y-15156008D01*
X8783872Y-15156008D02*
X8793396Y-15165531D01*
X8793396Y-15165531D02*
X8802920Y-15184579D01*
X8802920Y-15184579D02*
X8812444Y-15222674D01*
X8812444Y-15222674D02*
X8812444Y-15270293D01*
X8812444Y-15270293D02*
X8802920Y-15308388D01*
X8802920Y-15308388D02*
X8793396Y-15327436D01*
X8793396Y-15327436D02*
X8783872Y-15336960D01*
X8783872Y-15336960D02*
X8764825Y-15346484D01*
X8764825Y-15346484D02*
X8745777Y-15346484D01*
X8745777Y-15346484D02*
X8726729Y-15336960D01*
X8726729Y-15336960D02*
X8717206Y-15327436D01*
X8717206Y-15327436D02*
X8707682Y-15308388D01*
X8707682Y-15308388D02*
X8698158Y-15270293D01*
X8698158Y-15270293D02*
X8698158Y-15222674D01*
X8698158Y-15222674D02*
X8707682Y-15184579D01*
X8707682Y-15184579D02*
X8717206Y-15165531D01*
X8717206Y-15165531D02*
X8726729Y-15156008D01*
X8726729Y-15156008D02*
X8745777Y-15146484D01*
X8888634Y-15146484D02*
X8888634Y-15184579D01*
X8964825Y-15146484D02*
X8964825Y-15184579D01*
X9260063Y-15422674D02*
X9250539Y-15413150D01*
X9250539Y-15413150D02*
X9231491Y-15384579D01*
X9231491Y-15384579D02*
X9221968Y-15365531D01*
X9221968Y-15365531D02*
X9212444Y-15336960D01*
X9212444Y-15336960D02*
X9202920Y-15289341D01*
X9202920Y-15289341D02*
X9202920Y-15251246D01*
X9202920Y-15251246D02*
X9212444Y-15203627D01*
X9212444Y-15203627D02*
X9221968Y-15175055D01*
X9221968Y-15175055D02*
X9231491Y-15156008D01*
X9231491Y-15156008D02*
X9250539Y-15127436D01*
X9250539Y-15127436D02*
X9260063Y-15117912D01*
X9317206Y-15146484D02*
X9441015Y-15146484D01*
X9441015Y-15146484D02*
X9374349Y-15222674D01*
X9374349Y-15222674D02*
X9402920Y-15222674D01*
X9402920Y-15222674D02*
X9421968Y-15232198D01*
X9421968Y-15232198D02*
X9431491Y-15241722D01*
X9431491Y-15241722D02*
X9441015Y-15260769D01*
X9441015Y-15260769D02*
X9441015Y-15308388D01*
X9441015Y-15308388D02*
X9431491Y-15327436D01*
X9431491Y-15327436D02*
X9421968Y-15336960D01*
X9421968Y-15336960D02*
X9402920Y-15346484D01*
X9402920Y-15346484D02*
X9345777Y-15346484D01*
X9345777Y-15346484D02*
X9326730Y-15336960D01*
X9326730Y-15336960D02*
X9317206Y-15327436D01*
X9679111Y-15346484D02*
X9679111Y-15146484D01*
X9764825Y-15346484D02*
X9764825Y-15241722D01*
X9764825Y-15241722D02*
X9755301Y-15222674D01*
X9755301Y-15222674D02*
X9736253Y-15213150D01*
X9736253Y-15213150D02*
X9707682Y-15213150D01*
X9707682Y-15213150D02*
X9688634Y-15222674D01*
X9688634Y-15222674D02*
X9679111Y-15232198D01*
X9888634Y-15346484D02*
X9869587Y-15336960D01*
X9869587Y-15336960D02*
X9860063Y-15327436D01*
X9860063Y-15327436D02*
X9850539Y-15308388D01*
X9850539Y-15308388D02*
X9850539Y-15251246D01*
X9850539Y-15251246D02*
X9860063Y-15232198D01*
X9860063Y-15232198D02*
X9869587Y-15222674D01*
X9869587Y-15222674D02*
X9888634Y-15213150D01*
X9888634Y-15213150D02*
X9917206Y-15213150D01*
X9917206Y-15213150D02*
X9936253Y-15222674D01*
X9936253Y-15222674D02*
X9945777Y-15232198D01*
X9945777Y-15232198D02*
X9955301Y-15251246D01*
X9955301Y-15251246D02*
X9955301Y-15308388D01*
X9955301Y-15308388D02*
X9945777Y-15327436D01*
X9945777Y-15327436D02*
X9936253Y-15336960D01*
X9936253Y-15336960D02*
X9917206Y-15346484D01*
X9917206Y-15346484D02*
X9888634Y-15346484D01*
X10069587Y-15346484D02*
X10050539Y-15336960D01*
X10050539Y-15336960D02*
X10041015Y-15317912D01*
X10041015Y-15317912D02*
X10041015Y-15146484D01*
X10221968Y-15336960D02*
X10202920Y-15346484D01*
X10202920Y-15346484D02*
X10164825Y-15346484D01*
X10164825Y-15346484D02*
X10145777Y-15336960D01*
X10145777Y-15336960D02*
X10136253Y-15317912D01*
X10136253Y-15317912D02*
X10136253Y-15241722D01*
X10136253Y-15241722D02*
X10145777Y-15222674D01*
X10145777Y-15222674D02*
X10164825Y-15213150D01*
X10164825Y-15213150D02*
X10202920Y-15213150D01*
X10202920Y-15213150D02*
X10221968Y-15222674D01*
X10221968Y-15222674D02*
X10231492Y-15241722D01*
X10231492Y-15241722D02*
X10231492Y-15260769D01*
X10231492Y-15260769D02*
X10136253Y-15279817D01*
X10307682Y-15336960D02*
X10326730Y-15346484D01*
X10326730Y-15346484D02*
X10364825Y-15346484D01*
X10364825Y-15346484D02*
X10383873Y-15336960D01*
X10383873Y-15336960D02*
X10393396Y-15317912D01*
X10393396Y-15317912D02*
X10393396Y-15308388D01*
X10393396Y-15308388D02*
X10383873Y-15289341D01*
X10383873Y-15289341D02*
X10364825Y-15279817D01*
X10364825Y-15279817D02*
X10336253Y-15279817D01*
X10336253Y-15279817D02*
X10317206Y-15270293D01*
X10317206Y-15270293D02*
X10307682Y-15251246D01*
X10307682Y-15251246D02*
X10307682Y-15241722D01*
X10307682Y-15241722D02*
X10317206Y-15222674D01*
X10317206Y-15222674D02*
X10336253Y-15213150D01*
X10336253Y-15213150D02*
X10364825Y-15213150D01*
X10364825Y-15213150D02*
X10383873Y-15222674D01*
X10460063Y-15422674D02*
X10469587Y-15413150D01*
X10469587Y-15413150D02*
X10488634Y-15384579D01*
X10488634Y-15384579D02*
X10498158Y-15365531D01*
X10498158Y-15365531D02*
X10507682Y-15336960D01*
X10507682Y-15336960D02*
X10517206Y-15289341D01*
X10517206Y-15289341D02*
X10517206Y-15251246D01*
X10517206Y-15251246D02*
X10507682Y-15203627D01*
X10507682Y-15203627D02*
X10498158Y-15175055D01*
X10498158Y-15175055D02*
X10488634Y-15156008D01*
X10488634Y-15156008D02*
X10469587Y-15127436D01*
X10469587Y-15127436D02*
X10460063Y-15117912D01*
X10821968Y-15422674D02*
X10812444Y-15413150D01*
X10812444Y-15413150D02*
X10793396Y-15384579D01*
X10793396Y-15384579D02*
X10783873Y-15365531D01*
X10783873Y-15365531D02*
X10774349Y-15336960D01*
X10774349Y-15336960D02*
X10764825Y-15289341D01*
X10764825Y-15289341D02*
X10764825Y-15251246D01*
X10764825Y-15251246D02*
X10774349Y-15203627D01*
X10774349Y-15203627D02*
X10783873Y-15175055D01*
X10783873Y-15175055D02*
X10793396Y-15156008D01*
X10793396Y-15156008D02*
X10812444Y-15127436D01*
X10812444Y-15127436D02*
X10821968Y-15117912D01*
X10898158Y-15213150D02*
X10898158Y-15346484D01*
X10898158Y-15232198D02*
X10907682Y-15222674D01*
X10907682Y-15222674D02*
X10926730Y-15213150D01*
X10926730Y-15213150D02*
X10955301Y-15213150D01*
X10955301Y-15213150D02*
X10974349Y-15222674D01*
X10974349Y-15222674D02*
X10983873Y-15241722D01*
X10983873Y-15241722D02*
X10983873Y-15346484D01*
X11107682Y-15346484D02*
X11088634Y-15336960D01*
X11088634Y-15336960D02*
X11079111Y-15327436D01*
X11079111Y-15327436D02*
X11069587Y-15308388D01*
X11069587Y-15308388D02*
X11069587Y-15251246D01*
X11069587Y-15251246D02*
X11079111Y-15232198D01*
X11079111Y-15232198D02*
X11088634Y-15222674D01*
X11088634Y-15222674D02*
X11107682Y-15213150D01*
X11107682Y-15213150D02*
X11136254Y-15213150D01*
X11136254Y-15213150D02*
X11155301Y-15222674D01*
X11155301Y-15222674D02*
X11164825Y-15232198D01*
X11164825Y-15232198D02*
X11174349Y-15251246D01*
X11174349Y-15251246D02*
X11174349Y-15308388D01*
X11174349Y-15308388D02*
X11164825Y-15327436D01*
X11164825Y-15327436D02*
X11155301Y-15336960D01*
X11155301Y-15336960D02*
X11136254Y-15346484D01*
X11136254Y-15346484D02*
X11107682Y-15346484D01*
X11231492Y-15213150D02*
X11307682Y-15213150D01*
X11260063Y-15146484D02*
X11260063Y-15317912D01*
X11260063Y-15317912D02*
X11269587Y-15336960D01*
X11269587Y-15336960D02*
X11288634Y-15346484D01*
X11288634Y-15346484D02*
X11307682Y-15346484D01*
X11526730Y-15213150D02*
X11526730Y-15413150D01*
X11526730Y-15222674D02*
X11545777Y-15213150D01*
X11545777Y-15213150D02*
X11583873Y-15213150D01*
X11583873Y-15213150D02*
X11602920Y-15222674D01*
X11602920Y-15222674D02*
X11612444Y-15232198D01*
X11612444Y-15232198D02*
X11621968Y-15251246D01*
X11621968Y-15251246D02*
X11621968Y-15308388D01*
X11621968Y-15308388D02*
X11612444Y-15327436D01*
X11612444Y-15327436D02*
X11602920Y-15336960D01*
X11602920Y-15336960D02*
X11583873Y-15346484D01*
X11583873Y-15346484D02*
X11545777Y-15346484D01*
X11545777Y-15346484D02*
X11526730Y-15336960D01*
X11736253Y-15346484D02*
X11717206Y-15336960D01*
X11717206Y-15336960D02*
X11707682Y-15317912D01*
X11707682Y-15317912D02*
X11707682Y-15146484D01*
X11898158Y-15346484D02*
X11898158Y-15241722D01*
X11898158Y-15241722D02*
X11888634Y-15222674D01*
X11888634Y-15222674D02*
X11869587Y-15213150D01*
X11869587Y-15213150D02*
X11831492Y-15213150D01*
X11831492Y-15213150D02*
X11812444Y-15222674D01*
X11898158Y-15336960D02*
X11879111Y-15346484D01*
X11879111Y-15346484D02*
X11831492Y-15346484D01*
X11831492Y-15346484D02*
X11812444Y-15336960D01*
X11812444Y-15336960D02*
X11802920Y-15317912D01*
X11802920Y-15317912D02*
X11802920Y-15298865D01*
X11802920Y-15298865D02*
X11812444Y-15279817D01*
X11812444Y-15279817D02*
X11831492Y-15270293D01*
X11831492Y-15270293D02*
X11879111Y-15270293D01*
X11879111Y-15270293D02*
X11898158Y-15260769D01*
X11964825Y-15213150D02*
X12041015Y-15213150D01*
X11993396Y-15146484D02*
X11993396Y-15317912D01*
X11993396Y-15317912D02*
X12002920Y-15336960D01*
X12002920Y-15336960D02*
X12021968Y-15346484D01*
X12021968Y-15346484D02*
X12041015Y-15346484D01*
X12183873Y-15336960D02*
X12164825Y-15346484D01*
X12164825Y-15346484D02*
X12126730Y-15346484D01*
X12126730Y-15346484D02*
X12107682Y-15336960D01*
X12107682Y-15336960D02*
X12098158Y-15317912D01*
X12098158Y-15317912D02*
X12098158Y-15241722D01*
X12098158Y-15241722D02*
X12107682Y-15222674D01*
X12107682Y-15222674D02*
X12126730Y-15213150D01*
X12126730Y-15213150D02*
X12164825Y-15213150D01*
X12164825Y-15213150D02*
X12183873Y-15222674D01*
X12183873Y-15222674D02*
X12193396Y-15241722D01*
X12193396Y-15241722D02*
X12193396Y-15260769D01*
X12193396Y-15260769D02*
X12098158Y-15279817D01*
X12364825Y-15346484D02*
X12364825Y-15146484D01*
X12364825Y-15336960D02*
X12345777Y-15346484D01*
X12345777Y-15346484D02*
X12307682Y-15346484D01*
X12307682Y-15346484D02*
X12288634Y-15336960D01*
X12288634Y-15336960D02*
X12279111Y-15327436D01*
X12279111Y-15327436D02*
X12269587Y-15308388D01*
X12269587Y-15308388D02*
X12269587Y-15251246D01*
X12269587Y-15251246D02*
X12279111Y-15232198D01*
X12279111Y-15232198D02*
X12288634Y-15222674D01*
X12288634Y-15222674D02*
X12307682Y-15213150D01*
X12307682Y-15213150D02*
X12345777Y-15213150D01*
X12345777Y-15213150D02*
X12364825Y-15222674D01*
X12441015Y-15422674D02*
X12450539Y-15413150D01*
X12450539Y-15413150D02*
X12469587Y-15384579D01*
X12469587Y-15384579D02*
X12479111Y-15365531D01*
X12479111Y-15365531D02*
X12488634Y-15336960D01*
X12488634Y-15336960D02*
X12498158Y-15289341D01*
X12498158Y-15289341D02*
X12498158Y-15251246D01*
X12498158Y-15251246D02*
X12488634Y-15203627D01*
X12488634Y-15203627D02*
X12479111Y-15175055D01*
X12479111Y-15175055D02*
X12469587Y-15156008D01*
X12469587Y-15156008D02*
X12450539Y-15127436D01*
X12450539Y-15127436D02*
X12441015Y-15117912D01*
X5685000Y-15575000D02*
G75*
G02*
X5485000Y-15575000I-100000J0D01*
G01*
X5485000Y-15575000D02*
G75*
G02*
X5685000Y-15575000I100000J0D01*
G01*
X5926729Y-15466484D02*
X6050539Y-15466484D01*
X6050539Y-15466484D02*
X5983872Y-15542674D01*
X5983872Y-15542674D02*
X6012443Y-15542674D01*
X6012443Y-15542674D02*
X6031491Y-15552198D01*
X6031491Y-15552198D02*
X6041015Y-15561722D01*
X6041015Y-15561722D02*
X6050539Y-15580769D01*
X6050539Y-15580769D02*
X6050539Y-15628388D01*
X6050539Y-15628388D02*
X6041015Y-15647436D01*
X6041015Y-15647436D02*
X6031491Y-15656960D01*
X6031491Y-15656960D02*
X6012443Y-15666484D01*
X6012443Y-15666484D02*
X5955301Y-15666484D01*
X5955301Y-15666484D02*
X5936253Y-15656960D01*
X5936253Y-15656960D02*
X5926729Y-15647436D01*
X6136253Y-15647436D02*
X6145777Y-15656960D01*
X6145777Y-15656960D02*
X6136253Y-15666484D01*
X6136253Y-15666484D02*
X6126729Y-15656960D01*
X6126729Y-15656960D02*
X6136253Y-15647436D01*
X6136253Y-15647436D02*
X6136253Y-15666484D01*
X6221967Y-15485531D02*
X6231491Y-15476008D01*
X6231491Y-15476008D02*
X6250539Y-15466484D01*
X6250539Y-15466484D02*
X6298158Y-15466484D01*
X6298158Y-15466484D02*
X6317205Y-15476008D01*
X6317205Y-15476008D02*
X6326729Y-15485531D01*
X6326729Y-15485531D02*
X6336253Y-15504579D01*
X6336253Y-15504579D02*
X6336253Y-15523627D01*
X6336253Y-15523627D02*
X6326729Y-15552198D01*
X6326729Y-15552198D02*
X6212443Y-15666484D01*
X6212443Y-15666484D02*
X6336253Y-15666484D01*
X6517205Y-15466484D02*
X6421967Y-15466484D01*
X6421967Y-15466484D02*
X6412443Y-15561722D01*
X6412443Y-15561722D02*
X6421967Y-15552198D01*
X6421967Y-15552198D02*
X6441015Y-15542674D01*
X6441015Y-15542674D02*
X6488634Y-15542674D01*
X6488634Y-15542674D02*
X6507682Y-15552198D01*
X6507682Y-15552198D02*
X6517205Y-15561722D01*
X6517205Y-15561722D02*
X6526729Y-15580769D01*
X6526729Y-15580769D02*
X6526729Y-15628388D01*
X6526729Y-15628388D02*
X6517205Y-15647436D01*
X6517205Y-15647436D02*
X6507682Y-15656960D01*
X6507682Y-15656960D02*
X6488634Y-15666484D01*
X6488634Y-15666484D02*
X6441015Y-15666484D01*
X6441015Y-15666484D02*
X6421967Y-15656960D01*
X6421967Y-15656960D02*
X6412443Y-15647436D01*
X6650539Y-15466484D02*
X6669586Y-15466484D01*
X6669586Y-15466484D02*
X6688634Y-15476008D01*
X6688634Y-15476008D02*
X6698158Y-15485531D01*
X6698158Y-15485531D02*
X6707682Y-15504579D01*
X6707682Y-15504579D02*
X6717205Y-15542674D01*
X6717205Y-15542674D02*
X6717205Y-15590293D01*
X6717205Y-15590293D02*
X6707682Y-15628388D01*
X6707682Y-15628388D02*
X6698158Y-15647436D01*
X6698158Y-15647436D02*
X6688634Y-15656960D01*
X6688634Y-15656960D02*
X6669586Y-15666484D01*
X6669586Y-15666484D02*
X6650539Y-15666484D01*
X6650539Y-15666484D02*
X6631491Y-15656960D01*
X6631491Y-15656960D02*
X6621967Y-15647436D01*
X6621967Y-15647436D02*
X6612443Y-15628388D01*
X6612443Y-15628388D02*
X6602920Y-15590293D01*
X6602920Y-15590293D02*
X6602920Y-15542674D01*
X6602920Y-15542674D02*
X6612443Y-15504579D01*
X6612443Y-15504579D02*
X6621967Y-15485531D01*
X6621967Y-15485531D02*
X6631491Y-15476008D01*
X6631491Y-15476008D02*
X6650539Y-15466484D01*
X6802920Y-15666484D02*
X6802920Y-15533150D01*
X6802920Y-15552198D02*
X6812443Y-15542674D01*
X6812443Y-15542674D02*
X6831491Y-15533150D01*
X6831491Y-15533150D02*
X6860063Y-15533150D01*
X6860063Y-15533150D02*
X6879110Y-15542674D01*
X6879110Y-15542674D02*
X6888634Y-15561722D01*
X6888634Y-15561722D02*
X6888634Y-15666484D01*
X6888634Y-15561722D02*
X6898158Y-15542674D01*
X6898158Y-15542674D02*
X6917205Y-15533150D01*
X6917205Y-15533150D02*
X6945777Y-15533150D01*
X6945777Y-15533150D02*
X6964824Y-15542674D01*
X6964824Y-15542674D02*
X6974348Y-15561722D01*
X6974348Y-15561722D02*
X6974348Y-15666484D01*
X7069586Y-15666484D02*
X7069586Y-15533150D01*
X7069586Y-15552198D02*
X7079110Y-15542674D01*
X7079110Y-15542674D02*
X7098158Y-15533150D01*
X7098158Y-15533150D02*
X7126729Y-15533150D01*
X7126729Y-15533150D02*
X7145777Y-15542674D01*
X7145777Y-15542674D02*
X7155301Y-15561722D01*
X7155301Y-15561722D02*
X7155301Y-15666484D01*
X7155301Y-15561722D02*
X7164824Y-15542674D01*
X7164824Y-15542674D02*
X7183872Y-15533150D01*
X7183872Y-15533150D02*
X7212443Y-15533150D01*
X7212443Y-15533150D02*
X7231491Y-15542674D01*
X7231491Y-15542674D02*
X7241015Y-15561722D01*
X7241015Y-15561722D02*
X7241015Y-15666484D01*
X7631491Y-15456960D02*
X7460063Y-15714103D01*
X7888634Y-15466484D02*
X7907682Y-15466484D01*
X7907682Y-15466484D02*
X7926729Y-15476008D01*
X7926729Y-15476008D02*
X7936253Y-15485531D01*
X7936253Y-15485531D02*
X7945777Y-15504579D01*
X7945777Y-15504579D02*
X7955301Y-15542674D01*
X7955301Y-15542674D02*
X7955301Y-15590293D01*
X7955301Y-15590293D02*
X7945777Y-15628388D01*
X7945777Y-15628388D02*
X7936253Y-15647436D01*
X7936253Y-15647436D02*
X7926729Y-15656960D01*
X7926729Y-15656960D02*
X7907682Y-15666484D01*
X7907682Y-15666484D02*
X7888634Y-15666484D01*
X7888634Y-15666484D02*
X7869586Y-15656960D01*
X7869586Y-15656960D02*
X7860063Y-15647436D01*
X7860063Y-15647436D02*
X7850539Y-15628388D01*
X7850539Y-15628388D02*
X7841015Y-15590293D01*
X7841015Y-15590293D02*
X7841015Y-15542674D01*
X7841015Y-15542674D02*
X7850539Y-15504579D01*
X7850539Y-15504579D02*
X7860063Y-15485531D01*
X7860063Y-15485531D02*
X7869586Y-15476008D01*
X7869586Y-15476008D02*
X7888634Y-15466484D01*
X8041015Y-15647436D02*
X8050539Y-15656960D01*
X8050539Y-15656960D02*
X8041015Y-15666484D01*
X8041015Y-15666484D02*
X8031491Y-15656960D01*
X8031491Y-15656960D02*
X8041015Y-15647436D01*
X8041015Y-15647436D02*
X8041015Y-15666484D01*
X8241015Y-15666484D02*
X8126729Y-15666484D01*
X8183872Y-15666484D02*
X8183872Y-15466484D01*
X8183872Y-15466484D02*
X8164825Y-15495055D01*
X8164825Y-15495055D02*
X8145777Y-15514103D01*
X8145777Y-15514103D02*
X8126729Y-15523627D01*
X8317206Y-15485531D02*
X8326729Y-15476008D01*
X8326729Y-15476008D02*
X8345777Y-15466484D01*
X8345777Y-15466484D02*
X8393396Y-15466484D01*
X8393396Y-15466484D02*
X8412444Y-15476008D01*
X8412444Y-15476008D02*
X8421968Y-15485531D01*
X8421968Y-15485531D02*
X8431491Y-15504579D01*
X8431491Y-15504579D02*
X8431491Y-15523627D01*
X8431491Y-15523627D02*
X8421968Y-15552198D01*
X8421968Y-15552198D02*
X8307682Y-15666484D01*
X8307682Y-15666484D02*
X8431491Y-15666484D01*
X8545777Y-15552198D02*
X8526729Y-15542674D01*
X8526729Y-15542674D02*
X8517206Y-15533150D01*
X8517206Y-15533150D02*
X8507682Y-15514103D01*
X8507682Y-15514103D02*
X8507682Y-15504579D01*
X8507682Y-15504579D02*
X8517206Y-15485531D01*
X8517206Y-15485531D02*
X8526729Y-15476008D01*
X8526729Y-15476008D02*
X8545777Y-15466484D01*
X8545777Y-15466484D02*
X8583872Y-15466484D01*
X8583872Y-15466484D02*
X8602920Y-15476008D01*
X8602920Y-15476008D02*
X8612444Y-15485531D01*
X8612444Y-15485531D02*
X8621968Y-15504579D01*
X8621968Y-15504579D02*
X8621968Y-15514103D01*
X8621968Y-15514103D02*
X8612444Y-15533150D01*
X8612444Y-15533150D02*
X8602920Y-15542674D01*
X8602920Y-15542674D02*
X8583872Y-15552198D01*
X8583872Y-15552198D02*
X8545777Y-15552198D01*
X8545777Y-15552198D02*
X8526729Y-15561722D01*
X8526729Y-15561722D02*
X8517206Y-15571246D01*
X8517206Y-15571246D02*
X8507682Y-15590293D01*
X8507682Y-15590293D02*
X8507682Y-15628388D01*
X8507682Y-15628388D02*
X8517206Y-15647436D01*
X8517206Y-15647436D02*
X8526729Y-15656960D01*
X8526729Y-15656960D02*
X8545777Y-15666484D01*
X8545777Y-15666484D02*
X8583872Y-15666484D01*
X8583872Y-15666484D02*
X8602920Y-15656960D01*
X8602920Y-15656960D02*
X8612444Y-15647436D01*
X8612444Y-15647436D02*
X8621968Y-15628388D01*
X8621968Y-15628388D02*
X8621968Y-15590293D01*
X8621968Y-15590293D02*
X8612444Y-15571246D01*
X8612444Y-15571246D02*
X8602920Y-15561722D01*
X8602920Y-15561722D02*
X8583872Y-15552198D01*
X8745777Y-15466484D02*
X8764825Y-15466484D01*
X8764825Y-15466484D02*
X8783872Y-15476008D01*
X8783872Y-15476008D02*
X8793396Y-15485531D01*
X8793396Y-15485531D02*
X8802920Y-15504579D01*
X8802920Y-15504579D02*
X8812444Y-15542674D01*
X8812444Y-15542674D02*
X8812444Y-15590293D01*
X8812444Y-15590293D02*
X8802920Y-15628388D01*
X8802920Y-15628388D02*
X8793396Y-15647436D01*
X8793396Y-15647436D02*
X8783872Y-15656960D01*
X8783872Y-15656960D02*
X8764825Y-15666484D01*
X8764825Y-15666484D02*
X8745777Y-15666484D01*
X8745777Y-15666484D02*
X8726729Y-15656960D01*
X8726729Y-15656960D02*
X8717206Y-15647436D01*
X8717206Y-15647436D02*
X8707682Y-15628388D01*
X8707682Y-15628388D02*
X8698158Y-15590293D01*
X8698158Y-15590293D02*
X8698158Y-15542674D01*
X8698158Y-15542674D02*
X8707682Y-15504579D01*
X8707682Y-15504579D02*
X8717206Y-15485531D01*
X8717206Y-15485531D02*
X8726729Y-15476008D01*
X8726729Y-15476008D02*
X8745777Y-15466484D01*
X8888634Y-15466484D02*
X8888634Y-15504579D01*
X8964825Y-15466484D02*
X8964825Y-15504579D01*
X9260063Y-15742674D02*
X9250539Y-15733150D01*
X9250539Y-15733150D02*
X9231491Y-15704579D01*
X9231491Y-15704579D02*
X9221968Y-15685531D01*
X9221968Y-15685531D02*
X9212444Y-15656960D01*
X9212444Y-15656960D02*
X9202920Y-15609341D01*
X9202920Y-15609341D02*
X9202920Y-15571246D01*
X9202920Y-15571246D02*
X9212444Y-15523627D01*
X9212444Y-15523627D02*
X9221968Y-15495055D01*
X9221968Y-15495055D02*
X9231491Y-15476008D01*
X9231491Y-15476008D02*
X9250539Y-15447436D01*
X9250539Y-15447436D02*
X9260063Y-15437912D01*
X9326730Y-15485531D02*
X9336253Y-15476008D01*
X9336253Y-15476008D02*
X9355301Y-15466484D01*
X9355301Y-15466484D02*
X9402920Y-15466484D01*
X9402920Y-15466484D02*
X9421968Y-15476008D01*
X9421968Y-15476008D02*
X9431491Y-15485531D01*
X9431491Y-15485531D02*
X9441015Y-15504579D01*
X9441015Y-15504579D02*
X9441015Y-15523627D01*
X9441015Y-15523627D02*
X9431491Y-15552198D01*
X9431491Y-15552198D02*
X9317206Y-15666484D01*
X9317206Y-15666484D02*
X9441015Y-15666484D01*
X9679111Y-15666484D02*
X9679111Y-15466484D01*
X9764825Y-15666484D02*
X9764825Y-15561722D01*
X9764825Y-15561722D02*
X9755301Y-15542674D01*
X9755301Y-15542674D02*
X9736253Y-15533150D01*
X9736253Y-15533150D02*
X9707682Y-15533150D01*
X9707682Y-15533150D02*
X9688634Y-15542674D01*
X9688634Y-15542674D02*
X9679111Y-15552198D01*
X9888634Y-15666484D02*
X9869587Y-15656960D01*
X9869587Y-15656960D02*
X9860063Y-15647436D01*
X9860063Y-15647436D02*
X9850539Y-15628388D01*
X9850539Y-15628388D02*
X9850539Y-15571246D01*
X9850539Y-15571246D02*
X9860063Y-15552198D01*
X9860063Y-15552198D02*
X9869587Y-15542674D01*
X9869587Y-15542674D02*
X9888634Y-15533150D01*
X9888634Y-15533150D02*
X9917206Y-15533150D01*
X9917206Y-15533150D02*
X9936253Y-15542674D01*
X9936253Y-15542674D02*
X9945777Y-15552198D01*
X9945777Y-15552198D02*
X9955301Y-15571246D01*
X9955301Y-15571246D02*
X9955301Y-15628388D01*
X9955301Y-15628388D02*
X9945777Y-15647436D01*
X9945777Y-15647436D02*
X9936253Y-15656960D01*
X9936253Y-15656960D02*
X9917206Y-15666484D01*
X9917206Y-15666484D02*
X9888634Y-15666484D01*
X10069587Y-15666484D02*
X10050539Y-15656960D01*
X10050539Y-15656960D02*
X10041015Y-15637912D01*
X10041015Y-15637912D02*
X10041015Y-15466484D01*
X10221968Y-15656960D02*
X10202920Y-15666484D01*
X10202920Y-15666484D02*
X10164825Y-15666484D01*
X10164825Y-15666484D02*
X10145777Y-15656960D01*
X10145777Y-15656960D02*
X10136253Y-15637912D01*
X10136253Y-15637912D02*
X10136253Y-15561722D01*
X10136253Y-15561722D02*
X10145777Y-15542674D01*
X10145777Y-15542674D02*
X10164825Y-15533150D01*
X10164825Y-15533150D02*
X10202920Y-15533150D01*
X10202920Y-15533150D02*
X10221968Y-15542674D01*
X10221968Y-15542674D02*
X10231492Y-15561722D01*
X10231492Y-15561722D02*
X10231492Y-15580769D01*
X10231492Y-15580769D02*
X10136253Y-15599817D01*
X10307682Y-15656960D02*
X10326730Y-15666484D01*
X10326730Y-15666484D02*
X10364825Y-15666484D01*
X10364825Y-15666484D02*
X10383873Y-15656960D01*
X10383873Y-15656960D02*
X10393396Y-15637912D01*
X10393396Y-15637912D02*
X10393396Y-15628388D01*
X10393396Y-15628388D02*
X10383873Y-15609341D01*
X10383873Y-15609341D02*
X10364825Y-15599817D01*
X10364825Y-15599817D02*
X10336253Y-15599817D01*
X10336253Y-15599817D02*
X10317206Y-15590293D01*
X10317206Y-15590293D02*
X10307682Y-15571246D01*
X10307682Y-15571246D02*
X10307682Y-15561722D01*
X10307682Y-15561722D02*
X10317206Y-15542674D01*
X10317206Y-15542674D02*
X10336253Y-15533150D01*
X10336253Y-15533150D02*
X10364825Y-15533150D01*
X10364825Y-15533150D02*
X10383873Y-15542674D01*
X10460063Y-15742674D02*
X10469587Y-15733150D01*
X10469587Y-15733150D02*
X10488634Y-15704579D01*
X10488634Y-15704579D02*
X10498158Y-15685531D01*
X10498158Y-15685531D02*
X10507682Y-15656960D01*
X10507682Y-15656960D02*
X10517206Y-15609341D01*
X10517206Y-15609341D02*
X10517206Y-15571246D01*
X10517206Y-15571246D02*
X10507682Y-15523627D01*
X10507682Y-15523627D02*
X10498158Y-15495055D01*
X10498158Y-15495055D02*
X10488634Y-15476008D01*
X10488634Y-15476008D02*
X10469587Y-15447436D01*
X10469587Y-15447436D02*
X10460063Y-15437912D01*
X10821968Y-15742674D02*
X10812444Y-15733150D01*
X10812444Y-15733150D02*
X10793396Y-15704579D01*
X10793396Y-15704579D02*
X10783873Y-15685531D01*
X10783873Y-15685531D02*
X10774349Y-15656960D01*
X10774349Y-15656960D02*
X10764825Y-15609341D01*
X10764825Y-15609341D02*
X10764825Y-15571246D01*
X10764825Y-15571246D02*
X10774349Y-15523627D01*
X10774349Y-15523627D02*
X10783873Y-15495055D01*
X10783873Y-15495055D02*
X10793396Y-15476008D01*
X10793396Y-15476008D02*
X10812444Y-15447436D01*
X10812444Y-15447436D02*
X10821968Y-15437912D01*
X10898158Y-15533150D02*
X10898158Y-15666484D01*
X10898158Y-15552198D02*
X10907682Y-15542674D01*
X10907682Y-15542674D02*
X10926730Y-15533150D01*
X10926730Y-15533150D02*
X10955301Y-15533150D01*
X10955301Y-15533150D02*
X10974349Y-15542674D01*
X10974349Y-15542674D02*
X10983873Y-15561722D01*
X10983873Y-15561722D02*
X10983873Y-15666484D01*
X11107682Y-15666484D02*
X11088634Y-15656960D01*
X11088634Y-15656960D02*
X11079111Y-15647436D01*
X11079111Y-15647436D02*
X11069587Y-15628388D01*
X11069587Y-15628388D02*
X11069587Y-15571246D01*
X11069587Y-15571246D02*
X11079111Y-15552198D01*
X11079111Y-15552198D02*
X11088634Y-15542674D01*
X11088634Y-15542674D02*
X11107682Y-15533150D01*
X11107682Y-15533150D02*
X11136254Y-15533150D01*
X11136254Y-15533150D02*
X11155301Y-15542674D01*
X11155301Y-15542674D02*
X11164825Y-15552198D01*
X11164825Y-15552198D02*
X11174349Y-15571246D01*
X11174349Y-15571246D02*
X11174349Y-15628388D01*
X11174349Y-15628388D02*
X11164825Y-15647436D01*
X11164825Y-15647436D02*
X11155301Y-15656960D01*
X11155301Y-15656960D02*
X11136254Y-15666484D01*
X11136254Y-15666484D02*
X11107682Y-15666484D01*
X11231492Y-15533150D02*
X11307682Y-15533150D01*
X11260063Y-15466484D02*
X11260063Y-15637912D01*
X11260063Y-15637912D02*
X11269587Y-15656960D01*
X11269587Y-15656960D02*
X11288634Y-15666484D01*
X11288634Y-15666484D02*
X11307682Y-15666484D01*
X11526730Y-15533150D02*
X11526730Y-15733150D01*
X11526730Y-15542674D02*
X11545777Y-15533150D01*
X11545777Y-15533150D02*
X11583873Y-15533150D01*
X11583873Y-15533150D02*
X11602920Y-15542674D01*
X11602920Y-15542674D02*
X11612444Y-15552198D01*
X11612444Y-15552198D02*
X11621968Y-15571246D01*
X11621968Y-15571246D02*
X11621968Y-15628388D01*
X11621968Y-15628388D02*
X11612444Y-15647436D01*
X11612444Y-15647436D02*
X11602920Y-15656960D01*
X11602920Y-15656960D02*
X11583873Y-15666484D01*
X11583873Y-15666484D02*
X11545777Y-15666484D01*
X11545777Y-15666484D02*
X11526730Y-15656960D01*
X11736253Y-15666484D02*
X11717206Y-15656960D01*
X11717206Y-15656960D02*
X11707682Y-15637912D01*
X11707682Y-15637912D02*
X11707682Y-15466484D01*
X11898158Y-15666484D02*
X11898158Y-15561722D01*
X11898158Y-15561722D02*
X11888634Y-15542674D01*
X11888634Y-15542674D02*
X11869587Y-15533150D01*
X11869587Y-15533150D02*
X11831492Y-15533150D01*
X11831492Y-15533150D02*
X11812444Y-15542674D01*
X11898158Y-15656960D02*
X11879111Y-15666484D01*
X11879111Y-15666484D02*
X11831492Y-15666484D01*
X11831492Y-15666484D02*
X11812444Y-15656960D01*
X11812444Y-15656960D02*
X11802920Y-15637912D01*
X11802920Y-15637912D02*
X11802920Y-15618865D01*
X11802920Y-15618865D02*
X11812444Y-15599817D01*
X11812444Y-15599817D02*
X11831492Y-15590293D01*
X11831492Y-15590293D02*
X11879111Y-15590293D01*
X11879111Y-15590293D02*
X11898158Y-15580769D01*
X11964825Y-15533150D02*
X12041015Y-15533150D01*
X11993396Y-15466484D02*
X11993396Y-15637912D01*
X11993396Y-15637912D02*
X12002920Y-15656960D01*
X12002920Y-15656960D02*
X12021968Y-15666484D01*
X12021968Y-15666484D02*
X12041015Y-15666484D01*
X12183873Y-15656960D02*
X12164825Y-15666484D01*
X12164825Y-15666484D02*
X12126730Y-15666484D01*
X12126730Y-15666484D02*
X12107682Y-15656960D01*
X12107682Y-15656960D02*
X12098158Y-15637912D01*
X12098158Y-15637912D02*
X12098158Y-15561722D01*
X12098158Y-15561722D02*
X12107682Y-15542674D01*
X12107682Y-15542674D02*
X12126730Y-15533150D01*
X12126730Y-15533150D02*
X12164825Y-15533150D01*
X12164825Y-15533150D02*
X12183873Y-15542674D01*
X12183873Y-15542674D02*
X12193396Y-15561722D01*
X12193396Y-15561722D02*
X12193396Y-15580769D01*
X12193396Y-15580769D02*
X12098158Y-15599817D01*
X12364825Y-15666484D02*
X12364825Y-15466484D01*
X12364825Y-15656960D02*
X12345777Y-15666484D01*
X12345777Y-15666484D02*
X12307682Y-15666484D01*
X12307682Y-15666484D02*
X12288634Y-15656960D01*
X12288634Y-15656960D02*
X12279111Y-15647436D01*
X12279111Y-15647436D02*
X12269587Y-15628388D01*
X12269587Y-15628388D02*
X12269587Y-15571246D01*
X12269587Y-15571246D02*
X12279111Y-15552198D01*
X12279111Y-15552198D02*
X12288634Y-15542674D01*
X12288634Y-15542674D02*
X12307682Y-15533150D01*
X12307682Y-15533150D02*
X12345777Y-15533150D01*
X12345777Y-15533150D02*
X12364825Y-15542674D01*
X12441015Y-15742674D02*
X12450539Y-15733150D01*
X12450539Y-15733150D02*
X12469587Y-15704579D01*
X12469587Y-15704579D02*
X12479111Y-15685531D01*
X12479111Y-15685531D02*
X12488634Y-15656960D01*
X12488634Y-15656960D02*
X12498158Y-15609341D01*
X12498158Y-15609341D02*
X12498158Y-15571246D01*
X12498158Y-15571246D02*
X12488634Y-15523627D01*
X12488634Y-15523627D02*
X12479111Y-15495055D01*
X12479111Y-15495055D02*
X12469587Y-15476008D01*
X12469587Y-15476008D02*
X12450539Y-15447436D01*
X12450539Y-15447436D02*
X12441015Y-15437912D01*
M02*
