%TF.GenerationSoftware,KiCad,Pcbnew,9.0.5*%
%TF.CreationDate,2025-10-15T01:52:37-07:00*%
%TF.ProjectId,CAN_Sniffer_1.0,43414e5f-536e-4696-9666-65725f312e30,rev?*%
%TF.SameCoordinates,Original*%
%TF.FileFunction,Drillmap*%
%TF.FilePolarity,Positive*%
%FSLAX45Y45*%
G04 Gerber Fmt 4.5, Leading zero omitted, Abs format (unit mm)*
G04 Created by KiCad (PCBNEW 9.0.5) date 2025-10-15 01:52:37*
%MOMM*%
%LPD*%
G01*
G04 APERTURE LIST*
%ADD10C,0.050000*%
%ADD11C,0.200000*%
%ADD12C,0.100000*%
%ADD13C,0.101600*%
%ADD14C,0.154000*%
%ADD15C,0.157000*%
G04 APERTURE END LIST*
D10*
X16687500Y-14532500D02*
G75*
G02*
X16607500Y-14612500I-80000J0D01*
G01*
X16607500Y-14612500D02*
X5767500Y-14612500D01*
X5687500Y-5692500D02*
G75*
G02*
X5767500Y-5612500I80000J0D01*
G01*
X16607500Y-5612500D02*
G75*
G02*
X16687500Y-5692500I0J-80000D01*
G01*
X16687500Y-5692500D02*
X16687500Y-14532500D01*
X5767500Y-5612500D02*
X16607500Y-5612500D01*
X5767500Y-14612500D02*
G75*
G02*
X5687500Y-14532500I0J80000D01*
G01*
X5687500Y-14532500D02*
X5687500Y-5692500D01*
D11*
D12*
X5875000Y-7825000D02*
X5905000Y-7855000D01*
X5905000Y-7825000D02*
X5875000Y-7855000D01*
X5875000Y-7915000D02*
X5905000Y-7945000D01*
X5905000Y-7915000D02*
X5875000Y-7945000D01*
X5915000Y-11535000D02*
X5945000Y-11565000D01*
X5945000Y-11535000D02*
X5915000Y-11565000D01*
X5915000Y-12025000D02*
X5945000Y-12055000D01*
X5945000Y-12025000D02*
X5915000Y-12055000D01*
X5915000Y-13225000D02*
X5945000Y-13255000D01*
X5945000Y-13225000D02*
X5915000Y-13255000D01*
X5925000Y-12475000D02*
X5955000Y-12505000D01*
X5955000Y-12475000D02*
X5925000Y-12505000D01*
X5925000Y-12835000D02*
X5955000Y-12865000D01*
X5955000Y-12835000D02*
X5925000Y-12865000D01*
X5935000Y-14335000D02*
X5965000Y-14365000D01*
X5965000Y-14335000D02*
X5935000Y-14365000D01*
X5945000Y-6605000D02*
X5975000Y-6635000D01*
X5975000Y-6605000D02*
X5945000Y-6635000D01*
X5945000Y-6685000D02*
X5975000Y-6715000D01*
X5975000Y-6685000D02*
X5945000Y-6715000D01*
X5995000Y-7775000D02*
X6025000Y-7805000D01*
X6025000Y-7775000D02*
X5995000Y-7805000D01*
X5995000Y-7855000D02*
X6025000Y-7885000D01*
X6025000Y-7855000D02*
X5995000Y-7885000D01*
X5995000Y-7925000D02*
X6025000Y-7955000D01*
X6025000Y-7925000D02*
X5995000Y-7955000D01*
X6015000Y-6565000D02*
X6045000Y-6595000D01*
X6045000Y-6565000D02*
X6015000Y-6595000D01*
X6015000Y-6645000D02*
X6045000Y-6675000D01*
X6045000Y-6645000D02*
X6015000Y-6675000D01*
X6015000Y-6725000D02*
X6045000Y-6755000D01*
X6045000Y-6725000D02*
X6015000Y-6755000D01*
X6185000Y-6785000D02*
X6215000Y-6815000D01*
X6215000Y-6785000D02*
X6185000Y-6815000D01*
X6235000Y-6855000D02*
X6265000Y-6885000D01*
X6265000Y-6855000D02*
X6235000Y-6885000D01*
X6265000Y-6785000D02*
X6295000Y-6815000D01*
X6295000Y-6785000D02*
X6265000Y-6815000D01*
X6265000Y-14345000D02*
X6295000Y-14375000D01*
X6295000Y-14345000D02*
X6265000Y-14375000D01*
X6305000Y-6855000D02*
X6335000Y-6885000D01*
X6335000Y-6855000D02*
X6305000Y-6885000D01*
X6327000Y-10817500D02*
X6357000Y-10847500D01*
X6357000Y-10817500D02*
X6327000Y-10847500D01*
X6327000Y-10897500D02*
X6357000Y-10927500D01*
X6357000Y-10897500D02*
X6327000Y-10927500D01*
X6335000Y-10235000D02*
X6365000Y-10265000D01*
X6365000Y-10235000D02*
X6335000Y-10265000D01*
X6335000Y-10305000D02*
X6365000Y-10335000D01*
X6365000Y-10305000D02*
X6335000Y-10335000D01*
X6335000Y-10385000D02*
X6365000Y-10415000D01*
X6365000Y-10385000D02*
X6335000Y-10415000D01*
X6335000Y-10465000D02*
X6365000Y-10495000D01*
X6365000Y-10465000D02*
X6335000Y-10495000D01*
X6345000Y-6785000D02*
X6375000Y-6815000D01*
X6375000Y-6785000D02*
X6345000Y-6815000D01*
X6385000Y-8265000D02*
X6415000Y-8295000D01*
X6415000Y-8265000D02*
X6385000Y-8295000D01*
X6405000Y-10275000D02*
X6435000Y-10305000D01*
X6435000Y-10275000D02*
X6405000Y-10305000D01*
X6405000Y-10355000D02*
X6435000Y-10385000D01*
X6435000Y-10355000D02*
X6405000Y-10385000D01*
X6405000Y-10435000D02*
X6435000Y-10465000D01*
X6435000Y-10435000D02*
X6405000Y-10465000D01*
X6407000Y-10817500D02*
X6437000Y-10847500D01*
X6437000Y-10817500D02*
X6407000Y-10847500D01*
X6407000Y-10897500D02*
X6437000Y-10927500D01*
X6437000Y-10897500D02*
X6407000Y-10927500D01*
X6455000Y-8235000D02*
X6485000Y-8265000D01*
X6485000Y-8235000D02*
X6455000Y-8265000D01*
X6455000Y-8305000D02*
X6485000Y-8335000D01*
X6485000Y-8305000D02*
X6455000Y-8335000D01*
X6455000Y-13405000D02*
X6485000Y-13435000D01*
X6485000Y-13405000D02*
X6455000Y-13435000D01*
X6455000Y-13475000D02*
X6485000Y-13505000D01*
X6485000Y-13475000D02*
X6455000Y-13505000D01*
X6455000Y-13545000D02*
X6485000Y-13575000D01*
X6485000Y-13545000D02*
X6455000Y-13575000D01*
X6487000Y-10817500D02*
X6517000Y-10847500D01*
X6517000Y-10817500D02*
X6487000Y-10847500D01*
X6487000Y-10897500D02*
X6517000Y-10927500D01*
X6517000Y-10897500D02*
X6487000Y-10927500D01*
X6525000Y-13405000D02*
X6555000Y-13435000D01*
X6555000Y-13405000D02*
X6525000Y-13435000D01*
X6525000Y-13475000D02*
X6555000Y-13505000D01*
X6555000Y-13475000D02*
X6525000Y-13505000D01*
X6525000Y-13545000D02*
X6555000Y-13575000D01*
X6555000Y-13545000D02*
X6525000Y-13575000D01*
X6555000Y-8115000D02*
X6585000Y-8145000D01*
X6585000Y-8115000D02*
X6555000Y-8145000D01*
X6595000Y-13915000D02*
X6625000Y-13945000D01*
X6625000Y-13915000D02*
X6595000Y-13945000D01*
X6605000Y-13405000D02*
X6635000Y-13435000D01*
X6635000Y-13405000D02*
X6605000Y-13435000D01*
X6605000Y-13475000D02*
X6635000Y-13505000D01*
X6635000Y-13475000D02*
X6605000Y-13505000D01*
X6605000Y-13545000D02*
X6635000Y-13575000D01*
X6635000Y-13545000D02*
X6605000Y-13575000D01*
X6605000Y-14355000D02*
X6635000Y-14385000D01*
X6635000Y-14355000D02*
X6605000Y-14385000D01*
X6625000Y-13995000D02*
X6655000Y-14025000D01*
X6655000Y-13995000D02*
X6625000Y-14025000D01*
X6675000Y-13405000D02*
X6705000Y-13435000D01*
X6705000Y-13405000D02*
X6675000Y-13435000D01*
X6675000Y-13475000D02*
X6705000Y-13505000D01*
X6705000Y-13475000D02*
X6675000Y-13505000D01*
X6675000Y-13545000D02*
X6705000Y-13575000D01*
X6705000Y-13545000D02*
X6675000Y-13575000D01*
X6675000Y-13915000D02*
X6705000Y-13945000D01*
X6705000Y-13915000D02*
X6675000Y-13945000D01*
X6715000Y-13995000D02*
X6745000Y-14025000D01*
X6745000Y-13995000D02*
X6715000Y-14025000D01*
X6755000Y-9765000D02*
X6785000Y-9795000D01*
X6785000Y-9765000D02*
X6755000Y-9795000D01*
X6755000Y-13915000D02*
X6785000Y-13945000D01*
X6785000Y-13915000D02*
X6755000Y-13945000D01*
X6805000Y-9685000D02*
X6835000Y-9715000D01*
X6835000Y-9685000D02*
X6805000Y-9715000D01*
X6805000Y-10765000D02*
X6835000Y-10795000D01*
X6835000Y-10765000D02*
X6805000Y-10795000D01*
X6812500Y-12915000D02*
X6842500Y-12945000D01*
X6842500Y-12915000D02*
X6812500Y-12945000D01*
X6845000Y-8255000D02*
X6875000Y-8285000D01*
X6875000Y-8255000D02*
X6845000Y-8285000D01*
X6855000Y-9765000D02*
X6885000Y-9795000D01*
X6885000Y-9765000D02*
X6855000Y-9795000D01*
X6857000Y-11417500D02*
X6887000Y-11447500D01*
X6887000Y-11417500D02*
X6857000Y-11447500D01*
X6875000Y-12295000D02*
X6905000Y-12325000D01*
X6905000Y-12295000D02*
X6875000Y-12325000D01*
X6895000Y-9685000D02*
X6925000Y-9715000D01*
X6925000Y-9685000D02*
X6895000Y-9715000D01*
X6915000Y-8155000D02*
X6945000Y-8185000D01*
X6945000Y-8155000D02*
X6915000Y-8185000D01*
X6915000Y-8235000D02*
X6945000Y-8265000D01*
X6945000Y-8235000D02*
X6915000Y-8265000D01*
X6915000Y-8305000D02*
X6945000Y-8335000D01*
X6945000Y-8305000D02*
X6915000Y-8335000D01*
X6945000Y-12295000D02*
X6975000Y-12325000D01*
X6975000Y-12295000D02*
X6945000Y-12325000D01*
X6955000Y-9765000D02*
X6985000Y-9795000D01*
X6985000Y-9765000D02*
X6955000Y-9795000D01*
X6955000Y-13315000D02*
X6985000Y-13345000D01*
X6985000Y-13315000D02*
X6955000Y-13345000D01*
X6995000Y-8075000D02*
X7025000Y-8105000D01*
X7025000Y-8075000D02*
X6995000Y-8105000D01*
X6995000Y-8155000D02*
X7025000Y-8185000D01*
X7025000Y-8155000D02*
X6995000Y-8185000D01*
X6995000Y-8235000D02*
X7025000Y-8265000D01*
X7025000Y-8235000D02*
X6995000Y-8265000D01*
X6995000Y-8305000D02*
X7025000Y-8335000D01*
X7025000Y-8305000D02*
X6995000Y-8335000D01*
X6995000Y-13385000D02*
X7025000Y-13415000D01*
X7025000Y-13385000D02*
X6995000Y-13415000D01*
X7015000Y-12115000D02*
X7045000Y-12145000D01*
X7045000Y-12115000D02*
X7015000Y-12145000D01*
X7015000Y-12195000D02*
X7045000Y-12225000D01*
X7045000Y-12195000D02*
X7015000Y-12225000D01*
X7015000Y-12295000D02*
X7045000Y-12325000D01*
X7045000Y-12295000D02*
X7015000Y-12325000D01*
X7035000Y-13315000D02*
X7065000Y-13345000D01*
X7065000Y-13315000D02*
X7035000Y-13345000D01*
X7055000Y-13805000D02*
X7085000Y-13835000D01*
X7085000Y-13805000D02*
X7055000Y-13835000D01*
X7075000Y-13385000D02*
X7105000Y-13415000D01*
X7105000Y-13385000D02*
X7075000Y-13415000D01*
X7115000Y-5905000D02*
X7145000Y-5935000D01*
X7145000Y-5905000D02*
X7115000Y-5935000D01*
X7115000Y-13825000D02*
X7145000Y-13855000D01*
X7145000Y-13825000D02*
X7115000Y-13855000D01*
X7125000Y-13315000D02*
X7155000Y-13345000D01*
X7155000Y-13315000D02*
X7125000Y-13345000D01*
X7155000Y-9985000D02*
X7185000Y-10015000D01*
X7185000Y-9985000D02*
X7155000Y-10015000D01*
X7155000Y-10065000D02*
X7185000Y-10095000D01*
X7185000Y-10065000D02*
X7155000Y-10095000D01*
X7155000Y-10145000D02*
X7185000Y-10175000D01*
X7185000Y-10145000D02*
X7155000Y-10175000D01*
X7155000Y-10225000D02*
X7185000Y-10255000D01*
X7185000Y-10225000D02*
X7155000Y-10255000D01*
X7155000Y-11085000D02*
X7185000Y-11115000D01*
X7185000Y-11085000D02*
X7155000Y-11115000D01*
X7165000Y-12345000D02*
X7195000Y-12375000D01*
X7195000Y-12345000D02*
X7165000Y-12375000D01*
X7175000Y-10765000D02*
X7205000Y-10795000D01*
X7205000Y-10765000D02*
X7175000Y-10795000D01*
X7215000Y-11935000D02*
X7245000Y-11965000D01*
X7245000Y-11935000D02*
X7215000Y-11965000D01*
X7215000Y-12015000D02*
X7245000Y-12045000D01*
X7245000Y-12015000D02*
X7215000Y-12045000D01*
X7245000Y-10025000D02*
X7275000Y-10055000D01*
X7275000Y-10025000D02*
X7245000Y-10055000D01*
X7245000Y-10105000D02*
X7275000Y-10135000D01*
X7275000Y-10105000D02*
X7245000Y-10135000D01*
X7245000Y-10185000D02*
X7275000Y-10215000D01*
X7275000Y-10185000D02*
X7245000Y-10215000D01*
X7295000Y-11905000D02*
X7325000Y-11935000D01*
X7325000Y-11905000D02*
X7295000Y-11935000D01*
X7295000Y-11975000D02*
X7325000Y-12005000D01*
X7325000Y-11975000D02*
X7295000Y-12005000D01*
X7295000Y-12045000D02*
X7325000Y-12075000D01*
X7325000Y-12045000D02*
X7295000Y-12075000D01*
X7305000Y-6775000D02*
X7335000Y-6805000D01*
X7335000Y-6775000D02*
X7305000Y-6805000D01*
X7325000Y-9245000D02*
X7355000Y-9275000D01*
X7355000Y-9245000D02*
X7325000Y-9275000D01*
X7415000Y-13085000D02*
X7445000Y-13115000D01*
X7445000Y-13085000D02*
X7415000Y-13115000D01*
X7415000Y-13155000D02*
X7445000Y-13185000D01*
X7445000Y-13155000D02*
X7415000Y-13185000D01*
X7415000Y-13225000D02*
X7445000Y-13255000D01*
X7445000Y-13225000D02*
X7415000Y-13255000D01*
X7415000Y-13295000D02*
X7445000Y-13325000D01*
X7445000Y-13295000D02*
X7415000Y-13325000D01*
X7475000Y-13125000D02*
X7505000Y-13155000D01*
X7505000Y-13125000D02*
X7475000Y-13155000D01*
X7475000Y-13195000D02*
X7505000Y-13225000D01*
X7505000Y-13195000D02*
X7475000Y-13225000D01*
X7475000Y-13265000D02*
X7505000Y-13295000D01*
X7505000Y-13265000D02*
X7475000Y-13295000D01*
X7545000Y-10765000D02*
X7575000Y-10795000D01*
X7575000Y-10765000D02*
X7545000Y-10795000D01*
X7595000Y-9545000D02*
X7625000Y-9575000D01*
X7625000Y-9545000D02*
X7595000Y-9575000D01*
X7695000Y-12196200D02*
X7725000Y-12226200D01*
X7725000Y-12196200D02*
X7695000Y-12226200D01*
X7745000Y-14075000D02*
X7775000Y-14105000D01*
X7775000Y-14075000D02*
X7745000Y-14105000D01*
X7745000Y-14155000D02*
X7775000Y-14185000D01*
X7775000Y-14155000D02*
X7745000Y-14185000D01*
X7755000Y-10115000D02*
X7785000Y-10145000D01*
X7785000Y-10115000D02*
X7755000Y-10145000D01*
X7785000Y-5895000D02*
X7815000Y-5925000D01*
X7815000Y-5895000D02*
X7785000Y-5925000D01*
X7785000Y-6775000D02*
X7815000Y-6805000D01*
X7815000Y-6775000D02*
X7785000Y-6805000D01*
X7835000Y-14075000D02*
X7865000Y-14105000D01*
X7865000Y-14075000D02*
X7835000Y-14105000D01*
X7835000Y-14155000D02*
X7865000Y-14185000D01*
X7865000Y-14155000D02*
X7835000Y-14185000D01*
X7845000Y-12735000D02*
X7875000Y-12765000D01*
X7875000Y-12735000D02*
X7845000Y-12765000D01*
X7845000Y-12815000D02*
X7875000Y-12845000D01*
X7875000Y-12815000D02*
X7845000Y-12845000D01*
X7895000Y-9245000D02*
X7925000Y-9275000D01*
X7925000Y-9245000D02*
X7895000Y-9275000D01*
X7915000Y-14075000D02*
X7945000Y-14105000D01*
X7945000Y-14075000D02*
X7915000Y-14105000D01*
X7915000Y-14155000D02*
X7945000Y-14185000D01*
X7945000Y-14155000D02*
X7915000Y-14185000D01*
X7925000Y-12715000D02*
X7955000Y-12745000D01*
X7955000Y-12715000D02*
X7925000Y-12745000D01*
X7925000Y-12795000D02*
X7955000Y-12825000D01*
X7955000Y-12795000D02*
X7925000Y-12825000D01*
X7925000Y-12865000D02*
X7955000Y-12895000D01*
X7955000Y-12865000D02*
X7925000Y-12895000D01*
X7985000Y-12585000D02*
X8015000Y-12615000D01*
X8015000Y-12585000D02*
X7985000Y-12615000D01*
X7995000Y-14075000D02*
X8025000Y-14105000D01*
X8025000Y-14075000D02*
X7995000Y-14105000D01*
X7995000Y-14155000D02*
X8025000Y-14185000D01*
X8025000Y-14155000D02*
X7995000Y-14185000D01*
X8045000Y-13285000D02*
X8075000Y-13315000D01*
X8075000Y-13285000D02*
X8045000Y-13315000D01*
X8075000Y-13355000D02*
X8105000Y-13385000D01*
X8105000Y-13355000D02*
X8075000Y-13385000D01*
X8115000Y-9535000D02*
X8145000Y-9565000D01*
X8145000Y-9535000D02*
X8115000Y-9565000D01*
X8125000Y-13285000D02*
X8155000Y-13315000D01*
X8155000Y-13285000D02*
X8125000Y-13315000D01*
X8135000Y-7985000D02*
X8165000Y-8015000D01*
X8165000Y-7985000D02*
X8135000Y-8015000D01*
X8155000Y-12915000D02*
X8185000Y-12945000D01*
X8185000Y-12915000D02*
X8155000Y-12945000D01*
X8165000Y-13355000D02*
X8195000Y-13385000D01*
X8195000Y-13355000D02*
X8165000Y-13385000D01*
X8195000Y-12975000D02*
X8225000Y-13005000D01*
X8225000Y-12975000D02*
X8195000Y-13005000D01*
X8205000Y-13285000D02*
X8235000Y-13315000D01*
X8235000Y-13285000D02*
X8205000Y-13315000D01*
X8215000Y-6775000D02*
X8245000Y-6805000D01*
X8245000Y-6775000D02*
X8215000Y-6805000D01*
X8215000Y-11865000D02*
X8245000Y-11895000D01*
X8245000Y-11865000D02*
X8215000Y-11895000D01*
X8225000Y-12915000D02*
X8255000Y-12945000D01*
X8255000Y-12915000D02*
X8225000Y-12945000D01*
X8235000Y-12365000D02*
X8265000Y-12395000D01*
X8265000Y-12365000D02*
X8235000Y-12395000D01*
X8265000Y-12975000D02*
X8295000Y-13005000D01*
X8295000Y-12975000D02*
X8265000Y-13005000D01*
X8295000Y-11795000D02*
X8325000Y-11825000D01*
X8325000Y-11795000D02*
X8295000Y-11825000D01*
X8295000Y-11865000D02*
X8325000Y-11895000D01*
X8325000Y-11865000D02*
X8295000Y-11895000D01*
X8295000Y-11975000D02*
X8325000Y-12005000D01*
X8325000Y-11975000D02*
X8295000Y-12005000D01*
X8295000Y-12915000D02*
X8325000Y-12945000D01*
X8325000Y-12915000D02*
X8295000Y-12945000D01*
X8315000Y-12735000D02*
X8345000Y-12765000D01*
X8345000Y-12735000D02*
X8315000Y-12765000D01*
X8315000Y-12805000D02*
X8345000Y-12835000D01*
X8345000Y-12805000D02*
X8315000Y-12835000D01*
X8335000Y-12975000D02*
X8365000Y-13005000D01*
X8365000Y-12975000D02*
X8335000Y-13005000D01*
X8345000Y-8205000D02*
X8375000Y-8235000D01*
X8375000Y-8205000D02*
X8345000Y-8235000D01*
X8355000Y-9245000D02*
X8385000Y-9275000D01*
X8385000Y-9245000D02*
X8355000Y-9275000D01*
X8365000Y-12915000D02*
X8395000Y-12945000D01*
X8395000Y-12915000D02*
X8365000Y-12945000D01*
X8395000Y-10105000D02*
X8425000Y-10135000D01*
X8425000Y-10105000D02*
X8395000Y-10135000D01*
X8405000Y-5895000D02*
X8435000Y-5925000D01*
X8435000Y-5895000D02*
X8405000Y-5925000D01*
X8484393Y-12407426D02*
X8514393Y-12437426D01*
X8514393Y-12407426D02*
X8484393Y-12437426D01*
X8485000Y-7985000D02*
X8515000Y-8015000D01*
X8515000Y-7985000D02*
X8485000Y-8015000D01*
X8575000Y-9545000D02*
X8605000Y-9575000D01*
X8605000Y-9545000D02*
X8575000Y-9575000D01*
X8585000Y-6775000D02*
X8615000Y-6805000D01*
X8615000Y-6775000D02*
X8585000Y-6805000D01*
X8675000Y-11505000D02*
X8705000Y-11535000D01*
X8705000Y-11505000D02*
X8675000Y-11535000D01*
X8675000Y-11595000D02*
X8705000Y-11625000D01*
X8705000Y-11595000D02*
X8675000Y-11625000D01*
X8675000Y-11675000D02*
X8705000Y-11705000D01*
X8705000Y-11675000D02*
X8675000Y-11705000D01*
X8705000Y-12375000D02*
X8735000Y-12405000D01*
X8735000Y-12375000D02*
X8705000Y-12405000D01*
X8715000Y-8205000D02*
X8745000Y-8235000D01*
X8745000Y-8205000D02*
X8715000Y-8235000D01*
X8725000Y-9245000D02*
X8755000Y-9275000D01*
X8755000Y-9245000D02*
X8725000Y-9275000D01*
X8725000Y-13615000D02*
X8755000Y-13645000D01*
X8755000Y-13615000D02*
X8725000Y-13645000D01*
X8725000Y-13685000D02*
X8755000Y-13715000D01*
X8755000Y-13685000D02*
X8725000Y-13715000D01*
X8725000Y-13755000D02*
X8755000Y-13785000D01*
X8755000Y-13755000D02*
X8725000Y-13785000D01*
X8725000Y-13825000D02*
X8755000Y-13855000D01*
X8755000Y-13825000D02*
X8725000Y-13855000D01*
X8795000Y-12575000D02*
X8825000Y-12605000D01*
X8825000Y-12575000D02*
X8795000Y-12605000D01*
X8805000Y-13615000D02*
X8835000Y-13645000D01*
X8835000Y-13615000D02*
X8805000Y-13645000D01*
X8805000Y-13685000D02*
X8835000Y-13715000D01*
X8835000Y-13685000D02*
X8805000Y-13715000D01*
X8805000Y-13755000D02*
X8835000Y-13785000D01*
X8835000Y-13755000D02*
X8805000Y-13785000D01*
X8805000Y-13825000D02*
X8835000Y-13855000D01*
X8835000Y-13825000D02*
X8805000Y-13855000D01*
X8825000Y-13125000D02*
X8855000Y-13155000D01*
X8855000Y-13125000D02*
X8825000Y-13155000D01*
X8865000Y-7985000D02*
X8895000Y-8015000D01*
X8895000Y-7985000D02*
X8865000Y-8015000D01*
X8885000Y-13615000D02*
X8915000Y-13645000D01*
X8915000Y-13615000D02*
X8885000Y-13645000D01*
X8885000Y-13685000D02*
X8915000Y-13715000D01*
X8915000Y-13685000D02*
X8885000Y-13715000D01*
X8885000Y-13755000D02*
X8915000Y-13785000D01*
X8915000Y-13755000D02*
X8885000Y-13785000D01*
X8885000Y-13825000D02*
X8915000Y-13855000D01*
X8915000Y-13825000D02*
X8885000Y-13855000D01*
X8975000Y-6775000D02*
X9005000Y-6805000D01*
X9005000Y-6775000D02*
X8975000Y-6805000D01*
X9055000Y-5885000D02*
X9085000Y-5915000D01*
X9085000Y-5885000D02*
X9055000Y-5915000D01*
X9085000Y-8205000D02*
X9115000Y-8235000D01*
X9115000Y-8205000D02*
X9085000Y-8235000D01*
X9155000Y-11845000D02*
X9185000Y-11875000D01*
X9185000Y-11845000D02*
X9155000Y-11875000D01*
X9155000Y-11935000D02*
X9185000Y-11965000D01*
X9185000Y-11935000D02*
X9155000Y-11965000D01*
X9155000Y-12025000D02*
X9185000Y-12055000D01*
X9185000Y-12025000D02*
X9155000Y-12055000D01*
X9235000Y-11895000D02*
X9265000Y-11925000D01*
X9265000Y-11895000D02*
X9235000Y-11925000D01*
X9235000Y-11985000D02*
X9265000Y-12015000D01*
X9265000Y-11985000D02*
X9235000Y-12015000D01*
X9265000Y-7985000D02*
X9295000Y-8015000D01*
X9295000Y-7985000D02*
X9265000Y-8015000D01*
X9285000Y-14135000D02*
X9315000Y-14165000D01*
X9315000Y-14135000D02*
X9285000Y-14165000D01*
X9365000Y-10105000D02*
X9395000Y-10135000D01*
X9395000Y-10105000D02*
X9365000Y-10135000D01*
X9455000Y-8725000D02*
X9485000Y-8755000D01*
X9485000Y-8725000D02*
X9455000Y-8755000D01*
X9455000Y-8805000D02*
X9485000Y-8835000D01*
X9485000Y-8805000D02*
X9455000Y-8835000D01*
X9455000Y-8875000D02*
X9485000Y-8905000D01*
X9485000Y-8875000D02*
X9455000Y-8905000D01*
X9525000Y-8685000D02*
X9555000Y-8715000D01*
X9555000Y-8685000D02*
X9525000Y-8715000D01*
X9525000Y-8765000D02*
X9555000Y-8795000D01*
X9555000Y-8765000D02*
X9525000Y-8795000D01*
X9525000Y-8845000D02*
X9555000Y-8875000D01*
X9555000Y-8845000D02*
X9525000Y-8875000D01*
X9525000Y-8925000D02*
X9555000Y-8955000D01*
X9555000Y-8925000D02*
X9525000Y-8955000D01*
X9575000Y-13145000D02*
X9605000Y-13175000D01*
X9605000Y-13145000D02*
X9575000Y-13175000D01*
X9585000Y-12575000D02*
X9615000Y-12605000D01*
X9615000Y-12575000D02*
X9585000Y-12605000D01*
X9675000Y-5885000D02*
X9705000Y-5915000D01*
X9705000Y-5885000D02*
X9675000Y-5915000D01*
X9745000Y-11805000D02*
X9775000Y-11835000D01*
X9775000Y-11805000D02*
X9745000Y-11835000D01*
X9855000Y-8735000D02*
X9885000Y-8765000D01*
X9885000Y-8735000D02*
X9855000Y-8765000D01*
X9855000Y-8985000D02*
X9885000Y-9015000D01*
X9885000Y-8985000D02*
X9855000Y-9015000D01*
X10165000Y-14135000D02*
X10195000Y-14165000D01*
X10195000Y-14135000D02*
X10165000Y-14165000D01*
X10195000Y-12575000D02*
X10225000Y-12605000D01*
X10225000Y-12575000D02*
X10195000Y-12605000D01*
X10255000Y-13135000D02*
X10285000Y-13165000D01*
X10285000Y-13135000D02*
X10255000Y-13165000D01*
X10285000Y-5875000D02*
X10315000Y-5905000D01*
X10315000Y-5875000D02*
X10285000Y-5905000D01*
X10375000Y-11825000D02*
X10405000Y-11855000D01*
X10405000Y-11825000D02*
X10375000Y-11855000D01*
X10415000Y-9285000D02*
X10445000Y-9315000D01*
X10445000Y-9285000D02*
X10415000Y-9315000D01*
X10425000Y-9725000D02*
X10455000Y-9755000D01*
X10455000Y-9725000D02*
X10425000Y-9755000D01*
X10435000Y-10195000D02*
X10465000Y-10225000D01*
X10465000Y-10195000D02*
X10435000Y-10225000D01*
X10515000Y-8105000D02*
X10545000Y-8135000D01*
X10545000Y-8105000D02*
X10515000Y-8135000D01*
X10705000Y-12575000D02*
X10735000Y-12605000D01*
X10735000Y-12575000D02*
X10705000Y-12605000D01*
X10795000Y-8535000D02*
X10825000Y-8565000D01*
X10825000Y-8535000D02*
X10795000Y-8565000D01*
X10815000Y-13145000D02*
X10845000Y-13175000D01*
X10845000Y-13145000D02*
X10815000Y-13175000D01*
X10855000Y-5815000D02*
X10885000Y-5845000D01*
X10885000Y-5815000D02*
X10855000Y-5845000D01*
X10855000Y-5895000D02*
X10885000Y-5925000D01*
X10885000Y-5895000D02*
X10855000Y-5925000D01*
X10855000Y-5975000D02*
X10885000Y-6005000D01*
X10885000Y-5975000D02*
X10855000Y-6005000D01*
X10935000Y-5775000D02*
X10965000Y-5805000D01*
X10965000Y-5775000D02*
X10935000Y-5805000D01*
X10935000Y-5845000D02*
X10965000Y-5875000D01*
X10965000Y-5845000D02*
X10935000Y-5875000D01*
X10935000Y-5925000D02*
X10965000Y-5955000D01*
X10965000Y-5925000D02*
X10935000Y-5955000D01*
X10935000Y-6005000D02*
X10965000Y-6035000D01*
X10965000Y-6005000D02*
X10935000Y-6035000D01*
X10965000Y-9745000D02*
X10995000Y-9775000D01*
X10995000Y-9745000D02*
X10965000Y-9775000D01*
X10965000Y-9855000D02*
X10995000Y-9885000D01*
X10995000Y-9855000D02*
X10965000Y-9885000D01*
X10965000Y-9955000D02*
X10995000Y-9985000D01*
X10995000Y-9955000D02*
X10965000Y-9985000D01*
X10965000Y-11805000D02*
X10995000Y-11835000D01*
X10995000Y-11805000D02*
X10965000Y-11835000D01*
X10995000Y-6215000D02*
X11025000Y-6245000D01*
X11025000Y-6215000D02*
X10995000Y-6245000D01*
X11005000Y-11095000D02*
X11035000Y-11125000D01*
X11035000Y-11095000D02*
X11005000Y-11125000D01*
X11055000Y-8115000D02*
X11085000Y-8145000D01*
X11085000Y-8115000D02*
X11055000Y-8145000D01*
X11055000Y-9695000D02*
X11085000Y-9725000D01*
X11085000Y-9695000D02*
X11055000Y-9725000D01*
X11055000Y-9795000D02*
X11085000Y-9825000D01*
X11085000Y-9795000D02*
X11055000Y-9825000D01*
X11055000Y-9885000D02*
X11085000Y-9915000D01*
X11085000Y-9885000D02*
X11055000Y-9915000D01*
X11055000Y-9985000D02*
X11085000Y-10015000D01*
X11085000Y-9985000D02*
X11055000Y-10015000D01*
X11095000Y-6215000D02*
X11125000Y-6245000D01*
X11125000Y-6215000D02*
X11095000Y-6245000D01*
X11145000Y-9695000D02*
X11175000Y-9725000D01*
X11175000Y-9695000D02*
X11145000Y-9725000D01*
X11145000Y-9795000D02*
X11175000Y-9825000D01*
X11175000Y-9795000D02*
X11145000Y-9825000D01*
X11145000Y-9885000D02*
X11175000Y-9915000D01*
X11175000Y-9885000D02*
X11145000Y-9915000D01*
X11145000Y-9985000D02*
X11175000Y-10015000D01*
X11175000Y-9985000D02*
X11145000Y-10015000D01*
X11165000Y-6526000D02*
X11195000Y-6556000D01*
X11195000Y-6526000D02*
X11165000Y-6556000D01*
X11175000Y-14135000D02*
X11205000Y-14165000D01*
X11205000Y-14135000D02*
X11175000Y-14165000D01*
X11195000Y-6215000D02*
X11225000Y-6245000D01*
X11225000Y-6215000D02*
X11195000Y-6245000D01*
X11265000Y-12575000D02*
X11295000Y-12605000D01*
X11295000Y-12575000D02*
X11265000Y-12605000D01*
X11295000Y-8535000D02*
X11325000Y-8565000D01*
X11325000Y-8535000D02*
X11295000Y-8565000D01*
X11315000Y-6885000D02*
X11345000Y-6915000D01*
X11345000Y-6885000D02*
X11315000Y-6915000D01*
X11315000Y-6975000D02*
X11345000Y-7005000D01*
X11345000Y-6975000D02*
X11315000Y-7005000D01*
X11325000Y-13115000D02*
X11355000Y-13145000D01*
X11355000Y-13115000D02*
X11325000Y-13145000D01*
X11385000Y-5825000D02*
X11415000Y-5855000D01*
X11415000Y-5825000D02*
X11385000Y-5855000D01*
X11395000Y-6835000D02*
X11425000Y-6865000D01*
X11425000Y-6835000D02*
X11395000Y-6865000D01*
X11395000Y-6925000D02*
X11425000Y-6955000D01*
X11425000Y-6925000D02*
X11395000Y-6955000D01*
X11395000Y-7005000D02*
X11425000Y-7035000D01*
X11425000Y-7005000D02*
X11395000Y-7035000D01*
X11505000Y-11815000D02*
X11535000Y-11845000D01*
X11535000Y-11815000D02*
X11505000Y-11845000D01*
X11535000Y-7555000D02*
X11565000Y-7585000D01*
X11565000Y-7555000D02*
X11535000Y-7585000D01*
X11535000Y-8105000D02*
X11565000Y-8135000D01*
X11565000Y-8105000D02*
X11535000Y-8135000D01*
X11565000Y-12115000D02*
X11595000Y-12145000D01*
X11595000Y-12115000D02*
X11565000Y-12145000D01*
X11565000Y-12185000D02*
X11595000Y-12215000D01*
X11595000Y-12185000D02*
X11565000Y-12215000D01*
X11565000Y-12255000D02*
X11595000Y-12285000D01*
X11595000Y-12255000D02*
X11565000Y-12285000D01*
X11565000Y-12325000D02*
X11595000Y-12355000D01*
X11595000Y-12325000D02*
X11565000Y-12355000D01*
X11605000Y-11085000D02*
X11635000Y-11115000D01*
X11635000Y-11085000D02*
X11605000Y-11115000D01*
X11625000Y-12075000D02*
X11655000Y-12105000D01*
X11655000Y-12075000D02*
X11625000Y-12105000D01*
X11625000Y-12145000D02*
X11655000Y-12175000D01*
X11655000Y-12145000D02*
X11625000Y-12175000D01*
X11625000Y-12215000D02*
X11655000Y-12245000D01*
X11655000Y-12215000D02*
X11625000Y-12245000D01*
X11625000Y-12285000D02*
X11655000Y-12315000D01*
X11655000Y-12285000D02*
X11625000Y-12315000D01*
X11655000Y-9815000D02*
X11685000Y-9845000D01*
X11685000Y-9815000D02*
X11655000Y-9845000D01*
X11655000Y-9895000D02*
X11685000Y-9925000D01*
X11685000Y-9895000D02*
X11655000Y-9925000D01*
X11685000Y-12115000D02*
X11715000Y-12145000D01*
X11715000Y-12115000D02*
X11685000Y-12145000D01*
X11685000Y-12185000D02*
X11715000Y-12215000D01*
X11715000Y-12185000D02*
X11685000Y-12215000D01*
X11685000Y-12255000D02*
X11715000Y-12285000D01*
X11715000Y-12255000D02*
X11685000Y-12285000D01*
X11725000Y-5735000D02*
X11755000Y-5765000D01*
X11755000Y-5735000D02*
X11725000Y-5765000D01*
X11725000Y-5805000D02*
X11755000Y-5835000D01*
X11755000Y-5805000D02*
X11725000Y-5835000D01*
X11725000Y-5875000D02*
X11755000Y-5905000D01*
X11755000Y-5875000D02*
X11725000Y-5905000D01*
X11725000Y-8875000D02*
X11755000Y-8905000D01*
X11755000Y-8875000D02*
X11725000Y-8905000D01*
X11725000Y-9765000D02*
X11755000Y-9795000D01*
X11755000Y-9765000D02*
X11725000Y-9795000D01*
X11725000Y-9835000D02*
X11755000Y-9865000D01*
X11755000Y-9835000D02*
X11725000Y-9865000D01*
X11725000Y-9905000D02*
X11755000Y-9935000D01*
X11755000Y-9905000D02*
X11725000Y-9935000D01*
X11742900Y-7108000D02*
X11772900Y-7138000D01*
X11772900Y-7108000D02*
X11742900Y-7138000D01*
X11795000Y-5755000D02*
X11825000Y-5785000D01*
X11825000Y-5755000D02*
X11795000Y-5785000D01*
X11795000Y-5835000D02*
X11825000Y-5865000D01*
X11825000Y-5835000D02*
X11795000Y-5865000D01*
X11795000Y-8515000D02*
X11825000Y-8545000D01*
X11825000Y-8515000D02*
X11795000Y-8545000D01*
X11795000Y-12575000D02*
X11825000Y-12605000D01*
X11825000Y-12575000D02*
X11795000Y-12605000D01*
X11845000Y-13125000D02*
X11875000Y-13155000D01*
X11875000Y-13125000D02*
X11845000Y-13155000D01*
X11965000Y-9825000D02*
X11995000Y-9855000D01*
X11995000Y-9825000D02*
X11965000Y-9855000D01*
X11965000Y-9895000D02*
X11995000Y-9925000D01*
X11995000Y-9895000D02*
X11965000Y-9925000D01*
X12005000Y-9117500D02*
X12035000Y-9147500D01*
X12035000Y-9117500D02*
X12005000Y-9147500D01*
X12045000Y-8105000D02*
X12075000Y-8135000D01*
X12075000Y-8105000D02*
X12045000Y-8135000D01*
X12047000Y-5836000D02*
X12077000Y-5866000D01*
X12077000Y-5836000D02*
X12047000Y-5866000D01*
X12124632Y-5975000D02*
X12154632Y-6005000D01*
X12154632Y-5975000D02*
X12124632Y-6005000D01*
X12175000Y-10685000D02*
X12205000Y-10715000D01*
X12205000Y-10685000D02*
X12175000Y-10715000D01*
X12175000Y-10785000D02*
X12205000Y-10815000D01*
X12205000Y-10785000D02*
X12175000Y-10815000D01*
X12185000Y-9815000D02*
X12215000Y-9845000D01*
X12215000Y-9815000D02*
X12185000Y-9845000D01*
X12185000Y-9885000D02*
X12215000Y-9915000D01*
X12215000Y-9885000D02*
X12185000Y-9915000D01*
X12195000Y-7555000D02*
X12225000Y-7585000D01*
X12225000Y-7555000D02*
X12195000Y-7585000D01*
X12265000Y-5705000D02*
X12295000Y-5735000D01*
X12295000Y-5705000D02*
X12265000Y-5735000D01*
X12285000Y-7165000D02*
X12315000Y-7195000D01*
X12315000Y-7165000D02*
X12285000Y-7195000D01*
X12285000Y-10685000D02*
X12315000Y-10715000D01*
X12315000Y-10685000D02*
X12285000Y-10715000D01*
X12285000Y-10785000D02*
X12315000Y-10815000D01*
X12315000Y-10785000D02*
X12285000Y-10815000D01*
X12325000Y-8525000D02*
X12355000Y-8555000D01*
X12355000Y-8525000D02*
X12325000Y-8555000D01*
X12365000Y-14125000D02*
X12395000Y-14155000D01*
X12395000Y-14125000D02*
X12365000Y-14155000D01*
X12385000Y-9815000D02*
X12415000Y-9845000D01*
X12415000Y-9815000D02*
X12385000Y-9845000D01*
X12385000Y-9885000D02*
X12415000Y-9915000D01*
X12415000Y-9885000D02*
X12385000Y-9915000D01*
X12395000Y-7565000D02*
X12425000Y-7595000D01*
X12425000Y-7565000D02*
X12395000Y-7595000D01*
X12395000Y-10685000D02*
X12425000Y-10715000D01*
X12425000Y-10685000D02*
X12395000Y-10715000D01*
X12395000Y-10785000D02*
X12425000Y-10815000D01*
X12425000Y-10785000D02*
X12395000Y-10815000D01*
X12455000Y-13145000D02*
X12485000Y-13175000D01*
X12485000Y-13145000D02*
X12455000Y-13175000D01*
X12495000Y-5925000D02*
X12525000Y-5955000D01*
X12525000Y-5925000D02*
X12495000Y-5955000D01*
X12495000Y-6005000D02*
X12525000Y-6035000D01*
X12525000Y-6005000D02*
X12495000Y-6035000D01*
X12495000Y-6075000D02*
X12525000Y-6105000D01*
X12525000Y-6075000D02*
X12495000Y-6105000D01*
X12495000Y-6155000D02*
X12525000Y-6185000D01*
X12525000Y-6155000D02*
X12495000Y-6185000D01*
X12525000Y-8085000D02*
X12555000Y-8115000D01*
X12555000Y-8085000D02*
X12525000Y-8115000D01*
X12605000Y-9515000D02*
X12635000Y-9545000D01*
X12635000Y-9515000D02*
X12605000Y-9545000D01*
X12605000Y-9585000D02*
X12635000Y-9615000D01*
X12635000Y-9585000D02*
X12605000Y-9615000D01*
X12605000Y-9795000D02*
X12635000Y-9825000D01*
X12635000Y-9795000D02*
X12605000Y-9825000D01*
X12605000Y-9865000D02*
X12635000Y-9895000D01*
X12635000Y-9865000D02*
X12605000Y-9895000D01*
X12605000Y-9935000D02*
X12635000Y-9965000D01*
X12635000Y-9935000D02*
X12605000Y-9965000D01*
X12635000Y-7555000D02*
X12665000Y-7585000D01*
X12665000Y-7555000D02*
X12635000Y-7585000D01*
X12665000Y-9375000D02*
X12695000Y-9405000D01*
X12695000Y-9375000D02*
X12665000Y-9405000D01*
X12695000Y-6735000D02*
X12725000Y-6765000D01*
X12725000Y-6735000D02*
X12695000Y-6765000D01*
X12695000Y-6815000D02*
X12725000Y-6845000D01*
X12725000Y-6815000D02*
X12695000Y-6845000D01*
X12695000Y-6895000D02*
X12725000Y-6925000D01*
X12725000Y-6895000D02*
X12695000Y-6925000D01*
X12725000Y-6085000D02*
X12755000Y-6115000D01*
X12755000Y-6085000D02*
X12725000Y-6115000D01*
X12725000Y-6175000D02*
X12755000Y-6205000D01*
X12755000Y-6175000D02*
X12725000Y-6205000D01*
X12725000Y-10025000D02*
X12755000Y-10055000D01*
X12755000Y-10025000D02*
X12725000Y-10055000D01*
X12725000Y-10105000D02*
X12755000Y-10135000D01*
X12755000Y-10105000D02*
X12725000Y-10135000D01*
X12755000Y-9375000D02*
X12785000Y-9405000D01*
X12785000Y-9375000D02*
X12755000Y-9405000D01*
X12765000Y-9625000D02*
X12795000Y-9655000D01*
X12795000Y-9625000D02*
X12765000Y-9655000D01*
X12785000Y-12285000D02*
X12815000Y-12315000D01*
X12815000Y-12285000D02*
X12785000Y-12315000D01*
X12785000Y-12375000D02*
X12815000Y-12405000D01*
X12815000Y-12375000D02*
X12785000Y-12405000D01*
X12805000Y-6085000D02*
X12835000Y-6115000D01*
X12835000Y-6085000D02*
X12805000Y-6115000D01*
X12805000Y-6175000D02*
X12835000Y-6205000D01*
X12835000Y-6175000D02*
X12805000Y-6205000D01*
X12805000Y-6615000D02*
X12835000Y-6645000D01*
X12835000Y-6615000D02*
X12805000Y-6645000D01*
X12815000Y-10025000D02*
X12845000Y-10055000D01*
X12845000Y-10025000D02*
X12815000Y-10055000D01*
X12815000Y-10105000D02*
X12845000Y-10135000D01*
X12845000Y-10105000D02*
X12815000Y-10135000D01*
X12825000Y-8475000D02*
X12855000Y-8505000D01*
X12855000Y-8475000D02*
X12825000Y-8505000D01*
X12865000Y-12285000D02*
X12895000Y-12315000D01*
X12895000Y-12285000D02*
X12865000Y-12315000D01*
X12865000Y-12375000D02*
X12895000Y-12405000D01*
X12895000Y-12375000D02*
X12865000Y-12405000D01*
X12875000Y-6085000D02*
X12905000Y-6115000D01*
X12905000Y-6085000D02*
X12875000Y-6115000D01*
X12875000Y-6175000D02*
X12905000Y-6205000D01*
X12905000Y-6175000D02*
X12875000Y-6205000D01*
X12895000Y-12665000D02*
X12925000Y-12695000D01*
X12925000Y-12665000D02*
X12895000Y-12695000D01*
X12905000Y-10025000D02*
X12935000Y-10055000D01*
X12935000Y-10025000D02*
X12905000Y-10055000D01*
X12905000Y-10105000D02*
X12935000Y-10135000D01*
X12935000Y-10105000D02*
X12905000Y-10135000D01*
X12945000Y-12285000D02*
X12975000Y-12315000D01*
X12975000Y-12285000D02*
X12945000Y-12315000D01*
X12945000Y-12375000D02*
X12975000Y-12405000D01*
X12975000Y-12375000D02*
X12945000Y-12405000D01*
X12995000Y-8085000D02*
X13025000Y-8115000D01*
X13025000Y-8085000D02*
X12995000Y-8115000D01*
X13015000Y-6825000D02*
X13045000Y-6855000D01*
X13045000Y-6825000D02*
X13015000Y-6855000D01*
X13015000Y-6905000D02*
X13045000Y-6935000D01*
X13045000Y-6905000D02*
X13015000Y-6935000D01*
X13015000Y-6985000D02*
X13045000Y-7015000D01*
X13045000Y-6985000D02*
X13015000Y-7015000D01*
X13045000Y-5725000D02*
X13075000Y-5755000D01*
X13075000Y-5725000D02*
X13045000Y-5755000D01*
X13045000Y-5795000D02*
X13075000Y-5825000D01*
X13075000Y-5795000D02*
X13045000Y-5825000D01*
X13045000Y-5865000D02*
X13075000Y-5895000D01*
X13075000Y-5865000D02*
X13045000Y-5895000D01*
X13075000Y-13445000D02*
X13105000Y-13475000D01*
X13105000Y-13445000D02*
X13075000Y-13475000D01*
X13095000Y-6775000D02*
X13125000Y-6805000D01*
X13125000Y-6775000D02*
X13095000Y-6805000D01*
X13095000Y-6855000D02*
X13125000Y-6885000D01*
X13125000Y-6855000D02*
X13095000Y-6885000D01*
X13095000Y-6935000D02*
X13125000Y-6965000D01*
X13125000Y-6935000D02*
X13095000Y-6965000D01*
X13095000Y-7015000D02*
X13125000Y-7045000D01*
X13125000Y-7015000D02*
X13095000Y-7045000D01*
X13105000Y-9385000D02*
X13135000Y-9415000D01*
X13135000Y-9385000D02*
X13105000Y-9415000D01*
X13105000Y-9455000D02*
X13135000Y-9485000D01*
X13135000Y-9455000D02*
X13105000Y-9485000D01*
X13115000Y-10425000D02*
X13145000Y-10455000D01*
X13145000Y-10425000D02*
X13115000Y-10455000D01*
X13115000Y-10505000D02*
X13145000Y-10535000D01*
X13145000Y-10505000D02*
X13115000Y-10535000D01*
X13115000Y-10585000D02*
X13145000Y-10615000D01*
X13145000Y-10585000D02*
X13115000Y-10615000D01*
X13125000Y-5755000D02*
X13155000Y-5785000D01*
X13155000Y-5755000D02*
X13125000Y-5785000D01*
X13125000Y-5825000D02*
X13155000Y-5855000D01*
X13155000Y-5825000D02*
X13125000Y-5855000D01*
X13155000Y-12905000D02*
X13185000Y-12935000D01*
X13185000Y-12905000D02*
X13155000Y-12935000D01*
X13155000Y-12985000D02*
X13185000Y-13015000D01*
X13185000Y-12985000D02*
X13155000Y-13015000D01*
X13165000Y-13125000D02*
X13195000Y-13155000D01*
X13195000Y-13125000D02*
X13165000Y-13155000D01*
X13175000Y-9385000D02*
X13205000Y-9415000D01*
X13205000Y-9385000D02*
X13175000Y-9415000D01*
X13175000Y-9455000D02*
X13205000Y-9485000D01*
X13205000Y-9455000D02*
X13175000Y-9485000D01*
X13175000Y-12265000D02*
X13205000Y-12295000D01*
X13205000Y-12265000D02*
X13175000Y-12295000D01*
X13175000Y-12335000D02*
X13205000Y-12365000D01*
X13205000Y-12335000D02*
X13175000Y-12365000D01*
X13175000Y-12415000D02*
X13205000Y-12445000D01*
X13205000Y-12415000D02*
X13175000Y-12445000D01*
X13175000Y-12485000D02*
X13205000Y-12515000D01*
X13205000Y-12485000D02*
X13175000Y-12515000D01*
X13175000Y-12655000D02*
X13205000Y-12685000D01*
X13205000Y-12655000D02*
X13175000Y-12685000D01*
X13195000Y-14135000D02*
X13225000Y-14165000D01*
X13225000Y-14135000D02*
X13195000Y-14165000D01*
X13205000Y-10455000D02*
X13235000Y-10485000D01*
X13235000Y-10455000D02*
X13205000Y-10485000D01*
X13205000Y-10545000D02*
X13235000Y-10575000D01*
X13235000Y-10545000D02*
X13205000Y-10575000D01*
X13205000Y-12105000D02*
X13235000Y-12135000D01*
X13235000Y-12105000D02*
X13205000Y-12135000D01*
X13215000Y-12725000D02*
X13245000Y-12755000D01*
X13245000Y-12725000D02*
X13215000Y-12755000D01*
X13235000Y-12905000D02*
X13265000Y-12935000D01*
X13265000Y-12905000D02*
X13235000Y-12935000D01*
X13235000Y-12985000D02*
X13265000Y-13015000D01*
X13265000Y-12985000D02*
X13235000Y-13015000D01*
X13235000Y-14205000D02*
X13265000Y-14235000D01*
X13265000Y-14205000D02*
X13235000Y-14235000D01*
X13245000Y-13125000D02*
X13275000Y-13155000D01*
X13275000Y-13125000D02*
X13245000Y-13155000D01*
X13265000Y-12655000D02*
X13295000Y-12685000D01*
X13295000Y-12655000D02*
X13265000Y-12685000D01*
X13285000Y-13325000D02*
X13315000Y-13355000D01*
X13315000Y-13325000D02*
X13285000Y-13355000D01*
X13285000Y-14135000D02*
X13315000Y-14165000D01*
X13315000Y-14135000D02*
X13285000Y-14165000D01*
X13305000Y-12725000D02*
X13335000Y-12755000D01*
X13335000Y-12725000D02*
X13305000Y-12755000D01*
X13325000Y-14205000D02*
X13355000Y-14235000D01*
X13355000Y-14205000D02*
X13325000Y-14235000D01*
X13355000Y-12655000D02*
X13385000Y-12685000D01*
X13385000Y-12655000D02*
X13355000Y-12685000D01*
X13365000Y-12995000D02*
X13395000Y-13025000D01*
X13395000Y-12995000D02*
X13365000Y-13025000D01*
X13365000Y-13235000D02*
X13395000Y-13265000D01*
X13395000Y-13235000D02*
X13365000Y-13265000D01*
X13365000Y-14135000D02*
X13395000Y-14165000D01*
X13395000Y-14135000D02*
X13365000Y-14165000D01*
X13405000Y-14205000D02*
X13435000Y-14235000D01*
X13435000Y-14205000D02*
X13405000Y-14235000D01*
X13415000Y-8795000D02*
X13445000Y-8825000D01*
X13445000Y-8795000D02*
X13415000Y-8825000D01*
X13445000Y-14135000D02*
X13475000Y-14165000D01*
X13475000Y-14135000D02*
X13445000Y-14165000D01*
X13465000Y-5855000D02*
X13495000Y-5885000D01*
X13495000Y-5855000D02*
X13465000Y-5885000D01*
X13543000Y-13232854D02*
X13573000Y-13262854D01*
X13573000Y-13232854D02*
X13543000Y-13262854D01*
X13565000Y-12715000D02*
X13595000Y-12745000D01*
X13595000Y-12715000D02*
X13565000Y-12745000D01*
X13595000Y-11315000D02*
X13625000Y-11345000D01*
X13625000Y-11315000D02*
X13595000Y-11345000D01*
X13605000Y-13905000D02*
X13635000Y-13935000D01*
X13635000Y-13905000D02*
X13605000Y-13935000D01*
X13605000Y-13985000D02*
X13635000Y-14015000D01*
X13635000Y-13985000D02*
X13605000Y-14015000D01*
X13605000Y-14055000D02*
X13635000Y-14085000D01*
X13635000Y-14055000D02*
X13605000Y-14085000D01*
X13675000Y-9755000D02*
X13705000Y-9785000D01*
X13705000Y-9755000D02*
X13675000Y-9785000D01*
X13694337Y-9510358D02*
X13724337Y-9540358D01*
X13724337Y-9510358D02*
X13694337Y-9540358D01*
X13805000Y-12135000D02*
X13835000Y-12165000D01*
X13835000Y-12135000D02*
X13805000Y-12165000D01*
X13805000Y-12205000D02*
X13835000Y-12235000D01*
X13835000Y-12205000D02*
X13805000Y-12235000D01*
X13805000Y-12275000D02*
X13835000Y-12305000D01*
X13835000Y-12275000D02*
X13805000Y-12305000D01*
X13835000Y-6325000D02*
X13865000Y-6355000D01*
X13865000Y-6325000D02*
X13835000Y-6355000D01*
X13875000Y-12125000D02*
X13905000Y-12155000D01*
X13905000Y-12125000D02*
X13875000Y-12155000D01*
X13875000Y-12195000D02*
X13905000Y-12225000D01*
X13905000Y-12195000D02*
X13875000Y-12225000D01*
X14045000Y-6645000D02*
X14075000Y-6675000D01*
X14075000Y-6645000D02*
X14045000Y-6675000D01*
X14105000Y-5855000D02*
X14135000Y-5885000D01*
X14135000Y-5855000D02*
X14105000Y-5885000D01*
X14195000Y-10165000D02*
X14225000Y-10195000D01*
X14225000Y-10165000D02*
X14195000Y-10195000D01*
X14205000Y-6315000D02*
X14235000Y-6345000D01*
X14235000Y-6315000D02*
X14205000Y-6345000D01*
X14215000Y-8925000D02*
X14245000Y-8955000D01*
X14245000Y-8925000D02*
X14215000Y-8955000D01*
X14215000Y-9135000D02*
X14245000Y-9165000D01*
X14245000Y-9135000D02*
X14215000Y-9165000D01*
X14225000Y-10355000D02*
X14255000Y-10385000D01*
X14255000Y-10355000D02*
X14225000Y-10385000D01*
X14345000Y-9785000D02*
X14375000Y-9815000D01*
X14375000Y-9785000D02*
X14345000Y-9815000D01*
X14375000Y-7965000D02*
X14405000Y-7995000D01*
X14405000Y-7965000D02*
X14375000Y-7995000D01*
X14395000Y-6655000D02*
X14425000Y-6685000D01*
X14425000Y-6655000D02*
X14395000Y-6685000D01*
X14425000Y-9525000D02*
X14455000Y-9555000D01*
X14455000Y-9525000D02*
X14425000Y-9555000D01*
X14455000Y-14025000D02*
X14485000Y-14055000D01*
X14485000Y-14025000D02*
X14455000Y-14055000D01*
X14465000Y-7965000D02*
X14495000Y-7995000D01*
X14495000Y-7965000D02*
X14465000Y-7995000D01*
X14525000Y-9765000D02*
X14555000Y-9795000D01*
X14555000Y-9765000D02*
X14525000Y-9795000D01*
X14525000Y-9925000D02*
X14555000Y-9955000D01*
X14555000Y-9925000D02*
X14525000Y-9955000D01*
X14535000Y-9525000D02*
X14565000Y-9555000D01*
X14565000Y-9525000D02*
X14535000Y-9555000D01*
X14555000Y-7965000D02*
X14585000Y-7995000D01*
X14585000Y-7965000D02*
X14555000Y-7995000D01*
X14585000Y-8865000D02*
X14615000Y-8895000D01*
X14615000Y-8865000D02*
X14585000Y-8895000D01*
X14595000Y-6315000D02*
X14625000Y-6345000D01*
X14625000Y-6315000D02*
X14595000Y-6345000D01*
X14645000Y-9895000D02*
X14675000Y-9925000D01*
X14675000Y-9895000D02*
X14645000Y-9925000D01*
X14655000Y-5835000D02*
X14685000Y-5865000D01*
X14685000Y-5835000D02*
X14655000Y-5865000D01*
X14665000Y-8865000D02*
X14695000Y-8895000D01*
X14695000Y-8865000D02*
X14665000Y-8895000D01*
X14675000Y-9425000D02*
X14705000Y-9455000D01*
X14705000Y-9425000D02*
X14675000Y-9455000D01*
X14715000Y-9905000D02*
X14745000Y-9935000D01*
X14745000Y-9905000D02*
X14715000Y-9935000D01*
X14725000Y-13035000D02*
X14755000Y-13065000D01*
X14755000Y-13035000D02*
X14725000Y-13065000D01*
X14735000Y-10655000D02*
X14765000Y-10685000D01*
X14765000Y-10655000D02*
X14735000Y-10685000D01*
X14735000Y-10735000D02*
X14765000Y-10765000D01*
X14765000Y-10735000D02*
X14735000Y-10765000D01*
X14735000Y-10815000D02*
X14765000Y-10845000D01*
X14765000Y-10815000D02*
X14735000Y-10845000D01*
X14735000Y-10885000D02*
X14765000Y-10915000D01*
X14765000Y-10885000D02*
X14735000Y-10915000D01*
X14745000Y-8175000D02*
X14775000Y-8205000D01*
X14775000Y-8175000D02*
X14745000Y-8205000D01*
X14745000Y-8255000D02*
X14775000Y-8285000D01*
X14775000Y-8255000D02*
X14745000Y-8285000D01*
X14745000Y-8335000D02*
X14775000Y-8365000D01*
X14775000Y-8335000D02*
X14745000Y-8365000D01*
X14745000Y-8415000D02*
X14775000Y-8445000D01*
X14775000Y-8415000D02*
X14745000Y-8445000D01*
X14745000Y-9425000D02*
X14775000Y-9455000D01*
X14775000Y-9425000D02*
X14745000Y-9455000D01*
X14765000Y-8965000D02*
X14795000Y-8995000D01*
X14795000Y-8965000D02*
X14765000Y-8995000D01*
X14765000Y-9035000D02*
X14795000Y-9065000D01*
X14795000Y-9035000D02*
X14765000Y-9065000D01*
X14765000Y-9105000D02*
X14795000Y-9135000D01*
X14795000Y-9105000D02*
X14765000Y-9135000D01*
X14775000Y-6625000D02*
X14805000Y-6655000D01*
X14805000Y-6625000D02*
X14775000Y-6655000D01*
X14775000Y-9235000D02*
X14805000Y-9265000D01*
X14805000Y-9235000D02*
X14775000Y-9265000D01*
X14775000Y-9305000D02*
X14805000Y-9335000D01*
X14805000Y-9305000D02*
X14775000Y-9335000D01*
X14775000Y-10135000D02*
X14805000Y-10165000D01*
X14805000Y-10135000D02*
X14775000Y-10165000D01*
X14775000Y-10215000D02*
X14805000Y-10245000D01*
X14805000Y-10215000D02*
X14775000Y-10245000D01*
X14775000Y-10295000D02*
X14805000Y-10325000D01*
X14805000Y-10295000D02*
X14775000Y-10325000D01*
X14775000Y-10375000D02*
X14805000Y-10405000D01*
X14805000Y-10375000D02*
X14775000Y-10405000D01*
X14795000Y-9905000D02*
X14825000Y-9935000D01*
X14825000Y-9905000D02*
X14795000Y-9935000D01*
X14815000Y-8225000D02*
X14845000Y-8255000D01*
X14845000Y-8225000D02*
X14815000Y-8255000D01*
X14815000Y-8305000D02*
X14845000Y-8335000D01*
X14845000Y-8305000D02*
X14815000Y-8335000D01*
X14815000Y-8375000D02*
X14845000Y-8405000D01*
X14845000Y-8375000D02*
X14815000Y-8405000D01*
X14825000Y-10695000D02*
X14855000Y-10725000D01*
X14855000Y-10695000D02*
X14825000Y-10725000D01*
X14825000Y-10775000D02*
X14855000Y-10805000D01*
X14855000Y-10775000D02*
X14825000Y-10805000D01*
X14825000Y-10855000D02*
X14855000Y-10885000D01*
X14855000Y-10855000D02*
X14825000Y-10885000D01*
X14835000Y-8995000D02*
X14865000Y-9025000D01*
X14865000Y-8995000D02*
X14835000Y-9025000D01*
X14835000Y-9075000D02*
X14865000Y-9105000D01*
X14865000Y-9075000D02*
X14835000Y-9105000D01*
X14845000Y-9275000D02*
X14875000Y-9305000D01*
X14875000Y-9275000D02*
X14845000Y-9305000D01*
X14855000Y-10175000D02*
X14885000Y-10205000D01*
X14885000Y-10175000D02*
X14855000Y-10205000D01*
X14855000Y-10255000D02*
X14885000Y-10285000D01*
X14885000Y-10255000D02*
X14855000Y-10285000D01*
X14855000Y-10335000D02*
X14885000Y-10365000D01*
X14885000Y-10335000D02*
X14855000Y-10365000D01*
X14925000Y-6315000D02*
X14955000Y-6345000D01*
X14955000Y-6315000D02*
X14925000Y-6345000D01*
X15025000Y-13455000D02*
X15055000Y-13485000D01*
X15055000Y-13455000D02*
X15025000Y-13485000D01*
X15185000Y-5755000D02*
X15215000Y-5785000D01*
X15215000Y-5755000D02*
X15185000Y-5785000D01*
X15185000Y-14055000D02*
X15215000Y-14085000D01*
X15215000Y-14055000D02*
X15185000Y-14085000D01*
X15235000Y-5825000D02*
X15265000Y-5855000D01*
X15265000Y-5825000D02*
X15235000Y-5855000D01*
X15265000Y-6205000D02*
X15295000Y-6235000D01*
X15295000Y-6205000D02*
X15265000Y-6235000D01*
X15285000Y-5755000D02*
X15315000Y-5785000D01*
X15315000Y-5755000D02*
X15285000Y-5785000D01*
X15295000Y-6275000D02*
X15325000Y-6305000D01*
X15325000Y-6275000D02*
X15295000Y-6305000D01*
X15325000Y-5825000D02*
X15355000Y-5855000D01*
X15355000Y-5825000D02*
X15325000Y-5855000D01*
X15325000Y-13025000D02*
X15355000Y-13055000D01*
X15355000Y-13025000D02*
X15325000Y-13055000D01*
X15335000Y-6205000D02*
X15365000Y-6235000D01*
X15365000Y-6205000D02*
X15335000Y-6235000D01*
X15345000Y-7115000D02*
X15375000Y-7145000D01*
X15375000Y-7115000D02*
X15345000Y-7145000D01*
X15355000Y-7385000D02*
X15385000Y-7415000D01*
X15385000Y-7385000D02*
X15355000Y-7415000D01*
X15365000Y-5755000D02*
X15395000Y-5785000D01*
X15395000Y-5755000D02*
X15365000Y-5785000D01*
X15375000Y-6275000D02*
X15405000Y-6305000D01*
X15405000Y-6275000D02*
X15375000Y-6305000D01*
X15375000Y-7665000D02*
X15405000Y-7695000D01*
X15405000Y-7665000D02*
X15375000Y-7695000D01*
X15415000Y-6205000D02*
X15445000Y-6235000D01*
X15445000Y-6205000D02*
X15415000Y-6235000D01*
X15585000Y-13465000D02*
X15615000Y-13495000D01*
X15615000Y-13465000D02*
X15585000Y-13495000D01*
X15875000Y-14045000D02*
X15905000Y-14075000D01*
X15905000Y-14045000D02*
X15875000Y-14075000D01*
X15885000Y-13045000D02*
X15915000Y-13075000D01*
X15915000Y-13045000D02*
X15885000Y-13075000D01*
X15955000Y-8705000D02*
X15985000Y-8735000D01*
X15985000Y-8705000D02*
X15955000Y-8735000D01*
X16175000Y-13435000D02*
X16205000Y-13465000D01*
X16205000Y-13435000D02*
X16175000Y-13465000D01*
X16315000Y-8735000D02*
X16345000Y-8765000D01*
X16345000Y-8735000D02*
X16315000Y-8765000D01*
X16315000Y-8825000D02*
X16345000Y-8855000D01*
X16345000Y-8825000D02*
X16315000Y-8855000D01*
X16315000Y-8905000D02*
X16345000Y-8935000D01*
X16345000Y-8905000D02*
X16315000Y-8935000D01*
X16315000Y-8985000D02*
X16345000Y-9015000D01*
X16345000Y-8985000D02*
X16315000Y-9015000D01*
X16345000Y-13055000D02*
X16375000Y-13085000D01*
X16375000Y-13055000D02*
X16345000Y-13085000D01*
X16415000Y-8735000D02*
X16445000Y-8765000D01*
X16445000Y-8735000D02*
X16415000Y-8765000D01*
X16415000Y-8825000D02*
X16445000Y-8855000D01*
X16445000Y-8825000D02*
X16415000Y-8855000D01*
X16415000Y-8905000D02*
X16445000Y-8935000D01*
X16445000Y-8905000D02*
X16415000Y-8935000D01*
X16415000Y-8985000D02*
X16445000Y-9015000D01*
X16445000Y-8985000D02*
X16415000Y-9015000D01*
X16485000Y-14045000D02*
X16515000Y-14075000D01*
X16515000Y-14045000D02*
X16485000Y-14075000D01*
X16515000Y-6335000D02*
X16545000Y-6365000D01*
X16545000Y-6335000D02*
X16515000Y-6365000D01*
X16515000Y-8735000D02*
X16545000Y-8765000D01*
X16545000Y-8735000D02*
X16515000Y-8765000D01*
X16515000Y-8825000D02*
X16545000Y-8855000D01*
X16545000Y-8825000D02*
X16515000Y-8855000D01*
X16515000Y-8905000D02*
X16545000Y-8935000D01*
X16545000Y-8905000D02*
X16515000Y-8935000D01*
X16515000Y-8985000D02*
X16545000Y-9015000D01*
X16545000Y-8985000D02*
X16515000Y-9015000D01*
X16525000Y-6995000D02*
X16555000Y-7025000D01*
X16555000Y-6995000D02*
X16525000Y-7025000D01*
X16535000Y-7595000D02*
X16565000Y-7625000D01*
X16565000Y-7595000D02*
X16535000Y-7625000D01*
X13352500Y-12175000D02*
G75*
G02*
X13322500Y-12175000I-15000J0D01*
G01*
X13322500Y-12175000D02*
G75*
G02*
X13352500Y-12175000I15000J0D01*
G01*
X13352500Y-12295000D02*
G75*
G02*
X13322500Y-12295000I-15000J0D01*
G01*
X13322500Y-12295000D02*
G75*
G02*
X13352500Y-12295000I15000J0D01*
G01*
X13462500Y-12175000D02*
G75*
G02*
X13432500Y-12175000I-15000J0D01*
G01*
X13432500Y-12175000D02*
G75*
G02*
X13462500Y-12175000I15000J0D01*
G01*
X13462500Y-12295000D02*
G75*
G02*
X13432500Y-12295000I-15000J0D01*
G01*
X13432500Y-12295000D02*
G75*
G02*
X13462500Y-12295000I15000J0D01*
G01*
X13592500Y-12175000D02*
G75*
G02*
X13562500Y-12175000I-15000J0D01*
G01*
X13562500Y-12175000D02*
G75*
G02*
X13592500Y-12175000I15000J0D01*
G01*
X13592500Y-12295000D02*
G75*
G02*
X13562500Y-12295000I-15000J0D01*
G01*
X13562500Y-12295000D02*
G75*
G02*
X13592500Y-12295000I15000J0D01*
G01*
X13712500Y-12175000D02*
G75*
G02*
X13682500Y-12175000I-15000J0D01*
G01*
X13682500Y-12175000D02*
G75*
G02*
X13712500Y-12175000I15000J0D01*
G01*
X13712500Y-12295000D02*
G75*
G02*
X13682500Y-12295000I-15000J0D01*
G01*
X13682500Y-12295000D02*
G75*
G02*
X13712500Y-12295000I15000J0D01*
G01*
X6700000Y-7640000D02*
X6700000Y-7710000D01*
X6665000Y-7675000D02*
X6735000Y-7675000D01*
X6700000Y-7790000D02*
X6700000Y-7860000D01*
X6665000Y-7825000D02*
X6735000Y-7825000D01*
X6700000Y-7940000D02*
X6700000Y-8010000D01*
X6665000Y-7975000D02*
X6735000Y-7975000D01*
X6700000Y-8090000D02*
X6700000Y-8160000D01*
X6665000Y-8125000D02*
X6735000Y-8125000D01*
X6700000Y-8240000D02*
X6700000Y-8310000D01*
X6665000Y-8275000D02*
X6735000Y-8275000D01*
X6700000Y-8390000D02*
X6700000Y-8460000D01*
X6665000Y-8425000D02*
X6735000Y-8425000D01*
X6700000Y-8540000D02*
X6700000Y-8610000D01*
X6665000Y-8575000D02*
X6735000Y-8575000D01*
X6700000Y-8690000D02*
X6700000Y-8760000D01*
X6665000Y-8725000D02*
X6735000Y-8725000D01*
X6700000Y-8840000D02*
X6700000Y-8910000D01*
X6665000Y-8875000D02*
X6735000Y-8875000D01*
X6700000Y-8990000D02*
X6700000Y-9060000D01*
X6665000Y-9025000D02*
X6735000Y-9025000D01*
X13088284Y-11103796D02*
X13088284Y-11047227D01*
X13031715Y-11047227D01*
X13031715Y-11103796D01*
X13088284Y-11103796D01*
X13088284Y-11303796D02*
X13088284Y-11247227D01*
X13031715Y-11247227D01*
X13031715Y-11303796D01*
X13088284Y-11303796D01*
X7009000Y-13180500D02*
X7053500Y-13136000D01*
X7009000Y-13091500D01*
X6964500Y-13136000D01*
X7009000Y-13180500D01*
X7238000Y-13180500D02*
X7282500Y-13136000D01*
X7238000Y-13091500D01*
X7193500Y-13136000D01*
X7238000Y-13180500D01*
X7339800Y-13662500D02*
X7384300Y-13618000D01*
X7339800Y-13573500D01*
X7295300Y-13618000D01*
X7339800Y-13662500D01*
X7441400Y-13840500D02*
X7485900Y-13796000D01*
X7441400Y-13751500D01*
X7396900Y-13796000D01*
X7441400Y-13840500D01*
X7543000Y-13662500D02*
X7587500Y-13618000D01*
X7543000Y-13573500D01*
X7498500Y-13618000D01*
X7543000Y-13662500D01*
X7644600Y-13840500D02*
X7689100Y-13796000D01*
X7644600Y-13751500D01*
X7600100Y-13796000D01*
X7644600Y-13840500D01*
X7746200Y-13662500D02*
X7790700Y-13618000D01*
X7746200Y-13573500D01*
X7701700Y-13618000D01*
X7746200Y-13662500D01*
X7847800Y-13840500D02*
X7892300Y-13796000D01*
X7847800Y-13751500D01*
X7803300Y-13796000D01*
X7847800Y-13840500D01*
X7949400Y-13662500D02*
X7993900Y-13618000D01*
X7949400Y-13573500D01*
X7904900Y-13618000D01*
X7949400Y-13662500D01*
X8051000Y-13840500D02*
X8095500Y-13796000D01*
X8051000Y-13751500D01*
X8006500Y-13796000D01*
X8051000Y-13840500D01*
X8152000Y-13180500D02*
X8196500Y-13136000D01*
X8152000Y-13091500D01*
X8107500Y-13136000D01*
X8152000Y-13180500D01*
X8381000Y-13180500D02*
X8425500Y-13136000D01*
X8381000Y-13091500D01*
X8336500Y-13136000D01*
X8381000Y-13180500D01*
X8860000Y-11456000D02*
X8960000Y-11556000D01*
X8960000Y-11456000D02*
X8860000Y-11556000D01*
X8960000Y-11506000D02*
G75*
G02*
X8860000Y-11506000I-50000J0D01*
G01*
X8860000Y-11506000D02*
G75*
G02*
X8960000Y-11506000I50000J0D01*
G01*
X8860000Y-11710000D02*
X8960000Y-11810000D01*
X8960000Y-11710000D02*
X8860000Y-11810000D01*
X8960000Y-11760000D02*
G75*
G02*
X8860000Y-11760000I-50000J0D01*
G01*
X8860000Y-11760000D02*
G75*
G02*
X8960000Y-11760000I50000J0D01*
G01*
X8860000Y-11964000D02*
X8960000Y-12064000D01*
X8960000Y-11964000D02*
X8860000Y-12064000D01*
X8960000Y-12014000D02*
G75*
G02*
X8860000Y-12014000I-50000J0D01*
G01*
X8860000Y-12014000D02*
G75*
G02*
X8960000Y-12014000I50000J0D01*
G01*
X15940000Y-5870000D02*
X16040000Y-5970000D01*
X16040000Y-5870000D02*
X15940000Y-5970000D01*
X16040000Y-5920000D02*
G75*
G02*
X15940000Y-5920000I-50000J0D01*
G01*
X15940000Y-5920000D02*
G75*
G02*
X16040000Y-5920000I50000J0D01*
G01*
X16194000Y-5870000D02*
X16294000Y-5970000D01*
X16294000Y-5870000D02*
X16194000Y-5970000D01*
X16294000Y-5920000D02*
G75*
G02*
X16194000Y-5920000I-50000J0D01*
G01*
X16194000Y-5920000D02*
G75*
G02*
X16294000Y-5920000I50000J0D01*
G01*
D13*
X9691800Y-6540825D02*
X9793400Y-6642425D01*
X9793400Y-6540825D02*
X9691800Y-6642425D01*
X9742600Y-6540825D02*
X9742600Y-6642425D01*
X9691800Y-6591625D02*
X9793400Y-6591625D01*
X9691800Y-6794825D02*
X9793400Y-6896425D01*
X9793400Y-6794825D02*
X9691800Y-6896425D01*
X9742600Y-6794825D02*
X9742600Y-6896425D01*
X9691800Y-6845625D02*
X9793400Y-6845625D01*
X9691800Y-7048825D02*
X9793400Y-7150425D01*
X9793400Y-7048825D02*
X9691800Y-7150425D01*
X9742600Y-7048825D02*
X9742600Y-7150425D01*
X9691800Y-7099625D02*
X9793400Y-7099625D01*
X9691800Y-7302825D02*
X9793400Y-7404425D01*
X9793400Y-7302825D02*
X9691800Y-7404425D01*
X9742600Y-7302825D02*
X9742600Y-7404425D01*
X9691800Y-7353625D02*
X9793400Y-7353625D01*
X9691800Y-7556825D02*
X9793400Y-7658425D01*
X9793400Y-7556825D02*
X9691800Y-7658425D01*
X9742600Y-7556825D02*
X9742600Y-7658425D01*
X9691800Y-7607625D02*
X9793400Y-7607625D01*
X9691800Y-7810825D02*
X9793400Y-7912425D01*
X9793400Y-7810825D02*
X9691800Y-7912425D01*
X9742600Y-7810825D02*
X9742600Y-7912425D01*
X9691800Y-7861625D02*
X9793400Y-7861625D01*
X9691800Y-8064825D02*
X9793400Y-8166425D01*
X9793400Y-8064825D02*
X9691800Y-8166425D01*
X9742600Y-8064825D02*
X9742600Y-8166425D01*
X9691800Y-8115625D02*
X9793400Y-8115625D01*
X9691800Y-8318825D02*
X9793400Y-8420425D01*
X9793400Y-8318825D02*
X9691800Y-8420425D01*
X9742600Y-8318825D02*
X9742600Y-8420425D01*
X9691800Y-8369625D02*
X9793400Y-8369625D01*
X9691800Y-8572825D02*
X9793400Y-8674425D01*
X9793400Y-8572825D02*
X9691800Y-8674425D01*
X9742600Y-8572825D02*
X9742600Y-8674425D01*
X9691800Y-8623625D02*
X9793400Y-8623625D01*
X9691800Y-8826825D02*
X9793400Y-8928425D01*
X9793400Y-8826825D02*
X9691800Y-8928425D01*
X9742600Y-8826825D02*
X9742600Y-8928425D01*
X9691800Y-8877625D02*
X9793400Y-8877625D01*
X9691800Y-9080825D02*
X9793400Y-9182425D01*
X9793400Y-9080825D02*
X9691800Y-9182425D01*
X9742600Y-9080825D02*
X9742600Y-9182425D01*
X9691800Y-9131625D02*
X9793400Y-9131625D01*
X9691800Y-9334825D02*
X9793400Y-9436425D01*
X9793400Y-9334825D02*
X9691800Y-9436425D01*
X9742600Y-9334825D02*
X9742600Y-9436425D01*
X9691800Y-9385625D02*
X9793400Y-9385625D01*
X9691800Y-9588825D02*
X9793400Y-9690425D01*
X9793400Y-9588825D02*
X9691800Y-9690425D01*
X9742600Y-9588825D02*
X9742600Y-9690425D01*
X9691800Y-9639625D02*
X9793400Y-9639625D01*
X9691800Y-9842825D02*
X9793400Y-9944425D01*
X9793400Y-9842825D02*
X9691800Y-9944425D01*
X9742600Y-9842825D02*
X9742600Y-9944425D01*
X9691800Y-9893625D02*
X9793400Y-9893625D01*
X9691800Y-10096825D02*
X9793400Y-10198425D01*
X9793400Y-10096825D02*
X9691800Y-10198425D01*
X9742600Y-10096825D02*
X9742600Y-10198425D01*
X9691800Y-10147625D02*
X9793400Y-10147625D01*
X9691800Y-10350825D02*
X9793400Y-10452425D01*
X9793400Y-10350825D02*
X9691800Y-10452425D01*
X9742600Y-10350825D02*
X9742600Y-10452425D01*
X9691800Y-10401625D02*
X9793400Y-10401625D01*
X9691800Y-10604825D02*
X9793400Y-10706425D01*
X9793400Y-10604825D02*
X9691800Y-10706425D01*
X9742600Y-10604825D02*
X9742600Y-10706425D01*
X9691800Y-10655625D02*
X9793400Y-10655625D01*
X9691800Y-10858825D02*
X9793400Y-10960425D01*
X9793400Y-10858825D02*
X9691800Y-10960425D01*
X9742600Y-10858825D02*
X9742600Y-10960425D01*
X9691800Y-10909625D02*
X9793400Y-10909625D01*
X9691800Y-11112825D02*
X9793400Y-11214425D01*
X9793400Y-11112825D02*
X9691800Y-11214425D01*
X9742600Y-11112825D02*
X9742600Y-11214425D01*
X9691800Y-11163625D02*
X9793400Y-11163625D01*
X9945800Y-6540825D02*
X10047400Y-6642425D01*
X10047400Y-6540825D02*
X9945800Y-6642425D01*
X9996600Y-6540825D02*
X9996600Y-6642425D01*
X9945800Y-6591625D02*
X10047400Y-6591625D01*
X9945800Y-6794825D02*
X10047400Y-6896425D01*
X10047400Y-6794825D02*
X9945800Y-6896425D01*
X9996600Y-6794825D02*
X9996600Y-6896425D01*
X9945800Y-6845625D02*
X10047400Y-6845625D01*
X9945800Y-7048825D02*
X10047400Y-7150425D01*
X10047400Y-7048825D02*
X9945800Y-7150425D01*
X9996600Y-7048825D02*
X9996600Y-7150425D01*
X9945800Y-7099625D02*
X10047400Y-7099625D01*
X9945800Y-7302825D02*
X10047400Y-7404425D01*
X10047400Y-7302825D02*
X9945800Y-7404425D01*
X9996600Y-7302825D02*
X9996600Y-7404425D01*
X9945800Y-7353625D02*
X10047400Y-7353625D01*
X9945800Y-7556825D02*
X10047400Y-7658425D01*
X10047400Y-7556825D02*
X9945800Y-7658425D01*
X9996600Y-7556825D02*
X9996600Y-7658425D01*
X9945800Y-7607625D02*
X10047400Y-7607625D01*
X9945800Y-7810825D02*
X10047400Y-7912425D01*
X10047400Y-7810825D02*
X9945800Y-7912425D01*
X9996600Y-7810825D02*
X9996600Y-7912425D01*
X9945800Y-7861625D02*
X10047400Y-7861625D01*
X9945800Y-8064825D02*
X10047400Y-8166425D01*
X10047400Y-8064825D02*
X9945800Y-8166425D01*
X9996600Y-8064825D02*
X9996600Y-8166425D01*
X9945800Y-8115625D02*
X10047400Y-8115625D01*
X9945800Y-8318825D02*
X10047400Y-8420425D01*
X10047400Y-8318825D02*
X9945800Y-8420425D01*
X9996600Y-8318825D02*
X9996600Y-8420425D01*
X9945800Y-8369625D02*
X10047400Y-8369625D01*
X9945800Y-8572825D02*
X10047400Y-8674425D01*
X10047400Y-8572825D02*
X9945800Y-8674425D01*
X9996600Y-8572825D02*
X9996600Y-8674425D01*
X9945800Y-8623625D02*
X10047400Y-8623625D01*
X9945800Y-8826825D02*
X10047400Y-8928425D01*
X10047400Y-8826825D02*
X9945800Y-8928425D01*
X9996600Y-8826825D02*
X9996600Y-8928425D01*
X9945800Y-8877625D02*
X10047400Y-8877625D01*
X9945800Y-9080825D02*
X10047400Y-9182425D01*
X10047400Y-9080825D02*
X9945800Y-9182425D01*
X9996600Y-9080825D02*
X9996600Y-9182425D01*
X9945800Y-9131625D02*
X10047400Y-9131625D01*
X9945800Y-9334825D02*
X10047400Y-9436425D01*
X10047400Y-9334825D02*
X9945800Y-9436425D01*
X9996600Y-9334825D02*
X9996600Y-9436425D01*
X9945800Y-9385625D02*
X10047400Y-9385625D01*
X9945800Y-9588825D02*
X10047400Y-9690425D01*
X10047400Y-9588825D02*
X9945800Y-9690425D01*
X9996600Y-9588825D02*
X9996600Y-9690425D01*
X9945800Y-9639625D02*
X10047400Y-9639625D01*
X9945800Y-9842825D02*
X10047400Y-9944425D01*
X10047400Y-9842825D02*
X9945800Y-9944425D01*
X9996600Y-9842825D02*
X9996600Y-9944425D01*
X9945800Y-9893625D02*
X10047400Y-9893625D01*
X9945800Y-10096825D02*
X10047400Y-10198425D01*
X10047400Y-10096825D02*
X9945800Y-10198425D01*
X9996600Y-10096825D02*
X9996600Y-10198425D01*
X9945800Y-10147625D02*
X10047400Y-10147625D01*
X9945800Y-10350825D02*
X10047400Y-10452425D01*
X10047400Y-10350825D02*
X9945800Y-10452425D01*
X9996600Y-10350825D02*
X9996600Y-10452425D01*
X9945800Y-10401625D02*
X10047400Y-10401625D01*
X9945800Y-10604825D02*
X10047400Y-10706425D01*
X10047400Y-10604825D02*
X9945800Y-10706425D01*
X9996600Y-10604825D02*
X9996600Y-10706425D01*
X9945800Y-10655625D02*
X10047400Y-10655625D01*
X9945800Y-10858825D02*
X10047400Y-10960425D01*
X10047400Y-10858825D02*
X9945800Y-10960425D01*
X9996600Y-10858825D02*
X9996600Y-10960425D01*
X9945800Y-10909625D02*
X10047400Y-10909625D01*
X9945800Y-11112825D02*
X10047400Y-11214425D01*
X10047400Y-11112825D02*
X9945800Y-11214425D01*
X9996600Y-11112825D02*
X9996600Y-11214425D01*
X9945800Y-11163625D02*
X10047400Y-11163625D01*
X15787800Y-6540825D02*
X15889400Y-6642425D01*
X15889400Y-6540825D02*
X15787800Y-6642425D01*
X15838600Y-6540825D02*
X15838600Y-6642425D01*
X15787800Y-6591625D02*
X15889400Y-6591625D01*
X15787800Y-6794825D02*
X15889400Y-6896425D01*
X15889400Y-6794825D02*
X15787800Y-6896425D01*
X15838600Y-6794825D02*
X15838600Y-6896425D01*
X15787800Y-6845625D02*
X15889400Y-6845625D01*
X15787800Y-7048825D02*
X15889400Y-7150425D01*
X15889400Y-7048825D02*
X15787800Y-7150425D01*
X15838600Y-7048825D02*
X15838600Y-7150425D01*
X15787800Y-7099625D02*
X15889400Y-7099625D01*
X15787800Y-7302825D02*
X15889400Y-7404425D01*
X15889400Y-7302825D02*
X15787800Y-7404425D01*
X15838600Y-7302825D02*
X15838600Y-7404425D01*
X15787800Y-7353625D02*
X15889400Y-7353625D01*
X15787800Y-7556825D02*
X15889400Y-7658425D01*
X15889400Y-7556825D02*
X15787800Y-7658425D01*
X15838600Y-7556825D02*
X15838600Y-7658425D01*
X15787800Y-7607625D02*
X15889400Y-7607625D01*
X15787800Y-7810825D02*
X15889400Y-7912425D01*
X15889400Y-7810825D02*
X15787800Y-7912425D01*
X15838600Y-7810825D02*
X15838600Y-7912425D01*
X15787800Y-7861625D02*
X15889400Y-7861625D01*
X15787800Y-8064825D02*
X15889400Y-8166425D01*
X15889400Y-8064825D02*
X15787800Y-8166425D01*
X15838600Y-8064825D02*
X15838600Y-8166425D01*
X15787800Y-8115625D02*
X15889400Y-8115625D01*
X15787800Y-8318825D02*
X15889400Y-8420425D01*
X15889400Y-8318825D02*
X15787800Y-8420425D01*
X15838600Y-8318825D02*
X15838600Y-8420425D01*
X15787800Y-8369625D02*
X15889400Y-8369625D01*
X15787800Y-8572825D02*
X15889400Y-8674425D01*
X15889400Y-8572825D02*
X15787800Y-8674425D01*
X15838600Y-8572825D02*
X15838600Y-8674425D01*
X15787800Y-8623625D02*
X15889400Y-8623625D01*
X15787800Y-8826825D02*
X15889400Y-8928425D01*
X15889400Y-8826825D02*
X15787800Y-8928425D01*
X15838600Y-8826825D02*
X15838600Y-8928425D01*
X15787800Y-8877625D02*
X15889400Y-8877625D01*
X15787800Y-9080825D02*
X15889400Y-9182425D01*
X15889400Y-9080825D02*
X15787800Y-9182425D01*
X15838600Y-9080825D02*
X15838600Y-9182425D01*
X15787800Y-9131625D02*
X15889400Y-9131625D01*
X15787800Y-9334825D02*
X15889400Y-9436425D01*
X15889400Y-9334825D02*
X15787800Y-9436425D01*
X15838600Y-9334825D02*
X15838600Y-9436425D01*
X15787800Y-9385625D02*
X15889400Y-9385625D01*
X15787800Y-9588825D02*
X15889400Y-9690425D01*
X15889400Y-9588825D02*
X15787800Y-9690425D01*
X15838600Y-9588825D02*
X15838600Y-9690425D01*
X15787800Y-9639625D02*
X15889400Y-9639625D01*
X15787800Y-9842825D02*
X15889400Y-9944425D01*
X15889400Y-9842825D02*
X15787800Y-9944425D01*
X15838600Y-9842825D02*
X15838600Y-9944425D01*
X15787800Y-9893625D02*
X15889400Y-9893625D01*
X15787800Y-10096825D02*
X15889400Y-10198425D01*
X15889400Y-10096825D02*
X15787800Y-10198425D01*
X15838600Y-10096825D02*
X15838600Y-10198425D01*
X15787800Y-10147625D02*
X15889400Y-10147625D01*
X15787800Y-10350825D02*
X15889400Y-10452425D01*
X15889400Y-10350825D02*
X15787800Y-10452425D01*
X15838600Y-10350825D02*
X15838600Y-10452425D01*
X15787800Y-10401625D02*
X15889400Y-10401625D01*
X15787800Y-10604825D02*
X15889400Y-10706425D01*
X15889400Y-10604825D02*
X15787800Y-10706425D01*
X15838600Y-10604825D02*
X15838600Y-10706425D01*
X15787800Y-10655625D02*
X15889400Y-10655625D01*
X15787800Y-10858825D02*
X15889400Y-10960425D01*
X15889400Y-10858825D02*
X15787800Y-10960425D01*
X15838600Y-10858825D02*
X15838600Y-10960425D01*
X15787800Y-10909625D02*
X15889400Y-10909625D01*
X15787800Y-11112825D02*
X15889400Y-11214425D01*
X15889400Y-11112825D02*
X15787800Y-11214425D01*
X15838600Y-11112825D02*
X15838600Y-11214425D01*
X15787800Y-11163625D02*
X15889400Y-11163625D01*
X16041800Y-6540825D02*
X16143400Y-6642425D01*
X16143400Y-6540825D02*
X16041800Y-6642425D01*
X16092600Y-6540825D02*
X16092600Y-6642425D01*
X16041800Y-6591625D02*
X16143400Y-6591625D01*
X16041800Y-6794825D02*
X16143400Y-6896425D01*
X16143400Y-6794825D02*
X16041800Y-6896425D01*
X16092600Y-6794825D02*
X16092600Y-6896425D01*
X16041800Y-6845625D02*
X16143400Y-6845625D01*
X16041800Y-7048825D02*
X16143400Y-7150425D01*
X16143400Y-7048825D02*
X16041800Y-7150425D01*
X16092600Y-7048825D02*
X16092600Y-7150425D01*
X16041800Y-7099625D02*
X16143400Y-7099625D01*
X16041800Y-7302825D02*
X16143400Y-7404425D01*
X16143400Y-7302825D02*
X16041800Y-7404425D01*
X16092600Y-7302825D02*
X16092600Y-7404425D01*
X16041800Y-7353625D02*
X16143400Y-7353625D01*
X16041800Y-7556825D02*
X16143400Y-7658425D01*
X16143400Y-7556825D02*
X16041800Y-7658425D01*
X16092600Y-7556825D02*
X16092600Y-7658425D01*
X16041800Y-7607625D02*
X16143400Y-7607625D01*
X16041800Y-7810825D02*
X16143400Y-7912425D01*
X16143400Y-7810825D02*
X16041800Y-7912425D01*
X16092600Y-7810825D02*
X16092600Y-7912425D01*
X16041800Y-7861625D02*
X16143400Y-7861625D01*
X16041800Y-8064825D02*
X16143400Y-8166425D01*
X16143400Y-8064825D02*
X16041800Y-8166425D01*
X16092600Y-8064825D02*
X16092600Y-8166425D01*
X16041800Y-8115625D02*
X16143400Y-8115625D01*
X16041800Y-8318825D02*
X16143400Y-8420425D01*
X16143400Y-8318825D02*
X16041800Y-8420425D01*
X16092600Y-8318825D02*
X16092600Y-8420425D01*
X16041800Y-8369625D02*
X16143400Y-8369625D01*
X16041800Y-8572825D02*
X16143400Y-8674425D01*
X16143400Y-8572825D02*
X16041800Y-8674425D01*
X16092600Y-8572825D02*
X16092600Y-8674425D01*
X16041800Y-8623625D02*
X16143400Y-8623625D01*
X16041800Y-8826825D02*
X16143400Y-8928425D01*
X16143400Y-8826825D02*
X16041800Y-8928425D01*
X16092600Y-8826825D02*
X16092600Y-8928425D01*
X16041800Y-8877625D02*
X16143400Y-8877625D01*
X16041800Y-9080825D02*
X16143400Y-9182425D01*
X16143400Y-9080825D02*
X16041800Y-9182425D01*
X16092600Y-9080825D02*
X16092600Y-9182425D01*
X16041800Y-9131625D02*
X16143400Y-9131625D01*
X16041800Y-9334825D02*
X16143400Y-9436425D01*
X16143400Y-9334825D02*
X16041800Y-9436425D01*
X16092600Y-9334825D02*
X16092600Y-9436425D01*
X16041800Y-9385625D02*
X16143400Y-9385625D01*
X16041800Y-9588825D02*
X16143400Y-9690425D01*
X16143400Y-9588825D02*
X16041800Y-9690425D01*
X16092600Y-9588825D02*
X16092600Y-9690425D01*
X16041800Y-9639625D02*
X16143400Y-9639625D01*
X16041800Y-9842825D02*
X16143400Y-9944425D01*
X16143400Y-9842825D02*
X16041800Y-9944425D01*
X16092600Y-9842825D02*
X16092600Y-9944425D01*
X16041800Y-9893625D02*
X16143400Y-9893625D01*
X16041800Y-10096825D02*
X16143400Y-10198425D01*
X16143400Y-10096825D02*
X16041800Y-10198425D01*
X16092600Y-10096825D02*
X16092600Y-10198425D01*
X16041800Y-10147625D02*
X16143400Y-10147625D01*
X16041800Y-10350825D02*
X16143400Y-10452425D01*
X16143400Y-10350825D02*
X16041800Y-10452425D01*
X16092600Y-10350825D02*
X16092600Y-10452425D01*
X16041800Y-10401625D02*
X16143400Y-10401625D01*
X16041800Y-10604825D02*
X16143400Y-10706425D01*
X16143400Y-10604825D02*
X16041800Y-10706425D01*
X16092600Y-10604825D02*
X16092600Y-10706425D01*
X16041800Y-10655625D02*
X16143400Y-10655625D01*
X16041800Y-10858825D02*
X16143400Y-10960425D01*
X16143400Y-10858825D02*
X16041800Y-10960425D01*
X16092600Y-10858825D02*
X16092600Y-10960425D01*
X16041800Y-10909625D02*
X16143400Y-10909625D01*
X16041800Y-11112825D02*
X16143400Y-11214425D01*
X16143400Y-11112825D02*
X16041800Y-11214425D01*
X16092600Y-11112825D02*
X16092600Y-11214425D01*
X16041800Y-11163625D02*
X16143400Y-11163625D01*
D14*
X6818000Y-6543000D02*
X6972000Y-6697000D01*
X6972000Y-6543000D02*
X6818000Y-6697000D01*
X6949448Y-6674448D02*
X6949448Y-6565552D01*
X6840552Y-6565552D01*
X6840552Y-6674448D01*
X6949448Y-6674448D01*
X6818000Y-10003000D02*
X6972000Y-10157000D01*
X6972000Y-10003000D02*
X6818000Y-10157000D01*
X6949448Y-10134448D02*
X6949448Y-10025552D01*
X6840552Y-10025552D01*
X6840552Y-10134448D01*
X6949448Y-10134448D01*
D15*
X6803500Y-13628500D02*
X6960500Y-13785500D01*
X6960500Y-13628500D02*
X6803500Y-13785500D01*
X6882000Y-13785500D02*
X6960500Y-13707000D01*
X6882000Y-13628500D01*
X6803500Y-13707000D01*
X6882000Y-13785500D01*
X8429500Y-13628500D02*
X8586500Y-13785500D01*
X8586500Y-13628500D02*
X8429500Y-13785500D01*
X8508000Y-13785500D02*
X8586500Y-13707000D01*
X8508000Y-13628500D01*
X8429500Y-13707000D01*
X8508000Y-13785500D01*
D11*
X5945777Y-14926484D02*
X5945777Y-14726484D01*
X5945777Y-14726484D02*
X5993396Y-14726484D01*
X5993396Y-14726484D02*
X6021967Y-14736008D01*
X6021967Y-14736008D02*
X6041015Y-14755055D01*
X6041015Y-14755055D02*
X6050539Y-14774103D01*
X6050539Y-14774103D02*
X6060062Y-14812198D01*
X6060062Y-14812198D02*
X6060062Y-14840769D01*
X6060062Y-14840769D02*
X6050539Y-14878865D01*
X6050539Y-14878865D02*
X6041015Y-14897912D01*
X6041015Y-14897912D02*
X6021967Y-14916960D01*
X6021967Y-14916960D02*
X5993396Y-14926484D01*
X5993396Y-14926484D02*
X5945777Y-14926484D01*
X6145777Y-14926484D02*
X6145777Y-14793150D01*
X6145777Y-14831246D02*
X6155301Y-14812198D01*
X6155301Y-14812198D02*
X6164824Y-14802674D01*
X6164824Y-14802674D02*
X6183872Y-14793150D01*
X6183872Y-14793150D02*
X6202920Y-14793150D01*
X6269586Y-14926484D02*
X6269586Y-14793150D01*
X6269586Y-14726484D02*
X6260062Y-14736008D01*
X6260062Y-14736008D02*
X6269586Y-14745531D01*
X6269586Y-14745531D02*
X6279110Y-14736008D01*
X6279110Y-14736008D02*
X6269586Y-14726484D01*
X6269586Y-14726484D02*
X6269586Y-14745531D01*
X6393396Y-14926484D02*
X6374348Y-14916960D01*
X6374348Y-14916960D02*
X6364824Y-14897912D01*
X6364824Y-14897912D02*
X6364824Y-14726484D01*
X6498158Y-14926484D02*
X6479110Y-14916960D01*
X6479110Y-14916960D02*
X6469586Y-14897912D01*
X6469586Y-14897912D02*
X6469586Y-14726484D01*
X6726729Y-14926484D02*
X6726729Y-14726484D01*
X6726729Y-14726484D02*
X6793396Y-14869341D01*
X6793396Y-14869341D02*
X6860062Y-14726484D01*
X6860062Y-14726484D02*
X6860062Y-14926484D01*
X7041015Y-14926484D02*
X7041015Y-14821722D01*
X7041015Y-14821722D02*
X7031491Y-14802674D01*
X7031491Y-14802674D02*
X7012443Y-14793150D01*
X7012443Y-14793150D02*
X6974348Y-14793150D01*
X6974348Y-14793150D02*
X6955301Y-14802674D01*
X7041015Y-14916960D02*
X7021967Y-14926484D01*
X7021967Y-14926484D02*
X6974348Y-14926484D01*
X6974348Y-14926484D02*
X6955301Y-14916960D01*
X6955301Y-14916960D02*
X6945777Y-14897912D01*
X6945777Y-14897912D02*
X6945777Y-14878865D01*
X6945777Y-14878865D02*
X6955301Y-14859817D01*
X6955301Y-14859817D02*
X6974348Y-14850293D01*
X6974348Y-14850293D02*
X7021967Y-14850293D01*
X7021967Y-14850293D02*
X7041015Y-14840769D01*
X7136253Y-14793150D02*
X7136253Y-14993150D01*
X7136253Y-14802674D02*
X7155301Y-14793150D01*
X7155301Y-14793150D02*
X7193396Y-14793150D01*
X7193396Y-14793150D02*
X7212443Y-14802674D01*
X7212443Y-14802674D02*
X7221967Y-14812198D01*
X7221967Y-14812198D02*
X7231491Y-14831246D01*
X7231491Y-14831246D02*
X7231491Y-14888388D01*
X7231491Y-14888388D02*
X7221967Y-14907436D01*
X7221967Y-14907436D02*
X7212443Y-14916960D01*
X7212443Y-14916960D02*
X7193396Y-14926484D01*
X7193396Y-14926484D02*
X7155301Y-14926484D01*
X7155301Y-14926484D02*
X7136253Y-14916960D01*
X7317205Y-14907436D02*
X7326729Y-14916960D01*
X7326729Y-14916960D02*
X7317205Y-14926484D01*
X7317205Y-14926484D02*
X7307682Y-14916960D01*
X7307682Y-14916960D02*
X7317205Y-14907436D01*
X7317205Y-14907436D02*
X7317205Y-14926484D01*
X7317205Y-14802674D02*
X7326729Y-14812198D01*
X7326729Y-14812198D02*
X7317205Y-14821722D01*
X7317205Y-14821722D02*
X7307682Y-14812198D01*
X7307682Y-14812198D02*
X7317205Y-14802674D01*
X7317205Y-14802674D02*
X7317205Y-14821722D01*
D12*
X5655000Y-15240000D02*
X5685000Y-15270000D01*
X5685000Y-15240000D02*
X5655000Y-15270000D01*
D11*
X5983872Y-15146484D02*
X6002920Y-15146484D01*
X6002920Y-15146484D02*
X6021967Y-15156008D01*
X6021967Y-15156008D02*
X6031491Y-15165531D01*
X6031491Y-15165531D02*
X6041015Y-15184579D01*
X6041015Y-15184579D02*
X6050539Y-15222674D01*
X6050539Y-15222674D02*
X6050539Y-15270293D01*
X6050539Y-15270293D02*
X6041015Y-15308388D01*
X6041015Y-15308388D02*
X6031491Y-15327436D01*
X6031491Y-15327436D02*
X6021967Y-15336960D01*
X6021967Y-15336960D02*
X6002920Y-15346484D01*
X6002920Y-15346484D02*
X5983872Y-15346484D01*
X5983872Y-15346484D02*
X5964824Y-15336960D01*
X5964824Y-15336960D02*
X5955301Y-15327436D01*
X5955301Y-15327436D02*
X5945777Y-15308388D01*
X5945777Y-15308388D02*
X5936253Y-15270293D01*
X5936253Y-15270293D02*
X5936253Y-15222674D01*
X5936253Y-15222674D02*
X5945777Y-15184579D01*
X5945777Y-15184579D02*
X5955301Y-15165531D01*
X5955301Y-15165531D02*
X5964824Y-15156008D01*
X5964824Y-15156008D02*
X5983872Y-15146484D01*
X6136253Y-15327436D02*
X6145777Y-15336960D01*
X6145777Y-15336960D02*
X6136253Y-15346484D01*
X6136253Y-15346484D02*
X6126729Y-15336960D01*
X6126729Y-15336960D02*
X6136253Y-15327436D01*
X6136253Y-15327436D02*
X6136253Y-15346484D01*
X6212443Y-15146484D02*
X6336253Y-15146484D01*
X6336253Y-15146484D02*
X6269586Y-15222674D01*
X6269586Y-15222674D02*
X6298158Y-15222674D01*
X6298158Y-15222674D02*
X6317205Y-15232198D01*
X6317205Y-15232198D02*
X6326729Y-15241722D01*
X6326729Y-15241722D02*
X6336253Y-15260769D01*
X6336253Y-15260769D02*
X6336253Y-15308388D01*
X6336253Y-15308388D02*
X6326729Y-15327436D01*
X6326729Y-15327436D02*
X6317205Y-15336960D01*
X6317205Y-15336960D02*
X6298158Y-15346484D01*
X6298158Y-15346484D02*
X6241015Y-15346484D01*
X6241015Y-15346484D02*
X6221967Y-15336960D01*
X6221967Y-15336960D02*
X6212443Y-15327436D01*
X6460062Y-15146484D02*
X6479110Y-15146484D01*
X6479110Y-15146484D02*
X6498158Y-15156008D01*
X6498158Y-15156008D02*
X6507682Y-15165531D01*
X6507682Y-15165531D02*
X6517205Y-15184579D01*
X6517205Y-15184579D02*
X6526729Y-15222674D01*
X6526729Y-15222674D02*
X6526729Y-15270293D01*
X6526729Y-15270293D02*
X6517205Y-15308388D01*
X6517205Y-15308388D02*
X6507682Y-15327436D01*
X6507682Y-15327436D02*
X6498158Y-15336960D01*
X6498158Y-15336960D02*
X6479110Y-15346484D01*
X6479110Y-15346484D02*
X6460062Y-15346484D01*
X6460062Y-15346484D02*
X6441015Y-15336960D01*
X6441015Y-15336960D02*
X6431491Y-15327436D01*
X6431491Y-15327436D02*
X6421967Y-15308388D01*
X6421967Y-15308388D02*
X6412443Y-15270293D01*
X6412443Y-15270293D02*
X6412443Y-15222674D01*
X6412443Y-15222674D02*
X6421967Y-15184579D01*
X6421967Y-15184579D02*
X6431491Y-15165531D01*
X6431491Y-15165531D02*
X6441015Y-15156008D01*
X6441015Y-15156008D02*
X6460062Y-15146484D01*
X6650539Y-15146484D02*
X6669586Y-15146484D01*
X6669586Y-15146484D02*
X6688634Y-15156008D01*
X6688634Y-15156008D02*
X6698158Y-15165531D01*
X6698158Y-15165531D02*
X6707682Y-15184579D01*
X6707682Y-15184579D02*
X6717205Y-15222674D01*
X6717205Y-15222674D02*
X6717205Y-15270293D01*
X6717205Y-15270293D02*
X6707682Y-15308388D01*
X6707682Y-15308388D02*
X6698158Y-15327436D01*
X6698158Y-15327436D02*
X6688634Y-15336960D01*
X6688634Y-15336960D02*
X6669586Y-15346484D01*
X6669586Y-15346484D02*
X6650539Y-15346484D01*
X6650539Y-15346484D02*
X6631491Y-15336960D01*
X6631491Y-15336960D02*
X6621967Y-15327436D01*
X6621967Y-15327436D02*
X6612443Y-15308388D01*
X6612443Y-15308388D02*
X6602920Y-15270293D01*
X6602920Y-15270293D02*
X6602920Y-15222674D01*
X6602920Y-15222674D02*
X6612443Y-15184579D01*
X6612443Y-15184579D02*
X6621967Y-15165531D01*
X6621967Y-15165531D02*
X6631491Y-15156008D01*
X6631491Y-15156008D02*
X6650539Y-15146484D01*
X6802920Y-15346484D02*
X6802920Y-15213150D01*
X6802920Y-15232198D02*
X6812443Y-15222674D01*
X6812443Y-15222674D02*
X6831491Y-15213150D01*
X6831491Y-15213150D02*
X6860063Y-15213150D01*
X6860063Y-15213150D02*
X6879110Y-15222674D01*
X6879110Y-15222674D02*
X6888634Y-15241722D01*
X6888634Y-15241722D02*
X6888634Y-15346484D01*
X6888634Y-15241722D02*
X6898158Y-15222674D01*
X6898158Y-15222674D02*
X6917205Y-15213150D01*
X6917205Y-15213150D02*
X6945777Y-15213150D01*
X6945777Y-15213150D02*
X6964824Y-15222674D01*
X6964824Y-15222674D02*
X6974348Y-15241722D01*
X6974348Y-15241722D02*
X6974348Y-15346484D01*
X7069586Y-15346484D02*
X7069586Y-15213150D01*
X7069586Y-15232198D02*
X7079110Y-15222674D01*
X7079110Y-15222674D02*
X7098158Y-15213150D01*
X7098158Y-15213150D02*
X7126729Y-15213150D01*
X7126729Y-15213150D02*
X7145777Y-15222674D01*
X7145777Y-15222674D02*
X7155301Y-15241722D01*
X7155301Y-15241722D02*
X7155301Y-15346484D01*
X7155301Y-15241722D02*
X7164824Y-15222674D01*
X7164824Y-15222674D02*
X7183872Y-15213150D01*
X7183872Y-15213150D02*
X7212443Y-15213150D01*
X7212443Y-15213150D02*
X7231491Y-15222674D01*
X7231491Y-15222674D02*
X7241015Y-15241722D01*
X7241015Y-15241722D02*
X7241015Y-15346484D01*
X7631491Y-15136960D02*
X7460063Y-15394103D01*
X7888634Y-15146484D02*
X7907682Y-15146484D01*
X7907682Y-15146484D02*
X7926729Y-15156008D01*
X7926729Y-15156008D02*
X7936253Y-15165531D01*
X7936253Y-15165531D02*
X7945777Y-15184579D01*
X7945777Y-15184579D02*
X7955301Y-15222674D01*
X7955301Y-15222674D02*
X7955301Y-15270293D01*
X7955301Y-15270293D02*
X7945777Y-15308388D01*
X7945777Y-15308388D02*
X7936253Y-15327436D01*
X7936253Y-15327436D02*
X7926729Y-15336960D01*
X7926729Y-15336960D02*
X7907682Y-15346484D01*
X7907682Y-15346484D02*
X7888634Y-15346484D01*
X7888634Y-15346484D02*
X7869586Y-15336960D01*
X7869586Y-15336960D02*
X7860063Y-15327436D01*
X7860063Y-15327436D02*
X7850539Y-15308388D01*
X7850539Y-15308388D02*
X7841015Y-15270293D01*
X7841015Y-15270293D02*
X7841015Y-15222674D01*
X7841015Y-15222674D02*
X7850539Y-15184579D01*
X7850539Y-15184579D02*
X7860063Y-15165531D01*
X7860063Y-15165531D02*
X7869586Y-15156008D01*
X7869586Y-15156008D02*
X7888634Y-15146484D01*
X8041015Y-15327436D02*
X8050539Y-15336960D01*
X8050539Y-15336960D02*
X8041015Y-15346484D01*
X8041015Y-15346484D02*
X8031491Y-15336960D01*
X8031491Y-15336960D02*
X8041015Y-15327436D01*
X8041015Y-15327436D02*
X8041015Y-15346484D01*
X8174348Y-15146484D02*
X8193396Y-15146484D01*
X8193396Y-15146484D02*
X8212444Y-15156008D01*
X8212444Y-15156008D02*
X8221967Y-15165531D01*
X8221967Y-15165531D02*
X8231491Y-15184579D01*
X8231491Y-15184579D02*
X8241015Y-15222674D01*
X8241015Y-15222674D02*
X8241015Y-15270293D01*
X8241015Y-15270293D02*
X8231491Y-15308388D01*
X8231491Y-15308388D02*
X8221967Y-15327436D01*
X8221967Y-15327436D02*
X8212444Y-15336960D01*
X8212444Y-15336960D02*
X8193396Y-15346484D01*
X8193396Y-15346484D02*
X8174348Y-15346484D01*
X8174348Y-15346484D02*
X8155301Y-15336960D01*
X8155301Y-15336960D02*
X8145777Y-15327436D01*
X8145777Y-15327436D02*
X8136253Y-15308388D01*
X8136253Y-15308388D02*
X8126729Y-15270293D01*
X8126729Y-15270293D02*
X8126729Y-15222674D01*
X8126729Y-15222674D02*
X8136253Y-15184579D01*
X8136253Y-15184579D02*
X8145777Y-15165531D01*
X8145777Y-15165531D02*
X8155301Y-15156008D01*
X8155301Y-15156008D02*
X8174348Y-15146484D01*
X8431491Y-15346484D02*
X8317206Y-15346484D01*
X8374348Y-15346484D02*
X8374348Y-15146484D01*
X8374348Y-15146484D02*
X8355301Y-15175055D01*
X8355301Y-15175055D02*
X8336253Y-15194103D01*
X8336253Y-15194103D02*
X8317206Y-15203627D01*
X8621968Y-15346484D02*
X8507682Y-15346484D01*
X8564825Y-15346484D02*
X8564825Y-15146484D01*
X8564825Y-15146484D02*
X8545777Y-15175055D01*
X8545777Y-15175055D02*
X8526729Y-15194103D01*
X8526729Y-15194103D02*
X8507682Y-15203627D01*
X8736253Y-15232198D02*
X8717206Y-15222674D01*
X8717206Y-15222674D02*
X8707682Y-15213150D01*
X8707682Y-15213150D02*
X8698158Y-15194103D01*
X8698158Y-15194103D02*
X8698158Y-15184579D01*
X8698158Y-15184579D02*
X8707682Y-15165531D01*
X8707682Y-15165531D02*
X8717206Y-15156008D01*
X8717206Y-15156008D02*
X8736253Y-15146484D01*
X8736253Y-15146484D02*
X8774349Y-15146484D01*
X8774349Y-15146484D02*
X8793396Y-15156008D01*
X8793396Y-15156008D02*
X8802920Y-15165531D01*
X8802920Y-15165531D02*
X8812444Y-15184579D01*
X8812444Y-15184579D02*
X8812444Y-15194103D01*
X8812444Y-15194103D02*
X8802920Y-15213150D01*
X8802920Y-15213150D02*
X8793396Y-15222674D01*
X8793396Y-15222674D02*
X8774349Y-15232198D01*
X8774349Y-15232198D02*
X8736253Y-15232198D01*
X8736253Y-15232198D02*
X8717206Y-15241722D01*
X8717206Y-15241722D02*
X8707682Y-15251246D01*
X8707682Y-15251246D02*
X8698158Y-15270293D01*
X8698158Y-15270293D02*
X8698158Y-15308388D01*
X8698158Y-15308388D02*
X8707682Y-15327436D01*
X8707682Y-15327436D02*
X8717206Y-15336960D01*
X8717206Y-15336960D02*
X8736253Y-15346484D01*
X8736253Y-15346484D02*
X8774349Y-15346484D01*
X8774349Y-15346484D02*
X8793396Y-15336960D01*
X8793396Y-15336960D02*
X8802920Y-15327436D01*
X8802920Y-15327436D02*
X8812444Y-15308388D01*
X8812444Y-15308388D02*
X8812444Y-15270293D01*
X8812444Y-15270293D02*
X8802920Y-15251246D01*
X8802920Y-15251246D02*
X8793396Y-15241722D01*
X8793396Y-15241722D02*
X8774349Y-15232198D01*
X8888634Y-15146484D02*
X8888634Y-15184579D01*
X8964825Y-15146484D02*
X8964825Y-15184579D01*
X9260063Y-15422674D02*
X9250539Y-15413150D01*
X9250539Y-15413150D02*
X9231491Y-15384579D01*
X9231491Y-15384579D02*
X9221968Y-15365531D01*
X9221968Y-15365531D02*
X9212444Y-15336960D01*
X9212444Y-15336960D02*
X9202920Y-15289341D01*
X9202920Y-15289341D02*
X9202920Y-15251246D01*
X9202920Y-15251246D02*
X9212444Y-15203627D01*
X9212444Y-15203627D02*
X9221968Y-15175055D01*
X9221968Y-15175055D02*
X9231491Y-15156008D01*
X9231491Y-15156008D02*
X9250539Y-15127436D01*
X9250539Y-15127436D02*
X9260063Y-15117912D01*
X9431491Y-15146484D02*
X9336253Y-15146484D01*
X9336253Y-15146484D02*
X9326730Y-15241722D01*
X9326730Y-15241722D02*
X9336253Y-15232198D01*
X9336253Y-15232198D02*
X9355301Y-15222674D01*
X9355301Y-15222674D02*
X9402920Y-15222674D01*
X9402920Y-15222674D02*
X9421968Y-15232198D01*
X9421968Y-15232198D02*
X9431491Y-15241722D01*
X9431491Y-15241722D02*
X9441015Y-15260769D01*
X9441015Y-15260769D02*
X9441015Y-15308388D01*
X9441015Y-15308388D02*
X9431491Y-15327436D01*
X9431491Y-15327436D02*
X9421968Y-15336960D01*
X9421968Y-15336960D02*
X9402920Y-15346484D01*
X9402920Y-15346484D02*
X9355301Y-15346484D01*
X9355301Y-15346484D02*
X9336253Y-15336960D01*
X9336253Y-15336960D02*
X9326730Y-15327436D01*
X9564825Y-15146484D02*
X9583872Y-15146484D01*
X9583872Y-15146484D02*
X9602920Y-15156008D01*
X9602920Y-15156008D02*
X9612444Y-15165531D01*
X9612444Y-15165531D02*
X9621968Y-15184579D01*
X9621968Y-15184579D02*
X9631491Y-15222674D01*
X9631491Y-15222674D02*
X9631491Y-15270293D01*
X9631491Y-15270293D02*
X9621968Y-15308388D01*
X9621968Y-15308388D02*
X9612444Y-15327436D01*
X9612444Y-15327436D02*
X9602920Y-15336960D01*
X9602920Y-15336960D02*
X9583872Y-15346484D01*
X9583872Y-15346484D02*
X9564825Y-15346484D01*
X9564825Y-15346484D02*
X9545777Y-15336960D01*
X9545777Y-15336960D02*
X9536253Y-15327436D01*
X9536253Y-15327436D02*
X9526730Y-15308388D01*
X9526730Y-15308388D02*
X9517206Y-15270293D01*
X9517206Y-15270293D02*
X9517206Y-15222674D01*
X9517206Y-15222674D02*
X9526730Y-15184579D01*
X9526730Y-15184579D02*
X9536253Y-15165531D01*
X9536253Y-15165531D02*
X9545777Y-15156008D01*
X9545777Y-15156008D02*
X9564825Y-15146484D01*
X9812444Y-15146484D02*
X9717206Y-15146484D01*
X9717206Y-15146484D02*
X9707682Y-15241722D01*
X9707682Y-15241722D02*
X9717206Y-15232198D01*
X9717206Y-15232198D02*
X9736253Y-15222674D01*
X9736253Y-15222674D02*
X9783872Y-15222674D01*
X9783872Y-15222674D02*
X9802920Y-15232198D01*
X9802920Y-15232198D02*
X9812444Y-15241722D01*
X9812444Y-15241722D02*
X9821968Y-15260769D01*
X9821968Y-15260769D02*
X9821968Y-15308388D01*
X9821968Y-15308388D02*
X9812444Y-15327436D01*
X9812444Y-15327436D02*
X9802920Y-15336960D01*
X9802920Y-15336960D02*
X9783872Y-15346484D01*
X9783872Y-15346484D02*
X9736253Y-15346484D01*
X9736253Y-15346484D02*
X9717206Y-15336960D01*
X9717206Y-15336960D02*
X9707682Y-15327436D01*
X10060063Y-15346484D02*
X10060063Y-15146484D01*
X10145777Y-15346484D02*
X10145777Y-15241722D01*
X10145777Y-15241722D02*
X10136253Y-15222674D01*
X10136253Y-15222674D02*
X10117206Y-15213150D01*
X10117206Y-15213150D02*
X10088634Y-15213150D01*
X10088634Y-15213150D02*
X10069587Y-15222674D01*
X10069587Y-15222674D02*
X10060063Y-15232198D01*
X10269587Y-15346484D02*
X10250539Y-15336960D01*
X10250539Y-15336960D02*
X10241015Y-15327436D01*
X10241015Y-15327436D02*
X10231492Y-15308388D01*
X10231492Y-15308388D02*
X10231492Y-15251246D01*
X10231492Y-15251246D02*
X10241015Y-15232198D01*
X10241015Y-15232198D02*
X10250539Y-15222674D01*
X10250539Y-15222674D02*
X10269587Y-15213150D01*
X10269587Y-15213150D02*
X10298158Y-15213150D01*
X10298158Y-15213150D02*
X10317206Y-15222674D01*
X10317206Y-15222674D02*
X10326730Y-15232198D01*
X10326730Y-15232198D02*
X10336253Y-15251246D01*
X10336253Y-15251246D02*
X10336253Y-15308388D01*
X10336253Y-15308388D02*
X10326730Y-15327436D01*
X10326730Y-15327436D02*
X10317206Y-15336960D01*
X10317206Y-15336960D02*
X10298158Y-15346484D01*
X10298158Y-15346484D02*
X10269587Y-15346484D01*
X10450539Y-15346484D02*
X10431492Y-15336960D01*
X10431492Y-15336960D02*
X10421968Y-15317912D01*
X10421968Y-15317912D02*
X10421968Y-15146484D01*
X10602920Y-15336960D02*
X10583873Y-15346484D01*
X10583873Y-15346484D02*
X10545777Y-15346484D01*
X10545777Y-15346484D02*
X10526730Y-15336960D01*
X10526730Y-15336960D02*
X10517206Y-15317912D01*
X10517206Y-15317912D02*
X10517206Y-15241722D01*
X10517206Y-15241722D02*
X10526730Y-15222674D01*
X10526730Y-15222674D02*
X10545777Y-15213150D01*
X10545777Y-15213150D02*
X10583873Y-15213150D01*
X10583873Y-15213150D02*
X10602920Y-15222674D01*
X10602920Y-15222674D02*
X10612444Y-15241722D01*
X10612444Y-15241722D02*
X10612444Y-15260769D01*
X10612444Y-15260769D02*
X10517206Y-15279817D01*
X10688634Y-15336960D02*
X10707682Y-15346484D01*
X10707682Y-15346484D02*
X10745777Y-15346484D01*
X10745777Y-15346484D02*
X10764825Y-15336960D01*
X10764825Y-15336960D02*
X10774349Y-15317912D01*
X10774349Y-15317912D02*
X10774349Y-15308388D01*
X10774349Y-15308388D02*
X10764825Y-15289341D01*
X10764825Y-15289341D02*
X10745777Y-15279817D01*
X10745777Y-15279817D02*
X10717206Y-15279817D01*
X10717206Y-15279817D02*
X10698158Y-15270293D01*
X10698158Y-15270293D02*
X10688634Y-15251246D01*
X10688634Y-15251246D02*
X10688634Y-15241722D01*
X10688634Y-15241722D02*
X10698158Y-15222674D01*
X10698158Y-15222674D02*
X10717206Y-15213150D01*
X10717206Y-15213150D02*
X10745777Y-15213150D01*
X10745777Y-15213150D02*
X10764825Y-15222674D01*
X10841015Y-15422674D02*
X10850539Y-15413150D01*
X10850539Y-15413150D02*
X10869587Y-15384579D01*
X10869587Y-15384579D02*
X10879111Y-15365531D01*
X10879111Y-15365531D02*
X10888634Y-15336960D01*
X10888634Y-15336960D02*
X10898158Y-15289341D01*
X10898158Y-15289341D02*
X10898158Y-15251246D01*
X10898158Y-15251246D02*
X10888634Y-15203627D01*
X10888634Y-15203627D02*
X10879111Y-15175055D01*
X10879111Y-15175055D02*
X10869587Y-15156008D01*
X10869587Y-15156008D02*
X10850539Y-15127436D01*
X10850539Y-15127436D02*
X10841015Y-15117912D01*
D12*
X5685000Y-15519000D02*
G75*
G02*
X5655000Y-15519000I-15000J0D01*
G01*
X5655000Y-15519000D02*
G75*
G02*
X5685000Y-15519000I15000J0D01*
G01*
D11*
X5983872Y-15410484D02*
X6002920Y-15410484D01*
X6002920Y-15410484D02*
X6021967Y-15420008D01*
X6021967Y-15420008D02*
X6031491Y-15429531D01*
X6031491Y-15429531D02*
X6041015Y-15448579D01*
X6041015Y-15448579D02*
X6050539Y-15486674D01*
X6050539Y-15486674D02*
X6050539Y-15534293D01*
X6050539Y-15534293D02*
X6041015Y-15572388D01*
X6041015Y-15572388D02*
X6031491Y-15591436D01*
X6031491Y-15591436D02*
X6021967Y-15600960D01*
X6021967Y-15600960D02*
X6002920Y-15610484D01*
X6002920Y-15610484D02*
X5983872Y-15610484D01*
X5983872Y-15610484D02*
X5964824Y-15600960D01*
X5964824Y-15600960D02*
X5955301Y-15591436D01*
X5955301Y-15591436D02*
X5945777Y-15572388D01*
X5945777Y-15572388D02*
X5936253Y-15534293D01*
X5936253Y-15534293D02*
X5936253Y-15486674D01*
X5936253Y-15486674D02*
X5945777Y-15448579D01*
X5945777Y-15448579D02*
X5955301Y-15429531D01*
X5955301Y-15429531D02*
X5964824Y-15420008D01*
X5964824Y-15420008D02*
X5983872Y-15410484D01*
X6136253Y-15591436D02*
X6145777Y-15600960D01*
X6145777Y-15600960D02*
X6136253Y-15610484D01*
X6136253Y-15610484D02*
X6126729Y-15600960D01*
X6126729Y-15600960D02*
X6136253Y-15591436D01*
X6136253Y-15591436D02*
X6136253Y-15610484D01*
X6212443Y-15410484D02*
X6336253Y-15410484D01*
X6336253Y-15410484D02*
X6269586Y-15486674D01*
X6269586Y-15486674D02*
X6298158Y-15486674D01*
X6298158Y-15486674D02*
X6317205Y-15496198D01*
X6317205Y-15496198D02*
X6326729Y-15505722D01*
X6326729Y-15505722D02*
X6336253Y-15524769D01*
X6336253Y-15524769D02*
X6336253Y-15572388D01*
X6336253Y-15572388D02*
X6326729Y-15591436D01*
X6326729Y-15591436D02*
X6317205Y-15600960D01*
X6317205Y-15600960D02*
X6298158Y-15610484D01*
X6298158Y-15610484D02*
X6241015Y-15610484D01*
X6241015Y-15610484D02*
X6221967Y-15600960D01*
X6221967Y-15600960D02*
X6212443Y-15591436D01*
X6460062Y-15410484D02*
X6479110Y-15410484D01*
X6479110Y-15410484D02*
X6498158Y-15420008D01*
X6498158Y-15420008D02*
X6507682Y-15429531D01*
X6507682Y-15429531D02*
X6517205Y-15448579D01*
X6517205Y-15448579D02*
X6526729Y-15486674D01*
X6526729Y-15486674D02*
X6526729Y-15534293D01*
X6526729Y-15534293D02*
X6517205Y-15572388D01*
X6517205Y-15572388D02*
X6507682Y-15591436D01*
X6507682Y-15591436D02*
X6498158Y-15600960D01*
X6498158Y-15600960D02*
X6479110Y-15610484D01*
X6479110Y-15610484D02*
X6460062Y-15610484D01*
X6460062Y-15610484D02*
X6441015Y-15600960D01*
X6441015Y-15600960D02*
X6431491Y-15591436D01*
X6431491Y-15591436D02*
X6421967Y-15572388D01*
X6421967Y-15572388D02*
X6412443Y-15534293D01*
X6412443Y-15534293D02*
X6412443Y-15486674D01*
X6412443Y-15486674D02*
X6421967Y-15448579D01*
X6421967Y-15448579D02*
X6431491Y-15429531D01*
X6431491Y-15429531D02*
X6441015Y-15420008D01*
X6441015Y-15420008D02*
X6460062Y-15410484D01*
X6650539Y-15410484D02*
X6669586Y-15410484D01*
X6669586Y-15410484D02*
X6688634Y-15420008D01*
X6688634Y-15420008D02*
X6698158Y-15429531D01*
X6698158Y-15429531D02*
X6707682Y-15448579D01*
X6707682Y-15448579D02*
X6717205Y-15486674D01*
X6717205Y-15486674D02*
X6717205Y-15534293D01*
X6717205Y-15534293D02*
X6707682Y-15572388D01*
X6707682Y-15572388D02*
X6698158Y-15591436D01*
X6698158Y-15591436D02*
X6688634Y-15600960D01*
X6688634Y-15600960D02*
X6669586Y-15610484D01*
X6669586Y-15610484D02*
X6650539Y-15610484D01*
X6650539Y-15610484D02*
X6631491Y-15600960D01*
X6631491Y-15600960D02*
X6621967Y-15591436D01*
X6621967Y-15591436D02*
X6612443Y-15572388D01*
X6612443Y-15572388D02*
X6602920Y-15534293D01*
X6602920Y-15534293D02*
X6602920Y-15486674D01*
X6602920Y-15486674D02*
X6612443Y-15448579D01*
X6612443Y-15448579D02*
X6621967Y-15429531D01*
X6621967Y-15429531D02*
X6631491Y-15420008D01*
X6631491Y-15420008D02*
X6650539Y-15410484D01*
X6802920Y-15610484D02*
X6802920Y-15477150D01*
X6802920Y-15496198D02*
X6812443Y-15486674D01*
X6812443Y-15486674D02*
X6831491Y-15477150D01*
X6831491Y-15477150D02*
X6860063Y-15477150D01*
X6860063Y-15477150D02*
X6879110Y-15486674D01*
X6879110Y-15486674D02*
X6888634Y-15505722D01*
X6888634Y-15505722D02*
X6888634Y-15610484D01*
X6888634Y-15505722D02*
X6898158Y-15486674D01*
X6898158Y-15486674D02*
X6917205Y-15477150D01*
X6917205Y-15477150D02*
X6945777Y-15477150D01*
X6945777Y-15477150D02*
X6964824Y-15486674D01*
X6964824Y-15486674D02*
X6974348Y-15505722D01*
X6974348Y-15505722D02*
X6974348Y-15610484D01*
X7069586Y-15610484D02*
X7069586Y-15477150D01*
X7069586Y-15496198D02*
X7079110Y-15486674D01*
X7079110Y-15486674D02*
X7098158Y-15477150D01*
X7098158Y-15477150D02*
X7126729Y-15477150D01*
X7126729Y-15477150D02*
X7145777Y-15486674D01*
X7145777Y-15486674D02*
X7155301Y-15505722D01*
X7155301Y-15505722D02*
X7155301Y-15610484D01*
X7155301Y-15505722D02*
X7164824Y-15486674D01*
X7164824Y-15486674D02*
X7183872Y-15477150D01*
X7183872Y-15477150D02*
X7212443Y-15477150D01*
X7212443Y-15477150D02*
X7231491Y-15486674D01*
X7231491Y-15486674D02*
X7241015Y-15505722D01*
X7241015Y-15505722D02*
X7241015Y-15610484D01*
X7631491Y-15400960D02*
X7460063Y-15658103D01*
X7888634Y-15410484D02*
X7907682Y-15410484D01*
X7907682Y-15410484D02*
X7926729Y-15420008D01*
X7926729Y-15420008D02*
X7936253Y-15429531D01*
X7936253Y-15429531D02*
X7945777Y-15448579D01*
X7945777Y-15448579D02*
X7955301Y-15486674D01*
X7955301Y-15486674D02*
X7955301Y-15534293D01*
X7955301Y-15534293D02*
X7945777Y-15572388D01*
X7945777Y-15572388D02*
X7936253Y-15591436D01*
X7936253Y-15591436D02*
X7926729Y-15600960D01*
X7926729Y-15600960D02*
X7907682Y-15610484D01*
X7907682Y-15610484D02*
X7888634Y-15610484D01*
X7888634Y-15610484D02*
X7869586Y-15600960D01*
X7869586Y-15600960D02*
X7860063Y-15591436D01*
X7860063Y-15591436D02*
X7850539Y-15572388D01*
X7850539Y-15572388D02*
X7841015Y-15534293D01*
X7841015Y-15534293D02*
X7841015Y-15486674D01*
X7841015Y-15486674D02*
X7850539Y-15448579D01*
X7850539Y-15448579D02*
X7860063Y-15429531D01*
X7860063Y-15429531D02*
X7869586Y-15420008D01*
X7869586Y-15420008D02*
X7888634Y-15410484D01*
X8041015Y-15591436D02*
X8050539Y-15600960D01*
X8050539Y-15600960D02*
X8041015Y-15610484D01*
X8041015Y-15610484D02*
X8031491Y-15600960D01*
X8031491Y-15600960D02*
X8041015Y-15591436D01*
X8041015Y-15591436D02*
X8041015Y-15610484D01*
X8174348Y-15410484D02*
X8193396Y-15410484D01*
X8193396Y-15410484D02*
X8212444Y-15420008D01*
X8212444Y-15420008D02*
X8221967Y-15429531D01*
X8221967Y-15429531D02*
X8231491Y-15448579D01*
X8231491Y-15448579D02*
X8241015Y-15486674D01*
X8241015Y-15486674D02*
X8241015Y-15534293D01*
X8241015Y-15534293D02*
X8231491Y-15572388D01*
X8231491Y-15572388D02*
X8221967Y-15591436D01*
X8221967Y-15591436D02*
X8212444Y-15600960D01*
X8212444Y-15600960D02*
X8193396Y-15610484D01*
X8193396Y-15610484D02*
X8174348Y-15610484D01*
X8174348Y-15610484D02*
X8155301Y-15600960D01*
X8155301Y-15600960D02*
X8145777Y-15591436D01*
X8145777Y-15591436D02*
X8136253Y-15572388D01*
X8136253Y-15572388D02*
X8126729Y-15534293D01*
X8126729Y-15534293D02*
X8126729Y-15486674D01*
X8126729Y-15486674D02*
X8136253Y-15448579D01*
X8136253Y-15448579D02*
X8145777Y-15429531D01*
X8145777Y-15429531D02*
X8155301Y-15420008D01*
X8155301Y-15420008D02*
X8174348Y-15410484D01*
X8431491Y-15610484D02*
X8317206Y-15610484D01*
X8374348Y-15610484D02*
X8374348Y-15410484D01*
X8374348Y-15410484D02*
X8355301Y-15439055D01*
X8355301Y-15439055D02*
X8336253Y-15458103D01*
X8336253Y-15458103D02*
X8317206Y-15467627D01*
X8621968Y-15610484D02*
X8507682Y-15610484D01*
X8564825Y-15610484D02*
X8564825Y-15410484D01*
X8564825Y-15410484D02*
X8545777Y-15439055D01*
X8545777Y-15439055D02*
X8526729Y-15458103D01*
X8526729Y-15458103D02*
X8507682Y-15467627D01*
X8736253Y-15496198D02*
X8717206Y-15486674D01*
X8717206Y-15486674D02*
X8707682Y-15477150D01*
X8707682Y-15477150D02*
X8698158Y-15458103D01*
X8698158Y-15458103D02*
X8698158Y-15448579D01*
X8698158Y-15448579D02*
X8707682Y-15429531D01*
X8707682Y-15429531D02*
X8717206Y-15420008D01*
X8717206Y-15420008D02*
X8736253Y-15410484D01*
X8736253Y-15410484D02*
X8774349Y-15410484D01*
X8774349Y-15410484D02*
X8793396Y-15420008D01*
X8793396Y-15420008D02*
X8802920Y-15429531D01*
X8802920Y-15429531D02*
X8812444Y-15448579D01*
X8812444Y-15448579D02*
X8812444Y-15458103D01*
X8812444Y-15458103D02*
X8802920Y-15477150D01*
X8802920Y-15477150D02*
X8793396Y-15486674D01*
X8793396Y-15486674D02*
X8774349Y-15496198D01*
X8774349Y-15496198D02*
X8736253Y-15496198D01*
X8736253Y-15496198D02*
X8717206Y-15505722D01*
X8717206Y-15505722D02*
X8707682Y-15515246D01*
X8707682Y-15515246D02*
X8698158Y-15534293D01*
X8698158Y-15534293D02*
X8698158Y-15572388D01*
X8698158Y-15572388D02*
X8707682Y-15591436D01*
X8707682Y-15591436D02*
X8717206Y-15600960D01*
X8717206Y-15600960D02*
X8736253Y-15610484D01*
X8736253Y-15610484D02*
X8774349Y-15610484D01*
X8774349Y-15610484D02*
X8793396Y-15600960D01*
X8793396Y-15600960D02*
X8802920Y-15591436D01*
X8802920Y-15591436D02*
X8812444Y-15572388D01*
X8812444Y-15572388D02*
X8812444Y-15534293D01*
X8812444Y-15534293D02*
X8802920Y-15515246D01*
X8802920Y-15515246D02*
X8793396Y-15505722D01*
X8793396Y-15505722D02*
X8774349Y-15496198D01*
X8888634Y-15410484D02*
X8888634Y-15448579D01*
X8964825Y-15410484D02*
X8964825Y-15448579D01*
X9260063Y-15686674D02*
X9250539Y-15677150D01*
X9250539Y-15677150D02*
X9231491Y-15648579D01*
X9231491Y-15648579D02*
X9221968Y-15629531D01*
X9221968Y-15629531D02*
X9212444Y-15600960D01*
X9212444Y-15600960D02*
X9202920Y-15553341D01*
X9202920Y-15553341D02*
X9202920Y-15515246D01*
X9202920Y-15515246D02*
X9212444Y-15467627D01*
X9212444Y-15467627D02*
X9221968Y-15439055D01*
X9221968Y-15439055D02*
X9231491Y-15420008D01*
X9231491Y-15420008D02*
X9250539Y-15391436D01*
X9250539Y-15391436D02*
X9260063Y-15381912D01*
X9364825Y-15496198D02*
X9345777Y-15486674D01*
X9345777Y-15486674D02*
X9336253Y-15477150D01*
X9336253Y-15477150D02*
X9326730Y-15458103D01*
X9326730Y-15458103D02*
X9326730Y-15448579D01*
X9326730Y-15448579D02*
X9336253Y-15429531D01*
X9336253Y-15429531D02*
X9345777Y-15420008D01*
X9345777Y-15420008D02*
X9364825Y-15410484D01*
X9364825Y-15410484D02*
X9402920Y-15410484D01*
X9402920Y-15410484D02*
X9421968Y-15420008D01*
X9421968Y-15420008D02*
X9431491Y-15429531D01*
X9431491Y-15429531D02*
X9441015Y-15448579D01*
X9441015Y-15448579D02*
X9441015Y-15458103D01*
X9441015Y-15458103D02*
X9431491Y-15477150D01*
X9431491Y-15477150D02*
X9421968Y-15486674D01*
X9421968Y-15486674D02*
X9402920Y-15496198D01*
X9402920Y-15496198D02*
X9364825Y-15496198D01*
X9364825Y-15496198D02*
X9345777Y-15505722D01*
X9345777Y-15505722D02*
X9336253Y-15515246D01*
X9336253Y-15515246D02*
X9326730Y-15534293D01*
X9326730Y-15534293D02*
X9326730Y-15572388D01*
X9326730Y-15572388D02*
X9336253Y-15591436D01*
X9336253Y-15591436D02*
X9345777Y-15600960D01*
X9345777Y-15600960D02*
X9364825Y-15610484D01*
X9364825Y-15610484D02*
X9402920Y-15610484D01*
X9402920Y-15610484D02*
X9421968Y-15600960D01*
X9421968Y-15600960D02*
X9431491Y-15591436D01*
X9431491Y-15591436D02*
X9441015Y-15572388D01*
X9441015Y-15572388D02*
X9441015Y-15534293D01*
X9441015Y-15534293D02*
X9431491Y-15515246D01*
X9431491Y-15515246D02*
X9421968Y-15505722D01*
X9421968Y-15505722D02*
X9402920Y-15496198D01*
X9679111Y-15610484D02*
X9679111Y-15410484D01*
X9764825Y-15610484D02*
X9764825Y-15505722D01*
X9764825Y-15505722D02*
X9755301Y-15486674D01*
X9755301Y-15486674D02*
X9736253Y-15477150D01*
X9736253Y-15477150D02*
X9707682Y-15477150D01*
X9707682Y-15477150D02*
X9688634Y-15486674D01*
X9688634Y-15486674D02*
X9679111Y-15496198D01*
X9888634Y-15610484D02*
X9869587Y-15600960D01*
X9869587Y-15600960D02*
X9860063Y-15591436D01*
X9860063Y-15591436D02*
X9850539Y-15572388D01*
X9850539Y-15572388D02*
X9850539Y-15515246D01*
X9850539Y-15515246D02*
X9860063Y-15496198D01*
X9860063Y-15496198D02*
X9869587Y-15486674D01*
X9869587Y-15486674D02*
X9888634Y-15477150D01*
X9888634Y-15477150D02*
X9917206Y-15477150D01*
X9917206Y-15477150D02*
X9936253Y-15486674D01*
X9936253Y-15486674D02*
X9945777Y-15496198D01*
X9945777Y-15496198D02*
X9955301Y-15515246D01*
X9955301Y-15515246D02*
X9955301Y-15572388D01*
X9955301Y-15572388D02*
X9945777Y-15591436D01*
X9945777Y-15591436D02*
X9936253Y-15600960D01*
X9936253Y-15600960D02*
X9917206Y-15610484D01*
X9917206Y-15610484D02*
X9888634Y-15610484D01*
X10069587Y-15610484D02*
X10050539Y-15600960D01*
X10050539Y-15600960D02*
X10041015Y-15581912D01*
X10041015Y-15581912D02*
X10041015Y-15410484D01*
X10221968Y-15600960D02*
X10202920Y-15610484D01*
X10202920Y-15610484D02*
X10164825Y-15610484D01*
X10164825Y-15610484D02*
X10145777Y-15600960D01*
X10145777Y-15600960D02*
X10136253Y-15581912D01*
X10136253Y-15581912D02*
X10136253Y-15505722D01*
X10136253Y-15505722D02*
X10145777Y-15486674D01*
X10145777Y-15486674D02*
X10164825Y-15477150D01*
X10164825Y-15477150D02*
X10202920Y-15477150D01*
X10202920Y-15477150D02*
X10221968Y-15486674D01*
X10221968Y-15486674D02*
X10231492Y-15505722D01*
X10231492Y-15505722D02*
X10231492Y-15524769D01*
X10231492Y-15524769D02*
X10136253Y-15543817D01*
X10307682Y-15600960D02*
X10326730Y-15610484D01*
X10326730Y-15610484D02*
X10364825Y-15610484D01*
X10364825Y-15610484D02*
X10383873Y-15600960D01*
X10383873Y-15600960D02*
X10393396Y-15581912D01*
X10393396Y-15581912D02*
X10393396Y-15572388D01*
X10393396Y-15572388D02*
X10383873Y-15553341D01*
X10383873Y-15553341D02*
X10364825Y-15543817D01*
X10364825Y-15543817D02*
X10336253Y-15543817D01*
X10336253Y-15543817D02*
X10317206Y-15534293D01*
X10317206Y-15534293D02*
X10307682Y-15515246D01*
X10307682Y-15515246D02*
X10307682Y-15505722D01*
X10307682Y-15505722D02*
X10317206Y-15486674D01*
X10317206Y-15486674D02*
X10336253Y-15477150D01*
X10336253Y-15477150D02*
X10364825Y-15477150D01*
X10364825Y-15477150D02*
X10383873Y-15486674D01*
X10460063Y-15686674D02*
X10469587Y-15677150D01*
X10469587Y-15677150D02*
X10488634Y-15648579D01*
X10488634Y-15648579D02*
X10498158Y-15629531D01*
X10498158Y-15629531D02*
X10507682Y-15600960D01*
X10507682Y-15600960D02*
X10517206Y-15553341D01*
X10517206Y-15553341D02*
X10517206Y-15515246D01*
X10517206Y-15515246D02*
X10507682Y-15467627D01*
X10507682Y-15467627D02*
X10498158Y-15439055D01*
X10498158Y-15439055D02*
X10488634Y-15420008D01*
X10488634Y-15420008D02*
X10469587Y-15391436D01*
X10469587Y-15391436D02*
X10460063Y-15381912D01*
D12*
X5650000Y-15748000D02*
X5650000Y-15818000D01*
X5615000Y-15783000D02*
X5685000Y-15783000D01*
D11*
X5983872Y-15674484D02*
X6002920Y-15674484D01*
X6002920Y-15674484D02*
X6021967Y-15684008D01*
X6021967Y-15684008D02*
X6031491Y-15693531D01*
X6031491Y-15693531D02*
X6041015Y-15712579D01*
X6041015Y-15712579D02*
X6050539Y-15750674D01*
X6050539Y-15750674D02*
X6050539Y-15798293D01*
X6050539Y-15798293D02*
X6041015Y-15836388D01*
X6041015Y-15836388D02*
X6031491Y-15855436D01*
X6031491Y-15855436D02*
X6021967Y-15864960D01*
X6021967Y-15864960D02*
X6002920Y-15874484D01*
X6002920Y-15874484D02*
X5983872Y-15874484D01*
X5983872Y-15874484D02*
X5964824Y-15864960D01*
X5964824Y-15864960D02*
X5955301Y-15855436D01*
X5955301Y-15855436D02*
X5945777Y-15836388D01*
X5945777Y-15836388D02*
X5936253Y-15798293D01*
X5936253Y-15798293D02*
X5936253Y-15750674D01*
X5936253Y-15750674D02*
X5945777Y-15712579D01*
X5945777Y-15712579D02*
X5955301Y-15693531D01*
X5955301Y-15693531D02*
X5964824Y-15684008D01*
X5964824Y-15684008D02*
X5983872Y-15674484D01*
X6136253Y-15855436D02*
X6145777Y-15864960D01*
X6145777Y-15864960D02*
X6136253Y-15874484D01*
X6136253Y-15874484D02*
X6126729Y-15864960D01*
X6126729Y-15864960D02*
X6136253Y-15855436D01*
X6136253Y-15855436D02*
X6136253Y-15874484D01*
X6212443Y-15674484D02*
X6345777Y-15674484D01*
X6345777Y-15674484D02*
X6260062Y-15874484D01*
X6460062Y-15674484D02*
X6479110Y-15674484D01*
X6479110Y-15674484D02*
X6498158Y-15684008D01*
X6498158Y-15684008D02*
X6507682Y-15693531D01*
X6507682Y-15693531D02*
X6517205Y-15712579D01*
X6517205Y-15712579D02*
X6526729Y-15750674D01*
X6526729Y-15750674D02*
X6526729Y-15798293D01*
X6526729Y-15798293D02*
X6517205Y-15836388D01*
X6517205Y-15836388D02*
X6507682Y-15855436D01*
X6507682Y-15855436D02*
X6498158Y-15864960D01*
X6498158Y-15864960D02*
X6479110Y-15874484D01*
X6479110Y-15874484D02*
X6460062Y-15874484D01*
X6460062Y-15874484D02*
X6441015Y-15864960D01*
X6441015Y-15864960D02*
X6431491Y-15855436D01*
X6431491Y-15855436D02*
X6421967Y-15836388D01*
X6421967Y-15836388D02*
X6412443Y-15798293D01*
X6412443Y-15798293D02*
X6412443Y-15750674D01*
X6412443Y-15750674D02*
X6421967Y-15712579D01*
X6421967Y-15712579D02*
X6431491Y-15693531D01*
X6431491Y-15693531D02*
X6441015Y-15684008D01*
X6441015Y-15684008D02*
X6460062Y-15674484D01*
X6650539Y-15674484D02*
X6669586Y-15674484D01*
X6669586Y-15674484D02*
X6688634Y-15684008D01*
X6688634Y-15684008D02*
X6698158Y-15693531D01*
X6698158Y-15693531D02*
X6707682Y-15712579D01*
X6707682Y-15712579D02*
X6717205Y-15750674D01*
X6717205Y-15750674D02*
X6717205Y-15798293D01*
X6717205Y-15798293D02*
X6707682Y-15836388D01*
X6707682Y-15836388D02*
X6698158Y-15855436D01*
X6698158Y-15855436D02*
X6688634Y-15864960D01*
X6688634Y-15864960D02*
X6669586Y-15874484D01*
X6669586Y-15874484D02*
X6650539Y-15874484D01*
X6650539Y-15874484D02*
X6631491Y-15864960D01*
X6631491Y-15864960D02*
X6621967Y-15855436D01*
X6621967Y-15855436D02*
X6612443Y-15836388D01*
X6612443Y-15836388D02*
X6602920Y-15798293D01*
X6602920Y-15798293D02*
X6602920Y-15750674D01*
X6602920Y-15750674D02*
X6612443Y-15712579D01*
X6612443Y-15712579D02*
X6621967Y-15693531D01*
X6621967Y-15693531D02*
X6631491Y-15684008D01*
X6631491Y-15684008D02*
X6650539Y-15674484D01*
X6802920Y-15874484D02*
X6802920Y-15741150D01*
X6802920Y-15760198D02*
X6812443Y-15750674D01*
X6812443Y-15750674D02*
X6831491Y-15741150D01*
X6831491Y-15741150D02*
X6860063Y-15741150D01*
X6860063Y-15741150D02*
X6879110Y-15750674D01*
X6879110Y-15750674D02*
X6888634Y-15769722D01*
X6888634Y-15769722D02*
X6888634Y-15874484D01*
X6888634Y-15769722D02*
X6898158Y-15750674D01*
X6898158Y-15750674D02*
X6917205Y-15741150D01*
X6917205Y-15741150D02*
X6945777Y-15741150D01*
X6945777Y-15741150D02*
X6964824Y-15750674D01*
X6964824Y-15750674D02*
X6974348Y-15769722D01*
X6974348Y-15769722D02*
X6974348Y-15874484D01*
X7069586Y-15874484D02*
X7069586Y-15741150D01*
X7069586Y-15760198D02*
X7079110Y-15750674D01*
X7079110Y-15750674D02*
X7098158Y-15741150D01*
X7098158Y-15741150D02*
X7126729Y-15741150D01*
X7126729Y-15741150D02*
X7145777Y-15750674D01*
X7145777Y-15750674D02*
X7155301Y-15769722D01*
X7155301Y-15769722D02*
X7155301Y-15874484D01*
X7155301Y-15769722D02*
X7164824Y-15750674D01*
X7164824Y-15750674D02*
X7183872Y-15741150D01*
X7183872Y-15741150D02*
X7212443Y-15741150D01*
X7212443Y-15741150D02*
X7231491Y-15750674D01*
X7231491Y-15750674D02*
X7241015Y-15769722D01*
X7241015Y-15769722D02*
X7241015Y-15874484D01*
X7631491Y-15664960D02*
X7460063Y-15922103D01*
X7888634Y-15674484D02*
X7907682Y-15674484D01*
X7907682Y-15674484D02*
X7926729Y-15684008D01*
X7926729Y-15684008D02*
X7936253Y-15693531D01*
X7936253Y-15693531D02*
X7945777Y-15712579D01*
X7945777Y-15712579D02*
X7955301Y-15750674D01*
X7955301Y-15750674D02*
X7955301Y-15798293D01*
X7955301Y-15798293D02*
X7945777Y-15836388D01*
X7945777Y-15836388D02*
X7936253Y-15855436D01*
X7936253Y-15855436D02*
X7926729Y-15864960D01*
X7926729Y-15864960D02*
X7907682Y-15874484D01*
X7907682Y-15874484D02*
X7888634Y-15874484D01*
X7888634Y-15874484D02*
X7869586Y-15864960D01*
X7869586Y-15864960D02*
X7860063Y-15855436D01*
X7860063Y-15855436D02*
X7850539Y-15836388D01*
X7850539Y-15836388D02*
X7841015Y-15798293D01*
X7841015Y-15798293D02*
X7841015Y-15750674D01*
X7841015Y-15750674D02*
X7850539Y-15712579D01*
X7850539Y-15712579D02*
X7860063Y-15693531D01*
X7860063Y-15693531D02*
X7869586Y-15684008D01*
X7869586Y-15684008D02*
X7888634Y-15674484D01*
X8041015Y-15855436D02*
X8050539Y-15864960D01*
X8050539Y-15864960D02*
X8041015Y-15874484D01*
X8041015Y-15874484D02*
X8031491Y-15864960D01*
X8031491Y-15864960D02*
X8041015Y-15855436D01*
X8041015Y-15855436D02*
X8041015Y-15874484D01*
X8174348Y-15674484D02*
X8193396Y-15674484D01*
X8193396Y-15674484D02*
X8212444Y-15684008D01*
X8212444Y-15684008D02*
X8221967Y-15693531D01*
X8221967Y-15693531D02*
X8231491Y-15712579D01*
X8231491Y-15712579D02*
X8241015Y-15750674D01*
X8241015Y-15750674D02*
X8241015Y-15798293D01*
X8241015Y-15798293D02*
X8231491Y-15836388D01*
X8231491Y-15836388D02*
X8221967Y-15855436D01*
X8221967Y-15855436D02*
X8212444Y-15864960D01*
X8212444Y-15864960D02*
X8193396Y-15874484D01*
X8193396Y-15874484D02*
X8174348Y-15874484D01*
X8174348Y-15874484D02*
X8155301Y-15864960D01*
X8155301Y-15864960D02*
X8145777Y-15855436D01*
X8145777Y-15855436D02*
X8136253Y-15836388D01*
X8136253Y-15836388D02*
X8126729Y-15798293D01*
X8126729Y-15798293D02*
X8126729Y-15750674D01*
X8126729Y-15750674D02*
X8136253Y-15712579D01*
X8136253Y-15712579D02*
X8145777Y-15693531D01*
X8145777Y-15693531D02*
X8155301Y-15684008D01*
X8155301Y-15684008D02*
X8174348Y-15674484D01*
X8317206Y-15693531D02*
X8326729Y-15684008D01*
X8326729Y-15684008D02*
X8345777Y-15674484D01*
X8345777Y-15674484D02*
X8393396Y-15674484D01*
X8393396Y-15674484D02*
X8412444Y-15684008D01*
X8412444Y-15684008D02*
X8421968Y-15693531D01*
X8421968Y-15693531D02*
X8431491Y-15712579D01*
X8431491Y-15712579D02*
X8431491Y-15731627D01*
X8431491Y-15731627D02*
X8421968Y-15760198D01*
X8421968Y-15760198D02*
X8307682Y-15874484D01*
X8307682Y-15874484D02*
X8431491Y-15874484D01*
X8498158Y-15674484D02*
X8631491Y-15674484D01*
X8631491Y-15674484D02*
X8545777Y-15874484D01*
X8793396Y-15674484D02*
X8755301Y-15674484D01*
X8755301Y-15674484D02*
X8736253Y-15684008D01*
X8736253Y-15684008D02*
X8726729Y-15693531D01*
X8726729Y-15693531D02*
X8707682Y-15722103D01*
X8707682Y-15722103D02*
X8698158Y-15760198D01*
X8698158Y-15760198D02*
X8698158Y-15836388D01*
X8698158Y-15836388D02*
X8707682Y-15855436D01*
X8707682Y-15855436D02*
X8717206Y-15864960D01*
X8717206Y-15864960D02*
X8736253Y-15874484D01*
X8736253Y-15874484D02*
X8774349Y-15874484D01*
X8774349Y-15874484D02*
X8793396Y-15864960D01*
X8793396Y-15864960D02*
X8802920Y-15855436D01*
X8802920Y-15855436D02*
X8812444Y-15836388D01*
X8812444Y-15836388D02*
X8812444Y-15788769D01*
X8812444Y-15788769D02*
X8802920Y-15769722D01*
X8802920Y-15769722D02*
X8793396Y-15760198D01*
X8793396Y-15760198D02*
X8774349Y-15750674D01*
X8774349Y-15750674D02*
X8736253Y-15750674D01*
X8736253Y-15750674D02*
X8717206Y-15760198D01*
X8717206Y-15760198D02*
X8707682Y-15769722D01*
X8707682Y-15769722D02*
X8698158Y-15788769D01*
X8888634Y-15674484D02*
X8888634Y-15712579D01*
X8964825Y-15674484D02*
X8964825Y-15712579D01*
X9260063Y-15950674D02*
X9250539Y-15941150D01*
X9250539Y-15941150D02*
X9231491Y-15912579D01*
X9231491Y-15912579D02*
X9221968Y-15893531D01*
X9221968Y-15893531D02*
X9212444Y-15864960D01*
X9212444Y-15864960D02*
X9202920Y-15817341D01*
X9202920Y-15817341D02*
X9202920Y-15779246D01*
X9202920Y-15779246D02*
X9212444Y-15731627D01*
X9212444Y-15731627D02*
X9221968Y-15703055D01*
X9221968Y-15703055D02*
X9231491Y-15684008D01*
X9231491Y-15684008D02*
X9250539Y-15655436D01*
X9250539Y-15655436D02*
X9260063Y-15645912D01*
X9441015Y-15874484D02*
X9326730Y-15874484D01*
X9383872Y-15874484D02*
X9383872Y-15674484D01*
X9383872Y-15674484D02*
X9364825Y-15703055D01*
X9364825Y-15703055D02*
X9345777Y-15722103D01*
X9345777Y-15722103D02*
X9326730Y-15731627D01*
X9564825Y-15674484D02*
X9583872Y-15674484D01*
X9583872Y-15674484D02*
X9602920Y-15684008D01*
X9602920Y-15684008D02*
X9612444Y-15693531D01*
X9612444Y-15693531D02*
X9621968Y-15712579D01*
X9621968Y-15712579D02*
X9631491Y-15750674D01*
X9631491Y-15750674D02*
X9631491Y-15798293D01*
X9631491Y-15798293D02*
X9621968Y-15836388D01*
X9621968Y-15836388D02*
X9612444Y-15855436D01*
X9612444Y-15855436D02*
X9602920Y-15864960D01*
X9602920Y-15864960D02*
X9583872Y-15874484D01*
X9583872Y-15874484D02*
X9564825Y-15874484D01*
X9564825Y-15874484D02*
X9545777Y-15864960D01*
X9545777Y-15864960D02*
X9536253Y-15855436D01*
X9536253Y-15855436D02*
X9526730Y-15836388D01*
X9526730Y-15836388D02*
X9517206Y-15798293D01*
X9517206Y-15798293D02*
X9517206Y-15750674D01*
X9517206Y-15750674D02*
X9526730Y-15712579D01*
X9526730Y-15712579D02*
X9536253Y-15693531D01*
X9536253Y-15693531D02*
X9545777Y-15684008D01*
X9545777Y-15684008D02*
X9564825Y-15674484D01*
X9869587Y-15874484D02*
X9869587Y-15674484D01*
X9955301Y-15874484D02*
X9955301Y-15769722D01*
X9955301Y-15769722D02*
X9945777Y-15750674D01*
X9945777Y-15750674D02*
X9926730Y-15741150D01*
X9926730Y-15741150D02*
X9898158Y-15741150D01*
X9898158Y-15741150D02*
X9879111Y-15750674D01*
X9879111Y-15750674D02*
X9869587Y-15760198D01*
X10079111Y-15874484D02*
X10060063Y-15864960D01*
X10060063Y-15864960D02*
X10050539Y-15855436D01*
X10050539Y-15855436D02*
X10041015Y-15836388D01*
X10041015Y-15836388D02*
X10041015Y-15779246D01*
X10041015Y-15779246D02*
X10050539Y-15760198D01*
X10050539Y-15760198D02*
X10060063Y-15750674D01*
X10060063Y-15750674D02*
X10079111Y-15741150D01*
X10079111Y-15741150D02*
X10107682Y-15741150D01*
X10107682Y-15741150D02*
X10126730Y-15750674D01*
X10126730Y-15750674D02*
X10136253Y-15760198D01*
X10136253Y-15760198D02*
X10145777Y-15779246D01*
X10145777Y-15779246D02*
X10145777Y-15836388D01*
X10145777Y-15836388D02*
X10136253Y-15855436D01*
X10136253Y-15855436D02*
X10126730Y-15864960D01*
X10126730Y-15864960D02*
X10107682Y-15874484D01*
X10107682Y-15874484D02*
X10079111Y-15874484D01*
X10260063Y-15874484D02*
X10241015Y-15864960D01*
X10241015Y-15864960D02*
X10231492Y-15845912D01*
X10231492Y-15845912D02*
X10231492Y-15674484D01*
X10412444Y-15864960D02*
X10393396Y-15874484D01*
X10393396Y-15874484D02*
X10355301Y-15874484D01*
X10355301Y-15874484D02*
X10336253Y-15864960D01*
X10336253Y-15864960D02*
X10326730Y-15845912D01*
X10326730Y-15845912D02*
X10326730Y-15769722D01*
X10326730Y-15769722D02*
X10336253Y-15750674D01*
X10336253Y-15750674D02*
X10355301Y-15741150D01*
X10355301Y-15741150D02*
X10393396Y-15741150D01*
X10393396Y-15741150D02*
X10412444Y-15750674D01*
X10412444Y-15750674D02*
X10421968Y-15769722D01*
X10421968Y-15769722D02*
X10421968Y-15788769D01*
X10421968Y-15788769D02*
X10326730Y-15807817D01*
X10498158Y-15864960D02*
X10517206Y-15874484D01*
X10517206Y-15874484D02*
X10555301Y-15874484D01*
X10555301Y-15874484D02*
X10574349Y-15864960D01*
X10574349Y-15864960D02*
X10583873Y-15845912D01*
X10583873Y-15845912D02*
X10583873Y-15836388D01*
X10583873Y-15836388D02*
X10574349Y-15817341D01*
X10574349Y-15817341D02*
X10555301Y-15807817D01*
X10555301Y-15807817D02*
X10526730Y-15807817D01*
X10526730Y-15807817D02*
X10507682Y-15798293D01*
X10507682Y-15798293D02*
X10498158Y-15779246D01*
X10498158Y-15779246D02*
X10498158Y-15769722D01*
X10498158Y-15769722D02*
X10507682Y-15750674D01*
X10507682Y-15750674D02*
X10526730Y-15741150D01*
X10526730Y-15741150D02*
X10555301Y-15741150D01*
X10555301Y-15741150D02*
X10574349Y-15750674D01*
X10650539Y-15950674D02*
X10660063Y-15941150D01*
X10660063Y-15941150D02*
X10679111Y-15912579D01*
X10679111Y-15912579D02*
X10688634Y-15893531D01*
X10688634Y-15893531D02*
X10698158Y-15864960D01*
X10698158Y-15864960D02*
X10707682Y-15817341D01*
X10707682Y-15817341D02*
X10707682Y-15779246D01*
X10707682Y-15779246D02*
X10698158Y-15731627D01*
X10698158Y-15731627D02*
X10688634Y-15703055D01*
X10688634Y-15703055D02*
X10679111Y-15684008D01*
X10679111Y-15684008D02*
X10660063Y-15655436D01*
X10660063Y-15655436D02*
X10650539Y-15645912D01*
D12*
X5673284Y-16075284D02*
X5673284Y-16018715D01*
X5616715Y-16018715D01*
X5616715Y-16075284D01*
X5673284Y-16075284D01*
D11*
X5983872Y-15938484D02*
X6002920Y-15938484D01*
X6002920Y-15938484D02*
X6021967Y-15948008D01*
X6021967Y-15948008D02*
X6031491Y-15957531D01*
X6031491Y-15957531D02*
X6041015Y-15976579D01*
X6041015Y-15976579D02*
X6050539Y-16014674D01*
X6050539Y-16014674D02*
X6050539Y-16062293D01*
X6050539Y-16062293D02*
X6041015Y-16100388D01*
X6041015Y-16100388D02*
X6031491Y-16119436D01*
X6031491Y-16119436D02*
X6021967Y-16128960D01*
X6021967Y-16128960D02*
X6002920Y-16138484D01*
X6002920Y-16138484D02*
X5983872Y-16138484D01*
X5983872Y-16138484D02*
X5964824Y-16128960D01*
X5964824Y-16128960D02*
X5955301Y-16119436D01*
X5955301Y-16119436D02*
X5945777Y-16100388D01*
X5945777Y-16100388D02*
X5936253Y-16062293D01*
X5936253Y-16062293D02*
X5936253Y-16014674D01*
X5936253Y-16014674D02*
X5945777Y-15976579D01*
X5945777Y-15976579D02*
X5955301Y-15957531D01*
X5955301Y-15957531D02*
X5964824Y-15948008D01*
X5964824Y-15948008D02*
X5983872Y-15938484D01*
X6136253Y-16119436D02*
X6145777Y-16128960D01*
X6145777Y-16128960D02*
X6136253Y-16138484D01*
X6136253Y-16138484D02*
X6126729Y-16128960D01*
X6126729Y-16128960D02*
X6136253Y-16119436D01*
X6136253Y-16119436D02*
X6136253Y-16138484D01*
X6260062Y-16024198D02*
X6241015Y-16014674D01*
X6241015Y-16014674D02*
X6231491Y-16005150D01*
X6231491Y-16005150D02*
X6221967Y-15986103D01*
X6221967Y-15986103D02*
X6221967Y-15976579D01*
X6221967Y-15976579D02*
X6231491Y-15957531D01*
X6231491Y-15957531D02*
X6241015Y-15948008D01*
X6241015Y-15948008D02*
X6260062Y-15938484D01*
X6260062Y-15938484D02*
X6298158Y-15938484D01*
X6298158Y-15938484D02*
X6317205Y-15948008D01*
X6317205Y-15948008D02*
X6326729Y-15957531D01*
X6326729Y-15957531D02*
X6336253Y-15976579D01*
X6336253Y-15976579D02*
X6336253Y-15986103D01*
X6336253Y-15986103D02*
X6326729Y-16005150D01*
X6326729Y-16005150D02*
X6317205Y-16014674D01*
X6317205Y-16014674D02*
X6298158Y-16024198D01*
X6298158Y-16024198D02*
X6260062Y-16024198D01*
X6260062Y-16024198D02*
X6241015Y-16033722D01*
X6241015Y-16033722D02*
X6231491Y-16043246D01*
X6231491Y-16043246D02*
X6221967Y-16062293D01*
X6221967Y-16062293D02*
X6221967Y-16100388D01*
X6221967Y-16100388D02*
X6231491Y-16119436D01*
X6231491Y-16119436D02*
X6241015Y-16128960D01*
X6241015Y-16128960D02*
X6260062Y-16138484D01*
X6260062Y-16138484D02*
X6298158Y-16138484D01*
X6298158Y-16138484D02*
X6317205Y-16128960D01*
X6317205Y-16128960D02*
X6326729Y-16119436D01*
X6326729Y-16119436D02*
X6336253Y-16100388D01*
X6336253Y-16100388D02*
X6336253Y-16062293D01*
X6336253Y-16062293D02*
X6326729Y-16043246D01*
X6326729Y-16043246D02*
X6317205Y-16033722D01*
X6317205Y-16033722D02*
X6298158Y-16024198D01*
X6460062Y-15938484D02*
X6479110Y-15938484D01*
X6479110Y-15938484D02*
X6498158Y-15948008D01*
X6498158Y-15948008D02*
X6507682Y-15957531D01*
X6507682Y-15957531D02*
X6517205Y-15976579D01*
X6517205Y-15976579D02*
X6526729Y-16014674D01*
X6526729Y-16014674D02*
X6526729Y-16062293D01*
X6526729Y-16062293D02*
X6517205Y-16100388D01*
X6517205Y-16100388D02*
X6507682Y-16119436D01*
X6507682Y-16119436D02*
X6498158Y-16128960D01*
X6498158Y-16128960D02*
X6479110Y-16138484D01*
X6479110Y-16138484D02*
X6460062Y-16138484D01*
X6460062Y-16138484D02*
X6441015Y-16128960D01*
X6441015Y-16128960D02*
X6431491Y-16119436D01*
X6431491Y-16119436D02*
X6421967Y-16100388D01*
X6421967Y-16100388D02*
X6412443Y-16062293D01*
X6412443Y-16062293D02*
X6412443Y-16014674D01*
X6412443Y-16014674D02*
X6421967Y-15976579D01*
X6421967Y-15976579D02*
X6431491Y-15957531D01*
X6431491Y-15957531D02*
X6441015Y-15948008D01*
X6441015Y-15948008D02*
X6460062Y-15938484D01*
X6650539Y-15938484D02*
X6669586Y-15938484D01*
X6669586Y-15938484D02*
X6688634Y-15948008D01*
X6688634Y-15948008D02*
X6698158Y-15957531D01*
X6698158Y-15957531D02*
X6707682Y-15976579D01*
X6707682Y-15976579D02*
X6717205Y-16014674D01*
X6717205Y-16014674D02*
X6717205Y-16062293D01*
X6717205Y-16062293D02*
X6707682Y-16100388D01*
X6707682Y-16100388D02*
X6698158Y-16119436D01*
X6698158Y-16119436D02*
X6688634Y-16128960D01*
X6688634Y-16128960D02*
X6669586Y-16138484D01*
X6669586Y-16138484D02*
X6650539Y-16138484D01*
X6650539Y-16138484D02*
X6631491Y-16128960D01*
X6631491Y-16128960D02*
X6621967Y-16119436D01*
X6621967Y-16119436D02*
X6612443Y-16100388D01*
X6612443Y-16100388D02*
X6602920Y-16062293D01*
X6602920Y-16062293D02*
X6602920Y-16014674D01*
X6602920Y-16014674D02*
X6612443Y-15976579D01*
X6612443Y-15976579D02*
X6621967Y-15957531D01*
X6621967Y-15957531D02*
X6631491Y-15948008D01*
X6631491Y-15948008D02*
X6650539Y-15938484D01*
X6802920Y-16138484D02*
X6802920Y-16005150D01*
X6802920Y-16024198D02*
X6812443Y-16014674D01*
X6812443Y-16014674D02*
X6831491Y-16005150D01*
X6831491Y-16005150D02*
X6860063Y-16005150D01*
X6860063Y-16005150D02*
X6879110Y-16014674D01*
X6879110Y-16014674D02*
X6888634Y-16033722D01*
X6888634Y-16033722D02*
X6888634Y-16138484D01*
X6888634Y-16033722D02*
X6898158Y-16014674D01*
X6898158Y-16014674D02*
X6917205Y-16005150D01*
X6917205Y-16005150D02*
X6945777Y-16005150D01*
X6945777Y-16005150D02*
X6964824Y-16014674D01*
X6964824Y-16014674D02*
X6974348Y-16033722D01*
X6974348Y-16033722D02*
X6974348Y-16138484D01*
X7069586Y-16138484D02*
X7069586Y-16005150D01*
X7069586Y-16024198D02*
X7079110Y-16014674D01*
X7079110Y-16014674D02*
X7098158Y-16005150D01*
X7098158Y-16005150D02*
X7126729Y-16005150D01*
X7126729Y-16005150D02*
X7145777Y-16014674D01*
X7145777Y-16014674D02*
X7155301Y-16033722D01*
X7155301Y-16033722D02*
X7155301Y-16138484D01*
X7155301Y-16033722D02*
X7164824Y-16014674D01*
X7164824Y-16014674D02*
X7183872Y-16005150D01*
X7183872Y-16005150D02*
X7212443Y-16005150D01*
X7212443Y-16005150D02*
X7231491Y-16014674D01*
X7231491Y-16014674D02*
X7241015Y-16033722D01*
X7241015Y-16033722D02*
X7241015Y-16138484D01*
X7631491Y-15928960D02*
X7460063Y-16186103D01*
X7888634Y-15938484D02*
X7907682Y-15938484D01*
X7907682Y-15938484D02*
X7926729Y-15948008D01*
X7926729Y-15948008D02*
X7936253Y-15957531D01*
X7936253Y-15957531D02*
X7945777Y-15976579D01*
X7945777Y-15976579D02*
X7955301Y-16014674D01*
X7955301Y-16014674D02*
X7955301Y-16062293D01*
X7955301Y-16062293D02*
X7945777Y-16100388D01*
X7945777Y-16100388D02*
X7936253Y-16119436D01*
X7936253Y-16119436D02*
X7926729Y-16128960D01*
X7926729Y-16128960D02*
X7907682Y-16138484D01*
X7907682Y-16138484D02*
X7888634Y-16138484D01*
X7888634Y-16138484D02*
X7869586Y-16128960D01*
X7869586Y-16128960D02*
X7860063Y-16119436D01*
X7860063Y-16119436D02*
X7850539Y-16100388D01*
X7850539Y-16100388D02*
X7841015Y-16062293D01*
X7841015Y-16062293D02*
X7841015Y-16014674D01*
X7841015Y-16014674D02*
X7850539Y-15976579D01*
X7850539Y-15976579D02*
X7860063Y-15957531D01*
X7860063Y-15957531D02*
X7869586Y-15948008D01*
X7869586Y-15948008D02*
X7888634Y-15938484D01*
X8041015Y-16119436D02*
X8050539Y-16128960D01*
X8050539Y-16128960D02*
X8041015Y-16138484D01*
X8041015Y-16138484D02*
X8031491Y-16128960D01*
X8031491Y-16128960D02*
X8041015Y-16119436D01*
X8041015Y-16119436D02*
X8041015Y-16138484D01*
X8174348Y-15938484D02*
X8193396Y-15938484D01*
X8193396Y-15938484D02*
X8212444Y-15948008D01*
X8212444Y-15948008D02*
X8221967Y-15957531D01*
X8221967Y-15957531D02*
X8231491Y-15976579D01*
X8231491Y-15976579D02*
X8241015Y-16014674D01*
X8241015Y-16014674D02*
X8241015Y-16062293D01*
X8241015Y-16062293D02*
X8231491Y-16100388D01*
X8231491Y-16100388D02*
X8221967Y-16119436D01*
X8221967Y-16119436D02*
X8212444Y-16128960D01*
X8212444Y-16128960D02*
X8193396Y-16138484D01*
X8193396Y-16138484D02*
X8174348Y-16138484D01*
X8174348Y-16138484D02*
X8155301Y-16128960D01*
X8155301Y-16128960D02*
X8145777Y-16119436D01*
X8145777Y-16119436D02*
X8136253Y-16100388D01*
X8136253Y-16100388D02*
X8126729Y-16062293D01*
X8126729Y-16062293D02*
X8126729Y-16014674D01*
X8126729Y-16014674D02*
X8136253Y-15976579D01*
X8136253Y-15976579D02*
X8145777Y-15957531D01*
X8145777Y-15957531D02*
X8155301Y-15948008D01*
X8155301Y-15948008D02*
X8174348Y-15938484D01*
X8307682Y-15938484D02*
X8431491Y-15938484D01*
X8431491Y-15938484D02*
X8364825Y-16014674D01*
X8364825Y-16014674D02*
X8393396Y-16014674D01*
X8393396Y-16014674D02*
X8412444Y-16024198D01*
X8412444Y-16024198D02*
X8421968Y-16033722D01*
X8421968Y-16033722D02*
X8431491Y-16052769D01*
X8431491Y-16052769D02*
X8431491Y-16100388D01*
X8431491Y-16100388D02*
X8421968Y-16119436D01*
X8421968Y-16119436D02*
X8412444Y-16128960D01*
X8412444Y-16128960D02*
X8393396Y-16138484D01*
X8393396Y-16138484D02*
X8336253Y-16138484D01*
X8336253Y-16138484D02*
X8317206Y-16128960D01*
X8317206Y-16128960D02*
X8307682Y-16119436D01*
X8621968Y-16138484D02*
X8507682Y-16138484D01*
X8564825Y-16138484D02*
X8564825Y-15938484D01*
X8564825Y-15938484D02*
X8545777Y-15967055D01*
X8545777Y-15967055D02*
X8526729Y-15986103D01*
X8526729Y-15986103D02*
X8507682Y-15995627D01*
X8802920Y-15938484D02*
X8707682Y-15938484D01*
X8707682Y-15938484D02*
X8698158Y-16033722D01*
X8698158Y-16033722D02*
X8707682Y-16024198D01*
X8707682Y-16024198D02*
X8726729Y-16014674D01*
X8726729Y-16014674D02*
X8774349Y-16014674D01*
X8774349Y-16014674D02*
X8793396Y-16024198D01*
X8793396Y-16024198D02*
X8802920Y-16033722D01*
X8802920Y-16033722D02*
X8812444Y-16052769D01*
X8812444Y-16052769D02*
X8812444Y-16100388D01*
X8812444Y-16100388D02*
X8802920Y-16119436D01*
X8802920Y-16119436D02*
X8793396Y-16128960D01*
X8793396Y-16128960D02*
X8774349Y-16138484D01*
X8774349Y-16138484D02*
X8726729Y-16138484D01*
X8726729Y-16138484D02*
X8707682Y-16128960D01*
X8707682Y-16128960D02*
X8698158Y-16119436D01*
X8888634Y-15938484D02*
X8888634Y-15976579D01*
X8964825Y-15938484D02*
X8964825Y-15976579D01*
X9260063Y-16214674D02*
X9250539Y-16205150D01*
X9250539Y-16205150D02*
X9231491Y-16176579D01*
X9231491Y-16176579D02*
X9221968Y-16157531D01*
X9221968Y-16157531D02*
X9212444Y-16128960D01*
X9212444Y-16128960D02*
X9202920Y-16081341D01*
X9202920Y-16081341D02*
X9202920Y-16043246D01*
X9202920Y-16043246D02*
X9212444Y-15995627D01*
X9212444Y-15995627D02*
X9221968Y-15967055D01*
X9221968Y-15967055D02*
X9231491Y-15948008D01*
X9231491Y-15948008D02*
X9250539Y-15919436D01*
X9250539Y-15919436D02*
X9260063Y-15909912D01*
X9326730Y-15957531D02*
X9336253Y-15948008D01*
X9336253Y-15948008D02*
X9355301Y-15938484D01*
X9355301Y-15938484D02*
X9402920Y-15938484D01*
X9402920Y-15938484D02*
X9421968Y-15948008D01*
X9421968Y-15948008D02*
X9431491Y-15957531D01*
X9431491Y-15957531D02*
X9441015Y-15976579D01*
X9441015Y-15976579D02*
X9441015Y-15995627D01*
X9441015Y-15995627D02*
X9431491Y-16024198D01*
X9431491Y-16024198D02*
X9317206Y-16138484D01*
X9317206Y-16138484D02*
X9441015Y-16138484D01*
X9679111Y-16138484D02*
X9679111Y-15938484D01*
X9764825Y-16138484D02*
X9764825Y-16033722D01*
X9764825Y-16033722D02*
X9755301Y-16014674D01*
X9755301Y-16014674D02*
X9736253Y-16005150D01*
X9736253Y-16005150D02*
X9707682Y-16005150D01*
X9707682Y-16005150D02*
X9688634Y-16014674D01*
X9688634Y-16014674D02*
X9679111Y-16024198D01*
X9888634Y-16138484D02*
X9869587Y-16128960D01*
X9869587Y-16128960D02*
X9860063Y-16119436D01*
X9860063Y-16119436D02*
X9850539Y-16100388D01*
X9850539Y-16100388D02*
X9850539Y-16043246D01*
X9850539Y-16043246D02*
X9860063Y-16024198D01*
X9860063Y-16024198D02*
X9869587Y-16014674D01*
X9869587Y-16014674D02*
X9888634Y-16005150D01*
X9888634Y-16005150D02*
X9917206Y-16005150D01*
X9917206Y-16005150D02*
X9936253Y-16014674D01*
X9936253Y-16014674D02*
X9945777Y-16024198D01*
X9945777Y-16024198D02*
X9955301Y-16043246D01*
X9955301Y-16043246D02*
X9955301Y-16100388D01*
X9955301Y-16100388D02*
X9945777Y-16119436D01*
X9945777Y-16119436D02*
X9936253Y-16128960D01*
X9936253Y-16128960D02*
X9917206Y-16138484D01*
X9917206Y-16138484D02*
X9888634Y-16138484D01*
X10069587Y-16138484D02*
X10050539Y-16128960D01*
X10050539Y-16128960D02*
X10041015Y-16109912D01*
X10041015Y-16109912D02*
X10041015Y-15938484D01*
X10221968Y-16128960D02*
X10202920Y-16138484D01*
X10202920Y-16138484D02*
X10164825Y-16138484D01*
X10164825Y-16138484D02*
X10145777Y-16128960D01*
X10145777Y-16128960D02*
X10136253Y-16109912D01*
X10136253Y-16109912D02*
X10136253Y-16033722D01*
X10136253Y-16033722D02*
X10145777Y-16014674D01*
X10145777Y-16014674D02*
X10164825Y-16005150D01*
X10164825Y-16005150D02*
X10202920Y-16005150D01*
X10202920Y-16005150D02*
X10221968Y-16014674D01*
X10221968Y-16014674D02*
X10231492Y-16033722D01*
X10231492Y-16033722D02*
X10231492Y-16052769D01*
X10231492Y-16052769D02*
X10136253Y-16071817D01*
X10307682Y-16128960D02*
X10326730Y-16138484D01*
X10326730Y-16138484D02*
X10364825Y-16138484D01*
X10364825Y-16138484D02*
X10383873Y-16128960D01*
X10383873Y-16128960D02*
X10393396Y-16109912D01*
X10393396Y-16109912D02*
X10393396Y-16100388D01*
X10393396Y-16100388D02*
X10383873Y-16081341D01*
X10383873Y-16081341D02*
X10364825Y-16071817D01*
X10364825Y-16071817D02*
X10336253Y-16071817D01*
X10336253Y-16071817D02*
X10317206Y-16062293D01*
X10317206Y-16062293D02*
X10307682Y-16043246D01*
X10307682Y-16043246D02*
X10307682Y-16033722D01*
X10307682Y-16033722D02*
X10317206Y-16014674D01*
X10317206Y-16014674D02*
X10336253Y-16005150D01*
X10336253Y-16005150D02*
X10364825Y-16005150D01*
X10364825Y-16005150D02*
X10383873Y-16014674D01*
X10460063Y-16214674D02*
X10469587Y-16205150D01*
X10469587Y-16205150D02*
X10488634Y-16176579D01*
X10488634Y-16176579D02*
X10498158Y-16157531D01*
X10498158Y-16157531D02*
X10507682Y-16128960D01*
X10507682Y-16128960D02*
X10517206Y-16081341D01*
X10517206Y-16081341D02*
X10517206Y-16043246D01*
X10517206Y-16043246D02*
X10507682Y-15995627D01*
X10507682Y-15995627D02*
X10498158Y-15967055D01*
X10498158Y-15967055D02*
X10488634Y-15948008D01*
X10488634Y-15948008D02*
X10469587Y-15919436D01*
X10469587Y-15919436D02*
X10460063Y-15909912D01*
D12*
X5640500Y-16355500D02*
X5685000Y-16311000D01*
X5640500Y-16266500D01*
X5596000Y-16311000D01*
X5640500Y-16355500D01*
D11*
X5983872Y-16202484D02*
X6002920Y-16202484D01*
X6002920Y-16202484D02*
X6021967Y-16212008D01*
X6021967Y-16212008D02*
X6031491Y-16221531D01*
X6031491Y-16221531D02*
X6041015Y-16240579D01*
X6041015Y-16240579D02*
X6050539Y-16278674D01*
X6050539Y-16278674D02*
X6050539Y-16326293D01*
X6050539Y-16326293D02*
X6041015Y-16364388D01*
X6041015Y-16364388D02*
X6031491Y-16383436D01*
X6031491Y-16383436D02*
X6021967Y-16392960D01*
X6021967Y-16392960D02*
X6002920Y-16402484D01*
X6002920Y-16402484D02*
X5983872Y-16402484D01*
X5983872Y-16402484D02*
X5964824Y-16392960D01*
X5964824Y-16392960D02*
X5955301Y-16383436D01*
X5955301Y-16383436D02*
X5945777Y-16364388D01*
X5945777Y-16364388D02*
X5936253Y-16326293D01*
X5936253Y-16326293D02*
X5936253Y-16278674D01*
X5936253Y-16278674D02*
X5945777Y-16240579D01*
X5945777Y-16240579D02*
X5955301Y-16221531D01*
X5955301Y-16221531D02*
X5964824Y-16212008D01*
X5964824Y-16212008D02*
X5983872Y-16202484D01*
X6136253Y-16383436D02*
X6145777Y-16392960D01*
X6145777Y-16392960D02*
X6136253Y-16402484D01*
X6136253Y-16402484D02*
X6126729Y-16392960D01*
X6126729Y-16392960D02*
X6136253Y-16383436D01*
X6136253Y-16383436D02*
X6136253Y-16402484D01*
X6260062Y-16288198D02*
X6241015Y-16278674D01*
X6241015Y-16278674D02*
X6231491Y-16269150D01*
X6231491Y-16269150D02*
X6221967Y-16250103D01*
X6221967Y-16250103D02*
X6221967Y-16240579D01*
X6221967Y-16240579D02*
X6231491Y-16221531D01*
X6231491Y-16221531D02*
X6241015Y-16212008D01*
X6241015Y-16212008D02*
X6260062Y-16202484D01*
X6260062Y-16202484D02*
X6298158Y-16202484D01*
X6298158Y-16202484D02*
X6317205Y-16212008D01*
X6317205Y-16212008D02*
X6326729Y-16221531D01*
X6326729Y-16221531D02*
X6336253Y-16240579D01*
X6336253Y-16240579D02*
X6336253Y-16250103D01*
X6336253Y-16250103D02*
X6326729Y-16269150D01*
X6326729Y-16269150D02*
X6317205Y-16278674D01*
X6317205Y-16278674D02*
X6298158Y-16288198D01*
X6298158Y-16288198D02*
X6260062Y-16288198D01*
X6260062Y-16288198D02*
X6241015Y-16297722D01*
X6241015Y-16297722D02*
X6231491Y-16307246D01*
X6231491Y-16307246D02*
X6221967Y-16326293D01*
X6221967Y-16326293D02*
X6221967Y-16364388D01*
X6221967Y-16364388D02*
X6231491Y-16383436D01*
X6231491Y-16383436D02*
X6241015Y-16392960D01*
X6241015Y-16392960D02*
X6260062Y-16402484D01*
X6260062Y-16402484D02*
X6298158Y-16402484D01*
X6298158Y-16402484D02*
X6317205Y-16392960D01*
X6317205Y-16392960D02*
X6326729Y-16383436D01*
X6326729Y-16383436D02*
X6336253Y-16364388D01*
X6336253Y-16364388D02*
X6336253Y-16326293D01*
X6336253Y-16326293D02*
X6326729Y-16307246D01*
X6326729Y-16307246D02*
X6317205Y-16297722D01*
X6317205Y-16297722D02*
X6298158Y-16288198D01*
X6431491Y-16402484D02*
X6469586Y-16402484D01*
X6469586Y-16402484D02*
X6488634Y-16392960D01*
X6488634Y-16392960D02*
X6498158Y-16383436D01*
X6498158Y-16383436D02*
X6517205Y-16354865D01*
X6517205Y-16354865D02*
X6526729Y-16316769D01*
X6526729Y-16316769D02*
X6526729Y-16240579D01*
X6526729Y-16240579D02*
X6517205Y-16221531D01*
X6517205Y-16221531D02*
X6507682Y-16212008D01*
X6507682Y-16212008D02*
X6488634Y-16202484D01*
X6488634Y-16202484D02*
X6450539Y-16202484D01*
X6450539Y-16202484D02*
X6431491Y-16212008D01*
X6431491Y-16212008D02*
X6421967Y-16221531D01*
X6421967Y-16221531D02*
X6412443Y-16240579D01*
X6412443Y-16240579D02*
X6412443Y-16288198D01*
X6412443Y-16288198D02*
X6421967Y-16307246D01*
X6421967Y-16307246D02*
X6431491Y-16316769D01*
X6431491Y-16316769D02*
X6450539Y-16326293D01*
X6450539Y-16326293D02*
X6488634Y-16326293D01*
X6488634Y-16326293D02*
X6507682Y-16316769D01*
X6507682Y-16316769D02*
X6517205Y-16307246D01*
X6517205Y-16307246D02*
X6526729Y-16288198D01*
X6650539Y-16202484D02*
X6669586Y-16202484D01*
X6669586Y-16202484D02*
X6688634Y-16212008D01*
X6688634Y-16212008D02*
X6698158Y-16221531D01*
X6698158Y-16221531D02*
X6707682Y-16240579D01*
X6707682Y-16240579D02*
X6717205Y-16278674D01*
X6717205Y-16278674D02*
X6717205Y-16326293D01*
X6717205Y-16326293D02*
X6707682Y-16364388D01*
X6707682Y-16364388D02*
X6698158Y-16383436D01*
X6698158Y-16383436D02*
X6688634Y-16392960D01*
X6688634Y-16392960D02*
X6669586Y-16402484D01*
X6669586Y-16402484D02*
X6650539Y-16402484D01*
X6650539Y-16402484D02*
X6631491Y-16392960D01*
X6631491Y-16392960D02*
X6621967Y-16383436D01*
X6621967Y-16383436D02*
X6612443Y-16364388D01*
X6612443Y-16364388D02*
X6602920Y-16326293D01*
X6602920Y-16326293D02*
X6602920Y-16278674D01*
X6602920Y-16278674D02*
X6612443Y-16240579D01*
X6612443Y-16240579D02*
X6621967Y-16221531D01*
X6621967Y-16221531D02*
X6631491Y-16212008D01*
X6631491Y-16212008D02*
X6650539Y-16202484D01*
X6802920Y-16402484D02*
X6802920Y-16269150D01*
X6802920Y-16288198D02*
X6812443Y-16278674D01*
X6812443Y-16278674D02*
X6831491Y-16269150D01*
X6831491Y-16269150D02*
X6860063Y-16269150D01*
X6860063Y-16269150D02*
X6879110Y-16278674D01*
X6879110Y-16278674D02*
X6888634Y-16297722D01*
X6888634Y-16297722D02*
X6888634Y-16402484D01*
X6888634Y-16297722D02*
X6898158Y-16278674D01*
X6898158Y-16278674D02*
X6917205Y-16269150D01*
X6917205Y-16269150D02*
X6945777Y-16269150D01*
X6945777Y-16269150D02*
X6964824Y-16278674D01*
X6964824Y-16278674D02*
X6974348Y-16297722D01*
X6974348Y-16297722D02*
X6974348Y-16402484D01*
X7069586Y-16402484D02*
X7069586Y-16269150D01*
X7069586Y-16288198D02*
X7079110Y-16278674D01*
X7079110Y-16278674D02*
X7098158Y-16269150D01*
X7098158Y-16269150D02*
X7126729Y-16269150D01*
X7126729Y-16269150D02*
X7145777Y-16278674D01*
X7145777Y-16278674D02*
X7155301Y-16297722D01*
X7155301Y-16297722D02*
X7155301Y-16402484D01*
X7155301Y-16297722D02*
X7164824Y-16278674D01*
X7164824Y-16278674D02*
X7183872Y-16269150D01*
X7183872Y-16269150D02*
X7212443Y-16269150D01*
X7212443Y-16269150D02*
X7231491Y-16278674D01*
X7231491Y-16278674D02*
X7241015Y-16297722D01*
X7241015Y-16297722D02*
X7241015Y-16402484D01*
X7631491Y-16192960D02*
X7460063Y-16450103D01*
X7888634Y-16202484D02*
X7907682Y-16202484D01*
X7907682Y-16202484D02*
X7926729Y-16212008D01*
X7926729Y-16212008D02*
X7936253Y-16221531D01*
X7936253Y-16221531D02*
X7945777Y-16240579D01*
X7945777Y-16240579D02*
X7955301Y-16278674D01*
X7955301Y-16278674D02*
X7955301Y-16326293D01*
X7955301Y-16326293D02*
X7945777Y-16364388D01*
X7945777Y-16364388D02*
X7936253Y-16383436D01*
X7936253Y-16383436D02*
X7926729Y-16392960D01*
X7926729Y-16392960D02*
X7907682Y-16402484D01*
X7907682Y-16402484D02*
X7888634Y-16402484D01*
X7888634Y-16402484D02*
X7869586Y-16392960D01*
X7869586Y-16392960D02*
X7860063Y-16383436D01*
X7860063Y-16383436D02*
X7850539Y-16364388D01*
X7850539Y-16364388D02*
X7841015Y-16326293D01*
X7841015Y-16326293D02*
X7841015Y-16278674D01*
X7841015Y-16278674D02*
X7850539Y-16240579D01*
X7850539Y-16240579D02*
X7860063Y-16221531D01*
X7860063Y-16221531D02*
X7869586Y-16212008D01*
X7869586Y-16212008D02*
X7888634Y-16202484D01*
X8041015Y-16383436D02*
X8050539Y-16392960D01*
X8050539Y-16392960D02*
X8041015Y-16402484D01*
X8041015Y-16402484D02*
X8031491Y-16392960D01*
X8031491Y-16392960D02*
X8041015Y-16383436D01*
X8041015Y-16383436D02*
X8041015Y-16402484D01*
X8174348Y-16202484D02*
X8193396Y-16202484D01*
X8193396Y-16202484D02*
X8212444Y-16212008D01*
X8212444Y-16212008D02*
X8221967Y-16221531D01*
X8221967Y-16221531D02*
X8231491Y-16240579D01*
X8231491Y-16240579D02*
X8241015Y-16278674D01*
X8241015Y-16278674D02*
X8241015Y-16326293D01*
X8241015Y-16326293D02*
X8231491Y-16364388D01*
X8231491Y-16364388D02*
X8221967Y-16383436D01*
X8221967Y-16383436D02*
X8212444Y-16392960D01*
X8212444Y-16392960D02*
X8193396Y-16402484D01*
X8193396Y-16402484D02*
X8174348Y-16402484D01*
X8174348Y-16402484D02*
X8155301Y-16392960D01*
X8155301Y-16392960D02*
X8145777Y-16383436D01*
X8145777Y-16383436D02*
X8136253Y-16364388D01*
X8136253Y-16364388D02*
X8126729Y-16326293D01*
X8126729Y-16326293D02*
X8126729Y-16278674D01*
X8126729Y-16278674D02*
X8136253Y-16240579D01*
X8136253Y-16240579D02*
X8145777Y-16221531D01*
X8145777Y-16221531D02*
X8155301Y-16212008D01*
X8155301Y-16212008D02*
X8174348Y-16202484D01*
X8307682Y-16202484D02*
X8431491Y-16202484D01*
X8431491Y-16202484D02*
X8364825Y-16278674D01*
X8364825Y-16278674D02*
X8393396Y-16278674D01*
X8393396Y-16278674D02*
X8412444Y-16288198D01*
X8412444Y-16288198D02*
X8421968Y-16297722D01*
X8421968Y-16297722D02*
X8431491Y-16316769D01*
X8431491Y-16316769D02*
X8431491Y-16364388D01*
X8431491Y-16364388D02*
X8421968Y-16383436D01*
X8421968Y-16383436D02*
X8412444Y-16392960D01*
X8412444Y-16392960D02*
X8393396Y-16402484D01*
X8393396Y-16402484D02*
X8336253Y-16402484D01*
X8336253Y-16402484D02*
X8317206Y-16392960D01*
X8317206Y-16392960D02*
X8307682Y-16383436D01*
X8612444Y-16202484D02*
X8517206Y-16202484D01*
X8517206Y-16202484D02*
X8507682Y-16297722D01*
X8507682Y-16297722D02*
X8517206Y-16288198D01*
X8517206Y-16288198D02*
X8536253Y-16278674D01*
X8536253Y-16278674D02*
X8583872Y-16278674D01*
X8583872Y-16278674D02*
X8602920Y-16288198D01*
X8602920Y-16288198D02*
X8612444Y-16297722D01*
X8612444Y-16297722D02*
X8621968Y-16316769D01*
X8621968Y-16316769D02*
X8621968Y-16364388D01*
X8621968Y-16364388D02*
X8612444Y-16383436D01*
X8612444Y-16383436D02*
X8602920Y-16392960D01*
X8602920Y-16392960D02*
X8583872Y-16402484D01*
X8583872Y-16402484D02*
X8536253Y-16402484D01*
X8536253Y-16402484D02*
X8517206Y-16392960D01*
X8517206Y-16392960D02*
X8507682Y-16383436D01*
X8745777Y-16202484D02*
X8764825Y-16202484D01*
X8764825Y-16202484D02*
X8783872Y-16212008D01*
X8783872Y-16212008D02*
X8793396Y-16221531D01*
X8793396Y-16221531D02*
X8802920Y-16240579D01*
X8802920Y-16240579D02*
X8812444Y-16278674D01*
X8812444Y-16278674D02*
X8812444Y-16326293D01*
X8812444Y-16326293D02*
X8802920Y-16364388D01*
X8802920Y-16364388D02*
X8793396Y-16383436D01*
X8793396Y-16383436D02*
X8783872Y-16392960D01*
X8783872Y-16392960D02*
X8764825Y-16402484D01*
X8764825Y-16402484D02*
X8745777Y-16402484D01*
X8745777Y-16402484D02*
X8726729Y-16392960D01*
X8726729Y-16392960D02*
X8717206Y-16383436D01*
X8717206Y-16383436D02*
X8707682Y-16364388D01*
X8707682Y-16364388D02*
X8698158Y-16326293D01*
X8698158Y-16326293D02*
X8698158Y-16278674D01*
X8698158Y-16278674D02*
X8707682Y-16240579D01*
X8707682Y-16240579D02*
X8717206Y-16221531D01*
X8717206Y-16221531D02*
X8726729Y-16212008D01*
X8726729Y-16212008D02*
X8745777Y-16202484D01*
X8888634Y-16202484D02*
X8888634Y-16240579D01*
X8964825Y-16202484D02*
X8964825Y-16240579D01*
X9260063Y-16478674D02*
X9250539Y-16469150D01*
X9250539Y-16469150D02*
X9231491Y-16440579D01*
X9231491Y-16440579D02*
X9221968Y-16421531D01*
X9221968Y-16421531D02*
X9212444Y-16392960D01*
X9212444Y-16392960D02*
X9202920Y-16345341D01*
X9202920Y-16345341D02*
X9202920Y-16307246D01*
X9202920Y-16307246D02*
X9212444Y-16259627D01*
X9212444Y-16259627D02*
X9221968Y-16231055D01*
X9221968Y-16231055D02*
X9231491Y-16212008D01*
X9231491Y-16212008D02*
X9250539Y-16183436D01*
X9250539Y-16183436D02*
X9260063Y-16173912D01*
X9441015Y-16402484D02*
X9326730Y-16402484D01*
X9383872Y-16402484D02*
X9383872Y-16202484D01*
X9383872Y-16202484D02*
X9364825Y-16231055D01*
X9364825Y-16231055D02*
X9345777Y-16250103D01*
X9345777Y-16250103D02*
X9326730Y-16259627D01*
X9517206Y-16221531D02*
X9526730Y-16212008D01*
X9526730Y-16212008D02*
X9545777Y-16202484D01*
X9545777Y-16202484D02*
X9593396Y-16202484D01*
X9593396Y-16202484D02*
X9612444Y-16212008D01*
X9612444Y-16212008D02*
X9621968Y-16221531D01*
X9621968Y-16221531D02*
X9631491Y-16240579D01*
X9631491Y-16240579D02*
X9631491Y-16259627D01*
X9631491Y-16259627D02*
X9621968Y-16288198D01*
X9621968Y-16288198D02*
X9507682Y-16402484D01*
X9507682Y-16402484D02*
X9631491Y-16402484D01*
X9869587Y-16402484D02*
X9869587Y-16202484D01*
X9955301Y-16402484D02*
X9955301Y-16297722D01*
X9955301Y-16297722D02*
X9945777Y-16278674D01*
X9945777Y-16278674D02*
X9926730Y-16269150D01*
X9926730Y-16269150D02*
X9898158Y-16269150D01*
X9898158Y-16269150D02*
X9879111Y-16278674D01*
X9879111Y-16278674D02*
X9869587Y-16288198D01*
X10079111Y-16402484D02*
X10060063Y-16392960D01*
X10060063Y-16392960D02*
X10050539Y-16383436D01*
X10050539Y-16383436D02*
X10041015Y-16364388D01*
X10041015Y-16364388D02*
X10041015Y-16307246D01*
X10041015Y-16307246D02*
X10050539Y-16288198D01*
X10050539Y-16288198D02*
X10060063Y-16278674D01*
X10060063Y-16278674D02*
X10079111Y-16269150D01*
X10079111Y-16269150D02*
X10107682Y-16269150D01*
X10107682Y-16269150D02*
X10126730Y-16278674D01*
X10126730Y-16278674D02*
X10136253Y-16288198D01*
X10136253Y-16288198D02*
X10145777Y-16307246D01*
X10145777Y-16307246D02*
X10145777Y-16364388D01*
X10145777Y-16364388D02*
X10136253Y-16383436D01*
X10136253Y-16383436D02*
X10126730Y-16392960D01*
X10126730Y-16392960D02*
X10107682Y-16402484D01*
X10107682Y-16402484D02*
X10079111Y-16402484D01*
X10260063Y-16402484D02*
X10241015Y-16392960D01*
X10241015Y-16392960D02*
X10231492Y-16373912D01*
X10231492Y-16373912D02*
X10231492Y-16202484D01*
X10412444Y-16392960D02*
X10393396Y-16402484D01*
X10393396Y-16402484D02*
X10355301Y-16402484D01*
X10355301Y-16402484D02*
X10336253Y-16392960D01*
X10336253Y-16392960D02*
X10326730Y-16373912D01*
X10326730Y-16373912D02*
X10326730Y-16297722D01*
X10326730Y-16297722D02*
X10336253Y-16278674D01*
X10336253Y-16278674D02*
X10355301Y-16269150D01*
X10355301Y-16269150D02*
X10393396Y-16269150D01*
X10393396Y-16269150D02*
X10412444Y-16278674D01*
X10412444Y-16278674D02*
X10421968Y-16297722D01*
X10421968Y-16297722D02*
X10421968Y-16316769D01*
X10421968Y-16316769D02*
X10326730Y-16335817D01*
X10498158Y-16392960D02*
X10517206Y-16402484D01*
X10517206Y-16402484D02*
X10555301Y-16402484D01*
X10555301Y-16402484D02*
X10574349Y-16392960D01*
X10574349Y-16392960D02*
X10583873Y-16373912D01*
X10583873Y-16373912D02*
X10583873Y-16364388D01*
X10583873Y-16364388D02*
X10574349Y-16345341D01*
X10574349Y-16345341D02*
X10555301Y-16335817D01*
X10555301Y-16335817D02*
X10526730Y-16335817D01*
X10526730Y-16335817D02*
X10507682Y-16326293D01*
X10507682Y-16326293D02*
X10498158Y-16307246D01*
X10498158Y-16307246D02*
X10498158Y-16297722D01*
X10498158Y-16297722D02*
X10507682Y-16278674D01*
X10507682Y-16278674D02*
X10526730Y-16269150D01*
X10526730Y-16269150D02*
X10555301Y-16269150D01*
X10555301Y-16269150D02*
X10574349Y-16278674D01*
X10650539Y-16478674D02*
X10660063Y-16469150D01*
X10660063Y-16469150D02*
X10679111Y-16440579D01*
X10679111Y-16440579D02*
X10688634Y-16421531D01*
X10688634Y-16421531D02*
X10698158Y-16392960D01*
X10698158Y-16392960D02*
X10707682Y-16345341D01*
X10707682Y-16345341D02*
X10707682Y-16307246D01*
X10707682Y-16307246D02*
X10698158Y-16259627D01*
X10698158Y-16259627D02*
X10688634Y-16231055D01*
X10688634Y-16231055D02*
X10679111Y-16212008D01*
X10679111Y-16212008D02*
X10660063Y-16183436D01*
X10660063Y-16183436D02*
X10650539Y-16173912D01*
D12*
X5585000Y-16525000D02*
X5685000Y-16625000D01*
X5685000Y-16525000D02*
X5585000Y-16625000D01*
X5685000Y-16575000D02*
G75*
G02*
X5585000Y-16575000I-50000J0D01*
G01*
X5585000Y-16575000D02*
G75*
G02*
X5685000Y-16575000I50000J0D01*
G01*
D11*
X6050539Y-16666484D02*
X5936253Y-16666484D01*
X5993396Y-16666484D02*
X5993396Y-16466484D01*
X5993396Y-16466484D02*
X5974348Y-16495055D01*
X5974348Y-16495055D02*
X5955301Y-16514103D01*
X5955301Y-16514103D02*
X5936253Y-16523627D01*
X6136253Y-16647436D02*
X6145777Y-16656960D01*
X6145777Y-16656960D02*
X6136253Y-16666484D01*
X6136253Y-16666484D02*
X6126729Y-16656960D01*
X6126729Y-16656960D02*
X6136253Y-16647436D01*
X6136253Y-16647436D02*
X6136253Y-16666484D01*
X6269586Y-16466484D02*
X6288634Y-16466484D01*
X6288634Y-16466484D02*
X6307682Y-16476008D01*
X6307682Y-16476008D02*
X6317205Y-16485531D01*
X6317205Y-16485531D02*
X6326729Y-16504579D01*
X6326729Y-16504579D02*
X6336253Y-16542674D01*
X6336253Y-16542674D02*
X6336253Y-16590293D01*
X6336253Y-16590293D02*
X6326729Y-16628388D01*
X6326729Y-16628388D02*
X6317205Y-16647436D01*
X6317205Y-16647436D02*
X6307682Y-16656960D01*
X6307682Y-16656960D02*
X6288634Y-16666484D01*
X6288634Y-16666484D02*
X6269586Y-16666484D01*
X6269586Y-16666484D02*
X6250539Y-16656960D01*
X6250539Y-16656960D02*
X6241015Y-16647436D01*
X6241015Y-16647436D02*
X6231491Y-16628388D01*
X6231491Y-16628388D02*
X6221967Y-16590293D01*
X6221967Y-16590293D02*
X6221967Y-16542674D01*
X6221967Y-16542674D02*
X6231491Y-16504579D01*
X6231491Y-16504579D02*
X6241015Y-16485531D01*
X6241015Y-16485531D02*
X6250539Y-16476008D01*
X6250539Y-16476008D02*
X6269586Y-16466484D01*
X6460062Y-16466484D02*
X6479110Y-16466484D01*
X6479110Y-16466484D02*
X6498158Y-16476008D01*
X6498158Y-16476008D02*
X6507682Y-16485531D01*
X6507682Y-16485531D02*
X6517205Y-16504579D01*
X6517205Y-16504579D02*
X6526729Y-16542674D01*
X6526729Y-16542674D02*
X6526729Y-16590293D01*
X6526729Y-16590293D02*
X6517205Y-16628388D01*
X6517205Y-16628388D02*
X6507682Y-16647436D01*
X6507682Y-16647436D02*
X6498158Y-16656960D01*
X6498158Y-16656960D02*
X6479110Y-16666484D01*
X6479110Y-16666484D02*
X6460062Y-16666484D01*
X6460062Y-16666484D02*
X6441015Y-16656960D01*
X6441015Y-16656960D02*
X6431491Y-16647436D01*
X6431491Y-16647436D02*
X6421967Y-16628388D01*
X6421967Y-16628388D02*
X6412443Y-16590293D01*
X6412443Y-16590293D02*
X6412443Y-16542674D01*
X6412443Y-16542674D02*
X6421967Y-16504579D01*
X6421967Y-16504579D02*
X6431491Y-16485531D01*
X6431491Y-16485531D02*
X6441015Y-16476008D01*
X6441015Y-16476008D02*
X6460062Y-16466484D01*
X6650539Y-16466484D02*
X6669586Y-16466484D01*
X6669586Y-16466484D02*
X6688634Y-16476008D01*
X6688634Y-16476008D02*
X6698158Y-16485531D01*
X6698158Y-16485531D02*
X6707682Y-16504579D01*
X6707682Y-16504579D02*
X6717205Y-16542674D01*
X6717205Y-16542674D02*
X6717205Y-16590293D01*
X6717205Y-16590293D02*
X6707682Y-16628388D01*
X6707682Y-16628388D02*
X6698158Y-16647436D01*
X6698158Y-16647436D02*
X6688634Y-16656960D01*
X6688634Y-16656960D02*
X6669586Y-16666484D01*
X6669586Y-16666484D02*
X6650539Y-16666484D01*
X6650539Y-16666484D02*
X6631491Y-16656960D01*
X6631491Y-16656960D02*
X6621967Y-16647436D01*
X6621967Y-16647436D02*
X6612443Y-16628388D01*
X6612443Y-16628388D02*
X6602920Y-16590293D01*
X6602920Y-16590293D02*
X6602920Y-16542674D01*
X6602920Y-16542674D02*
X6612443Y-16504579D01*
X6612443Y-16504579D02*
X6621967Y-16485531D01*
X6621967Y-16485531D02*
X6631491Y-16476008D01*
X6631491Y-16476008D02*
X6650539Y-16466484D01*
X6802920Y-16666484D02*
X6802920Y-16533150D01*
X6802920Y-16552198D02*
X6812443Y-16542674D01*
X6812443Y-16542674D02*
X6831491Y-16533150D01*
X6831491Y-16533150D02*
X6860063Y-16533150D01*
X6860063Y-16533150D02*
X6879110Y-16542674D01*
X6879110Y-16542674D02*
X6888634Y-16561722D01*
X6888634Y-16561722D02*
X6888634Y-16666484D01*
X6888634Y-16561722D02*
X6898158Y-16542674D01*
X6898158Y-16542674D02*
X6917205Y-16533150D01*
X6917205Y-16533150D02*
X6945777Y-16533150D01*
X6945777Y-16533150D02*
X6964824Y-16542674D01*
X6964824Y-16542674D02*
X6974348Y-16561722D01*
X6974348Y-16561722D02*
X6974348Y-16666484D01*
X7069586Y-16666484D02*
X7069586Y-16533150D01*
X7069586Y-16552198D02*
X7079110Y-16542674D01*
X7079110Y-16542674D02*
X7098158Y-16533150D01*
X7098158Y-16533150D02*
X7126729Y-16533150D01*
X7126729Y-16533150D02*
X7145777Y-16542674D01*
X7145777Y-16542674D02*
X7155301Y-16561722D01*
X7155301Y-16561722D02*
X7155301Y-16666484D01*
X7155301Y-16561722D02*
X7164824Y-16542674D01*
X7164824Y-16542674D02*
X7183872Y-16533150D01*
X7183872Y-16533150D02*
X7212443Y-16533150D01*
X7212443Y-16533150D02*
X7231491Y-16542674D01*
X7231491Y-16542674D02*
X7241015Y-16561722D01*
X7241015Y-16561722D02*
X7241015Y-16666484D01*
X7631491Y-16456960D02*
X7460063Y-16714103D01*
X7888634Y-16466484D02*
X7907682Y-16466484D01*
X7907682Y-16466484D02*
X7926729Y-16476008D01*
X7926729Y-16476008D02*
X7936253Y-16485531D01*
X7936253Y-16485531D02*
X7945777Y-16504579D01*
X7945777Y-16504579D02*
X7955301Y-16542674D01*
X7955301Y-16542674D02*
X7955301Y-16590293D01*
X7955301Y-16590293D02*
X7945777Y-16628388D01*
X7945777Y-16628388D02*
X7936253Y-16647436D01*
X7936253Y-16647436D02*
X7926729Y-16656960D01*
X7926729Y-16656960D02*
X7907682Y-16666484D01*
X7907682Y-16666484D02*
X7888634Y-16666484D01*
X7888634Y-16666484D02*
X7869586Y-16656960D01*
X7869586Y-16656960D02*
X7860063Y-16647436D01*
X7860063Y-16647436D02*
X7850539Y-16628388D01*
X7850539Y-16628388D02*
X7841015Y-16590293D01*
X7841015Y-16590293D02*
X7841015Y-16542674D01*
X7841015Y-16542674D02*
X7850539Y-16504579D01*
X7850539Y-16504579D02*
X7860063Y-16485531D01*
X7860063Y-16485531D02*
X7869586Y-16476008D01*
X7869586Y-16476008D02*
X7888634Y-16466484D01*
X8041015Y-16647436D02*
X8050539Y-16656960D01*
X8050539Y-16656960D02*
X8041015Y-16666484D01*
X8041015Y-16666484D02*
X8031491Y-16656960D01*
X8031491Y-16656960D02*
X8041015Y-16647436D01*
X8041015Y-16647436D02*
X8041015Y-16666484D01*
X8174348Y-16466484D02*
X8193396Y-16466484D01*
X8193396Y-16466484D02*
X8212444Y-16476008D01*
X8212444Y-16476008D02*
X8221967Y-16485531D01*
X8221967Y-16485531D02*
X8231491Y-16504579D01*
X8231491Y-16504579D02*
X8241015Y-16542674D01*
X8241015Y-16542674D02*
X8241015Y-16590293D01*
X8241015Y-16590293D02*
X8231491Y-16628388D01*
X8231491Y-16628388D02*
X8221967Y-16647436D01*
X8221967Y-16647436D02*
X8212444Y-16656960D01*
X8212444Y-16656960D02*
X8193396Y-16666484D01*
X8193396Y-16666484D02*
X8174348Y-16666484D01*
X8174348Y-16666484D02*
X8155301Y-16656960D01*
X8155301Y-16656960D02*
X8145777Y-16647436D01*
X8145777Y-16647436D02*
X8136253Y-16628388D01*
X8136253Y-16628388D02*
X8126729Y-16590293D01*
X8126729Y-16590293D02*
X8126729Y-16542674D01*
X8126729Y-16542674D02*
X8136253Y-16504579D01*
X8136253Y-16504579D02*
X8145777Y-16485531D01*
X8145777Y-16485531D02*
X8155301Y-16476008D01*
X8155301Y-16476008D02*
X8174348Y-16466484D01*
X8307682Y-16466484D02*
X8431491Y-16466484D01*
X8431491Y-16466484D02*
X8364825Y-16542674D01*
X8364825Y-16542674D02*
X8393396Y-16542674D01*
X8393396Y-16542674D02*
X8412444Y-16552198D01*
X8412444Y-16552198D02*
X8421968Y-16561722D01*
X8421968Y-16561722D02*
X8431491Y-16580769D01*
X8431491Y-16580769D02*
X8431491Y-16628388D01*
X8431491Y-16628388D02*
X8421968Y-16647436D01*
X8421968Y-16647436D02*
X8412444Y-16656960D01*
X8412444Y-16656960D02*
X8393396Y-16666484D01*
X8393396Y-16666484D02*
X8336253Y-16666484D01*
X8336253Y-16666484D02*
X8317206Y-16656960D01*
X8317206Y-16656960D02*
X8307682Y-16647436D01*
X8526729Y-16666484D02*
X8564825Y-16666484D01*
X8564825Y-16666484D02*
X8583872Y-16656960D01*
X8583872Y-16656960D02*
X8593396Y-16647436D01*
X8593396Y-16647436D02*
X8612444Y-16618865D01*
X8612444Y-16618865D02*
X8621968Y-16580769D01*
X8621968Y-16580769D02*
X8621968Y-16504579D01*
X8621968Y-16504579D02*
X8612444Y-16485531D01*
X8612444Y-16485531D02*
X8602920Y-16476008D01*
X8602920Y-16476008D02*
X8583872Y-16466484D01*
X8583872Y-16466484D02*
X8545777Y-16466484D01*
X8545777Y-16466484D02*
X8526729Y-16476008D01*
X8526729Y-16476008D02*
X8517206Y-16485531D01*
X8517206Y-16485531D02*
X8507682Y-16504579D01*
X8507682Y-16504579D02*
X8507682Y-16552198D01*
X8507682Y-16552198D02*
X8517206Y-16571246D01*
X8517206Y-16571246D02*
X8526729Y-16580769D01*
X8526729Y-16580769D02*
X8545777Y-16590293D01*
X8545777Y-16590293D02*
X8583872Y-16590293D01*
X8583872Y-16590293D02*
X8602920Y-16580769D01*
X8602920Y-16580769D02*
X8612444Y-16571246D01*
X8612444Y-16571246D02*
X8621968Y-16552198D01*
X8793396Y-16533150D02*
X8793396Y-16666484D01*
X8745777Y-16456960D02*
X8698158Y-16599817D01*
X8698158Y-16599817D02*
X8821968Y-16599817D01*
X8888634Y-16466484D02*
X8888634Y-16504579D01*
X8964825Y-16466484D02*
X8964825Y-16504579D01*
X9260063Y-16742674D02*
X9250539Y-16733150D01*
X9250539Y-16733150D02*
X9231491Y-16704579D01*
X9231491Y-16704579D02*
X9221968Y-16685531D01*
X9221968Y-16685531D02*
X9212444Y-16656960D01*
X9212444Y-16656960D02*
X9202920Y-16609341D01*
X9202920Y-16609341D02*
X9202920Y-16571246D01*
X9202920Y-16571246D02*
X9212444Y-16523627D01*
X9212444Y-16523627D02*
X9221968Y-16495055D01*
X9221968Y-16495055D02*
X9231491Y-16476008D01*
X9231491Y-16476008D02*
X9250539Y-16447436D01*
X9250539Y-16447436D02*
X9260063Y-16437912D01*
X9431491Y-16466484D02*
X9336253Y-16466484D01*
X9336253Y-16466484D02*
X9326730Y-16561722D01*
X9326730Y-16561722D02*
X9336253Y-16552198D01*
X9336253Y-16552198D02*
X9355301Y-16542674D01*
X9355301Y-16542674D02*
X9402920Y-16542674D01*
X9402920Y-16542674D02*
X9421968Y-16552198D01*
X9421968Y-16552198D02*
X9431491Y-16561722D01*
X9431491Y-16561722D02*
X9441015Y-16580769D01*
X9441015Y-16580769D02*
X9441015Y-16628388D01*
X9441015Y-16628388D02*
X9431491Y-16647436D01*
X9431491Y-16647436D02*
X9421968Y-16656960D01*
X9421968Y-16656960D02*
X9402920Y-16666484D01*
X9402920Y-16666484D02*
X9355301Y-16666484D01*
X9355301Y-16666484D02*
X9336253Y-16656960D01*
X9336253Y-16656960D02*
X9326730Y-16647436D01*
X9679111Y-16666484D02*
X9679111Y-16466484D01*
X9764825Y-16666484D02*
X9764825Y-16561722D01*
X9764825Y-16561722D02*
X9755301Y-16542674D01*
X9755301Y-16542674D02*
X9736253Y-16533150D01*
X9736253Y-16533150D02*
X9707682Y-16533150D01*
X9707682Y-16533150D02*
X9688634Y-16542674D01*
X9688634Y-16542674D02*
X9679111Y-16552198D01*
X9888634Y-16666484D02*
X9869587Y-16656960D01*
X9869587Y-16656960D02*
X9860063Y-16647436D01*
X9860063Y-16647436D02*
X9850539Y-16628388D01*
X9850539Y-16628388D02*
X9850539Y-16571246D01*
X9850539Y-16571246D02*
X9860063Y-16552198D01*
X9860063Y-16552198D02*
X9869587Y-16542674D01*
X9869587Y-16542674D02*
X9888634Y-16533150D01*
X9888634Y-16533150D02*
X9917206Y-16533150D01*
X9917206Y-16533150D02*
X9936253Y-16542674D01*
X9936253Y-16542674D02*
X9945777Y-16552198D01*
X9945777Y-16552198D02*
X9955301Y-16571246D01*
X9955301Y-16571246D02*
X9955301Y-16628388D01*
X9955301Y-16628388D02*
X9945777Y-16647436D01*
X9945777Y-16647436D02*
X9936253Y-16656960D01*
X9936253Y-16656960D02*
X9917206Y-16666484D01*
X9917206Y-16666484D02*
X9888634Y-16666484D01*
X10069587Y-16666484D02*
X10050539Y-16656960D01*
X10050539Y-16656960D02*
X10041015Y-16637912D01*
X10041015Y-16637912D02*
X10041015Y-16466484D01*
X10221968Y-16656960D02*
X10202920Y-16666484D01*
X10202920Y-16666484D02*
X10164825Y-16666484D01*
X10164825Y-16666484D02*
X10145777Y-16656960D01*
X10145777Y-16656960D02*
X10136253Y-16637912D01*
X10136253Y-16637912D02*
X10136253Y-16561722D01*
X10136253Y-16561722D02*
X10145777Y-16542674D01*
X10145777Y-16542674D02*
X10164825Y-16533150D01*
X10164825Y-16533150D02*
X10202920Y-16533150D01*
X10202920Y-16533150D02*
X10221968Y-16542674D01*
X10221968Y-16542674D02*
X10231492Y-16561722D01*
X10231492Y-16561722D02*
X10231492Y-16580769D01*
X10231492Y-16580769D02*
X10136253Y-16599817D01*
X10307682Y-16656960D02*
X10326730Y-16666484D01*
X10326730Y-16666484D02*
X10364825Y-16666484D01*
X10364825Y-16666484D02*
X10383873Y-16656960D01*
X10383873Y-16656960D02*
X10393396Y-16637912D01*
X10393396Y-16637912D02*
X10393396Y-16628388D01*
X10393396Y-16628388D02*
X10383873Y-16609341D01*
X10383873Y-16609341D02*
X10364825Y-16599817D01*
X10364825Y-16599817D02*
X10336253Y-16599817D01*
X10336253Y-16599817D02*
X10317206Y-16590293D01*
X10317206Y-16590293D02*
X10307682Y-16571246D01*
X10307682Y-16571246D02*
X10307682Y-16561722D01*
X10307682Y-16561722D02*
X10317206Y-16542674D01*
X10317206Y-16542674D02*
X10336253Y-16533150D01*
X10336253Y-16533150D02*
X10364825Y-16533150D01*
X10364825Y-16533150D02*
X10383873Y-16542674D01*
X10460063Y-16742674D02*
X10469587Y-16733150D01*
X10469587Y-16733150D02*
X10488634Y-16704579D01*
X10488634Y-16704579D02*
X10498158Y-16685531D01*
X10498158Y-16685531D02*
X10507682Y-16656960D01*
X10507682Y-16656960D02*
X10517206Y-16609341D01*
X10517206Y-16609341D02*
X10517206Y-16571246D01*
X10517206Y-16571246D02*
X10507682Y-16523627D01*
X10507682Y-16523627D02*
X10498158Y-16495055D01*
X10498158Y-16495055D02*
X10488634Y-16476008D01*
X10488634Y-16476008D02*
X10469587Y-16447436D01*
X10469587Y-16447436D02*
X10460063Y-16437912D01*
D13*
X5583400Y-16788200D02*
X5685000Y-16889800D01*
X5685000Y-16788200D02*
X5583400Y-16889800D01*
X5634200Y-16788200D02*
X5634200Y-16889800D01*
X5583400Y-16839000D02*
X5685000Y-16839000D01*
D11*
X6050539Y-16930484D02*
X5936253Y-16930484D01*
X5993396Y-16930484D02*
X5993396Y-16730484D01*
X5993396Y-16730484D02*
X5974348Y-16759055D01*
X5974348Y-16759055D02*
X5955301Y-16778103D01*
X5955301Y-16778103D02*
X5936253Y-16787627D01*
X6136253Y-16911436D02*
X6145777Y-16920960D01*
X6145777Y-16920960D02*
X6136253Y-16930484D01*
X6136253Y-16930484D02*
X6126729Y-16920960D01*
X6126729Y-16920960D02*
X6136253Y-16911436D01*
X6136253Y-16911436D02*
X6136253Y-16930484D01*
X6269586Y-16730484D02*
X6288634Y-16730484D01*
X6288634Y-16730484D02*
X6307682Y-16740008D01*
X6307682Y-16740008D02*
X6317205Y-16749531D01*
X6317205Y-16749531D02*
X6326729Y-16768579D01*
X6326729Y-16768579D02*
X6336253Y-16806674D01*
X6336253Y-16806674D02*
X6336253Y-16854293D01*
X6336253Y-16854293D02*
X6326729Y-16892389D01*
X6326729Y-16892389D02*
X6317205Y-16911436D01*
X6317205Y-16911436D02*
X6307682Y-16920960D01*
X6307682Y-16920960D02*
X6288634Y-16930484D01*
X6288634Y-16930484D02*
X6269586Y-16930484D01*
X6269586Y-16930484D02*
X6250539Y-16920960D01*
X6250539Y-16920960D02*
X6241015Y-16911436D01*
X6241015Y-16911436D02*
X6231491Y-16892389D01*
X6231491Y-16892389D02*
X6221967Y-16854293D01*
X6221967Y-16854293D02*
X6221967Y-16806674D01*
X6221967Y-16806674D02*
X6231491Y-16768579D01*
X6231491Y-16768579D02*
X6241015Y-16749531D01*
X6241015Y-16749531D02*
X6250539Y-16740008D01*
X6250539Y-16740008D02*
X6269586Y-16730484D01*
X6526729Y-16930484D02*
X6412443Y-16930484D01*
X6469586Y-16930484D02*
X6469586Y-16730484D01*
X6469586Y-16730484D02*
X6450539Y-16759055D01*
X6450539Y-16759055D02*
X6431491Y-16778103D01*
X6431491Y-16778103D02*
X6412443Y-16787627D01*
X6698158Y-16730484D02*
X6660062Y-16730484D01*
X6660062Y-16730484D02*
X6641015Y-16740008D01*
X6641015Y-16740008D02*
X6631491Y-16749531D01*
X6631491Y-16749531D02*
X6612443Y-16778103D01*
X6612443Y-16778103D02*
X6602920Y-16816198D01*
X6602920Y-16816198D02*
X6602920Y-16892389D01*
X6602920Y-16892389D02*
X6612443Y-16911436D01*
X6612443Y-16911436D02*
X6621967Y-16920960D01*
X6621967Y-16920960D02*
X6641015Y-16930484D01*
X6641015Y-16930484D02*
X6679110Y-16930484D01*
X6679110Y-16930484D02*
X6698158Y-16920960D01*
X6698158Y-16920960D02*
X6707682Y-16911436D01*
X6707682Y-16911436D02*
X6717205Y-16892389D01*
X6717205Y-16892389D02*
X6717205Y-16844770D01*
X6717205Y-16844770D02*
X6707682Y-16825722D01*
X6707682Y-16825722D02*
X6698158Y-16816198D01*
X6698158Y-16816198D02*
X6679110Y-16806674D01*
X6679110Y-16806674D02*
X6641015Y-16806674D01*
X6641015Y-16806674D02*
X6621967Y-16816198D01*
X6621967Y-16816198D02*
X6612443Y-16825722D01*
X6612443Y-16825722D02*
X6602920Y-16844770D01*
X6802920Y-16930484D02*
X6802920Y-16797150D01*
X6802920Y-16816198D02*
X6812443Y-16806674D01*
X6812443Y-16806674D02*
X6831491Y-16797150D01*
X6831491Y-16797150D02*
X6860063Y-16797150D01*
X6860063Y-16797150D02*
X6879110Y-16806674D01*
X6879110Y-16806674D02*
X6888634Y-16825722D01*
X6888634Y-16825722D02*
X6888634Y-16930484D01*
X6888634Y-16825722D02*
X6898158Y-16806674D01*
X6898158Y-16806674D02*
X6917205Y-16797150D01*
X6917205Y-16797150D02*
X6945777Y-16797150D01*
X6945777Y-16797150D02*
X6964824Y-16806674D01*
X6964824Y-16806674D02*
X6974348Y-16825722D01*
X6974348Y-16825722D02*
X6974348Y-16930484D01*
X7069586Y-16930484D02*
X7069586Y-16797150D01*
X7069586Y-16816198D02*
X7079110Y-16806674D01*
X7079110Y-16806674D02*
X7098158Y-16797150D01*
X7098158Y-16797150D02*
X7126729Y-16797150D01*
X7126729Y-16797150D02*
X7145777Y-16806674D01*
X7145777Y-16806674D02*
X7155301Y-16825722D01*
X7155301Y-16825722D02*
X7155301Y-16930484D01*
X7155301Y-16825722D02*
X7164824Y-16806674D01*
X7164824Y-16806674D02*
X7183872Y-16797150D01*
X7183872Y-16797150D02*
X7212443Y-16797150D01*
X7212443Y-16797150D02*
X7231491Y-16806674D01*
X7231491Y-16806674D02*
X7241015Y-16825722D01*
X7241015Y-16825722D02*
X7241015Y-16930484D01*
X7631491Y-16720960D02*
X7460063Y-16978103D01*
X7888634Y-16730484D02*
X7907682Y-16730484D01*
X7907682Y-16730484D02*
X7926729Y-16740008D01*
X7926729Y-16740008D02*
X7936253Y-16749531D01*
X7936253Y-16749531D02*
X7945777Y-16768579D01*
X7945777Y-16768579D02*
X7955301Y-16806674D01*
X7955301Y-16806674D02*
X7955301Y-16854293D01*
X7955301Y-16854293D02*
X7945777Y-16892389D01*
X7945777Y-16892389D02*
X7936253Y-16911436D01*
X7936253Y-16911436D02*
X7926729Y-16920960D01*
X7926729Y-16920960D02*
X7907682Y-16930484D01*
X7907682Y-16930484D02*
X7888634Y-16930484D01*
X7888634Y-16930484D02*
X7869586Y-16920960D01*
X7869586Y-16920960D02*
X7860063Y-16911436D01*
X7860063Y-16911436D02*
X7850539Y-16892389D01*
X7850539Y-16892389D02*
X7841015Y-16854293D01*
X7841015Y-16854293D02*
X7841015Y-16806674D01*
X7841015Y-16806674D02*
X7850539Y-16768579D01*
X7850539Y-16768579D02*
X7860063Y-16749531D01*
X7860063Y-16749531D02*
X7869586Y-16740008D01*
X7869586Y-16740008D02*
X7888634Y-16730484D01*
X8041015Y-16911436D02*
X8050539Y-16920960D01*
X8050539Y-16920960D02*
X8041015Y-16930484D01*
X8041015Y-16930484D02*
X8031491Y-16920960D01*
X8031491Y-16920960D02*
X8041015Y-16911436D01*
X8041015Y-16911436D02*
X8041015Y-16930484D01*
X8174348Y-16730484D02*
X8193396Y-16730484D01*
X8193396Y-16730484D02*
X8212444Y-16740008D01*
X8212444Y-16740008D02*
X8221967Y-16749531D01*
X8221967Y-16749531D02*
X8231491Y-16768579D01*
X8231491Y-16768579D02*
X8241015Y-16806674D01*
X8241015Y-16806674D02*
X8241015Y-16854293D01*
X8241015Y-16854293D02*
X8231491Y-16892389D01*
X8231491Y-16892389D02*
X8221967Y-16911436D01*
X8221967Y-16911436D02*
X8212444Y-16920960D01*
X8212444Y-16920960D02*
X8193396Y-16930484D01*
X8193396Y-16930484D02*
X8174348Y-16930484D01*
X8174348Y-16930484D02*
X8155301Y-16920960D01*
X8155301Y-16920960D02*
X8145777Y-16911436D01*
X8145777Y-16911436D02*
X8136253Y-16892389D01*
X8136253Y-16892389D02*
X8126729Y-16854293D01*
X8126729Y-16854293D02*
X8126729Y-16806674D01*
X8126729Y-16806674D02*
X8136253Y-16768579D01*
X8136253Y-16768579D02*
X8145777Y-16749531D01*
X8145777Y-16749531D02*
X8155301Y-16740008D01*
X8155301Y-16740008D02*
X8174348Y-16730484D01*
X8412444Y-16797150D02*
X8412444Y-16930484D01*
X8364825Y-16720960D02*
X8317206Y-16863817D01*
X8317206Y-16863817D02*
X8441015Y-16863817D01*
X8555301Y-16730484D02*
X8574349Y-16730484D01*
X8574349Y-16730484D02*
X8593396Y-16740008D01*
X8593396Y-16740008D02*
X8602920Y-16749531D01*
X8602920Y-16749531D02*
X8612444Y-16768579D01*
X8612444Y-16768579D02*
X8621968Y-16806674D01*
X8621968Y-16806674D02*
X8621968Y-16854293D01*
X8621968Y-16854293D02*
X8612444Y-16892389D01*
X8612444Y-16892389D02*
X8602920Y-16911436D01*
X8602920Y-16911436D02*
X8593396Y-16920960D01*
X8593396Y-16920960D02*
X8574349Y-16930484D01*
X8574349Y-16930484D02*
X8555301Y-16930484D01*
X8555301Y-16930484D02*
X8536253Y-16920960D01*
X8536253Y-16920960D02*
X8526729Y-16911436D01*
X8526729Y-16911436D02*
X8517206Y-16892389D01*
X8517206Y-16892389D02*
X8507682Y-16854293D01*
X8507682Y-16854293D02*
X8507682Y-16806674D01*
X8507682Y-16806674D02*
X8517206Y-16768579D01*
X8517206Y-16768579D02*
X8526729Y-16749531D01*
X8526729Y-16749531D02*
X8536253Y-16740008D01*
X8536253Y-16740008D02*
X8555301Y-16730484D01*
X8745777Y-16730484D02*
X8764825Y-16730484D01*
X8764825Y-16730484D02*
X8783872Y-16740008D01*
X8783872Y-16740008D02*
X8793396Y-16749531D01*
X8793396Y-16749531D02*
X8802920Y-16768579D01*
X8802920Y-16768579D02*
X8812444Y-16806674D01*
X8812444Y-16806674D02*
X8812444Y-16854293D01*
X8812444Y-16854293D02*
X8802920Y-16892389D01*
X8802920Y-16892389D02*
X8793396Y-16911436D01*
X8793396Y-16911436D02*
X8783872Y-16920960D01*
X8783872Y-16920960D02*
X8764825Y-16930484D01*
X8764825Y-16930484D02*
X8745777Y-16930484D01*
X8745777Y-16930484D02*
X8726729Y-16920960D01*
X8726729Y-16920960D02*
X8717206Y-16911436D01*
X8717206Y-16911436D02*
X8707682Y-16892389D01*
X8707682Y-16892389D02*
X8698158Y-16854293D01*
X8698158Y-16854293D02*
X8698158Y-16806674D01*
X8698158Y-16806674D02*
X8707682Y-16768579D01*
X8707682Y-16768579D02*
X8717206Y-16749531D01*
X8717206Y-16749531D02*
X8726729Y-16740008D01*
X8726729Y-16740008D02*
X8745777Y-16730484D01*
X8888634Y-16730484D02*
X8888634Y-16768579D01*
X8964825Y-16730484D02*
X8964825Y-16768579D01*
X9260063Y-17006674D02*
X9250539Y-16997150D01*
X9250539Y-16997150D02*
X9231491Y-16968579D01*
X9231491Y-16968579D02*
X9221968Y-16949531D01*
X9221968Y-16949531D02*
X9212444Y-16920960D01*
X9212444Y-16920960D02*
X9202920Y-16873341D01*
X9202920Y-16873341D02*
X9202920Y-16835246D01*
X9202920Y-16835246D02*
X9212444Y-16787627D01*
X9212444Y-16787627D02*
X9221968Y-16759055D01*
X9221968Y-16759055D02*
X9231491Y-16740008D01*
X9231491Y-16740008D02*
X9250539Y-16711436D01*
X9250539Y-16711436D02*
X9260063Y-16701912D01*
X9317206Y-16730484D02*
X9450539Y-16730484D01*
X9450539Y-16730484D02*
X9364825Y-16930484D01*
X9612444Y-16730484D02*
X9574349Y-16730484D01*
X9574349Y-16730484D02*
X9555301Y-16740008D01*
X9555301Y-16740008D02*
X9545777Y-16749531D01*
X9545777Y-16749531D02*
X9526730Y-16778103D01*
X9526730Y-16778103D02*
X9517206Y-16816198D01*
X9517206Y-16816198D02*
X9517206Y-16892389D01*
X9517206Y-16892389D02*
X9526730Y-16911436D01*
X9526730Y-16911436D02*
X9536253Y-16920960D01*
X9536253Y-16920960D02*
X9555301Y-16930484D01*
X9555301Y-16930484D02*
X9593396Y-16930484D01*
X9593396Y-16930484D02*
X9612444Y-16920960D01*
X9612444Y-16920960D02*
X9621968Y-16911436D01*
X9621968Y-16911436D02*
X9631491Y-16892389D01*
X9631491Y-16892389D02*
X9631491Y-16844770D01*
X9631491Y-16844770D02*
X9621968Y-16825722D01*
X9621968Y-16825722D02*
X9612444Y-16816198D01*
X9612444Y-16816198D02*
X9593396Y-16806674D01*
X9593396Y-16806674D02*
X9555301Y-16806674D01*
X9555301Y-16806674D02*
X9536253Y-16816198D01*
X9536253Y-16816198D02*
X9526730Y-16825722D01*
X9526730Y-16825722D02*
X9517206Y-16844770D01*
X9869587Y-16930484D02*
X9869587Y-16730484D01*
X9955301Y-16930484D02*
X9955301Y-16825722D01*
X9955301Y-16825722D02*
X9945777Y-16806674D01*
X9945777Y-16806674D02*
X9926730Y-16797150D01*
X9926730Y-16797150D02*
X9898158Y-16797150D01*
X9898158Y-16797150D02*
X9879111Y-16806674D01*
X9879111Y-16806674D02*
X9869587Y-16816198D01*
X10079111Y-16930484D02*
X10060063Y-16920960D01*
X10060063Y-16920960D02*
X10050539Y-16911436D01*
X10050539Y-16911436D02*
X10041015Y-16892389D01*
X10041015Y-16892389D02*
X10041015Y-16835246D01*
X10041015Y-16835246D02*
X10050539Y-16816198D01*
X10050539Y-16816198D02*
X10060063Y-16806674D01*
X10060063Y-16806674D02*
X10079111Y-16797150D01*
X10079111Y-16797150D02*
X10107682Y-16797150D01*
X10107682Y-16797150D02*
X10126730Y-16806674D01*
X10126730Y-16806674D02*
X10136253Y-16816198D01*
X10136253Y-16816198D02*
X10145777Y-16835246D01*
X10145777Y-16835246D02*
X10145777Y-16892389D01*
X10145777Y-16892389D02*
X10136253Y-16911436D01*
X10136253Y-16911436D02*
X10126730Y-16920960D01*
X10126730Y-16920960D02*
X10107682Y-16930484D01*
X10107682Y-16930484D02*
X10079111Y-16930484D01*
X10260063Y-16930484D02*
X10241015Y-16920960D01*
X10241015Y-16920960D02*
X10231492Y-16901912D01*
X10231492Y-16901912D02*
X10231492Y-16730484D01*
X10412444Y-16920960D02*
X10393396Y-16930484D01*
X10393396Y-16930484D02*
X10355301Y-16930484D01*
X10355301Y-16930484D02*
X10336253Y-16920960D01*
X10336253Y-16920960D02*
X10326730Y-16901912D01*
X10326730Y-16901912D02*
X10326730Y-16825722D01*
X10326730Y-16825722D02*
X10336253Y-16806674D01*
X10336253Y-16806674D02*
X10355301Y-16797150D01*
X10355301Y-16797150D02*
X10393396Y-16797150D01*
X10393396Y-16797150D02*
X10412444Y-16806674D01*
X10412444Y-16806674D02*
X10421968Y-16825722D01*
X10421968Y-16825722D02*
X10421968Y-16844770D01*
X10421968Y-16844770D02*
X10326730Y-16863817D01*
X10498158Y-16920960D02*
X10517206Y-16930484D01*
X10517206Y-16930484D02*
X10555301Y-16930484D01*
X10555301Y-16930484D02*
X10574349Y-16920960D01*
X10574349Y-16920960D02*
X10583873Y-16901912D01*
X10583873Y-16901912D02*
X10583873Y-16892389D01*
X10583873Y-16892389D02*
X10574349Y-16873341D01*
X10574349Y-16873341D02*
X10555301Y-16863817D01*
X10555301Y-16863817D02*
X10526730Y-16863817D01*
X10526730Y-16863817D02*
X10507682Y-16854293D01*
X10507682Y-16854293D02*
X10498158Y-16835246D01*
X10498158Y-16835246D02*
X10498158Y-16825722D01*
X10498158Y-16825722D02*
X10507682Y-16806674D01*
X10507682Y-16806674D02*
X10526730Y-16797150D01*
X10526730Y-16797150D02*
X10555301Y-16797150D01*
X10555301Y-16797150D02*
X10574349Y-16806674D01*
X10650539Y-17006674D02*
X10660063Y-16997150D01*
X10660063Y-16997150D02*
X10679111Y-16968579D01*
X10679111Y-16968579D02*
X10688634Y-16949531D01*
X10688634Y-16949531D02*
X10698158Y-16920960D01*
X10698158Y-16920960D02*
X10707682Y-16873341D01*
X10707682Y-16873341D02*
X10707682Y-16835246D01*
X10707682Y-16835246D02*
X10698158Y-16787627D01*
X10698158Y-16787627D02*
X10688634Y-16759055D01*
X10688634Y-16759055D02*
X10679111Y-16740008D01*
X10679111Y-16740008D02*
X10660063Y-16711436D01*
X10660063Y-16711436D02*
X10650539Y-16701912D01*
D14*
X5531000Y-17026000D02*
X5685000Y-17180000D01*
X5685000Y-17026000D02*
X5531000Y-17180000D01*
X5662448Y-17157448D02*
X5662448Y-17048552D01*
X5553552Y-17048552D01*
X5553552Y-17157448D01*
X5662448Y-17157448D01*
D11*
X6050539Y-17194484D02*
X5936253Y-17194484D01*
X5993396Y-17194484D02*
X5993396Y-16994484D01*
X5993396Y-16994484D02*
X5974348Y-17023055D01*
X5974348Y-17023055D02*
X5955301Y-17042103D01*
X5955301Y-17042103D02*
X5936253Y-17051627D01*
X6136253Y-17175436D02*
X6145777Y-17184960D01*
X6145777Y-17184960D02*
X6136253Y-17194484D01*
X6136253Y-17194484D02*
X6126729Y-17184960D01*
X6126729Y-17184960D02*
X6136253Y-17175436D01*
X6136253Y-17175436D02*
X6136253Y-17194484D01*
X6326729Y-16994484D02*
X6231491Y-16994484D01*
X6231491Y-16994484D02*
X6221967Y-17089722D01*
X6221967Y-17089722D02*
X6231491Y-17080198D01*
X6231491Y-17080198D02*
X6250539Y-17070674D01*
X6250539Y-17070674D02*
X6298158Y-17070674D01*
X6298158Y-17070674D02*
X6317205Y-17080198D01*
X6317205Y-17080198D02*
X6326729Y-17089722D01*
X6326729Y-17089722D02*
X6336253Y-17108770D01*
X6336253Y-17108770D02*
X6336253Y-17156389D01*
X6336253Y-17156389D02*
X6326729Y-17175436D01*
X6326729Y-17175436D02*
X6317205Y-17184960D01*
X6317205Y-17184960D02*
X6298158Y-17194484D01*
X6298158Y-17194484D02*
X6250539Y-17194484D01*
X6250539Y-17194484D02*
X6231491Y-17184960D01*
X6231491Y-17184960D02*
X6221967Y-17175436D01*
X6507682Y-17061150D02*
X6507682Y-17194484D01*
X6460062Y-16984960D02*
X6412443Y-17127817D01*
X6412443Y-17127817D02*
X6536253Y-17127817D01*
X6650539Y-16994484D02*
X6669586Y-16994484D01*
X6669586Y-16994484D02*
X6688634Y-17004008D01*
X6688634Y-17004008D02*
X6698158Y-17013531D01*
X6698158Y-17013531D02*
X6707682Y-17032579D01*
X6707682Y-17032579D02*
X6717205Y-17070674D01*
X6717205Y-17070674D02*
X6717205Y-17118293D01*
X6717205Y-17118293D02*
X6707682Y-17156389D01*
X6707682Y-17156389D02*
X6698158Y-17175436D01*
X6698158Y-17175436D02*
X6688634Y-17184960D01*
X6688634Y-17184960D02*
X6669586Y-17194484D01*
X6669586Y-17194484D02*
X6650539Y-17194484D01*
X6650539Y-17194484D02*
X6631491Y-17184960D01*
X6631491Y-17184960D02*
X6621967Y-17175436D01*
X6621967Y-17175436D02*
X6612443Y-17156389D01*
X6612443Y-17156389D02*
X6602920Y-17118293D01*
X6602920Y-17118293D02*
X6602920Y-17070674D01*
X6602920Y-17070674D02*
X6612443Y-17032579D01*
X6612443Y-17032579D02*
X6621967Y-17013531D01*
X6621967Y-17013531D02*
X6631491Y-17004008D01*
X6631491Y-17004008D02*
X6650539Y-16994484D01*
X6802920Y-17194484D02*
X6802920Y-17061150D01*
X6802920Y-17080198D02*
X6812443Y-17070674D01*
X6812443Y-17070674D02*
X6831491Y-17061150D01*
X6831491Y-17061150D02*
X6860063Y-17061150D01*
X6860063Y-17061150D02*
X6879110Y-17070674D01*
X6879110Y-17070674D02*
X6888634Y-17089722D01*
X6888634Y-17089722D02*
X6888634Y-17194484D01*
X6888634Y-17089722D02*
X6898158Y-17070674D01*
X6898158Y-17070674D02*
X6917205Y-17061150D01*
X6917205Y-17061150D02*
X6945777Y-17061150D01*
X6945777Y-17061150D02*
X6964824Y-17070674D01*
X6964824Y-17070674D02*
X6974348Y-17089722D01*
X6974348Y-17089722D02*
X6974348Y-17194484D01*
X7069586Y-17194484D02*
X7069586Y-17061150D01*
X7069586Y-17080198D02*
X7079110Y-17070674D01*
X7079110Y-17070674D02*
X7098158Y-17061150D01*
X7098158Y-17061150D02*
X7126729Y-17061150D01*
X7126729Y-17061150D02*
X7145777Y-17070674D01*
X7145777Y-17070674D02*
X7155301Y-17089722D01*
X7155301Y-17089722D02*
X7155301Y-17194484D01*
X7155301Y-17089722D02*
X7164824Y-17070674D01*
X7164824Y-17070674D02*
X7183872Y-17061150D01*
X7183872Y-17061150D02*
X7212443Y-17061150D01*
X7212443Y-17061150D02*
X7231491Y-17070674D01*
X7231491Y-17070674D02*
X7241015Y-17089722D01*
X7241015Y-17089722D02*
X7241015Y-17194484D01*
X7631491Y-16984960D02*
X7460063Y-17242103D01*
X7888634Y-16994484D02*
X7907682Y-16994484D01*
X7907682Y-16994484D02*
X7926729Y-17004008D01*
X7926729Y-17004008D02*
X7936253Y-17013531D01*
X7936253Y-17013531D02*
X7945777Y-17032579D01*
X7945777Y-17032579D02*
X7955301Y-17070674D01*
X7955301Y-17070674D02*
X7955301Y-17118293D01*
X7955301Y-17118293D02*
X7945777Y-17156389D01*
X7945777Y-17156389D02*
X7936253Y-17175436D01*
X7936253Y-17175436D02*
X7926729Y-17184960D01*
X7926729Y-17184960D02*
X7907682Y-17194484D01*
X7907682Y-17194484D02*
X7888634Y-17194484D01*
X7888634Y-17194484D02*
X7869586Y-17184960D01*
X7869586Y-17184960D02*
X7860063Y-17175436D01*
X7860063Y-17175436D02*
X7850539Y-17156389D01*
X7850539Y-17156389D02*
X7841015Y-17118293D01*
X7841015Y-17118293D02*
X7841015Y-17070674D01*
X7841015Y-17070674D02*
X7850539Y-17032579D01*
X7850539Y-17032579D02*
X7860063Y-17013531D01*
X7860063Y-17013531D02*
X7869586Y-17004008D01*
X7869586Y-17004008D02*
X7888634Y-16994484D01*
X8041015Y-17175436D02*
X8050539Y-17184960D01*
X8050539Y-17184960D02*
X8041015Y-17194484D01*
X8041015Y-17194484D02*
X8031491Y-17184960D01*
X8031491Y-17184960D02*
X8041015Y-17175436D01*
X8041015Y-17175436D02*
X8041015Y-17194484D01*
X8174348Y-16994484D02*
X8193396Y-16994484D01*
X8193396Y-16994484D02*
X8212444Y-17004008D01*
X8212444Y-17004008D02*
X8221967Y-17013531D01*
X8221967Y-17013531D02*
X8231491Y-17032579D01*
X8231491Y-17032579D02*
X8241015Y-17070674D01*
X8241015Y-17070674D02*
X8241015Y-17118293D01*
X8241015Y-17118293D02*
X8231491Y-17156389D01*
X8231491Y-17156389D02*
X8221967Y-17175436D01*
X8221967Y-17175436D02*
X8212444Y-17184960D01*
X8212444Y-17184960D02*
X8193396Y-17194484D01*
X8193396Y-17194484D02*
X8174348Y-17194484D01*
X8174348Y-17194484D02*
X8155301Y-17184960D01*
X8155301Y-17184960D02*
X8145777Y-17175436D01*
X8145777Y-17175436D02*
X8136253Y-17156389D01*
X8136253Y-17156389D02*
X8126729Y-17118293D01*
X8126729Y-17118293D02*
X8126729Y-17070674D01*
X8126729Y-17070674D02*
X8136253Y-17032579D01*
X8136253Y-17032579D02*
X8145777Y-17013531D01*
X8145777Y-17013531D02*
X8155301Y-17004008D01*
X8155301Y-17004008D02*
X8174348Y-16994484D01*
X8412444Y-16994484D02*
X8374348Y-16994484D01*
X8374348Y-16994484D02*
X8355301Y-17004008D01*
X8355301Y-17004008D02*
X8345777Y-17013531D01*
X8345777Y-17013531D02*
X8326729Y-17042103D01*
X8326729Y-17042103D02*
X8317206Y-17080198D01*
X8317206Y-17080198D02*
X8317206Y-17156389D01*
X8317206Y-17156389D02*
X8326729Y-17175436D01*
X8326729Y-17175436D02*
X8336253Y-17184960D01*
X8336253Y-17184960D02*
X8355301Y-17194484D01*
X8355301Y-17194484D02*
X8393396Y-17194484D01*
X8393396Y-17194484D02*
X8412444Y-17184960D01*
X8412444Y-17184960D02*
X8421968Y-17175436D01*
X8421968Y-17175436D02*
X8431491Y-17156389D01*
X8431491Y-17156389D02*
X8431491Y-17108770D01*
X8431491Y-17108770D02*
X8421968Y-17089722D01*
X8421968Y-17089722D02*
X8412444Y-17080198D01*
X8412444Y-17080198D02*
X8393396Y-17070674D01*
X8393396Y-17070674D02*
X8355301Y-17070674D01*
X8355301Y-17070674D02*
X8336253Y-17080198D01*
X8336253Y-17080198D02*
X8326729Y-17089722D01*
X8326729Y-17089722D02*
X8317206Y-17108770D01*
X8555301Y-16994484D02*
X8574349Y-16994484D01*
X8574349Y-16994484D02*
X8593396Y-17004008D01*
X8593396Y-17004008D02*
X8602920Y-17013531D01*
X8602920Y-17013531D02*
X8612444Y-17032579D01*
X8612444Y-17032579D02*
X8621968Y-17070674D01*
X8621968Y-17070674D02*
X8621968Y-17118293D01*
X8621968Y-17118293D02*
X8612444Y-17156389D01*
X8612444Y-17156389D02*
X8602920Y-17175436D01*
X8602920Y-17175436D02*
X8593396Y-17184960D01*
X8593396Y-17184960D02*
X8574349Y-17194484D01*
X8574349Y-17194484D02*
X8555301Y-17194484D01*
X8555301Y-17194484D02*
X8536253Y-17184960D01*
X8536253Y-17184960D02*
X8526729Y-17175436D01*
X8526729Y-17175436D02*
X8517206Y-17156389D01*
X8517206Y-17156389D02*
X8507682Y-17118293D01*
X8507682Y-17118293D02*
X8507682Y-17070674D01*
X8507682Y-17070674D02*
X8517206Y-17032579D01*
X8517206Y-17032579D02*
X8526729Y-17013531D01*
X8526729Y-17013531D02*
X8536253Y-17004008D01*
X8536253Y-17004008D02*
X8555301Y-16994484D01*
X8793396Y-16994484D02*
X8755301Y-16994484D01*
X8755301Y-16994484D02*
X8736253Y-17004008D01*
X8736253Y-17004008D02*
X8726729Y-17013531D01*
X8726729Y-17013531D02*
X8707682Y-17042103D01*
X8707682Y-17042103D02*
X8698158Y-17080198D01*
X8698158Y-17080198D02*
X8698158Y-17156389D01*
X8698158Y-17156389D02*
X8707682Y-17175436D01*
X8707682Y-17175436D02*
X8717206Y-17184960D01*
X8717206Y-17184960D02*
X8736253Y-17194484D01*
X8736253Y-17194484D02*
X8774349Y-17194484D01*
X8774349Y-17194484D02*
X8793396Y-17184960D01*
X8793396Y-17184960D02*
X8802920Y-17175436D01*
X8802920Y-17175436D02*
X8812444Y-17156389D01*
X8812444Y-17156389D02*
X8812444Y-17108770D01*
X8812444Y-17108770D02*
X8802920Y-17089722D01*
X8802920Y-17089722D02*
X8793396Y-17080198D01*
X8793396Y-17080198D02*
X8774349Y-17070674D01*
X8774349Y-17070674D02*
X8736253Y-17070674D01*
X8736253Y-17070674D02*
X8717206Y-17080198D01*
X8717206Y-17080198D02*
X8707682Y-17089722D01*
X8707682Y-17089722D02*
X8698158Y-17108770D01*
X8888634Y-16994484D02*
X8888634Y-17032579D01*
X8964825Y-16994484D02*
X8964825Y-17032579D01*
X9260063Y-17270674D02*
X9250539Y-17261150D01*
X9250539Y-17261150D02*
X9231491Y-17232579D01*
X9231491Y-17232579D02*
X9221968Y-17213531D01*
X9221968Y-17213531D02*
X9212444Y-17184960D01*
X9212444Y-17184960D02*
X9202920Y-17137341D01*
X9202920Y-17137341D02*
X9202920Y-17099246D01*
X9202920Y-17099246D02*
X9212444Y-17051627D01*
X9212444Y-17051627D02*
X9221968Y-17023055D01*
X9221968Y-17023055D02*
X9231491Y-17004008D01*
X9231491Y-17004008D02*
X9250539Y-16975436D01*
X9250539Y-16975436D02*
X9260063Y-16965912D01*
X9326730Y-17013531D02*
X9336253Y-17004008D01*
X9336253Y-17004008D02*
X9355301Y-16994484D01*
X9355301Y-16994484D02*
X9402920Y-16994484D01*
X9402920Y-16994484D02*
X9421968Y-17004008D01*
X9421968Y-17004008D02*
X9431491Y-17013531D01*
X9431491Y-17013531D02*
X9441015Y-17032579D01*
X9441015Y-17032579D02*
X9441015Y-17051627D01*
X9441015Y-17051627D02*
X9431491Y-17080198D01*
X9431491Y-17080198D02*
X9317206Y-17194484D01*
X9317206Y-17194484D02*
X9441015Y-17194484D01*
X9679111Y-17194484D02*
X9679111Y-16994484D01*
X9764825Y-17194484D02*
X9764825Y-17089722D01*
X9764825Y-17089722D02*
X9755301Y-17070674D01*
X9755301Y-17070674D02*
X9736253Y-17061150D01*
X9736253Y-17061150D02*
X9707682Y-17061150D01*
X9707682Y-17061150D02*
X9688634Y-17070674D01*
X9688634Y-17070674D02*
X9679111Y-17080198D01*
X9888634Y-17194484D02*
X9869587Y-17184960D01*
X9869587Y-17184960D02*
X9860063Y-17175436D01*
X9860063Y-17175436D02*
X9850539Y-17156389D01*
X9850539Y-17156389D02*
X9850539Y-17099246D01*
X9850539Y-17099246D02*
X9860063Y-17080198D01*
X9860063Y-17080198D02*
X9869587Y-17070674D01*
X9869587Y-17070674D02*
X9888634Y-17061150D01*
X9888634Y-17061150D02*
X9917206Y-17061150D01*
X9917206Y-17061150D02*
X9936253Y-17070674D01*
X9936253Y-17070674D02*
X9945777Y-17080198D01*
X9945777Y-17080198D02*
X9955301Y-17099246D01*
X9955301Y-17099246D02*
X9955301Y-17156389D01*
X9955301Y-17156389D02*
X9945777Y-17175436D01*
X9945777Y-17175436D02*
X9936253Y-17184960D01*
X9936253Y-17184960D02*
X9917206Y-17194484D01*
X9917206Y-17194484D02*
X9888634Y-17194484D01*
X10069587Y-17194484D02*
X10050539Y-17184960D01*
X10050539Y-17184960D02*
X10041015Y-17165912D01*
X10041015Y-17165912D02*
X10041015Y-16994484D01*
X10221968Y-17184960D02*
X10202920Y-17194484D01*
X10202920Y-17194484D02*
X10164825Y-17194484D01*
X10164825Y-17194484D02*
X10145777Y-17184960D01*
X10145777Y-17184960D02*
X10136253Y-17165912D01*
X10136253Y-17165912D02*
X10136253Y-17089722D01*
X10136253Y-17089722D02*
X10145777Y-17070674D01*
X10145777Y-17070674D02*
X10164825Y-17061150D01*
X10164825Y-17061150D02*
X10202920Y-17061150D01*
X10202920Y-17061150D02*
X10221968Y-17070674D01*
X10221968Y-17070674D02*
X10231492Y-17089722D01*
X10231492Y-17089722D02*
X10231492Y-17108770D01*
X10231492Y-17108770D02*
X10136253Y-17127817D01*
X10307682Y-17184960D02*
X10326730Y-17194484D01*
X10326730Y-17194484D02*
X10364825Y-17194484D01*
X10364825Y-17194484D02*
X10383873Y-17184960D01*
X10383873Y-17184960D02*
X10393396Y-17165912D01*
X10393396Y-17165912D02*
X10393396Y-17156389D01*
X10393396Y-17156389D02*
X10383873Y-17137341D01*
X10383873Y-17137341D02*
X10364825Y-17127817D01*
X10364825Y-17127817D02*
X10336253Y-17127817D01*
X10336253Y-17127817D02*
X10317206Y-17118293D01*
X10317206Y-17118293D02*
X10307682Y-17099246D01*
X10307682Y-17099246D02*
X10307682Y-17089722D01*
X10307682Y-17089722D02*
X10317206Y-17070674D01*
X10317206Y-17070674D02*
X10336253Y-17061150D01*
X10336253Y-17061150D02*
X10364825Y-17061150D01*
X10364825Y-17061150D02*
X10383873Y-17070674D01*
X10460063Y-17270674D02*
X10469587Y-17261150D01*
X10469587Y-17261150D02*
X10488634Y-17232579D01*
X10488634Y-17232579D02*
X10498158Y-17213531D01*
X10498158Y-17213531D02*
X10507682Y-17184960D01*
X10507682Y-17184960D02*
X10517206Y-17137341D01*
X10517206Y-17137341D02*
X10517206Y-17099246D01*
X10517206Y-17099246D02*
X10507682Y-17051627D01*
X10507682Y-17051627D02*
X10498158Y-17023055D01*
X10498158Y-17023055D02*
X10488634Y-17004008D01*
X10488634Y-17004008D02*
X10469587Y-16975436D01*
X10469587Y-16975436D02*
X10460063Y-16965912D01*
D15*
X5528000Y-17298500D02*
X5685000Y-17455500D01*
X5685000Y-17298500D02*
X5528000Y-17455500D01*
X5606500Y-17455500D02*
X5685000Y-17377000D01*
X5606500Y-17298500D01*
X5528000Y-17377000D01*
X5606500Y-17455500D01*
D11*
X6050539Y-17468484D02*
X5936253Y-17468484D01*
X5993396Y-17468484D02*
X5993396Y-17268484D01*
X5993396Y-17268484D02*
X5974348Y-17297055D01*
X5974348Y-17297055D02*
X5955301Y-17316103D01*
X5955301Y-17316103D02*
X5936253Y-17325627D01*
X6136253Y-17449436D02*
X6145777Y-17458960D01*
X6145777Y-17458960D02*
X6136253Y-17468484D01*
X6136253Y-17468484D02*
X6126729Y-17458960D01*
X6126729Y-17458960D02*
X6136253Y-17449436D01*
X6136253Y-17449436D02*
X6136253Y-17468484D01*
X6326729Y-17268484D02*
X6231491Y-17268484D01*
X6231491Y-17268484D02*
X6221967Y-17363722D01*
X6221967Y-17363722D02*
X6231491Y-17354198D01*
X6231491Y-17354198D02*
X6250539Y-17344674D01*
X6250539Y-17344674D02*
X6298158Y-17344674D01*
X6298158Y-17344674D02*
X6317205Y-17354198D01*
X6317205Y-17354198D02*
X6326729Y-17363722D01*
X6326729Y-17363722D02*
X6336253Y-17382770D01*
X6336253Y-17382770D02*
X6336253Y-17430389D01*
X6336253Y-17430389D02*
X6326729Y-17449436D01*
X6326729Y-17449436D02*
X6317205Y-17458960D01*
X6317205Y-17458960D02*
X6298158Y-17468484D01*
X6298158Y-17468484D02*
X6250539Y-17468484D01*
X6250539Y-17468484D02*
X6231491Y-17458960D01*
X6231491Y-17458960D02*
X6221967Y-17449436D01*
X6402920Y-17268484D02*
X6536253Y-17268484D01*
X6536253Y-17268484D02*
X6450539Y-17468484D01*
X6650539Y-17268484D02*
X6669586Y-17268484D01*
X6669586Y-17268484D02*
X6688634Y-17278008D01*
X6688634Y-17278008D02*
X6698158Y-17287531D01*
X6698158Y-17287531D02*
X6707682Y-17306579D01*
X6707682Y-17306579D02*
X6717205Y-17344674D01*
X6717205Y-17344674D02*
X6717205Y-17392293D01*
X6717205Y-17392293D02*
X6707682Y-17430389D01*
X6707682Y-17430389D02*
X6698158Y-17449436D01*
X6698158Y-17449436D02*
X6688634Y-17458960D01*
X6688634Y-17458960D02*
X6669586Y-17468484D01*
X6669586Y-17468484D02*
X6650539Y-17468484D01*
X6650539Y-17468484D02*
X6631491Y-17458960D01*
X6631491Y-17458960D02*
X6621967Y-17449436D01*
X6621967Y-17449436D02*
X6612443Y-17430389D01*
X6612443Y-17430389D02*
X6602920Y-17392293D01*
X6602920Y-17392293D02*
X6602920Y-17344674D01*
X6602920Y-17344674D02*
X6612443Y-17306579D01*
X6612443Y-17306579D02*
X6621967Y-17287531D01*
X6621967Y-17287531D02*
X6631491Y-17278008D01*
X6631491Y-17278008D02*
X6650539Y-17268484D01*
X6802920Y-17468484D02*
X6802920Y-17335150D01*
X6802920Y-17354198D02*
X6812443Y-17344674D01*
X6812443Y-17344674D02*
X6831491Y-17335150D01*
X6831491Y-17335150D02*
X6860063Y-17335150D01*
X6860063Y-17335150D02*
X6879110Y-17344674D01*
X6879110Y-17344674D02*
X6888634Y-17363722D01*
X6888634Y-17363722D02*
X6888634Y-17468484D01*
X6888634Y-17363722D02*
X6898158Y-17344674D01*
X6898158Y-17344674D02*
X6917205Y-17335150D01*
X6917205Y-17335150D02*
X6945777Y-17335150D01*
X6945777Y-17335150D02*
X6964824Y-17344674D01*
X6964824Y-17344674D02*
X6974348Y-17363722D01*
X6974348Y-17363722D02*
X6974348Y-17468484D01*
X7069586Y-17468484D02*
X7069586Y-17335150D01*
X7069586Y-17354198D02*
X7079110Y-17344674D01*
X7079110Y-17344674D02*
X7098158Y-17335150D01*
X7098158Y-17335150D02*
X7126729Y-17335150D01*
X7126729Y-17335150D02*
X7145777Y-17344674D01*
X7145777Y-17344674D02*
X7155301Y-17363722D01*
X7155301Y-17363722D02*
X7155301Y-17468484D01*
X7155301Y-17363722D02*
X7164824Y-17344674D01*
X7164824Y-17344674D02*
X7183872Y-17335150D01*
X7183872Y-17335150D02*
X7212443Y-17335150D01*
X7212443Y-17335150D02*
X7231491Y-17344674D01*
X7231491Y-17344674D02*
X7241015Y-17363722D01*
X7241015Y-17363722D02*
X7241015Y-17468484D01*
X7631491Y-17258960D02*
X7460063Y-17516103D01*
X7888634Y-17268484D02*
X7907682Y-17268484D01*
X7907682Y-17268484D02*
X7926729Y-17278008D01*
X7926729Y-17278008D02*
X7936253Y-17287531D01*
X7936253Y-17287531D02*
X7945777Y-17306579D01*
X7945777Y-17306579D02*
X7955301Y-17344674D01*
X7955301Y-17344674D02*
X7955301Y-17392293D01*
X7955301Y-17392293D02*
X7945777Y-17430389D01*
X7945777Y-17430389D02*
X7936253Y-17449436D01*
X7936253Y-17449436D02*
X7926729Y-17458960D01*
X7926729Y-17458960D02*
X7907682Y-17468484D01*
X7907682Y-17468484D02*
X7888634Y-17468484D01*
X7888634Y-17468484D02*
X7869586Y-17458960D01*
X7869586Y-17458960D02*
X7860063Y-17449436D01*
X7860063Y-17449436D02*
X7850539Y-17430389D01*
X7850539Y-17430389D02*
X7841015Y-17392293D01*
X7841015Y-17392293D02*
X7841015Y-17344674D01*
X7841015Y-17344674D02*
X7850539Y-17306579D01*
X7850539Y-17306579D02*
X7860063Y-17287531D01*
X7860063Y-17287531D02*
X7869586Y-17278008D01*
X7869586Y-17278008D02*
X7888634Y-17268484D01*
X8041015Y-17449436D02*
X8050539Y-17458960D01*
X8050539Y-17458960D02*
X8041015Y-17468484D01*
X8041015Y-17468484D02*
X8031491Y-17458960D01*
X8031491Y-17458960D02*
X8041015Y-17449436D01*
X8041015Y-17449436D02*
X8041015Y-17468484D01*
X8174348Y-17268484D02*
X8193396Y-17268484D01*
X8193396Y-17268484D02*
X8212444Y-17278008D01*
X8212444Y-17278008D02*
X8221967Y-17287531D01*
X8221967Y-17287531D02*
X8231491Y-17306579D01*
X8231491Y-17306579D02*
X8241015Y-17344674D01*
X8241015Y-17344674D02*
X8241015Y-17392293D01*
X8241015Y-17392293D02*
X8231491Y-17430389D01*
X8231491Y-17430389D02*
X8221967Y-17449436D01*
X8221967Y-17449436D02*
X8212444Y-17458960D01*
X8212444Y-17458960D02*
X8193396Y-17468484D01*
X8193396Y-17468484D02*
X8174348Y-17468484D01*
X8174348Y-17468484D02*
X8155301Y-17458960D01*
X8155301Y-17458960D02*
X8145777Y-17449436D01*
X8145777Y-17449436D02*
X8136253Y-17430389D01*
X8136253Y-17430389D02*
X8126729Y-17392293D01*
X8126729Y-17392293D02*
X8126729Y-17344674D01*
X8126729Y-17344674D02*
X8136253Y-17306579D01*
X8136253Y-17306579D02*
X8145777Y-17287531D01*
X8145777Y-17287531D02*
X8155301Y-17278008D01*
X8155301Y-17278008D02*
X8174348Y-17268484D01*
X8412444Y-17268484D02*
X8374348Y-17268484D01*
X8374348Y-17268484D02*
X8355301Y-17278008D01*
X8355301Y-17278008D02*
X8345777Y-17287531D01*
X8345777Y-17287531D02*
X8326729Y-17316103D01*
X8326729Y-17316103D02*
X8317206Y-17354198D01*
X8317206Y-17354198D02*
X8317206Y-17430389D01*
X8317206Y-17430389D02*
X8326729Y-17449436D01*
X8326729Y-17449436D02*
X8336253Y-17458960D01*
X8336253Y-17458960D02*
X8355301Y-17468484D01*
X8355301Y-17468484D02*
X8393396Y-17468484D01*
X8393396Y-17468484D02*
X8412444Y-17458960D01*
X8412444Y-17458960D02*
X8421968Y-17449436D01*
X8421968Y-17449436D02*
X8431491Y-17430389D01*
X8431491Y-17430389D02*
X8431491Y-17382770D01*
X8431491Y-17382770D02*
X8421968Y-17363722D01*
X8421968Y-17363722D02*
X8412444Y-17354198D01*
X8412444Y-17354198D02*
X8393396Y-17344674D01*
X8393396Y-17344674D02*
X8355301Y-17344674D01*
X8355301Y-17344674D02*
X8336253Y-17354198D01*
X8336253Y-17354198D02*
X8326729Y-17363722D01*
X8326729Y-17363722D02*
X8317206Y-17382770D01*
X8621968Y-17468484D02*
X8507682Y-17468484D01*
X8564825Y-17468484D02*
X8564825Y-17268484D01*
X8564825Y-17268484D02*
X8545777Y-17297055D01*
X8545777Y-17297055D02*
X8526729Y-17316103D01*
X8526729Y-17316103D02*
X8507682Y-17325627D01*
X8736253Y-17354198D02*
X8717206Y-17344674D01*
X8717206Y-17344674D02*
X8707682Y-17335150D01*
X8707682Y-17335150D02*
X8698158Y-17316103D01*
X8698158Y-17316103D02*
X8698158Y-17306579D01*
X8698158Y-17306579D02*
X8707682Y-17287531D01*
X8707682Y-17287531D02*
X8717206Y-17278008D01*
X8717206Y-17278008D02*
X8736253Y-17268484D01*
X8736253Y-17268484D02*
X8774349Y-17268484D01*
X8774349Y-17268484D02*
X8793396Y-17278008D01*
X8793396Y-17278008D02*
X8802920Y-17287531D01*
X8802920Y-17287531D02*
X8812444Y-17306579D01*
X8812444Y-17306579D02*
X8812444Y-17316103D01*
X8812444Y-17316103D02*
X8802920Y-17335150D01*
X8802920Y-17335150D02*
X8793396Y-17344674D01*
X8793396Y-17344674D02*
X8774349Y-17354198D01*
X8774349Y-17354198D02*
X8736253Y-17354198D01*
X8736253Y-17354198D02*
X8717206Y-17363722D01*
X8717206Y-17363722D02*
X8707682Y-17373246D01*
X8707682Y-17373246D02*
X8698158Y-17392293D01*
X8698158Y-17392293D02*
X8698158Y-17430389D01*
X8698158Y-17430389D02*
X8707682Y-17449436D01*
X8707682Y-17449436D02*
X8717206Y-17458960D01*
X8717206Y-17458960D02*
X8736253Y-17468484D01*
X8736253Y-17468484D02*
X8774349Y-17468484D01*
X8774349Y-17468484D02*
X8793396Y-17458960D01*
X8793396Y-17458960D02*
X8802920Y-17449436D01*
X8802920Y-17449436D02*
X8812444Y-17430389D01*
X8812444Y-17430389D02*
X8812444Y-17392293D01*
X8812444Y-17392293D02*
X8802920Y-17373246D01*
X8802920Y-17373246D02*
X8793396Y-17363722D01*
X8793396Y-17363722D02*
X8774349Y-17354198D01*
X8888634Y-17268484D02*
X8888634Y-17306579D01*
X8964825Y-17268484D02*
X8964825Y-17306579D01*
X9260063Y-17544674D02*
X9250539Y-17535150D01*
X9250539Y-17535150D02*
X9231491Y-17506579D01*
X9231491Y-17506579D02*
X9221968Y-17487531D01*
X9221968Y-17487531D02*
X9212444Y-17458960D01*
X9212444Y-17458960D02*
X9202920Y-17411341D01*
X9202920Y-17411341D02*
X9202920Y-17373246D01*
X9202920Y-17373246D02*
X9212444Y-17325627D01*
X9212444Y-17325627D02*
X9221968Y-17297055D01*
X9221968Y-17297055D02*
X9231491Y-17278008D01*
X9231491Y-17278008D02*
X9250539Y-17249436D01*
X9250539Y-17249436D02*
X9260063Y-17239912D01*
X9326730Y-17287531D02*
X9336253Y-17278008D01*
X9336253Y-17278008D02*
X9355301Y-17268484D01*
X9355301Y-17268484D02*
X9402920Y-17268484D01*
X9402920Y-17268484D02*
X9421968Y-17278008D01*
X9421968Y-17278008D02*
X9431491Y-17287531D01*
X9431491Y-17287531D02*
X9441015Y-17306579D01*
X9441015Y-17306579D02*
X9441015Y-17325627D01*
X9441015Y-17325627D02*
X9431491Y-17354198D01*
X9431491Y-17354198D02*
X9317206Y-17468484D01*
X9317206Y-17468484D02*
X9441015Y-17468484D01*
X9679111Y-17468484D02*
X9679111Y-17268484D01*
X9764825Y-17468484D02*
X9764825Y-17363722D01*
X9764825Y-17363722D02*
X9755301Y-17344674D01*
X9755301Y-17344674D02*
X9736253Y-17335150D01*
X9736253Y-17335150D02*
X9707682Y-17335150D01*
X9707682Y-17335150D02*
X9688634Y-17344674D01*
X9688634Y-17344674D02*
X9679111Y-17354198D01*
X9888634Y-17468484D02*
X9869587Y-17458960D01*
X9869587Y-17458960D02*
X9860063Y-17449436D01*
X9860063Y-17449436D02*
X9850539Y-17430389D01*
X9850539Y-17430389D02*
X9850539Y-17373246D01*
X9850539Y-17373246D02*
X9860063Y-17354198D01*
X9860063Y-17354198D02*
X9869587Y-17344674D01*
X9869587Y-17344674D02*
X9888634Y-17335150D01*
X9888634Y-17335150D02*
X9917206Y-17335150D01*
X9917206Y-17335150D02*
X9936253Y-17344674D01*
X9936253Y-17344674D02*
X9945777Y-17354198D01*
X9945777Y-17354198D02*
X9955301Y-17373246D01*
X9955301Y-17373246D02*
X9955301Y-17430389D01*
X9955301Y-17430389D02*
X9945777Y-17449436D01*
X9945777Y-17449436D02*
X9936253Y-17458960D01*
X9936253Y-17458960D02*
X9917206Y-17468484D01*
X9917206Y-17468484D02*
X9888634Y-17468484D01*
X10069587Y-17468484D02*
X10050539Y-17458960D01*
X10050539Y-17458960D02*
X10041015Y-17439912D01*
X10041015Y-17439912D02*
X10041015Y-17268484D01*
X10221968Y-17458960D02*
X10202920Y-17468484D01*
X10202920Y-17468484D02*
X10164825Y-17468484D01*
X10164825Y-17468484D02*
X10145777Y-17458960D01*
X10145777Y-17458960D02*
X10136253Y-17439912D01*
X10136253Y-17439912D02*
X10136253Y-17363722D01*
X10136253Y-17363722D02*
X10145777Y-17344674D01*
X10145777Y-17344674D02*
X10164825Y-17335150D01*
X10164825Y-17335150D02*
X10202920Y-17335150D01*
X10202920Y-17335150D02*
X10221968Y-17344674D01*
X10221968Y-17344674D02*
X10231492Y-17363722D01*
X10231492Y-17363722D02*
X10231492Y-17382770D01*
X10231492Y-17382770D02*
X10136253Y-17401817D01*
X10307682Y-17458960D02*
X10326730Y-17468484D01*
X10326730Y-17468484D02*
X10364825Y-17468484D01*
X10364825Y-17468484D02*
X10383873Y-17458960D01*
X10383873Y-17458960D02*
X10393396Y-17439912D01*
X10393396Y-17439912D02*
X10393396Y-17430389D01*
X10393396Y-17430389D02*
X10383873Y-17411341D01*
X10383873Y-17411341D02*
X10364825Y-17401817D01*
X10364825Y-17401817D02*
X10336253Y-17401817D01*
X10336253Y-17401817D02*
X10317206Y-17392293D01*
X10317206Y-17392293D02*
X10307682Y-17373246D01*
X10307682Y-17373246D02*
X10307682Y-17363722D01*
X10307682Y-17363722D02*
X10317206Y-17344674D01*
X10317206Y-17344674D02*
X10336253Y-17335150D01*
X10336253Y-17335150D02*
X10364825Y-17335150D01*
X10364825Y-17335150D02*
X10383873Y-17344674D01*
X10460063Y-17544674D02*
X10469587Y-17535150D01*
X10469587Y-17535150D02*
X10488634Y-17506579D01*
X10488634Y-17506579D02*
X10498158Y-17487531D01*
X10498158Y-17487531D02*
X10507682Y-17458960D01*
X10507682Y-17458960D02*
X10517206Y-17411341D01*
X10517206Y-17411341D02*
X10517206Y-17373246D01*
X10517206Y-17373246D02*
X10507682Y-17325627D01*
X10507682Y-17325627D02*
X10498158Y-17297055D01*
X10498158Y-17297055D02*
X10488634Y-17278008D01*
X10488634Y-17278008D02*
X10469587Y-17249436D01*
X10469587Y-17249436D02*
X10460063Y-17239912D01*
M02*
