M48
; DRILL file {KiCad 9.0.5} date 2025-10-15T01:52:36-0700
; FORMAT={-:-/ absolute / metric / decimal}
; #@! TF.CreationDate,2025-10-15T01:52:36-07:00
; #@! TF.GenerationSoftware,Kicad,Pcbnew,9.0.5
; #@! TF.FileFunction,Plated,1,4,PTH
FMAT,2
METRIC
; #@! TA.AperFunction,Plated,PTH,ViaDrill
T1C0.300
; #@! TA.AperFunction,Plated,PTH,ComponentDrill
T2C0.300
; #@! TA.AperFunction,Plated,PTH,ComponentDrill
T3C0.700
; #@! TA.AperFunction,Plated,PTH,ComponentDrill
T4C0.800
; #@! TA.AperFunction,Plated,PTH,ComponentDrill
T5C0.890
; #@! TA.AperFunction,Plated,PTH,ComponentDrill
T6C1.000
; #@! TA.AperFunction,Plated,PTH,ComponentDrill
T7C1.016
; #@! TA.AperFunction,Plated,PTH,ComponentDrill
T8C1.540
; #@! TA.AperFunction,Plated,PTH,ComponentDrill
T9C1.570
%
G90
G05
T1
X58.9Y-78.4
X58.9Y-79.3
X59.3Y-115.5
X59.3Y-120.4
X59.3Y-132.4
X59.4Y-124.9
X59.4Y-128.5
X59.5Y-143.5
X59.6Y-66.2
X59.6Y-67.0
X60.1Y-77.9
X60.1Y-78.7
X60.1Y-79.4
X60.3Y-65.8
X60.3Y-66.6
X60.3Y-67.4
X62.0Y-68.0
X62.5Y-68.7
X62.8Y-68.0
X62.8Y-143.6
X63.2Y-68.7
X63.42Y-108.325
X63.42Y-109.125
X63.5Y-102.5
X63.5Y-103.2
X63.5Y-104.0
X63.5Y-104.8
X63.6Y-68.0
X64.0Y-82.8
X64.2Y-102.9
X64.2Y-103.7
X64.2Y-104.5
X64.22Y-108.325
X64.22Y-109.125
X64.7Y-82.5
X64.7Y-83.2
X64.7Y-134.2
X64.7Y-134.9
X64.7Y-135.6
X65.02Y-108.325
X65.02Y-109.125
X65.4Y-134.2
X65.4Y-134.9
X65.4Y-135.6
X65.7Y-81.3
X66.1Y-139.3
X66.2Y-134.2
X66.2Y-134.9
X66.2Y-135.6
X66.2Y-143.7
X66.4Y-140.1
X66.9Y-134.2
X66.9Y-134.9
X66.9Y-135.6
X66.9Y-139.3
X67.3Y-140.1
X67.7Y-97.8
X67.7Y-139.3
X68.2Y-97.0
X68.2Y-107.8
X68.275Y-129.3
X68.6Y-82.7
X68.7Y-97.8
X68.72Y-114.325
X68.9Y-123.1
X69.1Y-97.0
X69.3Y-81.7
X69.3Y-82.5
X69.3Y-83.2
X69.6Y-123.1
X69.7Y-97.8
X69.7Y-133.3
X70.1Y-80.9
X70.1Y-81.7
X70.1Y-82.5
X70.1Y-83.2
X70.1Y-134.0
X70.3Y-121.3
X70.3Y-122.1
X70.3Y-123.1
X70.5Y-133.3
X70.7Y-138.2
X70.9Y-134.0
X71.3Y-59.2
X71.3Y-138.4
X71.4Y-133.3
X71.7Y-100.0
X71.7Y-100.8
X71.7Y-101.6
X71.7Y-102.4
X71.7Y-111.0
X71.8Y-123.6
X71.9Y-107.8
X72.3Y-119.5
X72.3Y-120.3
X72.6Y-100.4
X72.6Y-101.2
X72.6Y-102.0
X73.1Y-119.2
X73.1Y-119.9
X73.1Y-120.6
X73.2Y-67.9
X73.4Y-92.6
X74.3Y-131.0
X74.3Y-131.7
X74.3Y-132.4
X74.3Y-133.1
X74.9Y-131.4
X74.9Y-132.1
X74.9Y-132.8
X75.6Y-107.8
X76.1Y-95.6
X77.1Y-122.112
X77.6Y-140.9
X77.6Y-141.7
X77.7Y-101.3
X78.0Y-59.1
X78.0Y-67.9
X78.5Y-140.9
X78.5Y-141.7
X78.6Y-127.5
X78.6Y-128.3
X79.1Y-92.6
X79.3Y-140.9
X79.3Y-141.7
X79.4Y-127.3
X79.4Y-128.1
X79.4Y-128.8
X80.0Y-126.0
X80.1Y-140.9
X80.1Y-141.7
X80.6Y-133.0
X80.9Y-133.7
X81.3Y-95.5
X81.4Y-133.0
X81.5Y-80.0
X81.7Y-129.3
X81.8Y-133.7
X82.1Y-129.9
X82.2Y-133.0
X82.3Y-67.9
X82.3Y-118.8
X82.4Y-129.3
X82.5Y-123.8
X82.8Y-129.9
X83.1Y-118.1
X83.1Y-118.8
X83.1Y-119.9
X83.1Y-129.3
X83.3Y-127.5
X83.3Y-128.2
X83.5Y-129.9
X83.6Y-82.2
X83.7Y-92.6
X83.8Y-129.3
X84.1Y-101.2
X84.2Y-59.1
X84.994Y-124.224
X85.0Y-80.0
X85.9Y-95.6
X86.0Y-67.9
X86.9Y-115.2
X86.9Y-116.1
X86.9Y-116.9
X87.2Y-123.9
X87.3Y-82.2
X87.4Y-92.6
X87.4Y-136.3
X87.4Y-137.0
X87.4Y-137.7
X87.4Y-138.4
X88.1Y-125.9
X88.2Y-136.3
X88.2Y-137.0
X88.2Y-137.7
X88.2Y-138.4
X88.4Y-131.4
X88.8Y-80.0
X89.0Y-136.3
X89.0Y-137.0
X89.0Y-137.7
X89.0Y-138.4
X89.9Y-67.9
X90.7Y-59.0
X91.0Y-82.2
X91.7Y-118.6
X91.7Y-119.5
X91.7Y-120.4
X92.5Y-119.1
X92.5Y-120.0
X92.8Y-80.0
X93.0Y-141.5
X93.8Y-101.2
X94.7Y-87.4
X94.7Y-88.2
X94.7Y-88.9
X95.4Y-87.0
X95.4Y-87.8
X95.4Y-88.6
X95.4Y-89.4
X95.9Y-131.6
X96.0Y-125.9
X96.9Y-59.0
X97.6Y-118.2
X98.7Y-87.5
X98.7Y-90.0
X101.8Y-141.5
X102.1Y-125.9
X102.7Y-131.5
X103.0Y-58.9
X103.9Y-118.4
X104.3Y-93.0
X104.4Y-97.4
X104.5Y-102.1
X105.3Y-81.2
X107.2Y-125.9
X108.1Y-85.5
X108.3Y-131.6
X108.7Y-58.3
X108.7Y-59.1
X108.7Y-59.9
X109.5Y-57.9
X109.5Y-58.6
X109.5Y-59.4
X109.5Y-60.2
X109.8Y-97.6
X109.8Y-98.7
X109.8Y-99.7
X109.8Y-118.2
X110.1Y-62.3
X110.2Y-111.1
X110.7Y-81.3
X110.7Y-97.1
X110.7Y-98.1
X110.7Y-99.0
X110.7Y-100.0
X111.1Y-62.3
X111.6Y-97.1
X111.6Y-98.1
X111.6Y-99.0
X111.6Y-100.0
X111.8Y-65.41
X111.9Y-141.5
X112.1Y-62.3
X112.8Y-125.9
X113.1Y-85.5
X113.3Y-69.0
X113.3Y-69.9
X113.4Y-131.3
X114.0Y-58.4
X114.1Y-68.5
X114.1Y-69.4
X114.1Y-70.2
X115.2Y-118.3
X115.5Y-75.7
X115.5Y-81.2
X115.8Y-121.3
X115.8Y-122.0
X115.8Y-122.7
X115.8Y-123.4
X116.2Y-111.0
X116.4Y-120.9
X116.4Y-121.6
X116.4Y-122.3
X116.4Y-123.0
X116.7Y-98.3
X116.7Y-99.1
X117.0Y-121.3
X117.0Y-122.0
X117.0Y-122.7
X117.4Y-57.5
X117.4Y-58.2
X117.4Y-58.9
X117.4Y-88.9
X117.4Y-97.8
X117.4Y-98.5
X117.4Y-99.2
X117.579Y-71.23
X118.1Y-57.7
X118.1Y-58.5
X118.1Y-85.3
X118.1Y-125.9
X118.6Y-131.4
X119.8Y-98.4
X119.8Y-99.1
X120.2Y-91.325
X120.6Y-81.2
X120.62Y-58.51
X121.396Y-59.9
X121.9Y-107.0
X121.9Y-108.0
X122.0Y-98.3
X122.0Y-99.0
X122.1Y-75.7
X122.8Y-57.2
X123.0Y-71.8
X123.0Y-107.0
X123.0Y-108.0
X123.4Y-85.4
X123.8Y-141.4
X124.0Y-98.3
X124.0Y-99.0
X124.1Y-75.8
X124.1Y-107.0
X124.1Y-108.0
X124.7Y-131.6
X125.1Y-59.4
X125.1Y-60.2
X125.1Y-60.9
X125.1Y-61.7
X125.4Y-81.0
X126.2Y-95.3
X126.2Y-96.0
X126.2Y-98.1
X126.2Y-98.8
X126.2Y-99.5
X126.5Y-75.7
X126.8Y-93.9
X127.1Y-67.5
X127.1Y-68.3
X127.1Y-69.1
X127.4Y-61.0
X127.4Y-61.9
X127.4Y-100.4
X127.4Y-101.2
X127.7Y-93.9
X127.8Y-96.4
X128.0Y-123.0
X128.0Y-123.9
X128.2Y-61.0
X128.2Y-61.9
X128.2Y-66.3
X128.3Y-100.4
X128.3Y-101.2
X128.4Y-84.9
X128.8Y-123.0
X128.8Y-123.9
X128.9Y-61.0
X128.9Y-61.9
X129.1Y-126.8
X129.2Y-100.4
X129.2Y-101.2
X129.6Y-123.0
X129.6Y-123.9
X130.1Y-81.0
X130.3Y-68.4
X130.3Y-69.2
X130.3Y-70.0
X130.6Y-57.4
X130.6Y-58.1
X130.6Y-58.8
X130.9Y-134.6
X131.1Y-67.9
X131.1Y-68.7
X131.1Y-69.5
X131.1Y-70.3
X131.2Y-94.0
X131.2Y-94.7
X131.3Y-104.4
X131.3Y-105.2
X131.3Y-106.0
X131.4Y-57.7
X131.4Y-58.4
X131.7Y-129.2
X131.7Y-130.0
X131.8Y-131.4
X131.9Y-94.0
X131.9Y-94.7
X131.9Y-122.8
X131.9Y-123.5
X131.9Y-124.3
X131.9Y-125.0
X131.9Y-126.7
X132.1Y-141.5
X132.2Y-104.7
X132.2Y-105.6
X132.2Y-121.2
X132.3Y-127.4
X132.5Y-129.2
X132.5Y-130.0
X132.5Y-142.2
X132.6Y-131.4
X132.8Y-126.7
X133.0Y-133.4
X133.0Y-141.5
X133.2Y-127.4
X133.4Y-142.2
X133.7Y-126.7
X133.8Y-130.1
X133.8Y-132.5
X133.8Y-141.5
X134.2Y-142.2
X134.3Y-88.1
X134.6Y-141.5
X134.8Y-58.7
X135.58Y-132.479
X135.8Y-127.3
X136.1Y-113.3
X136.2Y-139.2
X136.2Y-140.0
X136.2Y-140.7
X136.9Y-97.7
X137.093Y-95.254
X138.2Y-121.5
X138.2Y-122.2
X138.2Y-122.9
X138.5Y-63.4
X138.9Y-121.4
X138.9Y-122.1
X140.6Y-66.6
X141.2Y-58.7
X142.1Y-101.8
X142.2Y-63.3
X142.3Y-89.4
X142.3Y-91.5
X142.4Y-103.7
X143.6Y-98.0
X143.9Y-79.8
X144.1Y-66.7
X144.4Y-95.4
X144.7Y-140.4
X144.8Y-79.8
X145.4Y-97.8
X145.4Y-99.4
X145.5Y-95.4
X145.7Y-79.8
X146.0Y-88.8
X146.1Y-63.3
X146.6Y-99.1
X146.7Y-58.5
X146.8Y-88.8
X146.9Y-94.4
X147.3Y-99.2
X147.4Y-130.5
X147.5Y-106.7
X147.5Y-107.5
X147.5Y-108.3
X147.5Y-109.0
X147.6Y-81.9
X147.6Y-82.7
X147.6Y-83.5
X147.6Y-84.3
X147.6Y-94.4
X147.8Y-89.8
X147.8Y-90.5
X147.8Y-91.2
X147.9Y-66.4
X147.9Y-92.5
X147.9Y-93.2
X147.9Y-101.5
X147.9Y-102.3
X147.9Y-103.1
X147.9Y-103.9
X148.1Y-99.2
X148.3Y-82.4
X148.3Y-83.2
X148.3Y-83.9
X148.4Y-107.1
X148.4Y-107.9
X148.4Y-108.7
X148.5Y-90.1
X148.5Y-90.9
X148.6Y-92.9
X148.7Y-101.9
X148.7Y-102.7
X148.7Y-103.5
X149.4Y-63.3
X150.4Y-134.7
X152.0Y-57.7
X152.0Y-140.7
X152.5Y-58.4
X152.8Y-62.2
X153.0Y-57.7
X153.1Y-62.9
X153.4Y-58.4
X153.4Y-130.4
X153.5Y-62.2
X153.6Y-71.3
X153.7Y-74.0
X153.8Y-57.7
X153.9Y-62.9
X153.9Y-76.8
X154.3Y-62.2
X156.0Y-134.8
X158.9Y-140.6
X159.0Y-130.6
X159.7Y-87.2
X161.9Y-134.5
X163.3Y-87.5
X163.3Y-88.4
X163.3Y-89.2
X163.3Y-90.0
X163.6Y-130.7
X164.3Y-87.5
X164.3Y-88.4
X164.3Y-89.2
X164.3Y-90.0
X165.0Y-140.6
X165.3Y-63.5
X165.3Y-87.5
X165.3Y-88.4
X165.3Y-89.2
X165.3Y-90.0
X165.4Y-70.1
X165.5Y-76.1
T2
X133.375Y-121.75
X133.375Y-122.95
X134.475Y-121.75
X134.475Y-122.95
X135.775Y-121.75
X135.775Y-122.95
X136.975Y-121.75
X136.975Y-122.95
T3
X67.0Y-76.75
X67.0Y-78.25
X67.0Y-79.75
X67.0Y-81.25
X67.0Y-82.75
X67.0Y-84.25
X67.0Y-85.75
X67.0Y-87.25
X67.0Y-88.75
X67.0Y-90.25
T4
X130.6Y-110.755
X130.6Y-112.755
T5
X70.09Y-131.36
X72.38Y-131.36
X73.398Y-136.18
X74.414Y-137.96
X75.43Y-136.18
X76.446Y-137.96
X77.462Y-136.18
X78.478Y-137.96
X79.494Y-136.18
X80.51Y-137.96
X81.52Y-131.36
X83.81Y-131.36
T6
X89.1Y-115.06
X89.1Y-117.6
X89.1Y-120.14
X159.9Y-59.2
X162.44Y-59.2
T7
X97.426Y-65.916
X97.426Y-68.456
X97.426Y-70.996
X97.426Y-73.536
X97.426Y-76.076
X97.426Y-78.616
X97.426Y-81.156
X97.426Y-83.696
X97.426Y-86.236
X97.426Y-88.776
X97.426Y-91.316
X97.426Y-93.856
X97.426Y-96.396
X97.426Y-98.936
X97.426Y-101.476
X97.426Y-104.016
X97.426Y-106.556
X97.426Y-109.096
X97.426Y-111.636
X99.966Y-65.916
X99.966Y-68.456
X99.966Y-70.996
X99.966Y-73.536
X99.966Y-76.076
X99.966Y-78.616
X99.966Y-81.156
X99.966Y-83.696
X99.966Y-86.236
X99.966Y-88.776
X99.966Y-91.316
X99.966Y-93.856
X99.966Y-96.396
X99.966Y-98.936
X99.966Y-101.476
X99.966Y-104.016
X99.966Y-106.556
X99.966Y-109.096
X99.966Y-111.636
X158.386Y-65.916
X158.386Y-68.456
X158.386Y-70.996
X158.386Y-73.536
X158.386Y-76.076
X158.386Y-78.616
X158.386Y-81.156
X158.386Y-83.696
X158.386Y-86.236
X158.386Y-88.776
X158.386Y-91.316
X158.386Y-93.856
X158.386Y-96.396
X158.386Y-98.936
X158.386Y-101.476
X158.386Y-104.016
X158.386Y-106.556
X158.386Y-109.096
X158.386Y-111.636
X160.926Y-65.916
X160.926Y-68.456
X160.926Y-70.996
X160.926Y-73.536
X160.926Y-76.076
X160.926Y-78.616
X160.926Y-81.156
X160.926Y-83.696
X160.926Y-86.236
X160.926Y-88.776
X160.926Y-91.316
X160.926Y-93.856
X160.926Y-96.396
X160.926Y-98.936
X160.926Y-101.476
X160.926Y-104.016
X160.926Y-106.556
X160.926Y-109.096
X160.926Y-111.636
T8
X68.95Y-66.2
X68.95Y-100.8
T9
X68.82Y-137.07
X85.08Y-137.07
M30
