G04 #@! TF.GenerationSoftware,KiCad,Pcbnew,9.0.5*
G04 #@! TF.CreationDate,2025-10-15T01:53:07-07:00*
G04 #@! TF.ProjectId,CAN_Sniffer_1.0,43414e5f-536e-4696-9666-65725f312e30,rev?*
G04 #@! TF.SameCoordinates,Original*
G04 #@! TF.FileFunction,Paste,Top*
G04 #@! TF.FilePolarity,Positive*
%FSLAX46Y46*%
G04 Gerber Fmt 4.6, Leading zero omitted, Abs format (unit mm)*
G04 Created by KiCad (PCBNEW 9.0.5) date 2025-10-15 01:53:07*
%MOMM*%
%LPD*%
G01*
G04 APERTURE LIST*
G04 Aperture macros list*
%AMRoundRect*
0 Rectangle with rounded corners*
0 $1 Rounding radius*
0 $2 $3 $4 $5 $6 $7 $8 $9 X,Y pos of 4 corners*
0 Add a 4 corners polygon primitive as box body*
4,1,4,$2,$3,$4,$5,$6,$7,$8,$9,$2,$3,0*
0 Add four circle primitives for the rounded corners*
1,1,$1+$1,$2,$3*
1,1,$1+$1,$4,$5*
1,1,$1+$1,$6,$7*
1,1,$1+$1,$8,$9*
0 Add four rect primitives between the rounded corners*
20,1,$1+$1,$2,$3,$4,$5,0*
20,1,$1+$1,$4,$5,$6,$7,0*
20,1,$1+$1,$6,$7,$8,$9,0*
20,1,$1+$1,$8,$9,$2,$3,0*%
G04 Aperture macros list end*
%ADD10RoundRect,0.237500X0.300000X0.237500X-0.300000X0.237500X-0.300000X-0.237500X0.300000X-0.237500X0*%
%ADD11RoundRect,0.250000X-0.650000X1.450000X-0.650000X-1.450000X0.650000X-1.450000X0.650000X1.450000X0*%
%ADD12RoundRect,0.237500X-0.250000X-0.237500X0.250000X-0.237500X0.250000X0.237500X-0.250000X0.237500X0*%
%ADD13RoundRect,0.250000X0.250000X-0.250000X0.250000X0.250000X-0.250000X0.250000X-0.250000X-0.250000X0*%
%ADD14RoundRect,0.237500X-0.237500X0.250000X-0.237500X-0.250000X0.237500X-0.250000X0.237500X0.250000X0*%
%ADD15RoundRect,0.155000X-0.212500X-0.155000X0.212500X-0.155000X0.212500X0.155000X-0.212500X0.155000X0*%
%ADD16RoundRect,0.237500X0.250000X0.237500X-0.250000X0.237500X-0.250000X-0.237500X0.250000X-0.237500X0*%
%ADD17RoundRect,0.150000X-0.825000X-0.150000X0.825000X-0.150000X0.825000X0.150000X-0.825000X0.150000X0*%
%ADD18RoundRect,0.250000X0.450000X-0.350000X0.450000X0.350000X-0.450000X0.350000X-0.450000X-0.350000X0*%
%ADD19RoundRect,0.250000X-1.500000X-0.650000X1.500000X-0.650000X1.500000X0.650000X-1.500000X0.650000X0*%
%ADD20RoundRect,0.250000X-0.475000X0.337500X-0.475000X-0.337500X0.475000X-0.337500X0.475000X0.337500X0*%
%ADD21RoundRect,0.150000X0.150000X-0.587500X0.150000X0.587500X-0.150000X0.587500X-0.150000X-0.587500X0*%
%ADD22RoundRect,0.237500X0.237500X-0.300000X0.237500X0.300000X-0.237500X0.300000X-0.237500X-0.300000X0*%
%ADD23RoundRect,0.250000X-0.337500X-0.475000X0.337500X-0.475000X0.337500X0.475000X-0.337500X0.475000X0*%
%ADD24RoundRect,0.250000X0.337500X0.475000X-0.337500X0.475000X-0.337500X-0.475000X0.337500X-0.475000X0*%
%ADD25R,2.000000X1.100000*%
%ADD26R,0.800000X0.800000*%
%ADD27RoundRect,0.237500X-0.237500X0.300000X-0.237500X-0.300000X0.237500X-0.300000X0.237500X0.300000X0*%
%ADD28R,2.000000X2.000000*%
%ADD29R,0.600000X1.550000*%
%ADD30R,3.100000X2.600000*%
%ADD31R,1.320800X0.558800*%
%ADD32RoundRect,0.250000X-0.650000X1.500000X-0.650000X-1.500000X0.650000X-1.500000X0.650000X1.500000X0*%
%ADD33RoundRect,0.237500X0.237500X-0.250000X0.237500X0.250000X-0.237500X0.250000X-0.237500X-0.250000X0*%
%ADD34RoundRect,0.250000X0.325000X0.450000X-0.325000X0.450000X-0.325000X-0.450000X0.325000X-0.450000X0*%
%ADD35RoundRect,0.250000X-0.350000X-0.450000X0.350000X-0.450000X0.350000X0.450000X-0.350000X0.450000X0*%
%ADD36R,0.700000X1.100000*%
%ADD37R,0.900000X0.930000*%
%ADD38R,1.050000X0.780000*%
%ADD39R,1.140000X1.830000*%
%ADD40R,0.860000X2.800000*%
%ADD41R,0.700000X3.330000*%
%ADD42R,0.750000X1.200000*%
%ADD43RoundRect,0.237500X-0.300000X-0.237500X0.300000X-0.237500X0.300000X0.237500X-0.300000X0.237500X0*%
%ADD44R,0.400000X1.050000*%
%ADD45R,0.600000X0.200000*%
%ADD46RoundRect,0.160000X-0.197500X-0.160000X0.197500X-0.160000X0.197500X0.160000X-0.197500X0.160000X0*%
G04 APERTURE END LIST*
D10*
X63950000Y-66250000D03*
X62225000Y-66250000D03*
D11*
X61400000Y-103500000D03*
D12*
X62200000Y-113625000D03*
X64025000Y-113625000D03*
D13*
X139700000Y-126100000D03*
X139700000Y-123600000D03*
D10*
X135580000Y-131400000D03*
X133855000Y-131400000D03*
D14*
X122100000Y-72900000D03*
X122100000Y-74725000D03*
D10*
X112595000Y-58387500D03*
X110870000Y-58387500D03*
D15*
X144400000Y-94600000D03*
X145535000Y-94600000D03*
D16*
X65865000Y-130790000D03*
X64040000Y-130790000D03*
D17*
X76080000Y-119960000D03*
X76080000Y-121230000D03*
X76080000Y-122500000D03*
X76080000Y-123770000D03*
X81030000Y-123770000D03*
X81030000Y-122500000D03*
X81030000Y-121230000D03*
X81030000Y-119960000D03*
D18*
X128400000Y-118900000D03*
X128400000Y-116900000D03*
D19*
X139300000Y-82700000D03*
X144300000Y-82700000D03*
D20*
X81530000Y-125905000D03*
X81530000Y-127980000D03*
D19*
X139425000Y-107600000D03*
X144425000Y-107600000D03*
D18*
X139400000Y-112900000D03*
X139400000Y-110900000D03*
D21*
X66000000Y-114000000D03*
X67900000Y-114000000D03*
X66950000Y-112125000D03*
D22*
X64025000Y-75500000D03*
X64025000Y-73775000D03*
D23*
X139400000Y-119550000D03*
X141475000Y-119550000D03*
D24*
X120700000Y-114600000D03*
X118625000Y-114600000D03*
X124600000Y-121400000D03*
X122525000Y-121400000D03*
X124600000Y-128100000D03*
X122525000Y-128100000D03*
D16*
X146200000Y-90500000D03*
X144375000Y-90500000D03*
D10*
X135580000Y-128900000D03*
X133855000Y-128900000D03*
D25*
X140400000Y-77200000D03*
D26*
X142300000Y-77200000D03*
D16*
X142315000Y-94300000D03*
X140490000Y-94300000D03*
D24*
X124600000Y-123600000D03*
X122525000Y-123600000D03*
D14*
X124100000Y-72900000D03*
X124100000Y-74725000D03*
D16*
X66365000Y-124540000D03*
X64540000Y-124540000D03*
D18*
X119000000Y-90100000D03*
X119000000Y-88100000D03*
D27*
X118825000Y-95300000D03*
X118825000Y-97025000D03*
D16*
X146400000Y-92900000D03*
X144575000Y-92900000D03*
X142425000Y-102700000D03*
X140600000Y-102700000D03*
D18*
X130700000Y-121200000D03*
X130700000Y-119200000D03*
D28*
X150200000Y-123825000D03*
X150200000Y-119825000D03*
D10*
X112600000Y-60665000D03*
X110875000Y-60665000D03*
D27*
X124925000Y-95325000D03*
X124925000Y-97050000D03*
D10*
X63950000Y-79375000D03*
X62225000Y-79375000D03*
D29*
X137080000Y-119650000D03*
X135810000Y-119650000D03*
X134540000Y-119650000D03*
X133270000Y-119650000D03*
X133270000Y-125050000D03*
X134540000Y-125050000D03*
X135810000Y-125050000D03*
X137080000Y-125050000D03*
D30*
X135175000Y-122350000D03*
D31*
X134430000Y-135528460D03*
X134430000Y-133628540D03*
X132398000Y-134578500D03*
D16*
X70100000Y-128300000D03*
X68275000Y-128300000D03*
D32*
X114000000Y-93700000D03*
X114000000Y-98700000D03*
D33*
X134148000Y-139725000D03*
X134148000Y-137900000D03*
D14*
X115500000Y-72900000D03*
X115500000Y-74725000D03*
D10*
X129525000Y-97600000D03*
X127800000Y-97600000D03*
D24*
X73900000Y-122000000D03*
X71825000Y-122000000D03*
D16*
X142300000Y-90500000D03*
X140475000Y-90500000D03*
D34*
X64000000Y-111375000D03*
X61950000Y-111375000D03*
D12*
X66200000Y-116125000D03*
X68025000Y-116125000D03*
D14*
X126500000Y-72865000D03*
X126500000Y-74690000D03*
D27*
X122925000Y-95300000D03*
X122925000Y-97025000D03*
D12*
X127800000Y-95400000D03*
X129625000Y-95400000D03*
D35*
X122600000Y-114600000D03*
X124600000Y-114600000D03*
D36*
X119520000Y-57800000D03*
X120620000Y-57800000D03*
X121720000Y-57800000D03*
X122820000Y-57800000D03*
X123920000Y-57800000D03*
X125020000Y-57800000D03*
X126120000Y-57800000D03*
X127220000Y-57800000D03*
D37*
X117730000Y-70265000D03*
D38*
X121995000Y-70340000D03*
D39*
X115640000Y-57815000D03*
D40*
X128300000Y-58300000D03*
D41*
X115420000Y-69065000D03*
X128300000Y-69065000D03*
D42*
X137648000Y-134250000D03*
X137648000Y-137650000D03*
D16*
X142400000Y-98900000D03*
X140575000Y-98900000D03*
D15*
X144265000Y-98700000D03*
X145400000Y-98700000D03*
D43*
X62225000Y-77775000D03*
X63950000Y-77775000D03*
D16*
X146325000Y-102700000D03*
X144500000Y-102700000D03*
D24*
X155900000Y-60000000D03*
X153825000Y-60000000D03*
D21*
X64090000Y-128665000D03*
X65990000Y-128665000D03*
X65040000Y-126790000D03*
D24*
X124600000Y-117000000D03*
X122525000Y-117000000D03*
D44*
X134800000Y-97175000D03*
X135500000Y-97175000D03*
D45*
X136300000Y-97250000D03*
X136300000Y-96750000D03*
X136300000Y-96250000D03*
X136300000Y-95750000D03*
D44*
X135500000Y-95825000D03*
X134800000Y-95825000D03*
D45*
X134000000Y-95750000D03*
X134000000Y-96250000D03*
X134000000Y-96750000D03*
X134000000Y-97250000D03*
D24*
X124600000Y-119200000D03*
X122525000Y-119200000D03*
D14*
X112800000Y-63575000D03*
X112800000Y-65400000D03*
D16*
X146300000Y-100500000D03*
X144475000Y-100500000D03*
D27*
X120925000Y-95300000D03*
X120925000Y-97025000D03*
D46*
X84205000Y-120800000D03*
X85400000Y-120800000D03*
D24*
X124600000Y-125800000D03*
X122525000Y-125800000D03*
M02*
